<?xml version="1.0" encoding="UTF-8" standalone="no"?>
<svg xmlns:xlink="http://www.w3.org/1999/xlink" height="273.95px" width="946.85px" xmlns="http://www.w3.org/2000/svg">
  <g transform="matrix(1.0, 0.0, 0.0, 1.0, 73.15, 299.9)">
    <path d="M873.15 -299.9 L873.15 -25.95 -73.15 -25.95 -73.15 -299.9 873.15 -299.9" fill="url(#gradient0)" fill-rule="evenodd" stroke="none"/>
    <path d="M253.55 -95.6 L253.15 -96.0 321.95 -162.6 459.45 -162.6 487.5 -135.5 873.15 -135.5 873.2 -96.05 528.3 -96.05 527.8 -95.6 253.55 -95.6 M528.3 -96.05 L487.5 -135.5 528.3 -96.05" fill="#002731" fill-opacity="0.5294118" fill-rule="evenodd" stroke="none"/>
    <path d="M253.55 -95.6 L253.15 -96.0 321.95 -162.6 459.45 -162.6 487.5 -135.5 873.15 -135.5 873.2 -96.05 528.3 -96.05 527.8 -95.6 M487.5 -135.5 L528.3 -96.05" fill="none" stroke="#00ccff" stroke-linecap="round" stroke-linejoin="round" stroke-width="1.0"/>
  </g>
  <defs>
    <linearGradient gradientTransform="matrix(0.0, 0.0798, -0.5776, 0.0, 400.0, -102.95)" gradientUnits="userSpaceOnUse" id="gradient0" spreadMethod="pad" x1="-819.2" x2="819.2">
      <stop offset="0.08627450980392157" stop-color="#010304" stop-opacity="0.011764706"/>
      <stop offset="0.47058823529411764" stop-color="#11333f"/>
      <stop offset="0.7372549019607844" stop-color="#287893"/>
      <stop offset="0.9764705882352941" stop-color="#08a194" stop-opacity="0.0"/>
    </linearGradient>
  </defs>
</svg>
