<?xml version="1.0" encoding="UTF-8" standalone="no"?>
<svg xmlns:xlink="http://www.w3.org/1999/xlink" height="160.45px" width="603.05px" xmlns="http://www.w3.org/2000/svg">
  <g transform="matrix(1.0, 0.0, 0.0, 1.0, 18.5, -553.75)">
    <path d="M0.0 611.95 L0.0 572.25 566.05 572.25 566.05 611.95 0.0 611.95 M566.05 637.05 L566.05 695.6 0.0 695.7 0.0 637.05 566.05 637.05" fill="#000000" fill-opacity="0.6" fill-rule="evenodd" stroke="none"/>
    <path d="M0.0 637.05 L0.0 611.95 566.05 611.95 566.05 637.05 0.0 637.05" fill="#000000" fill-opacity="0.78039217" fill-rule="evenodd" stroke="none"/>
    <path d="M0.0 637.05 L0.0 611.95 0.0 572.25 566.05 572.25 566.05 611.95 566.05 637.05 566.05 695.6 0.0 695.7 0.0 637.05 Z" fill="none" stroke="#c6c6c6" stroke-linecap="round" stroke-linejoin="round" stroke-opacity="0.41960785" stroke-width="1.0"/>
    <path d="M173.1 595.1 Q171.9 596.05 170.75 596.5 L168.25 597.0 Q166.9 597.0 165.95 596.5 165.0 595.95 164.45 595.1 163.95 594.2 163.95 593.2 163.95 591.85 164.8 590.9 165.7 589.95 167.2 589.6 L168.8 589.3 170.95 588.8 172.9 588.25 Q172.8 586.95 172.4 586.35 171.9 585.75 170.4 585.75 L168.5 586.05 Q167.9 586.4 167.4 587.1 L166.75 588.1 165.95 588.25 165.0 587.95 Q164.55 587.6 164.55 587.0 164.55 586.15 165.2 585.3 165.8 584.45 167.1 583.95 168.45 583.4 170.4 583.4 172.65 583.4 173.9 583.95 175.15 584.4 175.65 585.55 176.2 586.7 176.2 588.55 L176.2 590.55 176.15 592.35 Q176.15 593.3 176.5 594.35 L176.8 595.65 176.3 596.55 Q175.85 597.0 175.25 597.0 174.7 597.0 174.2 596.5 L173.1 595.1 M172.9 590.25 L170.75 590.85 168.85 591.25 Q168.3 591.45 167.8 591.8 167.3 592.25 167.3 592.95 167.3 593.75 167.9 594.3 168.5 594.8 169.4 594.8 L171.2 594.4 172.45 593.25 Q172.9 592.5 172.9 590.75 L172.9 590.25 M188.7 595.05 L188.7 594.75 187.4 596.05 Q186.75 596.5 185.95 596.75 L184.25 597.0 Q183.05 597.0 182.1 596.5 181.0 595.95 180.3 595.05 179.55 594.1 179.15 592.85 178.8 591.55 178.8 590.05 178.8 586.95 180.3 585.2 181.85 583.45 184.3 583.45 185.75 583.45 186.8 583.95 187.75 584.4 188.7 585.45 L188.7 580.5 Q188.7 579.45 189.15 579.0 189.5 578.45 190.3 578.45 191.05 578.45 191.5 578.95 191.85 579.4 191.85 580.4 L191.85 595.05 Q191.85 596.05 191.4 596.5 191.0 597.0 190.3 597.0 189.6 597.0 189.15 596.5 188.7 596.05 188.7 595.05 M196.95 581.9 Q196.25 581.9 195.75 581.4 195.25 581.0 195.25 580.2 195.25 579.45 195.75 579.05 196.3 578.55 196.95 578.55 197.6 578.55 198.1 579.0 198.6 579.4 198.6 580.2 198.6 581.0 198.1 581.4 197.6 581.9 196.95 581.9 M182.15 590.2 Q182.15 591.5 182.55 592.5 183.0 593.45 183.7 593.9 184.45 594.4 185.3 594.4 186.2 594.4 186.9 594.0 L188.1 592.55 Q188.55 591.55 188.55 590.2 188.55 588.85 188.1 587.9 L186.9 586.4 Q186.2 585.9 185.3 585.9 184.4 585.9 183.65 586.45 182.95 586.95 182.5 587.9 182.15 588.85 182.15 590.2 M198.6 585.3 L198.6 594.95 Q198.6 595.95 198.1 596.5 197.6 597.0 196.9 597.0 196.2 597.0 195.7 596.45 195.25 595.95 195.25 594.95 L195.25 585.45 Q195.25 584.4 195.7 583.95 196.2 583.4 196.9 583.4 197.6 583.4 198.1 583.95 198.6 584.4 198.6 585.3 M205.05 585.25 L205.05 585.65 Q205.95 584.45 206.95 584.0 208.05 583.4 209.35 583.4 210.7 583.4 211.7 584.0 212.8 584.55 213.25 585.6 213.65 586.2 213.7 586.95 L213.8 588.75 213.8 594.95 Q213.8 595.95 213.35 596.5 212.9 597.0 212.15 597.0 211.4 597.0 210.95 596.45 210.5 595.95 210.5 594.95 L210.5 589.4 Q210.5 587.7 210.0 586.9 209.55 585.95 208.2 585.95 207.3 585.95 206.6 586.5 205.8 587.05 205.5 587.95 205.25 588.75 205.25 590.8 L205.25 594.95 Q205.25 595.95 204.8 596.5 204.3 597.0 203.5 597.0 202.85 597.0 202.4 596.45 201.9 595.95 201.9 594.95 L201.9 585.3 Q201.9 584.35 202.3 583.85 202.75 583.4 203.45 583.4 L204.25 583.65 204.85 584.25 205.05 585.25 M229.45 585.85 L229.45 595.55 Q229.45 597.25 229.1 598.45 228.75 599.65 227.95 600.4 227.2 601.2 225.9 601.55 L222.8 601.95 219.65 601.5 Q218.35 600.95 217.6 600.25 216.85 599.45 216.85 598.7 216.85 598.0 217.25 597.65 217.65 597.3 218.25 597.3 219.0 597.3 219.55 597.9 L220.15 598.6 220.75 599.15 221.6 599.5 222.7 599.65 224.7 599.3 225.75 598.25 226.1 596.85 226.15 594.45 224.35 596.15 Q223.35 596.7 221.95 596.7 220.25 596.7 219.05 595.85 217.8 595.0 217.05 593.45 216.4 591.85 216.4 589.9 216.4 588.4 216.85 587.2 217.25 585.9 218.05 585.15 218.75 584.3 219.75 583.85 L221.95 583.45 Q223.35 583.45 224.4 584.0 225.45 584.55 226.35 585.65 L226.35 585.25 Q226.35 584.35 226.75 583.85 227.2 583.4 227.85 583.4 228.8 583.4 229.15 584.05 L229.45 585.85 M219.75 590.05 Q219.75 592.1 220.7 593.15 221.5 594.2 222.95 594.2 L224.55 593.75 225.75 592.4 Q226.2 591.5 226.2 590.25 226.2 588.2 225.3 587.05 224.4 585.9 222.9 585.9 221.5 585.9 220.6 587.0 219.75 588.1 219.75 590.05 M250.8 594.65 L249.95 592.4 242.65 592.4 241.8 594.7 240.9 596.5 Q240.55 597.0 239.75 597.0 239.1 597.0 238.55 596.5 238.0 595.95 238.0 595.35 238.0 595.0 238.15 594.6 L238.55 593.5 243.15 581.9 243.6 580.7 244.2 579.45 245.05 578.75 246.25 578.45 247.55 578.75 Q248.05 579.0 248.35 579.45 L248.9 580.45 249.45 581.8 254.15 593.45 Q254.7 594.7 254.7 595.3 254.7 595.95 254.15 596.5 253.6 597.0 252.9 597.0 L252.15 596.85 251.7 596.45 251.2 595.6 250.8 594.65 M243.6 589.65 L248.95 589.65 246.25 582.25 243.6 589.65 M266.3 595.05 L266.3 594.75 265.0 596.05 263.55 596.75 261.85 597.0 259.7 596.5 Q258.6 595.95 257.9 595.05 257.15 594.1 256.75 592.85 256.35 591.55 256.35 590.05 256.35 586.95 257.9 585.2 259.45 583.45 261.9 583.45 263.35 583.45 264.4 583.95 L266.3 585.45 266.3 580.5 Q266.3 579.45 266.75 579.0 267.1 578.45 267.85 578.45 268.65 578.45 269.1 578.95 269.45 579.4 269.45 580.4 L269.45 595.05 Q269.45 596.05 269.0 596.5 268.6 597.0 267.85 597.0 267.2 597.0 266.75 596.5 266.3 596.05 266.3 595.05 M259.75 590.2 Q259.75 591.5 260.15 592.5 260.6 593.45 261.3 593.9 262.05 594.4 262.9 594.4 263.8 594.4 264.5 594.0 L265.7 592.55 Q266.15 591.55 266.15 590.2 266.15 588.85 265.7 587.9 265.2 586.95 264.5 586.4 263.8 585.9 262.9 585.9 261.95 585.9 261.25 586.45 260.55 586.95 260.1 587.9 259.75 588.85 259.75 590.2 M275.2 585.5 L277.95 593.1 280.8 585.15 281.5 583.8 Q281.85 583.4 282.5 583.4 L283.6 583.8 284.05 584.85 283.95 585.3 283.75 585.9 283.5 586.45 280.35 594.45 279.95 595.3 279.5 596.2 278.9 596.8 277.95 597.0 276.8 596.7 276.2 595.95 275.45 594.45 272.35 586.6 272.1 585.95 271.9 585.35 271.8 584.85 272.05 584.15 272.55 583.65 273.35 583.4 Q274.2 583.4 274.55 583.85 L275.2 585.5 M295.75 591.05 L289.2 591.05 Q289.2 592.2 289.65 593.0 290.1 593.9 290.8 594.35 L292.5 594.75 293.6 594.65 294.55 594.2 295.4 593.55 296.4 592.6 297.15 592.4 Q297.65 592.4 297.95 592.7 L298.25 593.5 297.9 594.5 296.9 595.75 295.1 596.65 292.55 597.0 Q289.35 597.0 287.55 595.2 285.75 593.3 285.75 590.2 285.75 588.7 286.25 587.4 286.65 586.15 287.5 585.25 288.35 584.35 289.6 583.85 L292.3 583.4 Q294.3 583.4 295.7 584.25 297.05 585.0 297.8 586.35 298.45 587.65 298.45 589.0 298.45 590.25 297.75 590.65 L295.75 591.05 M289.2 589.1 L295.25 589.1 Q295.15 587.4 294.3 586.6 293.5 585.75 292.2 585.75 291.0 585.75 290.15 586.6 289.35 587.4 289.2 589.1 M304.65 592.2 L304.65 594.95 Q304.65 595.95 304.15 596.5 303.7 597.0 302.95 597.0 302.25 597.0 301.75 596.5 301.3 595.95 301.3 594.95 L301.3 585.65 Q301.3 583.4 302.9 583.4 303.75 583.4 304.1 583.95 L304.55 585.5 Q305.15 584.45 305.75 583.95 306.4 583.4 307.4 583.4 308.5 583.4 309.45 583.95 310.5 584.45 310.5 585.3 L310.05 586.35 Q309.65 586.75 309.15 586.75 L308.25 586.5 307.0 586.3 Q306.3 586.3 305.8 586.7 L305.05 587.85 304.7 589.65 304.65 592.2 M312.5 583.7 L312.85 583.7 312.85 581.7 312.9 580.45 Q312.9 579.95 313.15 579.65 313.3 579.3 313.7 579.1 L314.45 578.85 Q315.15 578.85 315.65 579.35 L316.1 580.15 316.15 581.4 316.15 583.7 317.4 583.7 Q318.1 583.7 318.5 584.05 318.85 584.35 318.85 584.9 318.85 585.55 318.3 585.85 L316.8 586.1 316.15 586.1 316.15 592.25 316.2 593.5 316.5 594.15 317.3 594.4 318.1 594.35 318.85 594.2 Q319.3 594.2 319.6 594.5 319.95 594.8 319.95 595.3 319.95 596.15 319.05 596.55 L316.5 597.0 Q314.95 597.0 314.15 596.45 313.3 595.95 313.1 595.0 312.85 594.1 312.85 592.55 L312.85 586.1 312.4 586.1 311.3 585.8 Q310.9 585.45 310.9 584.9 310.9 584.35 311.35 584.05 311.7 583.7 312.5 583.7 M322.9 581.9 Q322.15 581.9 321.7 581.4 321.2 581.0 321.2 580.2 321.2 579.45 321.7 579.05 322.25 578.55 322.9 578.55 323.55 578.55 324.05 579.0 324.5 579.4 324.5 580.2 324.5 581.0 324.05 581.4 323.55 581.9 322.9 581.9 M324.5 585.3 L324.5 594.95 Q324.5 595.95 324.05 596.5 323.55 597.0 322.85 597.0 322.1 597.0 321.65 596.45 321.2 595.95 321.2 594.95 L321.2 585.45 Q321.2 584.4 321.65 583.95 322.1 583.4 322.85 583.4 323.55 583.4 324.05 583.95 324.5 584.4 324.5 585.3 M138.2 580.6 L138.2 593.7 145.55 593.7 146.95 594.1 Q147.35 594.6 147.35 595.2 147.35 595.85 146.95 596.25 146.45 596.7 145.55 596.7 L136.75 596.7 Q135.6 596.7 135.1 596.15 134.55 595.65 134.55 594.45 L134.55 580.6 Q134.55 579.55 135.1 579.0 135.55 578.45 136.35 578.45 137.2 578.45 137.65 579.0 138.2 579.55 138.2 580.6 M162.05 590.2 Q162.05 591.7 161.55 592.95 161.1 594.2 160.2 595.1 159.35 596.05 158.05 596.5 L155.35 597.0 Q153.8 597.0 152.6 596.5 151.4 596.05 150.55 595.1 149.65 594.2 149.15 592.95 148.7 591.7 148.7 590.2 148.7 588.7 149.15 587.4 149.65 586.15 150.5 585.25 151.4 584.35 152.6 583.85 L155.35 583.4 158.05 583.85 Q159.35 584.4 160.25 585.3 161.1 586.2 161.55 587.4 162.05 588.7 162.05 590.2 M158.65 590.2 Q158.65 588.15 157.75 587.0 156.85 585.85 155.35 585.85 154.35 585.85 153.6 586.4 152.9 586.9 152.45 587.9 152.05 588.85 152.05 590.2 152.05 591.5 152.45 592.5 152.85 593.5 153.6 594.0 154.35 594.5 155.35 594.5 156.85 594.5 157.75 593.4 158.65 592.25 158.65 590.2 M338.65 592.6 Q338.65 594.0 338.0 595.0 337.35 595.95 336.0 596.5 L332.85 597.0 Q331.0 597.0 329.75 596.45 328.45 595.9 327.85 595.05 327.25 594.2 327.25 593.45 327.25 592.85 327.65 592.5 328.0 592.05 328.6 592.05 329.15 592.05 329.4 592.35 L329.95 593.1 331.2 594.4 Q331.9 594.8 333.15 594.8 334.15 594.8 334.8 594.4 335.4 593.9 335.4 593.4 335.4 592.5 334.75 592.05 L332.6 591.35 329.75 590.45 328.0 589.15 Q327.4 588.4 327.4 587.25 327.4 586.3 327.95 585.35 328.55 584.45 329.75 583.95 330.9 583.4 332.6 583.4 L334.95 583.7 Q335.95 583.95 336.6 584.4 337.35 584.85 337.7 585.45 L338.05 586.45 Q338.05 587.05 337.65 587.4 337.3 587.8 336.55 587.8 336.0 587.8 335.7 587.5 L334.85 586.65 333.95 585.85 332.6 585.55 Q331.7 585.55 331.1 585.9 330.5 586.35 330.5 586.9 330.5 587.4 330.9 587.8 L332.1 588.3 334.15 588.85 Q335.7 589.25 336.7 589.75 337.7 590.25 338.2 590.95 338.65 591.7 338.65 592.6 M350.9 591.05 L344.3 591.05 Q344.3 592.2 344.8 593.0 L345.95 594.35 Q346.75 594.75 347.65 594.75 L348.7 594.65 349.7 594.2 350.5 593.55 351.55 592.6 352.25 592.4 Q352.8 592.4 353.1 592.7 L353.4 593.5 353.05 594.5 352.05 595.75 Q351.3 596.25 350.2 596.65 L347.7 597.0 Q344.5 597.0 342.7 595.2 340.9 593.3 340.9 590.2 340.9 588.7 341.35 587.4 341.8 586.15 342.65 585.25 343.5 584.35 344.75 583.85 L347.45 583.4 Q349.45 583.4 350.8 584.25 352.2 585.0 352.95 586.35 353.6 587.65 353.6 589.0 353.6 590.25 352.85 590.65 L350.9 591.05 M344.3 589.1 L350.4 589.1 Q350.3 587.4 349.45 586.6 348.65 585.75 347.35 585.75 346.15 585.75 345.3 586.6 344.5 587.4 344.3 589.1 M367.55 590.45 L367.55 594.9 Q367.55 595.95 367.1 596.45 366.6 597.0 365.8 597.0 365.1 597.0 364.6 596.45 364.15 595.95 364.15 594.9 L364.15 589.6 364.05 587.6 363.6 586.45 Q363.25 586.05 362.4 586.05 360.75 586.05 360.2 587.1 359.75 588.25 359.75 590.35 L359.75 594.9 Q359.75 595.9 359.25 596.45 358.75 597.0 358.0 597.0 357.2 597.0 356.8 596.45 356.25 595.9 356.25 594.9 L356.25 585.3 Q356.25 584.4 356.7 583.85 357.15 583.4 357.85 583.4 358.55 583.4 359.0 583.85 359.45 584.35 359.45 585.15 L359.45 585.45 Q360.35 584.4 361.3 583.95 362.3 583.45 363.55 583.45 364.8 583.45 365.7 583.95 366.6 584.4 367.2 585.45 368.05 584.4 369.0 583.95 369.95 583.45 371.1 583.45 372.5 583.45 373.5 584.0 374.5 584.55 374.95 585.5 375.4 586.4 375.4 588.4 L375.4 594.9 Q375.4 595.95 374.9 596.45 374.4 597.0 373.65 597.0 372.9 597.0 372.45 596.45 371.95 595.9 371.95 594.9 L371.95 589.3 371.85 587.55 371.35 586.45 Q370.95 586.05 370.15 586.05 369.5 586.05 368.9 586.4 L367.9 587.5 Q367.55 588.3 367.55 590.45 M387.95 591.05 L381.4 591.05 Q381.4 592.2 381.9 593.0 382.3 593.9 383.05 594.35 383.8 594.75 384.7 594.75 L385.8 594.65 386.75 594.2 387.6 593.55 388.65 592.6 389.35 592.4 Q389.9 592.4 390.2 592.7 L390.5 593.5 390.15 594.5 389.1 595.75 387.3 596.65 384.8 597.0 Q381.6 597.0 379.8 595.2 377.95 593.3 377.95 590.2 377.95 588.7 378.45 587.4 378.9 586.15 379.7 585.25 380.55 584.35 381.85 583.85 L384.55 583.4 Q386.5 583.4 387.9 584.25 389.3 585.0 390.0 586.35 390.7 587.65 390.7 589.0 390.7 590.25 389.95 590.65 L387.95 591.05 M381.4 589.1 L387.5 589.1 Q387.35 587.4 386.5 586.6 385.75 585.75 384.4 585.75 383.2 585.75 382.35 586.6 381.6 587.4 381.4 589.1 M396.5 585.25 L396.5 585.65 Q397.4 584.45 398.45 584.0 399.5 583.4 400.85 583.4 402.15 583.4 403.2 584.0 404.3 584.55 404.75 585.6 L405.2 586.95 405.3 588.75 405.3 594.95 Q405.3 595.95 404.8 596.5 404.4 597.0 403.6 597.0 402.9 597.0 402.4 596.45 402.0 595.95 402.0 594.95 L402.0 589.4 Q402.0 587.7 401.5 586.9 401.05 585.95 399.7 585.95 398.8 585.95 398.1 586.5 397.3 587.05 397.0 587.95 396.75 588.75 396.75 590.8 L396.75 594.95 Q396.75 595.95 396.25 596.5 395.8 597.0 395.0 597.0 394.35 597.0 393.85 596.45 393.4 595.95 393.4 594.95 L393.4 585.3 Q393.4 584.35 393.8 583.85 394.25 583.4 394.95 583.4 395.35 583.4 395.75 583.65 L396.35 584.25 396.5 585.25 M408.85 583.7 L409.2 583.7 409.2 581.7 409.3 580.45 409.5 579.65 Q409.7 579.3 410.05 579.1 410.4 578.85 410.85 578.85 411.5 578.85 412.05 579.35 L412.45 580.15 412.55 581.4 412.55 583.7 413.8 583.7 Q414.45 583.7 414.85 584.05 415.25 584.35 415.25 584.9 415.25 585.55 414.7 585.85 L413.2 586.1 412.55 586.1 412.55 592.25 412.6 593.5 412.9 594.15 413.65 594.4 414.45 594.35 415.25 594.2 Q415.65 594.2 415.95 594.5 416.3 594.8 416.3 595.3 416.3 596.15 415.4 596.55 L412.9 597.0 Q411.3 597.0 410.55 596.45 409.7 595.95 409.45 595.0 409.2 594.1 409.2 592.55 L409.2 586.1 408.8 586.1 Q408.05 586.1 407.65 585.8 407.3 585.45 407.3 584.9 407.3 584.35 407.7 584.05 408.05 583.7 408.85 583.7 M419.7 597.0 Q418.95 597.0 418.45 596.5 417.9 596.05 417.9 595.1 417.9 594.4 418.35 593.85 418.9 593.3 419.7 593.3 420.45 593.3 421.0 593.85 421.55 594.4 421.55 595.1 421.55 596.05 421.0 596.5 420.45 597.0 419.7 597.0 M435.4 597.0 Q434.7 597.0 434.15 596.5 433.6 596.05 433.6 595.1 433.6 594.4 434.1 593.85 434.6 593.3 435.4 593.3 436.2 593.3 436.75 593.85 437.25 594.4 437.25 595.1 437.25 596.05 436.75 596.5 436.2 597.0 435.4 597.0 M427.5 597.0 Q426.8 597.0 426.25 596.5 425.7 596.05 425.7 595.1 425.7 594.4 426.2 593.85 426.75 593.3 427.5 593.3 428.3 593.3 428.85 593.85 429.4 594.4 429.4 595.1 429.4 596.05 428.85 596.5 428.3 597.0 427.5 597.0" fill="#000000" fill-rule="evenodd" stroke="none"/>
    <path d="M170.7 592.7 L168.35 594.1 165.85 594.6 163.55 594.1 162.05 592.7 Q161.55 591.8 161.55 590.8 161.55 589.45 162.4 588.5 163.3 587.55 164.8 587.2 L166.4 586.9 168.55 586.4 170.45 585.85 Q170.4 584.55 170.0 583.95 169.5 583.35 168.0 583.35 166.75 583.35 166.1 583.65 165.5 584.0 165.0 584.7 L164.35 585.65 163.55 585.85 162.6 585.55 Q162.15 585.2 162.15 584.6 162.15 583.75 162.75 582.9 163.35 582.05 164.7 581.5 166.0 581.0 168.0 581.0 170.25 581.0 171.5 581.5 172.75 582.0 173.25 583.15 173.8 584.3 173.8 586.15 L173.8 588.15 173.7 589.95 Q173.7 590.9 174.1 591.95 L174.4 593.25 Q174.4 593.75 173.9 594.15 L172.8 594.6 Q172.3 594.6 171.8 594.1 L170.7 592.7 M170.45 587.85 L168.35 588.45 166.45 588.85 Q165.9 589.05 165.4 589.4 164.85 589.85 164.85 590.55 164.85 591.35 165.5 591.85 166.1 592.4 167.0 592.4 L168.8 592.0 170.05 590.85 Q170.45 590.05 170.45 588.3 L170.45 587.85 M179.75 587.8 Q179.75 589.1 180.15 590.05 180.6 591.05 181.3 591.5 182.05 592.0 182.85 592.0 183.8 592.0 184.5 591.55 185.2 591.1 185.7 590.15 186.1 589.15 186.1 587.8 186.1 586.45 185.7 585.5 185.2 584.55 184.5 584.0 183.8 583.5 182.85 583.5 181.95 583.5 181.25 584.05 180.55 584.55 180.1 585.5 179.75 586.45 179.75 587.8 M186.3 592.65 L186.3 592.35 185.0 593.6 183.55 594.35 181.85 594.6 Q180.65 594.6 179.7 594.1 178.6 593.55 177.9 592.65 177.15 591.7 176.75 590.45 176.35 589.15 176.35 587.65 176.35 584.55 177.9 582.8 179.45 581.05 181.9 581.05 L184.4 581.5 Q185.35 582.0 186.3 583.05 L186.3 578.1 Q186.3 577.05 186.75 576.6 187.1 576.05 187.85 576.05 188.65 576.05 189.05 576.5 189.45 577.0 189.45 577.95 L189.45 592.65 Q189.45 593.6 189.0 594.1 188.6 594.6 187.85 594.6 187.2 594.6 186.75 594.1 186.3 593.6 186.3 592.65 M194.55 579.45 L193.35 579.0 Q192.85 578.55 192.85 577.8 192.85 577.05 193.35 576.65 193.9 576.15 194.55 576.15 195.2 576.15 195.7 576.6 196.2 577.0 196.2 577.8 196.2 578.55 195.7 579.0 195.2 579.45 194.55 579.45 M196.2 582.9 L196.2 592.55 Q196.2 593.55 195.7 594.1 195.2 594.6 194.5 594.6 193.75 594.6 193.3 594.05 192.85 593.55 192.85 592.55 L192.85 583.05 Q192.85 582.0 193.3 581.5 193.75 581.0 194.5 581.0 195.2 581.0 195.7 581.5 196.2 582.0 196.2 582.9 M202.6 582.85 L202.6 583.25 Q203.5 582.05 204.55 581.6 205.65 581.0 206.95 581.0 208.3 581.0 209.3 581.6 210.4 582.1 210.85 583.2 211.25 583.8 211.3 584.55 L211.4 586.35 211.4 592.55 Q211.4 593.55 210.95 594.1 210.5 594.6 209.7 594.6 209.0 594.6 208.5 594.05 208.1 593.55 208.1 592.55 L208.1 587.0 Q208.1 585.3 207.6 584.45 207.15 583.55 205.8 583.55 204.9 583.55 204.2 584.1 203.4 584.65 203.1 585.55 202.85 586.35 202.85 588.4 L202.85 592.55 Q202.85 593.55 202.4 594.1 201.9 594.6 201.1 594.6 200.45 594.6 199.95 594.05 199.5 593.55 199.5 592.55 L199.5 582.9 Q199.5 581.95 199.9 581.45 200.35 581.0 201.05 581.0 L201.85 581.2 202.45 581.8 202.6 582.85 M227.05 583.45 L227.05 593.15 Q227.05 594.8 226.7 596.05 226.35 597.25 225.55 598.0 L223.5 599.15 220.4 599.5 217.25 599.1 Q215.9 598.55 215.2 597.85 214.4 597.05 214.4 596.25 214.4 595.6 214.85 595.25 215.25 594.9 215.85 594.9 216.6 594.9 217.15 595.5 L217.75 596.2 218.35 596.75 Q218.7 597.0 219.15 597.1 L220.3 597.25 Q221.6 597.25 222.3 596.85 L223.35 595.85 223.7 594.45 223.75 592.05 Q222.95 593.15 221.95 593.75 220.9 594.3 219.55 594.3 217.85 594.3 216.65 593.45 215.4 592.6 214.65 591.05 214.0 589.45 214.0 587.5 214.0 585.95 214.4 584.75 214.85 583.5 215.6 582.7 216.35 581.9 217.35 581.45 L219.55 581.05 Q220.9 581.05 222.0 581.6 223.05 582.1 223.95 583.25 L223.95 582.85 Q223.95 581.95 224.35 581.45 224.75 581.0 225.45 581.0 226.4 581.0 226.75 581.65 L227.05 583.45 M217.35 587.65 Q217.35 589.7 218.25 590.75 219.1 591.8 220.55 591.8 L222.1 591.35 223.35 590.0 Q223.8 589.1 223.8 587.85 223.8 585.8 222.9 584.65 222.0 583.5 220.5 583.5 219.1 583.5 218.2 584.6 217.35 585.65 217.35 587.65 M248.35 592.25 L247.55 590.0 240.25 590.0 239.4 592.3 238.5 594.1 Q238.15 594.6 237.35 594.6 236.7 594.6 236.15 594.1 235.6 593.55 235.6 592.95 L235.75 592.2 236.15 591.1 240.7 579.45 241.2 578.25 241.8 577.05 242.65 576.35 243.85 576.05 245.1 576.35 245.95 577.05 246.5 578.05 247.05 579.4 251.75 591.05 Q252.3 592.3 252.3 592.9 252.3 593.55 251.75 594.1 251.2 594.6 250.5 594.6 L249.75 594.45 249.25 594.05 248.8 593.2 248.35 592.25 M263.9 592.65 L263.9 592.35 262.6 593.6 261.15 594.35 259.45 594.6 Q258.25 594.6 257.3 594.1 256.2 593.55 255.45 592.65 254.75 591.7 254.35 590.45 253.95 589.15 253.95 587.65 253.95 584.55 255.45 582.8 257.05 581.05 259.5 581.05 260.95 581.05 261.95 581.5 262.95 582.0 263.9 583.05 L263.9 578.1 Q263.9 577.05 264.3 576.6 264.7 576.05 265.45 576.05 266.25 576.05 266.65 576.5 267.05 577.0 267.05 577.95 L267.05 592.65 Q267.05 593.6 266.6 594.1 266.2 594.6 265.45 594.6 264.8 594.6 264.3 594.1 263.9 593.6 263.9 592.65 M257.35 587.8 Q257.35 589.1 257.75 590.05 258.2 591.05 258.9 591.5 L260.45 592.0 262.1 591.55 Q262.8 591.1 263.3 590.15 263.7 589.15 263.7 587.8 263.7 586.45 263.3 585.5 L262.1 584.0 Q261.35 583.5 260.45 583.5 259.55 583.5 258.85 584.05 258.1 584.55 257.7 585.5 257.35 586.45 257.35 587.8 M241.2 587.25 L246.55 587.25 243.85 579.85 241.2 587.25 M272.8 583.1 L275.5 590.65 278.4 582.7 Q278.75 581.8 279.05 581.4 279.45 581.0 280.1 581.0 280.75 581.0 281.2 581.4 L281.65 582.4 281.55 582.9 281.35 583.5 281.1 584.05 277.95 592.05 277.55 592.9 277.1 593.8 276.5 594.4 275.5 594.6 274.35 594.3 273.75 593.55 273.05 592.05 269.9 584.15 269.7 583.55 269.5 582.95 269.4 582.4 269.6 581.75 Q269.8 581.4 270.15 581.2 L270.95 581.0 Q271.8 581.0 272.15 581.45 L272.8 583.1 M302.25 589.75 L302.25 592.55 Q302.25 593.55 301.75 594.1 301.3 594.6 300.55 594.6 299.85 594.6 299.35 594.1 298.85 593.55 298.85 592.55 L298.85 583.25 Q298.85 581.0 300.5 581.0 301.35 581.0 301.7 581.5 L302.15 583.1 303.35 581.5 Q304.0 581.0 305.0 581.0 306.1 581.0 307.05 581.5 308.1 582.05 308.1 582.9 L307.65 583.95 Q307.25 584.35 306.75 584.35 L305.85 584.1 304.6 583.85 Q303.85 583.85 303.4 584.3 302.95 584.65 302.65 585.45 L302.3 587.25 302.25 589.75 M293.35 588.6 L286.75 588.6 Q286.75 589.75 287.25 590.6 L288.4 591.95 290.1 592.35 291.15 592.25 292.15 591.8 293.0 591.15 294.0 590.2 294.7 590.0 Q295.25 590.0 295.55 590.3 L295.85 591.1 295.5 592.1 294.5 593.3 Q293.75 593.85 292.65 594.2 L290.15 594.6 Q286.95 594.6 285.15 592.8 283.35 590.9 283.35 587.8 283.35 586.3 283.85 585.0 284.25 583.75 285.1 582.85 285.95 581.95 287.2 581.45 L289.9 581.0 Q291.9 581.0 293.3 581.8 294.65 582.6 295.4 583.95 296.05 585.25 296.05 586.6 296.05 587.85 295.3 588.25 L293.35 588.6 M286.75 586.7 L292.85 586.7 Q292.75 585.0 291.9 584.15 291.1 583.35 289.8 583.35 288.6 583.35 287.75 584.15 286.95 585.0 286.75 586.7 M320.5 579.45 Q319.75 579.45 319.3 579.0 318.8 578.55 318.8 577.8 318.8 577.05 319.3 576.65 319.8 576.15 320.5 576.15 321.15 576.15 321.65 576.6 322.1 577.0 322.1 577.8 L321.65 579.0 Q321.15 579.45 320.5 579.45 M322.1 582.9 L322.1 592.55 Q322.1 593.55 321.65 594.1 321.15 594.6 320.45 594.6 319.7 594.6 319.2 594.05 318.8 593.55 318.8 592.55 L318.8 583.05 Q318.8 582.0 319.2 581.5 319.7 581.0 320.45 581.0 321.15 581.0 321.65 581.5 322.1 582.0 322.1 582.9 M310.05 581.3 L310.45 581.3 310.45 579.3 310.5 578.05 Q310.5 577.55 310.75 577.25 310.9 576.9 311.3 576.7 L312.05 576.45 Q312.7 576.45 313.25 576.95 L313.7 577.75 313.75 579.0 313.75 581.3 315.0 581.3 Q315.65 581.3 316.1 581.65 316.45 581.95 316.45 582.5 316.45 583.15 315.9 583.45 L314.4 583.7 313.75 583.7 313.75 589.85 313.8 591.1 314.1 591.75 314.9 592.0 315.65 591.95 316.45 591.8 Q316.85 591.8 317.15 592.1 317.55 592.4 317.55 592.9 317.55 593.75 316.65 594.15 L314.1 594.6 Q312.55 594.6 311.75 594.05 310.9 593.55 310.65 592.6 L310.45 590.15 310.45 583.7 310.0 583.7 308.85 583.4 Q308.5 583.05 308.5 582.5 308.5 581.95 308.95 581.65 309.3 581.3 310.05 581.3 M135.8 578.2 L135.8 591.25 143.15 591.25 Q144.05 591.25 144.55 591.7 144.95 592.2 144.95 592.8 144.95 593.45 144.55 593.85 144.05 594.3 143.15 594.3 L134.35 594.3 Q133.2 594.3 132.65 593.75 132.15 593.25 132.15 592.05 L132.15 578.2 Q132.15 577.15 132.65 576.6 133.15 576.05 133.95 576.05 134.8 576.05 135.25 576.6 135.8 577.15 135.8 578.2 M159.65 587.8 Q159.65 589.3 159.15 590.55 158.65 591.8 157.75 592.7 156.95 593.6 155.65 594.1 L152.95 594.6 150.2 594.1 148.15 592.7 Q147.25 591.8 146.75 590.55 146.25 589.3 146.25 587.8 146.25 586.3 146.75 585.0 147.25 583.75 148.1 582.85 149.0 581.95 150.2 581.45 151.45 581.0 152.95 581.0 L155.65 581.45 Q156.95 582.0 157.85 582.9 158.65 583.8 159.15 585.0 159.65 586.3 159.65 587.8 M156.25 587.8 Q156.25 585.75 155.35 584.6 154.45 583.45 152.95 583.45 151.95 583.45 151.2 584.0 150.5 584.45 150.05 585.5 149.65 586.45 149.65 587.8 149.65 589.1 150.05 590.05 150.45 591.1 151.2 591.55 151.95 592.1 152.95 592.1 154.45 592.1 155.35 590.95 156.25 589.85 156.25 587.8 M336.25 590.2 Q336.25 591.55 335.6 592.6 334.95 593.55 333.6 594.1 L330.4 594.6 Q328.6 594.6 327.35 594.05 326.0 593.5 325.4 592.65 324.8 591.8 324.8 591.05 324.8 590.45 325.25 590.05 325.6 589.65 326.2 589.65 326.75 589.65 327.0 589.95 L327.55 590.65 Q328.05 591.5 328.8 592.0 L330.7 592.4 Q331.75 592.4 332.4 592.0 333.0 591.5 333.0 590.95 333.0 590.05 332.35 589.65 L330.2 588.9 327.35 588.0 325.6 586.75 Q325.0 585.95 325.0 584.85 325.0 583.85 325.55 582.95 326.15 582.05 327.35 581.5 328.5 581.0 330.2 581.0 L332.5 581.3 Q333.55 581.5 334.2 582.0 334.95 582.4 335.3 583.05 L335.65 584.05 Q335.65 584.65 335.25 585.0 334.85 585.35 334.15 585.35 333.6 585.35 333.3 585.05 L332.45 584.25 331.55 583.45 330.2 583.15 Q329.25 583.15 328.65 583.5 328.05 583.95 328.05 584.45 328.05 585.0 328.5 585.35 L329.7 585.9 331.75 586.45 Q333.3 586.8 334.25 587.35 L335.8 588.55 Q336.25 589.3 336.25 590.2 M341.9 586.7 L348.0 586.7 Q347.9 585.0 347.05 584.15 346.25 583.35 344.95 583.35 343.7 583.35 342.9 584.15 342.1 585.0 341.9 586.7 M348.5 588.6 L341.9 588.6 Q341.9 589.75 342.4 590.6 342.8 591.5 343.55 591.95 344.3 592.35 345.25 592.35 L346.3 592.25 347.25 591.8 348.1 591.15 349.15 590.2 349.85 590.0 Q350.4 590.0 350.7 590.3 L351.0 591.1 350.65 592.1 349.6 593.3 Q348.9 593.85 347.8 594.2 L345.3 594.6 Q342.1 594.6 340.3 592.8 338.5 590.9 338.5 587.8 338.5 586.3 338.95 585.0 339.4 583.75 340.25 582.85 341.05 581.95 342.35 581.45 L345.05 581.0 Q347.05 581.0 348.4 581.8 349.8 582.6 350.5 583.95 351.2 585.25 351.2 586.6 351.2 587.85 350.45 588.25 L348.5 588.6 M365.15 588.0 L365.15 592.5 Q365.15 593.55 364.65 594.05 364.2 594.6 363.4 594.6 362.7 594.6 362.2 594.05 361.7 593.55 361.7 592.5 L361.7 587.2 361.65 585.2 361.2 584.05 Q360.8 583.65 359.95 583.65 358.35 583.65 357.8 584.7 357.35 585.85 357.35 587.95 L357.35 592.5 Q357.35 593.5 356.85 594.05 356.35 594.6 355.6 594.6 354.8 594.6 354.4 594.05 353.85 593.5 353.85 592.5 L353.85 582.9 Q353.85 582.0 354.3 581.45 354.75 581.0 355.45 581.0 356.1 581.0 356.6 581.45 357.05 581.95 357.05 582.7 L357.05 583.05 Q357.95 582.0 358.9 581.5 L361.1 581.05 Q362.4 581.05 363.3 581.5 364.2 582.0 364.8 583.05 365.65 582.0 366.6 581.5 L368.7 581.05 Q370.1 581.05 371.1 581.6 372.05 582.1 372.55 583.1 373.0 584.0 373.0 585.95 L373.0 592.5 Q373.0 593.55 372.5 594.05 372.0 594.6 371.25 594.6 370.5 594.6 370.05 594.05 369.55 593.5 369.55 592.5 L369.55 586.9 369.45 585.15 368.95 584.05 Q368.5 583.65 367.75 583.65 L366.5 584.0 Q365.85 584.4 365.5 585.05 365.15 585.9 365.15 588.0 M385.55 588.6 L379.0 588.6 Q379.0 589.75 379.5 590.6 379.9 591.5 380.6 591.95 L382.3 592.35 383.4 592.25 384.35 591.8 385.2 591.15 386.2 590.2 386.95 590.0 Q387.5 590.0 387.8 590.3 L388.1 591.1 387.75 592.1 386.7 593.3 Q386.0 593.85 384.9 594.2 L382.35 594.6 Q379.2 594.6 377.35 592.8 375.55 590.9 375.55 587.8 375.55 586.3 376.05 585.0 376.45 583.75 377.3 582.85 378.15 581.95 379.4 581.45 380.6 581.0 382.15 581.0 384.1 581.0 385.5 581.8 386.9 582.6 387.6 583.95 388.25 585.25 388.25 586.6 388.25 587.85 387.55 588.25 L385.55 588.6 M379.0 586.7 L385.1 586.7 Q384.95 585.0 384.1 584.15 383.35 583.35 382.0 583.35 380.8 583.35 379.95 584.15 379.2 585.0 379.0 586.7 M394.1 582.85 L394.1 583.25 Q395.0 582.05 396.05 581.6 397.1 581.0 398.45 581.0 399.75 581.0 400.8 581.6 401.85 582.1 402.35 583.2 L402.8 584.55 402.9 586.35 402.9 592.55 Q402.9 593.55 402.4 594.1 402.0 594.6 401.2 594.6 400.5 594.6 400.0 594.05 399.6 593.55 399.6 592.55 L399.6 587.0 Q399.6 585.3 399.1 584.45 398.6 583.55 397.3 583.55 396.4 583.55 395.65 584.1 394.9 584.65 394.6 585.55 394.35 586.35 394.35 588.4 L394.35 592.55 Q394.35 593.55 393.85 594.1 393.4 594.6 392.6 594.6 391.95 594.6 391.45 594.05 391.0 593.55 391.0 592.55 L391.0 582.9 Q391.0 581.95 391.4 581.45 391.8 581.0 392.55 581.0 L393.3 581.2 393.95 581.8 394.1 582.85 M406.45 581.3 L406.8 581.3 406.8 579.3 406.85 578.05 Q406.85 577.55 407.1 577.25 407.3 576.9 407.65 576.7 408.0 576.45 408.45 576.45 409.1 576.45 409.65 576.95 L410.05 577.75 410.1 579.0 410.1 581.3 411.4 581.3 Q412.05 581.3 412.45 581.65 412.85 581.95 412.85 582.5 412.85 583.15 412.3 583.45 L410.8 583.7 410.1 583.7 410.1 589.85 410.2 591.1 410.5 591.75 Q410.7 592.0 411.25 592.0 L412.05 591.95 412.85 591.8 413.55 592.1 Q413.9 592.4 413.9 592.9 413.9 593.75 413.0 594.15 L410.5 594.6 Q408.9 594.6 408.15 594.05 407.3 593.55 407.05 592.6 406.8 591.7 406.8 590.15 L406.8 583.7 406.4 583.7 405.25 583.4 Q404.9 583.05 404.9 582.5 404.9 581.95 405.3 581.65 405.65 581.3 406.45 581.3 M417.3 594.6 Q416.55 594.6 416.0 594.1 415.5 593.6 415.5 592.7 415.5 592.0 415.95 591.45 416.5 590.9 417.3 590.9 418.05 590.9 418.6 591.45 419.15 592.0 419.15 592.7 419.15 593.6 418.6 594.1 418.05 594.6 417.3 594.6 M425.1 594.6 Q424.4 594.6 423.85 594.1 423.3 593.6 423.3 592.7 423.3 592.0 423.8 591.45 424.35 590.9 425.1 590.9 425.9 590.9 426.45 591.45 426.95 592.0 426.95 592.7 426.95 593.6 426.45 594.1 425.9 594.6 425.1 594.6 M433.0 594.6 Q432.25 594.6 431.75 594.1 431.2 593.6 431.2 592.7 431.2 592.0 431.65 591.45 432.2 590.9 433.0 590.9 433.8 590.9 434.3 591.45 434.85 592.0 434.85 592.7 434.85 593.6 434.3 594.1 433.8 594.6 433.0 594.6" fill="#c3dcee" fill-rule="evenodd" stroke="none"/>
  </g>
</svg>
