<?xml version="1.0" encoding="UTF-8" standalone="no"?>
<svg xmlns:xlink="http://www.w3.org/1999/xlink" height="143.65px" width="482.8px" xmlns="http://www.w3.org/2000/svg">
  <g transform="matrix(1.0, 0.0, 0.0, 1.0, -46.6, -24.65)">
    <path d="M46.6 24.65 L162.1 24.65 162.1 168.3 46.6 168.3 46.6 24.65" fill="#461e3a" fill-opacity="0.9019608" fill-rule="evenodd" stroke="none"/>
    <path d="M413.9 24.65 L529.4 24.65 529.4 168.3 413.9 168.3 413.9 24.65" fill="#69721c" fill-opacity="0.9019608" fill-rule="evenodd" stroke="none"/>
    <path d="M292.7 24.65 L408.15 24.65 408.15 168.3 292.7 168.3 292.7 24.65" fill="#195622" fill-opacity="0.9019608" fill-rule="evenodd" stroke="none"/>
    <path d="M169.75 24.65 L285.2 24.65 285.2 168.3 169.75 168.3 169.75 24.65" fill="#185266" fill-opacity="0.9019608" fill-rule="evenodd" stroke="none"/>
    <path d="M46.6 24.65 L162.1 24.65 162.1 168.3 46.6 168.3 46.6 24.65" fill="none" stroke="#f4cbff" stroke-linecap="round" stroke-linejoin="round" stroke-opacity="0.7019608" stroke-width="0.05"/>
    <path d="M169.75 24.65 L285.2 24.65 285.2 168.3 169.75 168.3 169.75 24.65" fill="none" stroke="#bff9ff" stroke-linecap="round" stroke-linejoin="round" stroke-opacity="0.7019608" stroke-width="0.05"/>
    <path d="M413.9 24.65 L529.4 24.65 529.4 168.3 413.9 168.3 413.9 24.65" fill="none" stroke="#fffab6" stroke-linecap="round" stroke-linejoin="round" stroke-opacity="0.7019608" stroke-width="0.05"/>
    <path d="M292.7 24.65 L408.15 24.65 408.15 168.3 292.7 168.3 292.7 24.65" fill="none" stroke="#b0ffaa" stroke-linecap="round" stroke-linejoin="round" stroke-opacity="0.7019608" stroke-width="0.05"/>
  </g>
</svg>
