<?xml version="1.0" encoding="UTF-8" standalone="no"?>
<svg xmlns:xlink="http://www.w3.org/1999/xlink" height="56.05px" width="56.05px" xmlns="http://www.w3.org/2000/svg">
  <g transform="matrix(1.0, 0.0, 0.0, 1.0, 0.0, 28.0)">
    <path d="M2.5 -8.75 Q5.15 -8.0 5.95 -5.35 L19.25 -5.35 Q20.0 -8.0 22.65 -8.75 L22.65 -22.05 Q20.0 -22.85 19.25 -25.5 L5.95 -25.5 Q5.15 -22.85 2.5 -22.05 L2.5 -8.75 M3.75 -28.0 L21.4 -28.0 Q21.4 -24.25 25.15 -24.25 L25.15 -6.6 Q21.4 -6.6 21.4 -2.85 L3.75 -2.85 Q3.75 -6.6 0.0 -6.6 L0.0 -24.25 Q3.75 -24.25 3.75 -28.0 M34.65 -28.0 L52.3 -28.0 Q52.3 -24.25 56.05 -24.25 L56.05 -6.6 Q52.3 -6.6 52.3 -2.85 L34.65 -2.85 Q34.65 -6.6 30.9 -6.6 L30.9 -24.25 Q34.65 -24.25 34.65 -28.0 M50.15 5.4 L36.85 5.4 Q36.05 8.05 33.4 8.85 L33.4 22.15 Q36.05 22.9 36.85 25.55 L50.15 25.55 Q50.9 22.9 53.55 22.15 L53.55 8.85 Q50.9 8.05 50.15 5.4 M36.85 -5.35 L50.15 -5.35 Q50.9 -8.0 53.55 -8.75 L53.55 -22.05 Q50.9 -22.85 50.15 -25.5 L36.85 -25.5 Q36.05 -22.85 33.4 -22.05 L33.4 -8.75 Q36.05 -8.0 36.85 -5.35 M34.65 2.9 L52.3 2.9 Q52.3 6.65 56.05 6.65 L56.05 24.3 Q52.3 24.3 52.3 28.05 L34.65 28.05 Q34.65 24.3 30.9 24.3 L30.9 6.65 Q34.65 6.65 34.65 2.9 M22.65 8.85 Q20.0 8.05 19.25 5.4 L5.95 5.4 Q5.15 8.05 2.5 8.85 L2.5 22.15 Q5.15 22.9 5.95 25.55 L19.25 25.55 Q20.0 22.9 22.65 22.15 L22.65 8.85 M3.75 2.9 L21.4 2.9 Q21.4 6.65 25.15 6.65 L25.15 24.3 Q21.4 24.3 21.4 28.05 L3.75 28.05 Q3.75 24.3 0.0 24.3 L0.0 6.65 Q3.75 6.65 3.75 2.9" fill="#0aeef5" fill-rule="evenodd" stroke="none"/>
    <path d="M2.5 -8.75 L2.5 -22.05 Q5.15 -22.85 5.95 -25.5 L19.25 -25.5 Q20.0 -22.85 22.65 -22.05 L22.65 -8.75 Q20.0 -8.0 19.25 -5.35 L5.95 -5.35 Q5.15 -8.0 2.5 -8.75 M36.85 -5.35 Q36.05 -8.0 33.4 -8.75 L33.4 -22.05 Q36.05 -22.85 36.85 -25.5 L50.15 -25.5 Q50.9 -22.85 53.55 -22.05 L53.55 -8.75 Q50.9 -8.0 50.15 -5.35 L36.85 -5.35 M50.15 5.4 Q50.9 8.05 53.55 8.85 L53.55 22.15 Q50.9 22.9 50.15 25.55 L36.85 25.55 Q36.05 22.9 33.4 22.15 L33.4 8.85 Q36.05 8.05 36.85 5.4 L50.15 5.4 M22.65 8.85 L22.65 22.15 Q20.0 22.9 19.25 25.55 L5.95 25.55 Q5.15 22.9 2.5 22.15 L2.5 8.85 Q5.15 8.05 5.95 5.4 L19.25 5.4 Q20.0 8.05 22.65 8.85" fill="#023c56" fill-opacity="0.9411765" fill-rule="evenodd" stroke="none"/>
    <path d="M3.75 -28.0 L21.4 -28.0 Q21.4 -24.25 25.15 -24.25 L25.15 -6.6 Q21.4 -6.6 21.4 -2.85 L3.75 -2.85 Q3.75 -6.6 0.0 -6.6 L0.0 -24.25 Q3.75 -24.25 3.75 -28.0 M34.65 -28.0 L52.3 -28.0 Q52.3 -24.25 56.05 -24.25 L56.05 -6.6 Q52.3 -6.6 52.3 -2.85 L34.65 -2.85 Q34.65 -6.6 30.9 -6.6 L30.9 -24.25 Q34.65 -24.25 34.65 -28.0 M34.65 2.9 L52.3 2.9 Q52.3 6.65 56.05 6.65 L56.05 24.3 Q52.3 24.3 52.3 28.05 L34.65 28.05 Q34.65 24.3 30.9 24.3 L30.9 6.65 Q34.65 6.65 34.65 2.9 M3.75 2.9 L21.4 2.9 Q21.4 6.65 25.15 6.65 L25.15 24.3 Q21.4 24.3 21.4 28.05 L3.75 28.05 Q3.75 24.3 0.0 24.3 L0.0 6.65 Q3.75 6.65 3.75 2.9" fill="none" stroke="#000000" stroke-linecap="round" stroke-linejoin="round" stroke-width="0.05"/>
  </g>
</svg>
