<?xml version="1.0" encoding="UTF-8" standalone="no"?>
<svg xmlns:xlink="http://www.w3.org/1999/xlink" height="152.9px" width="231.95px" xmlns="http://www.w3.org/2000/svg">
  <g transform="matrix(1.0, 0.0, 0.0, 1.0, 0.0, 81.85)">
    <path d="M5.8 -48.55 Q47.5 -82.75 101.7 -81.85 L102.65 -81.65 Q71.2 -70.65 44.4 -41.8 L43.9 -41.1 Q46.05 -24.15 66.95 -13.6 L67.85 -13.15 68.35 -13.05 Q69.65 -14.85 70.45 -16.55 70.35 -15.7 70.8 -16.9 71.75 -19.55 80.75 -38.05 L81.4 -37.55 Q106.4 -0.15 125.95 39.2 L125.45 39.7 Q83.75 53.95 38.5 60.6 L38.8 59.7 Q42.6 46.4 49.6 32.0 L48.7 31.55 Q1.3 6.0 0.15 -35.3 -0.85 -42.95 5.8 -48.55 M105.35 -54.3 L188.55 -75.3 189.4 -75.2 Q192.85 -74.25 192.3 -72.0 L192.0 -71.2 186.3 -57.9 185.95 -57.1 Q184.0 -52.55 182.55 -47.8 L183.0 -47.6 Q222.4 -21.75 231.9 14.35 232.3 30.3 227.3 34.65 L222.05 39.05 Q221.8 39.05 221.5 39.35 L221.25 39.55 Q190.8 62.0 153.5 70.05 137.3 73.55 129.4 64.85 163.2 57.45 187.15 28.7 L187.6 28.0 Q185.95 11.55 166.4 1.3 L165.5 0.85 165.55 0.35 Q164.45 -0.55 163.1 -1.15 L153.15 22.05 152.8 22.85 152.65 23.3 Q122.95 -11.5 105.35 -54.3" fill="#98f07d" fill-rule="evenodd" stroke="none"/>
    <path d="M5.6 -36.0 Q5.15 -40.75 9.3 -44.3 38.85 -68.55 74.95 -74.45 56.8 -63.25 40.4 -45.55 L40.5 -45.7 Q39.6 -44.8 39.0 -43.55 38.25 -42.05 38.45 -40.4 40.55 -20.85 64.3 -8.8 L65.65 -8.1 Q72.6 -5.0 73.25 -10.45 L74.5 -12.35 Q75.1 -12.75 75.95 -14.95 76.65 -16.85 81.65 -27.2 101.85 3.85 118.35 36.3 83.6 47.65 46.45 53.8 49.7 44.35 54.55 34.4 55.2 33.05 55.1 31.55 54.95 30.05 54.1 28.85 53.2 27.6 51.85 27.0 L51.4 26.75 51.3 26.7 Q7.05 2.85 5.65 -35.45 L5.6 -36.0 M112.95 -50.5 L184.95 -68.7 181.35 -60.25 180.9 -59.25 180.85 -59.15 180.8 -59.0 Q178.8 -54.3 177.3 -49.4 176.7 -47.4 177.55 -45.5 178.4 -43.6 180.35 -42.75 217.15 -18.5 226.45 15.15 226.65 26.95 223.75 30.45 L223.7 30.5 219.65 33.95 219.15 34.35 219.0 34.5 219.35 34.4 217.75 35.35 218.0 35.15 217.8 35.25 217.55 35.5 Q188.2 56.95 152.35 64.7 L146.4 65.5 Q171.8 55.6 191.15 32.55 192.2 31.4 192.75 29.95 193.2 28.7 193.1 27.45 191.55 9.25 171.3 -2.3 170.6 -3.65 168.65 -4.2 167.1 -5.35 165.35 -6.15 L161.1 -6.25 Q158.95 -5.4 158.05 -3.3 L151.15 12.85 Q127.95 -16.15 112.95 -50.5" fill="#2a5635" fill-opacity="0.76862746" fill-rule="evenodd" stroke="none"/>
  </g>
</svg>
