<?xml version="1.0" encoding="UTF-8" standalone="no"?>
<svg xmlns:xlink="http://www.w3.org/1999/xlink" height="894.2px" width="572.15px" xmlns="http://www.w3.org/2000/svg">
  <g transform="matrix(1.0, 0.0, 0.0, 1.0, 0.0, 447.1)">
    <path d="M0.0 -447.1 L572.15 -447.1 572.15 447.1 0.0 447.1 0.0 -447.1" fill="url(#gradient0)" fill-rule="evenodd" stroke="none"/>
    <path d="M331.2 -396.95 Q332.75 -396.8 333.5 -395.5 334.3 -394.05 333.35 -392.75 332.65 -391.55 331.2 -391.65 328.65 -391.8 328.45 -394.05 L328.7 -395.1 Q329.05 -396.3 330.3 -396.65 L331.2 -396.95 M363.0 -417.9 Q364.55 -417.75 365.35 -416.45 366.15 -415.0 365.15 -413.75 364.45 -412.5 363.0 -412.6 360.5 -412.75 360.25 -415.0 L360.5 -416.05 Q360.85 -417.25 362.1 -417.65 L363.0 -417.9 M415.75 -413.75 L418.0 -412.6 Q418.8 -412.1 419.15 -411.2 418.65 -404.15 413.95 -409.7 411.25 -412.9 415.75 -413.75 M423.0 -398.2 Q426.75 -395.1 422.45 -396.55 420.1 -397.4 423.0 -398.2 M451.9 -415.0 Q453.5 -414.85 454.25 -413.55 455.05 -412.1 454.05 -410.85 453.35 -409.6 451.9 -409.7 449.4 -409.85 449.15 -412.1 L449.4 -413.2 Q449.75 -414.35 451.0 -414.75 L451.9 -415.0 M519.1 -432.15 Q522.85 -429.05 518.6 -430.55 516.25 -431.4 519.1 -432.15 M559.6 -405.05 L561.85 -403.95 Q562.65 -403.45 563.0 -402.5 562.5 -395.45 557.8 -401.05 555.1 -404.2 559.6 -405.05 M31.3 -417.3 L33.5 -416.25 Q34.3 -415.75 34.75 -414.8 34.2 -407.75 29.5 -413.3 26.8 -416.5 31.3 -417.3 M54.45 -396.95 Q56.0 -396.8 56.75 -395.5 57.55 -394.05 56.6 -392.75 55.9 -391.55 54.45 -391.65 51.9 -391.8 51.7 -394.05 L51.95 -395.1 Q52.3 -396.3 53.55 -396.65 L54.45 -396.95 M86.25 -417.9 Q87.8 -417.75 88.6 -416.45 89.4 -415.0 88.4 -413.75 87.7 -412.5 86.25 -412.6 83.75 -412.75 83.5 -415.0 L83.75 -416.05 Q84.1 -417.25 85.35 -417.65 L86.25 -417.9 M139.0 -413.75 L141.25 -412.6 Q142.05 -412.1 142.4 -411.2 141.9 -404.15 137.2 -409.7 134.5 -412.9 139.0 -413.75 M146.25 -398.2 Q150.0 -395.1 145.7 -396.55 143.35 -397.4 146.25 -398.2 M175.15 -415.0 Q176.75 -414.85 177.5 -413.55 178.3 -412.1 177.3 -410.85 176.6 -409.6 175.15 -409.7 172.65 -409.85 172.4 -412.1 L172.65 -413.2 Q173.0 -414.35 174.25 -414.75 L175.15 -415.0 M242.35 -432.15 Q246.1 -429.05 241.85 -430.55 239.5 -431.4 242.35 -432.15 M282.85 -405.05 L285.1 -403.95 Q285.9 -403.45 286.25 -402.5 285.75 -395.45 281.05 -401.05 278.35 -404.2 282.85 -405.05 M308.05 -417.3 L310.25 -416.25 Q311.05 -415.75 311.5 -414.8 310.95 -407.75 306.25 -413.3 303.55 -416.5 308.05 -417.3 M284.9 -396.0 Q288.65 -392.9 284.4 -394.4 282.05 -395.25 284.9 -396.0 M311.65 -366.35 Q315.45 -363.3 311.15 -364.75 308.8 -365.6 311.65 -366.35 M278.5 -389.5 Q282.25 -386.4 278.0 -387.9 275.65 -388.7 278.5 -389.5 M282.75 -316.5 Q286.5 -313.4 282.25 -314.9 279.85 -315.7 282.75 -316.5 M260.45 -323.0 Q264.2 -319.9 259.9 -321.4 257.55 -322.2 260.45 -323.0 M292.25 -330.95 Q296.0 -327.85 291.75 -329.35 289.35 -330.15 292.25 -330.95 M322.5 -309.65 L324.7 -308.5 Q325.55 -308.0 325.9 -307.1 325.4 -300.05 320.7 -305.6 318.0 -308.8 322.5 -309.65 M313.1 -315.95 Q314.7 -315.85 315.45 -314.5 316.25 -313.1 315.25 -311.8 314.55 -310.6 313.1 -310.7 310.6 -310.8 310.4 -313.1 L310.6 -314.15 Q310.95 -315.35 312.2 -315.7 L313.1 -315.95 M235.85 -362.75 Q239.65 -359.65 235.35 -361.15 233.0 -361.95 235.85 -362.75 M183.1 -377.6 L185.3 -376.45 Q186.1 -375.95 186.55 -375.05 186.0 -368.0 181.3 -373.6 178.6 -376.75 183.1 -377.6 M198.3 -390.95 Q202.05 -387.85 197.75 -389.35 195.4 -390.15 198.3 -390.95 M201.15 -339.65 Q204.95 -336.55 200.65 -338.0 198.3 -338.85 201.15 -339.65 M180.2 -345.4 Q183.95 -342.3 179.7 -343.8 177.3 -344.65 180.2 -345.4 M177.3 -303.1 Q180.6 -302.65 180.9 -299.5 181.1 -297.1 179.1 -295.7 173.65 -294.35 174.05 -299.85 174.3 -302.95 177.3 -303.1 M219.25 -334.2 L221.45 -333.1 Q222.25 -332.6 222.65 -331.65 222.15 -324.65 217.45 -330.2 214.75 -333.4 219.25 -334.2 M205.5 -304.2 Q209.25 -301.1 205.0 -302.6 202.6 -303.4 205.5 -304.2 M222.15 -291.2 Q225.9 -288.1 221.65 -289.6 219.25 -290.4 222.15 -291.2 M230.8 -262.3 Q234.55 -259.2 230.3 -260.65 227.95 -261.5 230.8 -262.3 M183.1 -270.95 Q187.05 -267.35 182.7 -268.95 180.1 -269.9 183.1 -270.95 M183.1 -248.75 Q184.65 -248.6 185.45 -247.3 186.25 -245.85 185.25 -244.55 184.55 -243.35 183.1 -243.45 180.6 -243.6 180.4 -245.85 L180.6 -246.9 Q180.95 -248.1 182.2 -248.5 L183.1 -248.75 M183.8 -217.8 Q185.0 -217.35 186.05 -216.7 186.85 -216.2 187.25 -215.3 186.75 -208.25 182.0 -213.8 179.35 -217.0 183.8 -217.8 M220.7 -240.95 L222.9 -239.85 Q223.7 -239.35 224.1 -238.45 223.55 -231.35 218.9 -236.95 216.2 -240.15 220.7 -240.95 M223.55 -200.1 Q227.35 -197.05 223.05 -198.5 220.7 -199.35 223.55 -200.1 M304.45 -278.9 Q308.2 -275.8 303.9 -277.3 301.55 -278.1 304.45 -278.9 M298.65 -255.8 Q302.4 -252.7 298.1 -254.15 295.8 -255.0 298.65 -255.8 M250.3 -279.25 L252.55 -278.15 Q253.35 -277.65 253.75 -276.75 253.2 -269.7 248.5 -275.25 245.85 -278.45 250.3 -279.25 M272.0 -237.7 Q275.8 -234.65 271.5 -236.1 269.15 -236.9 272.0 -237.7 M252.5 -200.3 Q254.05 -200.15 254.85 -198.85 255.65 -197.4 254.65 -196.15 253.95 -194.95 252.5 -195.05 250.0 -195.15 249.8 -197.4 L250.0 -198.5 Q250.35 -199.65 251.6 -200.05 L252.5 -200.3 M286.35 -243.65 Q287.95 -243.55 288.7 -242.2 289.5 -240.8 288.5 -239.5 287.8 -238.3 286.35 -238.4 283.85 -238.5 283.65 -240.8 L283.85 -241.85 Q284.2 -243.05 285.45 -243.45 L286.35 -243.65 M311.65 -209.7 Q313.25 -209.6 314.0 -208.25 314.8 -206.8 313.8 -205.55 313.1 -204.3 311.65 -204.4 309.15 -204.55 308.95 -206.8 L309.15 -207.9 Q309.55 -209.1 310.75 -209.45 L311.65 -209.7 M148.4 -367.3 Q150.0 -367.2 150.75 -365.85 151.55 -364.4 150.55 -363.1 149.85 -361.9 148.4 -362.0 145.9 -362.15 145.7 -364.4 L145.95 -365.45 Q146.25 -366.65 147.5 -367.05 L148.4 -367.3 M104.3 -396.0 Q108.05 -392.9 103.8 -394.4 101.45 -395.25 104.3 -396.0 M102.85 -365.3 L105.1 -364.2 Q105.9 -363.65 106.25 -362.75 105.75 -355.7 101.05 -361.3 98.35 -364.5 102.85 -365.3 M120.9 -341.8 Q124.7 -338.7 120.4 -340.2 118.05 -341.0 120.9 -341.8 M84.05 -330.95 Q87.8 -327.85 83.55 -329.35 81.15 -330.15 84.05 -330.95 M92.0 -318.3 Q93.2 -317.85 94.2 -317.2 95.05 -316.7 95.45 -315.8 94.9 -308.7 90.2 -314.3 87.5 -317.45 92.0 -318.3 M147.7 -321.0 Q149.25 -320.9 150.0 -319.55 150.85 -318.1 149.85 -316.85 149.15 -315.65 147.7 -315.7 145.2 -315.9 144.95 -318.1 L145.2 -319.2 Q145.55 -320.4 146.8 -320.8 L147.7 -321.0 M149.85 -323.0 Q153.6 -319.9 149.35 -321.4 146.95 -322.2 149.85 -323.0 M66.7 -351.2 Q70.45 -348.1 66.2 -349.6 63.85 -350.4 66.7 -351.2 M8.15 -396.0 Q11.9 -392.9 7.65 -394.4 5.3 -395.25 8.15 -396.0 M34.9 -366.35 Q38.7 -363.3 34.4 -364.75 32.05 -365.6 34.9 -366.35 M6.0 -316.5 Q9.75 -313.4 5.5 -314.9 3.1 -315.7 6.0 -316.5 M36.35 -315.95 Q37.95 -315.85 38.7 -314.5 39.5 -313.1 38.5 -311.8 37.8 -310.6 36.35 -310.7 33.85 -310.8 33.65 -313.1 L33.85 -314.15 Q34.2 -315.35 35.45 -315.7 L36.35 -315.95 M58.05 -334.05 Q59.65 -333.9 60.4 -332.6 61.2 -331.15 60.2 -329.85 59.5 -328.65 58.05 -328.75 55.55 -328.9 55.3 -331.15 L55.55 -332.2 Q55.9 -333.4 57.15 -333.8 L58.05 -334.05 M45.75 -309.65 L47.95 -308.5 Q48.8 -308.0 49.15 -307.1 48.65 -300.05 43.95 -305.6 41.25 -308.8 45.75 -309.65 M27.7 -278.9 Q31.45 -275.8 27.15 -277.3 24.8 -278.1 27.7 -278.9 M21.9 -255.8 Q25.65 -252.7 21.35 -254.15 19.05 -255.0 21.9 -255.8 M9.6 -243.65 Q11.2 -243.55 11.95 -242.2 12.75 -240.8 11.75 -239.5 11.05 -238.3 9.6 -238.4 7.1 -238.5 6.9 -240.8 L7.1 -241.85 Q7.45 -243.05 8.7 -243.45 L9.6 -243.65 M34.9 -209.7 Q36.5 -209.6 37.25 -208.25 38.05 -206.8 37.05 -205.55 36.35 -204.3 34.9 -204.4 32.4 -204.55 32.2 -206.8 L32.4 -207.9 Q32.8 -209.1 34.0 -209.45 L34.9 -209.7 M55.15 -240.95 L57.4 -239.85 Q58.15 -239.35 58.6 -238.45 58.05 -231.35 53.35 -236.95 50.65 -240.15 55.15 -240.95 M73.2 -216.0 Q76.95 -212.9 72.7 -214.4 70.35 -215.25 73.2 -216.0 M132.5 -287.6 Q136.25 -284.5 132.0 -285.95 129.6 -286.8 132.5 -287.6 M152.7 -259.75 L154.95 -258.65 Q155.75 -258.15 156.15 -257.2 155.65 -250.15 150.95 -255.75 148.25 -258.9 152.7 -259.75 M87.7 -268.95 Q89.25 -268.85 90.0 -267.5 90.85 -266.05 89.85 -264.8 89.15 -263.6 87.7 -263.7 85.2 -263.8 84.95 -266.05 L85.2 -267.15 Q85.55 -268.35 86.8 -268.75 L87.7 -268.95 M118.05 -254.35 Q121.8 -251.25 117.5 -252.7 115.15 -253.55 118.05 -254.35 M116.6 -228.5 Q118.2 -228.35 118.95 -227.05 119.75 -225.6 118.75 -224.35 118.05 -223.15 116.6 -223.2 114.1 -223.35 113.85 -225.6 L114.1 -226.65 Q114.45 -227.85 115.7 -228.25 L116.6 -228.5 M97.05 -218.55 Q98.25 -218.1 99.3 -217.45 100.1 -216.95 100.5 -216.0 100.0 -208.95 95.3 -214.55 92.6 -217.75 97.05 -218.55 M139.7 -213.85 Q143.5 -210.75 139.2 -212.25 136.85 -213.05 139.7 -213.85 M146.95 -197.95 Q150.7 -194.85 146.45 -196.35 144.05 -197.15 146.95 -197.95 M137.55 -178.1 L139.8 -176.95 Q140.6 -176.45 141.0 -175.55 140.45 -168.5 135.75 -174.05 133.05 -177.25 137.55 -178.1 M105.0 -185.65 Q108.8 -182.55 104.5 -184.05 102.15 -184.85 105.0 -185.65 M84.05 -162.5 Q87.8 -159.45 83.55 -160.9 81.15 -161.75 84.05 -162.5 M97.05 -120.8 Q98.65 -120.65 99.4 -119.35 100.25 -117.9 99.25 -116.65 98.5 -115.4 97.1 -115.5 94.6 -115.65 94.35 -117.9 L94.6 -118.95 Q94.9 -120.15 96.15 -120.55 L97.05 -120.8 M126.7 -128.9 L128.95 -127.8 Q129.75 -127.3 130.15 -126.35 129.6 -119.35 124.9 -124.9 122.2 -128.1 126.7 -128.9 M151.25 -114.1 Q155.05 -111.0 150.75 -112.5 148.4 -113.3 151.25 -114.1 M121.65 -148.8 Q125.4 -145.7 121.15 -147.2 118.75 -148.0 121.65 -148.8 M57.3 -184.2 Q61.1 -181.1 56.8 -182.6 54.45 -183.4 57.3 -184.2 M76.85 -161.8 Q80.6 -158.7 76.35 -160.2 73.95 -161.0 76.85 -161.8 M37.8 -190.35 L40.0 -189.25 41.25 -187.8 Q40.7 -180.8 36.0 -186.35 33.3 -189.5 37.8 -190.35 M9.6 -150.95 Q13.35 -147.9 9.1 -149.35 6.75 -150.15 9.6 -150.95 M5.25 -171.95 Q9.05 -168.85 4.75 -170.3 2.4 -171.15 5.25 -171.95 M31.3 -128.55 Q35.05 -125.45 30.75 -126.95 28.4 -127.75 31.3 -128.55 M8.15 -117.7 Q11.9 -114.65 7.65 -116.1 5.3 -116.9 8.15 -117.7 M65.25 -126.35 Q69.0 -123.3 64.75 -124.8 62.4 -125.6 65.25 -126.35 M43.6 -148.45 L45.8 -147.35 Q46.6 -146.85 47.0 -145.9 46.45 -138.85 41.8 -144.4 39.1 -147.6 43.6 -148.45 M45.0 -106.5 L47.25 -105.4 Q48.05 -104.9 48.45 -103.95 47.9 -96.9 43.2 -102.5 40.55 -105.65 45.0 -106.5 M77.55 -95.3 Q81.3 -92.2 77.05 -93.7 74.7 -94.5 77.55 -95.3 M57.3 -57.0 Q61.1 -53.9 56.8 -55.4 54.45 -56.2 57.3 -57.0 M42.15 -57.0 Q45.9 -53.9 41.65 -55.4 39.25 -56.2 42.15 -57.0 M29.15 -94.55 Q32.9 -91.45 28.6 -93.0 26.25 -93.8 29.15 -94.55 M19.75 -91.7 Q23.5 -88.6 19.2 -90.1 16.85 -90.9 19.75 -91.7 M31.3 -35.3 L33.5 -34.25 Q34.3 -33.75 34.75 -32.8 34.2 -25.75 29.5 -31.3 26.8 -34.5 31.3 -35.3 M8.15 -14.0 Q11.9 -10.9 7.65 -12.4 5.3 -13.25 8.15 -14.0 M54.45 -14.95 Q56.0 -14.8 56.75 -13.5 57.55 -12.05 56.6 -10.75 55.9 -9.55 54.45 -9.65 51.9 -9.8 51.7 -12.05 L51.95 -13.1 Q52.3 -14.3 53.55 -14.65 L54.45 -14.95 M136.1 -91.15 Q137.7 -91.05 138.45 -89.7 139.25 -88.25 138.3 -87.0 137.55 -85.75 136.1 -85.85 133.6 -86.0 133.4 -88.25 L133.65 -89.35 Q133.95 -90.55 135.2 -90.9 L136.1 -91.15 M104.3 -60.95 L106.5 -59.85 Q107.35 -59.35 107.7 -58.45 107.2 -51.35 102.5 -56.95 99.8 -60.15 104.3 -60.95 M86.25 -35.9 Q87.8 -35.75 88.6 -34.45 89.4 -33.0 88.4 -31.75 87.7 -30.5 86.25 -30.6 83.75 -30.75 83.5 -33.0 L83.75 -34.05 Q84.1 -35.25 85.35 -35.65 L86.25 -35.9 M104.3 -14.0 Q108.05 -10.9 103.8 -12.4 101.45 -13.25 104.3 -14.0 M139.0 -31.75 L141.25 -30.6 Q142.05 -30.1 142.4 -29.2 141.9 -22.15 137.2 -27.7 134.5 -30.9 139.0 -31.75 M146.25 -16.2 Q150.0 -13.1 145.7 -14.55 143.35 -15.4 146.25 -16.2 M314.55 -190.35 L316.75 -189.25 Q317.55 -188.75 318.0 -187.8 317.45 -180.8 312.75 -186.35 310.05 -189.5 314.55 -190.35 M286.35 -150.95 Q290.1 -147.9 285.85 -149.35 283.5 -150.15 286.35 -150.95 M256.85 -182.75 Q260.6 -179.65 256.3 -181.15 253.95 -181.95 256.85 -182.75 M282.0 -171.95 Q285.8 -168.85 281.5 -170.3 279.15 -171.15 282.0 -171.95 M275.6 -154.55 Q279.35 -151.45 275.1 -153.0 272.75 -153.8 275.6 -154.55 M257.55 -137.95 Q261.3 -134.85 257.0 -136.35 254.7 -137.15 257.55 -137.95 M268.4 -103.95 Q272.15 -100.9 267.9 -102.35 265.5 -103.2 268.4 -103.95 M308.05 -128.55 Q311.8 -125.45 307.5 -126.95 305.15 -127.75 308.05 -128.55 M320.35 -148.45 L322.55 -147.35 Q323.35 -146.85 323.75 -145.9 323.2 -138.85 318.55 -144.4 315.85 -147.6 320.35 -148.45 M284.9 -117.7 Q288.65 -114.65 284.4 -116.1 282.05 -116.9 284.9 -117.7 M321.75 -106.5 L324.0 -105.4 Q324.8 -104.9 325.2 -103.95 324.65 -96.9 319.95 -102.5 317.3 -105.65 321.75 -106.5 M213.45 -168.5 Q215.05 -168.35 215.8 -167.05 216.6 -165.6 215.6 -164.35 214.9 -163.15 213.45 -163.2 210.95 -163.35 210.75 -165.6 L210.95 -166.65 Q211.35 -167.85 212.55 -168.25 L213.45 -168.5 M230.1 -150.95 Q233.85 -147.9 229.55 -149.35 227.2 -150.15 230.1 -150.95 M165.75 -154.05 Q167.35 -153.9 168.1 -152.6 168.9 -151.15 167.9 -149.9 167.2 -148.65 165.75 -148.75 163.25 -148.9 163.05 -151.15 L163.25 -152.2 Q163.6 -153.4 164.85 -153.8 L165.75 -154.05 M189.6 -171.95 Q193.35 -168.85 189.1 -170.3 186.75 -171.15 189.6 -171.95 M182.35 -136.15 L184.6 -135.05 Q185.4 -134.55 185.8 -133.6 185.3 -126.55 180.6 -132.15 177.9 -135.3 182.35 -136.15 M207.65 -124.2 Q211.45 -121.1 207.15 -122.6 204.8 -123.4 207.65 -124.2 M237.3 -96.2 Q238.9 -96.1 239.65 -94.75 240.45 -93.3 239.45 -92.05 238.75 -90.85 237.3 -90.9 234.8 -91.05 234.6 -93.3 L234.85 -94.35 Q235.2 -95.55 236.45 -96.0 L237.3 -96.2 M238.75 -62.8 Q242.55 -59.7 238.25 -61.15 235.85 -62.0 238.75 -62.8 M195.4 -90.25 Q199.15 -87.15 194.85 -88.65 192.5 -89.45 195.4 -90.25 M183.8 -74.7 Q185.0 -74.25 186.05 -73.6 186.85 -73.1 187.25 -72.15 186.75 -65.1 182.0 -70.7 179.35 -73.85 183.8 -74.7 M175.15 -33.0 Q176.75 -32.85 177.5 -31.55 178.3 -30.1 177.3 -28.85 176.6 -27.6 175.15 -27.7 172.65 -27.85 172.4 -30.1 L172.65 -31.2 Q173.0 -32.35 174.25 -32.75 L175.15 -33.0 M198.3 -8.95 Q202.05 -5.85 197.75 -7.35 195.4 -8.15 198.3 -8.95 M228.65 -15.45 Q232.4 -12.35 228.1 -13.85 225.75 -14.65 228.65 -15.45 M242.35 -50.15 Q246.1 -47.05 241.85 -48.55 239.5 -49.4 242.35 -50.15 M305.9 -94.55 Q309.65 -91.45 305.35 -93.0 303.0 -93.8 305.9 -94.55 M296.5 -91.7 Q300.25 -88.6 295.95 -90.1 293.6 -90.9 296.5 -91.7 M318.9 -57.0 Q322.65 -53.9 318.4 -55.4 316.0 -56.2 318.9 -57.0 M276.35 -57.7 Q280.1 -54.65 275.85 -56.1 273.45 -56.9 276.35 -57.7 M278.5 -7.5 Q282.25 -4.4 278.0 -5.9 275.65 -6.7 278.5 -7.5 M282.85 -23.05 L285.1 -21.95 Q285.9 -21.45 286.25 -20.5 285.75 -13.45 281.05 -19.05 278.35 -22.2 282.85 -23.05 M308.05 -35.3 L310.25 -34.25 Q311.05 -33.75 311.5 -32.8 310.95 -25.75 306.25 -31.3 303.55 -34.5 308.05 -35.3 M284.9 -14.0 Q288.65 -10.9 284.4 -12.4 282.05 -13.25 284.9 -14.0 M569.0 -330.95 Q572.75 -327.85 568.5 -329.35 566.1 -330.15 569.0 -330.95 M555.25 -389.5 Q559.0 -386.4 554.75 -387.9 552.4 -388.7 555.25 -389.5 M512.6 -362.75 Q516.4 -359.65 512.1 -361.15 509.75 -361.95 512.6 -362.75 M496.0 -334.2 L498.2 -333.1 Q499.0 -332.6 499.4 -331.65 498.9 -324.65 494.2 -330.2 491.5 -333.4 496.0 -334.2 M537.2 -323.0 Q540.95 -319.9 536.65 -321.4 534.3 -322.2 537.2 -323.0 M527.05 -279.25 Q528.25 -278.8 529.3 -278.15 530.1 -277.65 530.5 -276.75 529.95 -269.7 525.25 -275.25 522.6 -278.45 527.05 -279.25 M498.9 -291.2 Q502.65 -288.1 498.4 -289.6 496.0 -290.4 498.9 -291.2 M507.55 -262.3 Q511.3 -259.2 507.05 -260.65 504.7 -261.5 507.55 -262.3 M497.45 -240.95 L499.65 -239.85 Q500.45 -239.35 500.85 -238.45 500.3 -231.35 495.65 -236.95 492.95 -240.15 497.45 -240.95 M500.3 -200.1 Q504.1 -197.05 499.8 -198.5 497.45 -199.35 500.3 -200.1 M548.75 -237.7 Q552.55 -234.65 548.25 -236.1 545.9 -236.9 548.75 -237.7 M529.25 -200.3 Q530.8 -200.15 531.6 -198.85 532.4 -197.4 531.4 -196.15 530.7 -194.95 529.25 -195.05 526.75 -195.15 526.55 -197.4 L526.75 -198.5 Q527.1 -199.65 528.35 -200.05 L529.25 -200.3 M475.05 -390.95 Q478.8 -387.85 474.5 -389.35 472.15 -390.15 475.05 -390.95 M459.85 -377.6 Q461.05 -377.15 462.05 -376.45 462.85 -375.95 463.3 -375.05 462.75 -368.0 458.05 -373.6 455.35 -376.75 459.85 -377.6 M425.15 -367.3 Q426.75 -367.2 427.5 -365.85 428.3 -364.4 427.3 -363.1 426.6 -361.9 425.15 -362.0 422.65 -362.15 422.45 -364.4 L422.7 -365.45 Q423.0 -366.65 424.25 -367.05 L425.15 -367.3 M424.45 -321.0 Q426.0 -320.9 426.75 -319.55 427.6 -318.1 426.6 -316.85 425.9 -315.65 424.45 -315.7 421.95 -315.9 421.7 -318.1 L421.95 -319.2 Q422.3 -320.4 423.55 -320.8 L424.45 -321.0 M426.6 -323.0 Q430.35 -319.9 426.1 -321.4 423.7 -322.2 426.6 -323.0 M477.9 -339.65 Q481.7 -336.55 477.4 -338.0 475.05 -338.85 477.9 -339.65 M456.95 -345.4 Q460.7 -342.3 456.45 -343.8 454.05 -344.65 456.95 -345.4 M454.05 -303.1 Q457.35 -302.65 457.65 -299.5 457.85 -297.1 455.85 -295.7 450.4 -294.35 450.8 -299.85 451.05 -302.95 454.05 -303.1 M482.25 -304.2 Q486.0 -301.1 481.75 -302.6 479.35 -303.4 482.25 -304.2 M381.05 -396.0 Q384.8 -392.9 380.55 -394.4 378.2 -395.25 381.05 -396.0 M379.6 -365.3 L381.85 -364.2 Q382.65 -363.65 383.0 -362.75 382.5 -355.7 377.8 -361.3 375.1 -364.5 379.6 -365.3 M343.45 -351.2 Q347.2 -348.1 342.95 -349.6 340.6 -350.4 343.45 -351.2 M360.8 -330.95 Q364.55 -327.85 360.3 -329.35 357.9 -330.15 360.8 -330.95 M334.8 -334.05 Q336.4 -333.9 337.15 -332.6 337.95 -331.15 336.95 -329.85 336.25 -328.65 334.8 -328.75 332.3 -328.9 332.05 -331.15 L332.3 -332.2 Q332.65 -333.4 333.9 -333.8 L334.8 -334.05 M397.65 -341.8 Q401.45 -338.7 397.15 -340.2 394.8 -341.0 397.65 -341.8 M368.75 -318.3 L370.95 -317.2 Q371.8 -316.7 372.2 -315.8 371.65 -308.7 366.95 -314.3 364.25 -317.45 368.75 -318.3 M364.45 -268.95 Q366.0 -268.85 366.75 -267.5 367.6 -266.05 366.6 -264.8 365.9 -263.6 364.45 -263.7 361.95 -263.8 361.7 -266.05 L361.95 -267.15 Q362.3 -268.35 363.55 -268.75 L364.45 -268.95 M394.8 -254.35 Q398.55 -251.25 394.25 -252.7 391.9 -253.55 394.8 -254.35 M331.9 -240.95 L334.15 -239.85 Q334.9 -239.35 335.35 -238.45 334.8 -231.35 330.1 -236.95 327.4 -240.15 331.9 -240.95 M349.95 -216.0 Q353.7 -212.9 349.45 -214.4 347.1 -215.25 349.95 -216.0 M393.35 -228.5 Q394.95 -228.35 395.7 -227.05 396.5 -225.6 395.5 -224.35 394.8 -223.15 393.35 -223.2 390.85 -223.35 390.6 -225.6 L390.85 -226.65 Q391.2 -227.85 392.45 -228.25 L393.35 -228.5 M373.8 -218.55 L376.05 -217.45 Q376.85 -216.95 377.25 -216.0 376.75 -208.95 372.05 -214.55 369.35 -217.75 373.8 -218.55 M459.85 -270.95 Q463.8 -267.35 459.45 -268.95 456.85 -269.9 459.85 -270.95 M459.85 -248.75 Q461.4 -248.6 462.2 -247.3 463.0 -245.85 462.0 -244.55 461.3 -243.35 459.85 -243.45 457.35 -243.6 457.15 -245.85 L457.35 -246.9 Q457.7 -248.1 458.95 -248.5 L459.85 -248.75 M409.25 -287.6 Q413.0 -284.5 408.75 -285.95 406.35 -286.8 409.25 -287.6 M429.45 -259.75 Q430.65 -259.3 431.7 -258.65 432.5 -258.15 432.9 -257.2 432.4 -250.15 427.7 -255.75 425.0 -258.9 429.45 -259.75 M416.45 -213.85 Q420.25 -210.75 415.95 -212.25 413.6 -213.05 416.45 -213.85 M460.55 -217.8 L462.8 -216.7 Q463.6 -216.2 464.0 -215.3 463.5 -208.25 458.75 -213.8 456.1 -217.0 460.55 -217.8 M466.35 -171.95 Q470.1 -168.85 465.85 -170.3 463.5 -171.15 466.35 -171.95 M414.3 -178.1 L416.55 -176.95 Q417.35 -176.45 417.75 -175.55 417.2 -168.5 412.5 -174.05 409.8 -177.25 414.3 -178.1 M423.7 -197.95 Q427.45 -194.85 423.2 -196.35 420.8 -197.15 423.7 -197.95 M442.5 -154.05 Q444.1 -153.9 444.85 -152.6 445.65 -151.15 444.65 -149.9 443.95 -148.65 442.5 -148.75 440.0 -148.9 439.8 -151.15 L440.0 -152.2 Q440.35 -153.4 441.6 -153.8 L442.5 -154.05 M403.45 -128.9 L405.7 -127.8 Q406.5 -127.3 406.9 -126.35 406.35 -119.35 401.65 -124.9 398.95 -128.1 403.45 -128.9 M428.0 -114.1 Q431.8 -111.0 427.5 -112.5 425.15 -113.3 428.0 -114.1 M459.1 -136.15 Q460.3 -135.7 461.35 -135.05 462.15 -134.55 462.55 -133.6 462.05 -126.55 457.35 -132.15 454.65 -135.3 459.1 -136.15 M484.4 -124.2 Q488.2 -121.1 483.9 -122.6 481.55 -123.4 484.4 -124.2 M381.75 -185.65 Q385.55 -182.55 381.25 -184.05 378.9 -184.85 381.75 -185.65 M334.05 -184.2 Q337.85 -181.1 333.55 -182.6 331.2 -183.4 334.05 -184.2 M353.6 -161.8 Q357.35 -158.7 353.1 -160.2 350.7 -161.0 353.6 -161.8 M360.8 -162.5 Q364.55 -159.45 360.3 -160.9 357.9 -161.75 360.8 -162.5 M342.0 -126.35 Q345.75 -123.3 341.5 -124.8 339.15 -125.6 342.0 -126.35 M373.8 -120.8 Q375.4 -120.65 376.15 -119.35 377.0 -117.9 376.0 -116.65 375.25 -115.4 373.85 -115.5 371.35 -115.65 371.1 -117.9 L371.35 -118.95 Q371.65 -120.15 372.9 -120.55 L373.8 -120.8 M398.4 -148.8 Q402.15 -145.7 397.9 -147.2 395.5 -148.0 398.4 -148.8 M381.05 -60.95 L383.25 -59.85 Q384.1 -59.35 384.45 -58.45 383.95 -51.35 379.25 -56.95 376.55 -60.15 381.05 -60.95 M354.3 -95.3 Q358.05 -92.2 353.8 -93.7 351.45 -94.5 354.3 -95.3 M334.05 -57.0 Q337.85 -53.9 333.55 -55.4 331.2 -56.2 334.05 -57.0 M363.0 -35.9 Q364.55 -35.75 365.35 -34.45 366.15 -33.0 365.15 -31.75 364.45 -30.5 363.0 -30.6 360.5 -30.75 360.25 -33.0 L360.5 -34.05 Q360.85 -35.25 362.1 -35.65 L363.0 -35.9 M331.2 -14.95 Q332.75 -14.8 333.5 -13.5 334.3 -12.05 333.35 -10.75 332.65 -9.55 331.2 -9.65 328.65 -9.8 328.45 -12.05 L328.7 -13.1 Q329.05 -14.3 330.3 -14.65 L331.2 -14.95 M381.05 -14.0 Q384.8 -10.9 380.55 -12.4 378.2 -13.25 381.05 -14.0 M472.15 -90.25 Q475.9 -87.15 471.6 -88.65 469.25 -89.45 472.15 -90.25 M460.55 -74.7 L462.8 -73.6 Q463.6 -73.1 464.0 -72.15 463.5 -65.1 458.75 -70.7 456.1 -73.85 460.55 -74.7 M412.85 -91.15 Q414.45 -91.05 415.2 -89.7 416.0 -88.25 415.05 -87.0 414.3 -85.75 412.85 -85.85 410.35 -86.0 410.15 -88.25 L410.4 -89.35 Q410.7 -90.55 411.95 -90.9 L412.85 -91.15 M415.75 -31.75 L418.0 -30.6 Q418.8 -30.1 419.15 -29.2 418.65 -22.15 413.95 -27.7 411.25 -30.9 415.75 -31.75 M423.0 -16.2 Q426.75 -13.1 422.45 -14.55 420.1 -15.4 423.0 -16.2 M451.9 -33.0 Q453.5 -32.85 454.25 -31.55 455.05 -30.1 454.05 -28.85 453.35 -27.6 451.9 -27.7 449.4 -27.85 449.15 -30.1 L449.4 -31.2 Q449.75 -32.35 451.0 -32.75 L451.9 -33.0 M475.05 -8.95 Q478.8 -5.85 474.5 -7.35 472.15 -8.15 475.05 -8.95 M533.6 -182.75 Q537.35 -179.65 533.05 -181.15 530.7 -181.95 533.6 -182.75 M552.35 -154.55 Q556.1 -151.45 551.85 -153.0 549.5 -153.8 552.35 -154.55 M490.2 -168.5 Q491.8 -168.35 492.55 -167.05 493.35 -165.6 492.35 -164.35 491.65 -163.15 490.2 -163.2 487.7 -163.35 487.5 -165.6 L487.7 -166.65 Q488.1 -167.85 489.3 -168.25 L490.2 -168.5 M506.85 -150.95 Q510.6 -147.9 506.3 -149.35 503.95 -150.15 506.85 -150.95 M534.3 -137.95 Q538.05 -134.85 533.75 -136.35 531.45 -137.15 534.3 -137.95 M545.15 -103.95 Q548.9 -100.9 544.65 -102.35 542.25 -103.2 545.15 -103.95 M553.1 -57.7 Q556.85 -54.65 552.6 -56.1 550.2 -56.9 553.1 -57.7 M514.05 -96.2 Q515.65 -96.1 516.4 -94.75 517.2 -93.3 516.2 -92.05 515.5 -90.85 514.05 -90.9 511.55 -91.05 511.35 -93.3 L511.6 -94.35 Q511.95 -95.55 513.2 -96.0 L514.05 -96.2 M515.5 -62.8 Q519.3 -59.7 515.0 -61.15 512.6 -62.0 515.5 -62.8 M505.4 -15.45 Q509.15 -12.35 504.85 -13.85 502.5 -14.65 505.4 -15.45 M555.25 -7.5 Q559.0 -4.4 554.75 -5.9 552.4 -6.7 555.25 -7.5 M559.6 -23.05 L561.85 -21.95 Q562.65 -21.45 563.0 -20.5 562.5 -13.45 557.8 -19.05 555.1 -22.2 559.6 -23.05 M519.1 -50.15 Q522.85 -47.05 518.6 -48.55 516.25 -49.4 519.1 -50.15 M505.4 -397.45 Q509.15 -394.35 504.85 -395.85 502.5 -396.65 505.4 -397.45 M228.65 -397.45 Q232.4 -394.35 228.1 -395.85 225.75 -396.65 228.65 -397.45 M569.0 51.05 Q572.75 54.15 568.5 52.65 566.1 51.85 569.0 51.05 M512.6 19.25 Q516.4 22.35 512.1 20.85 509.75 20.05 512.6 19.25 M496.0 47.8 L498.2 48.9 Q499.0 49.4 499.4 50.35 498.9 57.35 494.2 51.8 491.5 48.6 496.0 47.8 M498.9 90.8 Q502.65 93.9 498.4 92.4 496.0 91.6 498.9 90.8 M537.2 59.0 Q540.95 62.1 536.65 60.6 534.3 59.8 537.2 59.0 M527.05 102.75 Q528.25 103.2 529.3 103.85 530.1 104.35 530.5 105.25 529.95 112.3 525.25 106.75 522.6 103.55 527.05 102.75 M548.75 144.3 Q552.55 147.35 548.25 145.9 545.9 145.1 548.75 144.3 M507.55 119.7 Q511.3 122.8 507.05 121.35 504.7 120.5 507.55 119.7 M497.45 141.05 L499.65 142.15 Q500.45 142.65 500.85 143.55 500.3 150.65 495.65 145.05 492.95 141.85 497.45 141.05 M500.3 181.9 Q504.1 184.95 499.8 183.5 497.45 182.65 500.3 181.9 M529.25 181.7 Q530.8 181.85 531.6 183.15 532.4 184.6 531.4 185.85 530.7 187.05 529.25 186.95 526.75 186.85 526.55 184.6 L526.75 183.5 Q527.1 182.35 528.35 181.95 L529.25 181.7 M459.85 4.4 Q461.05 4.85 462.05 5.55 462.85 6.05 463.3 6.95 462.75 14.0 458.05 8.4 455.35 5.25 459.85 4.4 M456.95 36.6 Q460.7 39.7 456.45 38.2 454.05 37.35 456.95 36.6 M477.9 42.35 Q481.7 45.45 477.4 44.0 475.05 43.15 477.9 42.35 M425.15 14.7 Q426.75 14.8 427.5 16.15 428.3 17.6 427.3 18.9 426.6 20.1 425.15 20.0 422.65 19.85 422.45 17.6 422.5 17.1 422.7 16.55 423.0 15.35 424.25 14.95 L425.15 14.7 M426.6 59.0 Q430.35 62.1 426.1 60.6 423.7 59.8 426.6 59.0 M424.45 61.0 Q426.0 61.1 426.75 62.45 427.6 63.9 426.6 65.15 425.9 66.35 424.45 66.3 421.95 66.1 421.7 63.9 L421.95 62.8 Q422.3 61.6 423.55 61.2 L424.45 61.0 M409.25 94.4 Q413.0 97.5 408.75 96.05 406.35 95.2 409.25 94.4 M454.05 78.9 Q457.35 79.35 457.65 82.5 457.85 84.9 455.85 86.3 450.4 87.65 450.8 82.15 451.05 79.05 454.05 78.9 M482.25 77.8 Q486.0 80.9 481.75 79.4 479.35 78.6 482.25 77.8 M379.6 16.7 L381.85 17.8 Q382.65 18.35 383.0 19.25 382.5 26.3 377.8 20.7 375.1 17.5 379.6 16.7 M397.65 40.2 Q401.45 43.3 397.15 41.8 394.8 41.0 397.65 40.2 M334.8 47.95 Q336.4 48.1 337.15 49.4 337.95 50.85 336.95 52.15 336.25 53.35 334.8 53.25 332.3 53.1 332.05 50.85 L332.3 49.8 Q332.65 48.6 333.9 48.2 L334.8 47.95 M343.45 30.8 Q347.2 33.9 342.95 32.4 340.6 31.6 343.45 30.8 M360.8 51.05 Q364.55 54.15 360.3 52.65 357.9 51.85 360.8 51.05 M322.5 72.35 Q323.65 72.8 324.7 73.5 325.55 74.0 325.9 74.9 325.4 81.95 320.7 76.4 318.0 73.2 322.5 72.35 M368.75 63.7 L370.95 64.8 Q371.8 65.3 372.2 66.2 371.65 73.3 366.95 67.7 364.25 64.55 368.75 63.7 M364.45 113.05 Q366.0 113.15 366.75 114.5 367.6 115.95 366.6 117.2 365.9 118.4 364.45 118.3 361.95 118.2 361.7 115.95 L361.95 114.85 Q362.3 113.65 363.55 113.25 L364.45 113.05 M394.8 127.65 Q398.55 130.75 394.25 129.3 391.9 128.45 394.8 127.65 M331.9 141.05 L334.15 142.15 Q334.9 142.65 335.35 143.55 334.8 150.65 330.1 145.05 327.4 141.85 331.9 141.05 M349.95 166.0 Q353.7 169.1 349.45 167.6 347.1 166.75 349.95 166.0 M393.35 153.5 Q394.95 153.65 395.7 154.95 396.5 156.4 395.5 157.65 394.8 158.85 393.35 158.8 390.85 158.65 390.6 156.4 L390.85 155.35 Q391.2 154.15 392.45 153.75 L393.35 153.5 M373.8 163.45 L376.05 164.55 Q376.85 165.05 377.25 166.0 376.75 173.05 372.05 167.45 369.35 164.25 373.8 163.45 M381.75 196.35 Q385.55 199.45 381.25 197.95 378.9 197.15 381.75 196.35 M459.85 111.05 Q463.8 114.65 459.45 113.05 456.85 112.1 459.85 111.05 M459.85 133.25 Q461.4 133.4 462.2 134.7 463.0 136.15 462.0 137.45 461.3 138.65 459.85 138.55 457.35 138.4 457.15 136.15 L457.35 135.1 Q457.7 133.9 458.95 133.5 L459.85 133.25 M429.45 122.25 Q430.65 122.7 431.7 123.35 432.5 123.85 432.9 124.8 432.4 131.85 427.7 126.25 425.0 123.1 429.45 122.25 M416.45 168.15 Q420.25 171.25 415.95 169.75 413.6 168.95 416.45 168.15 M423.7 184.05 Q427.45 187.15 423.2 185.65 420.8 184.85 423.7 184.05 M460.55 164.2 L462.8 165.3 Q463.6 165.8 464.0 166.7 463.5 173.75 458.75 168.2 456.1 165.0 460.55 164.2 M466.35 210.05 Q470.1 213.15 465.85 211.7 463.5 210.85 466.35 210.05 M459.1 245.85 Q460.3 246.3 461.35 246.95 462.15 247.45 462.55 248.4 462.05 255.45 457.35 249.85 454.65 246.7 459.1 245.85 M414.3 203.9 L416.55 205.05 Q417.35 205.55 417.75 206.45 417.2 213.5 412.5 207.95 409.8 204.75 414.3 203.9 M442.5 227.95 Q444.1 228.1 444.85 229.4 445.65 230.85 444.65 232.1 443.95 233.35 442.5 233.25 440.0 233.1 439.8 230.85 L440.0 229.8 Q440.35 228.6 441.6 228.2 L442.5 227.95 M428.0 267.9 Q431.8 271.0 427.5 269.5 425.15 268.7 428.0 267.9 M403.45 253.1 L405.7 254.2 Q406.5 254.7 406.9 255.65 406.35 262.65 401.65 257.1 398.95 253.9 403.45 253.1 M412.85 290.85 Q414.45 290.95 415.2 292.3 416.0 293.75 415.05 295.0 414.3 296.25 412.85 296.15 410.35 296.0 410.15 293.75 L410.4 292.65 Q410.7 291.45 411.95 291.1 L412.85 290.85 M484.4 257.8 Q488.2 260.9 483.9 259.4 481.55 258.6 484.4 257.8 M472.15 291.75 Q475.9 294.85 471.6 293.35 469.25 292.55 472.15 291.75 M398.4 233.2 Q402.15 236.3 397.9 234.8 395.5 234.0 398.4 233.2 M360.8 219.5 Q364.55 222.55 360.3 221.1 357.9 220.25 360.8 219.5 M353.6 220.2 Q357.35 223.3 353.1 221.8 350.7 221.0 353.6 220.2 M342.0 255.65 Q345.75 258.7 341.5 257.2 339.15 256.4 342.0 255.65 M321.75 275.5 L324.0 276.6 Q324.8 277.1 325.2 278.05 324.65 285.1 319.95 279.5 317.3 276.35 321.75 275.5 M354.3 286.7 Q358.05 289.8 353.8 288.3 351.45 287.5 354.3 286.7 M373.8 261.2 Q375.4 261.35 376.15 262.65 377.0 264.1 376.0 265.35 375.25 266.6 373.85 266.5 371.35 266.35 371.1 264.1 L371.35 263.05 Q371.65 261.85 372.9 261.45 L373.8 261.2 M381.05 321.05 L383.25 322.15 Q384.1 322.65 384.45 323.55 383.95 330.65 379.25 325.05 376.55 321.85 381.05 321.05 M334.05 325.0 Q337.85 328.1 333.55 326.6 331.2 325.8 334.05 325.0 M460.55 307.3 L462.8 308.4 Q463.6 308.9 464.0 309.85 463.5 316.9 458.75 311.3 456.1 308.15 460.55 307.3 M533.6 199.25 Q537.35 202.35 533.05 200.85 530.7 200.05 533.6 199.25 M534.3 244.05 Q538.05 247.15 533.75 245.65 531.45 244.85 534.3 244.05 M552.35 227.45 Q556.1 230.55 551.85 229.0 549.5 228.2 552.35 227.45 M490.2 213.5 Q491.8 213.65 492.55 214.95 493.35 216.4 492.35 217.65 491.65 218.85 490.2 218.8 487.7 218.65 487.5 216.4 L487.7 215.35 Q488.1 214.15 489.3 213.75 L490.2 213.5 M506.85 231.05 Q510.6 234.1 506.3 232.65 503.95 231.85 506.85 231.05 M514.05 285.8 Q515.65 285.9 516.4 287.25 517.2 288.7 516.2 289.95 515.5 291.15 514.05 291.1 511.55 290.95 511.35 288.7 L511.6 287.65 Q511.95 286.45 513.2 286.0 L514.05 285.8 M545.15 278.05 Q548.9 281.1 544.65 279.65 542.25 278.8 545.15 278.05 M553.1 324.3 Q556.85 327.35 552.6 325.9 550.2 325.1 553.1 324.3 M515.5 319.2 Q519.3 322.3 515.0 320.85 512.6 320.0 515.5 319.2 M334.05 197.8 Q337.85 200.9 333.55 199.4 331.2 198.6 334.05 197.8 M311.65 15.65 Q315.45 18.7 311.15 17.25 308.8 16.4 311.65 15.65 M282.75 65.5 Q286.5 68.6 282.25 67.1 279.85 66.3 282.75 65.5 M260.45 59.0 Q264.2 62.1 259.9 60.6 257.55 59.8 260.45 59.0 M313.1 66.05 Q314.7 66.15 315.45 67.5 316.25 68.9 315.25 70.2 314.55 71.4 313.1 71.3 310.6 71.2 310.4 68.9 L310.6 67.85 Q310.95 66.65 312.2 66.3 L313.1 66.05 M292.25 51.05 Q296.0 54.15 291.75 52.65 289.35 51.85 292.25 51.05 M235.85 19.25 Q239.65 22.35 235.35 20.85 233.0 20.05 235.85 19.25 M219.25 47.8 L221.45 48.9 Q222.25 49.4 222.65 50.35 222.15 57.35 217.45 51.8 214.75 48.6 219.25 47.8 M183.1 4.4 Q184.3 4.85 185.3 5.55 186.1 6.05 186.55 6.95 186.0 14.0 181.3 8.4 178.6 5.25 183.1 4.4 M180.2 36.6 Q183.95 39.7 179.7 38.2 177.3 37.35 180.2 36.6 M201.15 42.35 Q204.95 45.45 200.65 44.0 198.3 43.15 201.15 42.35 M177.3 78.9 Q180.6 79.35 180.9 82.5 181.1 84.9 179.1 86.3 173.65 87.65 174.05 82.15 174.3 79.05 177.3 78.9 M222.15 90.8 Q225.9 93.9 221.65 92.4 219.25 91.6 222.15 90.8 M205.5 77.8 Q209.25 80.9 205.0 79.4 202.6 78.6 205.5 77.8 M230.8 119.7 Q234.55 122.8 230.3 121.35 227.95 120.5 230.8 119.7 M220.7 141.05 L222.9 142.15 Q223.7 142.65 224.1 143.55 223.55 150.65 218.9 145.05 216.2 141.85 220.7 141.05 M183.1 111.05 Q187.05 114.65 182.7 113.05 180.1 112.1 183.1 111.05 M183.1 133.25 Q184.65 133.4 185.45 134.7 186.25 136.15 185.25 137.45 184.55 138.65 183.1 138.55 180.6 138.4 180.4 136.15 L180.6 135.1 Q180.95 133.9 182.2 133.5 L183.1 133.25 M183.8 164.2 Q185.0 164.65 186.05 165.3 186.85 165.8 187.25 166.7 186.75 173.75 182.0 168.2 179.35 165.0 183.8 164.2 M223.55 181.9 Q227.35 184.95 223.05 183.5 220.7 182.65 223.55 181.9 M304.45 103.1 Q308.2 106.2 303.9 104.7 301.55 103.9 304.45 103.1 M298.65 126.2 Q302.4 129.3 298.1 127.85 295.8 127.0 298.65 126.2 M286.35 138.35 Q287.95 138.45 288.7 139.8 289.5 141.2 288.5 142.5 287.8 143.7 286.35 143.6 283.85 143.5 283.65 141.2 L283.85 140.15 Q284.2 138.95 285.45 138.55 L286.35 138.35 M250.3 102.75 L252.55 103.85 Q253.35 104.35 253.75 105.25 253.2 112.3 248.5 106.75 245.85 103.55 250.3 102.75 M272.0 144.3 Q275.8 147.35 271.5 145.9 269.15 145.1 272.0 144.3 M252.5 181.7 Q254.05 181.85 254.85 183.15 255.65 184.6 254.65 185.85 253.95 187.05 252.5 186.95 250.0 186.85 249.8 184.6 L250.0 183.5 Q250.35 182.35 251.6 181.95 L252.5 181.7 M311.65 172.3 Q313.25 172.4 314.0 173.75 314.8 175.2 313.8 176.45 313.1 177.7 311.65 177.6 309.15 177.45 308.95 175.2 L309.15 174.1 Q309.55 172.9 310.75 172.55 L311.65 172.3 M314.55 191.65 L316.75 192.75 Q317.55 193.25 318.0 194.2 317.45 201.2 312.75 195.65 310.05 192.5 314.55 191.65 M148.4 14.7 Q150.0 14.8 150.75 16.15 151.55 17.6 150.55 18.9 149.85 20.1 148.4 20.0 145.9 19.85 145.7 17.6 145.75 17.1 145.95 16.55 146.25 15.35 147.5 14.95 L148.4 14.7 M102.85 16.7 L105.1 17.8 Q105.9 18.35 106.25 19.25 105.75 26.3 101.05 20.7 98.35 17.5 102.85 16.7 M120.9 40.2 Q124.7 43.3 120.4 41.8 118.05 41.0 120.9 40.2 M84.05 51.05 Q87.8 54.15 83.55 52.65 81.15 51.85 84.05 51.05 M92.0 63.7 Q93.2 64.15 94.2 64.8 95.05 65.3 95.45 66.2 94.9 73.3 90.2 67.7 87.5 64.55 92.0 63.7 M149.85 59.0 Q153.6 62.1 149.35 60.6 146.95 59.8 149.85 59.0 M147.7 61.0 Q149.25 61.1 150.0 62.45 150.85 63.9 149.85 65.15 149.15 66.35 147.7 66.3 145.2 66.1 144.95 63.9 L145.2 62.8 Q145.55 61.6 146.8 61.2 L147.7 61.0 M132.5 94.4 Q136.25 97.5 132.0 96.05 129.6 95.2 132.5 94.4 M58.05 47.95 Q59.65 48.1 60.4 49.4 61.2 50.85 60.2 52.15 59.5 53.35 58.05 53.25 55.55 53.1 55.3 50.85 L55.55 49.8 Q55.9 48.6 57.15 48.2 L58.05 47.95 M66.7 30.8 Q70.45 33.9 66.2 32.4 63.85 31.6 66.7 30.8 M34.9 15.65 Q38.7 18.7 34.4 17.25 32.05 16.4 34.9 15.65 M36.35 66.05 Q37.95 66.15 38.7 67.5 39.5 68.9 38.5 70.2 37.8 71.4 36.35 71.3 33.85 71.2 33.65 68.9 L33.85 67.85 Q34.2 66.65 35.45 66.3 L36.35 66.05 M6.0 65.5 Q9.75 68.6 5.5 67.1 3.1 66.3 6.0 65.5 M45.75 72.35 Q46.9 72.8 47.95 73.5 48.8 74.0 49.15 74.9 48.65 81.95 43.95 76.4 41.25 73.2 45.75 72.35 M55.15 141.05 L57.4 142.15 Q58.15 142.65 58.6 143.55 58.05 150.65 53.35 145.05 50.65 141.85 55.15 141.05 M27.7 103.1 Q31.45 106.2 27.15 104.7 24.8 103.9 27.7 103.1 M9.6 138.35 Q11.2 138.45 11.95 139.8 12.75 141.2 11.75 142.5 11.05 143.7 9.6 143.6 7.1 143.5 6.9 141.2 L7.1 140.15 Q7.45 138.95 8.7 138.55 L9.6 138.35 M21.9 126.2 Q25.65 129.3 21.35 127.85 19.05 127.0 21.9 126.2 M34.9 172.3 Q36.5 172.4 37.25 173.75 38.05 175.2 37.05 176.45 36.35 177.7 34.9 177.6 32.4 177.45 32.2 175.2 L32.4 174.1 Q32.8 172.9 34.0 172.55 L34.9 172.3 M37.8 191.65 L40.0 192.75 Q40.8 193.25 41.25 194.2 40.7 201.2 36.0 195.65 33.3 192.5 37.8 191.65 M73.2 166.0 Q76.95 169.1 72.7 167.6 70.35 166.75 73.2 166.0 M152.7 122.25 L154.95 123.35 Q155.75 123.85 156.15 124.8 155.65 131.85 150.95 126.25 148.25 123.1 152.7 122.25 M87.7 113.05 Q89.25 113.15 90.0 114.5 90.85 115.95 89.85 117.2 89.15 118.4 87.7 118.3 85.2 118.2 84.95 115.95 L85.2 114.85 Q85.55 113.65 86.8 113.25 L87.7 113.05 M118.05 127.65 Q121.8 130.75 117.5 129.3 115.15 128.45 118.05 127.65 M116.6 153.5 Q118.2 153.65 118.95 154.95 119.75 156.4 118.75 157.65 118.05 158.85 116.6 158.8 114.1 158.65 113.85 156.4 L114.1 155.35 Q114.45 154.15 115.7 153.75 L116.6 153.5 M97.05 163.45 Q98.25 163.9 99.3 164.55 100.1 165.05 100.5 166.0 100.0 173.05 95.3 167.45 92.6 164.25 97.05 163.45 M105.0 196.35 Q108.8 199.45 104.5 197.95 102.15 197.15 105.0 196.35 M139.7 168.15 Q143.5 171.25 139.2 169.75 136.85 168.95 139.7 168.15 M146.95 184.05 Q150.7 187.15 146.45 185.65 144.05 184.85 146.95 184.05 M137.55 203.9 Q138.7 204.4 139.8 205.05 140.6 205.55 141.0 206.45 140.45 213.5 135.75 207.95 133.05 204.75 137.55 203.9 M84.05 219.5 Q87.8 222.55 83.55 221.1 81.15 220.25 84.05 219.5 M97.05 261.2 Q98.65 261.35 99.4 262.65 100.25 264.1 99.25 265.35 98.5 266.6 97.1 266.5 94.6 266.35 94.35 264.1 L94.6 263.05 Q94.9 261.85 96.15 261.45 L97.05 261.2 M151.25 267.9 Q155.05 271.0 150.75 269.5 148.4 268.7 151.25 267.9 M126.7 253.1 L128.95 254.2 Q129.75 254.7 130.15 255.65 129.6 262.65 124.9 257.1 122.2 253.9 126.7 253.1 M136.1 290.85 Q137.7 290.95 138.45 292.3 139.25 293.75 138.3 295.0 137.55 296.25 136.1 296.15 133.6 296.0 133.4 293.75 L133.65 292.65 Q133.95 291.45 135.2 291.1 L136.1 290.85 M121.65 233.2 Q125.4 236.3 121.15 234.8 118.75 234.0 121.65 233.2 M76.85 220.2 Q80.6 223.3 76.35 221.8 73.95 221.0 76.85 220.2 M43.6 233.55 L45.8 234.65 Q46.6 235.15 47.0 236.1 46.45 243.15 41.8 237.6 39.1 234.4 43.6 233.55 M5.25 210.05 Q9.05 213.15 4.75 211.7 2.4 210.85 5.25 210.05 M9.6 231.05 Q13.35 234.1 9.1 232.65 6.75 231.85 9.6 231.05 M31.3 253.45 Q35.05 256.55 30.75 255.05 28.4 254.25 31.3 253.45 M8.15 264.3 Q11.9 267.35 7.65 265.9 5.3 265.1 8.15 264.3 M19.75 290.3 Q23.5 293.4 19.2 291.9 16.85 291.1 19.75 290.3 M29.15 287.45 Q32.9 290.55 28.6 289.0 26.25 288.2 29.15 287.45 M65.25 255.65 Q69.0 258.7 64.75 257.2 62.4 256.4 65.25 255.65 M45.0 275.5 L47.25 276.6 Q48.05 277.1 48.45 278.05 47.9 285.1 43.2 279.5 40.55 276.35 45.0 275.5 M77.55 286.7 Q81.3 289.8 77.05 288.3 74.7 287.5 77.55 286.7 M42.15 325.0 Q45.9 328.1 41.65 326.6 39.25 325.8 42.15 325.0 M57.3 325.0 Q61.1 328.1 56.8 326.6 54.45 325.8 57.3 325.0 M104.3 321.05 L106.5 322.15 Q107.35 322.65 107.7 323.55 107.2 330.65 102.5 325.05 99.8 321.85 104.3 321.05 M286.35 231.05 Q290.1 234.1 285.85 232.65 283.5 231.85 286.35 231.05 M320.35 233.55 L322.55 234.65 Q323.35 235.15 323.75 236.1 323.2 243.15 318.55 237.6 315.85 234.4 320.35 233.55 M282.0 210.05 Q285.8 213.15 281.5 211.7 279.15 210.85 282.0 210.05 M256.85 199.25 Q260.6 202.35 256.3 200.85 253.95 200.05 256.85 199.25 M257.55 244.05 Q261.3 247.15 257.0 245.65 254.7 244.85 257.55 244.05 M275.6 227.45 Q279.35 230.55 275.1 229.0 272.75 228.2 275.6 227.45 M268.4 278.05 Q272.15 281.1 267.9 279.65 265.5 278.8 268.4 278.05 M308.05 253.45 Q311.8 256.55 307.5 255.05 305.15 254.25 308.05 253.45 M284.9 264.3 Q288.65 267.35 284.4 265.9 282.05 265.1 284.9 264.3 M296.5 290.3 Q300.25 293.4 295.95 291.9 293.6 291.1 296.5 290.3 M305.9 287.45 Q309.65 290.55 305.35 289.0 303.0 288.2 305.9 287.45 M213.45 213.5 Q215.05 213.65 215.8 214.95 216.6 216.4 215.6 217.65 214.9 218.85 213.45 218.8 210.95 218.65 210.75 216.4 L210.95 215.35 Q211.35 214.15 212.55 213.75 L213.45 213.5 M230.1 231.05 Q233.85 234.1 229.55 232.65 227.2 231.85 230.1 231.05 M189.6 210.05 Q193.35 213.15 189.1 211.7 186.75 210.85 189.6 210.05 M165.75 227.95 Q167.35 228.1 168.1 229.4 168.9 230.85 167.9 232.1 167.2 233.35 165.75 233.25 163.25 233.1 163.05 230.85 L163.25 229.8 Q163.6 228.6 164.85 228.2 L165.75 227.95 M182.35 245.85 L184.6 246.95 Q185.4 247.45 185.8 248.4 185.3 255.45 180.6 249.85 177.9 246.7 182.35 245.85 M195.4 291.75 Q199.15 294.85 194.85 293.35 192.5 292.55 195.4 291.75 M207.65 257.8 Q211.45 260.9 207.15 259.4 204.8 258.6 207.65 257.8 M237.3 285.8 Q238.9 285.9 239.65 287.25 240.45 288.7 239.45 289.95 238.75 291.15 237.3 291.1 234.8 290.95 234.6 288.7 L234.85 287.65 Q235.2 286.45 236.45 286.0 L237.3 285.8 M238.75 319.2 Q242.55 322.3 238.25 320.85 235.85 320.0 238.75 319.2 M183.8 307.3 Q185.0 307.75 186.05 308.4 186.85 308.9 187.25 309.85 186.75 316.9 182.0 311.3 179.35 308.15 183.8 307.3 M318.9 325.0 Q322.65 328.1 318.4 326.6 316.0 325.8 318.9 325.0 M276.35 324.3 Q280.1 327.35 275.85 325.9 273.45 325.1 276.35 324.3 M57.3 197.8 Q61.1 200.9 56.8 199.4 54.45 198.6 57.3 197.8" fill="#ffffff" fill-opacity="0.32156864" fill-rule="evenodd" stroke="none"/>
  </g>
  <defs>
    <linearGradient gradientTransform="matrix(0.0, -0.4664, 0.3492, 0.0, 286.05, -40.0)" gradientUnits="userSpaceOnUse" id="gradient0" spreadMethod="pad" x1="-819.2" x2="819.2">
      <stop offset="0.011764705882352941" stop-color="#deffa8"/>
      <stop offset="1.0" stop-color="#7bbb9d"/>
    </linearGradient>
  </defs>
</svg>
