<?xml version="1.0" encoding="UTF-8" standalone="no"?>
<svg xmlns:xlink="http://www.w3.org/1999/xlink" height="327.75px" width="344.5px" xmlns="http://www.w3.org/2000/svg">
  <g transform="matrix(1.0, 0.0, 0.0, 1.0, 172.25, 163.85)">
    <path d="M18.5 119.1 Q18.5 137.65 5.75 150.8 -7.0 163.9 -25.0 163.9 L-128.75 163.9 Q-146.8 163.9 -159.5 150.8 -172.25 137.65 -172.25 119.1 -172.25 100.55 -159.5 87.4 -146.8 74.3 -128.75 74.3 L-25.0 74.3 Q-7.0 74.3 5.75 87.4 18.5 100.55 18.5 119.1 M128.75 -163.85 Q146.75 -163.85 159.5 -150.75 172.25 -137.6 172.25 -119.05 172.25 -100.5 159.5 -87.35 146.75 -74.25 128.75 -74.25 L25.0 -74.25 Q6.95 -74.25 -5.75 -87.35 -18.5 -100.5 -18.5 -119.05 -18.5 -137.6 -5.75 -150.75 6.95 -163.85 25.0 -163.85 L128.75 -163.85" fill="#ffffff" fill-opacity="0.6313726" fill-rule="evenodd" stroke="none"/>
  </g>
</svg>
