<?xml version="1.0" encoding="UTF-8" standalone="no"?>
<svg xmlns:xlink="http://www.w3.org/1999/xlink" height="15.2px" width="47.25px" xmlns="http://www.w3.org/2000/svg">
  <g transform="matrix(1.0, 0.0, 0.0, 1.0, 23.6, 3.3)">
    <path d="M-0.35 11.4 L-23.1 11.4 Q-18.05 1.9 -10.85 -2.8 -5.15 1.5 0.05 10.95 L-0.35 11.4" fill="#28cb2e" fill-rule="evenodd" stroke="none"/>
    <path d="M0.05 10.95 Q5.2 1.45 11.9 -2.8 17.2 0.3 23.15 11.4 L-0.35 11.4 0.05 10.95" fill="#20e55d" fill-rule="evenodd" stroke="none"/>
    <path d="M-0.35 11.4 L-23.1 11.4 Q-18.05 1.9 -10.85 -2.8 -5.15 1.5 0.05 10.95 5.2 1.45 11.9 -2.8 17.2 0.3 23.15 11.4 L-0.35 11.4 0.05 10.95" fill="none" stroke="#000000" stroke-linecap="round" stroke-linejoin="round" stroke-opacity="0.6" stroke-width="1.0"/>
  </g>
</svg>
