<?xml version="1.0" encoding="UTF-8" standalone="no"?>
<svg xmlns:xlink="http://www.w3.org/1999/xlink" height="95.6px" width="356.8px" xmlns="http://www.w3.org/2000/svg">
  <g transform="matrix(1.0, 0.0, 0.0, 1.0, 107.4, 31.8)">
    <path d="M-59.65 24.4 L60.35 24.4 47.45 62.8 -46.5 62.8 -59.65 24.4" fill="#011d2a" fill-opacity="0.7411765" fill-rule="evenodd" stroke="none"/>
    <path d="M97.25 -6.25 L107.1 -30.8 97.25 -6.25 84.9 24.4 60.35 24.4 -59.65 24.4 -84.35 24.4 -106.4 -30.8 107.1 -30.8 245.5 -30.8 244.3 -6.25 97.25 -6.25" fill="#041525" fill-opacity="0.6" fill-rule="evenodd" stroke="none"/>
    <path d="M107.1 -30.8 L97.25 -6.25 244.3 -6.25 245.5 -30.8 107.1 -30.8 -106.4 -30.8 -84.35 24.4 -59.65 24.4 60.35 24.4 84.9 24.4 97.25 -6.25 M245.5 -30.8 L248.4 -30.8 M60.35 24.4 L47.45 62.8 -46.5 62.8 -59.65 24.4" fill="none" stroke="#000000" stroke-linecap="round" stroke-linejoin="round" stroke-width="2.0"/>
  </g>
</svg>
