<?xml version="1.0" encoding="UTF-8" standalone="no"?>
<svg xmlns:xlink="http://www.w3.org/1999/xlink" height="396.75px" width="589.5px" xmlns="http://www.w3.org/2000/svg">
  <g transform="matrix(1.0, 0.0, 0.0, 1.0, 298.7, 205.45)">
    <path d="M-298.7 -205.45 L290.8 -205.45 290.8 -157.6 -298.7 -157.6 -298.7 -205.45" fill="url(#gradient0)" fill-rule="evenodd" stroke="none"/>
    <path d="M289.35 -157.45 L289.35 -152.95 -287.65 -152.95 -287.65 -157.45 289.35 -157.45" fill="#001013" fill-rule="evenodd" stroke="none"/>
    <path d="M289.35 -162.45 L289.35 -157.45 -287.65 -157.45 -287.65 -162.45 289.35 -162.45" fill="#0e2633" fill-rule="evenodd" stroke="none"/>
    <path d="M-287.65 -162.45 L-287.65 -166.9 289.35 -166.9 289.35 -162.45 -287.65 -162.45" fill="#aa039f" fill-rule="evenodd" stroke="none"/>
    <path d="M289.35 -152.95 L289.35 190.8 -287.65 190.8 -287.65 -152.95 289.35 -152.95" fill="url(#gradient1)" fill-rule="evenodd" stroke="none"/>
    <path d="M289.35 -157.45 L289.35 -152.95 289.35 190.8 -287.65 190.8 -287.65 -152.95 -287.65 -157.45" fill="none" stroke="#0092aa" stroke-linecap="round" stroke-linejoin="round" stroke-width="1.0"/>
    <path d="M-287.65 -162.45 L-287.65 -166.9 289.35 -166.9 289.35 -162.45" fill="none" stroke="#d2f6ff" stroke-linecap="round" stroke-linejoin="round" stroke-width="1.0"/>
  </g>
  <defs>
    <linearGradient gradientTransform="matrix(0.0, 0.0174, -0.3598, 0.0, -3.95, -180.3)" gradientUnits="userSpaceOnUse" id="gradient0" spreadMethod="pad" x1="-819.2" x2="819.2">
      <stop offset="0.054901960784313725" stop-color="#efcfff" stop-opacity="0.0"/>
      <stop offset="1.0" stop-color="#fdecff"/>
    </linearGradient>
    <linearGradient gradientTransform="matrix(-0.3177, -0.1947, 0.1393, -0.3275, -9.5, 2.05)" gradientUnits="userSpaceOnUse" id="gradient1" spreadMethod="pad" x1="-819.2" x2="819.2">
      <stop offset="0.0" stop-color="#020010"/>
      <stop offset="0.47058823529411764" stop-color="#330241"/>
      <stop offset="0.9882352941176471" stop-color="#090010"/>
    </linearGradient>
  </defs>
</svg>
