<?xml version="1.0" encoding="UTF-8" standalone="no"?>
<svg xmlns:xlink="http://www.w3.org/1999/xlink" height="116.45px" width="569.9px" xmlns="http://www.w3.org/2000/svg">
  <g transform="matrix(1.0, 0.0, 0.0, 1.0, 284.95, 58.2)">
    <path d="M284.45 -55.3 L284.45 -51.75 -284.45 -51.75 -284.45 -55.3 284.45 -55.3" fill="#002a38" fill-rule="evenodd" stroke="none"/>
    <path d="M-284.45 -55.3 L-284.45 -57.7 284.45 -57.7 284.45 -55.3 -284.45 -55.3" fill="#7f0895" fill-rule="evenodd" stroke="none"/>
    <path d="M284.45 51.5 L284.45 54.9 -284.45 54.9 -284.45 51.5 284.45 51.5" fill="#190038" fill-rule="evenodd" stroke="none"/>
    <path d="M284.45 54.9 L284.45 57.75 -284.45 57.75 -284.45 54.9 284.45 54.9" fill="#7d0195" fill-rule="evenodd" stroke="none"/>
    <path d="M284.45 -51.75 L284.45 51.5 -284.45 51.5 -284.45 -51.75 284.45 -51.75" fill="url(#gradient0)" fill-rule="evenodd" stroke="none"/>
    <path d="M-284.45 -55.3 L-284.45 -57.7 284.45 -57.7 284.45 -55.3 284.45 -51.75 284.45 51.5 284.45 54.9 284.45 57.75 -284.45 57.75 -284.45 54.9 -284.45 51.5 -284.45 -51.75 -284.45 -55.3 284.45 -55.3 M-284.45 54.9 L284.45 54.9 M284.45 -51.75 L-284.45 -51.75" fill="none" stroke="#c905a6" stroke-linecap="round" stroke-linejoin="round" stroke-width="1.0"/>
    <path d="M284.45 51.5 L-284.45 51.5" fill="none" stroke="#5f0079" stroke-linecap="round" stroke-linejoin="round" stroke-width="1.0"/>
  </g>
  <defs>
    <linearGradient gradientTransform="matrix(0.0, 0.0631, -0.3472, 0.0, 0.0, 0.1)" gradientUnits="userSpaceOnUse" id="gradient0" spreadMethod="pad" x1="-819.2" x2="819.2">
      <stop offset="0.0" stop-color="#ff62e3"/>
      <stop offset="0.058823529411764705" stop-color="#660479"/>
      <stop offset="0.5019607843137255" stop-color="#140527"/>
      <stop offset="0.9215686274509803" stop-color="#3c004d"/>
      <stop offset="0.9686274509803922" stop-color="#770185"/>
      <stop offset="1.0" stop-color="#3f0022"/>
    </linearGradient>
  </defs>
</svg>
