<?xml version="1.0" encoding="UTF-8" standalone="no"?>
<svg xmlns:xlink="http://www.w3.org/1999/xlink" height="38.05px" width="165.55px" xmlns="http://www.w3.org/2000/svg">
  <g transform="matrix(1.0, 0.0, 0.0, 1.0, 83.25, 18.55)">
    <path d="M9.9 -17.35 Q11.15 -18.0 13.15 -18.0 L30.75 -18.0 Q33.35 -18.0 34.55 -16.65 L34.45 -16.75 Q35.9 -15.5 35.9 -13.4 35.9 -11.35 34.5 -10.1 L34.45 -10.05 Q33.25 -8.85 30.75 -8.85 L17.7 -8.85 17.7 -4.75 29.55 -4.75 Q32.05 -4.75 33.25 -3.5 L33.15 -3.55 Q34.6 -2.35 34.6 -0.25 34.6 1.7 33.3 3.05 L33.25 3.05 Q32.05 4.3 29.55 4.3 L17.7 4.3 17.7 9.65 31.25 9.65 Q33.8 9.65 35.05 10.95 36.4 12.15 36.4 14.3 36.4 16.4 35.1 17.7 L35.0 17.75 Q33.75 18.95 31.25 18.95 L13.15 18.95 Q9.9 18.95 8.6 17.45 L8.55 17.4 Q7.05 15.95 7.05 12.85 L7.05 -11.9 Q7.05 -13.85 7.65 -15.05 L7.65 -15.15 Q8.45 -16.7 10.0 -17.35 L9.9 -17.35 M0.9 -18.55 Q2.3 -18.55 3.55 -17.8 L3.5 -17.8 Q4.65 -17.2 5.4 -15.95 6.05 -14.75 6.05 -13.55 L5.85 -11.95 5.85 -11.9 5.45 -10.65 5.05 -9.55 -2.9 12.0 -3.75 14.35 -3.8 14.4 -4.95 16.7 Q-5.8 17.95 -7.2 18.75 -8.55 19.5 -10.45 19.5 -12.4 19.5 -13.65 18.75 L-13.7 18.75 Q-15.05 17.95 -15.8 16.75 L-15.85 16.7 -17.05 14.4 -17.05 14.35 -17.95 11.9 -17.9 12.0 -25.75 -9.35 -25.8 -9.4 -26.1 -10.35 -26.6 -12.0 -26.6 -12.05 Q-26.95 -10.9 -27.85 -10.1 L-27.9 -10.05 Q-29.1 -8.85 -31.6 -8.85 L-44.65 -8.85 -44.65 -4.75 -32.8 -4.75 Q-30.3 -4.75 -29.1 -3.5 L-29.2 -3.55 Q-27.75 -2.35 -27.75 -0.25 -27.75 1.7 -29.05 3.05 L-29.1 3.05 Q-30.3 4.3 -32.8 4.3 L-44.65 4.3 -44.65 9.65 -31.1 9.65 Q-28.55 9.65 -27.3 10.95 -25.95 12.15 -25.95 14.3 -25.95 16.4 -27.25 17.7 L-27.35 17.75 Q-28.6 18.95 -31.1 18.95 L-49.2 18.95 Q-52.45 18.95 -53.75 17.45 L-53.8 17.4 Q-55.3 15.95 -55.3 12.85 L-55.3 -11.9 Q-55.3 -13.85 -54.7 -15.05 L-54.7 -15.15 Q-53.9 -16.7 -52.35 -17.35 L-52.45 -17.35 Q-51.2 -18.0 -49.2 -18.0 L-31.6 -18.0 Q-29.0 -18.0 -27.8 -16.65 L-27.9 -16.75 Q-27.0 -15.95 -26.65 -14.85 -26.35 -16.0 -25.3 -17.0 L-25.35 -16.95 Q-23.9 -18.55 -21.6 -18.55 -18.75 -18.55 -17.5 -16.65 L-17.45 -16.6 Q-16.65 -15.4 -15.85 -12.8 L-10.3 3.65 -4.7 -12.95 -3.75 -15.55 -3.75 -15.4 Q-3.35 -16.65 -2.15 -17.55 L-2.25 -17.5 Q-1.15 -18.55 0.9 -18.55 M54.65 -18.0 L58.75 -17.75 Q60.65 -17.55 62.2 -16.8 64.05 -16.0 65.55 -14.55 67.05 -13.05 67.8 -10.95 L67.8 -11.0 Q68.5 -9.05 68.5 -6.95 68.5 -2.4 65.95 0.35 L65.9 0.35 Q64.55 1.8 62.4 2.8 L63.05 3.55 63.1 3.55 66.15 7.75 Q67.5 9.95 68.25 11.8 69.2 13.95 69.1 14.85 69.1 16.05 68.4 17.2 L68.3 17.35 66.55 18.9 66.45 18.95 Q65.35 19.5 63.9 19.5 62.1 19.5 60.9 18.7 L60.85 18.65 Q59.8 17.85 59.05 16.8 L57.5 14.3 54.8 9.85 54.8 9.8 Q53.5 7.6 52.5 6.45 L52.45 6.45 Q51.7 5.55 50.95 5.25 L50.85 5.2 48.7 4.85 48.35 4.85 48.35 13.45 Q48.35 16.5 46.95 17.85 L46.9 17.9 Q45.45 19.5 43.05 19.5 40.5 19.5 39.1 17.85 L39.0 17.75 Q37.7 16.3 37.7 13.45 L37.7 -11.9 Q37.7 -15.05 39.25 -16.4 40.65 -18.0 43.8 -18.0 L54.65 -18.0 M52.5 -8.95 L48.35 -8.95 48.35 -3.9 52.35 -3.9 55.95 -4.25 55.9 -4.2 Q56.85 -4.5 57.4 -5.05 57.75 -5.6 57.75 -6.5 57.75 -7.25 57.4 -7.8 57.0 -8.35 56.4 -8.6 L52.5 -8.95 M71.5 -12.6 Q71.5 -15.3 73.05 -16.85 74.55 -18.55 77.05 -18.55 80.4 -18.55 81.45 -16.05 82.3 -14.4 82.3 -11.35 L82.15 -8.15 81.2 2.95 Q80.95 5.35 80.3 6.6 79.4 8.5 77.35 8.8 79.3 8.9 80.75 10.35 L80.7 10.3 Q82.3 11.85 82.3 14.1 82.3 16.6 80.65 18.05 79.05 19.45 76.95 19.45 74.8 19.45 73.25 18.15 71.5 16.7 71.5 14.1 71.5 11.9 73.05 10.4 L73.15 10.3 Q74.45 8.95 76.35 8.8 74.25 8.55 73.3 6.7 L73.3 6.65 Q72.7 5.45 72.45 2.9 L72.45 2.85 71.7 -7.9 71.5 -12.6 M-61.45 -8.85 L-72.55 -8.85 -72.55 -4.4 -63.6 -4.4 Q-61.1 -4.4 -59.9 -3.15 L-60.0 -3.2 Q-58.55 -2.0 -58.55 0.1 -58.55 2.2 -60.0 3.4 L-59.95 3.4 Q-61.2 4.6 -63.6 4.6 L-72.55 4.6 -72.55 13.45 Q-72.55 16.45 -74.05 17.9 -75.6 19.5 -77.9 19.5 -80.3 19.5 -81.75 17.9 L-81.75 17.85 Q-83.25 16.4 -83.25 13.45 L-83.25 -11.9 Q-83.25 -13.9 -82.6 -15.15 L-82.6 -15.05 Q-81.95 -16.6 -80.35 -17.35 -79.1 -18.0 -77.15 -18.0 L-61.45 -18.0 Q-58.9 -18.0 -57.65 -16.7 -56.3 -15.45 -56.3 -13.4 -56.3 -11.35 -57.65 -10.1 L-57.7 -10.05 Q-58.95 -8.85 -61.45 -8.85" fill="#000000" fill-rule="evenodd" stroke="none"/>
    <path d="M30.75 -10.85 L15.7 -10.85 15.7 -2.75 29.55 -2.75 Q31.1 -2.75 31.85 -2.05 32.6 -1.4 32.6 -0.25 32.6 0.85 31.85 1.6 31.1 2.3 29.55 2.3 L15.7 2.3 15.7 11.65 31.25 11.65 Q32.85 11.65 33.65 12.4 34.4 13.1 34.4 14.3 34.4 15.5 33.65 16.25 32.85 16.95 31.25 16.95 L13.15 16.95 Q10.95 16.95 10.0 16.0 9.05 15.0 9.05 12.85 L9.05 -11.9 Q9.05 -13.35 9.45 -14.25 9.9 -15.15 10.8 -15.55 L13.15 -16.0 30.75 -16.0 Q32.35 -16.0 33.1 -15.25 33.9 -14.55 33.9 -13.4 33.9 -12.25 33.1 -11.55 32.35 -10.85 30.75 -10.85 M-17.75 -12.15 L-10.3 9.9 -2.8 -12.3 -1.9 -14.75 -0.95 -16.0 Q-0.3 -16.55 0.9 -16.55 L2.5 -16.1 3.65 -14.95 Q4.05 -14.25 4.05 -13.55 L3.9 -12.45 3.55 -11.35 3.15 -10.25 -4.8 11.3 -5.65 13.65 -6.65 15.6 Q-7.2 16.45 -8.15 16.95 -9.1 17.5 -10.45 17.5 -11.8 17.5 -12.7 17.0 -13.65 16.45 -14.2 15.6 L-15.2 13.65 -16.05 11.3 -23.9 -10.05 -24.3 -11.2 -24.65 -12.4 -24.85 -13.5 Q-24.85 -14.65 -23.9 -15.6 -23.0 -16.55 -21.6 -16.55 -19.9 -16.55 -19.15 -15.5 -18.45 -14.45 -17.75 -12.15 M48.7 2.85 L46.35 2.85 46.35 13.45 Q46.35 15.55 45.45 16.5 44.55 17.5 43.05 17.5 41.45 17.5 40.55 16.5 39.7 15.45 39.7 13.45 L39.7 -11.9 Q39.7 -14.05 40.65 -15.0 41.65 -16.0 43.8 -16.0 L54.65 -16.0 58.5 -15.8 Q60.05 -15.6 61.35 -15.0 62.9 -14.35 64.1 -13.15 65.3 -11.95 65.9 -10.3 66.5 -8.7 66.5 -6.95 66.5 -3.25 64.45 -1.05 62.35 1.15 58.15 2.1 59.9 3.0 61.55 4.85 L64.45 8.8 66.4 12.55 Q67.1 14.2 67.1 14.85 67.1 15.5 66.7 16.15 L65.55 17.15 63.9 17.5 Q62.75 17.5 62.0 17.0 L60.7 15.65 59.2 13.25 56.5 8.8 Q55.1 6.35 53.95 5.1 52.8 3.8 51.65 3.35 50.5 2.85 48.7 2.85 M52.5 -10.95 L46.35 -10.95 46.35 -1.9 52.35 -1.9 56.4 -2.3 Q58.05 -2.75 58.9 -3.75 59.75 -4.75 59.75 -6.5 59.75 -7.85 59.05 -8.9 58.35 -9.95 57.15 -10.45 L52.5 -10.95 M74.45 2.7 L73.7 -8.05 73.5 -12.6 Q73.5 -14.45 74.5 -15.5 75.45 -16.55 77.05 -16.55 79.0 -16.55 79.65 -15.2 80.3 -13.85 80.3 -11.35 L80.15 -8.35 79.2 2.75 Q79.0 4.7 78.5 5.75 78.0 6.8 76.8 6.8 75.6 6.8 75.1 5.8 74.65 4.8 74.45 2.7 M76.95 17.45 Q75.55 17.45 74.55 16.6 73.5 15.7 73.5 14.1 73.5 12.7 74.5 11.75 75.45 10.75 76.9 10.75 78.3 10.75 79.3 11.75 80.3 12.7 80.3 14.1 80.3 15.65 79.3 16.55 78.3 17.45 76.95 17.45 M-61.45 -10.85 L-74.55 -10.85 -74.55 -2.4 -63.6 -2.4 Q-62.05 -2.4 -61.3 -1.7 -60.55 -1.05 -60.55 0.1 -60.55 1.25 -61.3 1.9 -62.1 2.6 -63.6 2.6 L-74.55 2.6 -74.55 13.45 Q-74.55 15.5 -75.5 16.5 -76.45 17.5 -77.9 17.5 -79.4 17.5 -80.3 16.5 -81.25 15.5 -81.25 13.45 L-81.25 -11.9 Q-81.25 -13.35 -80.8 -14.25 -80.4 -15.15 -79.45 -15.55 L-77.15 -16.0 -61.45 -16.0 Q-59.85 -16.0 -59.05 -15.25 -58.3 -14.55 -58.3 -13.4 -58.3 -12.25 -59.05 -11.55 -59.85 -10.85 -61.45 -10.85 M-31.6 -10.85 L-46.65 -10.85 -46.65 -2.75 -32.8 -2.75 Q-31.25 -2.75 -30.5 -2.05 -29.75 -1.4 -29.75 -0.25 -29.75 0.85 -30.5 1.6 -31.25 2.3 -32.8 2.3 L-46.65 2.3 -46.65 11.65 -31.1 11.65 Q-29.5 11.65 -28.7 12.4 -27.95 13.1 -27.95 14.3 -27.95 15.5 -28.7 16.25 -29.5 16.95 -31.1 16.95 L-49.2 16.95 Q-51.4 16.95 -52.35 16.0 -53.3 15.0 -53.3 12.85 L-53.3 -11.9 Q-53.3 -13.35 -52.9 -14.25 -52.45 -15.15 -51.55 -15.55 -50.65 -16.0 -49.2 -16.0 L-31.6 -16.0 Q-30.0 -16.0 -29.25 -15.25 -28.45 -14.55 -28.45 -13.4 -28.45 -12.25 -29.25 -11.55 -30.0 -10.85 -31.6 -10.85" fill="#fddbff" fill-rule="evenodd" stroke="none"/>
  </g>
</svg>
