<?xml version="1.0" encoding="UTF-8" standalone="no"?>
<svg xmlns:xlink="http://www.w3.org/1999/xlink" height="45.5px" width="139.15px" xmlns="http://www.w3.org/2000/svg">
  <g transform="matrix(1.0, 0.0, 0.0, 1.0, -399.7, 22.75)">
    <path d="M405.35 -18.85 Q412.55 -19.5 418.75 -17.2 424.95 -14.95 425.2 -9.45 422.5 -5.4 417.4 -8.95 413.3 -11.8 408.6 -11.7 L408.7 -1.95 408.75 0.85 409.25 0.65 419.25 0.95 Q423.55 1.5 425.55 4.15 426.15 -1.3 432.65 -5.4 435.95 -7.45 439.15 -8.45 L444.35 -8.2 Q448.15 -7.85 449.85 -4.9 451.05 0.05 446.95 3.5 439.6 9.7 429.75 8.1 431.3 12.85 436.15 13.8 444.85 15.55 448.9 21.1 432.85 27.45 426.3 9.6 L425.9 8.25 Q422.95 11.9 417.1 10.85 410.95 9.75 408.6 7.65 L408.5 9.75 Q408.2 14.9 405.35 18.5 397.9 15.25 400.3 4.15 402.15 -4.25 401.55 -12.95 401.25 -17.9 405.35 -18.85 M506.05 -13.0 L506.05 -6.2 506.05 -1.3 Q514.35 -3.55 511.0 -11.65 509.8 -14.65 506.05 -13.0 M505.4 -20.15 L511.3 -19.7 516.15 -18.2 Q520.3 -11.8 516.95 -4.55 512.7 4.8 507.05 8.45 507.55 8.9 508.05 8.95 511.2 9.15 512.95 11.55 L513.85 13.3 Q497.3 18.75 497.0 -1.95 496.8 -14.35 505.4 -20.15 M524.9 -22.75 L532.65 -22.35 Q535.75 -22.05 535.95 -19.15 L535.5 -18.3 Q533.3 -15.3 529.3 -15.1 L529.45 -14.65 Q530.5 -10.05 532.75 -6.05 536.65 1.0 538.55 8.65 539.6 12.75 536.95 15.6 530.25 12.8 526.1 3.1 520.3 -10.35 524.15 -22.25 524.25 -22.6 524.9 -22.75 M487.25 -13.65 Q491.4 -6.95 489.1 4.1 487.7 11.05 482.05 15.9 471.1 10.4 460.85 1.3 456.8 -2.3 458.65 -7.15 467.85 -7.55 475.35 2.1 L479.45 7.8 480.95 -3.9 Q481.9 -11.1 487.25 -13.65 M439.15 -1.3 Q434.55 1.75 438.95 0.3 446.2 -2.0 439.15 -1.3" fill="url(#gradient0)" fill-rule="evenodd" stroke="none"/>
  </g>
  <defs>
    <radialGradient cx="0" cy="0" gradientTransform="matrix(0.0, 0.0, 0.0, 0.0, 0.0, 0.0)" gradientUnits="userSpaceOnUse" id="gradient0" r="819.2" spreadMethod="pad">
      <stop offset="0.7019607843137254" stop-color="#ffffff"/>
      <stop offset="1.0" stop-color="#ffffff" stop-opacity="0.0"/>
    </radialGradient>
  </defs>
</svg>
