<?xml version="1.0" encoding="UTF-8" standalone="no"?>
<svg xmlns:xlink="http://www.w3.org/1999/xlink" height="38.05px" width="165.55px" xmlns="http://www.w3.org/2000/svg">
  <g transform="matrix(1.0, 0.0, 0.0, 1.0, 82.8, 19.0)">
    <path d="M10.35 -17.8 Q11.6 -18.45 13.6 -18.45 L31.2 -18.45 Q33.8 -18.45 35.0 -17.1 L34.9 -17.2 Q36.35 -15.95 36.35 -13.85 36.35 -11.8 34.95 -10.55 L34.9 -10.5 Q33.7 -9.3 31.2 -9.3 L18.15 -9.3 18.15 -5.2 30.0 -5.2 Q32.5 -5.2 33.7 -3.95 L33.6 -4.0 Q35.05 -2.8 35.05 -0.7 35.05 1.25 33.75 2.6 L33.7 2.6 Q32.5 3.85 30.0 3.85 L18.15 3.85 18.15 9.2 31.7 9.2 Q34.25 9.2 35.5 10.5 36.85 11.7 36.85 13.85 36.85 15.95 35.55 17.25 L35.45 17.3 Q34.2 18.5 31.7 18.5 L13.6 18.5 Q10.35 18.5 9.05 17.0 L9.0 16.95 Q7.5 15.5 7.5 12.4 L7.5 -12.35 Q7.5 -14.3 8.1 -15.5 L8.1 -15.6 Q8.9 -17.15 10.45 -17.8 L10.35 -17.8 M1.35 -19.0 Q2.75 -19.0 4.0 -18.25 L3.95 -18.25 Q5.1 -17.65 5.85 -16.4 6.5 -15.2 6.5 -14.0 L6.3 -12.4 6.3 -12.35 5.9 -11.1 5.5 -10.0 -2.45 11.55 -3.3 13.9 -3.35 13.95 -4.5 16.25 Q-5.35 17.5 -6.75 18.3 -8.1 19.05 -10.0 19.05 -11.95 19.05 -13.2 18.3 L-13.25 18.3 Q-14.6 17.5 -15.35 16.3 L-15.4 16.25 Q-16.1 15.25 -16.6 13.95 L-16.6 13.9 -17.5 11.45 -17.45 11.55 -25.3 -9.8 -25.35 -9.85 -25.65 -10.8 -26.15 -12.45 -26.15 -12.5 Q-26.5 -11.35 -27.4 -10.55 L-27.45 -10.5 Q-28.65 -9.3 -31.15 -9.3 L-44.2 -9.3 -44.2 -5.2 -32.35 -5.2 Q-29.85 -5.2 -28.65 -3.95 L-28.75 -4.0 Q-27.3 -2.8 -27.3 -0.7 -27.3 1.25 -28.6 2.6 L-28.65 2.6 Q-29.85 3.85 -32.35 3.85 L-44.2 3.85 -44.2 9.2 -30.65 9.2 Q-28.1 9.2 -26.85 10.5 -25.5 11.7 -25.5 13.85 -25.5 15.95 -26.8 17.25 L-26.9 17.3 Q-28.15 18.5 -30.65 18.5 L-48.75 18.5 Q-52.0 18.5 -53.3 17.0 L-53.35 16.95 Q-54.85 15.5 -54.85 12.4 L-54.85 -12.35 Q-54.85 -14.3 -54.25 -15.5 L-54.25 -15.6 Q-53.45 -17.15 -51.9 -17.8 L-52.0 -17.8 Q-50.75 -18.45 -48.75 -18.45 L-31.15 -18.45 Q-28.55 -18.45 -27.35 -17.1 L-27.45 -17.2 Q-26.55 -16.4 -26.2 -15.3 -25.9 -16.45 -24.85 -17.45 L-24.9 -17.4 Q-23.45 -19.0 -21.15 -19.0 -18.3 -19.0 -17.05 -17.1 L-17.0 -17.05 Q-16.2 -15.85 -15.4 -13.25 L-9.85 3.2 -4.25 -13.4 -3.3 -16.0 -3.3 -15.85 Q-2.9 -17.1 -1.7 -18.0 L-1.8 -17.95 Q-0.7 -19.0 1.35 -19.0 M55.1 -18.45 L59.2 -18.2 Q61.1 -18.0 62.65 -17.25 64.5 -16.45 66.0 -15.0 67.5 -13.5 68.25 -11.4 L68.25 -11.45 Q68.95 -9.5 68.95 -7.4 68.95 -2.85 66.4 -0.1 L66.35 -0.1 Q65.0 1.35 62.85 2.35 L63.5 3.1 63.55 3.1 66.6 7.3 Q67.95 9.5 68.7 11.35 69.65 13.5 69.55 14.4 69.55 15.6 68.85 16.75 L68.75 16.9 67.0 18.45 66.9 18.5 Q65.8 19.05 64.35 19.05 62.55 19.05 61.35 18.25 L61.3 18.2 59.5 16.35 57.95 13.85 55.25 9.4 55.25 9.35 Q53.95 7.15 52.95 6.0 L52.9 6.0 Q52.15 5.1 51.4 4.8 L51.3 4.75 49.15 4.4 48.8 4.4 48.8 13.0 Q48.8 16.05 47.4 17.4 L47.35 17.45 Q45.9 19.05 43.5 19.05 40.95 19.05 39.55 17.4 L39.45 17.3 Q38.15 15.85 38.15 13.0 L38.15 -12.35 Q38.15 -15.5 39.7 -16.85 41.1 -18.45 44.25 -18.45 L55.1 -18.45 M52.95 -9.4 L48.8 -9.4 48.8 -4.35 52.8 -4.35 56.4 -4.7 56.35 -4.65 Q57.3 -4.95 57.85 -5.5 58.2 -6.05 58.2 -6.95 58.2 -7.7 57.85 -8.25 L56.85 -9.05 52.95 -9.4 M71.95 -13.05 Q71.95 -15.75 73.5 -17.3 75.0 -19.0 77.5 -19.0 80.85 -19.0 81.9 -16.5 82.75 -14.85 82.75 -11.8 L82.6 -8.6 81.65 2.5 Q81.4 4.9 80.75 6.15 79.85 8.05 77.8 8.35 79.75 8.45 81.2 9.9 L81.15 9.85 Q82.75 11.4 82.75 13.65 82.75 16.15 81.1 17.6 79.5 19.0 77.4 19.0 75.25 19.0 73.7 17.7 71.95 16.25 71.95 13.65 71.95 11.45 73.5 9.95 L73.6 9.85 Q74.9 8.5 76.8 8.35 74.7 8.1 73.75 6.25 L73.75 6.2 Q73.15 5.0 72.9 2.45 L72.9 2.4 72.15 -8.35 71.95 -13.05 M-61.0 -9.3 L-72.1 -9.3 -72.1 -4.85 -63.15 -4.85 Q-60.65 -4.85 -59.45 -3.6 L-59.55 -3.65 Q-58.1 -2.45 -58.1 -0.35 -58.1 1.75 -59.55 2.95 L-59.5 2.95 Q-60.75 4.15 -63.15 4.15 L-72.1 4.15 -72.1 13.0 Q-72.1 16.0 -73.6 17.45 -75.15 19.05 -77.45 19.05 -79.85 19.05 -81.3 17.45 L-81.3 17.4 Q-82.8 15.95 -82.8 13.0 L-82.8 -12.35 Q-82.8 -14.35 -82.15 -15.6 L-82.15 -15.5 Q-81.5 -17.05 -79.9 -17.8 -78.65 -18.45 -76.7 -18.45 L-61.0 -18.45 Q-58.45 -18.45 -57.2 -17.15 -55.85 -15.9 -55.85 -13.85 -55.85 -11.8 -57.2 -10.55 L-57.25 -10.5 Q-58.5 -9.3 -61.0 -9.3" fill="#6e4a74" fill-rule="evenodd" stroke="none"/>
    <path d="M31.2 -11.3 L16.15 -11.3 16.15 -3.2 30.0 -3.2 Q31.55 -3.2 32.3 -2.5 33.05 -1.85 33.05 -0.7 33.05 0.4 32.3 1.15 31.55 1.85 30.0 1.85 L16.15 1.85 16.15 11.2 31.7 11.2 Q33.3 11.2 34.1 11.95 34.85 12.65 34.85 13.85 34.85 15.05 34.1 15.8 33.3 16.5 31.7 16.5 L13.6 16.5 Q11.4 16.5 10.45 15.55 9.5 14.55 9.5 12.4 L9.5 -12.35 Q9.5 -13.8 9.9 -14.7 10.35 -15.6 11.25 -16.0 L13.6 -16.45 31.2 -16.45 Q32.8 -16.45 33.55 -15.7 34.35 -15.0 34.35 -13.85 34.35 -12.7 33.55 -12.0 32.8 -11.3 31.2 -11.3 M-17.3 -12.6 L-9.85 9.45 -2.35 -12.75 -1.45 -15.2 -0.5 -16.45 Q0.15 -17.0 1.35 -17.0 L2.95 -16.55 4.1 -15.4 Q4.5 -14.7 4.5 -14.0 L4.35 -12.9 4.0 -11.8 3.6 -10.7 -4.35 10.85 -5.2 13.2 -6.2 15.15 Q-6.75 16.0 -7.7 16.5 -8.65 17.05 -10.0 17.05 -11.35 17.05 -12.25 16.55 L-13.75 15.15 -14.75 13.2 -15.6 10.85 -23.45 -10.5 -23.85 -11.65 -24.2 -12.85 -24.4 -13.95 Q-24.4 -15.1 -23.45 -16.05 -22.55 -17.0 -21.15 -17.0 -19.45 -17.0 -18.7 -15.95 -18.0 -14.9 -17.3 -12.6 M49.15 2.4 L46.8 2.4 46.8 13.0 Q46.8 15.1 45.9 16.05 45.0 17.05 43.5 17.05 41.9 17.05 41.0 16.05 40.15 15.0 40.15 13.0 L40.15 -12.35 Q40.15 -14.5 41.1 -15.45 42.1 -16.45 44.25 -16.45 L55.1 -16.45 58.95 -16.25 61.8 -15.45 Q63.35 -14.8 64.55 -13.6 65.75 -12.4 66.35 -10.75 66.95 -9.15 66.95 -7.4 66.95 -3.7 64.9 -1.5 62.8 0.7 58.6 1.65 60.35 2.55 62.0 4.4 63.6 6.25 64.9 8.35 66.15 10.4 66.85 12.1 L67.55 14.4 Q67.55 15.05 67.15 15.7 L66.0 16.7 64.35 17.05 Q63.2 17.05 62.45 16.55 L61.15 15.2 59.65 12.8 56.95 8.35 Q55.55 5.9 54.4 4.65 53.25 3.35 52.1 2.9 50.95 2.4 49.15 2.4 M52.95 -11.4 L46.8 -11.4 46.8 -2.35 52.8 -2.35 56.85 -2.75 Q58.5 -3.2 59.35 -4.2 60.2 -5.2 60.2 -6.95 60.2 -8.3 59.5 -9.35 58.8 -10.4 57.6 -10.9 L52.95 -11.4 M74.9 2.25 L74.15 -8.5 73.95 -13.05 Q73.95 -14.9 74.95 -15.95 75.9 -17.0 77.5 -17.0 79.45 -17.0 80.1 -15.65 80.75 -14.3 80.75 -11.8 L80.6 -8.8 79.65 2.3 Q79.45 4.25 78.95 5.3 78.45 6.35 77.25 6.35 76.05 6.35 75.55 5.35 75.1 4.35 74.9 2.25 M77.4 17.0 Q76.0 17.0 75.0 16.15 73.95 15.25 73.95 13.65 73.95 12.25 74.95 11.3 75.9 10.3 77.35 10.3 78.75 10.3 79.75 11.3 80.75 12.25 80.75 13.65 80.75 15.2 79.75 16.1 78.75 17.0 77.4 17.0 M-61.0 -11.3 L-74.1 -11.3 -74.1 -2.85 -63.15 -2.85 Q-61.6 -2.85 -60.85 -2.15 -60.1 -1.5 -60.1 -0.35 -60.1 0.8 -60.85 1.45 -61.65 2.15 -63.15 2.15 L-74.1 2.15 -74.1 13.0 Q-74.1 15.05 -75.05 16.05 -76.0 17.05 -77.45 17.05 -78.95 17.05 -79.85 16.05 -80.8 15.05 -80.8 13.0 L-80.8 -12.35 Q-80.8 -13.8 -80.35 -14.7 -79.95 -15.6 -79.0 -16.0 L-76.7 -16.45 -61.0 -16.45 Q-59.4 -16.45 -58.6 -15.7 -57.85 -15.0 -57.85 -13.85 -57.85 -12.7 -58.6 -12.0 -59.4 -11.3 -61.0 -11.3 M-31.15 -11.3 L-46.2 -11.3 -46.2 -3.2 -32.35 -3.2 Q-30.8 -3.2 -30.05 -2.5 -29.3 -1.85 -29.3 -0.7 -29.3 0.4 -30.05 1.15 -30.8 1.85 -32.35 1.85 L-46.2 1.85 -46.2 11.2 -30.65 11.2 Q-29.05 11.2 -28.25 11.95 -27.5 12.65 -27.5 13.85 -27.5 15.05 -28.25 15.8 -29.05 16.5 -30.65 16.5 L-48.75 16.5 Q-50.95 16.5 -51.9 15.55 -52.85 14.55 -52.85 12.4 L-52.85 -12.35 Q-52.85 -13.8 -52.45 -14.7 -52.0 -15.6 -51.1 -16.0 L-48.75 -16.45 -31.15 -16.45 Q-29.55 -16.45 -28.8 -15.7 -28.0 -15.0 -28.0 -13.85 -28.0 -12.7 -28.8 -12.0 -29.55 -11.3 -31.15 -11.3" fill="#ffffff" fill-rule="evenodd" stroke="none"/>
  </g>
</svg>
