<?xml version="1.0" encoding="UTF-8" standalone="no"?>
<svg xmlns:xlink="http://www.w3.org/1999/xlink" height="90.2px" width="102.05px" xmlns="http://www.w3.org/2000/svg">
  <g transform="matrix(1.0, 0.0, 0.0, 1.0, 43.55, 49.95)">
    <path d="M10.9 -13.3 Q22.05 -21.6 37.5 -29.0 49.85 -31.8 54.0 -22.75 54.2 -21.6 53.8 -20.35 22.8 -3.0 16.5 6.45 20.4 7.4 25.05 3.25 L48.25 -2.0 Q56.3 -2.7 57.75 3.25 L57.35 4.55 Q44.5 14.55 25.8 16.3 4.1 40.05 -21.0 38.0 -32.6 31.45 -37.75 19.25 -41.25 9.7 -37.75 -9.25 -41.8 -18.55 -42.75 -27.75 -43.3 -38.0 -32.25 -33.75 -29.3 -32.6 -27.1 -30.7 -26.1 -21.25 -24.7 -13.5 L-24.7 -6.55 Q-19.8 -8.0 -19.7 -10.0 -11.05 -17.2 0.3 -32.25 11.6 -47.3 20.25 -49.0 28.05 -50.25 30.25 -44.0 11.8 -22.3 4.25 -8.5 8.35 -9.05 10.9 -13.3" fill="#ffe3c9" fill-rule="evenodd" stroke="none"/>
    <path d="M53.8 -20.35 Q52.0 -14.65 38.0 -7.0 30.25 -1.4 25.05 3.25 20.4 7.4 16.5 6.45 22.8 -3.0 53.8 -20.35 M57.35 4.55 Q54.35 11.4 35.45 17.15 22.8 23.55 9.25 33.75 -4.45 42.4 -21.0 38.0 4.1 40.05 25.8 16.3 44.5 14.55 57.35 4.55 M-27.1 -30.7 Q-23.3 -27.35 -21.75 -21.75 L-19.75 -10.0 -19.7 -10.0 Q-19.8 -8.0 -24.7 -6.55 L-24.7 -13.5 Q-26.1 -21.25 -27.1 -30.7 M30.25 -44.0 Q30.2 -37.0 23.5 -30.0 15.9 -21.65 10.9 -13.3 8.35 -9.05 4.25 -8.5 11.8 -22.3 30.25 -44.0" fill="#e5b99d" fill-rule="evenodd" stroke="none"/>
    <path d="M10.9 -13.3 Q22.05 -21.6 37.5 -29.0 49.85 -31.8 54.0 -22.75 54.2 -21.6 53.8 -20.35 52.0 -14.65 38.0 -7.0 30.25 -1.4 25.05 3.25 L48.25 -2.0 Q56.3 -2.7 57.75 3.25 L57.35 4.55 Q54.35 11.4 35.45 17.15 22.8 23.55 9.25 33.75 -4.45 42.4 -21.0 38.0 -32.6 31.45 -37.75 19.25 -41.25 9.7 -37.75 -9.25 -41.8 -18.55 -42.75 -27.75 -43.3 -38.0 -32.25 -33.75 -29.3 -32.6 -27.1 -30.7 -23.3 -27.35 -21.75 -21.75 L-19.75 -10.0 -19.7 -10.0 Q-11.05 -17.2 0.3 -32.25 11.6 -47.3 20.25 -49.0 28.05 -50.25 30.25 -44.0 30.2 -37.0 23.5 -30.0 15.9 -21.65 10.9 -13.3 Z" fill="none" stroke="#000000" stroke-linecap="round" stroke-linejoin="round" stroke-width="1.5"/>
  </g>
</svg>
