<?xml version="1.0" encoding="UTF-8" standalone="no"?>
<svg xmlns:xlink="http://www.w3.org/1999/xlink" height="88.65px" width="96.2px" xmlns="http://www.w3.org/2000/svg">
  <g transform="matrix(1.0, 0.0, 0.0, 1.0, 40.7, 47.5)">
    <path d="M5.85 -2.35 L6.7 -3.75 5.85 -2.35 M6.7 -3.75 L12.15 -12.25 Q34.6 -27.95 46.25 -27.25 53.1 -26.05 54.7 -18.9 L54.6 -16.9 11.8 8.7 17.55 11.45 Q19.5 9.25 22.2 6.9 21.15 23.7 2.75 33.95 -9.65 39.8 -21.1 39.0 L-21.95 38.75 Q-32.4 33.9 -38.65 18.75 -42.9 3.85 -33.35 -11.4 -20.1 -27.75 -8.4 -21.2 -33.0 -7.95 -23.5 -10.0 -14.15 -11.1 -6.0 -19.6 -4.4 -21.25 -2.85 -23.25 7.65 -37.3 16.15 -45.2 22.9 -48.8 29.65 -44.0 L-0.5 0.15 6.7 -3.75 M16.6 12.55 L17.55 11.45 16.6 12.55" fill="#ffe3c9" fill-rule="evenodd" stroke="none"/>
    <path d="M12.15 -12.25 L6.7 -3.75 -0.5 0.15 29.65 -44.0 Q32.95 -38.85 27.2 -33.3 18.5 -21.9 12.15 -12.25 M-6.0 -19.6 Q-14.15 -11.1 -23.5 -10.0 -33.0 -7.95 -8.4 -21.2 L-6.0 -19.6 M-21.1 39.0 Q-9.65 39.8 2.75 33.95 21.15 23.7 22.2 6.9 19.5 9.25 17.55 11.45 L11.8 8.7 54.6 -16.9 Q54.0 -14.35 51.2 -11.95 35.7 -3.55 26.3 3.6 27.2 19.65 16.0 30.05 -2.7 44.2 -21.1 39.0 M26.3 3.6 L22.2 6.9 26.3 3.6" fill="#e5b99d" fill-rule="evenodd" stroke="none"/>
    <path d="M6.7 -3.75 L5.85 -2.35 M12.15 -12.25 L6.7 -3.75 M29.65 -44.0 Q22.9 -48.8 16.15 -45.2 7.65 -37.3 -2.85 -23.25 -4.4 -21.25 -6.0 -19.6 -14.15 -11.1 -23.5 -10.0 M-8.4 -21.2 Q-20.1 -27.75 -33.35 -11.4 -42.9 3.85 -38.65 18.75 -32.4 33.9 -21.95 38.75 L-21.1 39.0 Q-2.7 44.2 16.0 30.05 27.2 19.65 26.3 3.6 35.7 -3.55 51.2 -11.95 54.0 -14.35 54.6 -16.9 L54.7 -18.9 Q53.1 -26.05 46.25 -27.25 34.6 -27.95 12.15 -12.25 18.5 -21.9 27.2 -33.3 32.95 -38.85 29.65 -44.0 M22.2 6.9 Q19.5 9.25 17.55 11.45 L16.6 12.55 M-8.4 -21.2 L-6.0 -19.6 M22.2 6.9 L26.3 3.6" fill="none" stroke="#000000" stroke-linecap="round" stroke-linejoin="round" stroke-width="1.5"/>
  </g>
</svg>
