<?xml version="1.0" encoding="UTF-8" standalone="no"?>
<svg xmlns:xlink="http://www.w3.org/1999/xlink" height="141.25px" width="138.65px" xmlns="http://www.w3.org/2000/svg">
  <g transform="matrix(1.0, 0.0, 0.0, 1.0, 65.45, 143.85)">
    <path d="M73.2 -13.35 L73.15 -13.55 Q72.1 -17.45 55.45 -20.3 37.65 -23.35 12.5 -23.35 2.45 -23.35 -6.4 -22.85 L-6.4 -143.8 -48.2 -143.8 -48.2 -143.85 73.2 -143.85 73.2 -13.35" fill="url(#gradient0)" fill-rule="evenodd" stroke="none"/>
    <path d="M-6.4 -22.85 Q2.45 -23.35 12.5 -23.35 37.65 -23.35 55.45 -20.3 72.1 -17.45 73.15 -13.55 L73.2 -13.35 73.2 -12.45 Q72.5 -9.8 64.7 -7.65 L55.45 -5.65 Q37.65 -2.6 12.5 -2.6 -12.65 -2.6 -30.45 -5.65 L-40.05 -7.7 Q-45.6 -9.3 -47.35 -11.15 L-6.4 -11.15 -6.4 -22.85" fill="url(#gradient1)" fill-rule="evenodd" stroke="none"/>
    <path d="M-48.2 -143.8 L-6.4 -143.8 -6.4 -22.85 -6.4 -11.15 -47.35 -11.15 -65.45 -11.15 -65.45 -143.8 -48.2 -143.8" fill="#000000" fill-rule="evenodd" stroke="none"/>
    <path d="M73.2 -12.45 L73.2 -13.35" fill="none" stroke="#a9bbb9" stroke-linecap="round" stroke-linejoin="round" stroke-width="0.05"/>
  </g>
  <defs>
    <linearGradient gradientTransform="matrix(0.0741, 0.0, 0.0, 0.0797, 12.5, -78.6)" gradientUnits="userSpaceOnUse" id="gradient0" spreadMethod="pad" x1="-819.2" x2="819.2">
      <stop offset="0.0" stop-color="#545b53"/>
      <stop offset="1.0" stop-color="#101511"/>
    </linearGradient>
    <linearGradient gradientTransform="matrix(0.0, 0.0087, -0.0741, 0.0, 12.5, -14.65)" gradientUnits="userSpaceOnUse" id="gradient1" spreadMethod="pad" x1="-819.2" x2="819.2">
      <stop offset="0.0" stop-color="#545b53"/>
      <stop offset="1.0" stop-color="#101511"/>
    </linearGradient>
  </defs>
</svg>
