<?xml version="1.0" encoding="UTF-8" standalone="no"?>
<svg xmlns:xlink="http://www.w3.org/1999/xlink" height="59.1px" width="88.05px" xmlns="http://www.w3.org/2000/svg">
  <g transform="matrix(1.0, 0.0, 0.0, 1.0, 64.8, 53.25)">
    <path d="M18.0 3.15 L13.2 3.6 9.25 3.05 8.9 3.4 -7.1 0.55 -8.5 1.05 -10.7 1.15 Q-18.7 1.85 -30.65 3.95 -59.1 6.8 -64.15 3.95 L-56.45 -0.4 Q-62.85 -2.5 -64.15 -6.6 -60.7 -8.7 -56.6 -10.55 -62.3 -14.6 -64.3 -18.65 -61.05 -20.1 -53.8 -21.0 -58.75 -23.25 -62.5 -28.9 L-52.65 -30.65 Q-57.1 -34.0 -58.5 -38.25 L-51.3 -39.0 Q-54.5 -41.1 -55.75 -45.2 -54.5 -45.85 -49.3 -46.6 -50.8 -46.95 -51.6 -52.45 -50.4 -53.5 -40.4 -50.8 -31.0 -24.35 -6.25 -3.5 L-6.1 -3.45 -6.05 -3.85 Q-0.2 -2.5 12.6 -0.95 L12.4 -0.7 Q17.8 -0.25 22.75 -0.5 L21.8 1.1 20.95 1.85 Q19.8 2.7 18.0 3.15 Z" fill="none" stroke="#000000" stroke-linecap="round" stroke-linejoin="round" stroke-width="1.0"/>
  </g>
</svg>
