<?xml version="1.0" encoding="UTF-8" standalone="no"?>
<svg xmlns:xlink="http://www.w3.org/1999/xlink" height="102.85px" width="459.85px" xmlns="http://www.w3.org/2000/svg">
  <g transform="matrix(1.0, 0.0, 0.0, 1.0, 150.05, 28.3)">
    <path d="M71.25 27.25 L55.7 73.55 -57.55 73.55 -73.4 27.25 71.25 27.25" fill="#011d2a" fill-opacity="0.7411765" fill-rule="evenodd" stroke="none"/>
    <path d="M-73.4 27.25 L-132.1 27.25 -149.05 -22.05 151.1 -22.05 298.25 -22.05 298.25 19.3 134.9 19.3 131.8 27.25 71.25 27.25 -73.4 27.25 M134.9 19.3 L151.1 -22.05 134.9 19.3" fill="#041525" fill-opacity="0.6" fill-rule="evenodd" stroke="none"/>
    <path d="M298.15 -27.3 L298.25 -22.05 308.8 -22.05 M-73.4 27.25 L-132.1 27.25 -149.05 -22.05 151.1 -22.05 298.25 -22.05 298.25 19.3 134.9 19.3 131.8 27.25 71.25 27.25 55.7 73.55 -57.55 73.55 -73.4 27.25 71.25 27.25 M151.1 -22.05 L134.9 19.3" fill="none" stroke="#000000" stroke-linecap="round" stroke-linejoin="round" stroke-width="2.0"/>
  </g>
</svg>
