<?xml version="1.0" encoding="UTF-8" standalone="no"?>
<svg xmlns:xlink="http://www.w3.org/1999/xlink" height="681.65px" width="528.55px" xmlns="http://www.w3.org/2000/svg">
  <g transform="matrix(1.0, 0.0, 0.0, 1.0, 266.0, 330.35)">
    <path d="M262.55 -330.35 L262.55 351.3 -266.0 351.3 -266.0 -330.35 262.55 -330.35" fill="url(#gradient0)" fill-rule="evenodd" stroke="none"/>
    <path d="M78.0 -91.2 Q78.6 -96.0 83.9 -99.5 88.95 -102.8 95.75 -103.3 97.1 -106.4 100.8 -108.85 106.8 -112.85 115.2 -112.85 122.9 -112.85 128.55 -109.5 132.65 -110.9 137.55 -110.9 146.0 -110.9 152.0 -106.95 155.0 -104.95 156.45 -102.5 L160.1 -102.75 Q168.5 -102.75 174.5 -98.8 179.8 -95.3 180.4 -90.55 L180.45 -89.25 Q180.45 -83.7 174.5 -79.75 169.3 -76.3 162.2 -75.85 160.75 -73.9 158.25 -72.3 152.3 -68.3 143.8 -68.3 136.45 -68.3 131.05 -71.25 125.95 -68.9 119.4 -68.9 110.95 -68.9 104.95 -72.9 102.4 -74.6 100.9 -76.6 L98.3 -76.5 Q89.85 -76.5 83.9 -80.5 77.95 -84.4 77.95 -90.0 L78.0 -91.2 M-67.9 -70.55 Q-67.35 -72.7 -64.95 -74.45 -65.75 -74.75 -66.45 -77.05 -67.15 -79.45 -61.35 -81.95 -58.15 -83.35 -54.3 -82.45 -53.6 -84.65 -51.4 -86.35 -48.25 -88.75 -43.7 -88.75 -39.8 -88.75 -36.9 -86.95 L-34.5 -88.95 Q-30.0 -91.95 -23.65 -91.95 -17.2 -91.95 -12.7 -88.95 L-9.95 -86.5 Q-7.15 -87.8 -3.7 -87.8 1.2 -87.8 4.7 -85.1 6.35 -83.9 7.25 -82.35 12.05 -83.1 14.15 -81.75 18.6 -78.9 19.05 -76.1 18.5 -74.1 16.45 -72.45 17.05 -71.2 17.05 -69.95 L17.05 -69.7 16.45 -69.2 16.8 -68.3 17.05 -66.65 Q17.05 -62.85 12.35 -60.15 7.8 -57.5 1.4 -57.4 L-0.15 -56.45 Q-4.8 -53.75 -11.35 -53.75 -17.55 -53.75 -22.05 -56.15 L-23.65 -55.1 Q-28.3 -52.4 -34.9 -52.4 -41.45 -52.4 -46.15 -55.1 -49.6 -57.1 -50.5 -59.65 L-52.3 -59.65 Q-58.85 -59.65 -63.5 -62.4 -68.15 -65.05 -68.15 -68.9 L-67.9 -70.55 M236.45 -25.8 L236.55 -24.45 Q236.55 -18.5 230.1 -14.25 223.75 -10.0 214.6 -10.0 L211.85 -10.1 Q210.25 -7.95 207.5 -6.1 201.05 -1.85 192.0 -1.85 184.95 -1.85 179.5 -4.4 173.6 -1.2 165.75 -1.2 156.65 -1.2 150.25 -5.45 147.55 -7.2 146.0 -9.3 138.35 -9.8 132.75 -13.45 126.4 -17.7 126.4 -23.75 L126.45 -25.05 Q127.1 -30.15 132.75 -33.95 139.2 -38.2 148.25 -38.2 L152.15 -37.95 Q153.75 -40.55 157.0 -42.7 163.4 -46.95 172.45 -46.95 177.75 -46.95 182.15 -45.45 188.2 -49.0 196.45 -49.0 205.55 -49.0 211.95 -44.75 215.9 -42.15 217.45 -38.8 224.75 -38.25 230.1 -34.7 235.8 -30.9 236.45 -25.8 M86.95 -1.15 L87.05 0.4 Q87.05 7.5 79.45 12.5 71.9 17.5 61.2 17.5 L57.85 17.35 Q56.0 19.95 52.7 22.1 45.1 27.15 34.4 27.15 26.05 27.15 19.6 24.15 12.65 27.9 3.35 27.9 -7.4 27.9 -14.95 22.9 -18.15 20.85 -19.95 18.35 -29.0 17.8 -35.6 13.4 -43.15 8.4 -43.15 1.3 L-43.05 -0.3 Q-42.35 -6.35 -35.6 -10.8 -28.0 -15.8 -17.3 -15.8 L-12.7 -15.55 Q-10.8 -18.6 -7.0 -21.15 0.6 -26.15 11.35 -26.15 17.55 -26.15 22.75 -24.4 29.9 -28.6 39.7 -28.6 50.4 -28.6 58.0 -23.6 62.7 -20.45 64.45 -16.55 73.1 -15.9 79.45 -11.65 86.15 -7.2 86.95 -1.15 M-206.85 -124.6 Q-206.05 -130.65 -199.35 -135.1 -192.95 -139.35 -184.3 -140.0 -182.55 -143.9 -177.9 -147.05 -170.3 -152.05 -159.55 -152.05 -149.8 -152.05 -142.6 -147.85 -137.4 -149.6 -131.2 -149.6 -120.5 -149.6 -112.9 -144.6 -109.05 -142.05 -107.2 -138.95 L-102.6 -139.25 Q-91.85 -139.25 -84.25 -134.25 -77.55 -129.75 -76.8 -123.75 L-76.7 -122.15 Q-76.7 -115.05 -84.25 -110.0 -90.9 -105.65 -99.9 -105.1 -101.75 -102.6 -104.95 -100.55 -112.5 -95.55 -123.25 -95.55 -132.55 -95.55 -139.5 -99.3 -145.95 -96.3 -154.25 -96.3 -165.0 -96.3 -172.6 -101.3 -175.85 -103.5 -177.75 -106.05 L-181.05 -105.95 Q-191.8 -105.95 -199.35 -110.95 -206.9 -115.95 -206.9 -123.05 L-206.85 -124.6 M-114.6 -22.75 Q-114.3 -21.7 -114.3 -20.6 -114.3 -15.65 -120.3 -12.2 -126.3 -8.7 -134.85 -8.7 L-137.2 -8.7 Q-138.3 -5.35 -142.75 -2.85 -148.85 0.7 -157.35 0.7 -165.85 0.7 -171.9 -2.85 L-173.95 -4.15 Q-179.75 -1.05 -187.75 -1.05 -196.3 -1.05 -202.3 -4.55 L-204.3 -5.8 Q-212.55 -5.9 -218.4 -9.3 -224.5 -12.8 -224.5 -17.75 L-224.2 -19.85 -223.75 -21.05 -224.5 -21.7 -224.5 -22.0 Q-224.5 -23.65 -223.75 -25.25 -226.45 -27.4 -227.1 -30.0 -226.5 -33.6 -220.75 -37.3 -218.1 -39.0 -211.85 -38.1 -210.7 -40.0 -208.55 -41.65 -204.0 -45.1 -197.65 -45.1 -193.2 -45.1 -189.6 -43.45 -188.25 -45.1 -186.05 -46.6 -180.2 -50.45 -171.9 -50.45 -163.65 -50.45 -157.8 -46.6 -155.95 -45.4 -154.7 -44.0 -151.0 -46.3 -145.95 -46.3 -140.1 -46.3 -136.0 -43.25 -133.15 -41.05 -132.2 -38.2 -127.25 -39.35 -123.1 -37.55 -115.6 -34.3 -116.5 -31.25 -117.4 -28.25 -118.45 -27.8 -115.35 -25.55 -114.6 -22.75" fill="#ffffff" fill-opacity="0.7882353" fill-rule="evenodd" stroke="none"/>
  </g>
  <defs>
    <linearGradient gradientTransform="matrix(0.0, 0.3654, -0.3226, 0.0, -1.7, 41.25)" gradientUnits="userSpaceOnUse" id="gradient0" spreadMethod="pad" x1="-819.2" x2="819.2">
      <stop offset="0.027450980392156862" stop-color="#add6e9"/>
      <stop offset="1.0" stop-color="#e7fffa"/>
    </linearGradient>
  </defs>
</svg>
