<?xml version="1.0" encoding="UTF-8" standalone="no"?>
<svg xmlns:xlink="http://www.w3.org/1999/xlink" height="165.1px" width="91.3px" xmlns="http://www.w3.org/2000/svg">
  <g transform="matrix(1.0, 0.0, 0.0, 1.0, 0.0, 0.0)">
    <path d="M42.35 164.9 Q59.15 162.95 71.3 140.9 84.65 116.75 84.65 82.55 84.65 48.35 71.3 24.15 59.15 2.15 42.35 0.15 L45.65 0.0 Q64.6 0.0 77.95 24.15 91.3 48.35 91.3 82.55 91.3 116.75 77.95 140.9 64.6 165.1 45.65 165.1 L42.35 164.9" fill="#fffd8e" fill-rule="evenodd" stroke="none"/>
    <path d="M42.35 0.15 Q59.15 2.15 71.3 24.15 84.65 48.35 84.65 82.55 84.65 116.75 71.3 140.9 59.15 162.95 42.35 164.9 25.55 162.95 13.35 140.9 0.0 116.75 0.0 82.55 0.0 48.35 13.35 24.15 25.55 2.15 42.35 0.15 M39.8 152.5 L41.8 152.65 Q54.2 152.65 62.95 131.95 71.75 111.25 71.75 82.05 71.75 52.85 62.95 32.15 54.2 11.55 41.8 11.55 L39.8 11.65 37.8 11.55 Q25.45 11.55 16.7 32.15 8.0 52.85 8.0 82.05 8.0 111.25 16.7 131.95 25.45 152.65 37.8 152.65 L39.8 152.5" fill="#ffe317" fill-rule="evenodd" stroke="none"/>
    <path d="M39.8 152.5 L37.8 152.65 Q25.45 152.65 16.7 131.95 8.0 111.25 8.0 82.05 8.0 52.85 16.7 32.15 25.45 11.55 37.8 11.55 L39.8 11.65 Q28.75 13.2 20.7 32.15 11.95 52.85 11.95 82.05 11.95 111.25 20.7 131.95 28.75 150.95 39.8 152.5" fill="#af8808" fill-rule="evenodd" stroke="none"/>
    <path d="M42.35 164.9 L45.65 165.1 Q64.6 165.1 77.95 140.9 91.3 116.75 91.3 82.55 91.3 48.35 77.95 24.15 64.6 0.0 45.65 0.0 L42.35 0.15 Q25.55 2.15 13.35 24.15 0.0 48.35 0.0 82.55 0.0 116.75 13.35 140.9 25.55 162.95 42.35 164.9 M39.8 11.65 L41.8 11.55 Q54.2 11.55 62.95 32.15 71.75 52.85 71.75 82.05 71.75 111.25 62.95 131.95 54.2 152.65 41.8 152.65 L39.8 152.5 Q28.75 150.95 20.7 131.95 11.95 111.25 11.95 82.05 11.95 52.85 20.7 32.15 28.75 13.2 39.8 11.65" fill="none" stroke="#000000" stroke-linecap="round" stroke-linejoin="round" stroke-width="0.05"/>
  </g>
</svg>
