<?xml version="1.0" encoding="UTF-8" standalone="no"?>
<svg xmlns:xlink="http://www.w3.org/1999/xlink" height="294.75px" width="568.35px" xmlns="http://www.w3.org/2000/svg">
  <g transform="matrix(1.0, 0.0, 0.0, 1.0, 275.55, 1.2)">
    <path d="M292.8 293.55 L-275.55 293.55 -275.55 23.2 292.8 23.2 292.8 293.55" fill="url(#gradient0)" fill-rule="evenodd" stroke="none"/>
    <path d="M292.8 293.55 L-275.55 293.55 -275.55 23.2 292.8 23.2 292.8 293.55 Z" fill="none" stroke="#000000" stroke-linecap="round" stroke-linejoin="round" stroke-width="0.05"/>
    <path d="M-275.2 3.9 L-275.2 -1.2 292.8 -1.2 292.8 3.9 -275.2 3.9" fill="#a9ff00" fill-rule="evenodd" stroke="none"/>
    <path d="M292.8 3.9 L292.8 18.6 -275.2 18.6 -275.2 8.75 -275.2 3.9 292.8 3.9" fill="#7ebb1b" fill-rule="evenodd" stroke="none"/>
    <path d="M292.8 18.6 L292.8 24.65 -275.2 24.65 -275.2 18.6 292.8 18.6" fill="#2f460a" fill-rule="evenodd" stroke="none"/>
    <path d="M-275.2 3.9 L-275.2 -1.2 292.8 -1.2 292.8 3.9 292.8 18.6 292.8 24.65 -275.2 24.65 -275.2 18.6 -275.55 18.6 M-275.2 18.6 L-275.2 8.75 -275.55 8.75 M-275.2 8.75 L-275.2 3.9 Z" fill="none" stroke="#000000" stroke-linecap="round" stroke-linejoin="round" stroke-width="0.05"/>
  </g>
  <defs>
    <linearGradient gradientTransform="matrix(0.0, 0.1572, -0.3469, 0.0, 8.65, 155.9)" gradientUnits="userSpaceOnUse" id="gradient0" spreadMethod="pad" x1="-819.2" x2="819.2">
      <stop offset="0.0" stop-color="#20160a"/>
      <stop offset="0.11764705882352941" stop-color="#46281a"/>
      <stop offset="1.0" stop-color="#31190d"/>
    </linearGradient>
  </defs>
</svg>
