<?xml version="1.0" encoding="UTF-8" standalone="no"?>
<svg xmlns:xlink="http://www.w3.org/1999/xlink" height="56.2px" width="633.25px" xmlns="http://www.w3.org/2000/svg">
  <g transform="matrix(1.0, 0.0, 0.0, 1.0, 7.25, 28.75)">
    <path d="M214.7 7.1 L214.7 -7.55 211.3 -7.55 Q209.5 -7.55 208.65 -8.4 L208.6 -8.45 Q207.55 -9.35 207.5 -10.9 207.5 -12.5 208.65 -13.4 209.55 -14.25 211.3 -14.25 L225.6 -14.25 Q227.45 -14.25 228.3 -13.35 L228.35 -13.35 Q229.4 -12.35 229.4 -10.9 229.4 -9.3 228.25 -8.4 227.4 -7.55 225.6 -7.55 L222.2 -7.55 222.2 7.1 Q222.2 9.25 221.1 10.2 L221.2 10.15 Q220.15 11.35 218.45 11.35 216.75 11.35 215.75 10.2 L215.7 10.15 Q214.7 9.1 214.7 7.1 M226.55 -2.5 Q227.2 -4.35 228.5 -5.65 L228.55 -5.7 Q229.85 -7.1 231.7 -7.75 233.45 -8.45 235.55 -8.45 237.75 -8.45 239.5 -7.75 241.35 -7.05 242.65 -5.7 L242.7 -5.65 Q243.95 -4.3 244.65 -2.55 L244.7 -2.5 Q245.3 -0.75 245.3 1.45 245.3 3.5 244.7 5.35 L244.65 5.4 Q243.95 7.25 242.65 8.55 L242.6 8.55 Q241.3 9.95 239.5 10.65 237.75 11.35 235.55 11.35 233.4 11.35 231.65 10.6 L231.6 10.6 Q229.85 9.85 228.55 8.55 227.2 7.15 226.55 5.4 225.85 3.6 225.85 1.45 225.85 -0.7 226.55 -2.5 M235.55 -2.4 L234.3 -2.05 234.2 -2.0 233.4 -0.85 233.4 -0.9 Q233.0 0.1 233.0 1.45 233.0 2.7 233.4 3.7 233.7 4.45 234.3 4.9 L235.55 5.25 Q236.7 5.25 237.4 4.45 238.15 3.35 238.15 1.45 238.15 -0.5 237.4 -1.55 236.7 -2.4 235.55 -2.4 M245.4 -4.5 Q245.4 -6.45 246.35 -7.35 L246.4 -7.4 Q247.4 -8.45 248.95 -8.45 250.6 -8.45 251.55 -7.35 L251.5 -7.4 Q252.55 -6.5 252.55 -4.5 L252.55 2.1 252.75 4.2 253.15 4.9 Q253.4 5.1 253.85 5.1 L255.0 4.8 255.05 4.75 255.8 3.8 Q256.0 3.05 256.0 0.5 L256.0 -4.5 Q256.0 -6.5 257.05 -7.4 L257.0 -7.35 Q257.95 -8.45 259.6 -8.45 261.15 -8.45 262.15 -7.4 L262.2 -7.35 Q263.15 -6.45 263.15 -4.5 L263.15 7.45 Q263.15 9.35 262.2 10.3 261.2 11.35 259.7 11.35 258.1 11.35 257.15 10.15 L257.3 10.25 256.95 9.9 Q256.0 10.6 254.85 10.95 L252.2 11.3 Q250.3 11.3 248.85 10.55 247.25 9.65 246.4 8.25 L246.45 8.25 Q245.4 6.65 245.4 3.7 L245.4 -4.5 M281.15 -4.5 L281.8 -2.8 281.8 -10.6 Q281.8 -12.5 282.7 -13.45 283.55 -14.6 285.35 -14.6 286.95 -14.6 287.95 -13.55 L288.05 -13.45 Q288.95 -12.5 288.95 -10.6 L288.95 -7.65 290.2 -8.15 290.25 -8.15 292.55 -8.45 Q294.55 -8.45 296.1 -7.6 L296.05 -7.6 Q297.7 -6.8 298.6 -5.1 L298.65 -5.05 299.35 -2.95 299.5 -0.6 299.5 7.3 Q299.5 9.2 298.6 10.2 297.65 11.35 295.95 11.35 292.4 11.5 292.4 7.3 L292.4 0.35 Q292.4 -1.15 292.0 -1.95 L291.05 -2.3 Q290.45 -2.3 290.0 -1.95 L290.0 -1.9 Q289.45 -1.55 289.15 -0.9 L288.95 1.85 288.95 7.3 Q288.95 9.2 288.05 10.2 L288.0 10.25 Q286.95 11.35 285.35 11.35 281.8 11.5 281.8 7.3 L281.8 6.2 281.45 7.05 279.7 9.2 Q278.5 10.2 276.75 10.75 L276.8 10.75 273.05 11.3 Q268.55 11.3 266.05 8.6 263.45 6.0 263.45 1.6 263.45 -1.3 264.55 -3.55 L264.6 -3.55 Q265.75 -5.9 268.0 -7.25 270.15 -8.5 273.2 -8.5 L276.65 -7.95 276.7 -7.95 279.4 -6.45 281.15 -4.5 M273.15 -2.3 Q272.05 -2.3 271.4 -1.5 270.6 -0.4 270.6 1.5 L270.8 3.3 270.8 3.25 271.4 4.45 271.35 4.4 272.1 5.05 273.2 5.25 274.55 4.9 275.6 3.65 276.65 2.25 276.7 2.2 Q277.55 1.4 278.8 1.4 280.2 1.4 281.15 2.5 L281.2 2.55 281.8 3.5 281.8 -1.55 Q281.65 -0.6 280.85 0.15 L280.8 0.2 Q279.85 1.1 278.45 1.1 277.45 1.1 276.75 0.6 L276.65 0.5 275.65 -0.6 275.65 -0.65 274.4 -2.0 273.15 -2.3 M318.1 -14.6 L322.15 -14.0 Q323.95 -13.45 325.1 -12.4 L325.1 -12.35 Q326.35 -11.3 326.9 -10.15 327.5 -8.95 327.5 -7.7 327.5 -6.35 326.6 -5.25 325.6 -4.1 324.05 -4.1 L324.0 -4.1 325.6 -3.2 325.65 -3.15 Q326.95 -2.2 327.75 -0.75 L328.3 0.75 Q328.4 -1.65 329.35 -3.55 L329.4 -3.55 Q330.55 -5.9 332.8 -7.25 334.95 -8.5 338.0 -8.5 L341.45 -7.95 341.5 -7.95 Q343.05 -7.35 344.2 -6.45 L345.95 -4.5 Q346.7 -3.25 346.65 -2.15 346.65 -0.85 345.65 0.15 L345.6 0.2 Q344.65 1.1 343.25 1.1 342.25 1.1 341.55 0.6 L341.45 0.5 340.45 -0.6 340.45 -0.65 339.2 -2.0 337.95 -2.3 Q336.85 -2.3 336.2 -1.5 335.4 -0.4 335.4 1.5 L335.6 3.3 335.6 3.25 336.2 4.45 336.15 4.4 336.9 5.05 338.0 5.25 339.35 4.9 340.4 3.65 341.45 2.25 341.5 2.2 Q342.35 1.4 343.6 1.4 345.0 1.4 345.95 2.5 L346.0 2.55 Q346.85 3.55 346.85 4.7 346.85 5.85 346.25 7.05 345.7 8.2 344.5 9.2 343.3 10.2 341.55 10.75 L341.6 10.75 337.85 11.3 Q333.35 11.3 330.85 8.6 328.95 6.7 328.45 3.85 328.2 5.7 327.2 7.25 325.95 9.2 323.55 10.3 L323.55 10.25 Q321.3 11.35 318.15 11.35 314.45 11.35 312.0 9.9 310.15 8.8 309.05 7.0 307.8 5.1 307.85 3.3 307.85 1.9 308.9 0.85 L308.85 0.9 Q309.85 -0.2 311.35 -0.2 312.65 -0.2 313.6 0.75 L313.55 0.7 Q314.3 1.3 314.8 2.55 L315.6 4.05 315.6 4.1 316.4 4.7 316.45 4.75 318.05 5.05 Q319.5 5.05 320.4 4.4 321.0 3.95 321.05 3.25 L320.85 2.55 Q320.4 2.1 319.7 1.9 L319.65 1.85 317.0 1.1 Q314.4 0.5 312.7 -0.3 L312.7 -0.25 Q310.65 -1.2 309.55 -2.85 L309.55 -2.75 Q308.25 -4.45 308.25 -6.9 308.25 -9.25 309.55 -11.0 310.75 -12.8 313.1 -13.75 315.25 -14.6 318.1 -14.6 M319.1 -5.65 L321.8 -4.95 320.7 -6.55 320.65 -6.6 319.6 -8.05 317.8 -8.4 Q316.6 -8.4 315.9 -7.9 L315.45 -7.3 315.5 -7.05 316.0 -6.65 317.05 -6.2 319.15 -5.65 319.1 -5.65 M347.35 -4.2 Q347.35 -8.65 350.85 -8.45 352.55 -8.45 353.4 -7.4 L353.45 -7.45 353.45 -7.4 Q354.5 -8.45 356.45 -8.45 358.1 -8.45 359.7 -7.6 L359.75 -7.6 Q361.4 -6.7 361.65 -5.3 L362.0 -5.7 362.05 -5.7 Q363.3 -7.05 365.1 -7.8 366.9 -8.5 369.05 -8.5 371.95 -8.5 373.95 -7.25 L374.0 -7.2 Q376.1 -6.0 377.15 -4.05 L377.15 -4.0 378.1 -1.2 378.45 -2.5 Q379.1 -4.35 380.35 -5.7 L380.4 -5.7 Q381.65 -7.05 383.45 -7.8 385.25 -8.5 387.4 -8.5 390.3 -8.5 392.3 -7.25 L392.35 -7.2 Q394.45 -6.0 395.5 -4.05 L395.5 -4.0 Q396.5 -2.05 396.5 -0.05 396.5 2.35 395.15 3.2 L395.4 3.4 Q396.3 4.1 396.3 5.5 396.35 6.4 395.65 7.6 L394.0 9.4 393.95 9.5 Q392.85 10.25 391.3 10.8 L391.35 10.75 Q389.75 11.35 387.7 11.35 383.05 11.35 380.45 8.6 377.95 6.15 377.8 1.95 L376.8 3.2 377.05 3.4 Q377.95 4.1 377.95 5.5 378.0 6.4 377.3 7.6 L375.65 9.4 375.6 9.5 Q374.5 10.25 372.95 10.8 L373.0 10.75 Q371.4 11.35 369.35 11.35 364.7 11.35 362.1 8.6 359.45 6.0 359.45 1.4 359.45 -0.2 359.8 -1.6 L358.55 -1.35 357.0 -1.7 357.05 -1.7 355.9 -1.9 355.4 -1.8 355.0 -1.05 355.0 -1.0 354.6 0.85 354.5 3.85 354.5 7.3 Q354.5 9.25 353.5 10.25 352.45 11.35 350.9 11.35 349.35 11.35 348.35 10.25 L348.3 10.2 Q347.35 9.2 347.35 7.3 L347.35 -4.2 M370.45 -2.05 Q369.85 -2.65 368.9 -2.65 368.05 -2.65 367.5 -2.05 L367.5 -2.0 367.1 -1.4 370.85 -1.4 370.5 -2.0 370.45 -2.05 M388.8 -2.05 Q388.2 -2.65 387.25 -2.65 386.4 -2.65 385.85 -2.05 L385.85 -2.0 385.45 -1.4 389.2 -1.4 388.85 -2.0 388.8 -2.05 M401.95 -8.0 L403.0 -7.05 403.95 -7.65 403.9 -7.6 Q405.45 -8.45 407.55 -8.45 409.6 -8.45 411.2 -7.55 L411.15 -7.55 Q412.9 -6.65 413.75 -4.9 L413.75 -4.95 Q414.25 -3.95 414.4 -2.75 L414.4 -2.85 414.55 -0.35 414.55 7.3 Q414.55 9.2 413.65 10.2 L413.6 10.25 Q412.55 11.35 411.0 11.35 409.35 11.35 408.4 10.25 L408.35 10.2 Q407.4 9.2 407.4 7.3 L407.4 0.45 Q407.4 -1.15 407.0 -2.0 406.75 -2.3 406.1 -2.3 405.5 -2.3 405.05 -1.9 L404.95 -1.85 Q404.4 -1.45 404.2 -0.8 403.95 -0.05 403.95 2.15 L403.95 7.3 Q403.95 9.2 403.0 10.2 L402.95 10.25 Q402.0 11.35 400.35 11.35 398.8 11.35 397.8 10.25 L397.75 10.2 Q396.8 9.2 396.8 7.3 L396.8 -4.65 Q396.8 -6.5 397.75 -7.4 398.65 -8.45 400.25 -8.45 L402.0 -7.95 401.95 -8.0 M390.2 4.5 L390.8 3.95 385.35 3.95 385.45 4.2 385.45 4.25 386.35 5.25 386.4 5.3 387.6 5.6 388.5 5.5 388.6 5.45 389.3 5.2 390.3 4.45 390.2 4.5 M371.85 4.5 L372.45 3.95 367.0 3.95 367.1 4.2 367.1 4.25 368.0 5.25 368.05 5.3 369.25 5.6 370.15 5.5 370.25 5.45 370.95 5.2 371.95 4.45 371.85 4.5" fill="#151717" fill-rule="evenodd" stroke="none"/>
    <path d="M214.7 7.1 L214.7 -7.55 211.3 -7.55 Q209.5 -7.55 208.65 -8.4 L208.6 -8.45 Q207.55 -9.35 207.5 -10.9 207.5 -12.5 208.65 -13.4 209.55 -14.25 211.3 -14.25 L225.6 -14.25 Q227.45 -14.25 228.3 -13.35 L228.35 -13.35 Q229.4 -12.35 229.4 -10.9 229.4 -9.3 228.25 -8.4 227.4 -7.55 225.6 -7.55 L222.2 -7.55 222.2 7.1 Q222.2 9.25 221.1 10.2 L221.2 10.15 Q220.15 11.35 218.45 11.35 216.75 11.35 215.75 10.2 L215.7 10.15 Q214.7 9.1 214.7 7.1 M226.55 -2.5 Q227.2 -4.35 228.5 -5.65 L228.55 -5.7 Q229.85 -7.1 231.7 -7.75 233.45 -8.45 235.55 -8.45 237.75 -8.45 239.5 -7.75 241.35 -7.05 242.65 -5.7 L242.7 -5.65 Q243.95 -4.3 244.65 -2.55 L244.7 -2.5 Q245.3 -0.75 245.3 1.45 245.3 3.5 244.7 5.35 L244.65 5.4 Q243.95 7.25 242.65 8.55 L242.6 8.55 Q241.3 9.95 239.5 10.65 237.75 11.35 235.55 11.35 233.4 11.35 231.65 10.6 L231.6 10.6 Q229.85 9.85 228.55 8.55 227.2 7.15 226.55 5.4 225.85 3.6 225.85 1.45 225.85 -0.7 226.55 -2.5 M235.55 -2.4 L234.3 -2.05 234.2 -2.0 233.4 -0.85 233.4 -0.9 Q233.0 0.1 233.0 1.45 233.0 2.7 233.4 3.7 233.7 4.45 234.3 4.9 L235.55 5.25 Q236.7 5.25 237.4 4.45 238.15 3.35 238.15 1.45 238.15 -0.5 237.4 -1.55 236.7 -2.4 235.55 -2.4 M245.4 -4.5 Q245.4 -6.45 246.35 -7.35 L246.4 -7.4 Q247.4 -8.45 248.95 -8.45 250.6 -8.45 251.55 -7.35 L251.5 -7.4 Q252.55 -6.5 252.55 -4.5 L252.55 2.1 252.75 4.2 253.15 4.9 Q253.4 5.1 253.85 5.1 L255.0 4.8 255.05 4.75 255.8 3.8 Q256.0 3.05 256.0 0.5 L256.0 -4.5 Q256.0 -6.5 257.05 -7.4 L257.0 -7.35 Q257.95 -8.45 259.6 -8.45 261.15 -8.45 262.15 -7.4 L262.2 -7.35 Q263.15 -6.45 263.15 -4.5 L263.15 7.45 Q263.15 9.35 262.2 10.3 261.2 11.35 259.7 11.35 258.1 11.35 257.15 10.15 L257.3 10.25 256.95 9.9 Q256.0 10.6 254.85 10.95 L252.2 11.3 Q250.3 11.3 248.85 10.55 247.25 9.65 246.4 8.25 L246.45 8.25 Q245.4 6.65 245.4 3.7 L245.4 -4.5 M281.15 -4.5 L281.8 -2.8 281.8 -10.6 Q281.8 -12.5 282.7 -13.45 283.55 -14.6 285.35 -14.6 286.95 -14.6 287.95 -13.55 L288.05 -13.45 Q288.95 -12.5 288.95 -10.6 L288.95 -7.65 290.2 -8.15 290.25 -8.15 292.55 -8.45 Q294.55 -8.45 296.1 -7.6 L296.05 -7.6 Q297.7 -6.8 298.6 -5.1 L298.65 -5.05 299.35 -2.95 299.5 -0.6 299.5 7.3 Q299.5 9.2 298.6 10.2 297.65 11.35 295.95 11.35 292.4 11.5 292.4 7.3 L292.4 0.35 Q292.4 -1.15 292.0 -1.95 L291.05 -2.3 Q290.45 -2.3 290.0 -1.95 L290.0 -1.9 Q289.45 -1.55 289.15 -0.9 L288.95 1.85 288.95 7.3 Q288.95 9.2 288.05 10.2 L288.0 10.25 Q286.95 11.35 285.35 11.35 281.8 11.5 281.8 7.3 L281.8 6.2 281.45 7.05 279.7 9.2 Q278.5 10.2 276.75 10.75 L276.8 10.75 273.05 11.3 Q268.55 11.3 266.05 8.6 263.45 6.0 263.45 1.6 263.45 -1.3 264.55 -3.55 L264.6 -3.55 Q265.75 -5.9 268.0 -7.25 270.15 -8.5 273.2 -8.5 L276.65 -7.95 276.7 -7.95 279.4 -6.45 281.15 -4.5 M273.15 -2.3 Q272.05 -2.3 271.4 -1.5 270.6 -0.4 270.6 1.5 L270.8 3.3 270.8 3.25 271.4 4.45 271.35 4.4 272.1 5.05 273.2 5.25 274.55 4.9 275.6 3.65 276.65 2.25 276.7 2.2 Q277.55 1.4 278.8 1.4 280.2 1.4 281.15 2.5 L281.2 2.55 281.8 3.5 281.8 -1.55 Q281.65 -0.6 280.85 0.15 L280.8 0.2 Q279.85 1.1 278.45 1.1 277.45 1.1 276.75 0.6 L276.65 0.5 275.65 -0.6 275.65 -0.65 274.4 -2.0 273.15 -2.3 M318.1 -14.6 L322.15 -14.0 Q323.95 -13.45 325.1 -12.4 L325.1 -12.35 Q326.35 -11.3 326.9 -10.15 327.5 -8.95 327.5 -7.7 327.5 -6.35 326.6 -5.25 325.6 -4.1 324.05 -4.1 L324.0 -4.1 325.6 -3.2 325.65 -3.15 Q326.95 -2.2 327.75 -0.75 L328.3 0.75 Q328.4 -1.65 329.35 -3.55 L329.4 -3.55 Q330.55 -5.9 332.8 -7.25 334.95 -8.5 338.0 -8.5 L341.45 -7.95 341.5 -7.95 Q343.05 -7.35 344.2 -6.45 L345.95 -4.5 Q346.7 -3.25 346.65 -2.15 346.65 -0.85 345.65 0.15 L345.6 0.2 Q344.65 1.1 343.25 1.1 342.25 1.1 341.55 0.6 L341.45 0.5 340.45 -0.6 340.45 -0.65 339.2 -2.0 337.95 -2.3 Q336.85 -2.3 336.2 -1.5 335.4 -0.4 335.4 1.5 L335.6 3.3 335.6 3.25 336.2 4.45 336.15 4.4 336.9 5.05 338.0 5.25 339.35 4.9 340.4 3.65 341.45 2.25 341.5 2.2 Q342.35 1.4 343.6 1.4 345.0 1.4 345.95 2.5 L346.0 2.55 Q346.85 3.55 346.85 4.7 346.85 5.85 346.25 7.05 345.7 8.2 344.5 9.2 343.3 10.2 341.55 10.75 L341.6 10.75 337.85 11.3 Q333.35 11.3 330.85 8.6 328.95 6.7 328.45 3.85 328.2 5.7 327.2 7.25 325.95 9.2 323.55 10.3 L323.55 10.25 Q321.3 11.35 318.15 11.35 314.45 11.35 312.0 9.9 310.15 8.8 309.05 7.0 307.8 5.1 307.85 3.3 307.85 1.9 308.9 0.85 L308.85 0.9 Q309.85 -0.2 311.35 -0.2 312.65 -0.2 313.6 0.75 L313.55 0.7 Q314.3 1.3 314.8 2.55 L315.6 4.05 315.6 4.1 316.4 4.7 316.45 4.75 318.05 5.05 Q319.5 5.05 320.4 4.4 321.0 3.95 321.05 3.25 L320.85 2.55 Q320.4 2.1 319.7 1.9 L319.65 1.85 317.0 1.1 Q314.4 0.5 312.7 -0.3 L312.7 -0.25 Q310.65 -1.2 309.55 -2.85 L309.55 -2.75 Q308.25 -4.45 308.25 -6.9 308.25 -9.25 309.55 -11.0 310.75 -12.8 313.1 -13.75 315.25 -14.6 318.1 -14.6 M319.1 -5.65 L321.8 -4.95 320.7 -6.55 320.65 -6.6 319.6 -8.05 317.8 -8.4 Q316.6 -8.4 315.9 -7.9 L315.45 -7.3 315.5 -7.05 316.0 -6.65 317.05 -6.2 319.15 -5.65 319.1 -5.65 M347.35 -4.2 Q347.35 -8.65 350.85 -8.45 352.55 -8.45 353.4 -7.4 L353.45 -7.45 353.45 -7.4 Q354.5 -8.45 356.45 -8.45 358.1 -8.45 359.7 -7.6 L359.75 -7.6 Q361.4 -6.7 361.65 -5.3 L362.0 -5.7 362.05 -5.7 Q363.3 -7.05 365.1 -7.8 366.9 -8.5 369.05 -8.5 371.95 -8.5 373.95 -7.25 L374.0 -7.2 Q376.1 -6.0 377.15 -4.05 L377.15 -4.0 378.1 -1.2 378.45 -2.5 Q379.1 -4.35 380.35 -5.7 L380.4 -5.7 Q381.65 -7.05 383.45 -7.8 385.25 -8.5 387.4 -8.5 390.3 -8.5 392.3 -7.25 L392.35 -7.2 Q394.45 -6.0 395.5 -4.05 L395.5 -4.0 Q396.5 -2.05 396.5 -0.05 396.5 2.35 395.15 3.2 L395.4 3.4 Q396.3 4.1 396.3 5.5 396.35 6.4 395.65 7.6 L394.0 9.4 393.95 9.5 Q392.85 10.25 391.3 10.8 L391.35 10.75 Q389.75 11.35 387.7 11.35 383.05 11.35 380.45 8.6 377.95 6.15 377.8 1.95 L376.8 3.2 377.05 3.4 Q377.95 4.1 377.95 5.5 378.0 6.4 377.3 7.6 L375.65 9.4 375.6 9.5 Q374.5 10.25 372.95 10.8 L373.0 10.75 Q371.4 11.35 369.35 11.35 364.7 11.35 362.1 8.6 359.45 6.0 359.45 1.4 359.45 -0.2 359.8 -1.6 L358.55 -1.35 357.0 -1.7 357.05 -1.7 355.9 -1.9 355.4 -1.8 355.0 -1.05 355.0 -1.0 354.6 0.85 354.5 3.85 354.5 7.3 Q354.5 9.25 353.5 10.25 352.45 11.35 350.9 11.35 349.35 11.35 348.35 10.25 L348.3 10.2 Q347.35 9.2 347.35 7.3 L347.35 -4.2 M370.45 -2.05 Q369.85 -2.65 368.9 -2.65 368.05 -2.65 367.5 -2.05 L367.5 -2.0 367.1 -1.4 370.85 -1.4 370.5 -2.0 370.45 -2.05 M388.8 -2.05 Q388.2 -2.65 387.25 -2.65 386.4 -2.65 385.85 -2.05 L385.85 -2.0 385.45 -1.4 389.2 -1.4 388.85 -2.0 388.8 -2.05 M401.95 -8.0 L403.0 -7.05 403.95 -7.65 403.9 -7.6 Q405.45 -8.45 407.55 -8.45 409.6 -8.45 411.2 -7.55 L411.15 -7.55 Q412.9 -6.65 413.75 -4.9 L413.75 -4.95 Q414.25 -3.95 414.4 -2.75 L414.4 -2.85 414.55 -0.35 414.55 7.3 Q414.55 9.2 413.65 10.2 L413.6 10.25 Q412.55 11.35 411.0 11.35 409.35 11.35 408.4 10.25 L408.35 10.2 Q407.4 9.2 407.4 7.3 L407.4 0.45 Q407.4 -1.15 407.0 -2.0 406.75 -2.3 406.1 -2.3 405.5 -2.3 405.05 -1.9 L404.95 -1.85 Q404.4 -1.45 404.2 -0.8 403.95 -0.05 403.95 2.15 L403.95 7.3 Q403.95 9.2 403.0 10.2 L402.95 10.25 Q402.0 11.35 400.35 11.35 398.8 11.35 397.8 10.25 L397.75 10.2 Q396.8 9.2 396.8 7.3 L396.8 -4.65 Q396.8 -6.5 397.75 -7.4 398.65 -8.45 400.25 -8.45 L402.0 -7.95 401.95 -8.0 M390.2 4.5 L390.8 3.95 385.35 3.95 385.45 4.2 385.45 4.25 386.35 5.25 386.4 5.3 387.6 5.6 388.5 5.5 388.6 5.45 389.3 5.2 390.3 4.45 390.2 4.5 M371.85 4.5 L372.45 3.95 367.0 3.95 367.1 4.2 367.1 4.25 368.0 5.25 368.05 5.3 369.25 5.6 370.15 5.5 370.25 5.45 370.95 5.2 371.95 4.45 371.85 4.5" fill="none" stroke="#000000" stroke-linecap="round" stroke-linejoin="round" stroke-width="0.05"/>
    <path d="M225.6 -9.45 L220.7 -9.45 220.7 6.7 Q220.7 8.1 220.05 8.75 219.45 9.45 218.45 9.45 217.45 9.45 216.85 8.75 216.2 8.05 216.2 6.7 L216.2 -9.45 211.3 -9.45 Q210.15 -9.45 209.6 -9.95 209.0 -10.45 209.0 -11.3 209.0 -12.15 209.6 -12.65 210.2 -13.15 211.3 -13.15 L225.6 -13.15 Q226.75 -13.15 227.3 -12.65 227.9 -12.1 227.9 -11.3 227.9 -10.45 227.3 -9.95 226.75 -9.45 225.6 -9.45 M243.8 1.05 Q243.8 2.85 243.25 4.45 242.65 6.0 241.55 7.1 240.45 8.25 238.95 8.85 237.45 9.45 235.55 9.45 233.7 9.45 232.2 8.8 L229.6 7.1 Q228.5 5.95 227.95 4.45 227.35 2.9 227.35 1.05 227.35 -0.85 227.95 -2.4 228.5 -3.95 229.6 -5.05 230.65 -6.2 232.2 -6.75 233.7 -7.35 235.55 -7.35 237.45 -7.35 238.95 -6.75 L241.6 -5.05 243.25 -2.4 Q243.8 -0.85 243.8 1.05 M239.65 1.05 Q239.65 -1.5 238.55 -2.9 237.45 -4.3 235.55 -4.3 234.35 -4.3 233.4 -3.7 232.5 -3.05 232.0 -1.85 231.5 -0.6 231.5 1.05 231.5 2.65 232.0 3.85 232.5 5.05 233.4 5.7 234.3 6.35 235.55 6.35 237.45 6.35 238.55 4.95 239.65 3.55 239.65 1.05 M257.75 7.1 L257.75 6.55 256.2 8.15 Q255.4 8.8 254.4 9.1 L252.2 9.4 Q250.7 9.4 249.55 8.8 248.35 8.15 247.7 7.05 246.9 5.75 246.9 3.3 L246.9 -4.9 Q246.9 -6.15 247.45 -6.75 248.05 -7.35 248.95 -7.35 249.9 -7.35 250.45 -6.75 251.05 -6.15 251.05 -4.9 L251.05 1.7 Q251.05 3.15 251.3 4.15 251.55 5.1 252.15 5.65 252.8 6.2 253.85 6.2 254.9 6.2 255.85 5.6 256.75 4.95 257.2 3.95 257.5 3.1 257.5 0.1 L257.5 -4.9 Q257.5 -6.15 258.1 -6.75 258.65 -7.35 259.6 -7.35 260.5 -7.35 261.1 -6.75 261.65 -6.15 261.65 -4.9 L261.65 7.05 Q261.65 8.25 261.1 8.85 260.55 9.45 259.7 9.45 258.85 9.45 258.35 8.8 257.75 8.2 257.75 7.1 M280.55 4.3 L280.1 5.95 278.7 7.65 Q277.75 8.45 276.3 8.9 L273.05 9.4 Q269.25 9.4 267.1 7.15 264.95 4.95 264.95 1.2 264.95 -1.35 265.9 -3.3 266.9 -5.25 268.75 -6.35 270.6 -7.4 273.2 -7.4 L276.15 -6.95 Q277.5 -6.45 278.45 -5.7 L279.85 -4.15 Q280.35 -3.3 280.35 -2.55 280.35 -1.85 279.8 -1.3 279.25 -0.8 278.45 -0.8 277.95 -0.8 277.6 -1.05 L276.85 -1.9 275.25 -3.65 Q274.4 -4.2 273.15 -4.2 271.3 -4.2 270.2 -2.8 269.1 -1.35 269.1 1.1 269.1 2.3 269.35 3.25 269.65 4.25 270.2 4.95 L271.5 6.0 273.2 6.35 Q274.45 6.35 275.35 5.75 L276.9 4.0 277.7 2.9 Q278.15 2.5 278.8 2.5 279.55 2.5 280.05 3.1 280.55 3.65 280.55 4.3 M287.45 -11.0 L287.45 -4.9 288.95 -6.3 Q289.7 -6.85 290.6 -7.1 L292.55 -7.35 Q294.15 -7.35 295.35 -6.7 296.6 -6.05 297.3 -4.75 L297.85 -3.1 298.0 -1.0 298.0 6.9 Q298.0 8.15 297.45 8.8 296.9 9.45 295.95 9.45 293.9 9.45 293.9 6.9 L293.9 -0.05 Q293.9 -2.05 293.3 -3.1 292.7 -4.2 291.05 -4.2 289.95 -4.2 289.1 -3.55 288.2 -2.9 287.75 -1.85 287.45 -0.9 287.45 1.45 L287.45 6.9 Q287.45 8.15 286.9 8.8 286.3 9.45 285.35 9.45 283.3 9.45 283.3 6.9 L283.3 -11.0 Q283.3 -12.25 283.85 -12.9 284.35 -13.5 285.35 -13.5 286.3 -13.5 286.9 -12.9 287.45 -12.25 287.45 -11.0 M327.0 2.4 Q327.0 4.4 325.95 6.0 324.9 7.6 322.9 8.5 320.9 9.45 318.15 9.45 314.9 9.45 312.75 8.2 311.25 7.3 310.3 5.8 309.35 4.3 309.35 2.9 309.35 2.1 309.95 1.5 310.5 0.9 311.35 0.9 312.05 0.9 312.55 1.4 L313.4 2.7 314.35 4.5 Q314.8 5.2 315.7 5.65 316.6 6.15 318.05 6.15 320.05 6.15 321.3 5.2 322.55 4.25 322.55 2.85 322.55 1.75 321.9 1.1 321.2 0.4 320.15 0.05 L317.3 -0.75 Q314.9 -1.3 313.3 -2.05 311.65 -2.8 310.75 -4.1 309.75 -5.4 309.75 -7.3 309.75 -9.15 310.75 -10.55 311.75 -12.0 313.65 -12.75 315.55 -13.5 318.1 -13.5 L321.65 -13.0 Q323.15 -12.5 324.1 -11.65 L325.55 -9.9 326.0 -8.1 Q326.0 -7.3 325.45 -6.65 324.9 -6.0 324.05 -6.0 323.25 -6.0 322.85 -6.4 322.45 -6.8 322.0 -7.65 321.4 -8.9 320.55 -9.6 319.7 -10.3 317.8 -10.3 316.05 -10.3 315.0 -9.55 313.95 -8.8 313.95 -7.7 313.95 -7.05 314.3 -6.55 314.65 -6.1 315.3 -5.75 315.95 -5.4 316.6 -5.2 L318.75 -4.6 322.15 -3.65 Q323.65 -3.1 324.75 -2.35 325.8 -1.6 326.4 -0.45 327.0 0.7 327.0 2.4 M345.35 4.3 L344.9 5.95 343.5 7.65 Q342.55 8.45 341.1 8.9 L337.85 9.4 Q334.05 9.4 331.9 7.15 329.75 4.95 329.75 1.2 329.75 -1.35 330.7 -3.3 331.7 -5.25 333.55 -6.35 335.4 -7.4 338.0 -7.4 L340.95 -6.95 Q342.3 -6.45 343.25 -5.7 L344.65 -4.15 345.15 -2.55 Q345.15 -1.85 344.6 -1.3 344.05 -0.8 343.25 -0.8 342.75 -0.8 342.4 -1.05 L341.65 -1.9 340.05 -3.65 Q339.2 -4.2 337.95 -4.2 336.1 -4.2 335.0 -2.8 333.9 -1.35 333.9 1.1 333.9 2.3 334.15 3.25 334.45 4.25 335.0 4.95 L336.3 6.0 338.0 6.35 Q339.25 6.35 340.15 5.75 L341.7 4.0 342.5 2.9 Q342.95 2.5 343.6 2.5 344.35 2.5 344.85 3.1 345.35 3.65 345.35 4.3 M353.0 3.45 L353.0 6.9 Q353.0 8.15 352.4 8.8 351.8 9.45 350.9 9.45 350.0 9.45 349.45 8.8 348.85 8.15 348.85 6.9 L348.85 -4.6 Q348.85 -7.35 350.85 -7.35 351.9 -7.35 352.35 -6.7 352.8 -6.05 352.85 -4.8 L354.4 -6.7 Q355.15 -7.35 356.45 -7.35 357.75 -7.35 359.0 -6.7 360.2 -6.05 360.2 -5.0 360.2 -4.25 359.7 -3.75 359.15 -3.25 358.55 -3.25 L357.45 -3.55 355.9 -3.8 Q355.0 -3.8 354.45 -3.35 353.85 -2.85 353.55 -1.9 353.25 -1.0 353.1 0.3 L353.0 3.45 M373.25 2.05 L365.2 2.05 Q365.2 3.45 365.75 4.5 366.3 5.6 367.25 6.15 368.15 6.7 369.25 6.7 L370.6 6.5 371.8 6.0 372.85 5.2 374.1 4.0 375.0 3.75 Q375.65 3.75 376.05 4.1 376.45 4.45 376.45 5.1 L376.0 6.4 374.7 7.85 372.45 8.95 369.35 9.45 Q365.4 9.45 363.15 7.15 360.95 4.9 360.95 1.0 360.95 -0.85 361.5 -2.4 362.05 -3.95 363.1 -5.1 364.15 -6.2 365.65 -6.8 367.2 -7.4 369.05 -7.4 371.5 -7.4 373.2 -6.35 374.95 -5.35 375.8 -3.75 376.65 -2.1 376.65 -0.45 376.65 1.1 375.8 1.6 L373.25 2.05 M365.2 -0.3 L372.7 -0.3 Q372.55 -2.4 371.55 -3.45 370.55 -4.55 368.9 -4.55 367.4 -4.55 366.4 -3.45 365.4 -2.4 365.2 -0.3 M391.6 2.05 L383.55 2.05 Q383.55 3.45 384.1 4.5 384.65 5.6 385.6 6.15 386.5 6.7 387.6 6.7 L388.95 6.5 Q389.55 6.35 390.15 6.0 L391.2 5.2 392.45 4.0 Q392.75 3.75 393.35 3.75 394.0 3.75 394.4 4.1 394.8 4.45 394.8 5.1 L394.35 6.4 393.05 7.85 Q392.15 8.5 390.8 8.95 L387.7 9.45 Q383.75 9.45 381.5 7.15 379.3 4.9 379.3 1.0 379.3 -0.85 379.85 -2.4 380.4 -3.95 381.45 -5.1 382.5 -6.2 384.0 -6.8 L387.4 -7.4 Q389.85 -7.4 391.55 -6.35 393.3 -5.35 394.15 -3.75 395.0 -2.1 395.0 -0.45 395.0 1.1 394.15 1.6 L391.6 2.05 M383.55 -0.3 L391.05 -0.3 Q390.9 -2.4 389.9 -3.45 388.9 -4.55 387.25 -4.55 385.75 -4.55 384.75 -3.45 383.75 -2.4 383.55 -0.3 M402.2 -5.1 L402.2 -4.6 Q403.3 -6.05 404.6 -6.7 405.85 -7.35 407.55 -7.35 409.2 -7.35 410.45 -6.65 411.75 -5.95 412.4 -4.65 L412.9 -3.0 413.05 -0.75 413.05 6.9 Q413.05 8.15 412.5 8.8 411.9 9.45 411.0 9.45 410.05 9.45 409.5 8.8 408.9 8.15 408.9 6.9 L408.9 0.05 Q408.9 -2.0 408.35 -3.1 407.8 -4.2 406.1 -4.2 405.0 -4.2 404.1 -3.5 403.15 -2.85 402.75 -1.7 402.45 -0.8 402.45 1.75 L402.45 6.9 Q402.45 8.15 401.85 8.8 401.3 9.45 400.35 9.45 399.45 9.45 398.9 8.8 398.3 8.15 398.3 6.9 L398.3 -5.05 Q398.3 -6.2 398.85 -6.8 399.35 -7.35 400.25 -7.35 L401.2 -7.1 401.95 -6.35 402.2 -5.1" fill="#e7fffa" fill-rule="evenodd" stroke="none"/>
    <path d="M-0.75 20.95 L619.5 19.75 M-0.35 -21.1 L619.1 -22.25" fill="none" stroke="#ffffff" stroke-linecap="round" stroke-linejoin="round" stroke-opacity="0.6117647" stroke-width="1.0"/>
  </g>
</svg>
