<?xml version="1.0" encoding="UTF-8" standalone="no"?>
<svg xmlns:xlink="http://www.w3.org/1999/xlink" height="217.65px" width="156.4px" xmlns="http://www.w3.org/2000/svg">
  <g transform="matrix(1.0, 0.0, 0.0, 1.0, 69.7, 108.8)">
    <path d="M69.1 -108.8 Q86.7 -108.8 86.7 -91.2 L86.7 91.25 Q86.7 108.85 69.1 108.85 L-52.1 108.85 Q-69.7 108.85 -69.7 91.25 L-69.7 -91.2 Q-69.7 -108.8 -52.1 -108.8 L69.1 -108.8" fill="url(#gradient0)" fill-rule="evenodd" stroke="none"/>
    <path d="M69.1 -108.8 L-52.1 -108.8 Q-69.7 -108.8 -69.7 -91.2 L-69.7 91.25 Q-69.7 108.85 -52.1 108.85 L69.1 108.85 Q86.7 108.85 86.7 91.25 L86.7 -91.2 Q86.7 -108.8 69.1 -108.8 Z" fill="none" stroke="#000000" stroke-linecap="round" stroke-linejoin="round" stroke-width="0.05"/>
    <path d="M69.1 -108.8 Q86.7 -108.8 86.7 -91.2 L86.7 91.25 Q86.7 108.85 69.1 108.85 L-52.1 108.85 Q-69.7 108.85 -69.7 91.25 L-69.7 -91.2 Q-69.7 -108.8 -52.1 -108.8 L69.1 -108.8 M80.7 -91.2 Q80.7 -102.8 69.1 -102.8 L-52.1 -102.8 Q-63.7 -102.8 -63.7 -91.2 L-63.7 91.25 Q-63.7 102.85 -52.1 102.85 L69.1 102.85 Q80.7 102.85 80.7 91.25 L80.7 -91.2" fill="url(#gradient1)" fill-rule="evenodd" stroke="none"/>
    <path d="M69.1 -108.8 L-52.1 -108.8 Q-69.7 -108.8 -69.7 -91.2 L-69.7 91.25 Q-69.7 108.85 -52.1 108.85 L69.1 108.85 Q86.7 108.85 86.7 91.25 L86.7 -91.2 Q86.7 -108.8 69.1 -108.8 Z" fill="none" stroke="#000000" stroke-linecap="round" stroke-linejoin="round" stroke-width="0.05"/>
    <path d="M69.1 -108.8 Q86.7 -108.8 86.7 -91.2 L86.7 91.25 Q86.7 108.85 69.1 108.85 L-52.1 108.85 Q-69.7 108.85 -69.7 91.25 L-69.7 -91.2 Q-69.7 -108.8 -52.1 -108.8 L69.1 -108.8" fill="url(#gradient2)" fill-rule="evenodd" stroke="none"/>
    <path d="M16.35 -12.65 L16.35 -12.7 16.55 -12.7 16.35 -12.65 M16.55 52.25 L16.35 52.3 16.35 52.25 16.55 52.25" fill="#bbffb1" fill-rule="evenodd" stroke="none"/>
    <path d="M17.7 -8.15 L16.85 -8.2 16.35 -8.15 16.35 -12.65 16.55 -12.7 Q23.95 -11.9 29.35 -3.25 35.25 6.3 35.25 19.8 35.25 33.25 29.35 42.8 23.95 51.5 16.55 52.25 L16.35 52.25 16.35 47.45 16.85 47.45 17.7 47.35 18.6 47.45 Q24.0 47.45 27.9 39.25 31.7 31.1 31.7 19.6 31.7 8.05 27.9 -0.1 24.0 -8.2 18.6 -8.2 L17.7 -8.15" fill="#ffef0e" fill-rule="evenodd" stroke="none"/>
    <path d="M17.7 47.35 Q22.55 46.75 26.15 39.25 29.95 31.1 29.95 19.6 29.95 8.05 26.15 -0.1 22.55 -7.55 17.7 -8.15 L18.6 -8.2 Q24.0 -8.2 27.9 -0.1 31.7 8.05 31.7 19.6 31.7 31.1 27.9 39.25 24.0 47.45 18.6 47.45 L17.7 47.35" fill="#a66f06" fill-rule="evenodd" stroke="none"/>
    <path d="M17.7 -8.15 L16.85 -8.2 16.35 -8.15 M16.35 -12.7 L16.55 -12.7 Q23.95 -11.9 29.35 -3.25 35.25 6.3 35.25 19.8 35.25 33.25 29.35 42.8 23.95 51.5 16.55 52.25 L16.35 52.3 M16.35 47.45 L16.85 47.45 17.7 47.35 Q22.55 46.75 26.15 39.25 29.95 31.1 29.95 19.6 29.95 8.05 26.15 -0.1 22.55 -7.55 17.7 -8.15 Z" fill="none" stroke="#000000" stroke-linecap="round" stroke-linejoin="round" stroke-width="0.05"/>
    <path d="M38.5 4.8 L54.9 24.15 31.8 30.65 34.2 21.45 Q25.25 18.3 5.15 21.95 -15.0 25.6 -41.55 35.7 -25.35 18.7 13.8 12.1 20.25 11.0 36.4 13.6 L38.5 4.8" fill="#fcffc9" fill-rule="evenodd" stroke="none"/>
    <path d="M38.5 4.8 L54.9 24.15 31.8 30.65 34.2 21.45 Q25.25 18.3 5.15 21.95 -15.0 25.6 -41.55 35.7 -25.35 18.7 13.8 12.1 20.25 11.0 36.4 13.6 L38.5 4.8 Z" fill="none" stroke="#4a1400" stroke-linecap="round" stroke-linejoin="round" stroke-width="2.0"/>
  </g>
  <defs>
    <linearGradient gradientTransform="matrix(0.0, -0.1209, 0.0955, 0.0, 8.5, 12.35)" gradientUnits="userSpaceOnUse" id="gradient0" spreadMethod="pad" x1="-819.2" x2="819.2">
      <stop offset="0.17254901960784313" stop-color="#271b00"/>
      <stop offset="1.0" stop-color="#e6ff09" stop-opacity="0.9098039"/>
    </linearGradient>
    <linearGradient gradientTransform="matrix(0.0, -0.1318, 0.0955, 0.0, 8.5, 2.55)" gradientUnits="userSpaceOnUse" id="gradient1" spreadMethod="pad" x1="-819.2" x2="819.2">
      <stop offset="0.0392156862745098" stop-color="#000000" stop-opacity="0.5686275"/>
      <stop offset="0.5176470588235295" stop-color="#353805" stop-opacity="0.64705884"/>
      <stop offset="1.0" stop-color="#fff3bb" stop-opacity="0.7372549"/>
    </linearGradient>
    <linearGradient gradientTransform="matrix(-0.0119, -0.0265, 0.1235, -0.0552, -29.35, -84.6)" gradientUnits="userSpaceOnUse" id="gradient2" spreadMethod="pad" x1="-819.2" x2="819.2">
      <stop offset="0.17254901960784313" stop-color="#ffffff" stop-opacity="0.0"/>
      <stop offset="1.0" stop-color="#ffffff" stop-opacity="0.6666667"/>
    </linearGradient>
  </defs>
</svg>
