<?xml version="1.0" encoding="UTF-8" standalone="no"?>
<svg xmlns:xlink="http://www.w3.org/1999/xlink" height="49.25px" width="30.45px" xmlns="http://www.w3.org/2000/svg">
  <g transform="matrix(1.0, 0.0, 0.0, 1.0, 15.2, 24.65)">
    <path d="M1.1 24.55 L0.0 24.6 Q-6.3 24.6 -10.75 17.4 -15.2 10.15 -15.2 0.0 -15.2 -10.25 -10.75 -17.45 -6.3 -24.65 0.0 -24.65 L1.1 -24.6 Q-4.45 -24.0 -8.55 -17.45 -13.0 -10.25 -13.0 0.0 -13.0 10.15 -8.55 17.4 -4.45 23.95 1.1 24.55" fill="#b4b4b4" fill-opacity="0.8784314" fill-rule="evenodd" stroke="none"/>
    <path d="M1.1 24.55 Q-4.45 23.95 -8.55 17.4 -13.0 10.15 -13.0 0.0 -13.0 -10.25 -8.55 -17.45 -4.45 -24.0 1.1 -24.6 6.7 -24.0 10.8 -17.45 15.25 -10.25 15.25 0.0 15.25 10.15 10.8 17.4 6.7 23.95 1.1 24.55 M2.0 20.8 L2.65 20.9 Q6.75 20.9 9.7 14.7 12.6 8.55 12.6 -0.15 12.6 -8.9 9.7 -15.1 6.75 -21.2 2.65 -21.2 L2.0 -21.15 1.35 -21.2 Q-2.8 -21.2 -5.75 -15.1 -8.7 -8.9 -8.7 -0.15 -8.7 8.55 -5.75 14.7 -2.8 20.9 1.35 20.9 L2.0 20.8" fill="#8c8c8c" fill-opacity="0.8784314" fill-rule="evenodd" stroke="none"/>
    <path d="M2.0 -21.15 L2.65 -21.2 Q6.75 -21.2 9.7 -15.1 12.6 -8.9 12.6 -0.15 12.6 8.55 9.7 14.7 6.75 20.9 2.65 20.9 L2.0 20.8 Q5.65 20.35 8.4 14.7 11.25 8.55 11.25 -0.15 11.25 -8.9 8.4 -15.1 5.65 -20.7 2.0 -21.15" fill="#3f3f3f" fill-opacity="0.8784314" fill-rule="evenodd" stroke="none"/>
    <path d="M1.1 -24.6 L0.0 -24.65 Q-6.3 -24.65 -10.75 -17.45 -15.2 -10.25 -15.2 0.0 -15.2 10.15 -10.75 17.4 -6.3 24.6 0.0 24.6 L1.1 24.55 Q6.7 23.95 10.8 17.4 15.25 10.15 15.25 0.0 15.25 -10.25 10.8 -17.45 6.7 -24.0 1.1 -24.6 M2.0 -21.15 Q5.65 -20.7 8.4 -15.1 11.25 -8.9 11.25 -0.15 11.25 8.55 8.4 14.7 5.65 20.35 2.0 20.8 L1.35 20.9 Q-2.8 20.9 -5.75 14.7 -8.7 8.55 -8.7 -0.15 -8.7 -8.9 -5.75 -15.1 -2.8 -21.2 1.35 -21.2 L2.0 -21.15" fill="none" stroke="#000000" stroke-linecap="round" stroke-linejoin="round" stroke-opacity="0.41960785" stroke-width="0.05"/>
  </g>
</svg>
