<?xml version="1.0" encoding="UTF-8" standalone="no"?>
<svg xmlns:xlink="http://www.w3.org/1999/xlink" height="65.1px" width="21.35px" xmlns="http://www.w3.org/2000/svg">
  <g transform="matrix(1.0, 0.0, 0.0, 1.0, 5.0, 12.75)">
    <path d="M16.35 52.25 L13.8 51.7 Q8.15 49.85 3.8 42.8 -2.1 33.25 -2.1 19.8 -2.1 6.3 3.8 -3.25 8.15 -10.25 13.8 -12.1 L16.35 -12.65 16.35 -8.15 Q15.05 -8.1 13.8 -7.5 10.25 -5.85 7.5 -0.1 3.6 8.05 3.6 19.6 3.6 31.1 7.5 39.25 10.25 45.05 13.8 46.75 L16.35 47.45 16.35 52.25" fill="#ffef0e" fill-rule="evenodd" stroke="none"/>
    <path d="M16.35 52.3 L15.1 52.35 13.8 52.3 Q6.3 51.6 0.85 42.8 -5.0 33.25 -5.0 19.8 -5.0 6.3 0.85 -3.25 6.3 -12.0 13.8 -12.7 L15.1 -12.75 16.35 -12.7 16.35 -12.65 13.8 -12.1 Q8.15 -10.25 3.8 -3.25 -2.1 6.3 -2.1 19.8 -2.1 33.25 3.8 42.8 8.15 49.85 13.8 51.7 L16.35 52.25 16.35 52.3" fill="#fff6bb" fill-rule="evenodd" stroke="none"/>
    <path d="M16.35 -12.7 L15.1 -12.75 13.8 -12.7 Q6.3 -12.0 0.85 -3.25 -5.0 6.3 -5.0 19.8 -5.0 33.25 0.85 42.8 6.3 51.6 13.8 52.3 L15.1 52.35 16.35 52.3 M16.35 -8.15 Q15.05 -8.1 13.8 -7.5 10.25 -5.85 7.5 -0.1 3.6 8.05 3.6 19.6 3.6 31.1 7.5 39.25 10.25 45.05 13.8 46.75 L16.35 47.45" fill="none" stroke="#000000" stroke-linecap="round" stroke-linejoin="round" stroke-width="0.05"/>
  </g>
</svg>
