<?xml version="1.0" encoding="UTF-8" standalone="no"?>
<svg xmlns:xlink="http://www.w3.org/1999/xlink" height="211.25px" width="152.4px" xmlns="http://www.w3.org/2000/svg">
  <g transform="matrix(1.0, 0.0, 0.0, 1.0, 67.7, 105.6)">
    <path d="M66.75 -104.6 Q83.7 -104.6 83.7 -87.7 L83.7 87.75 Q83.7 104.65 66.75 104.65 L-49.8 104.65 Q-66.7 104.65 -66.7 87.75 L-66.7 -87.7 Q-66.7 -104.6 -49.8 -104.6 L66.75 -104.6" fill="url(#gradient0)" fill-rule="evenodd" stroke="none"/>
    <path d="M66.75 -104.6 L-49.8 -104.6 Q-66.7 -104.6 -66.7 -87.7 L-66.7 87.75 Q-66.7 104.65 -49.8 104.65 L66.75 104.65 Q83.7 104.65 83.7 87.75 L83.7 -87.7 Q83.7 -104.6 66.75 -104.6 Z" fill="none" stroke="#000000" stroke-linecap="round" stroke-linejoin="round" stroke-width="0.05"/>
    <path d="M77.9 -87.7 Q77.9 -98.85 66.75 -98.85 L-49.8 -98.85 Q-60.95 -98.85 -60.95 -87.7 L-60.95 87.75 Q-60.95 98.9 -49.8 98.9 L66.75 98.9 Q77.9 98.9 77.9 87.75 L77.9 -87.7 M66.75 -104.6 Q83.7 -104.6 83.7 -87.7 L83.7 87.75 Q83.7 104.65 66.75 104.65 L-49.8 104.65 Q-66.7 104.65 -66.7 87.75 L-66.7 -87.7 Q-66.7 -104.6 -49.8 -104.6 L66.75 -104.6" fill="url(#gradient1)" fill-rule="evenodd" stroke="none"/>
    <path d="M66.75 -104.6 L-49.8 -104.6 Q-66.7 -104.6 -66.7 -87.7 L-66.7 87.75 Q-66.7 104.65 -49.8 104.65 L66.75 104.65 Q83.7 104.65 83.7 87.75 L83.7 -87.7 Q83.7 -104.6 66.75 -104.6 Z" fill="none" stroke="#000000" stroke-linecap="round" stroke-linejoin="round" stroke-width="0.05"/>
    <path d="M66.75 -104.6 Q83.7 -104.6 83.7 -87.7 L83.7 87.75 Q83.7 104.65 66.75 104.65 L-49.8 104.65 Q-66.7 104.65 -66.7 87.75 L-66.7 -87.7 Q-66.7 -104.6 -49.8 -104.6 L66.75 -104.6" fill="url(#gradient2)" fill-rule="evenodd" stroke="none"/>
    <path d="M66.75 -104.6 L-49.8 -104.6 Q-66.7 -104.6 -66.7 -87.7 L-66.7 87.75 Q-66.7 104.65 -49.8 104.65 L66.75 104.65 Q83.7 104.65 83.7 87.75 L83.7 -87.7 Q83.7 -104.6 66.75 -104.6 Z" fill="none" stroke="#e9da01" stroke-linecap="round" stroke-linejoin="round" stroke-width="2.0"/>
    <path d="M16.05 -7.85 L16.05 -12.2 16.2 -12.2 Q23.35 -11.45 28.5 -3.1 34.2 6.05 34.2 19.05 34.2 31.95 28.5 41.15 23.35 49.55 16.2 50.25 L16.05 50.25 16.05 45.65 16.5 45.65 17.3 45.55 18.15 45.65 Q23.4 45.65 27.15 37.75 30.8 29.9 30.8 18.85 30.8 7.75 27.15 -0.1 23.4 -7.9 18.15 -7.9 L17.3 -7.85 16.5 -7.9 16.05 -7.85" fill="#ffef0e" fill-rule="evenodd" stroke="none"/>
    <path d="M16.2 50.25 L16.05 50.3 16.05 50.25 16.2 50.25" fill="#bbffb1" fill-rule="evenodd" stroke="none"/>
    <path d="M17.3 45.55 Q21.95 44.95 25.45 37.75 29.1 29.9 29.1 18.85 29.1 7.75 25.45 -0.1 21.95 -7.25 17.3 -7.85 L18.15 -7.9 Q23.4 -7.9 27.15 -0.1 30.8 7.75 30.8 18.85 30.8 29.9 27.15 37.75 23.4 45.65 18.15 45.65 L17.3 45.55" fill="#a66f06" fill-rule="evenodd" stroke="none"/>
    <path d="M16.05 -12.2 L16.2 -12.2 Q23.35 -11.45 28.5 -3.1 34.2 6.05 34.2 19.05 34.2 31.95 28.5 41.15 23.35 49.55 16.2 50.25 L16.05 50.3 M16.05 45.65 L16.5 45.65 17.3 45.55 Q21.95 44.95 25.45 37.75 29.1 29.9 29.1 18.85 29.1 7.75 25.45 -0.1 21.95 -7.25 17.3 -7.85 L16.5 -7.9 16.05 -7.85" fill="none" stroke="#000000" stroke-linecap="round" stroke-linejoin="round" stroke-width="0.05"/>
    <path d="M37.3 4.65 L53.1 23.25 30.9 29.45 33.15 20.65 Q24.6 17.6 5.25 21.1 -14.1 24.6 -39.65 34.35 -24.1 17.95 13.55 11.65 19.8 10.55 35.3 13.1 L37.3 4.65" fill="#fcffc9" fill-rule="evenodd" stroke="none"/>
    <path d="M37.3 4.65 L53.1 23.25 30.9 29.45 33.15 20.65 Q24.6 17.6 5.25 21.1 -14.1 24.6 -39.65 34.35 -24.1 17.95 13.55 11.65 19.8 10.55 35.3 13.1 L37.3 4.65 Z" fill="none" stroke="#4a1400" stroke-linecap="round" stroke-linejoin="round" stroke-width="2.0"/>
  </g>
  <defs>
    <linearGradient gradientTransform="matrix(0.0, -0.1163, 0.0918, 0.0, 8.5, 11.9)" gradientUnits="userSpaceOnUse" id="gradient0" spreadMethod="pad" x1="-819.2" x2="819.2">
      <stop offset="0.17254901960784313" stop-color="#120c00"/>
      <stop offset="1.0" stop-color="#dbd906" stop-opacity="0.9098039"/>
    </linearGradient>
    <linearGradient gradientTransform="matrix(0.0, -0.1268, 0.0918, 0.0, 8.5, 2.45)" gradientUnits="userSpaceOnUse" id="gradient1" spreadMethod="pad" x1="-819.2" x2="819.2">
      <stop offset="0.0392156862745098" stop-color="#000000" stop-opacity="0.5686275"/>
      <stop offset="0.5176470588235295" stop-color="#353805" stop-opacity="0.64705884"/>
      <stop offset="1.0" stop-color="#fff3bb" stop-opacity="0.7372549"/>
    </linearGradient>
    <linearGradient gradientTransform="matrix(-0.0114, -0.0255, 0.1188, -0.0531, -27.9, -81.35)" gradientUnits="userSpaceOnUse" id="gradient2" spreadMethod="pad" x1="-819.2" x2="819.2">
      <stop offset="0.17254901960784313" stop-color="#ffffff" stop-opacity="0.0"/>
      <stop offset="1.0" stop-color="#ffffff" stop-opacity="0.6666667"/>
    </linearGradient>
  </defs>
</svg>
