<?xml version="1.0" encoding="UTF-8" standalone="no"?>
<svg xmlns:xlink="http://www.w3.org/1999/xlink" height="62.6px" width="20.55px" xmlns="http://www.w3.org/2000/svg">
  <g transform="matrix(1.0, 0.0, 0.0, 1.0, 4.5, 12.25)">
    <path d="M16.05 50.3 L14.8 50.35 13.55 50.3 Q6.35 49.65 1.15 41.15 -4.5 31.95 -4.5 19.05 -4.5 6.05 1.15 -3.1 6.35 -11.55 13.55 -12.2 L14.8 -12.25 16.05 -12.2 13.55 -11.65 Q8.15 -9.85 3.95 -3.1 -1.7 6.05 -1.7 19.05 -1.7 31.95 3.95 41.15 8.15 47.95 13.55 49.75 L16.05 50.25 16.05 50.3" fill="#fff6bb" fill-rule="evenodd" stroke="none"/>
    <path d="M16.05 50.25 L13.55 49.75 Q8.15 47.95 3.95 41.15 -1.7 31.95 -1.7 19.05 -1.7 6.05 3.95 -3.1 8.15 -9.85 13.55 -11.65 L16.05 -12.2 16.05 -7.85 Q14.75 -7.8 13.55 -7.2 10.15 -5.65 7.5 -0.1 3.75 7.75 3.75 18.85 3.75 29.9 7.5 37.75 10.15 43.3 13.55 44.95 14.75 45.55 16.05 45.65 L16.05 50.25" fill="#ffef0e" fill-rule="evenodd" stroke="none"/>
    <path d="M16.05 -12.2 L14.8 -12.25 13.55 -12.2 Q6.35 -11.55 1.15 -3.1 -4.5 6.05 -4.5 19.05 -4.5 31.95 1.15 41.15 6.35 49.65 13.55 50.3 L14.8 50.35 16.05 50.3 M16.05 -7.85 Q14.75 -7.8 13.55 -7.2 10.15 -5.65 7.5 -0.1 3.75 7.75 3.75 18.85 3.75 29.9 7.5 37.75 10.15 43.3 13.55 44.95 14.75 45.55 16.05 45.65" fill="none" stroke="#000000" stroke-linecap="round" stroke-linejoin="round" stroke-width="0.05"/>
  </g>
</svg>
