<?xml version="1.0" encoding="UTF-8" standalone="no"?>
<svg xmlns:xlink="http://www.w3.org/1999/xlink" height="217.65px" width="156.4px" xmlns="http://www.w3.org/2000/svg">
  <g transform="matrix(1.0, 0.0, 0.0, 1.0, 69.7, 108.8)">
    <path d="M69.1 -108.8 Q86.7 -108.8 86.7 -91.2 L86.7 91.25 Q86.7 108.85 69.1 108.85 L-52.1 108.85 Q-69.7 108.85 -69.7 91.25 L-69.7 -91.2 Q-69.7 -108.8 -52.1 -108.8 L69.1 -108.8" fill="url(#gradient0)" fill-rule="evenodd" stroke="none"/>
    <path d="M69.1 -108.8 L-52.1 -108.8 Q-69.7 -108.8 -69.7 -91.2 L-69.7 91.25 Q-69.7 108.85 -52.1 108.85 L69.1 108.85 Q86.7 108.85 86.7 91.25 L86.7 -91.2 Q86.7 -108.8 69.1 -108.8 Z" fill="none" stroke="#000000" stroke-linecap="round" stroke-linejoin="round" stroke-width="0.05"/>
    <path d="M69.1 -108.8 Q86.7 -108.8 86.7 -91.2 L86.7 91.25 Q86.7 108.85 69.1 108.85 L-52.1 108.85 Q-69.7 108.85 -69.7 91.25 L-69.7 -91.2 Q-69.7 -108.8 -52.1 -108.8 L69.1 -108.8 M80.7 -91.2 Q80.7 -102.8 69.1 -102.8 L-52.1 -102.8 Q-63.7 -102.8 -63.7 -91.2 L-63.7 91.25 Q-63.7 102.85 -52.1 102.85 L69.1 102.85 Q80.7 102.85 80.7 91.25 L80.7 -91.2" fill="url(#gradient1)" fill-rule="evenodd" stroke="none"/>
    <path d="M69.1 -108.8 L-52.1 -108.8 Q-69.7 -108.8 -69.7 -91.2 L-69.7 91.25 Q-69.7 108.85 -52.1 108.85 L69.1 108.85 Q86.7 108.85 86.7 91.25 L86.7 -91.2 Q86.7 -108.8 69.1 -108.8 Z" fill="none" stroke="#000000" stroke-linecap="round" stroke-linejoin="round" stroke-width="0.05"/>
    <path d="M69.1 -108.8 Q86.7 -108.8 86.7 -91.2 L86.7 91.25 Q86.7 108.85 69.1 108.85 L-52.1 108.85 Q-69.7 108.85 -69.7 91.25 L-69.7 -91.2 Q-69.7 -108.8 -52.1 -108.8 L69.1 -108.8" fill="url(#gradient2)" fill-rule="evenodd" stroke="none"/>
    <path d="M16.55 -62.2 L14.65 -61.85 14.65 -62.25 15.1 -62.25 16.55 -62.2 M14.65 2.45 L16.55 2.75 15.1 2.85 14.65 2.85 14.65 2.45" fill="#fff6bb" fill-rule="evenodd" stroke="none"/>
    <path d="M14.65 -61.85 L16.55 -62.2 Q23.95 -61.4 29.35 -52.75 35.25 -43.2 35.25 -29.7 35.25 -16.25 29.35 -6.7 23.95 2.0 16.55 2.75 L14.65 2.45 14.65 -2.4 Q15.7 -2.05 16.85 -2.05 L17.7 -2.15 18.6 -2.05 Q24.0 -2.05 27.9 -10.25 31.7 -18.4 31.7 -29.9 31.7 -41.45 27.9 -49.6 24.0 -57.7 18.6 -57.7 L17.7 -57.65 16.85 -57.7 14.65 -57.35 14.65 -61.85" fill="#26ec0a" fill-rule="evenodd" stroke="none"/>
    <path d="M17.7 -57.65 L18.6 -57.7 Q24.0 -57.7 27.9 -49.6 31.7 -41.45 31.7 -29.9 31.7 -18.4 27.9 -10.25 24.0 -2.05 18.6 -2.05 L17.7 -2.15 Q22.55 -2.75 26.15 -10.25 29.95 -18.4 29.95 -29.9 29.95 -41.45 26.15 -49.6 22.55 -57.05 17.7 -57.65" fill="#1caf07" fill-rule="evenodd" stroke="none"/>
    <path d="M16.55 -62.2 L15.1 -62.25 14.65 -62.25 M14.65 -57.35 L16.85 -57.7 17.7 -57.65 Q22.55 -57.05 26.15 -49.6 29.95 -41.45 29.95 -29.9 29.95 -18.4 26.15 -10.25 22.55 -2.75 17.7 -2.15 L16.85 -2.05 Q15.7 -2.05 14.65 -2.4 M16.55 2.75 Q23.95 2.0 29.35 -6.7 35.25 -16.25 35.25 -29.7 35.25 -43.2 29.35 -52.75 23.95 -61.4 16.55 -62.2 M14.65 2.85 L15.1 2.85 16.55 2.75" fill="none" stroke="#000000" stroke-linecap="round" stroke-linejoin="round" stroke-width="0.05"/>
    <path d="M27.5 -27.4 Q5.05 -31.55 -14.75 -18.0 -33.35 -2.95 -44.6 25.05 -39.0 -9.9 -16.85 -27.6 1.25 -42.05 28.55 -37.05 L29.4 -48.35 Q48.2 -37.0 56.35 -26.15 L26.0 -17.4 27.5 -27.4" fill="#cdffcf" fill-rule="evenodd" stroke="none"/>
    <path d="M27.5 -27.4 Q5.05 -31.55 -14.75 -18.0 -33.35 -2.95 -44.6 25.05 -39.0 -9.9 -16.85 -27.6 1.25 -42.05 28.55 -37.05 L29.4 -48.35 Q48.2 -37.0 56.35 -26.15 L26.0 -17.4 27.5 -27.4 Z" fill="none" stroke="#1e3500" stroke-linecap="round" stroke-linejoin="round" stroke-width="2.0"/>
  </g>
  <defs>
    <linearGradient gradientTransform="matrix(0.0, -0.1209, 0.0955, 0.0, 8.5, 12.35)" gradientUnits="userSpaceOnUse" id="gradient0" spreadMethod="pad" x1="-819.2" x2="819.2">
      <stop offset="0.17254901960784313" stop-color="#002701"/>
      <stop offset="1.0" stop-color="#63ff10" stop-opacity="0.8392157"/>
    </linearGradient>
    <linearGradient gradientTransform="matrix(0.0, -0.1318, 0.0955, 0.0, 8.5, 2.55)" gradientUnits="userSpaceOnUse" id="gradient1" spreadMethod="pad" x1="-819.2" x2="819.2">
      <stop offset="0.0392156862745098" stop-color="#000000" stop-opacity="0.5686275"/>
      <stop offset="0.5176470588235295" stop-color="#063805" stop-opacity="0.64705884"/>
      <stop offset="1.0" stop-color="#ceffbf" stop-opacity="0.7372549"/>
    </linearGradient>
    <linearGradient gradientTransform="matrix(-0.0119, -0.0265, 0.1235, -0.0552, -29.35, -84.6)" gradientUnits="userSpaceOnUse" id="gradient2" spreadMethod="pad" x1="-819.2" x2="819.2">
      <stop offset="0.17254901960784313" stop-color="#ffffff" stop-opacity="0.0"/>
      <stop offset="1.0" stop-color="#ffffff" stop-opacity="0.6666667"/>
    </linearGradient>
  </defs>
</svg>
