<?xml version="1.0" encoding="UTF-8" standalone="no"?>
<svg xmlns:xlink="http://www.w3.org/1999/xlink" height="62.75px" width="18.9px" xmlns="http://www.w3.org/2000/svg">
  <g transform="matrix(1.0, 0.0, 0.0, 1.0, 4.45, 59.95)">
    <path d="M14.45 -59.6 L14.45 -55.3 Q10.5 -54.0 7.5 -47.8 3.75 -39.95 3.75 -28.8 3.75 -17.75 7.5 -9.9 10.5 -3.6 14.45 -2.3 L14.45 2.35 Q8.5 0.8 3.95 -6.5 -1.7 -15.65 -1.7 -28.6 -1.7 -41.65 3.95 -50.8 8.5 -58.05 14.45 -59.6" fill="#26ec0a" fill-rule="evenodd" stroke="none"/>
    <path d="M14.45 -59.6 Q8.5 -58.05 3.95 -50.8 -1.7 -41.65 -1.7 -28.6 -1.7 -15.65 3.95 -6.5 8.5 0.8 14.45 2.35 L14.45 2.8 Q6.7 2.5 1.15 -6.5 -4.45 -15.65 -4.45 -28.6 -4.45 -41.65 1.15 -50.8 6.7 -59.75 14.45 -59.95 L14.45 -59.6" fill="#d6ffd0" fill-rule="evenodd" stroke="none"/>
    <path d="M14.45 -2.3 Q10.5 -3.6 7.5 -9.9 3.75 -17.75 3.75 -28.8 3.75 -39.95 7.5 -47.8 10.5 -54.0 14.45 -55.3 M14.45 -59.95 Q6.7 -59.75 1.15 -50.8 -4.45 -41.65 -4.45 -28.6 -4.45 -15.65 1.15 -6.5 6.7 2.5 14.45 2.8" fill="none" stroke="#000000" stroke-linecap="round" stroke-linejoin="round" stroke-width="0.05"/>
  </g>
</svg>
