<?xml version="1.0" encoding="UTF-8" standalone="no"?>
<svg xmlns:xlink="http://www.w3.org/1999/xlink" height="217.65px" width="156.4px" xmlns="http://www.w3.org/2000/svg">
  <g transform="matrix(1.0, 0.0, 0.0, 1.0, 69.7, 108.8)">
    <path d="M69.1 -108.8 Q86.7 -108.8 86.7 -91.2 L86.7 91.25 Q86.7 108.85 69.1 108.85 L-52.1 108.85 Q-69.7 108.85 -69.7 91.25 L-69.7 -91.2 Q-69.7 -108.8 -52.1 -108.8 L69.1 -108.8" fill="url(#gradient0)" fill-rule="evenodd" stroke="none"/>
    <path d="M69.1 -108.8 L-52.1 -108.8 Q-69.7 -108.8 -69.7 -91.2 L-69.7 91.25 Q-69.7 108.85 -52.1 108.85 L69.1 108.85 Q86.7 108.85 86.7 91.25 L86.7 -91.2 Q86.7 -108.8 69.1 -108.8 Z" fill="none" stroke="#000000" stroke-linecap="round" stroke-linejoin="round" stroke-width="0.05"/>
    <path d="M69.1 -108.8 Q86.7 -108.8 86.7 -91.2 L86.7 91.25 Q86.7 108.85 69.1 108.85 L-52.1 108.85 Q-69.7 108.85 -69.7 91.25 L-69.7 -91.2 Q-69.7 -108.8 -52.1 -108.8 L69.1 -108.8 M80.7 -91.2 Q80.7 -102.8 69.1 -102.8 L-52.1 -102.8 Q-63.7 -102.8 -63.7 -91.2 L-63.7 91.25 Q-63.7 102.85 -52.1 102.85 L69.1 102.85 Q80.7 102.85 80.7 91.25 L80.7 -91.2" fill="url(#gradient1)" fill-rule="evenodd" stroke="none"/>
    <path d="M69.1 -108.8 L-52.1 -108.8 Q-69.7 -108.8 -69.7 -91.2 L-69.7 91.25 Q-69.7 108.85 -52.1 108.85 L69.1 108.85 Q86.7 108.85 86.7 91.25 L86.7 -91.2 Q86.7 -108.8 69.1 -108.8 Z" fill="none" stroke="#000000" stroke-linecap="round" stroke-linejoin="round" stroke-width="0.05"/>
    <path d="M69.1 -108.8 Q86.7 -108.8 86.7 -91.2 L86.7 91.25 Q86.7 108.85 69.1 108.85 L-52.1 108.85 Q-69.7 108.85 -69.7 91.25 L-69.7 -91.2 Q-69.7 -108.8 -52.1 -108.8 L69.1 -108.8" fill="url(#gradient2)" fill-rule="evenodd" stroke="none"/>
    <path d="M17.7 -47.2 Q22.55 -47.8 26.15 -55.3 29.95 -63.45 29.95 -74.95 29.95 -86.5 26.15 -94.65 22.55 -102.1 17.7 -102.7 L18.6 -102.75 Q24.0 -102.75 27.9 -94.65 31.7 -86.5 31.7 -74.95 31.7 -63.45 27.9 -55.3 24.0 -47.1 18.6 -47.1 L17.7 -47.2" fill="#0c77a6" fill-rule="evenodd" stroke="none"/>
    <path d="M16.55 -107.25 Q23.95 -106.45 29.35 -97.8 35.25 -88.25 35.25 -74.75 35.25 -61.3 29.35 -51.75 23.95 -43.05 16.55 -42.3 L15.5 -42.45 15.5 -47.2 16.85 -47.1 17.7 -47.2 18.6 -47.1 Q24.0 -47.1 27.9 -55.3 31.7 -63.45 31.7 -74.95 31.7 -86.5 27.9 -94.65 24.0 -102.75 18.6 -102.75 L17.7 -102.7 16.85 -102.75 15.5 -102.6 15.5 -107.1 16.55 -107.25" fill="#10a9ff" fill-rule="evenodd" stroke="none"/>
    <path d="M15.5 -107.1 L15.5 -107.3 16.55 -107.25 15.5 -107.1 M16.55 -42.3 L15.5 -42.2 15.5 -42.45 16.55 -42.3" fill="#bbf1ff" fill-rule="evenodd" stroke="none"/>
    <path d="M15.5 -107.3 L16.55 -107.25 Q23.95 -106.45 29.35 -97.8 35.25 -88.25 35.25 -74.75 35.25 -61.3 29.35 -51.75 23.95 -43.05 16.55 -42.3 L15.5 -42.2 M15.5 -47.2 L16.85 -47.1 17.7 -47.2 Q22.55 -47.8 26.15 -55.3 29.95 -63.45 29.95 -74.95 29.95 -86.5 26.15 -94.65 22.55 -102.1 17.7 -102.7 L16.85 -102.75 15.5 -102.6" fill="none" stroke="#000000" stroke-linecap="round" stroke-linejoin="round" stroke-width="0.05"/>
    <path d="M57.85 -60.0 L31.5 -62.45 36.8 -70.05 Q30.95 -76.4 17.05 -75.35 -21.45 -67.65 -45.05 35.7 -40.1 -77.3 15.45 -88.8 30.95 -91.25 44.3 -81.8 L52.4 -91.05 Q56.35 -75.8 57.85 -60.0" fill="#cdf8ff" fill-rule="evenodd" stroke="none"/>
    <path d="M57.85 -60.0 L31.5 -62.45 36.8 -70.05 Q30.95 -76.4 17.05 -75.35 -21.45 -67.65 -45.05 35.7 -40.1 -77.3 15.45 -88.8 30.95 -91.25 44.3 -81.8 L52.4 -91.05 Q56.35 -75.8 57.85 -60.0 Z" fill="none" stroke="#000f1e" stroke-linecap="round" stroke-linejoin="round" stroke-width="2.0"/>
  </g>
  <defs>
    <linearGradient gradientTransform="matrix(0.0, -0.1209, 0.0955, 0.0, 8.5, 12.35)" gradientUnits="userSpaceOnUse" id="gradient0" spreadMethod="pad" x1="-819.2" x2="819.2">
      <stop offset="0.17254901960784313" stop-color="#011927"/>
      <stop offset="1.0" stop-color="#15c5ff" stop-opacity="0.8392157"/>
    </linearGradient>
    <linearGradient gradientTransform="matrix(0.0, -0.1318, 0.0955, 0.0, 8.5, 2.55)" gradientUnits="userSpaceOnUse" id="gradient1" spreadMethod="pad" x1="-819.2" x2="819.2">
      <stop offset="0.0392156862745098" stop-color="#000000" stop-opacity="0.5686275"/>
      <stop offset="0.5176470588235295" stop-color="#042538" stop-opacity="0.64705884"/>
      <stop offset="1.0" stop-color="#bdd5ff" stop-opacity="0.7372549"/>
    </linearGradient>
    <linearGradient gradientTransform="matrix(-0.0119, -0.0265, 0.1235, -0.0552, -29.35, -84.6)" gradientUnits="userSpaceOnUse" id="gradient2" spreadMethod="pad" x1="-819.2" x2="819.2">
      <stop offset="0.17254901960784313" stop-color="#ffffff" stop-opacity="0.0"/>
      <stop offset="1.0" stop-color="#ffffff" stop-opacity="0.6666667"/>
    </linearGradient>
  </defs>
</svg>
