<?xml version="1.0" encoding="UTF-8" standalone="no"?>
<svg xmlns:xlink="http://www.w3.org/1999/xlink" height="62.6px" width="19.7px" xmlns="http://www.w3.org/2000/svg">
  <g transform="matrix(1.0, 0.0, 0.0, 1.0, 4.45, 103.2)">
    <path d="M15.25 -40.6 L14.85 -40.6 Q6.85 -40.6 1.15 -49.75 -4.45 -58.95 -4.45 -71.9 -4.45 -84.85 1.15 -94.05 6.85 -103.2 14.85 -103.2 L15.25 -103.2 15.25 -103.0 Q8.8 -101.8 4.0 -94.05 -1.65 -84.85 -1.65 -71.9 -1.65 -58.95 4.0 -49.75 8.8 -42.0 15.25 -40.8 L15.25 -40.6" fill="#bbf1ff" fill-rule="evenodd" stroke="none"/>
    <path d="M15.25 -40.8 Q8.8 -42.0 4.0 -49.75 -1.65 -58.95 -1.65 -71.9 -1.65 -84.85 4.0 -94.05 8.8 -101.8 15.25 -103.0 L15.25 -98.65 Q10.8 -97.85 7.55 -91.0 3.8 -83.2 3.8 -72.05 3.8 -61.0 7.55 -53.2 10.8 -46.3 15.25 -45.4 L15.25 -40.8" fill="#10a9ff" fill-rule="evenodd" stroke="none"/>
    <path d="M15.25 -103.2 L14.85 -103.2 Q6.85 -103.2 1.15 -94.05 -4.45 -84.85 -4.45 -71.9 -4.45 -58.95 1.15 -49.75 6.85 -40.6 14.85 -40.6 L15.25 -40.6 M15.25 -98.65 Q10.8 -97.85 7.55 -91.0 3.8 -83.2 3.8 -72.05 3.8 -61.0 7.55 -53.2 10.8 -46.3 15.25 -45.4" fill="none" stroke="#000000" stroke-linecap="round" stroke-linejoin="round" stroke-width="0.05"/>
  </g>
</svg>
