<?xml version="1.0" encoding="UTF-8" standalone="no"?>
<svg xmlns:xlink="http://www.w3.org/1999/xlink" height="211.3px" width="152.4px" xmlns="http://www.w3.org/2000/svg">
  <g transform="matrix(1.0, 0.0, 0.0, 1.0, 67.7, 105.65)">
    <path d="M66.8 -104.65 Q83.7 -104.65 83.7 -87.7 L83.7 87.75 Q83.7 104.65 66.8 104.65 L-49.75 104.65 Q-66.7 104.65 -66.7 87.75 L-66.7 -87.7 Q-66.7 -104.65 -49.75 -104.65 L66.8 -104.65" fill="url(#gradient0)" fill-rule="evenodd" stroke="none"/>
    <path d="M66.8 -104.65 L-49.75 -104.65 Q-66.7 -104.65 -66.7 -87.7 L-66.7 87.75 Q-66.7 104.65 -49.75 104.65 L66.8 104.65 Q83.7 104.65 83.7 87.75 L83.7 -87.7 Q83.7 -104.65 66.8 -104.65 Z" fill="none" stroke="#000000" stroke-linecap="round" stroke-linejoin="round" stroke-width="0.05"/>
    <path d="M77.95 -87.7 Q77.95 -98.85 66.8 -98.85 L-49.75 -98.85 Q-60.9 -98.85 -60.9 -87.7 L-60.9 87.75 Q-60.9 98.9 -49.75 98.9 L66.8 98.9 Q77.95 98.9 77.95 87.75 L77.95 -87.7 M66.8 -104.65 Q83.7 -104.65 83.7 -87.7 L83.7 87.75 Q83.7 104.65 66.8 104.65 L-49.75 104.65 Q-66.7 104.65 -66.7 87.75 L-66.7 -87.7 Q-66.7 -104.65 -49.75 -104.65 L66.8 -104.65" fill="url(#gradient1)" fill-rule="evenodd" stroke="none"/>
    <path d="M66.8 -104.65 L-49.75 -104.65 Q-66.7 -104.65 -66.7 -87.7 L-66.7 87.75 Q-66.7 104.65 -49.75 104.65 L66.8 104.65 Q83.7 104.65 83.7 87.75 L83.7 -87.7 Q83.7 -104.65 66.8 -104.65 Z" fill="none" stroke="#000000" stroke-linecap="round" stroke-linejoin="round" stroke-width="0.05"/>
    <path d="M66.8 -104.65 Q83.7 -104.65 83.7 -87.7 L83.7 87.75 Q83.7 104.65 66.8 104.65 L-49.75 104.65 Q-66.7 104.65 -66.7 87.75 L-66.7 -87.7 Q-66.7 -104.65 -49.75 -104.65 L66.8 -104.65" fill="url(#gradient2)" fill-rule="evenodd" stroke="none"/>
    <path d="M66.8 -104.65 L-49.75 -104.65 Q-66.7 -104.65 -66.7 -87.7 L-66.7 87.75 Q-66.7 104.65 -49.75 104.65 L66.8 104.65 Q83.7 104.65 83.7 87.75 L83.7 -87.7 Q83.7 -104.65 66.8 -104.65 Z" fill="none" stroke="#0099cc" stroke-linecap="round" stroke-linejoin="round" stroke-width="2.0"/>
    <path d="M15.25 -103.0 L15.25 -103.2 16.25 -103.15 15.25 -103.0 M16.25 -40.7 L15.25 -40.6 15.25 -40.8 16.25 -40.7" fill="#bbf1ff" fill-rule="evenodd" stroke="none"/>
    <path d="M16.25 -103.15 Q23.4 -102.35 28.55 -94.05 34.25 -84.85 34.25 -71.9 34.25 -58.95 28.55 -49.75 23.4 -41.4 16.25 -40.7 L15.25 -40.8 15.25 -45.4 16.55 -45.3 17.35 -45.4 18.25 -45.3 Q23.45 -45.3 27.2 -53.2 30.85 -61.0 30.85 -72.05 30.85 -83.2 27.2 -91.0 23.45 -98.8 18.25 -98.8 L17.35 -98.75 16.55 -98.8 15.25 -98.65 15.25 -103.0 16.25 -103.15" fill="#10a9ff" fill-rule="evenodd" stroke="none"/>
    <path d="M17.35 -45.4 Q22.05 -45.95 25.5 -53.2 29.15 -61.0 29.15 -72.05 29.15 -83.2 25.5 -91.0 22.05 -98.2 17.35 -98.75 L18.25 -98.8 Q23.45 -98.8 27.2 -91.0 30.85 -83.2 30.85 -72.05 30.85 -61.0 27.2 -53.2 23.45 -45.3 18.25 -45.3 L17.35 -45.4" fill="#0c77a6" fill-rule="evenodd" stroke="none"/>
    <path d="M15.25 -103.2 L16.25 -103.15 Q23.4 -102.35 28.55 -94.05 34.25 -84.85 34.25 -71.9 34.25 -58.95 28.55 -49.75 23.4 -41.4 16.25 -40.7 L15.25 -40.6 M15.25 -45.4 L16.55 -45.3 17.35 -45.4 Q22.05 -45.95 25.5 -53.2 29.15 -61.0 29.15 -72.05 29.15 -83.2 25.5 -91.0 22.05 -98.2 17.35 -98.75 L16.55 -98.8 15.25 -98.65" fill="none" stroke="#000000" stroke-linecap="round" stroke-linejoin="round" stroke-width="0.05"/>
    <path d="M56.0 -57.7 L30.65 -60.05 35.75 -67.35 Q30.1 -73.45 16.75 -72.45 -20.3 -65.05 -42.95 34.35 -38.2 -74.35 15.2 -85.4 30.1 -87.75 42.95 -78.65 L50.75 -87.55 Q54.55 -72.9 56.0 -57.7" fill="#cdf8ff" fill-rule="evenodd" stroke="none"/>
    <path d="M56.0 -57.7 L30.65 -60.05 35.75 -67.35 Q30.1 -73.45 16.75 -72.45 -20.3 -65.05 -42.95 34.35 -38.2 -74.35 15.2 -85.4 30.1 -87.75 42.95 -78.65 L50.75 -87.55 Q54.55 -72.9 56.0 -57.7 Z" fill="none" stroke="#000f1e" stroke-linecap="round" stroke-linejoin="round" stroke-width="2.0"/>
  </g>
  <defs>
    <linearGradient gradientTransform="matrix(0.0, -0.1163, 0.0918, 0.0, 8.5, 11.9)" gradientUnits="userSpaceOnUse" id="gradient0" spreadMethod="pad" x1="-819.2" x2="819.2">
      <stop offset="0.17254901960784313" stop-color="#000d15"/>
      <stop offset="1.0" stop-color="#05a4d9" stop-opacity="0.8392157"/>
    </linearGradient>
    <linearGradient gradientTransform="matrix(0.0, -0.1268, 0.0918, 0.0, 8.5, 2.45)" gradientUnits="userSpaceOnUse" id="gradient1" spreadMethod="pad" x1="-819.2" x2="819.2">
      <stop offset="0.0392156862745098" stop-color="#000000" stop-opacity="0.5686275"/>
      <stop offset="0.5176470588235295" stop-color="#042538" stop-opacity="0.64705884"/>
      <stop offset="1.0" stop-color="#bdd5ff" stop-opacity="0.7372549"/>
    </linearGradient>
    <linearGradient gradientTransform="matrix(-0.0114, -0.0255, 0.1188, -0.0531, -27.85, -81.35)" gradientUnits="userSpaceOnUse" id="gradient2" spreadMethod="pad" x1="-819.2" x2="819.2">
      <stop offset="0.17254901960784313" stop-color="#ffffff" stop-opacity="0.0"/>
      <stop offset="1.0" stop-color="#ffffff" stop-opacity="0.6666667"/>
    </linearGradient>
  </defs>
</svg>
