<?xml version="1.0" encoding="UTF-8" standalone="no"?>
<svg xmlns:xlink="http://www.w3.org/1999/xlink" height="15.05px" width="11.25px" xmlns="http://www.w3.org/2000/svg">
  <g transform="matrix(1.0, 0.0, 0.0, 1.0, 0.75, 0.0)">
    <path d="M9.75 2.7 Q9.5 7.5 6.9 8.9 L8.4 12.3 Q8.65 14.55 4.3 14.3 0.65 14.25 0.15 12.75 L0.0 3.4 Q2.65 -3.05 9.75 2.7 M6.4 9.25 L6.9 8.9 6.4 9.25 M4.55 13.4 Q4.55 12.8 4.0 12.8 3.45 12.8 3.45 13.4 3.5 14.0 3.95 14.0 L4.45 13.75 4.55 13.4 M8.0 12.6 Q8.0 12.0 7.5 12.0 6.95 12.0 6.95 12.6 7.0 13.2 7.5 13.2 8.0 13.2 8.0 12.6 M6.35 13.25 Q6.35 12.65 5.85 12.65 5.3 12.65 5.3 13.25 5.35 13.85 5.85 13.85 L6.25 13.6 6.35 13.25" fill="#6b626d" fill-rule="evenodd" stroke="none"/>
    <path d="M6.35 13.25 L6.25 13.6 5.85 13.85 Q5.35 13.85 5.3 13.25 5.3 12.65 5.85 12.65 6.35 12.65 6.35 13.25 M8.0 12.6 Q8.0 13.2 7.5 13.2 7.0 13.2 6.95 12.6 6.95 12.0 7.5 12.0 8.0 12.0 8.0 12.6 M4.55 13.4 L4.45 13.75 3.95 14.0 Q3.5 14.0 3.45 13.4 3.45 12.8 4.0 12.8 4.55 12.8 4.55 13.4" fill="#daaaff" fill-rule="evenodd" stroke="none"/>
    <path d="M9.75 2.7 Q9.5 7.5 6.9 8.9 L8.4 12.3 Q8.65 14.55 4.3 14.3 0.65 14.25 0.15 12.75 L0.0 3.4 M6.9 8.9 L6.4 9.25" fill="none" stroke="#141414" stroke-linecap="round" stroke-linejoin="round" stroke-width="1.5"/>
  </g>
</svg>
