<?xml version="1.0" encoding="UTF-8" standalone="no"?>
<svg xmlns:xlink="http://www.w3.org/1999/xlink" height="14.05px" width="8.4px" xmlns="http://www.w3.org/2000/svg">
  <g transform="matrix(1.0, 0.0, 0.0, 1.0, 0.75, 0.75)">
    <path d="M6.3 10.8 Q6.3 10.15 5.75 10.15 5.1 10.2 5.1 10.8 L5.2 11.15 Q5.35 11.45 5.7 11.45 L6.2 11.2 6.3 10.8 M4.4 11.55 Q4.4 11.05 3.8 11.0 3.2 10.9 3.2 11.6 L3.25 11.9 3.8 12.2 Q4.4 12.2 4.4 11.55 M2.4 11.4 Q2.4 10.75 1.8 10.75 1.2 10.8 1.2 11.4 L1.25 11.75 Q1.4 12.05 1.8 12.05 2.4 12.05 2.4 11.4 M5.2 0.1 L6.9 10.4 Q6.25 12.5 4.05 12.5 0.4 12.85 0.3 11.1 L0.0 2.2 Q2.05 -0.5 5.2 0.1" fill="#6b626d" fill-rule="evenodd" stroke="none"/>
    <path d="M2.4 11.4 Q2.4 12.05 1.8 12.05 1.4 12.05 1.25 11.75 L1.2 11.4 Q1.2 10.8 1.8 10.75 2.4 10.75 2.4 11.4 M4.4 11.55 Q4.4 12.2 3.8 12.2 L3.25 11.9 3.2 11.6 Q3.2 10.9 3.8 11.0 4.4 11.05 4.4 11.55 M6.3 10.8 L6.2 11.2 5.7 11.45 Q5.35 11.45 5.2 11.15 L5.1 10.8 Q5.1 10.2 5.75 10.15 6.3 10.15 6.3 10.8" fill="#daaaff" fill-rule="evenodd" stroke="none"/>
    <path d="M5.2 0.1 L6.9 10.4 Q6.25 12.5 4.05 12.5 0.4 12.85 0.3 11.1 L0.0 2.2 Q2.05 -0.5 5.2 0.1 Z" fill="none" stroke="#000000" stroke-linecap="round" stroke-linejoin="round" stroke-width="1.5"/>
  </g>
</svg>
