<?xml version="1.0" encoding="UTF-8" standalone="no"?>
<svg xmlns:xlink="http://www.w3.org/1999/xlink" height="13.65px" width="13.65px" xmlns="http://www.w3.org/2000/svg">
  <g transform="matrix(1.0, 0.0, 0.0, 1.0, 0.75, 0.75)">
    <path d="M0.05 5.15 Q0.3 3.2 1.75 1.75 3.55 0.0 6.05 0.0 8.6 0.0 10.35 1.75 12.15 3.55 12.15 6.05 12.15 8.6 10.35 10.35 L10.15 10.55 6.85 11.05 Q6.1 10.0 5.55 9.7 5.4 10.9 4.8 10.75 4.1 8.4 3.35 7.5 3.4 9.35 3.05 9.05 L1.85 6.75 Q1.25 4.65 3.25 2.9 0.2 4.15 0.05 5.15" fill="#6b626d" fill-rule="evenodd" stroke="none"/>
    <path d="M10.15 10.55 Q8.45 12.15 6.05 12.15 3.55 12.15 1.75 10.35 0.0 8.6 0.0 6.05 L0.05 5.15 Q0.2 4.15 3.25 2.9 1.25 4.65 1.85 6.75 L3.05 9.05 Q3.4 9.35 3.35 7.5 4.1 8.4 4.8 10.75 5.4 10.9 5.55 9.7 6.1 10.0 6.85 11.05 L10.15 10.55" fill="#39343a" fill-rule="evenodd" stroke="none"/>
    <path d="M0.05 5.15 Q0.3 3.2 1.75 1.75 3.55 0.0 6.05 0.0 8.6 0.0 10.35 1.75 12.15 3.55 12.15 6.05 12.15 8.6 10.35 10.35 L10.15 10.55 Q8.45 12.15 6.05 12.15 3.55 12.15 1.75 10.35 0.0 8.6 0.0 6.05 L0.05 5.15 Z" fill="none" stroke="#141414" stroke-linecap="round" stroke-linejoin="round" stroke-width="1.5"/>
  </g>
</svg>
