<?xml version="1.0" encoding="UTF-8" standalone="no"?>
<svg xmlns:xlink="http://www.w3.org/1999/xlink" height="22.3px" width="36.15px" xmlns="http://www.w3.org/2000/svg">
  <g transform="matrix(1.0, 0.0, 0.0, 1.0, 0.75, 0.75)">
    <path d="M1.0 6.95 Q2.45 3.45 6.0 2.45 10.6 1.15 16.85 0.4 23.1 -0.35 28.95 0.35 34.45 1.05 34.65 7.3 31.9 13.25 24.55 16.2 17.05 18.65 10.6 18.45 1.45 16.75 1.0 6.95" fill="#6b626d" fill-rule="evenodd" stroke="none"/>
    <path d="M34.65 7.3 L34.65 8.0 Q34.55 14.85 28.15 17.75 21.65 20.6 12.8 20.8 3.85 20.9 1.55 17.85 L0.75 16.4 Q-0.5 13.55 0.35 9.2 0.55 7.95 1.0 6.95 1.45 16.75 10.6 18.45 17.05 18.65 24.55 16.2 31.9 13.25 34.65 7.3" fill="#39343a" fill-rule="evenodd" stroke="none"/>
    <path d="M34.65 7.3 L34.65 8.0 Q34.55 14.85 28.15 17.75 21.65 20.6 12.8 20.8 3.85 20.9 1.55 17.85 L0.75 16.4 Q-0.5 13.55 0.35 9.2 0.55 7.95 1.0 6.95 2.45 3.45 6.0 2.45 10.6 1.15 16.85 0.4 23.1 -0.35 28.95 0.35 34.45 1.05 34.65 7.3 Z" fill="none" stroke="#000000" stroke-linecap="round" stroke-linejoin="round" stroke-width="1.5"/>
  </g>
</svg>
