<?xml version="1.0" encoding="UTF-8" standalone="no"?>
<svg xmlns:xlink="http://www.w3.org/1999/xlink" height="15.9px" width="13.15px" xmlns="http://www.w3.org/2000/svg">
  <g transform="matrix(1.0, 0.0, 0.0, 1.0, 0.75, 0.0)">
    <path d="M7.65 9.85 L8.25 9.45 7.65 9.85 M1.65 1.25 Q5.05 -1.9 11.65 2.85 11.4 7.95 8.25 9.45 L10.1 13.05 Q10.35 15.4 5.15 15.15 L4.05 15.15 Q2.2 14.65 1.9 13.2 L1.65 1.25 M7.55 14.05 Q7.55 13.4 6.95 13.4 6.3 13.4 6.3 14.05 6.35 14.7 6.95 14.7 7.3 14.7 7.45 14.45 L7.55 14.05 M5.45 14.2 Q5.45 13.55 4.8 13.55 4.15 13.55 4.15 14.2 4.2 14.85 4.75 14.85 5.1 14.85 5.3 14.55 L5.45 14.2 M9.55 13.35 Q9.55 12.75 8.95 12.75 8.3 12.75 8.3 13.35 8.35 14.0 8.95 14.0 9.55 14.0 9.55 13.35" fill="#6b626d" fill-rule="evenodd" stroke="none"/>
    <path d="M0.0 3.6 Q0.7 2.1 1.65 1.25 L1.9 13.2 Q2.2 14.65 4.05 15.15 0.7 14.9 0.25 13.55 L0.0 3.6" fill="#39343a" fill-rule="evenodd" stroke="none"/>
    <path d="M9.55 13.35 Q9.55 14.0 8.95 14.0 8.35 14.0 8.3 13.35 8.3 12.75 8.95 12.75 9.55 12.75 9.55 13.35 M5.45 14.2 L5.3 14.55 Q5.1 14.85 4.75 14.85 4.2 14.85 4.15 14.2 4.15 13.55 4.8 13.55 5.45 13.55 5.45 14.2 M7.55 14.05 L7.45 14.45 Q7.3 14.7 6.95 14.7 6.35 14.7 6.3 14.05 6.3 13.4 6.95 13.4 7.55 13.4 7.55 14.05" fill="#daaaff" fill-rule="evenodd" stroke="none"/>
    <path d="M8.25 9.45 L7.65 9.85 M11.65 2.85 Q11.4 7.95 8.25 9.45 L10.1 13.05 Q10.35 15.4 5.15 15.15 L4.05 15.15 Q0.7 14.9 0.25 13.55 L0.0 3.6" fill="none" stroke="#000000" stroke-linecap="round" stroke-linejoin="round" stroke-width="1.5"/>
  </g>
</svg>
