<?xml version="1.0" encoding="UTF-8" standalone="no"?>
<svg xmlns:xlink="http://www.w3.org/1999/xlink" height="71.85px" width="59.9px" xmlns="http://www.w3.org/2000/svg">
  <g transform="matrix(1.0, 0.0, 0.0, 1.0, 13.25, 81.9)">
    <path d="M34.5 -51.15 Q42.15 -52.4 43.85 -51.15 L45.1 -50.1 Q44.45 -48.4 37.4 -44.75 18.65 -38.95 1.05 -38.1 L5.15 -41.65 Q23.55 -42.65 34.5 -51.15 M-1.25 -77.4 Q12.75 -83.0 28.75 -80.8 29.55 -68.85 32.5 -57.7 20.7 -49.2 5.55 -48.6 L0.25 -71.5 Q17.5 -74.95 23.3 -79.05 -5.25 -71.8 -1.25 -77.4" fill="#792baa" fill-rule="evenodd" stroke="none"/>
    <path d="M45.1 -50.1 Q46.55 -48.85 46.0 -47.65 45.55 -46.75 34.7 -41.3 23.75 -35.9 6.8 -35.2 -10.25 -34.55 -12.7 -36.45 -13.4 -39.4 -3.9 -41.6 0.85 -41.4 5.15 -41.65 L1.05 -38.1 Q18.65 -38.95 37.4 -44.75 44.45 -48.4 45.1 -50.1 M-4.65 -48.75 Q-6.3 -61.2 -11.4 -72.15 -6.45 -75.3 -1.25 -77.4 -5.25 -71.8 23.3 -79.05 17.5 -74.95 0.25 -71.5 L5.55 -48.6 2.8 -48.55 2.7 -48.55 2.65 -48.55 -4.65 -48.75" fill="#451862" fill-rule="evenodd" stroke="none"/>
    <path d="M32.5 -57.7 L34.5 -51.15 Q23.55 -42.65 5.15 -41.65 6.5 -44.5 5.55 -48.6 20.7 -49.2 32.5 -57.7" fill="#2c2f31" fill-rule="evenodd" stroke="none"/>
    <path d="M-3.9 -41.6 L-4.65 -48.75 2.65 -48.55 2.7 -48.55 2.8 -48.55 5.55 -48.6 Q6.5 -44.5 5.15 -41.65 0.85 -41.4 -3.9 -41.6" fill="#141617" fill-rule="evenodd" stroke="none"/>
    <path d="M34.5 -51.15 Q42.15 -52.4 43.85 -51.15 L45.1 -50.1 Q46.55 -48.85 46.0 -47.65 45.55 -46.75 34.7 -41.3 23.75 -35.9 6.8 -35.2 -10.25 -34.55 -12.7 -36.45 -13.4 -39.4 -3.9 -41.6 L-4.65 -48.75 Q-6.3 -61.2 -11.4 -72.15 -6.45 -75.3 -1.25 -77.4 12.75 -83.0 28.75 -80.8 29.55 -68.85 32.5 -57.7 L34.5 -51.15 Q23.55 -42.65 5.15 -41.65 0.85 -41.4 -3.9 -41.6 M5.55 -48.6 Q20.7 -49.2 32.5 -57.7 M5.55 -48.6 L2.8 -48.55 2.7 -48.55 2.65 -48.55 -4.65 -48.75" fill="none" stroke="#000000" stroke-linecap="round" stroke-linejoin="round" stroke-width="1.0"/>
    <path d="M17.6 -34.65 Q20.0 -34.0 21.35 -31.9 22.7 -29.65 22.05 -27.15 21.45 -24.7 19.2 -23.4 16.95 -22.05 14.55 -22.65 12.05 -23.4 10.7 -25.6 9.35 -27.7 10.1 -30.15 10.65 -32.8 12.8 -34.0 15.0 -35.3 17.6 -34.65" fill="#ffffff" fill-opacity="0.2509804" fill-rule="evenodd" stroke="none"/>
    <path d="M17.6 -34.65 Q15.0 -35.3 12.8 -34.0 10.65 -32.8 10.1 -30.15 9.35 -27.7 10.7 -25.6 12.05 -23.4 14.55 -22.65 16.95 -22.05 19.2 -23.4 21.45 -24.7 22.05 -27.15 22.7 -29.65 21.35 -31.9 20.0 -34.0 17.6 -34.65 M8.85 -28.05 Q8.75 -29.2 9.05 -30.45 9.8 -33.45 12.35 -35.0 L12.3 -35.0 Q14.85 -36.5 17.85 -35.75 20.7 -35.0 22.25 -32.5 23.75 -29.95 23.1 -26.95 22.25 -24.0 19.7 -22.5 17.15 -21.0 14.3 -21.7 11.3 -22.45 9.8 -25.05 L9.2 -26.35 7.2 -26.3 7.2 -26.45 Q5.4 -17.85 3.4 -11.6 2.6 -9.1 2.6 -10.65 4.3 -18.4 6.75 -27.05 7.0 -27.6 7.15 -27.1 L7.05 -27.8 8.85 -28.05 Q8.9 -27.2 9.2 -26.35 8.9 -27.2 8.85 -28.05 M7.2 -26.45 L7.15 -27.1 7.2 -26.45" fill="#141617" fill-rule="evenodd" stroke="none"/>
    <path d="M17.6 -34.65 Q15.0 -35.3 12.8 -34.0 10.65 -32.8 10.1 -30.15 9.35 -27.7 10.7 -25.6 12.05 -23.4 14.55 -22.65 16.95 -22.05 19.2 -23.4 21.45 -24.7 22.05 -27.15 22.7 -29.65 21.35 -31.9 20.0 -34.0 17.6 -34.65 M8.85 -28.05 Q8.75 -29.2 9.05 -30.45 9.8 -33.45 12.35 -35.0 L12.3 -35.0 Q14.85 -36.5 17.85 -35.75 20.7 -35.0 22.25 -32.5 23.75 -29.95 23.1 -26.95 22.25 -24.0 19.7 -22.5 17.15 -21.0 14.3 -21.7 11.3 -22.45 9.8 -25.05 L9.2 -26.35 7.2 -26.3 7.2 -26.45 Q5.4 -17.85 3.4 -11.6 2.6 -9.1 2.6 -10.65 4.3 -18.4 6.75 -27.05 7.0 -27.6 7.15 -27.1 L7.05 -27.8 8.85 -28.05 Q8.9 -27.2 9.2 -26.35 M7.15 -27.1 L7.2 -26.45" fill="none" stroke="#000000" stroke-linecap="round" stroke-linejoin="round" stroke-width="0.05"/>
  </g>
</svg>
