<?xml version="1.0" encoding="UTF-8" standalone="no"?>
<svg xmlns:xlink="http://www.w3.org/1999/xlink" height="37.4px" width="28.2px" xmlns="http://www.w3.org/2000/svg">
  <g transform="matrix(1.0, 0.0, 0.0, 1.0, 0.75, 0.75)">
    <path d="M14.25 35.9 Q4.95 27.0 4.3 20.15 3.65 13.35 1.4 7.95 -0.9 2.55 0.6 0.2 8.0 -1.5 19.3 10.75 27.15 20.75 26.65 28.65 23.65 36.2 14.25 35.9 M14.05 30.9 Q15.95 32.7 20.45 31.4 21.75 30.35 21.6 28.3 13.9 7.65 5.5 6.2 5.05 24.3 14.05 30.9" fill="#6b626d" fill-rule="evenodd" stroke="none"/>
    <path d="M14.05 30.9 Q5.05 24.3 5.5 6.2 13.9 7.65 21.6 28.3 21.75 30.35 20.45 31.4 15.95 32.7 14.05 30.9" fill="#c299e2" fill-rule="evenodd" stroke="none"/>
    <path d="M26.65 28.65 Q27.15 20.75 19.3 10.75 8.0 -1.5 0.6 0.2 -0.9 2.55 1.4 7.95 3.65 13.35 4.3 20.15 4.95 27.0 14.25 35.9" fill="none" stroke="#000000" stroke-linecap="round" stroke-linejoin="round" stroke-width="1.5"/>
    <path d="M14.25 35.9 Q23.65 36.2 26.65 28.65 Z" fill="none" stroke="#000000" stroke-linecap="round" stroke-linejoin="round" stroke-width="1.0"/>
  </g>
</svg>
