<?xml version="1.0" encoding="UTF-8" standalone="no"?>
<svg xmlns:xlink="http://www.w3.org/1999/xlink" height="86.1px" width="336.45px" xmlns="http://www.w3.org/2000/svg">
  <g transform="matrix(1.0, 0.0, 0.0, 1.0, 97.15, 36.5)">
    <path d="M-96.5 5.3 Q-95.35 -3.8 -85.25 -10.5 -75.65 -16.85 -62.65 -17.85 -60.0 -23.75 -52.9 -28.45 -41.5 -36.0 -25.35 -36.0 -10.65 -36.0 0.15 -29.7 7.95 -32.3 17.35 -32.3 33.5 -32.3 44.9 -24.75 50.65 -20.95 53.5 -16.3 L60.45 -16.7 Q76.6 -16.7 88.0 -9.15 98.1 -2.45 99.25 6.65 98.1 15.75 88.0 22.45 78.05 29.05 64.45 29.9 61.7 33.6 56.9 36.75 45.5 44.3 29.35 44.3 15.3 44.3 4.85 38.6 -4.85 43.15 -17.4 43.15 -33.55 43.15 -44.95 35.6 -49.9 32.3 -52.7 28.45 L-57.7 28.65 Q-73.85 28.65 -85.25 21.1 -95.35 14.4 -96.5 5.3" fill="#ffffff" fill-rule="evenodd" stroke="none"/>
    <path d="M99.25 6.65 L99.4 9.05 Q99.4 19.7 88.0 27.25 78.05 33.85 64.45 34.7 61.7 38.4 56.9 41.55 45.5 49.1 29.35 49.1 15.3 49.1 4.85 43.4 -4.85 47.95 -17.4 47.95 -33.55 47.95 -44.95 40.4 -49.9 37.1 -52.7 33.25 L-57.7 33.45 Q-73.85 33.45 -85.25 25.9 -96.65 18.35 -96.65 7.7 L-96.5 5.3 Q-95.35 14.4 -85.25 21.1 -73.85 28.65 -57.7 28.65 L-52.7 28.45 Q-49.9 32.3 -44.95 35.6 -33.55 43.15 -17.4 43.15 -4.85 43.15 4.85 38.6 15.3 44.3 29.35 44.3 45.5 44.3 56.9 36.75 61.7 33.6 64.45 29.9 78.05 29.05 88.0 22.45 98.1 15.75 99.25 6.65" fill="#e0e0e0" fill-rule="evenodd" stroke="none"/>
    <path d="M-96.5 5.3 Q-95.35 -3.8 -85.25 -10.5 -75.65 -16.85 -62.65 -17.85 -60.0 -23.75 -52.9 -28.45 -41.5 -36.0 -25.35 -36.0 -10.65 -36.0 0.15 -29.7 7.95 -32.3 17.35 -32.3 33.5 -32.3 44.9 -24.75 50.65 -20.95 53.5 -16.3 L60.45 -16.7 Q76.6 -16.7 88.0 -9.15 98.1 -2.45 99.25 6.65 L99.4 9.05 Q99.4 19.7 88.0 27.25 78.05 33.85 64.45 34.7 61.7 38.4 56.9 41.55 45.5 49.1 29.35 49.1 15.3 49.1 4.85 43.4 -4.85 47.95 -17.4 47.95 -33.55 47.95 -44.95 40.4 -49.9 37.1 -52.7 33.25 L-57.7 33.45 Q-73.85 33.45 -85.25 25.9 -96.65 18.35 -96.65 7.7 L-96.5 5.3 Z" fill="none" stroke="#0066cc" stroke-linecap="round" stroke-linejoin="round" stroke-width="1.0"/>
    <path d="M238.45 -11.95 L238.8 -9.5 Q238.8 -5.5 235.35 -2.3 L235.35 -2.6 Q235.35 -4.6 234.5 -6.45 237.6 -8.95 238.45 -11.95 M235.0 -0.15 Q235.35 1.05 235.35 2.3 235.35 8.05 228.3 12.1 221.45 16.1 211.8 16.2 L209.55 17.65 Q202.55 21.75 192.65 21.75 183.3 21.75 176.55 18.1 L174.1 19.7 Q167.1 23.8 157.2 23.8 147.3 23.8 140.25 19.7 135.05 16.7 133.75 12.8 L131.05 12.85 Q121.15 12.85 114.1 8.75 107.1 4.7 107.1 -1.05 107.1 -2.3 107.45 -3.5 108.65 0.7 114.1 3.85 121.15 7.95 131.05 7.95 L133.75 7.9 Q135.05 11.8 140.25 14.8 147.3 18.9 157.2 18.9 167.1 18.9 174.1 14.8 L176.55 13.2 Q183.3 16.85 192.65 16.85 202.55 16.85 209.55 12.75 L211.8 11.3 Q221.45 11.2 228.3 7.2 233.8 4.05 235.0 -0.15" fill="#c9c9c9" fill-rule="evenodd" stroke="none"/>
    <path d="M107.45 -3.5 Q108.4 -6.8 111.95 -9.45 111.8 -10.15 111.8 -10.9 111.8 -16.65 118.8 -20.75 121.9 -22.55 125.6 -23.5 132.2 -26.9 141.25 -26.9 147.15 -26.9 152.0 -25.45 L153.25 -25.4 Q158.2 -26.9 164.2 -26.9 173.05 -26.9 179.6 -23.65 L185.7 -24.1 Q194.5 -24.1 201.05 -20.9 207.05 -23.4 214.85 -23.4 224.75 -23.4 231.75 -19.35 237.25 -16.15 238.45 -11.95 237.6 -8.95 234.5 -6.45 235.35 -4.6 235.35 -2.6 L235.35 -2.3 234.5 -1.55 235.0 -0.15 Q233.8 4.05 228.3 7.2 221.45 11.2 211.8 11.3 L209.55 12.75 Q202.55 16.85 192.65 16.85 183.3 16.85 176.55 13.2 L174.1 14.8 Q167.1 18.9 157.2 18.9 147.3 18.9 140.25 14.8 135.05 11.8 133.75 7.9 L131.05 7.95 Q121.15 7.95 114.1 3.85 108.65 0.7 107.45 -3.5" fill="#f3f3f3" fill-rule="evenodd" stroke="none"/>
    <path d="M107.45 -3.5 Q108.4 -6.8 111.95 -9.45 111.8 -10.15 111.8 -10.9 111.8 -16.65 118.8 -20.75 121.9 -22.55 125.6 -23.5 132.2 -26.9 141.25 -26.9 147.15 -26.9 152.0 -25.45 L153.25 -25.4 Q158.2 -26.9 164.2 -26.9 173.05 -26.9 179.6 -23.65 L185.7 -24.1 Q194.5 -24.1 201.05 -20.9 207.05 -23.4 214.85 -23.4 224.75 -23.4 231.75 -19.35 237.25 -16.15 238.45 -11.95 L238.8 -9.5 Q238.8 -5.5 235.35 -2.3 L235.0 -0.15 Q235.35 1.05 235.35 2.3 235.35 8.05 228.3 12.1 221.45 16.1 211.8 16.2 L209.55 17.65 Q202.55 21.75 192.65 21.75 183.3 21.75 176.55 18.1 L174.1 19.7 Q167.1 23.8 157.2 23.8 147.3 23.8 140.25 19.7 135.05 16.7 133.75 12.8 L131.05 12.85 Q121.15 12.85 114.1 8.75 107.1 4.7 107.1 -1.05 107.1 -2.3 107.45 -3.5 M235.0 -0.15 L234.5 -1.55 235.35 -2.3" fill="none" stroke="#0066cc" stroke-linecap="round" stroke-linejoin="round" stroke-width="1.0"/>
  </g>
</svg>
