<?xml version="1.0" encoding="UTF-8" standalone="no"?>
<svg xmlns:xlink="http://www.w3.org/1999/xlink" height="75.55px" width="498.2px" xmlns="http://www.w3.org/2000/svg">
  <g transform="matrix(1.0, 0.0, 0.0, 1.0, 250.5, 34.35)">
    <path d="M17.5 -7.3 L18.2 -3.6 18.2 -3.55 24.55 27.25 24.6 27.3 25.05 29.8 29.65 6.5 Q31.5 -2.9 38.8 -2.5 42.45 -2.5 43.75 -0.2 L44.05 -0.4 Q46.85 -2.5 50.85 -2.5 54.35 -2.5 57.35 -0.75 59.1 0.3 59.9 1.65 61.55 3.25 61.5 5.4 64.45 2.15 68.35 0.15 L68.3 0.15 Q73.45 -2.55 79.95 -2.55 83.95 -2.55 87.05 -1.35 90.25 -0.2 92.25 1.7 L93.75 3.45 Q95.4 5.2 96.2 7.2 97.15 9.8 96.65 12.05 96.1 14.95 93.55 16.95 L93.6 16.95 Q91.25 18.75 88.6 18.9 91.05 19.15 92.3 21.2 L92.25 21.1 92.45 21.35 93.3 22.4 93.9 23.5 Q95.15 20.7 97.55 18.45 L97.6 18.45 Q98.8 17.3 100.3 16.45 L99.9 16.05 99.25 15.2 98.9 14.85 Q97.2 12.95 97.75 10.1 98.35 6.85 101.25 3.8 L101.25 3.75 Q103.85 0.9 108.7 -0.9 112.9 -2.55 118.9 -2.55 125.5 -2.55 129.0 -0.9 131.6 0.25 132.95 2.3 134.55 3.85 135.15 6.15 L135.15 6.2 Q136.0 9.45 135.05 14.7 137.2 7.6 141.95 3.3 148.0 -2.4 156.1 -2.45 160.75 -2.45 163.6 -0.75 L163.6 -0.8 164.3 -0.35 165.65 -7.2 Q166.45 -11.2 168.6 -13.2 171.0 -15.75 174.55 -15.75 178.1 -15.75 179.55 -13.4 L179.55 -13.35 179.6 -13.3 180.5 -12.2 180.5 -12.15 Q181.9 -10.3 181.15 -6.45 L173.35 32.85 Q172.6 36.75 170.3 38.7 L170.25 38.8 Q167.7 40.9 164.55 40.95 161.45 40.95 159.8 38.7 L159.75 38.65 159.5 38.25 159.15 37.85 Q156.75 39.35 154.15 40.15 L154.1 40.2 Q151.4 40.95 148.55 40.95 144.65 40.95 141.7 39.35 L141.65 39.35 Q139.05 37.9 137.35 35.5 L135.85 33.45 135.85 33.4 Q134.1 30.4 133.7 26.5 133.45 24.25 133.65 21.9 L132.85 25.6 132.85 25.65 Q132.45 27.7 132.75 30.0 133.0 33.35 132.75 34.35 132.35 36.9 129.65 39.05 L129.5 39.15 Q127.0 40.95 124.25 40.95 121.85 41.05 119.9 38.9 L119.95 38.85 119.35 38.1 118.95 37.7 118.95 37.65 118.6 37.2 113.95 39.5 113.85 39.55 Q110.0 40.95 105.65 40.95 101.5 40.95 98.65 39.35 L98.6 39.3 Q96.55 38.05 95.35 36.3 94.1 34.95 93.4 33.3 92.9 32.0 92.75 30.6 L91.85 31.9 Q90.2 34.3 87.2 36.4 84.35 38.45 80.45 39.7 76.65 40.9 72.2 40.9 62.55 40.9 58.3 35.2 L58.05 34.85 57.35 34.0 Q53.0 28.35 54.85 18.95 55.5 15.65 56.8 12.75 55.05 13.65 53.4 13.6 L50.3 12.85 47.95 12.4 Q47.15 12.4 46.6 12.75 45.8 13.35 45.25 14.45 44.35 16.25 43.65 18.6 42.85 21.25 42.1 25.1 L40.6 32.55 Q39.8 36.6 37.4 38.65 L37.3 38.8 Q34.65 40.95 31.45 40.95 28.1 40.95 26.55 38.6 L26.4 38.35 25.55 37.4 Q24.85 36.45 24.6 35.15 23.75 37.1 21.8 38.75 L21.75 38.75 Q19.0 40.95 15.85 40.95 13.95 40.95 12.8 40.3 L12.7 40.25 Q11.35 39.5 10.75 38.35 L10.7 38.3 9.7 37.1 Q9.15 36.2 8.75 34.25 L8.75 34.35 8.1 31.8 8.05 31.6 7.55 28.7 -7.0 28.7 -9.35 32.9 -9.4 32.9 Q-11.75 37.05 -13.15 38.55 L-13.25 38.6 Q-15.35 40.95 -19.2 40.95 -22.2 40.95 -24.05 38.85 L-24.05 38.8 -24.5 38.2 -25.05 37.65 -25.05 37.6 Q-26.95 35.3 -26.35 32.4 -26.05 31.0 -25.35 29.55 L-25.3 29.4 -23.5 26.35 -23.55 26.35 -5.15 -4.75 -5.1 -4.75 -3.2 -7.95 -0.65 -11.6 Q0.85 -13.5 3.25 -14.65 5.3 -15.75 8.15 -15.75 11.1 -15.75 12.8 -14.6 14.15 -13.75 15.05 -12.4 L16.4 -10.45 Q17.1 -9.05 17.45 -7.35 L17.5 -7.3 M217.3 8.15 Q218.65 12.35 217.8 16.65 216.8 21.85 213.45 23.5 L213.75 23.95 213.95 24.2 Q215.55 25.7 214.95 28.6 214.7 30.45 212.75 32.95 L212.75 33.0 Q211.15 35.0 208.35 36.9 L208.3 36.95 Q205.7 38.65 202.15 39.85 L202.1 39.85 Q198.55 40.95 194.2 40.95 184.25 40.95 179.85 35.15 L179.5 34.65 178.9 33.95 Q174.4 28.3 176.35 18.55 177.25 14.05 179.3 10.3 L179.35 10.25 Q181.5 6.3 184.7 3.45 L184.75 3.4 Q188.05 0.45 192.3 -1.05 L192.25 -1.05 Q196.35 -2.55 200.95 -2.55 207.1 -2.55 211.0 0.1 213.2 1.55 214.65 3.55 216.45 5.55 217.3 8.15 M247.3 -19.65 L247.3 -19.6 Q248.2 -16.95 247.15 -11.6 L245.85 -6.2 240.45 12.75 Q239.25 17.0 237.65 19.2 L237.65 19.3 Q236.1 21.4 234.1 22.3 L235.95 23.85 236.0 24.05 236.45 24.65 237.05 25.3 237.15 25.45 Q239.25 28.15 238.55 31.9 237.65 36.35 234.35 38.75 231.1 41.2 227.4 41.2 223.85 41.2 221.55 38.9 L221.45 38.85 220.55 37.6 220.45 37.5 220.35 37.45 Q217.9 34.85 218.75 30.5 219.55 26.7 222.8 24.0 224.7 22.4 226.9 21.75 L226.0 20.55 Q224.8 19.6 224.4 17.8 L224.4 17.85 Q223.75 15.7 224.25 11.35 L224.15 11.2 226.55 -7.15 227.8 -15.1 Q228.65 -19.8 231.9 -22.45 235.05 -25.4 239.4 -25.4 244.2 -25.4 245.7 -22.45 246.95 -21.45 247.3 -19.65 M199.25 10.85 Q197.25 10.8 195.7 12.2 L195.2 12.75 202.15 12.75 201.8 11.6 Q200.8 10.85 199.25 10.85 M191.85 25.0 L192.1 26.05 192.45 26.95 192.65 27.1 192.7 27.15 Q193.85 27.85 195.35 27.85 L197.5 27.65 199.45 26.8 201.7 25.35 201.65 25.4 202.15 25.0 191.85 25.0 M157.1 11.35 Q155.6 11.35 154.3 12.2 152.85 13.1 151.85 14.85 L151.85 14.95 Q150.55 17.0 150.0 19.75 149.45 22.65 149.9 24.75 L150.4 26.05 150.45 26.1 Q151.5 26.85 152.9 26.85 154.35 26.85 155.75 26.15 157.1 25.3 158.25 23.65 L158.2 23.7 Q159.5 21.6 160.1 18.55 160.65 15.7 160.2 13.7 L159.65 12.3 159.6 12.25 159.5 12.2 Q158.5 11.35 157.1 11.35 M117.45 10.85 Q115.05 10.85 113.75 11.45 L113.7 11.45 111.7 13.0 116.8 12.0 116.75 12.0 119.45 11.3 119.45 11.05 117.45 10.85 M116.35 24.5 L111.15 25.65 111.0 25.7 Q110.15 25.9 109.3 26.5 L108.9 27.25 108.9 27.7 110.15 27.9 Q112.1 27.9 113.9 27.1 L113.8 27.2 Q115.3 26.4 116.2 25.3 L116.25 25.2 116.75 24.4 116.35 24.5 M84.85 17.8 L84.75 17.7 83.7 16.4 Q82.85 15.6 82.05 13.95 L82.0 13.95 81.2 12.5 80.9 12.2 Q79.95 11.5 78.25 11.5 75.8 11.5 73.9 13.45 L73.85 13.45 Q71.6 15.85 70.8 20.05 70.4 22.1 70.55 23.85 70.65 25.15 71.2 26.2 L71.75 26.55 71.8 26.6 74.1 27.05 Q75.8 27.05 77.2 26.35 78.75 25.4 80.15 23.6 81.65 21.6 83.15 20.5 85.1 19.0 87.45 18.9 85.85 18.7 84.85 17.8 M5.1 14.25 L4.2 8.55 1.05 14.25 5.1 14.25 M-188.85 -24.1 L-188.15 -20.4 -188.15 -20.35 -181.8 10.45 -181.75 10.5 -181.35 12.4 -176.7 -11.25 Q-175.9 -15.2 -173.65 -17.0 L-173.75 -16.95 Q-171.4 -19.3 -167.95 -19.3 -166.0 -19.3 -164.55 -18.35 -163.55 -17.7 -162.9 -16.65 L-162.55 -16.25 -160.3 -17.5 Q-156.6 -19.3 -152.2 -19.3 -147.85 -19.3 -144.8 -17.35 -142.95 -16.25 -141.8 -14.55 -140.3 -12.95 -139.55 -10.6 L-139.55 -10.5 Q-138.9 -8.5 -139.0 -6.15 -139.1 -4.1 -139.75 -0.85 L-143.05 15.75 Q-143.8 19.7 -146.1 21.75 L-146.25 21.85 Q-148.8 24.15 -152.15 24.15 -155.45 24.15 -157.1 21.75 L-157.3 21.45 -158.1 20.55 Q-159.65 18.5 -158.9 14.55 L-155.95 -0.3 Q-155.35 -3.25 -155.6 -5.0 L-156.9 -5.2 Q-158.3 -5.2 -159.6 -4.35 L-159.65 -4.3 Q-161.05 -3.45 -161.95 -1.95 L-161.95 -1.9 -162.0 -1.8 Q-162.8 0.0 -163.7 4.55 L-165.95 15.75 Q-166.75 19.8 -169.15 21.85 L-169.2 21.95 Q-171.75 24.15 -175.1 24.15 -178.35 24.15 -180.0 21.75 L-180.2 21.45 -181.0 20.55 Q-181.6 19.75 -181.85 18.6 -182.75 20.4 -184.55 21.95 L-184.6 21.95 Q-187.35 24.15 -190.5 24.15 -192.4 24.15 -193.55 23.5 L-193.65 23.45 Q-195.0 22.7 -195.6 21.55 L-195.65 21.5 -196.65 20.3 Q-197.2 19.4 -197.6 17.45 L-197.6 17.55 -198.25 15.0 -198.3 14.8 -198.8 11.9 -213.35 11.9 -215.7 16.1 -215.75 16.1 Q-218.1 20.25 -219.5 21.75 L-219.6 21.8 Q-221.7 24.15 -225.55 24.15 -228.55 24.15 -230.4 22.05 L-230.4 22.0 -230.85 21.4 -231.4 20.85 -231.4 20.8 Q-233.3 18.5 -232.7 15.6 -232.4 14.2 -231.7 12.75 L-231.65 12.6 -229.85 9.55 -229.9 9.55 -211.5 -21.55 -211.45 -21.55 -209.55 -24.75 -207.0 -28.4 Q-205.5 -30.3 -203.1 -31.45 -201.05 -32.55 -198.2 -32.55 -195.25 -32.55 -193.55 -31.4 -192.2 -30.55 -191.3 -29.2 -190.45 -28.35 -189.95 -27.25 -189.25 -25.85 -188.9 -24.15 L-188.85 -24.1 M-201.25 -2.55 L-202.15 -8.25 -205.3 -2.55 -201.25 -2.55 M-118.85 -29.15 Q-116.75 -27.3 -117.5 -23.65 -118.2 -20.05 -121.0 -18.1 L-122.3 -17.25 -122.1 -17.0 -122.15 -17.0 -121.85 -16.6 -121.15 -15.8 -121.2 -15.8 Q-119.45 -13.75 -120.2 -10.05 L-125.3 15.75 Q-126.05 19.75 -128.6 21.85 -131.15 24.15 -134.5 24.15 -137.85 24.1 -139.4 21.7 L-139.4 21.75 -139.65 21.35 -140.35 20.5 -140.4 20.55 Q-141.95 18.5 -141.2 14.55 L-136.15 -10.95 Q-135.35 -14.95 -132.95 -16.95 L-132.9 -17.0 Q-132.15 -17.75 -131.25 -18.2 L-132.0 -19.2 -132.1 -19.3 -132.15 -19.35 Q-134.1 -21.3 -133.4 -24.85 -132.8 -28.05 -129.95 -30.2 L-129.95 -30.15 Q-127.45 -32.15 -124.45 -32.15 -121.65 -32.15 -119.8 -30.35 L-118.85 -29.15 M-61.75 -10.8 L-61.7 -10.75 Q-60.85 -7.95 -62.05 -1.85 L-62.1 -1.5 Q-61.3 -4.15 -60.0 -6.5 L-59.95 -6.55 Q-57.8 -10.5 -54.6 -13.35 L-54.55 -13.4 Q-51.25 -16.35 -47.0 -17.85 L-47.05 -17.85 Q-42.95 -19.35 -38.35 -19.35 -32.2 -19.35 -28.3 -16.7 -26.1 -15.25 -24.65 -13.25 -22.85 -11.25 -22.0 -8.65 -20.65 -4.45 -21.5 -0.15 -22.5 5.05 -25.85 6.7 L-25.55 7.15 -25.35 7.4 Q-23.75 8.9 -24.35 11.8 -24.6 13.65 -26.55 16.15 L-26.55 16.2 Q-28.15 18.2 -30.95 20.1 L-31.0 20.15 Q-33.6 21.85 -37.15 23.05 L-37.2 23.05 Q-40.75 24.15 -45.1 24.15 -55.05 24.15 -59.45 18.35 L-59.8 17.85 -60.4 17.15 Q-64.05 12.55 -63.45 5.25 L-65.5 15.55 Q-66.3 19.7 -68.7 21.75 L-68.75 21.8 Q-71.4 24.15 -74.85 24.15 -78.2 24.15 -79.85 21.8 L-79.85 21.75 -80.0 21.55 -80.85 20.6 -80.85 20.55 Q-82.5 18.45 -81.7 14.35 L-78.75 -0.65 Q-78.2 -3.25 -78.1 -4.8 L-78.1 -5.1 -78.5 -5.15 Q-79.35 -5.15 -80.2 -4.6 L-80.25 -4.6 -81.95 -3.05 Q-83.1 -1.15 -84.05 3.7 L-86.4 15.55 Q-87.2 19.7 -89.6 21.75 L-89.65 21.8 Q-92.3 24.1 -95.7 24.15 -99.15 24.15 -100.75 21.75 L-100.95 21.5 -101.75 20.55 Q-103.3 18.5 -102.5 14.35 L-99.7 0.15 Q-99.05 -3.0 -98.95 -4.7 L-98.95 -4.75 -98.9 -5.15 -99.15 -5.15 Q-101.35 -5.15 -102.4 -3.85 -104.05 -1.3 -105.0 3.5 L-107.4 15.55 Q-108.2 19.6 -110.55 21.7 L-110.6 21.75 Q-113.2 24.15 -116.65 24.15 -120.1 24.15 -121.7 21.75 L-121.65 21.75 -121.75 21.6 -122.7 20.55 -122.65 20.55 Q-124.3 18.45 -123.5 14.35 L-118.45 -11.15 Q-117.7 -15.05 -115.4 -17.0 -112.95 -19.3 -109.65 -19.3 -106.55 -19.3 -104.9 -17.2 L-104.85 -17.1 -104.4 -16.5 -104.3 -16.4 -102.1 -17.6 -102.05 -17.65 Q-98.5 -19.25 -94.5 -19.25 -90.3 -19.25 -87.6 -17.5 L-87.65 -17.5 Q-86.25 -16.7 -85.2 -15.4 -83.45 -16.75 -81.65 -17.55 L-81.6 -17.55 Q-78.1 -19.25 -74.2 -19.25 -69.7 -19.25 -66.85 -17.4 -65.0 -16.3 -63.9 -14.65 -62.4 -13.05 -61.75 -10.8 M-40.05 -5.95 Q-42.05 -6.0 -43.6 -4.6 L-44.1 -4.05 -37.15 -4.05 -37.5 -5.2 Q-38.5 -5.95 -40.05 -5.95 M-47.45 8.2 L-47.2 9.25 -46.85 10.15 -46.65 10.3 -46.6 10.35 Q-45.45 11.05 -43.95 11.05 L-41.8 10.85 -39.85 10.0 -37.6 8.55 -37.65 8.6 -37.15 8.2 -47.45 8.2" fill="#002c46" fill-opacity="0.5372549" fill-rule="evenodd" stroke="none"/>
    <path d="M26.3 -14.65 L235.5 -14.65 226.9 -5.65 17.65 -5.65 26.3 -14.65" fill="url(#gradient0)" fill-rule="evenodd" stroke="none"/>
    <path d="M-241.2 25.75 L-15.55 25.75 -24.85 33.15 -250.5 33.15 -241.2 25.75" fill="url(#gradient1)" fill-rule="evenodd" stroke="none"/>
    <path d="M-191.85 -25.9 L-191.15 -22.2 -191.15 -22.15 -184.8 8.65 -184.75 8.7 Q-183.8 12.95 -184.25 14.9 -184.8 17.8 -187.55 20.15 L-187.6 20.15 Q-190.35 22.35 -193.5 22.35 -195.4 22.35 -196.55 21.7 L-196.65 21.65 Q-198.0 20.9 -198.65 19.7 -199.25 18.8 -199.65 16.85 L-200.25 14.4 -200.35 14.2 -201.0 10.1 -216.35 10.1 -218.7 14.3 -218.75 14.3 Q-221.1 18.45 -222.5 19.95 L-222.6 20.0 Q-224.7 22.35 -228.55 22.35 -231.55 22.35 -233.4 20.25 L-233.4 20.2 Q-235.35 17.9 -234.75 15.0 L-233.7 12.15 -233.7 12.0 -231.9 8.95 -231.95 8.95 -213.55 -22.15 -213.5 -22.15 -211.55 -25.35 -211.65 -25.25 Q-210.35 -27.5 -209.05 -29.0 -207.5 -30.9 -205.15 -32.05 -203.05 -33.15 -200.2 -33.15 -197.25 -33.15 -195.6 -32.0 -193.8 -30.9 -192.95 -29.05 -192.25 -27.65 -191.9 -25.95 L-191.85 -25.9 M-209.0 -3.15 L-203.3 -3.15 -204.6 -11.1 -209.0 -3.15 M-178.75 -11.85 Q-177.95 -15.8 -175.7 -17.6 L-175.8 -17.55 Q-173.45 -19.9 -170.0 -19.9 -168.05 -19.9 -166.6 -18.95 -165.4 -18.2 -164.75 -16.8 L-162.35 -18.1 Q-158.65 -19.9 -154.25 -19.9 -149.9 -19.9 -146.85 -17.95 -143.7 -16.1 -142.55 -12.4 L-142.55 -12.3 Q-141.9 -10.3 -142.0 -7.95 -142.1 -5.9 -142.75 -2.65 L-146.05 13.95 Q-146.8 17.9 -149.1 19.95 L-149.25 20.05 Q-151.8 22.35 -155.15 22.35 -158.45 22.35 -160.1 19.95 -161.7 17.9 -160.95 13.95 L-158.0 -0.9 Q-157.3 -4.4 -157.8 -6.25 -158.3 -7.0 -159.9 -7.0 -161.3 -7.0 -162.6 -6.15 L-162.65 -6.1 Q-164.05 -5.25 -164.95 -3.75 L-164.95 -3.7 -165.0 -3.6 Q-165.8 -1.8 -166.7 2.75 L-168.95 13.95 Q-169.75 18.0 -172.15 20.05 L-172.2 20.15 Q-174.75 22.35 -178.1 22.35 -181.35 22.35 -183.0 19.95 -184.6 17.9 -183.85 13.95 L-178.75 -11.85 M-138.2 -11.55 Q-137.4 -15.55 -135.0 -17.55 L-134.95 -17.6 -133.0 -18.95 -134.15 -19.9 Q-136.15 -21.85 -135.45 -25.45 -134.8 -28.65 -132.0 -30.8 L-132.0 -30.75 Q-129.5 -32.75 -126.5 -32.75 -123.7 -32.75 -121.85 -30.95 -119.75 -29.1 -120.5 -25.45 -121.2 -21.85 -124.0 -19.9 L-125.55 -18.95 -124.15 -17.6 -124.2 -17.6 Q-122.45 -15.55 -123.2 -11.85 L-128.3 13.95 Q-129.05 17.95 -131.6 20.05 -134.15 22.35 -137.5 22.35 -140.85 22.3 -142.4 19.9 L-142.4 19.95 Q-144.0 17.9 -143.25 13.95 L-138.2 -11.55 M-117.45 -17.6 Q-115.0 -19.9 -111.7 -19.9 -108.6 -19.9 -106.95 -17.8 L-106.9 -17.7 -106.35 -17.0 Q-105.3 -17.7 -104.15 -18.2 L-104.05 -18.25 Q-100.55 -19.85 -96.55 -19.85 -92.35 -19.85 -89.65 -18.1 L-89.7 -18.1 Q-88.3 -17.3 -87.25 -16.0 -85.5 -17.35 -83.7 -18.15 L-83.65 -18.15 Q-80.15 -19.85 -76.25 -19.85 -71.75 -19.85 -68.85 -18.0 -65.75 -16.1 -64.75 -12.6 L-64.7 -12.55 Q-63.85 -9.75 -65.05 -3.65 L-68.5 13.75 Q-69.3 17.9 -71.7 19.95 L-71.75 20.0 Q-74.4 22.35 -77.85 22.35 -81.2 22.35 -82.85 20.0 L-82.85 19.95 Q-84.55 17.85 -83.75 13.75 L-80.8 -1.25 Q-80.25 -3.85 -80.15 -5.4 -80.15 -6.2 -80.45 -6.7 L-81.5 -6.95 Q-82.35 -6.95 -83.2 -6.4 L-83.25 -6.4 -84.95 -4.85 Q-86.1 -2.95 -87.05 1.9 L-89.4 13.75 Q-90.2 17.9 -92.6 19.95 L-92.65 20.0 Q-95.3 22.3 -98.7 22.35 -102.15 22.35 -103.75 19.95 -105.35 17.9 -104.55 13.75 L-101.75 -0.45 Q-101.1 -3.6 -101.0 -5.3 L-100.95 -5.35 Q-100.9 -6.2 -101.25 -6.75 L-101.3 -6.8 -102.15 -6.95 Q-104.35 -6.95 -105.4 -5.65 -107.05 -3.1 -108.0 1.7 L-110.4 13.75 Q-111.2 17.8 -113.55 19.9 L-113.6 19.95 Q-116.2 22.35 -119.65 22.35 -123.1 22.35 -124.7 19.95 L-124.65 19.95 Q-126.35 17.85 -125.55 13.75 L-120.5 -11.75 Q-119.75 -15.65 -117.45 -17.6 M-40.4 -19.95 Q-34.25 -19.95 -30.35 -17.3 -26.35 -14.7 -25.0 -10.45 -23.65 -6.25 -24.5 -1.95 -25.55 3.4 -29.05 5.0 L-28.35 5.6 Q-26.75 7.1 -27.35 10.0 -27.6 11.85 -29.55 14.35 L-29.55 14.4 Q-31.15 16.4 -33.95 18.3 L-34.0 18.35 Q-36.6 20.05 -40.15 21.25 L-40.2 21.25 Q-43.75 22.35 -48.1 22.35 -58.05 22.35 -62.45 16.55 -66.95 10.9 -65.0 1.15 -64.1 -3.35 -62.0 -7.1 L-62.0 -7.15 Q-59.8 -11.15 -56.6 -14.0 L-56.6 -13.95 Q-53.3 -16.95 -49.05 -18.45 L-49.1 -18.45 Q-45.0 -19.95 -40.4 -19.95 M-43.05 -7.75 Q-45.05 -7.8 -46.6 -6.4 L-48.0 -4.65 -39.2 -4.65 -39.8 -6.35 -39.85 -6.4 Q-40.95 -7.75 -43.05 -7.75 M-37.7 6.4 L-50.45 6.4 -50.2 7.45 Q-49.8 8.9 -48.7 9.7 L-48.65 9.75 Q-47.5 10.45 -46.0 10.45 L-43.85 10.25 -41.9 9.4 -39.65 7.95 -37.7 6.4" fill="#000000" fill-rule="evenodd" stroke="none"/>
    <path d="M-192.8 -27.1 L-192.1 -23.4 -192.1 -23.35 -185.75 7.45 -185.7 7.5 Q-184.75 11.75 -185.25 13.7 -185.75 16.6 -188.5 18.95 L-188.55 18.95 Q-191.3 21.15 -194.45 21.15 -196.3 21.15 -197.5 20.5 L-197.6 20.45 Q-198.95 19.7 -199.65 18.5 -200.2 17.6 -200.6 15.65 L-200.6 15.75 -201.25 13.2 -201.3 13.0 -202.0 8.9 -217.35 8.9 -219.65 13.1 -219.7 13.1 Q-222.1 17.25 -223.5 18.75 L-223.6 18.8 Q-225.65 21.15 -229.5 21.15 -232.5 21.15 -234.4 19.05 L-234.4 19.0 Q-236.3 16.7 -235.7 13.8 -235.4 12.4 -234.7 10.95 L-234.65 10.8 -232.85 7.75 -232.9 7.75 -214.5 -23.35 -214.45 -23.35 -212.55 -26.55 -210.0 -30.2 Q-208.5 -32.1 -206.1 -33.25 -204.05 -34.35 -201.2 -34.35 -198.25 -34.35 -196.55 -33.2 -194.8 -32.1 -193.9 -30.25 -193.2 -28.85 -192.85 -27.15 L-192.8 -27.1 M-209.95 -4.35 L-204.25 -4.35 -205.55 -12.3 -209.95 -4.35 M-179.7 -13.05 Q-178.9 -17.0 -176.65 -18.8 L-176.75 -18.75 Q-174.4 -21.1 -170.95 -21.1 -169.0 -21.1 -167.55 -20.15 -166.35 -19.4 -165.7 -18.0 L-163.3 -19.3 Q-159.6 -21.1 -155.2 -21.1 -150.85 -21.1 -147.8 -19.15 -144.6 -17.25 -143.5 -13.5 L-143.55 -13.6 Q-142.85 -11.55 -142.95 -9.15 -143.05 -7.1 -143.7 -3.85 L-147.0 12.75 Q-147.75 16.7 -150.1 18.75 L-150.2 18.85 Q-152.75 21.15 -156.1 21.15 -159.4 21.15 -161.1 18.75 -162.65 16.7 -161.9 12.75 L-158.95 -2.1 Q-158.25 -5.6 -158.75 -7.45 -159.25 -8.2 -160.85 -8.2 -162.25 -8.2 -163.55 -7.35 L-163.65 -7.3 Q-165.0 -6.45 -165.9 -4.95 L-165.9 -4.9 -165.95 -4.8 Q-166.8 -3.0 -167.7 1.55 L-169.9 12.75 Q-170.7 16.8 -173.1 18.85 L-173.15 18.95 Q-175.7 21.15 -179.05 21.15 -182.3 21.15 -184.0 18.75 -185.55 16.7 -184.8 12.75 L-179.7 -13.05 M-139.15 -12.75 Q-138.35 -16.75 -135.95 -18.75 L-135.9 -18.8 Q-135.0 -19.65 -133.95 -20.15 L-135.1 -21.1 -135.15 -21.15 Q-137.1 -23.1 -136.4 -26.65 -135.8 -29.85 -132.95 -32.0 L-132.95 -31.95 Q-130.45 -33.95 -127.45 -33.95 -124.65 -33.95 -122.8 -32.15 -120.75 -30.3 -121.45 -26.65 -122.15 -23.05 -124.95 -21.1 L-124.9 -21.15 -126.5 -20.15 -125.1 -18.8 -125.15 -18.8 Q-123.4 -16.75 -124.15 -13.05 L-129.25 12.75 Q-130.05 16.75 -132.55 18.85 -135.1 21.15 -138.45 21.15 -141.8 21.1 -143.35 18.7 L-143.4 18.75 Q-144.95 16.7 -144.2 12.75 L-139.15 -12.75 M-118.4 -18.8 Q-115.95 -21.1 -112.65 -21.1 -109.55 -21.1 -107.9 -19.0 L-107.85 -18.9 -107.35 -18.2 -105.1 -19.4 -105.05 -19.45 Q-101.5 -21.05 -97.5 -21.05 -93.3 -21.05 -90.6 -19.3 L-90.65 -19.3 Q-89.25 -18.5 -88.2 -17.2 L-84.65 -19.35 -84.6 -19.35 Q-81.1 -21.05 -77.2 -21.05 -72.7 -21.05 -69.85 -19.2 -66.7 -17.3 -65.7 -13.8 L-65.65 -13.75 Q-64.8 -10.95 -66.0 -4.85 L-69.45 12.55 Q-70.25 16.7 -72.7 18.75 L-72.75 18.8 Q-75.35 21.15 -78.8 21.15 -82.15 21.15 -83.85 18.8 L-83.85 18.75 Q-85.5 16.65 -84.7 12.55 L-81.75 -2.45 Q-81.2 -5.05 -81.1 -6.6 -81.1 -7.4 -81.4 -7.9 L-82.45 -8.15 Q-83.3 -8.15 -84.15 -7.6 L-84.2 -7.6 Q-85.2 -7.0 -85.95 -6.05 -87.05 -4.15 -88.0 0.7 L-90.35 12.55 Q-91.15 16.7 -93.6 18.75 L-93.65 18.8 Q-96.25 21.1 -99.65 21.15 -103.1 21.15 -104.75 18.75 -106.3 16.7 -105.5 12.55 L-102.7 -1.65 Q-102.05 -4.8 -101.95 -6.5 L-101.95 -6.55 Q-101.85 -7.4 -102.2 -7.95 L-102.25 -8.0 -103.1 -8.15 Q-105.3 -8.15 -106.35 -6.85 -108.0 -4.3 -108.95 0.5 L-111.35 12.55 Q-112.15 16.6 -114.5 18.7 L-114.6 18.75 Q-117.15 21.15 -120.6 21.15 -124.05 21.15 -125.7 18.75 L-125.65 18.75 Q-127.3 16.65 -126.5 12.55 L-121.45 -12.95 Q-120.7 -16.85 -118.4 -18.8 M-41.35 -21.15 Q-35.2 -21.15 -31.3 -18.5 -27.35 -15.9 -25.95 -11.65 -24.6 -7.45 -25.45 -3.15 -26.5 2.2 -30.0 3.8 L-29.3 4.4 Q-27.75 5.9 -28.3 8.8 -28.6 10.65 -30.5 13.15 L-30.55 13.2 Q-32.1 15.2 -34.9 17.1 L-34.95 17.15 Q-37.55 18.85 -41.15 20.05 L-41.2 20.05 Q-44.7 21.15 -49.05 21.15 -59.0 21.15 -63.4 15.35 -67.9 9.7 -65.95 -0.05 -65.05 -4.55 -63.0 -8.3 L-62.95 -8.35 Q-60.8 -12.3 -57.6 -15.15 L-57.55 -15.2 Q-54.25 -18.15 -50.0 -19.65 L-50.05 -19.65 Q-45.95 -21.15 -41.35 -21.15 M-44.0 -8.95 Q-46.0 -9.0 -47.55 -7.6 L-48.95 -5.85 -40.15 -5.85 Q-40.35 -6.85 -40.8 -7.55 L-40.8 -7.6 Q-41.9 -8.95 -44.0 -8.95 M-40.65 6.8 L-38.65 5.2 -51.4 5.2 -51.15 6.25 Q-50.75 7.7 -49.65 8.5 L-49.6 8.55 Q-48.45 9.25 -46.95 9.25 L-44.8 9.05 Q-43.85 8.75 -42.85 8.2 L-40.6 6.75 -40.65 6.8" fill="url(#gradient2)" fill-rule="evenodd" stroke="none"/>
    <path d="M-194.35 -26.55 L-193.6 -22.8 -193.6 -22.85 -187.2 8.0 -187.2 8.05 Q-186.3 11.9 -186.75 13.7 -187.15 16.0 -189.4 17.85 L-189.4 17.9 Q-191.6 19.65 -194.15 19.65 -195.7 19.65 -196.65 19.1 -197.7 18.55 -198.25 17.6 -198.8 16.75 -199.1 15.1 L-199.1 15.15 -199.75 12.6 -199.8 12.5 -200.65 7.4 -218.1 7.4 -221.0 12.6 Q-223.2 16.45 -224.55 17.85 L-224.55 17.9 Q-226.2 19.65 -229.2 19.65 -231.65 19.65 -233.1 17.95 L-233.15 17.95 Q-234.7 16.1 -234.2 13.8 L-233.35 11.35 -233.3 11.3 -231.6 8.3 -213.2 -22.8 -211.3 -26.0 -211.3 -25.95 Q-210.15 -28.05 -208.9 -29.45 L-208.9 -29.4 Q-207.65 -30.95 -205.7 -31.9 L-205.65 -31.9 Q-203.9 -32.85 -201.5 -32.85 -199.0 -32.85 -197.5 -31.9 -196.05 -31.0 -195.3 -29.45 L-195.3 -29.4 -194.3 -26.6 -194.35 -26.55 M-212.4 -2.85 L-202.35 -2.85 -204.7 -16.75 -212.4 -2.85 M-178.2 -13.05 Q-177.55 -16.25 -175.8 -17.75 -173.95 -19.6 -171.25 -19.6 -169.7 -19.6 -168.55 -18.85 -167.4 -18.1 -166.85 -16.6 L-166.85 -16.55 -166.7 -15.6 Q-164.8 -17.1 -162.95 -17.95 -159.5 -19.6 -155.5 -19.6 -151.55 -19.6 -148.75 -17.85 -146.0 -16.15 -144.95 -12.9 L-145.0 -12.85 Q-144.4 -11.05 -144.5 -8.9 -144.6 -6.95 -145.2 -3.85 L-148.5 12.75 Q-149.15 16.05 -151.05 17.8 L-151.1 17.85 Q-153.1 19.65 -155.8 19.65 -158.45 19.65 -159.75 17.75 -161.05 16.0 -160.4 12.75 L-157.45 -2.1 Q-156.65 -6.1 -157.25 -8.15 -157.95 -9.7 -160.55 -9.7 -162.45 -9.7 -164.25 -8.55 L-164.25 -8.5 Q-166.05 -7.4 -167.2 -5.4 L-167.25 -5.35 Q-168.2 -3.45 -169.2 1.55 L-171.4 12.75 Q-172.05 16.1 -174.0 17.85 L-174.05 17.9 Q-176.1 19.65 -178.75 19.65 -181.35 19.65 -182.65 17.75 -183.95 16.0 -183.3 12.75 L-178.2 -13.05 M-133.9 -22.25 L-133.95 -22.25 Q-135.45 -23.8 -134.9 -26.65 -134.4 -29.15 -132.2 -30.85 -130.15 -32.45 -127.75 -32.45 -125.45 -32.45 -124.0 -31.0 -122.4 -29.55 -122.95 -26.65 -123.5 -23.8 -125.7 -22.25 -127.7 -20.75 -130.05 -20.75 -132.45 -20.75 -133.9 -22.25 M-137.65 -12.75 Q-137.0 -16.05 -135.0 -17.75 -133.0 -19.6 -130.4 -19.6 -127.75 -19.6 -126.4 -17.8 L-126.4 -17.75 Q-125.05 -16.05 -125.65 -13.05 L-130.75 12.75 Q-131.4 16.1 -133.45 17.85 -135.45 19.65 -138.15 19.65 -140.8 19.65 -142.05 17.75 L-142.1 17.75 Q-143.35 16.0 -142.7 12.75 L-137.65 -12.75 M-117.45 -17.8 Q-115.55 -19.6 -112.95 -19.6 -110.45 -19.6 -109.2 -17.9 L-109.15 -17.9 Q-108.45 -17.1 -108.25 -15.9 -106.45 -17.25 -104.65 -18.05 L-104.65 -18.1 Q-101.4 -19.55 -97.8 -19.55 -94.0 -19.55 -91.6 -18.0 -89.85 -16.95 -88.75 -15.05 -86.5 -17.0 -84.15 -18.05 L-84.2 -18.0 Q-81.05 -19.55 -77.5 -19.55 -73.45 -19.55 -70.8 -17.9 -68.05 -16.25 -67.15 -13.15 L-67.2 -13.1 Q-66.4 -10.5 -67.5 -4.85 L-70.95 12.55 Q-71.65 16.05 -73.6 17.75 L-73.65 17.8 Q-75.7 19.65 -78.5 19.65 -81.15 19.65 -82.55 17.8 L-82.55 17.75 Q-83.85 15.95 -83.2 12.55 L-80.25 -2.45 -79.55 -6.85 Q-79.5 -8.1 -80.1 -8.95 L-80.1 -8.9 Q-80.7 -9.65 -82.15 -9.65 -83.45 -9.65 -84.75 -8.85 -86.25 -8.0 -87.2 -6.6 L-87.15 -6.7 Q-88.45 -4.6 -89.5 0.7 L-91.85 12.55 Q-92.55 16.05 -94.5 17.75 L-94.55 17.8 Q-96.65 19.65 -99.35 19.65 -102.1 19.65 -103.4 17.75 -104.7 16.05 -104.0 12.55 L-101.2 -1.65 Q-100.55 -4.9 -100.4 -6.7 L-100.45 -6.75 Q-100.3 -8.1 -100.85 -8.95 L-100.9 -9.0 Q-101.4 -9.65 -102.8 -9.65 -106.1 -9.65 -107.65 -7.5 -109.45 -4.75 -110.45 0.5 L-112.85 12.55 Q-113.5 15.95 -115.5 17.75 -117.55 19.65 -120.3 19.65 -123.05 19.65 -124.35 17.75 -125.65 15.95 -125.0 12.55 L-119.95 -12.95 Q-119.3 -16.2 -117.45 -17.8 M-41.65 -19.65 Q-35.95 -19.65 -32.35 -17.25 -28.7 -14.8 -27.4 -10.95 -26.15 -7.1 -26.95 -3.15 -27.85 1.35 -30.8 2.6 L-30.85 2.6 Q-33.25 3.7 -37.15 3.7 L-53.0 3.7 Q-53.1 5.45 -52.65 6.95 -52.05 8.8 -50.6 9.85 L-50.65 9.8 Q-49.2 10.75 -47.25 10.75 L-44.7 10.5 -44.6 10.45 Q-43.45 10.1 -42.3 9.45 L-39.8 7.85 -39.9 7.9 -36.7 5.4 -36.65 5.35 Q-35.45 4.4 -33.55 4.4 -31.5 4.4 -30.5 5.55 -29.4 6.65 -29.8 8.8 -30.05 10.3 -31.65 12.4 L-31.7 12.45 Q-33.1 14.25 -35.55 15.95 L-35.6 15.95 Q-38.05 17.55 -41.35 18.65 -44.7 19.65 -48.75 19.65 -58.0 19.65 -62.1 14.3 -66.25 9.0 -64.45 -0.05 -63.65 -4.25 -61.7 -7.8 L-61.65 -7.85 Q-59.65 -11.55 -56.7 -14.15 -53.65 -16.9 -49.7 -18.25 L-49.75 -18.25 Q-45.95 -19.65 -41.65 -19.65 M-43.7 -10.45 Q-46.4 -10.45 -48.45 -8.6 -50.2 -7.05 -51.25 -4.35 L-38.5 -4.35 Q-38.45 -7.1 -39.5 -8.6 L-39.45 -8.6 Q-40.9 -10.45 -43.7 -10.45" fill="url(#gradient3)" fill-rule="evenodd" stroke="none"/>
    <path d="M-198.3 11.95 L-199.35 5.9 -218.85 5.9 -222.3 12.05 Q-224.35 15.65 -225.55 16.95 -226.75 18.15 -228.9 18.15 -230.75 18.15 -231.9 16.85 -233.05 15.5 -232.7 13.8 L-232.0 11.75 -230.3 8.85 -211.95 -22.25 -210.0 -25.45 -207.8 -28.6 Q-206.8 -29.85 -205.25 -30.6 -203.8 -31.35 -201.8 -31.35 -199.75 -31.35 -198.55 -30.6 -197.35 -29.85 -196.7 -28.6 -196.15 -27.4 -195.85 -26.0 L-195.1 -22.3 -188.7 8.6 Q-187.9 12.1 -188.25 13.7 -188.55 15.4 -190.25 16.8 -191.9 18.15 -193.85 18.15 -195.0 18.15 -195.75 17.75 L-196.9 16.65 -197.65 14.5 -198.3 11.95 M-214.85 -1.35 L-200.55 -1.35 -203.85 -21.15 -214.85 -1.35 M-168.3 -13.15 L-168.55 -12.1 Q-165.55 -15.2 -162.5 -16.65 -159.4 -18.1 -155.8 -18.1 -152.25 -18.1 -149.75 -16.55 -147.3 -15.05 -146.45 -12.2 -145.95 -10.6 -146.05 -8.7 -146.15 -6.8 -146.7 -3.85 L-150.0 12.75 Q-150.5 15.4 -152.0 16.8 -153.5 18.15 -155.5 18.15 -157.45 18.15 -158.45 16.75 -159.4 15.35 -158.9 12.75 L-155.95 -2.1 Q-155.1 -6.55 -155.8 -8.85 -156.6 -11.2 -160.25 -11.2 -162.65 -11.2 -164.9 -9.75 -167.1 -8.35 -168.55 -5.9 -169.6 -3.9 -170.7 1.55 L-172.9 12.75 Q-173.4 15.45 -174.95 16.85 -176.45 18.15 -178.45 18.15 -180.35 18.15 -181.35 16.75 -182.3 15.35 -181.8 12.75 L-176.7 -13.05 Q-176.2 -15.6 -174.85 -16.8 -173.5 -18.1 -171.55 -18.1 -170.4 -18.1 -169.55 -17.55 -168.7 -17.0 -168.35 -15.9 -168.0 -14.75 -168.3 -13.15 M-129.8 -22.25 Q-131.65 -22.25 -132.7 -23.4 -133.8 -24.55 -133.4 -26.65 -133.05 -28.5 -131.4 -29.75 -129.85 -30.95 -128.05 -30.95 -126.3 -30.95 -125.2 -29.85 -124.05 -28.75 -124.45 -26.65 -124.85 -24.55 -126.45 -23.4 -128.0 -22.25 -129.8 -22.25 M-127.15 -13.05 L-132.25 12.75 Q-132.75 15.4 -134.35 16.8 -135.85 18.15 -137.85 18.15 -139.8 18.15 -140.75 16.75 -141.7 15.35 -141.2 12.75 L-136.15 -12.75 Q-135.65 -15.4 -134.1 -16.75 -132.65 -18.1 -130.7 -18.1 -128.7 -18.1 -127.7 -16.75 -126.7 -15.4 -127.15 -13.05 M-91.0 0.7 L-93.35 12.55 Q-93.9 15.35 -95.45 16.75 -97.0 18.15 -99.05 18.15 -101.1 18.15 -102.1 16.75 -103.05 15.35 -102.5 12.55 L-99.7 -1.65 Q-99.0 -5.05 -98.9 -6.9 -98.75 -8.75 -99.55 -9.95 -100.3 -11.15 -102.5 -11.15 -106.85 -11.15 -108.85 -8.15 -110.85 -5.15 -111.95 0.5 L-114.35 12.55 Q-114.9 15.3 -116.45 16.75 -117.95 18.15 -120.0 18.15 -122.05 18.15 -123.05 16.75 -124.05 15.3 -123.5 12.55 L-118.45 -12.95 Q-117.95 -15.5 -116.55 -16.8 -115.15 -18.1 -113.25 -18.1 -111.4 -18.1 -110.45 -16.85 -109.45 -15.65 -109.85 -13.5 L-110.0 -12.65 Q-107.2 -15.4 -104.25 -16.75 -101.35 -18.05 -98.1 -18.05 -94.75 -18.05 -92.6 -16.7 -90.45 -15.35 -89.4 -12.65 -86.65 -15.4 -83.75 -16.7 -80.95 -18.05 -77.8 -18.05 -74.15 -18.05 -71.8 -16.6 -69.45 -15.15 -68.65 -12.5 -68.0 -10.05 -69.0 -4.85 L-72.45 12.55 Q-73.0 15.35 -74.55 16.75 -76.1 18.15 -78.2 18.15 -80.2 18.15 -81.25 16.75 -82.25 15.3 -81.7 12.55 L-78.75 -2.45 Q-78.2 -5.3 -78.1 -7.05 -78.0 -8.8 -78.8 -9.95 -79.65 -11.15 -81.85 -11.15 -83.6 -11.15 -85.4 -10.1 -87.2 -9.05 -88.45 -7.3 -89.85 -5.05 -91.0 0.7 M-53.3 -2.85 L-37.1 -2.85 Q-36.55 -7.4 -38.2 -9.65 -39.95 -11.95 -43.4 -11.95 -46.75 -11.95 -49.35 -9.65 -51.95 -7.35 -53.3 -2.85 M-36.85 2.2 L-54.3 2.2 Q-54.85 5.25 -54.1 7.6 -53.45 9.9 -51.65 11.1 -49.9 12.25 -47.55 12.25 L-44.5 11.9 Q-43.15 11.5 -41.75 10.7 -40.35 9.9 -39.1 9.0 L-35.9 6.5 Q-35.1 5.9 -33.85 5.9 -32.45 5.9 -31.75 6.65 -31.05 7.4 -31.3 8.8 -31.55 10.0 -32.8 11.65 -34.1 13.25 -36.3 14.75 -38.5 16.2 -41.55 17.2 -44.65 18.15 -48.45 18.15 -57.0 18.15 -60.85 13.25 -64.6 8.35 -62.95 -0.05 -62.2 -4.0 -60.35 -7.35 -58.5 -10.75 -55.75 -13.15 -53.05 -15.6 -49.5 -16.85 -45.95 -18.15 -41.95 -18.15 -36.7 -18.15 -33.35 -15.95 -30.05 -13.75 -28.9 -10.25 -27.75 -6.75 -28.45 -3.15 -29.1 0.25 -31.2 1.25 -33.35 2.2 -36.85 2.2" fill="url(#gradient4)" fill-rule="evenodd" stroke="none"/>
    <path d="M14.5 -9.1 L15.2 -5.4 15.2 -5.35 21.55 25.45 21.6 25.5 Q22.55 29.75 22.1 31.7 21.55 34.6 18.8 36.95 L18.75 36.95 Q16.0 39.15 12.85 39.15 10.95 39.15 9.8 38.5 L9.7 38.45 Q8.35 37.7 7.7 36.5 7.1 35.6 6.7 33.65 L6.1 31.2 6.0 31.0 5.35 26.9 -10.0 26.9 -12.35 31.1 -12.4 31.1 Q-14.75 35.25 -16.15 36.75 L-16.25 36.8 Q-18.35 39.15 -22.2 39.15 -25.2 39.15 -27.05 37.05 L-27.05 37.0 Q-29.0 34.7 -28.4 31.8 L-27.35 28.95 -27.35 28.8 -25.55 25.75 -25.6 25.75 -7.2 -5.35 -7.15 -5.35 -5.2 -8.55 -5.3 -8.45 Q-4.0 -10.7 -2.7 -12.2 -1.15 -14.1 1.2 -15.25 3.3 -16.35 6.15 -16.35 9.1 -16.35 10.75 -15.2 12.55 -14.1 13.4 -12.25 14.1 -10.85 14.45 -9.15 L14.5 -9.1 M36.75 -3.1 Q40.4 -3.1 41.7 -0.8 L42.0 -1.0 Q44.8 -3.1 48.8 -3.1 52.3 -3.1 55.3 -1.35 59.3 1.0 58.3 5.05 L57.65 7.0 Q61.1 2.2 66.35 -0.45 L66.3 -0.45 Q71.4 -3.15 77.9 -3.15 81.9 -3.15 85.05 -1.95 88.2 -0.8 90.25 1.1 92.3 3.1 93.2 5.4 94.15 8.0 93.65 10.25 93.1 13.15 90.55 15.15 L90.6 15.15 Q88.1 17.1 85.2 17.1 83.05 17.1 81.85 16.0 L81.75 15.9 Q80.85 15.1 80.0 13.35 L79.95 13.35 Q79.05 11.4 77.9 10.4 76.95 9.7 75.25 9.7 72.8 9.7 70.9 11.65 L70.85 11.65 Q68.6 14.05 67.8 18.25 67.4 20.3 67.55 22.05 67.65 23.5 68.3 24.6 L68.35 24.65 Q68.8 25.5 69.7 25.95 L69.75 26.0 72.05 26.45 Q73.75 26.45 75.15 25.75 76.7 24.8 78.1 23.0 79.6 21.0 81.1 19.9 83.25 18.3 85.75 18.25 88.8 18.25 90.3 20.6 91.5 22.3 91.35 24.35 92.5 20.65 95.5 17.85 L95.55 17.85 Q97.0 16.5 98.75 15.55 97.65 15.1 96.9 14.25 95.15 12.35 95.7 9.5 96.3 6.25 99.2 3.2 L99.2 3.15 Q101.85 0.3 106.65 -1.5 110.85 -3.15 116.85 -3.15 123.45 -3.15 126.95 -1.5 131.05 0.3 132.15 4.35 L132.15 4.4 Q133.05 7.85 131.9 13.6 L130.85 18.9 129.85 23.8 129.85 23.85 Q129.45 25.9 129.75 28.2 130.0 31.55 129.75 32.55 129.35 35.1 126.65 37.25 L126.5 37.35 Q124.0 39.15 121.25 39.15 118.85 39.25 116.9 37.1 L116.95 37.05 115.7 35.35 Q113.25 36.8 110.95 37.7 L110.85 37.75 Q107.0 39.15 102.65 39.15 98.5 39.15 95.65 37.55 L95.6 37.5 Q92.6 35.7 91.4 32.7 90.25 29.9 90.75 26.75 90.1 28.35 88.85 30.1 87.2 32.5 84.2 34.6 81.35 36.65 77.45 37.9 73.65 39.1 69.2 39.1 59.55 39.1 55.3 33.4 50.95 27.75 52.8 18.35 53.85 13.1 56.4 8.9 L55.4 9.9 55.25 10.0 Q52.8 11.85 50.4 11.8 49.7 11.9 47.3 11.05 L44.95 10.6 Q44.15 10.6 43.6 10.95 42.8 11.55 42.25 12.65 41.35 14.45 40.65 16.8 39.85 19.45 39.1 23.3 L37.6 30.75 Q36.8 34.8 34.4 36.85 L34.3 37.0 Q31.65 39.15 28.45 39.15 25.1 39.15 23.55 36.8 21.95 34.75 22.7 30.75 L27.65 5.9 Q29.5 -3.5 36.75 -3.1 M139.9 2.7 Q145.95 -3.0 154.05 -3.05 158.7 -3.05 161.55 -1.35 L161.55 -1.4 162.3 -0.95 163.65 -7.8 Q164.45 -11.8 166.55 -13.8 169.0 -16.35 172.55 -16.35 176.1 -16.35 177.5 -14.0 L177.5 -13.95 Q178.9 -12.1 178.15 -8.25 L170.35 31.05 Q169.6 34.95 167.3 36.9 L167.25 37.0 Q164.7 39.1 161.55 39.15 158.45 39.15 156.8 36.9 L156.75 36.85 156.25 35.95 Q153.8 37.55 151.15 38.35 L151.1 38.4 145.55 39.15 Q141.65 39.15 138.7 37.55 L138.65 37.55 Q135.6 35.85 133.8 32.85 L133.8 32.8 Q132.05 29.8 131.7 25.9 L131.65 25.95 Q131.25 22.1 132.1 17.65 134.0 8.05 139.9 2.7 M182.7 2.85 Q186.0 -0.15 190.25 -1.65 L190.2 -1.65 Q194.3 -3.15 198.9 -3.15 205.05 -3.15 208.95 -0.5 212.95 2.1 214.3 6.35 215.65 10.55 214.8 14.85 213.75 20.2 210.25 21.8 L210.95 22.4 Q212.55 23.9 211.95 26.8 211.7 28.65 209.75 31.15 L209.75 31.2 Q208.15 33.2 205.35 35.1 L205.3 35.15 Q202.7 36.85 199.15 38.05 L199.1 38.05 Q195.55 39.15 191.2 39.15 181.25 39.15 176.85 33.35 172.35 27.7 174.3 17.95 175.2 13.45 177.3 9.7 L177.3 9.65 Q179.5 5.65 182.7 2.8 L182.7 2.85 M224.7 -7.55 L225.9 -15.5 Q226.85 -20.15 230.05 -22.9 233.2 -25.75 237.55 -25.75 243.4 -25.75 244.3 -21.45 L244.3 -21.4 Q245.2 -18.75 244.15 -13.4 L242.85 -8.0 237.45 10.95 Q236.25 15.2 234.65 17.4 L234.65 17.5 Q232.55 20.35 229.55 21.0 232.3 21.4 234.05 23.5 L234.15 23.65 Q236.25 26.35 235.55 30.1 234.65 34.55 231.35 36.95 228.1 39.4 224.4 39.4 220.85 39.4 218.55 37.1 L218.45 37.05 Q216.05 34.5 216.95 30.1 217.7 26.3 220.95 23.6 223.4 21.55 226.25 21.05 223.2 20.5 222.55 17.4 L222.55 17.5 Q221.9 15.35 222.35 10.95 L222.25 10.85 224.7 -7.55 M199.5 10.45 L199.45 10.4 Q198.35 9.05 196.25 9.05 194.25 9.0 192.7 10.4 L191.3 12.15 200.1 12.15 199.5 10.45 M201.6 23.2 L188.85 23.2 189.1 24.25 Q189.5 25.7 190.6 26.5 L190.65 26.55 Q191.8 27.25 193.3 27.25 L195.45 27.05 197.4 26.2 199.65 24.75 201.6 23.2 M154.1 9.55 Q152.6 9.55 151.3 10.4 149.85 11.3 148.85 13.05 L148.85 13.15 Q147.55 15.2 147.0 17.95 146.45 20.85 146.9 22.95 147.3 24.55 148.3 25.45 L148.4 25.5 Q149.45 26.25 150.85 26.25 152.3 26.25 153.7 25.55 155.05 24.7 156.2 23.05 L156.2 23.1 Q157.45 21.0 158.05 17.95 158.6 15.1 158.15 13.1 157.7 11.35 156.6 10.45 L156.5 10.4 Q155.5 9.55 154.1 9.55 M108.4 11.5 L107.25 12.9 108.8 12.55 108.85 12.55 114.75 11.4 114.7 11.4 117.45 10.7 117.15 9.5 Q116.5 9.05 114.45 9.05 112.05 9.05 110.75 9.65 L110.7 9.65 Q109.45 10.25 108.5 11.45 L108.4 11.5 M114.25 24.6 L115.3 22.25 113.35 22.7 108.15 23.85 108.0 23.9 Q107.15 24.1 106.3 24.7 L105.9 25.45 Q105.75 26.2 106.2 26.7 L106.15 26.7 Q106.85 27.3 108.1 27.3 110.05 27.3 111.85 26.5 L111.75 26.6 Q113.25 25.8 114.15 24.7 L114.25 24.6 M-2.65 13.65 L3.05 13.65 1.75 5.7 -2.65 13.65" fill="#000000" fill-rule="evenodd" stroke="none"/>
    <path d="M13.55 -10.3 L14.25 -6.6 14.25 -6.55 20.6 24.25 20.65 24.3 Q21.6 28.55 21.1 30.5 20.6 33.4 17.85 35.75 L17.8 35.75 Q15.05 37.95 11.9 37.95 10.05 37.95 8.85 37.3 L8.75 37.25 Q7.4 36.5 6.7 35.3 6.15 34.4 5.75 32.45 L5.75 32.55 5.1 30.0 5.05 29.8 4.35 25.7 -11.0 25.7 -13.3 29.9 -13.35 29.9 Q-15.75 34.05 -17.15 35.55 L-17.25 35.6 Q-19.3 37.95 -23.15 37.95 -26.15 37.95 -28.05 35.85 L-28.05 35.8 Q-29.95 33.5 -29.35 30.6 -29.05 29.2 -28.35 27.75 L-28.3 27.6 -26.5 24.55 -26.55 24.55 -8.15 -6.55 -8.1 -6.55 -6.2 -9.75 Q-4.95 -11.95 -3.65 -13.4 -2.15 -15.3 0.25 -16.45 2.3 -17.55 5.15 -17.55 8.1 -17.55 9.8 -16.4 11.55 -15.3 12.45 -13.45 13.15 -12.05 13.5 -10.35 L13.55 -10.3 M35.8 -4.3 Q39.45 -4.3 40.75 -2.0 L41.05 -2.2 Q43.85 -4.3 47.85 -4.3 51.35 -4.3 54.35 -2.55 58.35 -0.2 57.35 3.85 L56.7 5.8 Q60.15 1.0 65.35 -1.65 L65.3 -1.65 Q70.45 -4.35 76.95 -4.35 80.95 -4.35 84.05 -3.15 87.25 -2.0 89.25 -0.1 91.3 1.9 92.2 4.2 93.2 6.8 92.7 9.05 92.15 11.95 89.6 13.95 L89.65 13.95 Q87.15 15.9 84.25 15.9 82.1 15.9 80.85 14.8 L80.8 14.7 Q79.9 13.9 79.05 12.15 L79.0 12.15 Q78.1 10.2 76.95 9.2 75.95 8.5 74.25 8.5 71.8 8.5 69.95 10.45 L69.9 10.45 Q67.65 12.85 66.85 17.05 66.4 19.1 66.6 20.85 66.7 22.3 67.3 23.4 L67.35 23.45 Q67.85 24.3 68.75 24.75 L68.8 24.8 71.1 25.25 Q72.8 25.25 74.2 24.55 75.75 23.6 77.15 21.8 78.65 19.8 80.15 18.7 82.25 17.1 84.8 17.05 87.85 17.05 89.3 19.4 L89.25 19.3 Q90.55 21.05 90.35 23.15 91.55 19.45 94.55 16.65 L94.6 16.65 Q96.0 15.3 97.8 14.35 96.7 13.9 95.9 13.05 94.2 11.15 94.75 8.3 95.35 5.05 98.25 2.0 L98.25 1.95 Q100.85 -0.9 105.7 -2.7 109.9 -4.35 115.9 -4.35 122.5 -4.35 126.0 -2.7 130.05 -0.9 131.15 3.15 L131.15 3.2 Q132.1 6.65 130.95 12.4 L129.9 17.7 128.9 22.6 128.85 22.65 Q128.45 24.7 128.75 27.0 129.05 30.35 128.8 31.35 128.4 33.9 125.7 36.05 L125.55 36.15 Q123.05 37.95 120.3 37.95 117.9 38.05 115.95 35.9 L115.95 35.85 114.75 34.15 Q112.25 35.6 110.0 36.5 L109.9 36.55 Q106.05 37.95 101.7 37.95 97.55 37.95 94.65 36.35 L94.65 36.3 Q91.65 34.5 90.4 31.5 89.3 28.7 89.8 25.55 L87.9 28.9 Q86.2 31.3 83.25 33.4 80.4 35.45 76.5 36.7 72.7 37.9 68.25 37.9 58.6 37.9 54.35 32.2 50.0 26.55 51.85 17.15 52.9 11.9 55.45 7.7 L54.45 8.7 54.3 8.8 Q51.85 10.65 49.45 10.6 48.75 10.7 46.35 9.85 L44.0 9.4 Q43.2 9.4 42.6 9.75 41.85 10.35 41.3 11.45 40.4 13.25 39.65 15.65 L39.65 15.6 38.15 22.1 36.65 29.55 Q35.85 33.6 33.45 35.65 L33.3 35.8 Q30.7 37.95 27.5 37.95 24.15 37.95 22.55 35.6 20.95 33.55 21.75 29.55 L26.65 4.7 Q28.5 -4.7 35.8 -4.3 M131.15 16.45 Q133.05 6.85 138.95 1.5 145.0 -4.2 153.1 -4.25 157.75 -4.25 160.6 -2.55 L160.6 -2.6 161.3 -2.15 162.65 -9.0 Q163.45 -13.0 165.6 -15.0 168.0 -17.55 171.55 -17.55 175.1 -17.55 176.55 -15.2 L176.55 -15.15 Q177.9 -13.3 177.15 -9.45 L169.4 29.85 Q168.65 33.75 166.35 35.7 L166.25 35.8 Q163.75 37.9 160.6 37.95 157.5 37.95 155.85 35.7 L155.8 35.65 155.3 34.75 Q152.8 36.35 150.2 37.15 L150.15 37.2 144.6 37.95 Q140.7 37.95 137.7 36.35 L137.65 36.35 Q134.65 34.65 132.85 31.65 L132.85 31.6 Q131.1 28.6 130.7 24.7 130.25 20.85 131.15 16.45 M176.35 8.45 Q178.5 4.5 181.7 1.65 L181.75 1.6 Q185.05 -1.35 189.3 -2.85 L189.25 -2.85 Q193.35 -4.35 197.95 -4.35 204.1 -4.35 208.0 -1.7 211.95 0.9 213.35 5.15 214.7 9.35 213.85 13.65 212.8 19.0 209.3 20.6 L210.0 21.2 Q211.55 22.7 211.0 25.6 210.7 27.45 208.8 29.95 L208.75 30.0 Q207.2 32.0 204.4 33.9 L204.35 33.95 Q201.75 35.65 198.15 36.85 L198.1 36.85 Q194.6 37.95 190.25 37.95 180.3 37.95 175.9 32.15 171.4 26.5 173.35 16.75 174.25 12.25 176.3 8.5 L176.35 8.45 M198.5 9.25 L198.5 9.2 Q197.4 7.85 195.3 7.85 193.3 7.8 191.75 9.2 L190.35 10.95 199.15 10.95 198.5 9.25 M198.65 23.6 L200.65 22.0 187.9 22.0 188.15 23.05 Q188.55 24.5 189.65 25.3 L189.7 25.35 Q190.85 26.05 192.35 26.05 L194.5 25.85 196.45 25.0 198.7 23.55 198.65 23.6 M153.15 8.35 Q151.65 8.35 150.35 9.2 148.9 10.1 147.9 11.85 L147.9 11.95 Q146.6 14.0 146.05 16.75 145.45 19.65 145.95 21.75 146.35 23.35 147.35 24.25 L147.45 24.3 Q148.5 25.05 149.9 25.05 151.35 25.05 152.75 24.35 154.1 23.5 155.25 21.85 L155.2 21.9 Q156.5 19.8 157.1 16.75 157.65 13.9 157.2 11.9 156.75 10.15 155.6 9.25 L155.55 9.2 Q154.55 8.35 153.15 8.35 M107.45 10.3 L106.3 11.7 107.85 11.35 107.9 11.35 113.8 10.2 113.75 10.2 116.45 9.5 116.2 8.3 Q115.55 7.85 113.5 7.85 111.1 7.85 109.8 8.45 L109.75 8.45 Q108.5 9.05 107.5 10.25 L107.45 10.3 M113.25 23.4 L114.35 21.05 112.4 21.5 107.15 22.65 107.0 22.7 Q106.15 22.9 105.35 23.5 105.05 23.8 104.95 24.25 104.8 25.0 105.25 25.5 L105.2 25.5 Q105.9 26.1 107.15 26.1 109.1 26.1 110.9 25.3 L110.8 25.4 Q112.3 24.6 113.2 23.5 L113.25 23.4 M-3.6 12.45 L2.1 12.45 0.8 4.5 -3.6 12.45" fill="url(#gradient5)" fill-rule="evenodd" stroke="none"/>
    <path d="M223.55 -8.95 L224.8 -16.9 Q225.65 -21.6 228.9 -24.25 232.05 -27.2 236.4 -27.2 242.2 -27.2 243.2 -22.9 L243.2 -22.85 Q244.1 -20.1 243.05 -14.75 L241.7 -9.35 236.35 9.55 Q235.15 13.75 233.5 16.0 L233.5 16.05 Q231.45 18.95 228.45 19.6 231.2 20.0 232.95 22.05 L233.0 22.25 Q235.15 24.95 234.4 28.7 233.55 33.1 230.15 35.6 226.95 38.0 223.25 38.0 219.65 38.0 217.45 35.7 L217.35 35.65 Q214.9 33.05 215.75 28.7 216.55 24.9 219.8 22.2 222.2 20.15 225.1 19.65 222.05 19.05 221.4 16.0 L221.4 16.05 Q220.75 13.9 221.25 9.55 L221.15 9.4 223.55 -8.95" fill="url(#gradient6)" fill-rule="evenodd" stroke="none"/>
    <path d="M12.0 -9.75 L12.75 -6.0 12.75 -6.05 19.15 24.8 19.15 24.85 Q20.05 28.7 19.6 30.5 19.2 32.8 16.95 34.65 L16.95 34.7 Q14.75 36.45 12.2 36.45 10.65 36.45 9.7 35.9 8.65 35.35 8.1 34.4 7.55 33.55 7.25 31.9 L7.25 31.95 6.6 29.4 6.55 29.3 5.7 24.2 -11.75 24.2 -14.65 29.4 Q-16.85 33.25 -18.2 34.65 L-18.2 34.7 Q-19.85 36.45 -22.85 36.45 -25.3 36.45 -26.75 34.75 L-26.8 34.75 Q-28.35 32.9 -27.85 30.6 -27.6 29.4 -27.0 28.15 L-26.95 28.1 -25.25 25.1 -6.85 -6.0 -4.95 -9.2 -4.95 -9.15 Q-3.8 -11.25 -2.55 -12.65 L-2.55 -12.6 Q-1.3 -14.15 0.65 -15.1 L0.7 -15.1 Q2.45 -16.05 4.85 -16.05 7.35 -16.05 8.85 -15.1 10.3 -14.2 11.05 -12.65 L11.05 -12.6 12.05 -9.8 12.0 -9.75 M39.55 -0.75 L39.95 0.45 41.75 -1.05 Q44.15 -2.8 47.55 -2.8 50.7 -2.8 53.4 -1.2 56.55 0.65 55.85 3.85 55.4 6.05 53.55 7.6 L53.5 7.65 Q51.6 9.15 49.75 9.1 L47.1 8.45 Q45.55 7.9 44.3 7.9 42.9 7.9 41.9 8.6 L41.95 8.55 Q40.8 9.4 40.0 10.95 L40.0 10.9 Q39.0 12.8 38.2 15.45 37.4 18.15 36.65 22.1 L35.15 29.55 Q34.5 32.9 32.55 34.65 L32.45 34.7 Q30.4 36.45 27.8 36.45 25.15 36.45 23.9 34.6 22.6 32.85 23.25 29.55 L28.15 4.7 Q29.7 -3.0 35.5 -2.8 38.55 -2.8 39.55 -0.75 M57.65 6.8 Q60.85 2.15 65.8 -0.35 70.6 -2.85 76.65 -2.85 80.35 -2.85 83.3 -1.75 86.25 -0.7 88.1 1.1 89.95 2.85 90.75 4.95 91.65 7.15 91.2 9.05 90.75 11.3 88.8 12.85 86.85 14.4 84.55 14.4 82.9 14.4 82.0 13.55 L81.95 13.55 Q81.2 12.85 80.45 11.3 L80.4 11.3 Q79.4 9.1 78.05 8.0 76.8 7.0 74.55 7.0 71.35 7.0 68.9 9.55 66.3 12.25 65.35 17.05 64.85 19.35 65.05 21.25 65.2 23.05 66.0 24.35 66.65 25.5 67.9 26.15 L67.95 26.15 Q69.15 26.75 70.8 26.75 73.05 26.75 74.8 25.8 76.6 24.7 78.3 22.5 79.65 20.75 80.95 19.8 82.55 18.55 84.5 18.55 86.8 18.55 87.95 20.3 L88.0 20.35 Q89.15 21.95 88.75 23.9 88.3 25.95 86.75 28.2 85.15 30.35 82.5 32.25 79.85 34.1 76.25 35.3 72.7 36.4 68.55 36.4 59.6 36.4 55.65 31.15 L55.6 31.15 Q51.65 25.9 53.35 17.15 54.5 11.25 57.65 6.8 M105.95 -1.35 Q109.95 -2.85 115.6 -2.85 121.8 -2.85 125.15 -1.3 L125.1 -1.35 Q128.7 0.25 129.65 3.8 L129.7 3.8 Q130.5 7.0 129.45 12.4 L128.4 17.7 127.4 22.6 127.35 22.65 Q126.95 24.9 127.25 27.4 L127.2 27.45 Q127.55 30.45 127.3 31.35 126.95 33.3 124.9 34.95 L124.85 35.0 Q122.8 36.45 120.6 36.45 118.7 36.5 117.2 34.8 L117.15 34.8 115.55 32.15 Q112.4 34.05 109.65 35.15 L109.6 35.15 Q106.05 36.45 102.0 36.45 98.2 36.45 95.65 35.0 L95.6 35.0 Q92.9 33.35 91.85 30.75 L91.8 30.75 Q90.75 28.0 91.4 24.9 92.2 20.65 95.5 17.65 98.65 14.75 103.45 13.75 L103.4 13.75 107.85 12.85 107.9 12.85 113.85 11.65 113.8 11.65 117.95 10.6 Q118.1 8.5 117.6 7.4 116.8 6.35 113.8 6.35 110.9 6.35 109.3 7.1 L109.3 7.15 Q107.7 7.9 106.45 9.45 L106.35 9.5 104.0 12.1 Q103.1 13.25 100.45 13.25 98.35 13.25 97.15 11.9 95.85 10.45 96.25 8.3 96.8 5.55 99.25 2.9 L99.3 2.85 Q101.7 0.3 105.95 -1.35 M139.9 2.5 Q145.4 -2.75 152.8 -2.75 157.05 -2.75 159.7 -1.2 L159.65 -1.25 162.25 0.7 164.15 -9.0 Q164.85 -12.4 166.6 -14.05 168.5 -16.05 171.25 -16.05 174.05 -16.05 175.2 -14.2 176.3 -12.65 175.65 -9.45 L167.9 29.85 Q167.25 33.1 165.45 34.7 L165.4 34.75 Q163.4 36.45 160.9 36.45 158.45 36.45 157.15 34.7 L157.15 34.65 Q156.45 33.7 156.35 32.35 L154.6 33.55 Q152.4 35.0 150.05 35.75 L150.0 35.75 144.9 36.45 Q141.35 36.45 138.65 35.0 135.9 33.45 134.25 30.7 132.6 27.9 132.25 24.3 131.8 20.7 132.65 16.45 134.4 7.45 139.9 2.45 L139.9 2.5 M182.6 2.65 Q185.65 -0.1 189.6 -1.45 L189.55 -1.45 Q193.35 -2.85 197.65 -2.85 203.35 -2.85 206.95 -0.45 210.6 2.0 211.9 5.85 213.15 9.7 212.35 13.65 211.45 18.15 208.5 19.4 L208.45 19.4 Q206.05 20.5 202.15 20.5 L186.3 20.5 Q186.2 22.25 186.65 23.75 187.25 25.6 188.7 26.65 L188.65 26.6 Q190.1 27.55 192.05 27.55 L194.6 27.3 194.7 27.25 197.0 26.25 199.5 24.65 199.4 24.7 202.6 22.2 202.65 22.15 Q203.85 21.2 205.75 21.2 207.8 21.2 208.8 22.35 209.9 23.45 209.5 25.6 209.25 27.1 207.65 29.2 L207.6 29.25 Q206.2 31.05 203.75 32.75 L203.7 32.75 Q201.25 34.35 197.95 35.45 194.6 36.45 190.55 36.45 181.3 36.45 177.2 31.1 173.05 25.8 174.85 16.75 175.65 12.55 177.6 9.0 L177.65 8.95 Q179.65 5.25 182.6 2.65 M199.85 8.2 Q198.4 6.35 195.6 6.35 192.9 6.35 190.85 8.2 189.1 9.75 188.05 12.45 L200.8 12.45 Q200.85 9.7 199.8 8.2 L199.85 8.2 M153.45 6.85 Q151.5 6.85 149.7 8.0 147.9 9.15 146.6 11.3 L146.6 11.35 Q145.15 13.7 144.55 16.75 143.9 20.05 144.5 22.35 144.95 24.45 146.35 25.55 L146.3 25.55 Q147.75 26.55 149.6 26.55 151.55 26.55 153.35 25.6 L153.3 25.6 Q155.1 24.55 156.45 22.5 157.9 20.15 158.6 16.75 159.2 13.55 158.65 11.3 158.1 9.15 156.65 8.0 155.3 6.85 153.45 6.85 M114.4 24.2 Q115.6 22.6 116.35 19.1 L112.4 20.05 112.35 20.05 107.0 21.2 106.95 21.2 Q105.8 21.5 104.65 22.35 103.7 23.05 103.45 24.25 103.2 25.65 104.0 26.6 L104.05 26.6 Q105.0 27.6 106.85 27.6 109.1 27.6 111.2 26.7 L111.3 26.65 Q113.2 25.65 114.35 24.2 L114.4 24.2 M-6.05 13.95 L4.0 13.95 1.65 0.05 -6.05 13.95" fill="url(#gradient7)" fill-rule="evenodd" stroke="none"/>
    <path d="M225.35 -9.1 L226.55 -16.9 Q227.35 -20.8 229.9 -23.05 232.5 -25.45 236.0 -25.45 240.65 -25.45 241.45 -22.1 242.2 -19.65 241.25 -14.75 L240.0 -9.5 234.6 9.4 Q233.5 13.2 232.1 15.25 L232.05 15.35 Q230.15 18.0 227.05 18.0 223.7 18.0 223.1 15.35 222.6 13.3 222.9 9.35 L223.0 9.35 225.35 -9.1 M218.75 34.35 Q216.85 32.2 217.5 28.7 218.15 25.65 220.85 23.4 223.4 21.25 226.5 21.25 229.65 21.25 231.5 23.35 L231.6 23.4 Q233.3 25.65 232.65 28.7 231.9 32.3 229.25 34.3 226.7 36.25 223.65 36.25 220.7 36.25 218.8 34.35 L218.75 34.35" fill="url(#gradient8)" fill-rule="evenodd" stroke="none"/>
    <path d="M8.05 28.75 L7.0 22.7 -12.5 22.7 -15.95 28.85 Q-18.0 32.45 -19.2 33.75 -20.4 34.95 -22.55 34.95 -24.4 34.95 -25.55 33.65 -26.7 32.3 -26.35 30.6 L-25.65 28.55 -23.95 25.65 -5.6 -5.45 -3.65 -8.65 -1.45 -11.8 Q-0.45 -13.05 1.1 -13.8 2.55 -14.55 4.55 -14.55 6.6 -14.55 7.8 -13.8 9.0 -13.05 9.65 -11.8 L10.5 -9.2 11.25 -5.5 17.65 25.4 Q18.45 28.9 18.1 30.5 17.8 32.2 16.1 33.6 14.45 34.95 12.5 34.95 11.35 34.95 10.6 34.55 9.85 34.15 9.45 33.45 9.05 32.75 8.7 31.3 L8.05 28.75 M87.25 23.9 Q86.9 25.6 85.5 27.5 84.15 29.4 81.75 31.1 79.35 32.8 76.05 33.85 72.75 34.9 68.85 34.9 60.6 34.9 56.9 30.1 53.25 25.25 54.85 17.15 55.95 11.65 58.85 7.45 61.8 3.25 66.3 0.95 70.75 -1.35 76.35 -1.35 79.8 -1.35 82.5 -0.35 85.2 0.65 86.9 2.25 88.6 3.85 89.3 5.7 90.0 7.5 89.7 9.05 89.4 10.65 88.0 11.75 86.55 12.9 84.85 12.9 83.75 12.9 83.1 12.35 82.5 11.75 81.85 10.45 80.65 8.0 79.15 6.75 77.6 5.5 74.85 5.5 70.9 5.5 67.9 8.6 64.9 11.65 63.85 17.05 63.35 19.55 63.5 21.65 63.7 23.75 64.6 25.25 65.45 26.75 67.0 27.5 68.5 28.25 70.5 28.25 73.2 28.25 75.35 27.05 77.5 25.8 79.45 23.25 80.6 21.75 81.7 20.9 82.85 20.05 84.2 20.05 85.85 20.05 86.65 21.3 87.5 22.5 87.25 23.9 M158.0 29.85 L158.15 29.0 Q155.95 31.05 153.95 32.35 151.95 33.65 149.8 34.3 L145.2 34.95 Q142.0 34.95 139.55 33.65 137.1 32.25 135.55 29.75 134.05 27.2 133.75 23.85 133.35 20.45 134.15 16.45 135.8 8.1 140.8 3.45 145.8 -1.25 152.5 -1.25 156.35 -1.25 158.75 0.1 161.1 1.4 163.1 4.15 L165.65 -9.0 Q166.2 -11.75 167.6 -13.15 168.95 -14.55 170.95 -14.55 173.0 -14.55 173.85 -13.25 174.65 -12.0 174.15 -9.45 L166.4 29.85 Q165.9 32.4 164.5 33.7 163.05 34.95 161.2 34.95 159.4 34.95 158.45 33.65 157.5 32.3 158.0 29.85 M202.45 19.0 L185.0 19.0 Q184.45 22.05 185.2 24.4 185.85 26.7 187.65 27.9 189.4 29.05 191.75 29.05 L194.8 28.7 Q196.15 28.3 197.55 27.5 L200.2 25.8 203.4 23.3 Q204.2 22.7 205.45 22.7 206.85 22.7 207.55 23.45 208.25 24.2 208.0 25.6 207.75 26.8 206.5 28.45 205.2 30.05 203.0 31.55 200.8 33.0 197.75 34.0 194.65 34.95 190.85 34.95 182.3 34.95 178.45 30.05 174.7 25.15 176.35 16.75 177.1 12.8 178.95 9.45 180.8 6.05 183.55 3.65 186.25 1.2 189.8 -0.05 193.35 -1.35 197.35 -1.35 202.6 -1.35 205.95 0.85 209.25 3.05 210.4 6.55 211.55 10.05 210.85 13.65 210.2 17.05 208.1 18.05 205.95 19.0 202.45 19.0 M186.0 13.95 L202.2 13.95 Q202.75 9.4 201.1 7.15 199.35 4.85 195.9 4.85 192.55 4.85 189.95 7.15 187.35 9.45 186.0 13.95 M143.05 16.75 Q142.3 20.4 142.95 22.95 143.55 25.5 145.25 26.8 147.0 28.05 149.3 28.05 151.65 28.05 153.85 26.85 156.05 25.6 157.7 23.1 159.35 20.55 160.1 16.75 160.8 13.2 160.15 10.65 159.5 8.1 157.75 6.75 156.1 5.35 153.75 5.35 151.3 5.35 149.05 6.75 146.85 8.15 145.3 10.75 143.7 13.35 143.05 16.75 M116.35 29.95 Q112.6 32.45 109.35 33.75 106.05 34.95 102.3 34.95 98.9 34.95 96.55 33.65 94.25 32.25 93.3 29.95 92.35 27.6 92.9 24.9 93.6 21.25 96.4 18.65 99.2 16.1 103.45 15.2 L107.85 14.3 113.85 13.1 119.35 11.65 Q119.9 8.15 118.95 6.5 118.05 4.85 114.1 4.85 110.7 4.85 108.8 5.8 106.85 6.75 105.3 8.65 L103.05 11.15 Q102.45 11.75 100.75 11.75 99.25 11.75 98.35 10.8 97.45 9.8 97.75 8.3 98.2 5.95 100.3 3.75 102.4 1.5 106.25 0.05 110.0 -1.35 115.3 -1.35 121.15 -1.35 124.3 0.05 127.35 1.4 128.2 4.4 128.95 7.4 127.95 12.4 L126.9 17.7 125.9 22.6 Q125.4 25.1 125.7 27.85 125.95 30.55 125.8 31.35 125.55 32.7 124.05 33.85 122.55 34.95 120.9 34.95 119.55 34.95 118.45 33.7 117.35 32.4 116.35 29.95 M118.3 17.05 L112.35 18.55 106.9 19.75 Q105.4 20.1 103.85 21.2 102.35 22.3 101.95 24.25 101.55 26.3 102.75 27.7 104.05 29.1 106.55 29.1 109.2 29.1 111.65 28.0 114.1 26.8 115.5 24.95 117.1 22.95 118.05 18.3 L118.3 17.05 M35.15 22.1 L33.65 29.55 Q33.15 32.25 31.6 33.65 30.05 34.95 28.1 34.95 26.15 34.95 25.2 33.6 24.25 32.2 24.75 29.55 L29.65 4.7 Q30.85 -1.3 35.2 -1.3 37.4 -1.3 38.15 0.1 38.8 1.5 38.35 4.25 40.5 1.5 42.5 0.1 44.45 -1.3 47.25 -1.3 50.05 -1.3 52.45 0.1 54.8 1.5 54.35 3.85 54.0 5.45 52.7 6.55 51.35 7.6 50.05 7.6 L47.8 7.0 Q46.05 6.4 44.6 6.4 42.65 6.4 41.2 7.4 39.75 8.45 38.65 10.45 37.6 12.5 36.7 15.3 35.9 18.1 35.15 22.1 M-8.5 15.45 L5.8 15.45 2.5 -4.35 -8.5 15.45" fill="url(#gradient9)" fill-rule="evenodd" stroke="none"/>
    <path d="M224.75 9.2 L227.15 -9.2 228.35 -16.9 Q228.9 -20.05 231.0 -21.85 232.95 -23.65 235.7 -23.65 239.0 -23.65 239.75 -21.35 240.3 -19.1 239.45 -14.75 L238.2 -9.65 232.85 9.25 Q231.85 12.65 230.6 14.5 229.4 16.25 227.4 16.25 225.25 16.25 224.9 14.55 224.4 12.8 224.75 9.2 M223.95 34.5 Q221.7 34.5 220.25 33.0 218.75 31.4 219.3 28.7 219.75 26.35 221.8 24.65 223.85 23.0 226.25 23.0 228.65 23.0 230.05 24.65 231.35 26.35 230.85 28.7 230.35 31.4 228.35 32.95 226.3 34.5 223.95 34.5" fill="url(#gradient10)" fill-rule="evenodd" stroke="none"/>
  </g>
  <defs>
    <linearGradient gradientTransform="matrix(-0.1151, 0.0, 0.0052, -0.0055, 117.7, -10.15)" gradientUnits="userSpaceOnUse" id="gradient0" spreadMethod="pad" x1="-819.2" x2="819.2">
      <stop offset="0.00392156862745098" stop-color="#cdeaff"/>
      <stop offset="1.0" stop-color="#ffffff" stop-opacity="0.0"/>
    </linearGradient>
    <linearGradient gradientTransform="matrix(-0.1241, 0.0, 0.0057, -0.0045, -142.6, 29.45)" gradientUnits="userSpaceOnUse" id="gradient1" spreadMethod="pad" x1="-819.2" x2="819.2">
      <stop offset="0.00392156862745098" stop-color="#cdeaff"/>
      <stop offset="1.0" stop-color="#ffffff" stop-opacity="0.0"/>
    </linearGradient>
    <linearGradient gradientTransform="matrix(-0.0066, 0.0334, -0.2937, 0.0, 8.9, -6.4)" gradientUnits="userSpaceOnUse" id="gradient2" spreadMethod="pad" x1="-819.2" x2="819.2">
      <stop offset="0.0" stop-color="#002c54"/>
      <stop offset="1.0" stop-color="#410d91"/>
    </linearGradient>
    <linearGradient gradientTransform="matrix(-0.0063, 0.0318, -0.2918, 0.0, 8.8, -5.9)" gradientUnits="userSpaceOnUse" id="gradient3" spreadMethod="pad" x1="-819.2" x2="819.2">
      <stop offset="0.0" stop-color="#0bf7ff"/>
      <stop offset="1.0" stop-color="#c374ff"/>
    </linearGradient>
    <linearGradient gradientTransform="matrix(0.0054, -0.0275, 0.29, 0.0, 8.9, -6.7)" gradientUnits="userSpaceOnUse" id="gradient4" spreadMethod="pad" x1="-819.2" x2="819.2">
      <stop offset="0.0196078431372549" stop-color="#d2fffd"/>
      <stop offset="1.0" stop-color="#ffffff"/>
    </linearGradient>
    <linearGradient gradientTransform="matrix(-0.0066, 0.0334, -0.2937, 0.0, -7.1, 10.4)" gradientUnits="userSpaceOnUse" id="gradient5" spreadMethod="pad" x1="-819.2" x2="819.2">
      <stop offset="0.0" stop-color="#002c54"/>
      <stop offset="1.0" stop-color="#410d91"/>
    </linearGradient>
    <linearGradient gradientTransform="matrix(-0.0078, 0.0392, -0.3451, 0.0, -43.75, 5.7)" gradientUnits="userSpaceOnUse" id="gradient6" spreadMethod="pad" x1="-819.2" x2="819.2">
      <stop offset="0.0" stop-color="#002c54"/>
      <stop offset="1.0" stop-color="#410d91"/>
    </linearGradient>
    <linearGradient gradientTransform="matrix(-0.0063, 0.0318, -0.2918, 0.0, -7.2, 10.9)" gradientUnits="userSpaceOnUse" id="gradient7" spreadMethod="pad" x1="-819.2" x2="819.2">
      <stop offset="0.0" stop-color="#0bf7ff"/>
      <stop offset="1.0" stop-color="#c374ff"/>
    </linearGradient>
    <linearGradient gradientTransform="matrix(-0.0074, 0.0374, -0.343, 0.0, -43.8, 6.3)" gradientUnits="userSpaceOnUse" id="gradient8" spreadMethod="pad" x1="-819.2" x2="819.2">
      <stop offset="0.0" stop-color="#0bf7ff"/>
      <stop offset="1.0" stop-color="#c374ff"/>
    </linearGradient>
    <linearGradient gradientTransform="matrix(0.0054, -0.0275, 0.29, 0.0, -7.1, 10.1)" gradientUnits="userSpaceOnUse" id="gradient9" spreadMethod="pad" x1="-819.2" x2="819.2">
      <stop offset="0.0196078431372549" stop-color="#d2fffd"/>
      <stop offset="1.0" stop-color="#ffffff"/>
    </linearGradient>
    <linearGradient gradientTransform="matrix(0.0064, -0.0323, 0.3408, 0.0, -43.75, 5.3)" gradientUnits="userSpaceOnUse" id="gradient10" spreadMethod="pad" x1="-819.2" x2="819.2">
      <stop offset="0.0196078431372549" stop-color="#d2fffd"/>
      <stop offset="1.0" stop-color="#ffffff"/>
    </linearGradient>
  </defs>
</svg>
