<?xml version="1.0" encoding="UTF-8" standalone="no"?>
<svg xmlns:xlink="http://www.w3.org/1999/xlink" height="276.9px" width="902.2px" xmlns="http://www.w3.org/2000/svg">
  <g transform="matrix(1.0, 0.0, 0.0, 1.0, 451.1, 138.45)">
    <path d="M-283.0 -111.25 L-283.0 -138.45 277.15 -138.45 277.15 -111.25 -283.0 -111.25 M277.15 -32.95 L451.1 -32.95 451.1 -5.75 277.15 -5.75 277.15 -32.95 M-451.1 -5.75 L-451.1 -32.95 -283.0 -32.95 -283.0 -5.75 -451.1 -5.75" fill="#a1b7c4" fill-rule="evenodd" stroke="none"/>
    <path d="M277.15 -111.25 L277.15 -32.95 277.15 -5.75 451.1 -5.75 451.1 138.45 -451.1 138.45 -451.1 -5.75 -283.0 -5.75 -283.0 -32.95 -283.0 -111.25 277.15 -111.25" fill="#6d7c85" fill-rule="evenodd" stroke="none"/>
    <path d="M-283.0 -111.25 L-283.0 -138.45 277.15 -138.45 277.15 -111.25 277.15 -32.95 451.1 -32.95 451.1 -5.75 451.1 138.45 -451.1 138.45 -451.1 -5.75 -451.1 -32.95 -283.0 -32.95 -283.0 -111.25 277.15 -111.25 M277.15 -32.95 L277.15 -5.75 451.1 -5.75 M-451.1 -5.75 L-283.0 -5.75 -283.0 -32.95" fill="none" stroke="#000000" stroke-linecap="round" stroke-linejoin="round" stroke-width="0.05"/>
  </g>
</svg>
