<?xml version="1.0" encoding="UTF-8" standalone="no"?>
<svg xmlns:xlink="http://www.w3.org/1999/xlink" height="276.9px" width="901.75px" xmlns="http://www.w3.org/2000/svg">
  <g transform="matrix(1.0, 0.0, 0.0, 1.0, 450.9, 138.45)">
    <path d="M24.75 -111.25 L24.75 -138.45 450.85 -138.45 450.85 -111.25 24.75 -111.25 M-450.9 -5.75 L-450.9 -32.95 24.15 -32.95 24.2 -29.55 24.2 -26.15 24.15 -5.75 -450.9 -5.75" fill="#a1b7c4" fill-rule="evenodd" stroke="none"/>
    <path d="M24.75 -111.25 L450.85 -111.25 450.85 138.45 -450.9 138.45 -450.9 -5.75 24.15 -5.75 24.2 -26.15 24.2 -29.55 24.75 -111.25" fill="#6d7c85" fill-rule="evenodd" stroke="none"/>
    <path d="M450.85 -111.25 L450.85 -138.45 24.75 -138.45 24.75 -111.25 450.85 -111.25 450.85 138.45 -450.9 138.45 -450.9 -5.75 -450.9 -32.95 24.15 -32.95 M24.2 -29.55 L24.75 -111.25 M24.2 -29.55 L24.2 -26.15 24.15 -5.75 -450.9 -5.75" fill="none" stroke="#000000" stroke-linecap="round" stroke-linejoin="round" stroke-width="0.05"/>
  </g>
</svg>
