<?xml version="1.0" encoding="UTF-8" standalone="no"?>
<svg xmlns:xlink="http://www.w3.org/1999/xlink" height="276.9px" width="901.75px" xmlns="http://www.w3.org/2000/svg">
  <g transform="matrix(1.0, 0.0, 0.0, 1.0, 450.9, 138.45)">
    <path d="M-24.2 -32.95 L450.85 -32.95 450.85 -5.75 -24.2 -5.75 -24.25 -26.15 -24.25 -29.55 -24.2 -32.95 M-450.9 -111.25 L-450.9 -138.45 -24.8 -138.45 -24.8 -111.25 -450.9 -111.25" fill="#a1b7c4" fill-rule="evenodd" stroke="none"/>
    <path d="M450.85 -5.75 L450.85 138.45 -450.9 138.45 -450.9 -111.25 -24.8 -111.25 -24.25 -29.55 -24.25 -26.15 -24.2 -5.75 450.85 -5.75" fill="#6d7c85" fill-rule="evenodd" stroke="none"/>
    <path d="M-24.2 -32.95 L450.85 -32.95 450.85 -5.75 450.85 138.45 -450.9 138.45 -450.9 -111.25 -450.9 -138.45 -24.8 -138.45 -24.8 -111.25 -24.25 -29.55 -24.25 -26.15 -24.2 -5.75 450.85 -5.75 M-24.8 -111.25 L-450.9 -111.25" fill="none" stroke="#000000" stroke-linecap="round" stroke-linejoin="round" stroke-width="0.05"/>
  </g>
</svg>
