<?xml version="1.0" encoding="UTF-8" standalone="no"?>
<svg xmlns:xlink="http://www.w3.org/1999/xlink" height="368.8px" width="902.2px" xmlns="http://www.w3.org/2000/svg">
  <g transform="matrix(1.0, 0.0, 0.0, 1.0, 451.1, 184.4)">
    <path d="M-153.2 -157.2 L-153.2 -184.4 157.1 -184.4 157.1 -157.2 -153.2 -157.2 M-451.1 40.2 L-451.1 13.0 451.1 13.0 451.1 40.2 -451.1 40.2" fill="#a1b7c4" fill-rule="evenodd" stroke="none"/>
    <path d="M157.1 -157.2 L157.8 -57.75 -153.2 -57.75 -153.2 -157.2 157.1 -157.2 M451.1 40.2 L451.1 184.4 -451.1 184.4 -451.1 40.2 451.1 40.2" fill="#6d7c85" fill-rule="evenodd" stroke="none"/>
    <path d="M-153.2 -157.2 L-153.2 -184.4 157.1 -184.4 157.1 -157.2 157.8 -57.75 -153.2 -57.75 -153.2 -157.2 157.1 -157.2" fill="none" stroke="#000000" stroke-linecap="round" stroke-linejoin="round" stroke-width="0.05"/>
    <path d="M-451.1 40.2 L-451.1 13.0 451.1 13.0 451.1 40.2 451.1 184.4 -451.1 184.4 -451.1 40.2 451.1 40.2" fill="none" stroke="#000000" stroke-linecap="round" stroke-linejoin="round" stroke-opacity="0.49803922" stroke-width="0.05"/>
  </g>
</svg>
