<?xml version="1.0" encoding="UTF-8" standalone="no"?>
<svg xmlns:xlink="http://www.w3.org/1999/xlink" height="491.05px" width="902.2px" xmlns="http://www.w3.org/2000/svg">
  <g transform="matrix(1.0, 0.0, 0.0, 1.0, 451.1, 216.2)">
    <path d="M31.35 -216.2 L167.6 -216.2 167.8 -32.0 31.35 -32.0 31.35 -216.2 M340.45 56.5 L340.45 134.8 340.45 162.0 451.1 162.0 451.1 274.85 -451.1 274.85 -451.1 162.0 -283.0 162.0 -283.0 134.8 -283.0 56.5 340.45 56.5" fill="#6d7c85" fill-rule="evenodd" stroke="none"/>
    <path d="M-283.0 56.5 L-283.0 29.3 340.45 29.3 340.45 56.5 -283.0 56.5 M340.45 134.8 L451.1 134.8 451.1 162.0 340.45 162.0 340.45 134.8 M-451.1 162.0 L-451.1 134.8 -283.0 134.8 -283.0 162.0 -451.1 162.0" fill="#a1b7c4" fill-rule="evenodd" stroke="none"/>
    <path d="M31.35 -216.2 L167.6 -216.2 167.8 -32.0 31.35 -32.0 31.35 -216.2 M-283.0 56.5 L-283.0 29.3 340.45 29.3 340.45 56.5 340.45 134.8 451.1 134.8 451.1 162.0 451.1 274.85 M-451.1 274.85 L-451.1 162.0 -451.1 134.8 -283.0 134.8 -283.0 56.5 340.45 56.5 M340.45 134.8 L340.45 162.0 451.1 162.0 M-451.1 162.0 L-283.0 162.0 -283.0 134.8" fill="none" stroke="#000000" stroke-linecap="round" stroke-linejoin="round" stroke-width="0.05"/>
  </g>
</svg>
