<?xml version="1.0" encoding="UTF-8" standalone="no"?>
<svg xmlns:xlink="http://www.w3.org/1999/xlink" height="171.4px" width="902.2px" xmlns="http://www.w3.org/2000/svg">
  <g transform="matrix(1.0, 0.0, 0.0, 1.0, 451.1, 85.7)">
    <path d="M125.05 -58.5 L125.05 -85.7 451.1 -85.7 451.1 -58.5 125.05 -58.5 M-451.1 -58.5 L-451.1 -85.7 -116.5 -85.7 -116.5 -58.5 -451.1 -58.5" fill="#a1b7c4" fill-rule="evenodd" stroke="none"/>
    <path d="M125.05 -58.5 L451.1 -58.5 451.1 85.7 125.05 85.7 125.05 -58.5 M-116.5 -58.5 L-116.5 85.7 -451.1 85.7 -451.1 -58.5 -116.5 -58.5" fill="#6d7c85" fill-rule="evenodd" stroke="none"/>
    <path d="M451.1 -58.5 L451.1 -85.7 125.05 -85.7 125.05 -58.5 451.1 -58.5 M125.05 85.7 L125.05 -58.5 M-451.1 -58.5 L-451.1 -85.7 -116.5 -85.7 -116.5 -58.5 -116.5 85.7 -451.1 85.7 -451.1 -58.5 -116.5 -58.5" fill="none" stroke="#000000" stroke-linecap="round" stroke-linejoin="round" stroke-width="0.05"/>
    <path d="M451.1 -58.5 L451.1 85.7 125.05 85.7" fill="none" stroke="#000000" stroke-linecap="round" stroke-linejoin="round" stroke-opacity="0.49803922" stroke-width="0.05"/>
  </g>
</svg>
