<?xml version="1.0" encoding="UTF-8" standalone="no"?>
<svg xmlns:xlink="http://www.w3.org/1999/xlink" height="276.9px" width="901.75px" xmlns="http://www.w3.org/2000/svg">
  <g transform="matrix(1.0, 0.0, 0.0, 1.0, 450.9, 138.45)">
    <path d="M119.25 -111.25 L119.25 -138.45 450.85 -138.45 450.85 -111.25 119.25 -111.25 M-450.9 -5.75 L-450.9 -32.95 -129.8 -32.95 -129.8 -5.75 -450.9 -5.75" fill="#a1b7c4" fill-rule="evenodd" stroke="none"/>
    <path d="M119.25 -111.25 L450.85 -111.25 450.85 138.45 119.25 138.45 119.25 -111.25 M-129.8 -5.75 L-129.8 138.45 -450.9 138.45 -450.9 -5.75 -129.8 -5.75" fill="#6d7c85" fill-rule="evenodd" stroke="none"/>
    <path d="M450.85 -111.25 L450.85 -138.45 119.25 -138.45 119.25 -111.25 450.85 -111.25 450.85 138.45 119.25 138.45 119.25 -111.25 M-450.9 -5.75 L-450.9 -32.95 -129.8 -32.95 -129.8 -5.75 -129.8 138.45 -450.9 138.45 -450.9 -5.75 -129.8 -5.75" fill="none" stroke="#000000" stroke-linecap="round" stroke-linejoin="round" stroke-width="0.05"/>
  </g>
</svg>
