<?xml version="1.0" encoding="UTF-8" standalone="no"?>
<svg xmlns:xlink="http://www.w3.org/1999/xlink" height="181.65px" width="334.55px" xmlns="http://www.w3.org/2000/svg">
  <g transform="matrix(1.0, 0.0, 0.0, 1.0, 167.3, 90.85)">
    <path d="M58.0 -74.4 L55.95 -76.6 Q47.0 -70.1 47.0 -68.3 47.0 -67.05 47.2 -66.85 L47.8 -66.5 Q47.45 -66.15 49.1 -66.1 L50.6 -65.2 Q55.6 -62.8 67.7 -62.8 L70.1 -62.9 71.45 -63.0 72.05 -64.9 71.4 -65.85 70.0 -66.9 Q63.55 -67.25 53.55 -69.3 L53.75 -69.5 Q58.0 -73.1 58.0 -74.4 58.05 -73.5 58.2 -73.35 L58.75 -72.9 Q58.4 -72.55 60.0 -72.5 L61.45 -70.9 62.55 -71.35 63.2 -71.7 63.3 -71.9 63.4 -73.6 Q63.4 -74.75 63.2 -75.0 L63.0 -75.4 62.6 -75.5 62.4 -75.95 62.25 -76.2 59.2 -76.4 Q58.0 -75.9 58.0 -74.8 L58.0 -74.4 M5.25 -70.9 L2.95 -68.95 1.7 -67.5 2.05 -66.9 3.7 -65.2 Q8.6 -66.2 11.1 -69.3 10.4 -70.4 9.1 -70.9 L5.25 -70.9 M30.0 -74.8 L28.65 -75.8 22.6 -75.45 Q21.2 -75.2 21.2 -74.0 21.2 -72.7 21.75 -72.25 L23.15 -71.7 28.65 -71.7 30.0 -71.9 30.55 -73.9 30.0 -74.8 M75.7 -71.85 L75.5 -72.1 73.15 -72.5 Q71.7 -73.7 69.85 -73.7 69.65 -73.6 69.65 -71.6 69.65 -70.65 70.0 -69.95 70.7 -68.5 72.7 -68.5 L73.05 -68.5 73.5 -68.5 Q74.65 -68.5 75.15 -68.8 L75.7 -69.1 75.8 -69.1 75.9 -70.6 Q75.9 -71.75 75.7 -71.85 M76.65 -69.9 L76.85 -68.7 77.45 -67.95 79.0 -67.7 Q80.15 -67.7 80.65 -68.0 L81.2 -68.3 81.3 -68.3 81.4 -69.8 Q81.4 -70.95 81.2 -71.05 L81.0 -71.3 Q77.25 -72.55 76.65 -69.9 M43.6 -68.75 L41.7 -69.05 39.55 -70.15 36.8 -71.35 Q36.8 -72.3 36.6 -72.5 L36.45 -72.9 Q34.1 -73.3 32.6 -72.9 L32.25 -72.45 32.2 -71.3 Q32.2 -70.5 32.6 -69.8 33.25 -68.5 34.9 -68.5 L35.2 -68.5 36.45 -67.35 38.45 -65.85 39.25 -65.4 Q41.2 -64.45 43.25 -64.4 L43.45 -64.4 Q44.4 -64.4 44.9 -64.85 L45.1 -65.05 46.25 -66.9 45.2 -67.4 Q44.7 -68.3 43.6 -68.75 M152.35 -70.5 L151.85 -71.35 150.5 -71.7 145.2 -71.8 145.3 -72.05 145.4 -73.6 Q145.4 -74.75 145.2 -75.0 L145.0 -75.4 Q143.25 -75.35 141.9 -74.5 140.7 -73.8 140.7 -73.2 L140.7 -72.95 140.15 -73.55 Q138.95 -74.6 137.0 -74.6 136.85 -74.5 136.85 -72.5 L136.85 -72.2 135.5 -72.3 Q134.4 -73.35 132.7 -74.1 L128.5 -74.0 126.25 -74.2 Q123.35 -73.2 122.75 -72.1 122.75 -71.2 123.3 -70.4 123.85 -69.6 124.7 -69.3 132.5 -68.85 136.45 -67.7 L146.0 -67.7 Q145.4 -67.15 145.4 -66.7 L145.5 -65.3 145.6 -65.4 146.15 -64.65 147.7 -64.4 Q150.0 -64.4 154.7 -65.85 L154.7 -66.8 155.1 -66.8 156.15 -67.15 156.15 -70.05 155.95 -70.15 156.15 -70.1 156.15 -76.15 155.1 -76.2 155.05 -76.2 154.7 -76.25 154.7 -71.15 152.35 -70.5 M162.9 -70.35 L162.2 -70.9 158.4 -70.9 Q157.85 -70.7 157.45 -70.35 L157.05 -70.0 156.75 -69.75 156.4 -69.3 157.15 -68.5 157.45 -68.2 159.5 -66.7 Q160.2 -66.3 161.0 -66.0 L158.65 -60.85 -167.3 -60.85 -167.3 -80.0 167.25 -80.0 167.25 -79.95 162.9 -70.35 M109.5 -69.9 Q109.5 -70.95 109.3 -71.05 L109.1 -71.3 106.55 -71.45 106.7 -71.7 107.2 -72.5 Q106.55 -73.7 105.15 -74.2 104.6 -74.05 103.9 -73.4 103.25 -72.75 103.25 -72.3 L103.45 -71.1 104.55 -70.35 105.0 -70.15 104.75 -69.9 104.95 -68.7 105.6 -67.95 107.2 -67.7 108.8 -68.0 109.3 -68.3 109.4 -68.3 109.5 -69.8 109.5 -69.9 109.7 -68.7 Q110.05 -68.3 111.0 -67.95 L111.8 -67.7 112.2 -67.75 113.8 -66.1 114.2 -66.2 Q115.5 -65.2 117.65 -65.2 118.75 -65.2 119.3 -65.9 L120.45 -67.7 119.75 -68.5 120.0 -68.5 Q121.25 -68.8 121.8 -69.7 L121.9 -69.4 122.0 -70.6 Q122.0 -71.85 121.4 -72.15 L120.0 -72.5 Q115.5 -74.1 112.75 -73.8 112.6 -73.9 112.55 -72.4 110.6 -72.55 109.5 -69.9 M-163.1 -74.75 Q-163.8 -74.45 -163.8 -73.2 -163.8 -71.9 -163.25 -71.45 L-161.85 -70.9 -147.8 -68.5 Q-146.75 -69.25 -146.2 -70.1 L-145.8 -70.9 Q-146.5 -72.0 -147.8 -72.5 L-155.25 -73.85 -155.2 -75.2 Q-155.2 -76.35 -155.4 -76.6 L-155.6 -77.0 Q-157.45 -77.45 -158.25 -77.0 -159.05 -76.6 -159.05 -75.1 L-158.85 -74.45 -161.85 -75.0 -163.1 -74.75 M-114.4 -70.9 L-114.6 -68.9 -112.35 -67.0 Q-110.95 -65.9 -107.95 -66.1 -106.3 -66.65 -105.6 -67.05 L-105.2 -67.3 -104.8 -66.9 -103.6 -67.55 -102.85 -67.9 Q-102.85 -69.15 -103.4 -70.35 L-100.55 -70.1 -97.3 -70.6 Q-95.8 -71.0 -94.7 -71.5 -90.65 -73.15 -89.55 -73.7 -88.05 -74.45 -88.05 -75.5 -88.05 -76.7 -88.3 -76.75 L-89.0 -77.0 Q-90.0 -77.4 -92.7 -75.4 -96.5 -73.85 -103.55 -74.6 L-104.9 -75.0 -106.3 -74.95 -106.4 -75.0 -106.45 -74.95 -116.75 -74.7 Q-118.55 -74.5 -118.55 -73.1 L-118.15 -72.55 -116.55 -70.9 -114.4 -70.9 M-109.15 -70.9 L-106.75 -70.9 -106.75 -70.6 -109.15 -70.9 M-37.3 -72.05 L-42.05 -72.45 -50.95 -73.3 Q-56.8 -74.05 -59.2 -75.7 -60.4 -76.45 -67.35 -75.6 L-75.1 -73.25 Q-81.6 -71.45 -90.85 -70.1 L-92.1 -69.85 Q-92.75 -69.55 -92.75 -68.3 -92.75 -67.0 -92.2 -66.55 L-90.85 -66.0 -87.8 -65.45 -86.9 -65.2 -60.3 -65.2 -48.55 -66.45 -32.2 -67.3 -32.05 -67.55 -31.45 -66.9 -30.35 -67.35 -29.7 -67.7 -29.6 -67.85 -29.5 -69.5 -29.5 -70.1 -9.6 -70.1 -8.35 -70.45 Q-7.65 -70.9 -7.65 -72.2 -7.65 -73.45 -8.25 -73.8 L-9.6 -74.2 -23.65 -74.2 Q-22.5 -75.25 -22.5 -76.3 -22.5 -77.45 -22.65 -77.55 L-22.85 -77.8 Q-24.7 -77.9 -27.0 -76.95 -29.5 -75.9 -29.5 -74.8 L-29.45 -74.2 -35.4 -74.2 -36.65 -73.9 Q-37.3 -73.55 -37.3 -72.3 L-37.3 -72.05 M-145.9 -69.1 L-145.9 -68.9 Q-144.55 -65.2 -141.55 -65.2 L-141.1 -65.2 Q-141.05 -64.4 -140.65 -64.1 L-139.25 -63.6 -135.3 -63.6 -133.85 -64.4 -133.75 -64.4 -131.9 -64.8 Q-130.2 -65.55 -130.2 -67.4 -130.2 -68.55 -130.4 -68.65 L-130.6 -68.9 Q-133.45 -69.45 -135.15 -68.5 L-136.1 -67.7 -139.25 -67.7 -139.7 -67.55 -140.1 -68.45 -139.65 -69.3 Q-142.4 -71.5 -144.1 -71.5 -145.45 -71.5 -145.8 -70.05 L-145.85 -70.05 -145.9 -69.25 -145.9 -69.1" fill="#89a2b1" fill-rule="evenodd" stroke="none"/>
    <path d="M58.0 -74.4 L58.0 -74.8 Q58.0 -75.9 59.2 -76.4 L62.25 -76.2 62.4 -75.95 62.6 -75.5 63.0 -75.4 63.2 -75.0 Q63.4 -74.75 63.4 -73.6 L63.3 -71.9 63.2 -71.7 62.55 -71.35 61.45 -70.9 60.0 -72.5 Q58.4 -72.55 58.75 -72.9 L58.2 -73.35 Q58.05 -73.5 58.0 -74.4 58.0 -73.1 53.75 -69.5 L53.55 -69.3 Q63.55 -67.25 70.0 -66.9 L71.4 -65.85 72.05 -64.9 71.45 -63.0 70.1 -62.9 67.7 -62.8 Q55.6 -62.8 50.6 -65.2 L49.1 -66.1 Q47.45 -66.15 47.8 -66.5 L47.2 -66.85 Q47.0 -67.05 47.0 -68.3 47.0 -70.1 55.95 -76.6 L58.0 -74.4 M146.0 -67.7 L136.45 -67.7 Q132.5 -68.85 124.7 -69.3 123.85 -69.6 123.3 -70.4 122.75 -71.2 122.75 -72.1 123.35 -73.2 126.25 -74.2 L128.5 -74.0 132.7 -74.1 Q134.4 -73.35 135.5 -72.3 L136.85 -72.2 136.85 -72.5 Q136.85 -74.5 137.0 -74.6 138.95 -74.6 140.15 -73.55 L140.7 -72.95 140.7 -73.2 Q140.7 -73.8 141.9 -74.5 143.25 -75.35 145.0 -75.4 L145.2 -75.0 Q145.4 -74.75 145.4 -73.6 L145.3 -72.05 145.2 -71.8 150.5 -71.7 151.85 -71.35 152.35 -70.5 152.4 -69.8 Q152.4 -68.5 151.75 -68.05 L150.5 -67.7 146.0 -67.7 M-163.1 -74.75 L-161.85 -75.0 -158.85 -74.45 -159.05 -75.1 Q-159.05 -76.6 -158.25 -77.0 -157.45 -77.45 -155.6 -77.0 L-155.4 -76.6 Q-155.2 -76.35 -155.2 -75.2 L-155.25 -73.85 -147.8 -72.5 Q-146.5 -72.0 -145.8 -70.9 L-146.2 -70.1 Q-146.75 -69.25 -147.8 -68.5 L-161.85 -70.9 -163.25 -71.45 Q-163.8 -71.9 -163.8 -73.2 -163.8 -74.45 -163.1 -74.75 M-103.55 -74.6 Q-96.5 -73.85 -92.7 -75.4 -90.0 -77.4 -89.0 -77.0 L-88.3 -76.75 Q-88.05 -76.7 -88.05 -75.5 -88.05 -74.45 -89.55 -73.7 -90.65 -73.15 -94.7 -71.5 -95.8 -71.0 -97.3 -70.6 L-100.55 -70.1 -103.4 -70.35 Q-102.85 -69.15 -102.85 -67.9 L-103.6 -67.55 -104.8 -66.9 -105.2 -67.3 -105.6 -67.05 Q-106.3 -66.65 -107.95 -66.1 -110.95 -65.9 -112.35 -67.0 L-114.6 -68.9 -114.4 -70.9 -114.4 -71.3 -110.25 -71.05 -109.15 -70.9 -106.75 -70.6 -106.75 -70.9 -106.75 -71.0 Q-108.05 -71.55 -108.35 -72.5 -108.35 -73.1 -107.85 -73.8 -107.35 -74.55 -106.45 -74.95 L-106.4 -75.0 -106.3 -74.95 -103.55 -74.6 M-37.3 -72.05 L-37.3 -72.3 Q-37.3 -73.55 -36.65 -73.9 L-35.4 -74.2 -29.45 -74.2 -29.5 -74.8 Q-29.5 -75.9 -27.0 -76.95 -24.7 -77.9 -22.85 -77.8 L-22.65 -77.55 Q-22.5 -77.45 -22.5 -76.3 -22.5 -75.25 -23.65 -74.2 L-9.6 -74.2 -8.25 -73.8 Q-7.65 -73.45 -7.65 -72.2 -7.65 -70.9 -8.35 -70.45 L-9.6 -70.1 -29.5 -70.1 -35.4 -70.1 -36.8 -70.6 Q-37.25 -70.95 -37.3 -72.05" fill="#798f9c" fill-rule="evenodd" stroke="none"/>
    <path d="M43.6 -68.75 Q44.7 -68.3 45.2 -67.4 L46.25 -66.9 45.1 -65.05 44.9 -64.85 Q44.4 -64.4 43.45 -64.4 L43.25 -64.4 Q41.2 -64.45 39.25 -65.4 L38.45 -65.85 36.45 -67.35 35.2 -68.5 34.9 -68.5 Q33.25 -68.5 32.6 -69.8 32.2 -70.5 32.2 -71.3 L32.25 -72.45 32.6 -72.9 Q34.1 -73.3 36.45 -72.9 L36.6 -72.5 Q36.8 -72.3 36.8 -71.35 L39.55 -70.15 41.7 -69.05 43.6 -68.75 M76.65 -69.9 Q77.25 -72.55 81.0 -71.3 L81.2 -71.05 Q81.4 -70.95 81.4 -69.8 L81.3 -68.3 81.2 -68.3 80.65 -68.0 Q80.15 -67.7 79.0 -67.7 L77.45 -67.95 76.85 -68.7 76.65 -69.9 M75.7 -71.85 Q75.9 -71.75 75.9 -70.6 L75.8 -69.1 75.7 -69.1 75.15 -68.8 Q74.65 -68.5 73.5 -68.5 L73.05 -68.5 72.7 -68.5 Q70.7 -68.5 70.0 -69.95 69.65 -70.65 69.65 -71.6 69.65 -73.6 69.85 -73.7 71.7 -73.7 73.15 -72.5 L75.5 -72.1 75.7 -71.85 M30.0 -74.8 L30.55 -73.9 30.0 -71.9 28.65 -71.7 23.15 -71.7 21.75 -72.25 Q21.2 -72.7 21.2 -74.0 21.2 -75.2 22.6 -75.45 L28.65 -75.8 30.0 -74.8 M5.25 -70.9 L9.1 -70.9 Q10.4 -70.4 11.1 -69.3 8.6 -66.2 3.7 -65.2 L2.05 -66.9 1.7 -67.5 2.95 -68.95 5.25 -70.9 M152.35 -70.5 L154.7 -71.15 154.7 -76.25 155.05 -76.2 155.1 -76.2 156.15 -76.15 156.15 -70.1 155.95 -70.15 156.15 -70.05 156.15 -67.15 155.1 -66.8 154.7 -66.8 154.7 -65.85 Q150.0 -64.4 147.7 -64.4 L146.15 -64.65 145.6 -65.4 145.5 -65.3 145.4 -66.7 Q145.4 -67.15 146.0 -67.7 L150.5 -67.7 151.75 -68.05 Q152.4 -68.5 152.4 -69.8 L152.35 -70.5 M109.5 -69.9 Q110.6 -72.55 112.55 -72.4 112.6 -73.9 112.75 -73.8 115.5 -74.1 120.0 -72.5 L121.4 -72.15 Q122.0 -71.85 122.0 -70.6 L121.9 -69.4 121.8 -69.7 Q121.25 -68.8 120.0 -68.5 L119.75 -68.5 120.45 -67.7 119.3 -65.9 Q118.75 -65.2 117.65 -65.2 115.5 -65.2 114.2 -66.2 L113.8 -66.1 112.2 -67.75 111.8 -67.7 111.0 -67.95 Q110.05 -68.3 109.7 -68.7 L109.5 -69.9 109.5 -69.8 109.4 -68.3 109.3 -68.3 108.8 -68.0 107.2 -67.7 105.6 -67.95 104.95 -68.7 104.75 -69.9 105.0 -70.15 104.55 -70.35 103.45 -71.1 103.25 -72.3 Q103.25 -72.75 103.9 -73.4 104.6 -74.05 105.15 -74.2 106.55 -73.7 107.2 -72.5 L106.7 -71.7 106.55 -71.45 109.1 -71.3 109.3 -71.05 Q109.5 -70.95 109.5 -69.9 M161.0 -66.0 Q160.2 -66.3 159.5 -66.7 L157.45 -68.2 157.15 -68.5 156.4 -69.3 156.75 -69.75 157.05 -70.0 157.45 -70.35 Q157.85 -70.7 158.4 -70.9 L162.2 -70.9 162.9 -70.35 161.0 -66.0 M-114.4 -70.9 L-116.55 -70.9 -118.15 -72.55 -118.55 -73.1 Q-118.55 -74.5 -116.75 -74.7 L-106.45 -74.95 Q-107.35 -74.55 -107.85 -73.8 -108.35 -73.1 -108.35 -72.5 -108.05 -71.55 -106.75 -71.0 L-106.75 -70.9 -109.15 -70.9 -110.25 -71.05 -114.4 -71.3 -114.4 -70.9 M-106.3 -74.95 L-104.9 -75.0 -103.55 -74.6 -106.3 -74.95 M-29.5 -70.1 L-29.5 -69.5 -29.6 -67.85 -29.7 -67.7 -30.35 -67.35 -31.45 -66.9 -32.05 -67.55 -32.2 -67.3 -48.55 -66.45 -60.3 -65.2 -86.9 -65.2 -87.8 -65.45 -90.85 -66.0 -92.2 -66.55 Q-92.75 -67.0 -92.75 -68.3 -92.75 -69.55 -92.1 -69.85 L-90.85 -70.1 Q-81.6 -71.45 -75.1 -73.25 L-67.35 -75.6 Q-60.4 -76.45 -59.2 -75.7 -56.8 -74.05 -50.95 -73.3 L-42.05 -72.45 -37.3 -72.05 Q-37.25 -70.95 -36.8 -70.6 L-35.4 -70.1 -29.5 -70.1 M-145.9 -69.1 L-145.9 -69.25 -145.85 -70.05 -145.8 -70.05 Q-145.45 -71.5 -144.1 -71.5 -142.4 -71.5 -139.65 -69.3 L-140.1 -68.45 -139.7 -67.55 -139.25 -67.7 -136.1 -67.7 -135.15 -68.5 Q-133.45 -69.45 -130.6 -68.9 L-130.4 -68.65 Q-130.2 -68.55 -130.2 -67.4 -130.2 -65.55 -131.9 -64.8 L-133.75 -64.4 -133.85 -64.4 -135.3 -63.6 -139.25 -63.6 -140.65 -64.1 Q-141.05 -64.4 -141.1 -65.2 L-141.55 -65.2 Q-144.55 -65.2 -145.9 -68.9 L-145.9 -69.1" fill="#98b3c4" fill-rule="evenodd" stroke="none"/>
    <path d="M41.3 -15.25 L43.15 -15.05 Q44.35 -15.05 45.35 -16.05 L44.6 -17.55 Q43.55 -18.1 41.5 -17.55 39.45 -17.0 39.1 -16.05 39.35 -15.6 41.3 -15.25 M28.75 -16.05 Q29.45 -16.05 29.95 -17.55 29.5 -18.0 -23.5 -18.35 L-76.35 -18.55 Q-76.35 -18.4 -76.9 -18.8 -77.55 -18.95 -77.55 -17.4 -77.55 -15.85 -77.3 -15.9 L-77.05 -16.3 28.75 -16.05 M-167.3 -40.55 L-127.55 -40.55 -127.05 -35.0 -126.35 -28.5 -132.15 -28.55 Q-132.15 -28.4 -132.75 -28.8 -133.35 -28.95 -133.35 -27.4 -133.35 -25.85 -133.15 -25.9 L-132.9 -26.3 -53.25 -26.05 Q-52.5 -26.05 -52.05 -27.55 -52.45 -28.0 -92.35 -28.35 L-124.55 -28.5 Q-124.25 -31.2 -124.25 -35.3 -124.25 -38.3 -124.4 -40.55 L158.65 -40.55 158.65 90.8 -167.3 90.8 -167.3 -40.55 M68.7 21.7 L67.25 21.7 Q67.05 24.15 67.8 31.6 67.65 37.85 62.65 37.7 L62.4 37.3 Q62.2 37.25 62.2 38.8 62.2 40.8 63.65 42.55 66.0 44.85 67.45 46.7 68.55 46.55 69.05 46.1 L69.4 45.7 67.4 42.95 65.3 40.45 Q70.0 39.5 70.1 38.35 69.35 36.9 69.4 35.95 L69.4 30.7 Q69.4 24.7 68.7 21.7 M154.7 64.85 L154.7 62.75 141.25 62.65 64.35 62.45 Q64.35 62.6 63.75 62.15 63.15 62.0 63.15 63.55 63.15 65.1 63.4 65.05 L63.6 64.7 154.7 64.85 M104.85 53.1 Q105.1 52.85 105.1 52.95 L128.7 52.95 129.2 51.45 117.25 50.65 105.85 50.45 Q105.85 50.6 105.25 50.15 104.65 50.0 104.65 51.55 104.65 53.1 104.85 53.1 M122.2 5.95 Q122.9 5.95 123.4 4.45 122.95 4.0 49.25 3.65 L-24.35 3.45 -24.95 3.2 Q-25.55 3.05 -25.55 4.6 -25.55 6.15 -25.3 6.05 L-25.1 5.7 122.2 5.95 M-61.9 54.05 L-61.65 53.7 -11.7 53.95 Q-11.0 53.95 -10.5 52.45 L-36.0 51.65 -60.95 51.45 -61.5 51.15 Q-62.15 51.0 -62.15 52.55 -62.15 54.1 -61.9 54.05 M-62.6 48.45 L-62.6 42.45 -63.35 41.7 Q-66.15 41.3 -67.25 43.0 -67.9 44.0 -67.9 45.45 -67.9 47.05 -63.85 49.7 L-62.85 48.9 -62.6 48.45 M-46.0 -2.3 L-48.0 -0.6 Q-48.65 0.15 -48.65 0.6 L-47.2 19.7 -45.55 19.45 Q-45.3 15.7 -45.3 8.55 -45.3 1.45 -46.0 -2.3 M-149.5 -4.9 L-149.25 -5.3 -49.4 -5.05 Q-48.65 -5.05 -48.2 -6.55 -48.6 -7.0 -98.6 -7.35 L-148.55 -7.55 Q-148.55 -7.4 -149.1 -7.8 -149.75 -7.95 -149.75 -6.4 -149.75 -4.85 -149.5 -4.9" fill="#32383c" fill-rule="evenodd" stroke="none"/>
    <path d="M28.75 -16.05 L-77.05 -16.3 -77.3 -15.9 Q-77.55 -15.85 -77.55 -17.4 -77.55 -18.95 -76.9 -18.8 -76.35 -18.4 -76.35 -18.55 L-23.5 -18.35 Q29.5 -18.0 29.95 -17.55 29.45 -16.05 28.75 -16.05 M41.3 -15.25 Q39.35 -15.6 39.1 -16.05 39.45 -17.0 41.5 -17.55 43.55 -18.1 44.6 -17.55 L45.35 -16.05 Q44.35 -15.05 43.15 -15.05 L41.3 -15.25 M-127.55 -40.55 L-127.6 -41.65 Q-127.6 -43.3 -126.35 -43.95 L-124.95 -44.3 Q-124.55 -42.8 -124.4 -40.55 -124.25 -38.3 -124.25 -35.3 -124.25 -31.2 -124.55 -28.5 L-92.35 -28.35 Q-52.45 -28.0 -52.05 -27.55 -52.5 -26.05 -53.25 -26.05 L-132.9 -26.3 -133.15 -25.9 Q-133.35 -25.85 -133.35 -27.4 -133.35 -28.95 -132.75 -28.8 -132.15 -28.4 -132.15 -28.55 L-126.35 -28.5 -127.05 -35.0 -127.55 -40.55 M122.2 5.95 L-25.1 5.7 -25.3 6.05 Q-25.55 6.15 -25.55 4.6 -25.55 3.05 -24.95 3.2 L-24.35 3.45 49.25 3.65 Q122.95 4.0 123.4 4.45 122.9 5.95 122.2 5.95 M104.85 53.1 Q104.65 53.1 104.65 51.55 104.65 50.0 105.25 50.15 105.85 50.6 105.85 50.45 L117.25 50.65 129.2 51.45 128.7 52.95 105.1 52.95 Q105.1 52.85 104.85 53.1 M154.7 64.85 L63.6 64.7 63.4 65.05 Q63.15 65.1 63.15 63.55 63.15 62.0 63.75 62.15 64.35 62.6 64.35 62.45 L141.25 62.65 154.7 62.75 154.7 64.85 M68.7 21.7 Q69.4 24.7 69.4 30.7 L69.4 35.95 Q69.35 36.9 70.1 38.35 70.0 39.5 65.3 40.45 L67.4 42.95 69.4 45.7 69.05 46.1 Q68.55 46.55 67.45 46.7 66.0 44.85 63.65 42.55 62.2 40.8 62.2 38.8 62.2 37.25 62.4 37.3 L62.65 37.7 Q67.65 37.85 67.8 31.6 67.05 24.15 67.25 21.7 L68.7 21.7 M-149.5 -4.9 Q-149.75 -4.85 -149.75 -6.4 -149.75 -7.95 -149.1 -7.8 -148.55 -7.4 -148.55 -7.55 L-98.6 -7.35 Q-48.6 -7.0 -48.2 -6.55 -48.65 -5.05 -49.4 -5.05 L-149.25 -5.3 -149.5 -4.9 M-46.0 -2.3 Q-45.3 1.45 -45.3 8.55 -45.3 15.7 -45.55 19.45 L-47.2 19.7 -48.65 0.6 Q-48.65 0.15 -48.0 -0.6 L-46.0 -2.3 M-62.6 48.45 L-62.85 48.9 -63.85 49.7 Q-67.9 47.05 -67.9 45.45 -67.9 44.0 -67.25 43.0 -66.15 41.3 -63.35 41.7 L-62.6 42.45 -62.6 48.45 M-61.9 54.05 Q-62.15 54.1 -62.15 52.55 -62.15 51.0 -61.5 51.15 L-60.95 51.45 -36.0 51.65 -10.5 52.45 Q-11.0 53.95 -11.7 53.95 L-61.65 53.7 -61.9 54.05" fill="#131919" fill-rule="evenodd" stroke="none"/>
    <path d="M-167.3 -60.85 L158.65 -60.85 158.65 -50.0 -167.3 -50.0 -167.3 -60.85 M167.25 -85.4 L-167.3 -85.4 -167.3 -90.85 160.1 -90.85 167.25 -85.4" fill="#445158" fill-rule="evenodd" stroke="none"/>
    <path d="M167.25 -80.0 L-167.3 -80.0 -167.3 -85.4 167.25 -85.4 167.25 -80.0 M158.65 -50.0 L158.65 -40.55 -124.4 -40.55 Q-124.55 -42.8 -124.95 -44.3 L-126.35 -43.95 Q-127.6 -43.3 -127.6 -41.65 L-127.55 -40.55 -167.3 -40.55 -167.3 -50.0 158.65 -50.0" fill="#121517" fill-rule="evenodd" stroke="none"/>
    <path d="M162.9 -70.35 L167.25 -79.95 167.25 90.8 158.65 90.8 158.65 -40.55 158.65 -50.0 158.65 -60.85 161.0 -66.0 162.9 -70.35" fill="#48555d" fill-rule="evenodd" stroke="none"/>
  </g>
</svg>
