<?xml version="1.0" encoding="UTF-8" standalone="no"?>
<svg xmlns:xlink="http://www.w3.org/1999/xlink" height="663.9px" width="901.75px" xmlns="http://www.w3.org/2000/svg">
  <g transform="matrix(1.0, 0.0, 0.0, 1.0, 450.9, 331.95)">
    <path d="M276.95 -331.95 L277.15 -6.75 132.75 -6.75 132.75 -331.95 276.95 -331.95 M-167.85 82.25 L450.85 82.25 450.85 331.95 -450.9 331.95 -450.9 187.75 -169.1 187.75 -169.0 167.35 -168.95 160.55 -167.85 82.25" fill="#6d7c85" fill-rule="evenodd" stroke="none"/>
    <path d="M-167.85 82.25 L-167.85 55.05 450.85 55.05 450.85 82.25 -167.85 82.25 M-450.9 187.75 L-450.9 160.55 -168.95 160.55 -169.0 167.35 -169.1 187.75 -450.9 187.75" fill="#a1b7c4" fill-rule="evenodd" stroke="none"/>
    <path d="M276.95 -331.95 L277.15 -6.75 132.75 -6.75 132.75 -331.95 276.95 -331.95 M450.85 82.25 L450.85 55.05 -167.85 55.05 -167.85 82.25 450.85 82.25 450.85 331.95 -450.9 331.95 -450.9 187.75 -450.9 160.55 -168.95 160.55 -167.85 82.25 M-168.95 160.55 L-169.0 167.35 -169.1 187.75 -450.9 187.75" fill="none" stroke="#000000" stroke-linecap="round" stroke-linejoin="round" stroke-width="0.05"/>
  </g>
</svg>
