<?xml version="1.0" encoding="UTF-8" standalone="no"?>
<svg xmlns:xlink="http://www.w3.org/1999/xlink" height="362.8px" width="904.55px" xmlns="http://www.w3.org/2000/svg">
  <g transform="matrix(1.0, 0.0, 0.0, 1.0, 452.25, 181.4)">
    <path d="M277.75 -69.1 L277.75 -96.3 451.9 -96.3 451.9 -69.1 277.75 -69.1 M-452.25 37.2 L-452.25 10.0 277.75 10.0 277.75 37.2 -452.25 37.2 M-211.4 -154.2 L-211.4 -181.4 -37.25 -181.4 -37.25 -154.2 -211.4 -154.2" fill="#a1b7c4" fill-rule="evenodd" stroke="none"/>
    <path d="M451.9 -69.1 L452.0 -50.5 452.05 -25.45 452.05 -24.05 452.15 -3.4 452.3 37.35 449.95 37.35 449.95 181.4 -452.25 181.4 -452.25 37.2 277.75 37.2 277.75 37.35 449.95 37.35 277.75 37.35 277.75 37.2 277.75 10.0 277.75 -69.1 451.9 -69.1 M452.05 -25.45 L452.05 -24.05 452.05 -25.45 M-37.25 -154.2 L-36.85 -54.75 -211.4 -54.75 -211.4 -154.2 -37.25 -154.2" fill="#6d7c85" fill-rule="evenodd" stroke="none"/>
    <path d="M277.75 -69.1 L277.75 -96.3 451.9 -96.3 451.9 -69.1 452.0 -50.5 452.05 -25.45 452.05 -24.05 452.15 -3.4 452.3 37.35 449.95 37.35 277.75 37.35 277.75 37.2 277.75 10.0 277.75 -69.1 451.9 -69.1 M452.05 -24.05 L452.05 -25.45 M-211.4 -154.2 L-211.4 -181.4 -37.25 -181.4 -37.25 -154.2 -36.85 -54.75 -211.4 -54.75 -211.4 -154.2 -37.25 -154.2" fill="none" stroke="#000000" stroke-linecap="round" stroke-linejoin="round" stroke-width="0.05"/>
    <path d="M449.95 37.35 L449.95 181.4 -452.25 181.4 -452.25 37.2 -452.25 10.0 277.75 10.0 M277.75 37.2 L-452.25 37.2" fill="none" stroke="#000000" stroke-linecap="round" stroke-linejoin="round" stroke-opacity="0.49803922" stroke-width="0.05"/>
  </g>
</svg>
