<?xml version="1.0" encoding="UTF-8" standalone="no"?>
<svg xmlns:xlink="http://www.w3.org/1999/xlink" height="560.35px" width="902.2px" xmlns="http://www.w3.org/2000/svg">
  <g transform="matrix(1.0, 0.0, 0.0, 1.0, 451.1, 280.2)">
    <path d="M-451.1 135.95 L-451.1 108.75 451.1 108.75 451.1 135.95 -451.1 135.95" fill="#a1b7c4" fill-rule="evenodd" stroke="none"/>
    <path d="M451.1 135.95 L451.1 280.15 -451.1 280.15 -451.1 135.95 451.1 135.95 M185.35 -280.2 L185.75 45.0 -106.55 45.0 -106.55 -280.2 185.35 -280.2" fill="#6d7c85" fill-rule="evenodd" stroke="none"/>
    <path d="M-451.1 135.95 L-451.1 108.75 451.1 108.75 451.1 135.95 451.1 280.15 -451.1 280.15 -451.1 135.95 451.1 135.95" fill="none" stroke="#000000" stroke-linecap="round" stroke-linejoin="round" stroke-opacity="0.49803922" stroke-width="0.05"/>
    <path d="M185.35 -280.2 L185.75 45.0 -106.55 45.0 -106.55 -280.2 185.35 -280.2" fill="none" stroke="#000000" stroke-linecap="round" stroke-linejoin="round" stroke-width="0.05"/>
  </g>
</svg>
