<?xml version="1.0" encoding="UTF-8" standalone="no"?>
<svg xmlns:xlink="http://www.w3.org/1999/xlink" height="363.7px" width="901.75px" xmlns="http://www.w3.org/2000/svg">
  <g transform="matrix(1.0, 0.0, 0.0, 1.0, 450.9, 181.85)">
    <path d="M35.85 -154.65 L35.85 -181.85 450.85 -181.85 450.85 -154.65 35.85 -154.65 M-450.9 -68.75 L-450.9 -95.95 -119.3 -95.95 -119.3 -68.75 -450.9 -68.75" fill="#a1b7c4" fill-rule="evenodd" stroke="none"/>
    <path d="M35.85 -154.65 L450.85 -154.65 450.85 181.85 35.45 181.85 35.85 -154.65 M-119.3 -68.75 L-119.3 180.95 -450.9 180.95 -450.9 -68.75 -119.3 -68.75" fill="#6d7c85" fill-rule="evenodd" stroke="none"/>
    <path d="M450.85 -154.65 L450.85 -181.85 35.85 -181.85 35.85 -154.65 450.85 -154.65 450.85 181.85 35.45 181.85 35.85 -154.65 M-450.9 -68.75 L-450.9 -95.95 -119.3 -95.95 -119.3 -68.75 -119.3 180.95 -450.9 180.95 -450.9 -68.75 -119.3 -68.75" fill="none" stroke="#000000" stroke-linecap="round" stroke-linejoin="round" stroke-width="0.05"/>
  </g>
</svg>
