<?xml version="1.0" encoding="UTF-8" standalone="no"?>
<svg xmlns:xlink="http://www.w3.org/1999/xlink" height="584.35px" width="901.8px" xmlns="http://www.w3.org/2000/svg">
  <g transform="matrix(1.0, 0.0, 0.0, 1.0, 450.9, 292.2)">
    <path d="M293.65 -46.55 L-69.8 -46.55 -69.8 -292.2 293.15 -292.2 293.65 -46.55 M-450.9 42.45 L450.9 42.45 450.9 292.15 -450.9 292.15 -450.9 42.45" fill="#6d7c85" fill-rule="evenodd" stroke="none"/>
    <path d="M-450.9 42.45 L-450.9 15.25 450.9 15.25 450.9 42.45 -450.9 42.45" fill="#a1b7c4" fill-rule="evenodd" stroke="none"/>
    <path d="M293.65 -46.55 L-69.8 -46.55 -69.8 -292.2 293.15 -292.2 293.65 -46.55 M450.9 42.45 L450.9 15.25 -450.9 15.25 -450.9 42.45 450.9 42.45 450.9 292.15 -450.9 292.15 -450.9 42.45" fill="none" stroke="#000000" stroke-linecap="round" stroke-linejoin="round" stroke-width="0.05"/>
  </g>
</svg>
