<?xml version="1.0" encoding="UTF-8" standalone="no"?>
<svg xmlns:xlink="http://www.w3.org/1999/xlink" height="363.7px" width="902.15px" xmlns="http://www.w3.org/2000/svg">
  <g transform="matrix(1.0, 0.0, 0.0, 1.0, 451.05, 181.85)">
    <path d="M-179.15 -154.65 L-179.15 -181.85 216.6 -181.85 216.6 -154.65 -179.15 -154.65 M216.6 9.55 L451.1 9.55 451.1 36.75 216.6 36.75 216.6 9.55 M-451.05 36.75 L-451.05 9.55 -179.5 9.55 -179.5 36.75 -451.05 36.75" fill="#a1b7c4" fill-rule="evenodd" stroke="none"/>
    <path d="M-179.15 -154.65 L216.6 -154.65 216.6 9.55 216.6 36.75 451.1 36.75 451.1 180.95 216.6 180.95 216.6 181.85 -179.8 181.85 -179.8 180.95 -451.05 180.95 -451.05 36.75 -179.5 36.75 -179.5 9.55 -179.15 -154.65 M194.15 180.95 L216.6 180.95 194.15 180.95" fill="#6d7c85" fill-rule="evenodd" stroke="none"/>
    <path d="M216.6 -154.65 L216.6 -181.85 -179.15 -181.85 -179.15 -154.65 216.6 -154.65 216.6 9.55 451.1 9.55 451.1 36.75 451.1 180.95 216.6 180.95 216.6 181.85 -179.8 181.85 -179.8 180.95 -451.05 180.95 -451.05 36.75 -179.5 36.75 -179.5 9.55 -179.15 -154.65 M451.1 36.75 L216.6 36.75 216.6 9.55 M216.6 180.95 L194.15 180.95" fill="none" stroke="#000000" stroke-linecap="round" stroke-linejoin="round" stroke-opacity="0.49803922" stroke-width="0.05"/>
    <path d="M-451.05 36.75 L-451.05 9.55 -179.5 9.55" fill="none" stroke="#000000" stroke-linecap="round" stroke-linejoin="round" stroke-width="0.05"/>
  </g>
</svg>
