<?xml version="1.0" encoding="UTF-8" standalone="no"?>
<svg xmlns:xlink="http://www.w3.org/1999/xlink" height="126.65px" width="645.6px" xmlns="http://www.w3.org/2000/svg">
  <g transform="matrix(1.0, 0.0, 0.0, 1.0, 322.8, 63.35)">
    <path d="M83.8 -36.15 L83.8 -63.35 322.25 -63.35 322.25 -36.15 83.8 -36.15 M-322.8 -36.15 L-322.8 -63.35 -84.35 -63.35 -84.35 -36.15 -322.8 -36.15" fill="#a1b7c4" fill-rule="evenodd" stroke="none"/>
    <path d="M322.25 -36.15 L322.8 63.3 83.8 63.3 83.8 -36.15 322.25 -36.15 M-84.35 -36.15 L-83.8 63.3 -322.8 63.3 -322.8 -36.15 -84.35 -36.15" fill="#6d7c85" fill-rule="evenodd" stroke="none"/>
    <path d="M83.8 -36.15 L83.8 -63.35 322.25 -63.35 322.25 -36.15 322.8 63.3 83.8 63.3 83.8 -36.15 322.25 -36.15 M-322.8 -36.15 L-322.8 -63.35 -84.35 -63.35 -84.35 -36.15 -83.8 63.3 -322.8 63.3 -322.8 -36.15 -84.35 -36.15" fill="none" stroke="#000000" stroke-linecap="round" stroke-linejoin="round" stroke-width="0.05"/>
  </g>
</svg>
