<?xml version="1.0" encoding="UTF-8" standalone="no"?>
<svg xmlns:xlink="http://www.w3.org/1999/xlink" height="126.65px" width="639.65px" xmlns="http://www.w3.org/2000/svg">
  <g transform="matrix(1.0, 0.0, 0.0, 1.0, 319.8, 63.35)">
    <path d="M83.8 -36.15 L83.8 -63.35 319.35 -63.35 319.35 -36.15 83.8 -36.15 M-319.8 -36.15 L-319.8 -63.35 -84.25 -63.35 -84.25 -36.15 -319.8 -36.15" fill="#a1b7c4" fill-rule="evenodd" stroke="none"/>
    <path d="M319.35 -36.15 L319.85 63.3 83.8 63.3 83.8 -36.15 319.35 -36.15 M-84.25 -36.15 L-83.75 63.3 -319.8 63.3 -319.8 -36.15 -84.25 -36.15" fill="#6d7c85" fill-rule="evenodd" stroke="none"/>
    <path d="M83.8 -36.15 L83.8 -63.35 319.35 -63.35 319.35 -36.15 319.85 63.3 83.8 63.3 83.8 -36.15 319.35 -36.15 M-319.8 -36.15 L-319.8 -63.35 -84.25 -63.35 -84.25 -36.15 -83.75 63.3 -319.8 63.3 -319.8 -36.15 -84.25 -36.15" fill="none" stroke="#000000" stroke-linecap="round" stroke-linejoin="round" stroke-width="0.05"/>
  </g>
</svg>
