<?xml version="1.0" encoding="UTF-8" standalone="no"?>
<svg xmlns:xlink="http://www.w3.org/1999/xlink" height="233.2px" width="639.65px" xmlns="http://www.w3.org/2000/svg">
  <g transform="matrix(1.0, 0.0, 0.0, 1.0, 319.8, 116.6)">
    <path d="M84.3 17.15 L84.3 -10.05 319.85 -10.05 319.85 17.15 84.3 17.15 M-319.3 -89.4 L-319.3 -116.6 -83.75 -116.6 -83.75 -89.4 -319.3 -89.4" fill="#a1b7c4" fill-rule="evenodd" stroke="none"/>
    <path d="M84.3 17.15 L319.85 17.15 319.85 116.6 83.8 116.6 84.3 17.15 M-319.3 -89.4 L-83.75 -89.4 -83.75 10.05 -319.8 10.05 -319.3 -89.4" fill="#6d7c85" fill-rule="evenodd" stroke="none"/>
    <path d="M319.85 17.15 L319.85 -10.05 84.3 -10.05 84.3 17.15 319.85 17.15 319.85 116.6 83.8 116.6 84.3 17.15 M-83.75 -89.4 L-83.75 -116.6 -319.3 -116.6 -319.3 -89.4 -83.75 -89.4 -83.75 10.05 -319.8 10.05 -319.3 -89.4" fill="none" stroke="#000000" stroke-linecap="round" stroke-linejoin="round" stroke-width="0.05"/>
  </g>
</svg>
