<?xml version="1.0" encoding="UTF-8" standalone="no"?>
<svg xmlns:xlink="http://www.w3.org/1999/xlink" height="34.9px" width="32.65px" xmlns="http://www.w3.org/2000/svg">
  <g transform="matrix(1.0, 0.0, 0.0, 1.0, -39.75, -66.65)">
    <path d="M39.75 89.1 Q39.75 88.3 40.95 88.5 L41.05 88.65 41.1 89.1 41.0 89.65 40.4 89.9 39.75 89.1 M66.15 67.75 L65.6 67.95 64.9 67.25 Q64.9 66.85 65.15 66.75 L65.6 66.65 66.2 67.15 66.15 67.75 M65.2 72.55 Q65.3 71.55 66.1 71.3 L66.2 70.15 Q66.2 68.75 67.0 69.95 67.75 71.1 67.75 72.25 L67.45 75.05 Q67.0 77.25 66.3 77.25 L66.0 77.25 65.95 77.2 65.8 77.2 65.45 79.25 64.85 79.65 64.85 79.9 64.2 80.15 63.6 79.3 Q63.6 78.7 64.2 78.65 L64.15 78.4 Q64.15 77.4 64.45 75.85 64.8 74.25 65.25 73.65 L65.2 72.55 M54.45 72.1 Q55.85 74.1 55.85 75.65 L55.65 76.0 55.15 76.15 51.65 70.3 51.7 69.65 Q53.05 70.05 54.45 72.1 M53.95 83.5 Q54.35 85.35 54.35 87.85 L54.25 88.45 53.65 88.65 Q53.25 88.65 52.45 85.4 51.55 81.65 50.95 80.75 53.1 79.9 53.95 83.5 M59.7 88.0 Q59.15 87.4 59.15 86.95 59.15 85.8 59.8 85.8 60.25 85.8 60.4 86.3 60.65 84.5 61.7 83.9 L62.15 84.05 Q62.35 84.15 62.35 84.55 L61.4 91.0 60.45 94.15 61.65 92.55 Q64.85 88.15 66.25 83.55 L66.0 83.65 65.35 82.95 Q65.35 82.65 66.2 81.55 L66.95 80.5 67.0 79.95 67.25 79.95 67.65 79.05 68.55 77.3 Q69.35 76.1 69.35 77.7 L68.2 80.8 68.2 81.05 Q68.2 83.75 67.65 85.1 L65.6 90.05 Q65.2 91.2 62.5 94.15 63.2 93.5 64.0 93.65 L64.1 93.75 64.15 93.8 66.25 92.5 Q68.65 91.55 69.85 89.75 70.85 88.2 72.35 88.0 L72.4 88.9 Q72.4 91.3 66.1 95.0 L62.05 97.15 61.6 97.65 61.5 98.0 60.15 99.25 60.0 99.1 Q57.15 101.55 55.85 101.55 L54.6 101.25 Q54.5 101.45 54.5 100.85 L54.65 100.8 54.25 100.8 Q52.9 100.8 51.05 99.9 49.45 99.1 48.85 98.15 L48.3 97.8 48.35 97.9 47.65 98.2 46.7 97.9 46.6 97.2 46.6 96.5 46.8 96.55 Q46.1 95.8 46.1 95.2 L47.65 95.4 47.6 95.2 49.3 95.15 Q49.85 95.7 49.85 96.3 L49.85 96.9 49.75 97.1 50.05 97.5 51.45 98.2 Q53.25 99.45 53.85 99.45 L54.35 99.45 54.95 97.1 54.75 96.05 54.75 94.9 54.0 95.15 53.4 95.05 53.25 94.95 53.2 94.4 Q53.2 89.85 54.2 89.15 54.7 89.55 54.85 90.65 L54.85 92.05 54.85 92.3 Q55.05 91.0 55.6 91.45 L56.05 92.15 56.6 92.7 57.2 93.85 58.4 93.85 59.15 92.65 58.75 92.55 58.7 91.9 Q58.7 91.15 59.45 88.8 L59.7 88.0 M48.35 85.8 L47.65 86.3 46.7 86.0 46.6 85.3 46.6 84.65 Q48.15 84.65 48.35 85.8 M57.3 95.4 L57.25 95.4 57.25 95.5 57.3 95.4 M57.6 97.15 L56.9 97.1 56.75 97.6 56.3 99.1 56.4 99.25 56.25 99.95 56.45 99.85 59.2 98.05 59.05 97.95 58.95 97.7 58.15 98.45 57.65 98.4 57.45 98.25 57.4 97.75 58.0 97.1 57.6 97.15 M61.35 95.35 L61.45 95.5 61.95 94.75 61.35 95.35" fill="#fffc02" fill-opacity="0.65882355" fill-rule="evenodd" stroke="none"/>
  </g>
</svg>
