<?xml version="1.0" encoding="UTF-8" standalone="no"?>
<svg xmlns:xlink="http://www.w3.org/1999/xlink" height="40.35px" width="36.2px" xmlns="http://www.w3.org/2000/svg">
  <g transform="matrix(1.0, 0.0, 0.0, 1.0, -34.9, -61.2)">
    <path d="M35.05 83.9 Q37.1 84.55 38.05 87.5 L39.6 92.4 39.5 92.75 39.45 92.95 39.0 93.05 Q38.75 93.05 34.9 84.35 L34.9 84.0 35.05 83.9 M38.4 81.0 Q40.05 80.95 42.05 84.75 L44.8 90.7 44.7 91.0 Q45.85 93.1 45.85 94.2 L45.75 94.9 Q45.85 95.15 45.25 95.15 42.05 90.75 40.95 87.7 L40.9 87.55 40.4 85.65 40.6 85.7 38.35 81.6 38.4 81.0 M69.65 72.35 Q70.65 73.75 70.65 74.4 L70.6 75.25 70.0 75.45 68.6 72.4 Q68.6 70.95 69.65 72.35 M44.8 61.75 L44.8 66.8 44.15 67.15 Q43.5 66.6 43.5 64.2 43.5 61.75 44.15 61.2 L44.8 61.75 M45.25 81.9 L45.05 81.1 Q43.4 80.0 42.55 78.65 L41.25 76.4 Q40.65 75.3 40.65 74.35 L40.75 73.45 Q41.05 72.95 42.1 73.25 42.25 73.65 42.0 74.5 42.0 76.25 43.95 77.9 L42.4 75.4 42.5 75.0 43.35 75.35 44.05 73.35 Q44.8 71.6 44.8 74.4 L44.75 75.75 44.6 76.3 Q45.85 77.65 46.75 80.25 L47.65 81.5 47.5 81.9 47.45 82.1 47.3 82.15 47.4 82.55 47.4 84.7 48.15 86.15 49.85 88.95 51.1 91.65 Q51.45 90.95 52.15 89.8 L52.4 88.45 52.3 86.3 Q52.3 83.55 52.55 82.55 L52.55 78.15 51.55 75.05 Q50.85 72.9 50.75 71.5 52.0 72.65 52.8 74.15 L53.25 73.9 Q53.7 75.15 53.8 77.15 L54.1 81.85 54.1 82.8 54.55 86.05 Q56.15 83.65 57.65 82.2 L57.95 80.95 Q58.45 79.2 59.65 79.2 L59.75 79.35 59.8 79.8 59.75 80.45 60.1 80.25 60.2 80.3 60.25 80.7 59.0 83.05 59.0 83.1 58.85 83.35 59.05 83.5 59.15 83.4 59.25 83.4 59.3 83.7 59.3 86.25 58.65 86.55 58.35 86.35 56.75 90.3 55.1 94.45 55.4 96.65 Q55.4 96.9 54.75 96.9 L54.2 96.8 Q53.6 98.45 53.35 99.4 L53.0 99.5 52.3 98.7 52.7 96.85 52.25 96.3 51.8 97.5 Q50.35 101.55 49.3 101.55 L48.65 101.45 48.45 101.3 48.4 100.85 48.95 99.4 Q48.0 99.2 47.05 98.5 L47.0 99.05 Q47.05 99.25 46.4 99.25 L45.95 99.1 42.6 101.3 42.15 101.1 Q42.0 100.95 42.0 100.5 42.0 99.4 44.55 98.15 L45.3 97.8 45.05 96.6 Q45.05 95.4 46.05 95.95 46.5 96.2 46.75 96.6 L47.9 96.95 47.95 97.0 48.55 96.95 48.65 97.15 Q48.75 96.15 49.45 94.6 L49.9 93.75 49.65 93.25 49.6 93.35 49.05 93.55 Q48.4 93.55 48.1 92.6 L47.9 91.55 48.1 90.2 48.15 90.15 47.1 88.15 46.75 88.3 46.5 87.4 46.4 87.4 45.05 84.95 45.25 84.55 43.5 81.05 43.55 80.7 45.25 81.9 M54.95 68.4 Q55.1 67.7 55.55 67.4 56.25 67.95 56.45 69.3 L56.75 71.55 56.65 71.95 56.55 72.25 56.05 72.4 Q55.2 72.4 54.95 70.8 L54.9 69.1 54.95 68.4 M59.15 75.7 Q59.8 76.4 59.8 76.8 L59.65 78.0 58.65 79.25 58.0 78.55 58.25 77.3 Q58.6 76.1 59.15 75.7 M54.15 89.8 L53.55 90.6 53.4 91.65 53.25 92.6 54.15 92.65 54.2 92.75 54.8 91.15 56.2 88.05 Q55.0 89.65 54.25 89.9 L54.15 89.8 M53.2 95.35 L53.35 95.0 53.25 94.35 53.25 94.25 52.95 93.95 52.75 94.6 53.2 95.35 M71.05 79.65 L70.35 79.9 69.85 79.8 69.6 79.5 69.55 79.15 Q69.55 78.8 70.0 78.65 70.5 78.45 71.0 78.9 L71.1 79.15 71.05 79.65 M63.35 85.35 Q63.35 88.35 61.4 90.7 L60.75 90.0 Q61.65 85.4 62.75 84.75 L63.15 84.85 Q63.35 84.95 63.35 85.35" fill="#ffef10" fill-opacity="0.65882355" fill-rule="evenodd" stroke="none"/>
  </g>
</svg>
