<?xml version="1.0" encoding="UTF-8" standalone="no"?>
<svg xmlns:xlink="http://www.w3.org/1999/xlink" height="39.25px" width="39.3px" xmlns="http://www.w3.org/2000/svg">
  <g transform="matrix(1.0, 0.0, 0.0, 1.0, -28.9, -63.1)">
    <path d="M29.6 63.1 L36.5 75.25 32.85 69.85 Q28.9 65.75 28.9 63.9 L29.25 63.65 Q29.6 63.5 29.6 63.1 M52.75 87.95 L52.75 87.35 52.4 85.5 52.0 83.85 Q52.0 81.85 53.05 84.5 L54.1 87.65 54.0 89.1 53.75 90.05 53.85 90.25 53.85 93.55 53.75 93.6 53.85 94.0 53.85 94.95 53.95 94.95 55.4 94.9 56.1 95.55 Q56.1 96.3 55.6 96.8 55.2 97.25 54.7 97.25 L54.1 96.9 54.0 97.0 Q54.05 97.25 53.4 97.25 L52.65 96.85 52.5 96.35 52.5 96.0 52.65 95.8 52.9 95.8 52.5 95.25 52.85 95.1 Q52.45 94.35 51.8 92.6 L51.4 91.45 51.35 93.35 50.75 93.65 Q50.1 92.9 50.1 90.9 50.1 88.0 50.7 87.95 L49.35 84.75 48.25 82.25 Q46.15 82.05 42.0 78.45 L37.35 74.1 37.55 74.1 37.55 72.7 Q41.45 76.25 46.75 79.9 L45.75 78.05 43.95 73.8 Q43.95 71.8 46.6 76.25 L49.4 81.3 50.45 83.35 52.75 87.95 M39.45 82.55 L41.4 84.5 41.3 84.85 Q41.15 85.1 40.75 85.1 40.25 85.1 38.9 83.85 L37.75 83.0 Q37.75 81.15 39.45 82.55 M64.35 75.9 L64.6 75.4 65.75 72.95 Q67.15 70.05 66.7 67.55 L68.1 67.4 68.2 69.25 Q68.2 71.05 67.15 73.65 L66.0 76.05 64.65 79.85 Q62.75 84.85 61.5 86.5 L61.75 87.2 62.2 86.4 Q62.85 87.2 62.85 87.9 62.85 90.15 61.95 92.7 L60.0 98.0 59.35 98.3 58.75 97.8 58.7 97.15 Q58.7 96.1 59.45 94.7 L60.55 92.3 60.4 92.35 Q59.75 91.65 59.75 91.15 59.75 89.6 60.1 88.25 60.4 86.85 60.95 86.25 L60.7 85.95 Q61.85 81.8 63.0 78.95 L60.65 81.75 60.0 81.05 Q60.0 80.75 62.5 77.0 L63.85 74.45 Q64.4 73.45 64.4 75.15 L64.35 75.9 M52.7 80.1 L53.05 80.7 Q54.95 83.85 55.85 86.65 L55.65 87.0 55.15 87.15 Q54.5 87.15 51.1 80.2 L50.75 79.45 49.15 76.15 49.2 75.75 49.2 75.8 Q50.75 77.0 52.5 79.8 L52.7 80.1 M52.1 76.75 Q51.45 76.75 51.0 75.55 L50.7 74.1 Q51.7 74.05 52.15 74.95 L52.75 76.15 52.65 76.55 52.1 76.75 M45.95 91.9 L45.4 92.05 Q44.6 92.05 43.5 90.5 42.6 89.15 42.6 88.85 L42.6 88.5 42.75 88.3 Q43.75 88.1 44.6 89.3 L46.1 91.5 45.95 91.9 M47.35 92.8 L47.35 94.1 47.25 94.45 46.7 94.65 Q45.85 94.65 45.7 93.85 L45.7 93.0 Q45.7 92.3 46.35 91.8 L47.35 92.8 M49.4 98.6 L49.35 99.9 48.75 100.1 48.15 99.6 48.1 99.0 Q48.1 98.45 48.75 98.0 L49.4 98.6 M50.15 94.8 Q51.25 94.8 52.3 96.35 L54.35 99.25 Q54.3 99.55 53.65 99.55 52.85 99.55 51.4 97.5 50.1 95.7 50.1 95.4 L50.15 94.8 M57.15 100.15 L56.8 101.2 56.8 101.25 57.15 101.6 56.5 102.35 55.9 102.05 55.9 101.8 55.45 101.4 55.35 101.0 Q55.35 100.3 56.5 99.5 L56.95 99.65 57.15 100.15" fill="#ffef10" fill-opacity="0.65882355" fill-rule="evenodd" stroke="none"/>
  </g>
</svg>
