<?xml version="1.0" encoding="UTF-8" standalone="no"?>
<svg xmlns:xlink="http://www.w3.org/1999/xlink" height="41.9px" width="35.5px" xmlns="http://www.w3.org/2000/svg">
  <g transform="matrix(1.0, 0.0, 0.0, 1.0, -23.35, -61.75)">
    <path d="M23.35 72.8 Q23.35 72.25 24.05 71.8 L24.55 72.2 24.65 72.85 24.6 73.7 24.05 73.9 23.4 73.4 23.35 72.8 M37.15 63.25 L37.45 62.75 38.45 64.1 39.2 65.6 39.15 66.2 Q39.2 66.4 38.55 66.4 38.1 66.4 37.4 65.05 L36.8 63.65 Q36.8 63.35 37.15 63.25 M35.1 70.95 Q36.9 72.35 36.8 73.55 L36.15 73.9 Q33.4 72.3 32.8 71.25 33.25 69.55 35.1 70.95 M40.1 74.0 L40.2 74.15 40.3 74.6 40.3 75.0 40.15 75.2 39.6 75.45 38.95 74.65 39.05 74.0 40.1 74.0 M30.45 79.8 L29.95 79.9 Q29.35 79.9 29.1 78.55 29.1 77.95 29.85 78.05 30.6 78.1 30.6 78.9 L30.55 79.65 30.45 79.8 M39.2 95.9 L39.35 95.75 41.7 96.3 40.55 94.65 Q40.55 93.15 43.75 96.2 L44.95 97.4 46.65 98.05 46.7 98.35 46.55 98.75 46.4 98.9 47.45 100.0 47.25 100.7 47.85 101.0 48.4 100.75 Q48.6 100.45 48.9 100.45 49.45 100.45 49.55 100.9 L49.55 101.4 49.5 101.95 49.85 101.95 49.95 102.05 50.05 102.45 Q50.05 102.95 49.4 103.3 L48.25 103.65 Q47.3 103.65 47.05 103.3 46.95 103.55 46.95 102.9 46.95 102.6 47.55 102.35 45.95 102.05 44.55 100.65 L44.75 99.85 43.35 98.45 42.05 98.05 Q39.2 97.05 39.2 96.25 L39.2 95.9 M31.05 91.45 L29.9 90.7 Q30.3 89.95 30.9 90.0 31.5 90.05 31.7 90.9 L31.6 91.2 Q31.45 91.45 31.05 91.45 M43.45 79.9 L43.35 76.7 43.1 72.6 Q43.05 69.95 44.05 69.25 L44.65 69.75 44.65 83.35 44.7 83.4 Q46.15 84.5 46.7 86.05 L47.45 88.65 46.85 89.15 44.95 86.65 44.4 86.75 Q43.6 86.75 43.4 86.25 L43.35 85.75 43.45 85.15 43.95 85.25 43.35 84.4 Q40.8 80.75 40.8 79.5 L40.8 78.95 Q42.05 79.1 43.0 80.45 L43.4 79.9 43.45 79.9 M41.6 63.15 L41.2 62.3 Q41.2 61.5 42.0 61.9 42.75 62.3 43.1 63.2 L43.0 63.6 42.45 63.8 Q42.05 63.8 41.6 63.15 M56.2 64.5 L56.65 64.3 Q57.45 65.7 58.0 67.8 L58.85 71.25 58.7 71.6 58.2 71.75 Q57.35 71.75 56.65 68.55 L56.05 68.65 55.55 68.55 55.3 68.4 55.3 67.95 55.7 67.45 56.45 67.45 56.05 65.05 Q56.05 64.65 56.2 64.5 M58.6 79.3 L57.95 80.15 57.35 79.75 57.3 79.4 Q57.3 79.0 57.55 78.9 L57.95 78.8 58.6 79.3 M50.0 81.25 L49.35 82.15 48.7 81.45 48.8 78.65 49.0 77.7 48.55 75.05 48.65 74.55 Q49.5 74.05 50.5 76.4 50.9 76.35 52.25 78.8 54.2 82.35 54.2 85.75 L54.15 87.4 53.55 87.65 53.35 87.25 53.35 87.35 53.25 91.5 Q52.95 94.05 51.55 95.65 L51.0 95.05 50.85 96.95 50.9 97.05 52.7 95.1 53.15 93.55 53.15 93.45 Q53.15 92.3 54.05 91.75 L54.45 91.9 54.5 91.95 54.85 91.9 54.95 92.65 54.85 93.45 54.95 93.9 Q54.95 95.4 53.65 96.45 L53.6 96.55 53.45 96.75 Q51.95 99.65 51.15 100.0 L50.55 99.3 50.6 99.15 50.3 98.9 50.2 98.95 Q49.65 98.9 49.55 98.45 48.95 98.05 48.95 96.9 48.95 96.05 49.55 95.4 L49.55 93.8 49.7 93.7 Q49.85 93.55 50.2 93.55 50.7 93.55 50.9 94.1 51.0 92.95 51.45 91.15 52.05 88.65 52.05 87.35 L51.9 86.05 51.8 86.05 Q50.9 84.35 50.0 81.25 M48.65 92.5 L48.7 92.95 48.65 93.55 48.05 93.8 47.4 93.0 Q47.4 92.0 48.55 92.4 L48.65 92.5 M44.05 88.8 L44.05 89.3 43.9 89.55 43.4 89.65 Q42.9 89.65 42.55 88.95 L42.3 88.4 Q42.3 87.4 43.2 87.7 44.05 87.95 44.05 88.8 M48.65 94.1 L48.7 94.5 48.65 95.15 48.05 95.4 47.4 94.55 Q47.4 93.55 48.55 93.95 L48.65 94.1" fill="#ffe109" fill-opacity="0.65882355" fill-rule="evenodd" stroke="none"/>
  </g>
</svg>
