<?xml version="1.0" encoding="UTF-8" standalone="no"?>
<svg xmlns:xlink="http://www.w3.org/1999/xlink" height="90.3px" width="329.35px" xmlns="http://www.w3.org/2000/svg">
  <g transform="matrix(1.0, 0.0, 0.0, 1.0, 164.65, 45.25)">
    <path d="M26.85 -37.45 L26.9 -37.5 Q34.25 -44.1 45.6 -44.1 L70.9 -44.1 Q71.95 -44.1 72.7 -43.35 73.4 -42.65 73.4 -41.6 L73.4 -21.6 Q73.4 -20.55 72.7 -19.8 71.95 -19.1 70.9 -19.1 L46.55 -19.1 Q44.5 -19.1 44.5 -17.0 44.5 -14.9 46.7 -14.85 L46.85 -14.85 52.8 -14.45 Q65.1 -13.8 71.1 -7.65 L71.05 -7.65 Q79.15 0.35 79.1 10.5 L79.1 18.55 Q79.1 30.2 69.5 37.4 61.15 43.7 49.5 43.7 L22.55 43.7 Q21.5 43.7 20.8 43.0 20.05 42.25 20.05 41.2 L20.05 20.75 Q20.05 19.7 20.8 19.0 21.5 18.25 22.55 18.25 L48.5 18.25 Q52.75 18.25 53.05 15.65 L53.05 13.15 Q53.0 10.3 49.95 10.3 L49.9 10.3 42.45 10.1 Q32.2 9.6 25.4 3.05 L25.4 3.1 Q18.2 -3.7 18.2 -13.95 L18.2 -18.1 Q18.2 -19.25 18.35 -19.85 19.0 -30.7 26.85 -37.45 M16.95 -18.7 L16.95 18.55 Q16.95 31.55 8.35 38.7 L8.3 38.7 Q0.5 45.05 -12.5 45.05 -25.55 45.05 -33.2 38.7 L-33.25 38.7 Q-41.85 31.55 -41.85 18.55 L-41.85 -18.7 Q-41.85 -31.65 -33.25 -38.65 -25.55 -45.25 -12.5 -45.25 0.4 -45.25 8.25 -38.7 L8.25 -38.65 Q16.95 -31.65 16.95 -18.7 M80.85 -44.1 L134.7 -44.1 Q135.75 -44.1 136.5 -43.35 137.2 -42.65 137.2 -41.6 L137.2 -21.6 Q137.2 -20.55 136.5 -19.8 135.75 -19.1 134.7 -19.1 L120.9 -19.1 120.9 41.2 Q120.9 42.25 120.2 43.0 119.45 43.7 118.4 43.7 L97.15 43.7 Q96.1 43.7 95.4 43.0 94.65 42.25 94.65 41.2 L94.65 -19.1 80.85 -19.1 Q79.8 -19.1 79.1 -19.8 78.35 -20.55 78.35 -21.6 L78.35 -41.6 Q78.35 -42.65 79.1 -43.35 79.8 -44.1 80.85 -44.1 M141.0 -44.1 L162.2 -44.1 Q163.25 -44.1 164.0 -43.35 164.7 -42.65 164.7 -41.6 L164.7 -11.95 164.7 -11.55 160.3 15.35 Q160.15 16.25 159.45 16.85 158.7 17.45 157.8 17.45 L145.0 17.45 Q144.1 17.45 143.4 16.85 142.65 16.25 142.55 15.35 L138.55 -11.55 138.5 -11.95 138.5 -41.6 Q138.5 -42.65 139.25 -43.35 139.95 -44.1 141.0 -44.1 M164.05 23.15 L164.05 41.2 Q164.05 42.25 163.35 43.0 162.6 43.7 161.55 43.7 L141.6 43.7 Q140.55 43.7 139.85 43.0 139.1 42.25 139.1 41.2 L139.1 23.15 Q139.1 22.1 139.85 21.4 140.55 20.65 141.6 20.65 L161.55 20.65 Q162.6 20.65 163.35 21.4 164.05 22.1 164.05 23.15 M-163.9 -43.35 Q-163.2 -44.1 -162.15 -44.1 L-134.4 -44.1 Q-121.9 -44.1 -114.15 -38.4 -104.85 -31.85 -104.85 -19.3 L-104.85 -17.75 Q-104.75 -9.4 -111.8 -3.55 -103.5 2.45 -103.6 12.05 L-103.6 17.25 Q-103.6 30.35 -112.55 37.3 L-112.5 37.25 Q-120.25 43.7 -133.2 43.7 L-162.15 43.7 Q-163.2 43.7 -163.9 43.0 -164.65 42.25 -164.65 41.2 L-164.65 -41.6 Q-164.65 -42.65 -163.9 -43.35 M-133.4 -19.1 L-138.35 -19.1 -138.35 -12.85 -133.4 -12.85 Q-130.8 -12.95 -130.8 -15.9 -130.8 -18.95 -133.4 -19.1 M-94.75 -38.65 Q-87.05 -45.25 -74.0 -45.25 -61.1 -45.25 -53.25 -38.7 L-53.25 -38.65 Q-44.55 -31.65 -44.55 -18.7 L-44.55 18.55 Q-44.55 31.55 -53.15 38.7 L-53.2 38.7 Q-61.0 45.05 -74.0 45.05 -87.05 45.05 -94.7 38.7 L-94.75 38.7 Q-103.35 31.55 -103.35 18.55 L-103.35 -18.7 Q-103.35 -31.65 -94.75 -38.65 M-74.0 -20.05 Q-77.05 -20.05 -77.05 -16.9 L-77.05 16.5 Q-77.05 19.75 -74.0 19.8 -70.85 19.75 -70.85 16.5 L-70.85 -16.9 Q-70.85 -20.05 -74.0 -20.05 M-15.55 -16.9 L-15.55 16.5 Q-15.55 19.75 -12.5 19.8 -9.35 19.75 -9.35 16.5 L-9.35 -16.9 Q-9.35 -20.05 -12.5 -20.05 -15.55 -20.05 -15.55 -16.9 M-132.75 9.65 L-138.35 9.65 -138.35 18.25 -132.75 18.25 Q-130.05 18.15 -130.05 15.05 L-130.05 12.8 Q-130.05 9.75 -132.75 9.65" fill="#414141" fill-rule="evenodd" stroke="none"/>
    <path d="M26.85 -37.45 L26.9 -37.5 Q34.25 -44.1 45.6 -44.1 L70.9 -44.1 Q71.95 -44.1 72.7 -43.35 73.4 -42.65 73.4 -41.6 L73.4 -21.6 Q73.4 -20.55 72.7 -19.8 71.95 -19.1 70.9 -19.1 L46.55 -19.1 Q44.5 -19.1 44.5 -17.0 44.5 -14.9 46.7 -14.85 L46.85 -14.85 52.8 -14.45 Q65.1 -13.8 71.1 -7.65 L71.05 -7.65 Q79.15 0.35 79.1 10.5 L79.1 18.55 Q79.1 30.2 69.5 37.4 61.15 43.7 49.5 43.7 L22.55 43.7 Q21.5 43.7 20.8 43.0 20.05 42.25 20.05 41.2 L20.05 20.75 Q20.05 19.7 20.8 19.0 21.5 18.25 22.55 18.25 L48.5 18.25 Q52.75 18.25 53.05 15.65 L53.05 13.15 Q53.0 10.3 49.95 10.3 L49.9 10.3 42.45 10.1 Q32.2 9.6 25.4 3.05 L25.4 3.1 Q18.2 -3.7 18.2 -13.95 L18.2 -18.1 Q18.2 -19.25 18.35 -19.85 19.0 -30.7 26.85 -37.45 M16.95 -18.7 L16.95 18.55 Q16.95 31.55 8.35 38.7 L8.3 38.7 Q0.5 45.05 -12.5 45.05 -25.55 45.05 -33.2 38.7 L-33.25 38.7 Q-41.85 31.55 -41.85 18.55 L-41.85 -18.7 Q-41.85 -31.65 -33.25 -38.65 -25.55 -45.25 -12.5 -45.25 0.4 -45.25 8.25 -38.7 L8.25 -38.65 Q16.95 -31.65 16.95 -18.7 M80.85 -44.1 L134.7 -44.1 Q135.75 -44.1 136.5 -43.35 137.2 -42.65 137.2 -41.6 L137.2 -21.6 Q137.2 -20.55 136.5 -19.8 135.75 -19.1 134.7 -19.1 L120.9 -19.1 120.9 41.2 Q120.9 42.25 120.2 43.0 119.45 43.7 118.4 43.7 L97.15 43.7 Q96.1 43.7 95.4 43.0 94.65 42.25 94.65 41.2 L94.65 -19.1 80.85 -19.1 Q79.8 -19.1 79.1 -19.8 78.35 -20.55 78.35 -21.6 L78.35 -41.6 Q78.35 -42.65 79.1 -43.35 79.8 -44.1 80.85 -44.1 M141.0 -44.1 L162.2 -44.1 Q163.25 -44.1 164.0 -43.35 164.7 -42.65 164.7 -41.6 L164.7 -11.95 164.7 -11.55 160.3 15.35 Q160.15 16.25 159.45 16.85 158.7 17.45 157.8 17.45 L145.0 17.45 Q144.1 17.45 143.4 16.85 142.65 16.25 142.55 15.35 L138.55 -11.55 138.5 -11.95 138.5 -41.6 Q138.5 -42.65 139.25 -43.35 139.95 -44.1 141.0 -44.1 M164.05 23.15 L164.05 41.2 Q164.05 42.25 163.35 43.0 162.6 43.7 161.55 43.7 L141.6 43.7 Q140.55 43.7 139.85 43.0 139.1 42.25 139.1 41.2 L139.1 23.15 Q139.1 22.1 139.85 21.4 140.55 20.65 141.6 20.65 L161.55 20.65 Q162.6 20.65 163.35 21.4 164.05 22.1 164.05 23.15 M-163.9 -43.35 Q-163.2 -44.1 -162.15 -44.1 L-134.4 -44.1 Q-121.9 -44.1 -114.15 -38.4 -104.85 -31.85 -104.85 -19.3 L-104.85 -17.75 Q-104.75 -9.4 -111.8 -3.55 -103.5 2.45 -103.6 12.05 L-103.6 17.25 Q-103.6 30.35 -112.55 37.3 L-112.5 37.25 Q-120.25 43.7 -133.2 43.7 L-162.15 43.7 Q-163.2 43.7 -163.9 43.0 -164.65 42.25 -164.65 41.2 L-164.65 -41.6 Q-164.65 -42.65 -163.9 -43.35 M-133.4 -19.1 L-138.35 -19.1 -138.35 -12.85 -133.4 -12.85 Q-130.8 -12.95 -130.8 -15.9 -130.8 -18.95 -133.4 -19.1 M-94.75 -38.65 Q-87.05 -45.25 -74.0 -45.25 -61.1 -45.25 -53.25 -38.7 L-53.25 -38.65 Q-44.55 -31.65 -44.55 -18.7 L-44.55 18.55 Q-44.55 31.55 -53.15 38.7 L-53.2 38.7 Q-61.0 45.05 -74.0 45.05 -87.05 45.05 -94.7 38.7 L-94.75 38.7 Q-103.35 31.55 -103.35 18.55 L-103.35 -18.7 Q-103.35 -31.65 -94.75 -38.65 M-74.0 -20.05 Q-77.05 -20.05 -77.05 -16.9 L-77.05 16.5 Q-77.05 19.75 -74.0 19.8 -70.85 19.75 -70.85 16.5 L-70.85 -16.9 Q-70.85 -20.05 -74.0 -20.05 M-15.55 -16.9 L-15.55 16.5 Q-15.55 19.75 -12.5 19.8 -9.35 19.75 -9.35 16.5 L-9.35 -16.9 Q-9.35 -20.05 -12.5 -20.05 -15.55 -20.05 -15.55 -16.9 M-132.75 9.65 L-138.35 9.65 -138.35 18.25 -132.75 18.25 Q-130.05 18.15 -130.05 15.05 L-130.05 12.8 Q-130.05 9.75 -132.75 9.65" fill="none" stroke="#000000" stroke-linecap="round" stroke-linejoin="round" stroke-width="0.05"/>
    <path d="M28.5 -35.6 Q35.25 -41.6 45.6 -41.6 L70.9 -41.6 70.9 -21.6 46.55 -21.6 Q42.0 -21.6 42.0 -17.0 42.0 -12.45 46.65 -12.35 L52.65 -11.95 Q63.85 -11.35 69.3 -5.9 76.6 1.35 76.6 10.5 L76.6 18.55 Q76.6 28.95 68.0 35.4 60.25 41.2 49.5 41.2 L22.55 41.2 22.55 20.75 48.5 20.75 Q55.55 20.75 55.55 15.65 L55.55 13.15 Q55.55 7.8 49.95 7.8 L42.55 7.6 Q33.3 7.15 27.1 1.25 20.7 -4.8 20.7 -13.95 L20.7 -18.1 20.8 -19.4 Q21.3 -29.4 28.5 -35.6 M14.45 -18.7 L14.45 18.55 Q14.45 30.3 6.75 36.75 -0.5 42.55 -12.5 42.55 -24.55 42.55 -31.65 36.75 -39.35 30.3 -39.35 18.55 L-39.35 -18.7 Q-39.35 -30.4 -31.65 -36.75 -24.55 -42.75 -12.5 -42.75 -0.6 -42.75 6.65 -36.75 14.45 -30.4 14.45 -18.7 M80.85 -41.6 L134.7 -41.6 134.7 -21.6 118.4 -21.6 118.4 41.2 97.15 41.2 97.15 -21.6 80.85 -21.6 80.85 -41.6 M141.0 -41.6 L162.2 -41.6 162.2 -11.95 157.8 14.95 145.0 14.95 141.0 -11.95 141.0 -41.6 M141.6 41.2 L141.6 23.15 161.55 23.15 161.55 41.2 141.6 41.2 M-133.4 -10.35 Q-128.3 -10.35 -128.3 -15.9 -128.3 -21.6 -133.4 -21.6 L-140.85 -21.6 -140.85 -10.35 -133.4 -10.35 M-93.15 -36.75 Q-86.05 -42.75 -74.0 -42.75 -62.1 -42.75 -54.85 -36.75 -47.05 -30.4 -47.05 -18.7 L-47.05 18.55 Q-47.05 30.3 -54.75 36.75 -62.0 42.55 -74.0 42.55 -86.05 42.55 -93.15 36.75 -100.85 30.3 -100.85 18.55 L-100.85 -18.7 Q-100.85 -30.4 -93.15 -36.75 M-116.25 -3.4 Q-106.1 2.15 -106.1 12.05 L-106.1 17.25 Q-106.1 29.05 -114.1 35.3 -121.25 41.2 -133.2 41.2 L-162.15 41.2 -162.15 -41.6 -134.4 -41.6 Q-122.8 -41.6 -115.6 -36.35 -107.35 -30.5 -107.35 -19.3 L-107.35 -17.75 Q-107.35 -9.05 -116.25 -3.4 M-79.55 -16.9 L-79.55 16.5 Q-79.55 22.3 -74.0 22.3 -68.35 22.3 -68.35 16.5 L-68.35 -16.9 Q-68.35 -22.55 -74.0 -22.55 -79.55 -22.55 -79.55 -16.9 M-18.05 -16.9 L-18.05 16.5 Q-18.05 22.3 -12.5 22.3 -6.85 22.3 -6.85 16.5 L-6.85 -16.9 Q-6.85 -22.55 -12.5 -22.55 -18.05 -22.55 -18.05 -16.9 M-132.75 20.75 Q-127.55 20.75 -127.55 15.05 L-127.55 12.8 Q-127.55 7.15 -132.75 7.15 L-140.85 7.15 -140.85 20.75 -132.75 20.75" fill="#64d8ff" fill-rule="evenodd" stroke="none"/>
    <path d="M12.45 -18.7 L12.45 18.55 Q12.45 29.3 5.5 35.2 L5.5 35.25 Q-1.3 40.55 -12.5 40.55 -23.75 40.55 -30.35 35.2 L-30.35 35.25 Q-37.35 29.3 -37.35 18.55 L-37.35 -18.7 Q-37.35 -29.4 -30.35 -35.2 -23.7 -40.75 -12.5 -40.75 -1.4 -40.75 5.4 -35.2 12.45 -29.4 12.45 -18.7 M29.8 -34.05 L29.85 -34.1 Q36.05 -39.6 45.6 -39.6 L68.9 -39.6 68.9 -23.6 46.55 -23.6 Q40.0 -23.6 40.0 -17.0 40.0 -10.55 46.55 -10.35 L52.55 -9.95 Q62.85 -9.4 67.9 -4.45 74.55 2.15 74.6 10.5 L74.6 18.55 Q74.6 27.95 66.8 33.8 59.55 39.2 49.5 39.2 L24.55 39.2 24.55 22.75 48.5 22.75 Q57.8 22.75 57.55 15.65 L57.55 13.15 Q57.6 5.8 50.0 5.8 L42.65 5.6 Q34.15 5.2 28.5 -0.2 22.7 -5.65 22.7 -13.95 L22.7 -18.1 22.6 -18.5 22.8 -19.3 Q23.25 -28.4 29.8 -34.05 M82.85 -39.6 L132.7 -39.6 132.7 -23.6 118.4 -23.6 Q117.55 -23.6 117.0 -23.0 116.4 -22.45 116.4 -21.6 L116.4 39.2 99.15 39.2 99.15 -21.6 Q99.15 -22.45 98.6 -23.0 98.0 -23.6 97.15 -23.6 L82.85 -23.6 82.85 -39.6 M143.0 -39.6 L160.2 -39.6 160.2 -12.1 156.1 12.95 146.75 12.95 143.0 -12.05 143.0 -39.6 M143.6 25.15 L159.55 25.15 159.55 39.2 143.6 39.2 143.6 25.15 M-142.25 -8.9 Q-141.7 -8.35 -140.85 -8.35 L-133.4 -8.35 Q-126.3 -8.25 -126.3 -15.9 -126.3 -23.7 -133.4 -23.6 L-140.85 -23.6 Q-141.7 -23.6 -142.25 -23.0 -142.85 -22.45 -142.85 -21.6 L-142.85 -10.35 Q-142.85 -9.5 -142.25 -8.9 M-134.4 -39.6 Q-123.55 -39.6 -116.75 -34.7 -109.35 -29.4 -109.35 -19.3 L-109.35 -17.75 Q-109.45 -10.1 -117.3 -5.1 L-118.15 -4.0 -118.1 -2.65 Q-117.85 -2.0 -117.2 -1.65 -108.15 3.3 -108.1 12.05 L-108.1 17.25 Q-108.1 28.0 -115.3 33.75 L-115.35 33.75 Q-122.05 39.2 -133.2 39.2 L-160.15 39.2 -160.15 -39.6 -134.4 -39.6 M-91.85 -35.2 Q-85.2 -40.75 -74.0 -40.75 -62.9 -40.75 -56.1 -35.2 -49.05 -29.4 -49.05 -18.7 L-49.05 18.55 Q-49.05 29.3 -56.0 35.2 L-56.0 35.25 Q-62.8 40.55 -74.0 40.55 -85.25 40.55 -91.85 35.2 L-91.85 35.25 Q-98.85 29.3 -98.85 18.55 L-98.85 -18.7 Q-98.85 -29.4 -91.85 -35.2 M-74.0 -24.55 Q-81.55 -24.55 -81.55 -16.9 L-81.55 16.5 Q-81.55 24.35 -74.0 24.3 -66.35 24.35 -66.35 16.5 L-66.35 -16.9 Q-66.35 -24.55 -74.0 -24.55 M-20.05 -16.9 L-20.05 16.5 Q-20.05 24.35 -12.5 24.3 -4.85 24.35 -4.85 16.5 L-4.85 -16.9 Q-4.85 -24.55 -12.5 -24.55 -20.05 -24.55 -20.05 -16.9 M-140.85 5.15 Q-141.7 5.15 -142.25 5.75 -142.85 6.3 -142.85 7.15 L-142.85 20.75 Q-142.85 21.6 -142.25 22.2 -141.7 22.75 -140.85 22.75 L-132.75 22.75 Q-125.55 22.85 -125.55 15.05 L-125.55 12.8 Q-125.55 5.05 -132.75 5.15 L-140.85 5.15" fill="#ffffff" fill-rule="evenodd" stroke="none"/>
  </g>
</svg>
