<?xml version="1.0" encoding="UTF-8" standalone="no"?>
<svg xmlns:xlink="http://www.w3.org/1999/xlink" height="386.2px" width="265.8px" xmlns="http://www.w3.org/2000/svg">
  <g transform="matrix(1.0, 0.0, 0.0, 1.0, -18.25, 631.7)">
    <path d="M255.55 -627.2 L279.55 -627.2 277.2 -253.85 255.55 -253.85 255.55 -627.2" fill="#0b0b0b" fill-opacity="0.7019608" fill-rule="evenodd" stroke="none"/>
    <path d="M243.55 -627.2 L255.55 -627.2 255.55 -253.85 243.55 -253.85 243.55 -627.2" fill="#001c35" fill-opacity="0.78039217" fill-rule="evenodd" stroke="none"/>
    <path d="M243.55 -253.85 L22.75 -253.85 22.75 -627.2 243.55 -627.2 243.55 -253.85" fill="#000509" fill-opacity="0.8117647" fill-rule="evenodd" stroke="none"/>
    <path d="M255.55 -627.2 L279.55 -627.2 277.2 -253.85 255.55 -253.85 255.55 -250.0 M243.55 -627.2 L255.55 -627.2 M255.55 -253.85 L243.55 -253.85 243.55 -250.0 M243.55 -253.85 L22.75 -253.85 22.75 -627.2 243.55 -627.2" fill="none" stroke="#66d0ff" stroke-linecap="round" stroke-linejoin="round" stroke-opacity="0.8392157" stroke-width="1.0"/>
  </g>
</svg>
