<?xml version="1.0" encoding="UTF-8" standalone="no"?>
<svg xmlns:xlink="http://www.w3.org/1999/xlink" height="71.6px" width="70.8px" xmlns="http://www.w3.org/2000/svg">
  <g transform="matrix(1.0, 0.0, 0.0, 1.0, 0.0, 0.0)">
    <path d="M69.15 41.75 L69.1 41.9 64.6 42.0 64.6 41.75 68.9 41.75 69.15 41.75 M41.7 2.4 Q42.1 4.25 41.95 6.7 L41.95 6.95 41.8 6.95 41.7 2.4" fill="#686669" fill-rule="evenodd" stroke="none"/>
    <path d="M64.35 29.6 Q67.3 29.3 69.1 30.1 L64.35 29.6 M69.15 30.1 L69.3 30.15 69.35 30.3 69.2 30.25 69.15 30.1 M30.25 69.45 L30.1 69.4 30.0 69.2 Q29.2 67.5 29.55 64.65 29.95 66.65 30.0 69.2 L30.2 69.3 30.25 69.45 M2.1 30.3 L2.1 30.1 2.1 29.6 6.65 29.6 6.85 29.6 6.85 29.7 Q3.9 29.5 2.1 30.3 M29.55 7.2 L29.55 6.95 29.55 2.15 30.0 2.15 30.25 2.15 30.2 2.3 30.0 2.4 Q29.95 5.1 29.55 7.2" fill="#676568" fill-rule="evenodd" stroke="none"/>
    <path d="M69.6 32.95 Q70.0 35.4 69.7 38.4 L69.6 38.4 69.6 38.2 69.6 32.95 M38.35 69.65 L38.35 69.8 32.85 69.65 38.1 69.65 38.35 69.65 M1.85 38.4 L1.75 38.4 1.6 32.95 1.85 32.95 1.85 38.2 1.85 38.4 M32.85 1.95 L32.85 1.7 38.35 1.8 38.35 1.95 38.1 1.95 32.85 1.95" fill="#5f5d60" fill-rule="evenodd" stroke="none"/>
    <path d="M0.0 33.4 L0.0 32.2 0.2 32.2 0.2 32.45 0.0 33.4" fill="#0b0b0b" fill-opacity="0.53333336" fill-rule="evenodd" stroke="none"/>
    <path d="M41.95 64.4 L41.95 64.65 Q42.1 67.25 41.7 69.2 L41.7 68.95 41.7 64.4 41.95 64.4 M7.1 42.0 L6.85 42.0 2.35 41.75 7.1 41.9 7.1 42.0" fill="#69676a" fill-rule="evenodd" stroke="none"/>
    <path d="M0.2 39.15 L0.0 39.1 0.0 37.85 Q0.35 38.15 0.2 38.9 L0.2 39.15" fill="#0d0d0d" fill-opacity="0.5686275" fill-rule="evenodd" stroke="none"/>
    <path d="M41.95 6.95 Q44.75 9.0 48.5 10.35 L51.0 11.25 Q53.35 10.0 54.9 7.95 L55.05 7.9 Q60.1 11.35 63.6 16.3 L63.65 16.5 60.35 20.1 60.3 20.3 64.25 29.55 64.35 29.6 69.1 30.1 69.15 30.1 69.2 30.25 69.35 30.3 Q69.35 31.65 69.6 32.7 L69.6 32.95 69.6 38.2 69.6 38.4 69.6 38.65 69.15 41.75 68.9 41.75 64.6 41.75 64.6 42.0 64.45 42.05 Q62.15 46.5 60.3 51.3 L60.35 51.5 63.65 55.1 63.6 55.3 Q60.1 60.25 55.05 63.7 L54.9 63.65 Q53.35 61.6 51.0 60.35 L50.8 60.4 Q46.6 62.5 41.95 64.2 L41.95 64.4 41.7 64.4 41.7 68.95 41.7 69.2 41.7 69.3 38.35 69.65 38.1 69.65 32.85 69.65 32.65 69.65 30.25 69.45 30.2 69.3 30.0 69.2 Q29.95 66.65 29.55 64.65 L29.5 64.5 Q25.05 62.25 20.25 60.35 L20.05 60.45 16.4 63.7 16.2 63.65 Q11.25 60.15 7.85 55.1 L7.9 54.95 Q9.95 53.4 11.15 51.05 L11.1 50.85 7.1 42.0 7.1 41.9 2.35 41.75 2.2 41.75 1.85 38.4 1.85 38.2 1.85 32.95 1.85 32.7 1.85 31.75 Q2.25 31.45 2.15 30.55 L2.1 30.3 Q3.9 29.5 6.85 29.7 L6.85 29.6 Q8.9 26.75 10.3 23.05 L11.15 20.55 Q9.95 18.2 7.9 16.65 L7.85 16.5 Q11.25 11.45 16.2 7.95 L16.4 7.9 20.05 11.15 20.25 11.25 Q24.8 9.25 29.5 7.3 L29.55 7.2 Q29.95 5.1 30.0 2.4 L30.2 2.3 30.25 2.15 32.65 1.95 32.85 1.95 38.1 1.95 38.35 1.95 41.7 2.3 41.7 2.4 41.8 6.95 41.95 6.95 M19.3 34.35 L19.3 37.7 19.3 37.95 Q20.95 47.1 28.3 50.65 30.05 51.5 32.2 51.7 47.7 53.2 51.45 40.5 52.15 38.25 52.0 35.8 51.5 26.0 45.0 21.7 41.8 19.6 36.7 19.65 22.0 19.8 19.3 33.4 L19.3 34.15 19.3 34.35" fill="#484719" fill-opacity="0.8901961" fill-rule="evenodd" stroke="none"/>
    <path d="M64.35 29.6 L64.25 29.55 60.3 20.3 60.35 20.1 63.65 16.5 63.6 16.3 Q60.1 11.35 55.05 7.9 L54.9 7.95 Q53.35 10.0 51.0 11.25 L48.5 10.35 Q44.75 9.0 41.95 6.95 L41.95 6.7 Q42.1 4.25 41.7 2.4 L41.7 2.3 38.35 1.95 38.35 1.8 32.85 1.7 32.85 1.95 32.65 1.95 30.25 2.15 30.0 2.15 29.55 2.15 29.55 6.95 29.55 7.2 29.5 7.3 Q24.8 9.25 20.25 11.25 L20.05 11.15 16.4 7.9 16.2 7.95 Q11.25 11.45 7.85 16.5 L7.9 16.65 Q9.95 18.2 11.15 20.55 L10.3 23.05 Q8.9 26.75 6.85 29.6 L6.65 29.6 2.1 29.6 2.1 30.1 2.1 30.3 2.15 30.55 Q2.25 31.45 1.85 31.75 L1.85 32.7 1.85 32.95 1.6 32.95 1.75 38.4 1.85 38.4 2.2 41.75 2.35 41.75 6.85 42.0 7.1 42.0 11.1 50.85 11.15 51.05 Q9.95 53.4 7.9 54.95 L7.85 55.1 Q11.25 60.15 16.2 63.65 L16.4 63.7 20.05 60.45 20.25 60.35 Q25.05 62.25 29.5 64.5 L29.55 64.65 Q29.2 67.5 30.0 69.2 L30.1 69.4 30.25 69.45 32.65 69.65 32.85 69.65 38.35 69.8 38.35 69.65 41.7 69.3 41.7 69.2 Q42.1 67.25 41.95 64.65 L41.95 64.4 41.95 64.2 Q46.6 62.5 50.8 60.4 L51.0 60.35 Q53.35 61.6 54.9 63.65 L55.05 63.7 Q60.1 60.25 63.6 55.3 L63.65 55.1 60.35 51.5 60.3 51.3 Q62.15 46.5 64.45 42.05 L64.6 42.0 69.1 41.9 69.15 41.75 69.6 38.65 69.6 38.4 69.7 38.4 Q70.0 35.4 69.6 32.95 L69.6 32.7 Q69.35 31.65 69.35 30.3 L69.3 30.15 69.15 30.1 69.1 30.1 Q67.3 29.3 64.35 29.6 M0.2 32.2 L0.2 32.0 0.2 31.25 0.9 28.4 0.9 28.15 5.9 27.9 6.15 27.95 Q7.45 24.1 9.2 20.75 L9.25 20.55 Q7.45 18.8 6.0 16.7 L5.9 16.5 Q9.75 9.9 16.2 6.05 L16.4 6.0 Q18.6 7.25 20.15 9.15 L20.25 9.3 Q23.7 7.7 27.65 6.5 L27.85 6.45 Q27.85 3.85 28.0 1.2 L28.1 1.2 Q30.25 0.15 33.6 0.15 L33.6 0.0 38.6 0.0 38.85 0.0 43.15 0.95 43.35 1.0 Q43.75 3.2 43.6 6.0 L43.6 6.2 Q47.45 7.5 50.8 9.3 L51.0 9.3 Q52.75 7.5 54.85 6.05 L55.05 6.0 Q61.6 9.8 65.5 16.3 L65.55 16.5 Q64.3 18.7 62.4 20.25 L62.2 20.3 Q63.9 23.75 65.05 27.7 L65.05 27.95 70.55 28.35 70.8 28.4 70.8 42.95 70.8 43.2 70.55 43.25 65.05 43.65 65.05 43.9 Q63.9 47.85 62.2 51.3 L62.4 51.35 Q64.3 52.9 65.55 55.1 L65.5 55.3 Q61.6 61.8 55.05 65.6 L54.85 65.55 Q52.75 64.1 51.0 62.3 L50.8 62.3 Q47.45 64.1 43.6 65.4 L43.6 65.6 Q43.75 68.4 43.35 70.6 L43.15 70.65 Q41.25 71.25 38.85 71.35 L38.85 71.6 38.6 71.6 33.6 71.6 33.6 71.45 Q30.25 71.5 28.1 70.4 L28.1 70.15 Q27.7 67.95 27.85 65.15 L27.65 65.1 Q23.7 63.9 20.25 62.3 L20.15 62.45 Q18.6 64.35 16.4 65.6 L16.2 65.55 Q9.75 61.7 5.9 55.1 L6.0 54.9 Q7.45 52.85 9.25 51.05 L9.2 50.85 Q7.45 47.5 6.15 43.65 L5.9 43.7 0.9 43.45 0.85 43.2 Q0.35 41.4 0.2 39.15 L0.2 38.9 Q0.35 38.15 0.0 37.85 L0.0 33.4 0.2 32.45 0.2 32.2 M19.3 34.35 L19.3 34.15 19.3 33.4 Q22.0 19.8 36.7 19.65 41.8 19.6 45.0 21.7 51.5 26.0 52.0 35.8 52.15 38.25 51.45 40.5 47.7 53.2 32.2 51.7 30.05 51.5 28.3 50.65 20.95 47.1 19.3 37.95 L19.3 37.7 19.3 34.35 M21.15 34.5 L21.15 37.45 21.15 37.7 Q22.6 45.8 29.1 48.95 30.65 49.7 32.6 49.9 46.35 51.2 49.65 39.95 50.3 37.95 50.15 35.8 49.7 27.1 43.95 23.25 41.1 21.4 36.55 21.45 23.55 21.55 21.15 33.65 L21.15 34.3 21.15 34.5" fill="#e7e559" fill-rule="evenodd" stroke="none"/>
  </g>
</svg>
