<?xml version="1.0" encoding="UTF-8" standalone="no"?>
<svg xmlns:xlink="http://www.w3.org/1999/xlink" height="104.35px" width="108.1px" xmlns="http://www.w3.org/2000/svg">
  <g transform="matrix(1.0, 0.0, 0.0, 1.0, 13.55, 63.9)">
    <path d="M3.7 -13.25 L18.35 -13.25 18.35 11.55 3.7 11.55 3.7 -13.25 M23.3 -23.35 L38.0 -23.35 38.0 11.55 23.3 11.55 23.3 -23.35 M62.8 -46.9 L77.5 -46.9 77.5 11.55 62.8 11.55 62.8 -46.9 M43.15 -33.45 L57.9 -33.45 57.9 11.55 43.15 11.55 43.15 -33.45 M3.45 16.75 L77.55 16.75 77.55 23.45 3.45 23.45 3.45 16.75" fill="#10450c" fill-opacity="0.8392157" fill-rule="evenodd" stroke="none"/>
    <path d="M3.7 -13.25 L18.35 -13.25 18.35 -10.75 6.2 -10.75 6.2 11.55 3.7 11.55 3.7 -13.25 M23.3 -23.35 L38.0 -23.35 38.0 -20.85 25.8 -20.85 25.8 11.55 23.3 11.55 23.3 -23.35 M62.8 -46.9 L77.5 -46.9 77.5 -44.4 65.3 -44.4 65.3 11.55 62.8 11.55 62.8 -46.9 M43.15 -33.45 L57.9 -33.45 57.9 -30.95 45.65 -30.95 45.65 11.55 43.15 11.55 43.15 -33.45 M3.45 16.75 L77.55 16.75 77.55 19.25 5.95 19.25 5.95 23.45 3.45 23.45 3.45 16.75" fill="#10450c" fill-opacity="0.8392157" fill-rule="evenodd" stroke="none"/>
    <path d="M23.3 -23.35 L38.0 -23.35 38.0 11.55 23.3 11.55 23.3 -23.35 M3.7 -13.25 L18.35 -13.25 18.35 11.55 3.7 11.55 3.7 -13.25 M43.15 -33.45 L57.9 -33.45 57.9 11.55 43.15 11.55 43.15 -33.45 M62.8 -46.9 L77.5 -46.9 77.5 11.55 62.8 11.55 62.8 -46.9 M3.45 16.75 L77.55 16.75 77.55 23.45 3.45 23.45 3.45 16.75" fill="none" stroke="#00e572" stroke-linecap="round" stroke-linejoin="round" stroke-opacity="0.8" stroke-width="2.0"/>
  </g>
</svg>
