<?xml version="1.0" encoding="UTF-8" standalone="no"?>
<svg xmlns:xlink="http://www.w3.org/1999/xlink" height="59.5px" width="77.3px" xmlns="http://www.w3.org/2000/svg">
  <g transform="matrix(1.0, 0.0, 0.0, 1.0, 44.05, 29.75)">
    <path d="M-3.35 -14.95 Q4.15 -7.65 15.6 -3.4 17.25 -2.8 18.25 -1.8 19.1 -1.0 19.55 0.05 20.4 3.45 19.55 6.85 19.0 7.9 17.75 8.4 19.0 7.9 19.55 6.85 20.4 3.45 19.55 0.05 19.1 -1.0 18.25 -1.8 20.65 -0.95 23.65 0.8 24.95 2.3 24.7 4.45 24.7 7.3 22.65 7.95 L17.75 8.4 16.0 8.75 Q13.3 9.6 12.7 11.65 11.05 15.3 11.05 18.0 9.25 21.2 6.45 21.25 L5.05 21.0 Q4.2 20.65 4.95 19.7 7.2 16.1 7.4 12.55 L8.25 9.75 Q8.85 7.35 6.45 7.6 -5.35 8.0 -10.15 11.1 -9.05 10.35 -7.9 8.65 L-7.65 8.25 Q-5.7 5.5 -4.5 0.25 -2.95 -5.95 -3.15 -12.4 L-3.25 -14.55 -3.35 -14.95 -3.25 -14.55 -3.15 -12.4 Q-2.95 -5.95 -4.5 0.25 -5.7 5.5 -7.65 8.25 L-7.9 8.65 Q-9.05 10.35 -10.15 11.1 L-10.4 11.25 Q-11.6 12.05 -12.8 11.65 -16.05 8.75 -15.35 0.9 -14.7 -6.85 -12.05 -13.6 -9.45 -19.7 -6.8 -19.6 -4.15 -19.4 -3.35 -14.95 M-22.3 -21.25 Q-31.1 -14.9 -31.65 -6.75 -33.3 3.1 -28.2 10.05 -35.8 2.95 -35.55 -6.3 -35.0 -17.3 -22.3 -21.25 M-18.6 -16.95 Q-24.8 -12.7 -25.9 -5.75 -27.35 1.3 -23.3 8.1 -29.5 1.45 -29.1 -5.75 -26.8 -14.8 -18.6 -16.95 M-14.9 -13.5 Q-19.65 -9.75 -20.6 -4.25 -21.5 1.15 -18.55 6.5 -23.45 1.55 -23.0 -4.8 -22.4 -11.55 -14.9 -13.5" fill="#1e282e" fill-opacity="0.8117647" fill-rule="evenodd" stroke="none"/>
    <path d="M18.25 -1.8 Q17.25 -2.8 15.6 -3.4 4.15 -7.65 -3.35 -14.95 L-3.25 -14.55 -3.15 -12.4 Q-2.95 -5.95 -4.5 0.25 -5.7 5.5 -7.65 8.25 L-7.9 8.65 Q-9.05 10.35 -10.15 11.1 -5.35 8.0 6.45 7.6 8.85 7.35 8.25 9.75 L7.4 12.55 Q7.2 16.1 4.95 19.7 4.2 20.65 5.05 21.0 L6.45 21.25 Q9.25 21.2 11.05 18.0 11.05 15.3 12.7 11.65 13.3 9.6 16.0 8.75 L17.75 8.4 Q19.0 7.9 19.55 6.85 20.4 3.45 19.55 0.05 19.1 -1.0 18.25 -1.8 20.65 -0.95 23.65 0.8 24.95 2.3 24.7 4.45 24.7 7.3 22.65 7.95 L17.75 8.4 M-22.3 -21.25 Q-35.0 -17.3 -35.55 -6.3 -35.8 2.95 -28.2 10.05 -33.3 3.1 -31.65 -6.75 -31.1 -14.9 -22.3 -21.25 M-10.15 11.1 L-10.4 11.25 Q-11.6 12.05 -12.8 11.65 -16.05 8.75 -15.35 0.9 -14.7 -6.85 -12.05 -13.6 -9.45 -19.7 -6.8 -19.6 -4.15 -19.4 -3.35 -14.95 M-14.9 -13.5 Q-22.4 -11.55 -23.0 -4.8 -23.45 1.55 -18.55 6.5 -21.5 1.15 -20.6 -4.25 -19.65 -9.75 -14.9 -13.5 M-18.6 -16.95 Q-26.8 -14.8 -29.1 -5.75 -29.5 1.45 -23.3 8.1 -27.35 1.3 -25.9 -5.75 -24.8 -12.7 -18.6 -16.95" fill="none" stroke="#3ecedb" stroke-linecap="round" stroke-linejoin="round" stroke-width="1.0"/>
  </g>
</svg>
