<?xml version="1.0" encoding="UTF-8" standalone="no"?>
<svg xmlns:xlink="http://www.w3.org/1999/xlink" height="36.3px" width="38.05px" xmlns="http://www.w3.org/2000/svg">
  <g transform="matrix(1.0, 0.0, 0.0, 1.0, 19.0, 18.15)">
    <path d="M18.35 -4.85 L18.75 -4.7 19.05 -4.3 19.05 -3.85 18.75 -3.5 8.35 4.55 12.1 17.2 12.05 17.65 11.8 18.0 11.35 18.15 10.95 18.05 0.05 10.55 -10.85 18.05 -11.3 18.15 -11.75 18.0 -12.0 17.65 -12.0 17.2 -8.25 4.55 -18.7 -3.5 -18.95 -3.85 -18.95 -4.3 -18.7 -4.7 -18.25 -4.85 -5.05 -5.15 -0.65 -17.65 -0.35 -18.0 0.05 -18.15 0.5 -18.0 0.75 -17.65 5.15 -5.15 18.35 -4.85 M4.6 -3.7 Q4.35 -3.7 4.15 -3.85 L3.9 -4.2 0.05 -15.15 -3.85 -4.2 -4.1 -3.85 -4.5 -3.7 -16.1 -3.4 -6.95 3.65 -6.65 4.05 -6.65 4.5 -9.95 15.6 -0.35 9.0 0.05 8.85 0.5 9.0 10.0 15.55 6.75 4.5 6.75 4.05 Q6.8 3.8 7.0 3.65 L16.2 -3.4 4.6 -3.7" fill="#ff48cb" fill-rule="evenodd" stroke="none"/>
    <path d="M4.6 -3.7 L16.2 -3.4 7.0 3.65 Q6.8 3.8 6.75 4.05 L6.75 4.5 10.0 15.55 0.5 9.0 0.05 8.85 -0.35 9.0 -9.95 15.6 -6.65 4.5 -6.65 4.05 -6.95 3.65 -16.1 -3.4 -4.5 -3.7 -4.1 -3.85 -3.85 -4.2 0.05 -15.15 3.9 -4.2 4.15 -3.85 Q4.35 -3.7 4.6 -3.7" fill="#4a232c" fill-opacity="0.8784314" fill-rule="evenodd" stroke="none"/>
  </g>
</svg>
