<?xml version="1.0" encoding="UTF-8" standalone="no"?>
<svg xmlns:xlink="http://www.w3.org/1999/xlink" height="56.55px" width="41.05px" xmlns="http://www.w3.org/2000/svg">
  <g transform="matrix(1.0, 0.0, 0.0, 1.0, 4.25, 28.3)">
    <path d="M0.1 -12.35 Q2.15 -13.65 4.0 -15.1 L4.1 -15.2 4.05 -15.3 4.1 -16.05 4.15 -16.05 4.15 -16.15 4.2 -16.3 4.15 -16.4 4.2 -17.15 4.3 -17.2 4.25 -17.25 4.3 -17.55 4.35 -17.65 4.3 -18.35 4.4 -18.35 4.4 -18.45 4.4 -18.65 4.4 -18.75 4.4 -19.45 4.5 -19.5 4.55 -19.6 4.55 -19.85 5.3 -19.85 5.4 -19.85 5.45 -20.0 6.2 -19.95 6.25 -19.95 6.45 -19.95 6.5 -20.0 6.5 -20.1 7.25 -20.05 7.35 -20.05 7.55 -20.05 7.65 -20.0 7.7 -20.15 8.35 -20.15 8.45 -20.1 Q9.8 -20.15 10.3 -21.25 L10.55 -21.8 12.2 -24.05 16.4 -22.05 16.45 -22.05 20.75 -23.85 20.8 -23.95 Q22.25 -21.8 23.85 -20.05 L24.2 -19.95 24.4 -19.95 25.15 -19.9 25.2 -19.8 25.4 -19.8 25.5 -19.8 26.3 -19.75 26.35 -19.7 26.6 -19.7 26.65 -19.7 27.4 -19.65 27.4 -19.55 Q28.15 -19.75 28.3 -19.25 L28.35 -19.15 28.45 -18.4 28.45 -18.3 28.45 -18.1 28.45 -18.0 28.5 -17.35 28.5 -17.2 28.6 -15.85 28.6 -15.75 28.7 -15.0 28.7 -14.85 32.45 -11.95 32.55 -11.9 32.45 -11.65 30.55 -7.75 30.5 -7.6 32.35 -3.45 32.45 -3.35 32.45 -3.25 32.35 -3.2 28.5 -0.35 28.5 -0.3 28.55 -0.2 28.35 0.55 28.35 0.7 28.35 0.8 28.35 0.9 Q28.5 1.4 28.2 1.65 L28.25 1.9 28.2 2.0 28.25 2.1 28.15 2.85 28.15 3.05 28.15 3.15 28.15 3.25 28.0 4.0 28.0 4.05 Q27.85 4.55 27.0 4.35 L27.0 4.4 26.25 4.45 26.1 4.45 25.9 4.4 25.9 4.45 25.05 4.5 25.0 4.55 24.8 4.5 24.8 4.6 23.95 4.6 Q23.7 4.6 23.6 4.75 L20.3 8.5 20.25 8.45 Q18.25 7.35 16.1 6.55 L16.05 6.55 11.75 8.45 Q10.6 6.9 9.8 5.3 9.35 4.45 8.2 4.4 L8.1 4.4 7.45 4.3 7.35 4.3 7.1 4.25 7.0 4.25 6.3 4.2 6.2 4.15 6.0 4.2 5.95 4.2 5.2 4.05 5.1 4.05 Q4.25 4.25 4.2 3.65 L4.15 3.6 4.1 2.8 4.15 2.7 4.15 2.45 4.05 2.45 4.05 1.6 4.05 1.5 4.05 1.3 4.0 1.3 3.95 0.5 3.95 0.4 3.9 0.25 3.85 0.2 3.85 -0.65 0.0 -3.7 0.05 -3.7 2.0 -7.95 2.05 -8.1 Q0.95 -10.15 0.1 -12.35 M7.0 -8.8 L7.1 -7.5 Q7.85 -0.65 13.85 1.25 22.25 2.1 24.9 -4.05 25.6 -5.6 25.45 -7.9 25.05 -14.05 20.45 -16.3 18.9 -17.0 16.65 -16.9 8.25 -16.55 7.0 -8.8 M16.15 8.0 L20.7 10.1 20.75 10.15 23.2 6.8 23.25 6.8 28.55 17.25 28.65 17.3 21.65 24.0 Q19.15 17.45 17.0 10.65 L16.15 8.0 M3.2 16.95 L8.85 6.65 8.9 6.65 11.15 9.9 11.2 10.0 15.9 8.0 15.95 8.05 11.2 21.4 10.2 23.95 3.3 17.05 3.2 16.95" fill="#401a64" fill-opacity="0.76862746" fill-rule="evenodd" stroke="none"/>
    <path d="M0.1 -12.35 Q2.15 -13.65 4.0 -15.1 L4.1 -15.2 4.05 -15.3 4.1 -16.05 4.15 -16.05 4.15 -16.15 4.2 -16.3 4.15 -16.4 4.2 -17.15 4.3 -17.2 4.25 -17.25 4.3 -17.55 4.35 -17.65 4.3 -18.35 4.4 -18.35 4.4 -18.45 4.4 -18.65 4.4 -18.75 4.4 -19.45 4.5 -19.5 4.55 -19.6 4.55 -19.85 5.3 -19.85 5.4 -19.85 5.45 -20.0 6.2 -19.95 6.25 -19.95 6.45 -19.95 6.5 -20.0 6.5 -20.1 7.25 -20.05 7.35 -20.05 7.55 -20.05 7.65 -20.0 7.7 -20.15 8.35 -20.15 8.45 -20.1 Q9.8 -20.15 10.3 -21.25 L10.55 -21.8 12.2 -24.05 16.4 -22.05 16.45 -22.05 20.75 -23.85 20.8 -23.95 Q22.25 -21.8 23.85 -20.05 L24.2 -19.95 24.4 -19.95 25.15 -19.9 25.2 -19.8 25.4 -19.8 25.5 -19.8 26.3 -19.75 26.35 -19.7 26.6 -19.7 26.65 -19.7 27.4 -19.65 27.4 -19.55 Q28.15 -19.75 28.3 -19.25 L28.35 -19.15 28.45 -18.4 28.45 -18.3 28.45 -18.1 28.45 -18.0 28.5 -17.35 28.5 -17.2 28.6 -15.85 28.6 -15.75 28.7 -15.0 28.7 -14.85 32.45 -11.95 32.55 -11.9 32.45 -11.65 30.55 -7.75 30.5 -7.6 32.35 -3.45 32.45 -3.35 32.45 -3.25 32.35 -3.2 28.5 -0.35 28.5 -0.3 28.55 -0.2 28.35 0.55 28.35 0.7 28.35 0.8 28.35 0.9 Q28.5 1.4 28.2 1.65 L28.25 1.9 28.2 2.0 28.25 2.1 28.15 2.85 28.15 3.05 28.15 3.15 28.15 3.25 28.0 4.0 28.0 4.05 Q27.85 4.55 27.0 4.35 L27.0 4.4 26.25 4.45 26.1 4.45 25.9 4.4 25.9 4.45 25.05 4.5 25.0 4.55 24.8 4.5 24.8 4.6 23.95 4.6 Q23.7 4.6 23.6 4.75 L20.3 8.5 20.25 8.45 Q18.25 7.35 16.1 6.55 L16.05 6.55 11.75 8.45 Q10.6 6.9 9.8 5.3 9.35 4.45 8.2 4.4 L8.1 4.4 7.45 4.3 7.35 4.3 7.1 4.25 7.0 4.25 6.3 4.2 6.2 4.15 6.0 4.2 5.95 4.2 5.2 4.05 5.1 4.05 Q4.25 4.25 4.2 3.65 L4.15 3.6 4.1 2.8 4.15 2.7 4.15 2.45 4.05 2.45 4.05 1.6 4.05 1.5 4.05 1.3 4.0 1.3 3.95 0.5 3.95 0.4 3.9 0.25 3.85 0.2 3.85 -0.65 0.0 -3.7 0.05 -3.7 2.0 -7.95 2.05 -8.1 Q0.95 -10.15 0.1 -12.35 M7.0 -8.8 Q8.25 -16.55 16.65 -16.9 18.9 -17.0 20.45 -16.3 25.05 -14.05 25.45 -7.9 25.6 -5.6 24.9 -4.05 22.25 2.1 13.85 1.25 7.85 -0.65 7.1 -7.5 L7.0 -8.8 M16.15 8.0 L20.7 10.1 20.75 10.15 23.2 6.8 23.25 6.8 28.55 17.25 28.65 17.3 21.65 24.0 Q19.15 17.45 17.0 10.65 L16.15 8.0 M3.2 16.95 L8.85 6.65 8.9 6.65 11.15 9.9 11.2 10.0 15.9 8.0 15.95 8.05 11.2 21.4 10.2 23.95 3.3 17.05 3.2 16.95" fill="none" stroke="#eb80ff" stroke-linecap="round" stroke-linejoin="round" stroke-opacity="0.83137256" stroke-width="0.5"/>
  </g>
</svg>
