<?xml version="1.0" encoding="UTF-8" standalone="no"?>
<svg xmlns:xlink="http://www.w3.org/1999/xlink" height="68.15px" width="80.5px" xmlns="http://www.w3.org/2000/svg">
  <g transform="matrix(1.0, 0.0, 0.0, 1.0, 11.9, 32.4)">
    <path d="M17.65 -12.9 L25.2 3.05 25.65 3.95 26.05 4.95 33.75 -11.05 34.65 -13.05 Q33.1 -13.6 32.6 -15.35 L32.55 -15.35 Q32.5 -16.85 32.9 -17.85 33.55 -19.45 35.3 -19.85 L35.45 -19.9 35.45 -20.0 36.9 -19.9 Q39.25 -19.35 39.8 -16.95 L39.8 -16.8 Q40.0 -16.45 39.85 -15.8 L39.8 -15.75 39.8 -15.65 Q39.4 -13.75 37.75 -13.05 L36.65 -12.75 36.75 -11.7 Q37.7 -2.25 38.9 6.95 L38.9 7.05 47.55 0.7 49.45 -0.7 49.6 -0.7 Q49.1 -1.35 48.9 -2.3 L48.9 -2.4 48.85 -2.4 48.8 -3.5 48.9 -3.5 48.9 -3.6 49.15 -4.4 Q50.1 -6.7 53.4 -6.55 L53.45 -6.5 Q55.5 -5.75 56.2 -3.75 L56.2 -3.6 56.2 -2.05 56.1 -2.05 Q55.55 -0.2 54.0 0.6 L53.55 0.75 53.4 0.75 51.55 0.75 51.1 2.55 45.75 20.8 44.5 20.8 30.0 20.8 Q18.15 20.95 6.5 20.7 L5.8 19.05 0.6 0.75 0.45 0.75 Q-3.2 0.8 -3.9 -2.05 L-3.9 -2.15 -3.9 -3.6 -3.65 -4.35 Q-2.7 -6.6 0.6 -6.55 L0.7 -6.55 Q2.7 -5.8 3.35 -3.75 L3.35 -3.6 Q3.6 -3.05 3.45 -2.15 L3.35 -2.15 3.35 -2.05 2.8 -0.95 Q7.2 2.7 12.0 6.0 L13.25 6.85 13.25 6.95 14.05 2.2 15.6 -12.6 Q13.1 -13.15 12.5 -15.65 L12.5 -15.75 12.4 -15.75 12.35 -16.8 12.5 -16.8 12.5 -16.95 12.5 -17.35 12.7 -17.7 Q13.45 -19.35 15.35 -19.85 L15.5 -19.9 15.5 -20.0 16.85 -19.9 Q19.8 -19.25 19.75 -15.5 L19.75 -15.35 Q19.15 -13.8 17.75 -13.05 L17.6 -13.05 17.65 -12.9 M45.75 27.55 L44.1 27.6 30.0 27.75 6.5 27.55 6.45 27.55 6.4 25.1 6.4 23.3 6.5 23.3 30.15 23.3 45.75 23.3 Q46.0 25.25 45.8 27.55 L45.75 27.55" fill="#000000" fill-opacity="0.7490196" fill-rule="evenodd" stroke="none"/>
    <path d="M21.55 -16.8 L29.1 -0.85 29.55 0.05 29.95 1.05 37.65 -14.95 38.55 -16.95 Q37.0 -17.5 36.5 -19.25 L36.45 -19.25 Q36.4 -20.75 36.8 -21.75 37.45 -23.35 39.2 -23.75 L39.35 -23.8 39.35 -23.9 40.8 -23.8 Q43.15 -23.25 43.7 -20.85 L43.7 -20.7 Q43.9 -20.35 43.75 -19.7 L43.7 -19.65 43.7 -19.55 Q43.3 -17.65 41.65 -16.95 L40.55 -16.65 40.65 -15.6 Q41.6 -6.15 42.8 3.05 L42.8 3.15 51.45 -3.2 53.35 -4.6 53.5 -4.6 Q53.0 -5.25 52.8 -6.2 L52.8 -6.3 52.75 -6.3 52.7 -7.4 52.8 -7.4 52.8 -7.5 53.05 -8.3 Q54.0 -10.6 57.3 -10.45 L57.35 -10.4 Q59.4 -9.65 60.1 -7.65 L60.1 -7.5 60.1 -5.95 60.0 -5.95 Q59.45 -4.1 57.9 -3.3 L57.45 -3.15 57.3 -3.15 55.45 -3.15 55.0 -1.35 49.65 16.9 48.4 16.9 33.9 16.9 Q22.05 17.05 10.4 16.8 L9.7 15.15 4.5 -3.15 4.35 -3.15 Q0.7 -3.1 0.0 -5.95 L0.0 -6.05 0.0 -7.5 0.25 -8.25 Q1.2 -10.5 4.5 -10.45 L4.6 -10.45 Q6.6 -9.7 7.25 -7.65 L7.25 -7.5 Q7.5 -6.95 7.35 -6.05 L7.25 -6.05 7.25 -5.95 6.7 -4.85 Q11.1 -1.2 15.9 2.1 L17.15 2.95 17.15 3.05 17.95 -1.7 19.5 -16.5 Q17.0 -17.05 16.4 -19.55 L16.4 -19.65 16.3 -19.65 16.25 -20.7 16.4 -20.7 16.4 -20.85 16.4 -21.25 16.6 -21.6 Q17.35 -23.25 19.25 -23.75 L19.4 -23.8 19.4 -23.9 20.75 -23.8 Q23.7 -23.15 23.65 -19.4 L23.65 -19.25 Q23.05 -17.7 21.65 -16.95 L21.5 -16.95 21.55 -16.8 M49.65 23.65 L48.0 23.7 33.9 23.85 10.4 23.65 10.35 23.65 10.3 21.2 10.3 19.4 10.4 19.4 34.05 19.4 49.65 19.4 Q49.9 21.35 49.7 23.65 L49.65 23.65" fill="#ffd304" fill-opacity="0.6784314" fill-rule="evenodd" stroke="none"/>
    <path d="M21.55 -16.8 L29.1 -0.85 29.55 0.05 29.95 1.05 37.65 -14.95 38.55 -16.95 Q37.0 -17.5 36.5 -19.25 L36.45 -19.25 Q36.4 -20.75 36.8 -21.75 37.45 -23.35 39.2 -23.75 L39.35 -23.8 39.35 -23.9 40.8 -23.8 Q43.15 -23.25 43.7 -20.85 L43.7 -20.7 Q43.9 -20.35 43.75 -19.7 L43.7 -19.65 43.7 -19.55 Q43.3 -17.65 41.65 -16.95 L40.55 -16.65 40.65 -15.6 Q41.6 -6.15 42.8 3.05 L42.8 3.15 51.45 -3.2 53.35 -4.6 53.5 -4.6 Q53.0 -5.25 52.8 -6.2 L52.8 -6.3 52.75 -6.3 52.7 -7.4 52.8 -7.4 52.8 -7.5 53.05 -8.3 Q54.0 -10.6 57.3 -10.45 L57.35 -10.4 Q59.4 -9.65 60.1 -7.65 L60.1 -7.5 60.1 -5.95 60.0 -5.95 Q59.45 -4.1 57.9 -3.3 L57.45 -3.15 57.3 -3.15 55.45 -3.15 55.0 -1.35 49.65 16.9 48.4 16.9 33.9 16.9 Q22.05 17.05 10.4 16.8 L9.7 15.15 4.5 -3.15 4.35 -3.15 Q0.7 -3.1 0.0 -5.95 L0.0 -6.05 0.0 -7.5 0.25 -8.25 Q1.2 -10.5 4.5 -10.45 L4.6 -10.45 Q6.6 -9.7 7.25 -7.65 L7.25 -7.5 Q7.5 -6.95 7.35 -6.05 L7.25 -6.05 7.25 -5.95 6.7 -4.85 Q11.1 -1.2 15.9 2.1 L17.15 2.95 17.15 3.05 17.95 -1.7 19.5 -16.5 Q17.0 -17.05 16.4 -19.55 L16.4 -19.65 16.3 -19.65 16.25 -20.7 16.4 -20.7 16.4 -20.85 16.4 -21.25 16.6 -21.6 Q17.35 -23.25 19.25 -23.75 L19.4 -23.8 19.4 -23.9 20.75 -23.8 Q23.7 -23.15 23.65 -19.4 L23.65 -19.25 Q23.05 -17.7 21.65 -16.95 L21.5 -16.95 21.55 -16.8 M49.65 23.65 L48.0 23.7 33.9 23.85 10.4 23.65 10.35 23.65 10.3 21.2 10.3 19.4 10.4 19.4 34.05 19.4 49.65 19.4 Q49.9 21.35 49.7 23.65 L49.65 23.65" fill="none" stroke="#e5ff06" stroke-linecap="round" stroke-linejoin="round" stroke-width="1.0"/>
  </g>
</svg>
