<?xml version="1.0" encoding="UTF-8" standalone="no"?>
<svg xmlns:xlink="http://www.w3.org/1999/xlink" height="72.3px" width="82.35px" xmlns="http://www.w3.org/2000/svg">
  <g transform="matrix(1.0, 0.0, 0.0, 1.0, 8.5, 34.8)">
    <path d="M56.8 29.5 L12.3 29.5 12.3 14.3 3.25 4.6 11.6 -2.75 11.55 -13.5 23.55 -13.4 34.45 -23.05 65.85 4.6 56.8 14.3 56.8 29.5" fill="#000000" fill-opacity="0.70980394" fill-rule="evenodd" stroke="none"/>
    <path d="M10.25 -14.7 L18.1 -14.7 18.1 -11.4 31.3 -23.1 59.6 2.0 54.45 7.15 31.2 -14.15 8.15 7.15 3.0 2.0 10.3 -4.45 10.25 -14.7 M11.4 24.25 L11.4 6.75 31.3 -11.25 51.2 6.75 51.2 24.25 38.5 24.25 38.5 10.8 24.1 10.8 24.1 24.25 11.4 24.25 M18.9 6.4 L43.65 6.4 31.4 -5.1 18.9 6.4" fill="#000000" fill-rule="evenodd" stroke="none"/>
    <path d="M10.25 -14.7 L10.3 -4.45 3.0 2.0 8.15 7.15 31.2 -14.15 54.45 7.15 59.6 2.0 31.3 -23.1 18.1 -11.4 18.1 -14.7 10.25 -14.7 M53.55 26.25 L9.05 26.25 9.05 11.05 0.0 1.35 8.35 -6.0 8.3 -16.75 20.3 -16.65 31.2 -26.3 62.6 1.35 53.55 11.05 53.55 26.25 M18.9 6.4 L31.4 -5.1 43.65 6.4 18.9 6.4 M11.4 24.25 L24.1 24.25 24.1 10.8 38.5 10.8 38.5 24.25 51.2 24.25 51.2 6.75 31.3 -11.25 11.4 6.75 11.4 24.25" fill="#ff5bd0" fill-opacity="0.8" fill-rule="evenodd" stroke="none"/>
    <path d="M53.55 26.25 L53.55 11.05 62.6 1.35 31.2 -26.3 20.3 -16.65 8.3 -16.75 8.35 -6.0 0.0 1.35 9.05 11.05 9.05 26.25 53.55 26.25 Z" fill="none" stroke="#ff9cdd" stroke-linecap="round" stroke-linejoin="round" stroke-width="1.0"/>
  </g>
</svg>
