<?xml version="1.0" encoding="UTF-8" standalone="no"?>
<svg xmlns:xlink="http://www.w3.org/1999/xlink" height="168.0px" width="168.0px" xmlns="http://www.w3.org/2000/svg">
  <g transform="matrix(1.0, 0.0, 0.0, 1.0, 84.0, 84.0)">
    <path d="M75.5 0.0 Q75.5 31.35 53.35 53.4 31.3 75.5 0.0 75.5 -31.25 75.5 -53.4 53.4 -75.5 31.35 -75.5 0.0 -75.5 -31.25 -53.4 -53.35 -31.25 -75.5 0.0 -75.5 31.3 -75.5 53.35 -53.35 75.5 -31.25 75.5 0.0" fill="#000000" fill-opacity="0.5411765" fill-rule="evenodd" stroke="none"/>
    <path d="M75.5 0.0 Q75.5 31.35 53.35 53.4 31.3 75.5 0.0 75.5 -31.25 75.5 -53.4 53.4 -75.5 31.35 -75.5 0.0 -75.5 -31.25 -53.4 -53.35 -31.25 -75.5 0.0 -75.5 31.3 -75.5 53.35 -53.35 75.5 -31.25 75.5 0.0 Z" fill="none" stroke="#515151" stroke-linecap="round" stroke-linejoin="round" stroke-opacity="0.85882354" stroke-width="1.0"/>
    <path d="M67.2 0.0 Q67.2 27.9 47.5 47.5 27.85 67.2 0.0 67.2 -27.8 67.2 -47.5 47.5 -67.2 27.9 -67.2 0.0 -67.2 -27.8 -47.5 -47.5 -27.8 -67.2 0.0 -67.2 27.85 -67.2 47.5 -47.5 67.2 -27.8 67.2 0.0" fill="#05b0d9" fill-rule="evenodd" stroke="none"/>
    <path d="M63.55 0.0 Q63.55 26.4 44.9 44.9 26.3 63.55 0.0 63.55 -26.25 63.55 -44.9 44.9 -63.55 26.4 -63.55 0.0 -63.55 -26.25 -44.9 -44.9 -26.25 -63.55 0.0 -63.55 26.3 -63.55 44.9 -44.9 63.55 -26.25 63.55 0.0 M61.1 0.0 Q61.1 -25.3 43.2 -43.2 25.35 -61.1 0.0 -61.1 -25.3 -61.1 -43.2 -43.2 -61.1 -25.3 -61.1 0.0 -61.1 25.35 -43.2 43.2 -25.3 61.1 0.0 61.1 25.35 61.1 43.2 43.2 61.1 25.35 61.1 0.0" fill="#c4f6ff" fill-rule="evenodd" stroke="none"/>
    <path d="M-42.8 10.75 L-43.35 9.85 -43.35 9.8 -43.75 8.75 -44.6 6.7 -51.65 6.7 -52.4 8.8 -53.4 10.85 Q-53.9 11.55 -55.05 11.55 -56.0 11.55 -56.7 10.9 L-56.75 10.85 Q-57.45 10.2 -57.45 9.3 L-57.3 8.35 -56.85 7.1 -56.85 7.15 -51.95 -5.3 -51.45 -6.6 -51.45 -6.65 -50.75 -7.95 -49.7 -9.0 -49.7 -8.95 -48.1 -9.35 -46.5 -8.95 -45.45 -8.0 -45.4 -7.95 -44.85 -6.85 -44.8 -6.8 -44.25 -5.3 -44.25 -5.35 -39.2 7.0 Q-38.6 8.6 -38.6 9.3 -38.6 10.15 -39.35 10.85 -40.05 11.55 -41.05 11.55 L-42.05 11.35 -42.8 10.75 M-26.75 -1.05 Q-26.0 -1.25 -25.5 -1.65 -25.2 -2.15 -25.2 -2.95 -25.2 -3.55 -25.5 -4.05 -25.8 -4.5 -26.4 -4.8 L-26.35 -4.75 -28.85 -5.0 -31.95 -5.0 -31.95 -0.8 -28.95 -0.8 -26.75 -1.0 -26.75 -1.05 M-20.5 -5.3 Q-20.2 -4.35 -20.2 -3.2 -20.2 -0.85 -21.45 0.65 L-21.5 0.65 Q-22.55 1.7 -24.3 2.25 L-23.15 3.35 -21.45 5.7 -20.3 7.95 Q-19.85 9.05 -19.85 9.5 -19.85 10.0 -20.2 10.55 L-21.0 11.3 -22.25 11.55 Q-23.1 11.55 -23.65 11.15 L-24.55 10.3 -25.4 8.85 -26.95 6.25 Q-27.8 4.85 -28.4 4.2 -29.0 3.55 -29.55 3.35 L-29.6 3.3 -31.1 3.0 -31.95 3.0 -31.95 8.7 Q-31.95 10.05 -32.55 10.8 -33.25 11.55 -34.35 11.55 -35.6 11.55 -36.15 10.8 -36.85 10.0 -36.85 8.7 L-36.85 -6.1 Q-36.85 -7.6 -36.1 -8.3 -35.5 -9.0 -33.95 -9.0 L-27.65 -9.0 -25.35 -8.85 -23.5 -8.4 Q-22.5 -7.95 -21.7 -7.15 L-21.75 -7.15 Q-20.95 -6.45 -20.5 -5.3 M-6.35 -4.5 Q-7.3 -5.15 -8.65 -5.15 -10.75 -5.15 -12.05 -3.55 -13.35 -1.85 -13.35 1.25 -13.35 3.4 -12.75 4.8 -12.2 6.1 -11.1 6.8 -10.15 7.4 -8.8 7.4 -7.3 7.4 -6.25 6.7 L-6.2 6.7 Q-5.2 5.95 -4.65 4.5 L-4.65 4.55 Q-4.45 3.65 -4.0 3.1 -3.55 2.45 -2.35 2.45 -1.45 2.45 -0.85 3.05 -0.2 3.7 -0.2 4.65 -0.2 5.65 -0.6 6.85 L-0.65 6.85 Q-1.15 7.95 -2.15 9.1 -3.2 10.2 -4.85 10.85 -6.45 11.55 -8.6 11.55 L-11.45 11.3 -13.85 10.35 -15.8 8.65 -17.25 6.5 -17.25 6.45 -18.1 3.95 -18.35 1.15 Q-18.35 -1.3 -17.6 -3.15 -16.9 -5.15 -15.6 -6.5 -14.25 -7.9 -12.45 -8.6 -10.7 -9.35 -8.7 -9.35 -6.2 -9.35 -4.25 -8.35 -2.3 -7.4 -1.3 -5.85 -0.25 -4.35 -0.25 -3.0 -0.25 -2.2 -0.85 -1.5 L-0.85 -1.45 Q-1.4 -0.75 -2.35 -0.75 -3.4 -0.75 -3.85 -1.3 L-4.75 -2.6 -4.8 -2.6 Q-5.5 -3.95 -6.35 -4.5 M13.45 -6.85 L13.5 -6.8 14.1 -5.3 14.1 -5.35 19.1 7.0 Q19.7 8.6 19.7 9.3 19.7 10.15 18.95 10.85 18.25 11.55 17.25 11.55 L16.25 11.35 15.5 10.75 15.0 9.85 15.0 9.8 14.55 8.75 13.7 6.7 6.65 6.7 5.9 8.8 4.9 10.85 Q4.4 11.55 3.25 11.55 2.3 11.55 1.6 10.9 L1.55 10.85 Q0.85 10.2 0.85 9.3 L1.05 8.35 1.45 7.1 1.45 7.15 6.4 -5.3 6.85 -6.6 6.85 -6.65 7.55 -7.95 8.6 -9.0 8.6 -8.95 Q9.25 -9.35 10.2 -9.35 11.15 -9.35 11.8 -8.95 L12.85 -8.0 12.9 -7.95 13.45 -6.85 M32.95 -8.6 Q34.55 -8.25 35.8 -7.1 38.95 -4.4 38.95 1.05 L38.65 4.35 Q38.35 5.85 37.7 7.05 L35.95 9.3 34.2 10.45 34.15 10.45 32.05 11.1 29.6 11.25 24.5 11.25 Q23.25 11.25 22.65 10.85 21.95 10.4 21.7 9.65 L21.5 7.95 21.5 -6.1 Q21.5 -7.6 22.25 -8.3 22.9 -9.0 24.45 -9.0 L29.45 -9.0 33.05 -8.55 32.95 -8.6 M28.45 -4.85 L26.45 -4.85 26.45 7.1 28.9 7.1 30.3 7.05 31.4 6.85 32.25 6.35 Q34.0 4.75 34.0 1.05 34.0 -1.65 33.25 -2.95 L33.25 -2.9 Q32.45 -4.15 31.4 -4.45 L28.45 -4.85 M56.25 -5.5 Q55.65 -4.95 54.5 -4.95 L46.3 -4.95 46.3 -1.3 53.85 -1.3 Q54.9 -1.3 55.45 -0.8 L55.55 -0.75 Q56.1 -0.15 56.1 0.7 56.1 1.65 55.55 2.1 L55.55 2.15 Q54.95 2.7 53.85 2.7 L46.3 2.7 46.3 7.1 54.8 7.1 Q55.9 7.1 56.55 7.7 57.15 8.2 57.15 9.15 57.15 10.15 56.55 10.7 55.9 11.25 54.8 11.25 L44.2 11.25 Q42.75 11.25 42.1 10.55 L42.05 10.5 Q41.3 9.8 41.3 8.3 L41.3 -6.1 Q41.3 -7.05 41.6 -7.65 42.0 -8.35 42.7 -8.7 L42.75 -8.7 44.2 -9.0 54.5 -9.0 Q55.65 -9.0 56.25 -8.4 56.85 -7.9 56.85 -6.95 56.85 -6.0 56.25 -5.5 M10.15 -3.1 L8.15 2.7 12.35 2.7 10.15 -3.1 M-50.2 2.7 L-46.0 2.7 -48.15 -3.1 -50.2 2.7" fill="#2a2a2a" fill-opacity="0.78039217" fill-rule="evenodd" stroke="none"/>
    <path d="M-45.15 6.7 L-46.1 4.3 -53.9 4.3 -54.8 6.75 -55.7 8.7 Q-56.05 9.15 -56.9 9.15 -57.65 9.15 -58.25 8.65 -58.8 8.1 -58.8 7.4 L-58.65 6.6 -58.25 5.45 -53.3 -7.0 -52.85 -8.3 -52.2 -9.55 Q-51.9 -10.05 -51.3 -10.35 L-49.95 -10.7 Q-49.15 -10.7 -48.65 -10.35 -48.1 -10.05 -47.75 -9.55 L-47.2 -8.5 -46.6 -7.0 -41.6 5.35 Q-41.0 6.8 -41.0 7.4 -41.0 8.05 -41.6 8.65 -42.1 9.15 -42.9 9.15 L-43.7 9.0 -44.25 8.6 -44.7 7.75 -45.15 6.7 M-32.95 0.65 L-34.3 0.65 -34.3 6.85 Q-34.3 8.0 -34.85 8.6 -35.35 9.15 -36.2 9.15 -37.2 9.15 -37.65 8.6 -38.2 7.95 -38.2 6.85 L-38.2 -7.95 Q-38.2 -9.2 -37.6 -9.75 -37.05 -10.3 -35.8 -10.3 L-29.5 -10.3 -27.25 -10.2 -25.55 -9.75 -23.95 -8.65 -22.9 -7.0 Q-22.6 -6.1 -22.6 -5.05 -22.6 -2.95 -23.75 -1.6 -24.95 -0.35 -27.45 0.2 -26.4 0.75 -25.45 1.8 -24.55 2.9 -23.8 4.15 -23.05 5.3 -22.65 6.3 -22.2 7.25 -22.2 7.65 -22.2 8.0 -22.5 8.35 L-23.1 8.95 -24.1 9.15 Q-24.75 9.15 -25.2 8.85 L-26.0 8.1 -26.85 6.75 -28.35 4.15 Q-29.2 2.7 -29.9 1.95 -30.55 1.2 -31.25 0.95 L-32.95 0.65 M-30.7 -7.4 L-34.3 -7.4 -34.3 -2.15 -30.8 -2.15 -28.5 -2.4 Q-27.5 -2.6 -27.0 -3.2 -26.5 -3.8 -26.5 -4.8 -26.5 -5.6 -26.95 -6.2 L-28.05 -7.1 -30.7 -7.4 M-2.6 2.8 Q-2.6 3.7 -3.0 4.75 -3.5 5.85 -4.45 6.9 -5.4 7.9 -6.95 8.55 -8.4 9.15 -10.45 9.15 L-13.2 8.9 -15.4 8.0 -17.3 6.4 -18.6 4.4 -19.4 2.0 -19.65 -0.7 Q-19.65 -3.05 -19.0 -4.85 -18.3 -6.7 -17.05 -7.95 -15.8 -9.3 -14.1 -10.0 L-10.55 -10.7 Q-8.2 -10.7 -6.35 -9.7 -4.55 -8.8 -3.6 -7.45 -2.65 -6.05 -2.65 -4.85 -2.65 -4.2 -3.1 -3.65 -3.55 -3.15 -4.25 -3.15 -4.95 -3.15 -5.35 -3.5 L-6.2 -4.75 Q-6.95 -6.15 -7.95 -6.85 -9.0 -7.55 -10.5 -7.55 -12.9 -7.55 -14.3 -5.75 -15.75 -3.95 -15.75 -0.6 -15.75 1.65 -15.1 3.15 -14.45 4.6 -13.3 5.35 -12.2 6.1 -10.65 6.1 -8.95 6.1 -7.8 5.25 -6.6 4.45 -6.05 2.8 L-5.45 1.6 Q-5.05 1.1 -4.25 1.1 -3.55 1.1 -3.05 1.6 -2.6 2.05 -2.6 2.8 M13.2 6.7 L12.2 4.3 4.4 4.3 3.5 6.75 2.6 8.7 Q2.25 9.15 1.4 9.15 0.65 9.15 0.05 8.65 -0.45 8.1 -0.45 7.4 L-0.35 6.6 0.05 5.45 5.0 -7.0 5.5 -8.3 6.1 -9.55 7.0 -10.35 8.35 -10.7 Q9.15 -10.7 9.7 -10.35 L10.6 -9.55 11.1 -8.5 11.7 -7.0 16.75 5.35 17.3 7.4 Q17.3 8.05 16.75 8.65 16.2 9.15 15.4 9.15 L14.6 9.0 14.1 8.6 13.6 7.75 13.2 6.7 M22.55 -10.3 L27.6 -10.3 31.0 -9.95 Q32.45 -9.6 33.55 -8.6 36.6 -6.0 36.6 -0.8 36.6 0.95 36.25 2.4 L35.35 4.9 33.7 7.0 32.05 8.1 30.1 8.7 27.7 8.85 22.65 8.85 21.05 8.55 20.35 7.65 Q20.2 7.05 20.2 6.1 L20.2 -7.95 Q20.2 -9.2 20.75 -9.75 21.3 -10.3 22.55 -10.3 M24.05 -7.25 L24.05 5.75 27.05 5.75 28.5 5.7 29.7 5.45 30.7 4.85 Q32.65 3.25 32.65 -0.8 32.65 -3.65 31.8 -5.05 30.9 -6.5 29.7 -6.85 L26.6 -7.25 24.05 -7.25 M52.65 -7.35 L43.9 -7.35 43.9 -2.6 51.95 -2.6 Q52.8 -2.6 53.3 -2.25 53.7 -1.8 53.7 -1.2 53.7 -0.5 53.3 -0.1 52.85 0.3 51.95 0.3 L43.9 0.3 43.9 5.75 52.95 5.75 Q53.85 5.75 54.3 6.2 54.8 6.6 54.8 7.3 54.8 8.0 54.3 8.45 53.85 8.85 52.95 8.85 L42.35 8.85 Q41.1 8.85 40.55 8.25 40.0 7.75 40.0 6.45 L40.0 -7.95 40.25 -9.3 Q40.5 -9.85 41.05 -10.1 L42.35 -10.3 52.65 -10.3 Q53.55 -10.3 54.05 -9.9 54.45 -9.5 54.45 -8.8 54.45 -8.15 54.05 -7.75 53.55 -7.35 52.65 -7.35 M5.5 1.35 L11.2 1.35 8.3 -6.55 5.5 1.35 M-52.85 1.35 L-47.1 1.35 -50.0 -6.55 -52.85 1.35" fill="#ffffff" fill-rule="evenodd" stroke="none"/>
  </g>
</svg>
