<?xml version="1.0" encoding="UTF-8" standalone="no"?>
<svg xmlns:xlink="http://www.w3.org/1999/xlink" height="57.5px" width="57.5px" xmlns="http://www.w3.org/2000/svg">
  <g transform="matrix(1.0, 0.0, 0.0, 1.0, 28.75, 28.75)">
    <path d="M-21.75 -10.0 L-10.0 -10.0 -10.0 -21.75 Q-10.0 -23.6 -8.65 -24.9 -7.35 -26.25 -5.5 -26.25 L5.45 -26.25 Q7.3 -26.25 8.65 -24.9 9.95 -23.6 9.95 -21.75 L9.95 -10.0 21.75 -10.0 Q23.6 -10.0 24.95 -8.65 26.25 -7.35 26.25 -5.5 L26.25 5.6 Q26.25 7.45 24.95 8.8 23.6 10.1 21.75 10.1 L9.95 10.1 9.95 21.75 Q9.95 23.6 8.65 24.95 7.3 26.25 5.45 26.25 L-5.5 26.25 Q-7.35 26.25 -8.65 24.95 -10.0 23.6 -10.0 21.75 L-10.0 10.1 -21.75 10.1 Q-23.6 10.1 -24.9 8.8 -26.25 7.45 -26.25 5.6 L-26.25 -5.5 Q-26.25 -7.35 -24.9 -8.65 -23.6 -10.0 -21.75 -10.0" fill="url(#gradient0)" fill-rule="evenodd" stroke="none"/>
    <path d="M-21.75 -10.0 L-10.0 -10.0 -10.0 -21.75 Q-10.0 -23.6 -8.65 -24.9 -7.35 -26.25 -5.5 -26.25 L5.45 -26.25 Q7.3 -26.25 8.65 -24.9 9.95 -23.6 9.95 -21.75 L9.95 -10.0 21.75 -10.0 Q23.6 -10.0 24.95 -8.65 26.25 -7.35 26.25 -5.5 L26.25 5.6 Q26.25 7.45 24.95 8.8 23.6 10.1 21.75 10.1 L9.95 10.1 9.95 21.75 Q9.95 23.6 8.65 24.95 7.3 26.25 5.45 26.25 L-5.5 26.25 Q-7.35 26.25 -8.65 24.95 -10.0 23.6 -10.0 21.75 L-10.0 10.1 -21.75 10.1 Q-23.6 10.1 -24.9 8.8 -26.25 7.45 -26.25 5.6 L-26.25 -5.5 Q-26.25 -7.35 -24.9 -8.65 -23.6 -10.0 -21.75 -10.0 Z" fill="none" stroke="#000000" stroke-linecap="round" stroke-linejoin="round" stroke-width="1.0"/>
    <path d="M-21.75 -10.0 L-10.0 -10.0 -10.0 -21.75 Q-10.0 -23.6 -8.65 -24.9 -7.35 -26.25 -5.5 -26.25 L5.45 -26.25 Q7.3 -26.25 8.65 -24.9 9.95 -23.6 9.95 -21.75 L9.95 -10.0 21.75 -10.0 Q23.6 -10.0 24.95 -8.65 26.25 -7.35 26.25 -5.5 L26.25 5.6 Q26.25 7.45 24.95 8.8 23.6 10.1 21.75 10.1 L9.95 10.1 9.95 21.75 Q9.95 23.6 8.65 24.95 7.3 26.25 5.45 26.25 L-5.5 26.25 Q-7.35 26.25 -8.65 24.95 -10.0 23.6 -10.0 21.75 L-10.0 10.1 -21.75 10.1 Q-23.6 10.1 -24.9 8.8 -26.25 7.45 -26.25 5.6 L-26.25 -5.5 Q-26.25 -7.35 -24.9 -8.65 -23.6 -10.0 -21.75 -10.0" fill="#000000" fill-opacity="0.32156864" fill-rule="evenodd" stroke="none"/>
    <path d="M-21.75 -8.5 L-8.5 -8.5 -8.5 -21.75 Q-8.5 -23.0 -7.6 -23.85 -6.75 -24.75 -5.5 -24.75 L5.45 -24.75 Q6.7 -24.75 7.6 -23.85 8.45 -23.0 8.45 -21.75 L8.45 -8.5 21.75 -8.5 Q23.0 -8.5 23.9 -7.6 24.75 -6.75 24.75 -5.5 L24.75 5.6 Q24.75 6.85 23.9 7.75 23.0 8.6 21.75 8.6 L8.45 8.6 8.45 21.75 Q8.45 23.0 7.6 23.9 6.7 24.75 5.45 24.75 L-5.5 24.75 Q-6.75 24.75 -7.6 23.9 -8.5 23.0 -8.5 21.75 L-8.5 8.6 -21.75 8.6 Q-23.0 8.6 -23.85 7.75 -24.75 6.85 -24.75 5.6 L-24.75 -5.5 Q-24.75 -6.75 -23.85 -7.6 -23.0 -8.5 -21.75 -8.5" fill="#0e0e0e" fill-opacity="0.81960785" fill-rule="evenodd" stroke="none"/>
    <path d="M-21.75 -7.0 L-7.0 -7.0 -7.0 -21.75 -6.55 -22.8 Q-6.1 -23.25 -5.5 -23.25 L5.45 -23.25 Q6.05 -23.25 6.5 -22.8 6.95 -22.35 6.95 -21.75 L6.95 -7.0 21.75 -7.0 Q22.35 -7.0 22.8 -6.55 L23.25 -5.5 23.25 5.6 22.8 6.65 Q22.35 7.1 21.75 7.1 L6.95 7.1 6.95 21.75 Q6.95 22.35 6.5 22.8 6.05 23.25 5.45 23.25 L-5.5 23.25 Q-6.1 23.25 -6.55 22.8 L-7.0 21.75 -7.0 7.1 -21.75 7.1 Q-22.35 7.1 -22.8 6.65 L-23.25 5.6 -23.25 -5.5 -22.8 -6.55 Q-22.35 -7.0 -21.75 -7.0" fill="url(#gradient1)" fill-rule="evenodd" stroke="none"/>
    <path d="M5.45 21.75 L-5.5 21.75 -5.5 5.6 -21.75 5.6 -21.75 -5.5 -5.5 -5.5 -5.5 -21.75 5.45 -21.75 5.45 -5.5 21.75 -5.5 21.75 5.6 5.45 5.6 5.45 21.75" fill="#ffffff" fill-opacity="0.8" fill-rule="evenodd" stroke="none"/>
  </g>
  <defs>
    <linearGradient gradientTransform="matrix(0.0242, 0.0242, -0.0205, 0.0205, -5.85, -5.85)" gradientUnits="userSpaceOnUse" id="gradient0" spreadMethod="pad" x1="-819.2" x2="819.2">
      <stop offset="0.0" stop-color="#ffff00"/>
      <stop offset="0.13333333333333333" stop-color="#ff9900"/>
      <stop offset="0.2823529411764706" stop-color="#ff0000"/>
      <stop offset="0.4117647058823529" stop-color="#bb00ff"/>
      <stop offset="0.5568627450980392" stop-color="#0033ff"/>
      <stop offset="0.7098039215686275" stop-color="#00f7ff"/>
      <stop offset="0.8470588235294118" stop-color="#12ff00"/>
      <stop offset="0.9607843137254902" stop-color="#ffff00"/>
    </linearGradient>
    <linearGradient gradientTransform="matrix(0.0103, 0.0299, -0.0275, 0.0095, 0.95, 2.7)" gradientUnits="userSpaceOnUse" id="gradient1" spreadMethod="pad" x1="-819.2" x2="819.2">
      <stop offset="0.0" stop-color="#ffff00"/>
      <stop offset="0.13333333333333333" stop-color="#ff9900"/>
      <stop offset="0.2823529411764706" stop-color="#ff0000"/>
      <stop offset="0.4117647058823529" stop-color="#bb00ff"/>
      <stop offset="0.5568627450980392" stop-color="#0033ff"/>
      <stop offset="0.7098039215686275" stop-color="#00f7ff"/>
      <stop offset="0.8470588235294118" stop-color="#12ff00"/>
      <stop offset="0.9607843137254902" stop-color="#ffff00"/>
    </linearGradient>
  </defs>
</svg>
