<?xml version="1.0" encoding="UTF-8" standalone="no"?>
<svg xmlns:xlink="http://www.w3.org/1999/xlink" height="954.2px" width="586.1px" xmlns="http://www.w3.org/2000/svg">
  <g transform="matrix(1.0, 0.0, 0.0, 1.0, 453.25, 135.5)">
    <path d="M-453.25 -135.5 L132.85 -135.5 132.85 818.7 -453.25 818.7 -453.25 -135.5" fill="#000000" fill-opacity="0.011764706" fill-rule="evenodd" stroke="none"/>
    <path d="M-2.55 -38.9 L84.9 -38.9 84.9 39.35 -2.55 39.35 -2.55 -38.9" fill="#c7a7ff" fill-opacity="0.011764706" fill-rule="evenodd" stroke="none"/>
    <path d="M4.4 33.5 L79.35 33.5 79.35 -33.55 41.85 -33.55 4.4 3.95 4.4 33.5 M0.0 37.45 L0.0 4.4 41.85 -37.5 83.75 -37.5 83.75 37.45 0.0 37.45" fill="#c3a5fb" fill-rule="evenodd" stroke="none"/>
    <path d="M4.4 33.5 L4.4 3.95 41.85 -33.55 79.35 -33.55 79.35 33.5 4.4 33.5 M7.35 31.55 L77.1 31.55 77.1 -30.85 42.2 -30.85 7.35 4.05 7.35 31.55" fill="#584b72" fill-rule="evenodd" stroke="none"/>
    <path d="M7.35 31.55 L7.35 4.05 42.2 -30.85 77.1 -30.85 77.1 31.55 7.35 31.55" fill="#191520" fill-rule="evenodd" stroke="none"/>
    <path d="M0.0 37.45 L83.75 37.45 83.75 -37.5 41.85 -37.5 0.0 4.4 0.0 37.45 Z" fill="none" stroke="#000000" stroke-linecap="round" stroke-linejoin="round" stroke-width="0.05"/>
    <path d="M-443.85 666.1 L122.25 666.1 122.25 695.75 -443.85 695.75 -443.85 666.1" fill="#000000" fill-opacity="0.9019608" fill-rule="evenodd" stroke="none"/>
  </g>
</svg>
