<?xml version="1.0" encoding="UTF-8" standalone="no"?>
<svg xmlns:xlink="http://www.w3.org/1999/xlink" height="152.5px" width="432.95px" xmlns="http://www.w3.org/2000/svg">
  <g transform="matrix(1.0, 0.0, 0.0, 1.0, 216.45, 76.25)">
    <path d="M-34.8 -62.2 Q-33.55 -63.2 -31.65 -63.2 L-18.55 -63.2 Q-16.5 -63.2 -15.8 -62.2 L-15.8 -62.15 Q-15.05 -61.2 -15.35 -59.7 L-14.95 -60.05 Q-12.9 -61.75 -10.45 -62.65 -8.05 -63.55 -5.25 -63.55 -1.55 -63.55 0.8 -62.0 3.15 -60.4 3.75 -57.45 4.5 -54.75 3.45 -51.0 2.75 -48.2 1.4 -46.05 L1.4 -46.1 Q0.0 -43.75 -2.1 -42.0 -4.1 -40.25 -6.7 -39.3 L-6.65 -39.3 Q-9.05 -38.4 -11.95 -38.4 -14.7 -38.4 -16.7 -39.3 L-16.75 -39.3 Q-18.8 -40.3 -19.85 -42.0 L-19.9 -42.05 Q-20.95 -43.75 -21.05 -46.2 L-21.1 -46.1 Q-21.25 -48.4 -20.55 -51.05 -19.85 -53.75 -18.4 -56.05 L-20.55 -55.7 -23.05 -55.7 -26.5 -42.95 Q-27.1 -40.7 -28.35 -39.7 L-28.55 -39.65 Q-30.05 -38.4 -31.75 -38.4 -33.7 -38.4 -34.35 -39.7 -35.25 -40.7 -34.65 -42.95 L-31.2 -55.7 -33.65 -55.7 Q-35.65 -55.7 -36.35 -56.65 L-36.4 -56.8 Q-37.2 -57.8 -36.75 -59.5 -36.3 -61.2 -34.8 -62.2 M-189.65 -62.45 Q-188.15 -63.55 -186.6 -63.55 -184.0 -63.55 -183.75 -61.65 -183.5 -60.75 -183.6 -59.1 L-183.75 -55.25 -182.1 -58.4 -180.85 -60.65 -178.7 -62.6 Q-177.45 -63.55 -175.65 -63.55 -173.75 -63.55 -172.95 -62.45 -172.3 -61.75 -172.05 -60.7 L-172.05 -60.5 -172.0 -58.5 -172.05 -58.4 -172.0 -55.25 -170.1 -59.1 -169.35 -60.65 -169.25 -60.85 -167.65 -62.55 Q-166.5 -63.55 -164.75 -63.55 -163.2 -63.55 -162.3 -62.45 L-162.2 -62.4 -161.8 -61.55 -160.05 -62.75 -157.65 -63.2 -146.7 -63.2 Q-144.65 -63.2 -144.1 -62.15 L-144.1 -62.25 Q-143.65 -61.75 -143.5 -60.9 L-142.35 -62.25 Q-141.0 -63.55 -139.0 -63.55 -137.05 -63.55 -136.35 -62.25 L-136.45 -62.35 Q-135.5 -61.3 -136.1 -59.05 L-139.55 -46.2 -133.2 -46.2 -132.05 -46.05 -132.0 -47.7 Q-131.95 -49.25 -131.5 -51.0 -130.7 -53.8 -129.2 -56.05 -127.8 -58.4 -125.65 -60.05 L-125.65 -60.1 Q-123.55 -61.85 -121.15 -62.65 -118.75 -63.55 -116.3 -63.55 -113.35 -63.55 -111.4 -62.35 L-111.35 -62.25 Q-109.2 -61.1 -108.4 -59.25 -107.85 -57.9 -107.9 -56.65 -106.6 -58.6 -104.8 -60.05 -102.75 -61.75 -100.3 -62.65 -97.9 -63.55 -95.1 -63.55 -91.4 -63.55 -89.05 -62.0 -86.7 -60.4 -86.1 -57.45 L-85.8 -55.85 -85.0 -58.9 Q-84.3 -61.6 -82.35 -62.4 L-82.5 -62.35 Q-81.15 -63.2 -79.25 -63.2 L-78.0 -63.2 -75.65 -62.9 Q-74.45 -62.4 -74.2 -61.1 L-74.2 -60.9 -74.1 -59.05 -74.15 -58.95 -74.1 -55.2 -72.05 -59.05 -70.95 -60.9 -70.85 -61.1 Q-69.9 -62.35 -68.55 -62.8 L-66.05 -63.2 -64.75 -63.2 Q-62.8 -63.2 -61.95 -62.35 L-61.95 -62.4 Q-60.55 -61.6 -61.25 -58.9 L-65.6 -42.75 Q-66.15 -40.6 -67.6 -39.65 L-67.4 -39.7 Q-68.9 -38.4 -70.7 -38.4 -72.35 -38.4 -73.2 -39.65 L-73.2 -39.7 Q-73.75 -40.3 -73.7 -41.35 -74.35 -40.25 -75.55 -39.35 -76.8 -38.4 -78.6 -38.4 -79.95 -38.4 -80.7 -38.95 L-80.75 -38.95 Q-81.65 -39.65 -81.85 -40.5 L-81.85 -40.6 -82.0 -41.35 Q-82.5 -40.25 -83.45 -39.65 L-83.25 -39.7 Q-84.75 -38.4 -86.6 -38.4 -88.3 -38.4 -89.05 -39.55 L-89.15 -39.65 Q-89.9 -40.7 -89.35 -42.75 L-88.45 -46.1 Q-89.85 -43.75 -91.95 -42.0 -93.95 -40.25 -96.55 -39.3 L-96.5 -39.3 Q-98.9 -38.4 -101.8 -38.4 -104.55 -38.4 -106.55 -39.3 L-106.6 -39.3 Q-108.65 -40.3 -109.7 -42.0 L-109.75 -42.05 Q-110.7 -43.5 -110.9 -45.5 L-111.65 -44.3 Q-112.6 -42.9 -114.3 -41.45 -115.95 -40.1 -118.2 -39.25 -120.35 -38.4 -122.95 -38.4 L-126.25 -38.7 -126.3 -38.75 Q-127.75 -39.15 -128.8 -39.9 L-128.95 -39.9 -130.45 -41.45 Q-131.05 -40.45 -132.05 -39.7 -133.3 -38.75 -135.2 -38.75 L-145.2 -38.75 Q-147.7 -38.75 -148.25 -40.05 L-148.65 -40.85 Q-149.15 -40.2 -149.8 -39.7 -151.15 -38.75 -152.9 -38.75 L-164.2 -38.75 Q-166.7 -38.75 -167.2 -40.05 -168.1 -41.05 -167.5 -43.3 L-164.75 -53.55 -169.9 -43.6 -171.05 -41.4 -171.15 -41.35 Q-171.95 -40.2 -173.0 -39.35 -174.3 -38.4 -176.15 -38.4 -178.0 -38.4 -178.75 -39.35 L-178.6 -39.3 Q-179.55 -40.2 -179.6 -41.35 L-179.7 -43.5 -179.7 -48.5 -182.4 -43.5 -183.65 -41.35 Q-184.3 -40.25 -185.5 -39.35 L-185.6 -39.3 Q-187.0 -38.4 -188.65 -38.4 -189.95 -38.4 -190.65 -38.9 -191.6 -39.5 -191.9 -40.6 L-192.15 -42.15 -192.2 -42.2 -192.15 -43.6 -191.8 -57.35 -191.85 -57.25 -191.6 -59.65 Q-191.15 -61.3 -189.7 -62.4 L-189.65 -62.45 M-110.4 -51.05 L-109.95 -52.6 Q-111.25 -51.55 -112.9 -51.55 -114.7 -51.55 -115.2 -52.55 L-116.0 -54.25 Q-116.3 -55.3 -116.85 -55.8 L-116.9 -55.85 Q-117.4 -56.25 -118.25 -56.25 -119.75 -56.25 -121.0 -55.1 -122.55 -53.55 -123.25 -50.85 -123.8 -48.9 -123.55 -47.7 -123.4 -46.75 -122.8 -46.2 -122.25 -45.7 -121.25 -45.7 -120.2 -45.7 -119.2 -46.2 L-117.7 -47.9 -117.75 -47.8 -116.15 -49.75 Q-114.95 -51.05 -113.0 -51.05 -111.45 -51.05 -110.7 -49.95 L-110.65 -49.95 -110.4 -51.05 M-96.1 -47.8 Q-95.1 -49.15 -94.6 -51.05 -94.15 -52.8 -94.35 -54.05 L-94.35 -54.1 Q-94.5 -55.2 -95.25 -55.65 L-95.2 -55.7 Q-95.9 -56.25 -97.05 -56.25 L-98.5 -55.9 -98.7 -55.85 Q-99.4 -55.65 -99.95 -55.1 L-101.1 -53.55 -101.1 -53.5 Q-101.85 -52.4 -102.2 -51.05 -102.6 -49.65 -102.45 -48.5 L-102.45 -48.4 -102.15 -46.95 -102.1 -46.85 Q-101.8 -46.35 -101.15 -46.0 -100.65 -45.7 -99.85 -45.7 -98.85 -45.7 -97.8 -46.2 L-97.85 -46.2 Q-96.9 -46.8 -96.1 -47.8 M-144.65 -57.75 L-145.45 -57.0 -145.55 -56.85 Q-146.7 -56.0 -148.65 -56.0 L-155.95 -56.0 -156.2 -55.05 -149.65 -55.05 Q-147.75 -55.05 -147.1 -53.95 L-147.1 -54.1 Q-146.2 -53.1 -146.65 -51.45 -147.1 -49.7 -148.55 -48.75 -149.7 -47.9 -151.55 -47.9 L-158.1 -47.9 -158.6 -46.1 -150.95 -46.1 Q-149.15 -46.1 -148.35 -45.1 L-148.35 -45.05 -148.15 -44.75 -144.65 -57.75 M-5.35 -55.7 Q-6.05 -56.25 -7.2 -56.25 L-8.65 -55.9 -8.85 -55.85 Q-9.55 -55.65 -10.1 -55.1 L-11.25 -53.55 -11.25 -53.5 Q-12.0 -52.4 -12.35 -51.05 -12.75 -49.65 -12.6 -48.5 L-12.6 -48.4 -12.3 -46.95 -12.25 -46.85 -11.3 -46.0 Q-10.8 -45.7 -10.0 -45.7 -9.0 -45.7 -7.95 -46.2 L-8.0 -46.2 -6.25 -47.8 Q-5.25 -49.15 -4.75 -51.05 -4.3 -52.8 -4.5 -54.05 L-4.5 -54.1 Q-4.65 -55.2 -5.4 -55.65 L-5.35 -55.7 M-43.35 -56.85 Q-44.45 -56.0 -46.45 -56.0 L-53.7 -56.0 -53.95 -55.05 -47.4 -55.05 Q-45.55 -55.05 -44.9 -53.95 L-44.9 -54.1 Q-44.0 -53.1 -44.45 -51.45 -44.9 -49.7 -46.35 -48.75 -47.5 -47.9 -49.3 -47.9 L-55.85 -47.9 -56.35 -46.1 -48.75 -46.1 Q-46.9 -46.1 -46.15 -45.1 L-46.15 -45.05 Q-45.3 -44.05 -45.75 -42.4 -46.2 -40.65 -47.6 -39.7 -48.95 -38.75 -50.7 -38.75 L-61.95 -38.75 Q-64.45 -38.75 -65.0 -40.05 -65.9 -41.05 -65.3 -43.3 L-61.2 -58.6 Q-60.75 -60.15 -60.05 -61.0 -59.15 -62.15 -57.8 -62.75 L-55.4 -63.2 -44.5 -63.2 Q-42.45 -63.2 -41.85 -62.15 L-41.9 -62.25 Q-41.0 -61.3 -41.45 -59.55 -41.85 -58.1 -43.2 -57.0 L-43.35 -56.85" fill="#3a3a3a" fill-rule="evenodd" stroke="none"/>
    <path d="M-5.8 -61.55 Q-2.65 -61.55 -0.7 -60.25 1.2 -58.95 1.75 -56.6 2.3 -54.25 1.4 -51.0 0.8 -48.6 -0.35 -46.75 -1.55 -44.75 -3.2 -43.35 -4.85 -41.95 -6.95 -41.2 -8.95 -40.45 -11.4 -40.45 -13.75 -40.45 -15.45 -41.2 -17.15 -42.0 -18.0 -43.4 -18.95 -44.75 -19.0 -46.8 -19.2 -48.75 -18.55 -51.05 -17.9 -53.4 -16.7 -55.4 -15.5 -57.35 -13.85 -58.7 -12.2 -60.05 -10.2 -60.8 -8.2 -61.55 -5.8 -61.55 M-177.6 -44.05 L-177.6 -56.25 -184.2 -44.05 -185.4 -42.0 -186.45 -40.9 Q-187.15 -40.45 -188.1 -40.45 L-189.3 -40.7 Q-189.75 -41.0 -189.85 -41.55 L-190.1 -42.75 -190.05 -44.1 -189.75 -57.8 -189.6 -59.65 Q-189.4 -60.45 -188.7 -61.0 -187.95 -61.55 -187.15 -61.55 -186.0 -61.55 -185.85 -60.8 -185.65 -60.1 -185.7 -58.7 L-186.2 -46.8 -180.25 -57.95 -179.15 -59.9 -177.9 -61.05 Q-177.2 -61.55 -176.2 -61.55 -175.15 -61.55 -174.7 -61.0 -174.3 -60.5 -174.2 -59.9 L-174.1 -57.95 -174.1 -46.8 -168.2 -58.7 -167.5 -60.15 -166.65 -61.1 -165.3 -61.55 Q-164.5 -61.55 -164.05 -61.0 -163.65 -60.45 -163.85 -59.65 L-164.6 -57.8 -171.75 -44.1 -172.85 -42.05 -173.95 -40.9 Q-174.6 -40.45 -175.6 -40.45 -176.55 -40.45 -177.0 -40.9 -177.45 -41.4 -177.5 -42.0 L-177.6 -44.05 M-148.1 -58.0 L-157.4 -58.0 -158.75 -53.0 -150.2 -53.0 Q-149.25 -53.0 -148.85 -52.55 -148.5 -52.15 -148.7 -51.45 -148.9 -50.7 -149.45 -50.3 -150.05 -49.9 -151.0 -49.9 L-159.55 -49.9 -161.15 -44.1 -151.5 -44.1 Q-150.55 -44.1 -150.1 -43.6 -149.8 -43.15 -150.0 -42.4 -150.2 -41.65 -150.75 -41.25 -151.4 -40.8 -152.35 -40.8 L-163.65 -40.8 Q-165.0 -40.8 -165.35 -41.4 -165.85 -42.0 -165.5 -43.3 L-161.4 -58.6 -160.7 -60.1 -159.65 -60.9 -158.2 -61.2 -147.25 -61.2 Q-146.2 -61.2 -145.85 -60.7 -145.5 -60.3 -145.7 -59.55 -145.9 -58.9 -146.5 -58.4 -147.05 -58.0 -148.1 -58.0 M-112.3 -47.2 Q-112.55 -46.25 -113.3 -45.1 -114.05 -43.95 -115.4 -42.9 -116.7 -41.8 -118.5 -41.1 -120.3 -40.45 -122.4 -40.45 L-125.3 -40.7 Q-126.5 -41.05 -127.45 -41.65 -128.3 -42.35 -128.95 -43.4 L-129.75 -45.5 -129.95 -48.1 -129.45 -51.0 Q-128.75 -53.4 -127.5 -55.4 -126.3 -57.35 -124.6 -58.7 -122.9 -60.1 -120.9 -60.8 -118.9 -61.55 -116.85 -61.55 -114.35 -61.55 -112.75 -60.5 -111.0 -59.55 -110.4 -58.1 -109.8 -56.65 -110.15 -55.4 -110.35 -54.65 -110.95 -54.1 -111.6 -53.55 -112.35 -53.55 -113.15 -53.55 -113.4 -53.95 L-114.0 -55.25 Q-114.4 -56.75 -115.25 -57.45 -116.1 -58.3 -117.7 -58.3 -120.2 -58.3 -122.35 -56.3 -124.3 -54.35 -125.25 -50.85 -125.9 -48.4 -125.7 -46.85 -125.4 -45.3 -124.4 -44.5 -123.45 -43.7 -121.8 -43.7 -120.0 -43.7 -118.5 -44.55 -117.05 -45.5 -116.0 -47.2 L-114.95 -48.5 Q-114.4 -49.05 -113.55 -49.05 -112.8 -49.05 -112.45 -48.5 -112.1 -48.0 -112.3 -47.2 M-92.6 -51.05 Q-92.0 -53.3 -92.3 -54.9 -92.55 -56.6 -93.65 -57.4 -94.75 -58.3 -96.5 -58.3 -97.8 -58.3 -98.95 -57.75 -100.15 -57.35 -101.15 -56.45 L-102.9 -54.15 Q-103.75 -52.75 -104.2 -51.05 -104.7 -49.3 -104.6 -47.9 -104.55 -46.45 -104.0 -45.6 -103.45 -44.65 -102.55 -44.15 -101.7 -43.7 -100.4 -43.7 -98.85 -43.7 -97.25 -44.5 -95.75 -45.3 -94.5 -46.95 -93.25 -48.6 -92.6 -51.05 M-95.65 -61.55 Q-92.5 -61.55 -90.55 -60.25 -88.65 -58.95 -88.1 -56.6 -87.55 -54.25 -88.45 -51.0 -89.05 -48.6 -90.2 -46.75 -91.4 -44.75 -93.05 -43.35 -94.7 -41.95 -96.8 -41.2 -98.8 -40.45 -101.25 -40.45 -103.6 -40.45 -105.3 -41.2 -107.0 -42.0 -107.85 -43.4 -108.8 -44.75 -108.85 -46.8 -109.05 -48.75 -108.4 -51.05 -107.75 -53.4 -106.55 -55.4 -105.35 -57.35 -103.7 -58.7 -102.05 -60.05 -100.05 -60.8 -98.05 -61.55 -95.65 -61.55 M-79.95 -43.9 L-79.7 -56.85 -83.5 -42.75 Q-83.8 -41.6 -84.45 -41.05 -85.15 -40.45 -86.05 -40.45 -86.85 -40.45 -87.25 -41.0 -87.65 -41.6 -87.35 -42.75 L-83.0 -58.9 Q-82.65 -60.25 -81.75 -60.7 -80.95 -61.2 -79.8 -61.2 L-78.55 -61.2 -76.9 -61.0 Q-76.4 -60.8 -76.3 -60.25 L-76.2 -58.5 -76.25 -47.25 -70.25 -58.5 -69.25 -60.25 Q-68.85 -60.8 -68.25 -61.0 L-66.6 -61.2 -65.3 -61.2 Q-64.1 -61.2 -63.5 -60.7 -62.9 -60.25 -63.25 -58.9 L-67.6 -42.75 Q-67.9 -41.6 -68.6 -41.05 -69.3 -40.45 -70.15 -40.45 -71.0 -40.45 -71.35 -41.05 -71.75 -41.6 -71.45 -42.75 L-67.65 -56.85 -74.4 -43.9 -75.45 -42.0 Q-75.8 -41.4 -76.5 -40.9 -77.15 -40.45 -78.05 -40.45 L-79.25 -40.7 Q-79.7 -41.05 -79.8 -41.55 L-79.95 -42.6 -79.95 -43.9 M-138.15 -59.05 L-142.15 -44.15 -133.75 -44.15 Q-132.75 -44.15 -132.35 -43.7 -131.9 -43.2 -132.1 -42.5 -132.3 -41.75 -133.0 -41.25 -133.65 -40.8 -134.65 -40.8 L-144.65 -40.8 Q-146.0 -40.8 -146.4 -41.4 -146.85 -42.0 -146.5 -43.3 L-142.25 -59.05 Q-141.9 -60.3 -141.2 -60.9 -140.5 -61.55 -139.55 -61.55 -138.65 -61.55 -138.25 -60.9 -137.8 -60.3 -138.15 -59.05 M-20.0 -57.75 L-24.5 -57.75 -28.5 -42.95 Q-28.85 -41.65 -29.55 -41.05 -30.3 -40.45 -31.2 -40.45 -32.15 -40.45 -32.5 -41.05 -33.0 -41.65 -32.65 -42.95 L-28.65 -57.75 -33.1 -57.75 Q-34.15 -57.75 -34.6 -58.2 -34.95 -58.7 -34.75 -59.5 -34.55 -60.25 -33.85 -60.7 -33.2 -61.2 -32.2 -61.2 L-19.1 -61.2 Q-18.0 -61.2 -17.55 -60.7 -17.25 -60.25 -17.45 -59.5 -17.65 -58.7 -18.25 -58.2 -18.9 -57.75 -20.0 -57.75 M-2.75 -51.05 Q-2.15 -53.3 -2.45 -54.9 -2.7 -56.6 -3.8 -57.4 -4.9 -58.3 -6.65 -58.3 L-9.1 -57.75 Q-10.3 -57.35 -11.3 -56.45 L-13.05 -54.15 Q-13.9 -52.75 -14.35 -51.05 -14.85 -49.3 -14.75 -47.9 -14.75 -46.45 -14.15 -45.6 -13.6 -44.65 -12.7 -44.15 -11.85 -43.7 -10.55 -43.7 -9.0 -43.7 -7.4 -44.5 -5.9 -45.3 -4.65 -46.95 -3.4 -48.6 -2.75 -51.05 M-45.9 -58.0 L-55.2 -58.0 -56.55 -53.0 -47.95 -53.0 Q-47.0 -53.0 -46.65 -52.55 -46.3 -52.15 -46.5 -51.45 -46.7 -50.7 -47.25 -50.3 -47.8 -49.9 -48.75 -49.9 L-57.35 -49.9 -58.95 -44.1 -49.3 -44.1 Q-48.35 -44.1 -47.9 -43.6 -47.6 -43.15 -47.8 -42.4 -48.0 -41.65 -48.55 -41.25 -49.2 -40.8 -50.15 -40.8 L-61.4 -40.8 Q-62.75 -40.8 -63.15 -41.4 -63.6 -42.0 -63.25 -43.3 L-59.15 -58.6 -58.5 -60.1 Q-58.1 -60.65 -57.45 -60.9 L-55.95 -61.2 -45.05 -61.2 Q-44.0 -61.2 -43.65 -60.7 -43.25 -60.3 -43.45 -59.55 -43.65 -58.9 -44.3 -58.4 -44.85 -58.0 -45.9 -58.0" fill="url(#gradient0)" fill-rule="evenodd" stroke="none"/>
    <path d="M-213.45 -73.25 L-213.45 73.25 213.5 73.25 213.5 -73.25 -213.45 -73.25 M-208.75 72.25 Q-210.0 72.25 -210.85 71.4 -211.75 70.5 -211.75 69.25 L-211.75 -69.25 Q-211.75 -70.5 -210.85 -71.35 -210.0 -72.25 -208.75 -72.25 L208.8 -72.25 Q210.05 -72.25 210.95 -71.35 211.8 -70.5 211.8 -69.25 L211.8 69.25 Q211.8 70.5 210.95 71.4 210.05 72.25 208.8 72.25 L-208.75 72.25 M-208.75 -69.25 L-208.75 69.25 208.8 69.25 208.8 -69.25 -208.75 -69.25 M-216.45 -76.25 L216.5 -76.25 216.5 76.25 -216.45 76.25 -216.45 -76.25" fill="#6ab686" fill-rule="evenodd" stroke="none"/>
    <path d="M-208.75 72.25 L208.8 72.25 Q210.05 72.25 210.95 71.4 211.8 70.5 211.8 69.25 L211.8 -69.25 Q211.8 -70.5 210.95 -71.35 210.05 -72.25 208.8 -72.25 L-208.75 -72.25 Q-210.0 -72.25 -210.85 -71.35 -211.75 -70.5 -211.75 -69.25 L-211.75 69.25 Q-211.75 70.5 -210.85 71.4 -210.0 72.25 -208.75 72.25 M-213.45 -73.25 L213.5 -73.25 213.5 73.25 -213.45 73.25 -213.45 -73.25" fill="#affffc" fill-rule="evenodd" stroke="none"/>
    <path d="M-208.75 -69.25 L208.8 -69.25 208.8 69.25 -208.75 69.25 -208.75 -69.25 M-216.45 -76.25 L216.5 -76.25 216.5 76.25 -216.45 76.25 -216.45 -76.25" fill="none" stroke="#666666" stroke-linecap="round" stroke-linejoin="round" stroke-width="0.05"/>
  </g>
  <defs>
    <linearGradient gradientTransform="matrix(-0.003, 0.0112, -0.118, 0.0, -95.5, -49.95)" gradientUnits="userSpaceOnUse" id="gradient0" spreadMethod="pad" x1="-819.2" x2="819.2">
      <stop offset="0.0392156862745098" stop-color="#f5feff"/>
      <stop offset="1.0" stop-color="#9ccbff"/>
    </linearGradient>
  </defs>
</svg>
