<?xml version="1.0" encoding="UTF-8" standalone="no"?>
<svg xmlns:xlink="http://www.w3.org/1999/xlink" height="94.5px" width="94.5px" xmlns="http://www.w3.org/2000/svg">
  <g transform="matrix(1.0, 0.0, 0.0, 1.0, 47.5, 48.1)">
    <path d="M-0.25 -45.1 Q-18.55 -45.1 -31.55 -32.15 -44.5 -19.15 -44.5 -0.85 -44.5 17.45 -31.55 30.4 -18.55 43.4 -0.25 43.4 18.05 43.4 31.0 30.45 L31.05 30.4 Q44.0 17.45 44.0 -0.85 44.0 -19.15 31.0 -32.15 18.05 -45.1 -0.25 -45.1 M-0.25 -46.6 Q18.7 -46.6 32.1 -33.2 45.5 -19.8 45.5 -0.85 45.5 18.1 32.1 31.5 18.7 44.9 -0.25 44.9 -19.2 44.9 -32.6 31.5 -46.0 18.1 -46.0 -0.85 -46.0 -19.8 -32.6 -33.2 -19.2 -46.6 -0.25 -46.6" fill="#000000" fill-opacity="0.3019608" fill-rule="evenodd" stroke="none"/>
    <path d="M42.5 -0.85 Q42.5 16.85 29.95 29.35 17.45 41.9 -0.25 41.9 -17.95 41.9 -30.5 29.35 -43.0 16.85 -43.0 -0.85 -43.0 -18.55 -30.5 -31.1 -17.95 -43.6 -0.25 -43.6 17.45 -43.6 29.95 -31.1 42.5 -18.55 42.5 -0.85" fill="#000000" fill-opacity="0.6" fill-rule="evenodd" stroke="none"/>
    <path d="M-0.25 -46.6 Q-19.2 -46.6 -32.6 -33.2 -46.0 -19.8 -46.0 -0.85 -46.0 18.1 -32.6 31.5 -19.2 44.9 -0.25 44.9 18.7 44.9 32.1 31.5 45.5 18.1 45.5 -0.85 45.5 -19.8 32.1 -33.2 18.7 -46.6 -0.25 -46.6 M-0.25 -48.1 Q19.3 -48.1 33.15 -34.25 47.0 -20.4 47.0 -0.85 47.0 18.7 33.15 32.55 19.3 46.4 -0.25 46.4 -19.8 46.4 -33.65 32.55 -47.5 18.7 -47.5 -0.85 -47.5 -20.4 -33.7 -34.25 L-33.65 -34.3 Q-19.8 -48.1 -0.25 -48.1" fill="#000000" fill-opacity="0.14901961" fill-rule="evenodd" stroke="none"/>
    <path d="M-0.25 -45.1 Q18.05 -45.1 31.0 -32.15 44.0 -19.15 44.0 -0.85 44.0 17.45 31.05 30.4 L31.0 30.45 Q18.05 43.4 -0.25 43.4 -18.55 43.4 -31.55 30.4 -44.5 17.45 -44.5 -0.85 -44.5 -19.15 -31.55 -32.15 -18.55 -45.1 -0.25 -45.1 M42.5 -0.85 Q42.5 -18.55 29.95 -31.1 17.45 -43.6 -0.25 -43.6 -17.95 -43.6 -30.5 -31.1 -43.0 -18.55 -43.0 -0.85 -43.0 16.85 -30.5 29.35 -17.95 41.9 -0.25 41.9 17.45 41.9 29.95 29.35 42.5 16.85 42.5 -0.85" fill="#000000" fill-opacity="0.4509804" fill-rule="evenodd" stroke="none"/>
  </g>
</svg>
