<?xml version="1.0" encoding="UTF-8" standalone="no"?>
<svg xmlns:xlink="http://www.w3.org/1999/xlink" height="135.2px" width="260.5px" xmlns="http://www.w3.org/2000/svg">
  <g transform="matrix(1.0, 0.0, 0.0, 1.0, 74.3, 65.55)">
    <path d="M96.05 52.95 Q95.4 52.95 95.05 53.25 94.65 53.55 94.65 53.95 94.65 54.4 95.0 54.75 L95.95 55.0 96.3 55.0 96.3 60.45 Q96.3 61.8 96.55 62.55 96.75 63.4 97.4 63.75 98.1 64.25 99.45 64.25 L101.6 63.85 Q102.35 63.5 102.35 62.8 L102.1 62.15 Q101.8 61.85 101.5 61.85 L100.8 61.95 100.1 62.05 99.45 61.8 99.25 61.2 99.2 60.2 99.2 55.0 99.65 55.0 100.95 54.8 Q101.45 54.5 101.45 53.95 L101.15 53.25 Q100.85 52.95 100.2 52.95 L99.2 52.95 99.2 51.0 99.1 49.9 98.7 49.25 Q98.3 48.8 97.7 48.8 97.35 48.8 97.05 49.05 L96.55 49.5 96.35 50.2 96.3 51.25 96.3 52.95 96.05 52.95 M97.7 47.6 Q98.7 47.6 99.55 48.35 L99.6 48.4 Q100.15 48.9 100.3 49.65 L100.4 51.0 100.4 51.75 Q101.45 51.8 101.95 52.35 L102.0 52.4 Q102.65 53.05 102.65 53.95 L102.6 54.55 Q102.95 53.95 103.45 53.45 104.3 52.5 105.65 51.95 L108.45 51.45 Q110.45 51.45 111.9 52.3 L111.95 52.35 Q113.3 53.2 114.1 54.6 L114.15 54.65 114.4 55.15 114.5 55.25 114.75 56.15 114.85 58.2 Q114.65 59.15 114.0 59.65 L114.05 59.7 114.45 60.15 Q114.9 60.8 114.65 61.8 L114.15 63.1 113.05 64.15 113.0 64.15 Q112.3 64.7 111.2 65.05 L111.1 65.1 108.6 65.45 Q105.35 65.45 103.5 63.5 L103.45 63.5 Q103.2 64.4 102.15 65.0 L102.1 65.0 99.45 65.45 Q97.7 65.45 96.75 64.8 L96.75 64.85 Q95.75 64.2 95.4 62.9 L95.4 62.85 Q95.1 61.9 95.1 60.45 L95.1 56.15 94.2 55.7 94.15 55.6 94.1 55.55 94.2 57.05 94.2 58.75 94.2 60.3 94.45 61.6 94.45 61.65 94.7 63.1 Q94.75 64.05 93.9 64.85 L93.85 64.9 Q93.05 65.45 92.15 65.45 91.25 65.5 90.4 64.7 L90.1 64.35 88.9 65.0 88.85 65.0 86.25 65.45 83.75 64.95 Q82.6 64.25 82.05 63.3 L81.55 62.35 81.55 62.65 Q81.55 64.0 80.9 64.65 L80.85 64.7 Q80.15 65.45 79.0 65.45 77.85 65.45 77.15 64.65 L77.05 64.55 75.75 65.2 73.9 65.45 71.5 64.95 71.45 64.95 69.6 63.4 69.55 63.35 Q68.85 62.4 68.45 61.2 L68.45 61.25 Q68.0 62.6 67.15 63.5 L67.15 63.45 Q66.4 64.4 65.25 65.0 L65.2 65.0 62.85 65.45 60.45 65.0 60.45 66.55 Q60.45 69.8 57.9 69.65 56.15 69.65 55.75 68.6 55.3 67.9 55.3 66.55 L55.3 54.3 Q55.3 52.9 56.0 52.25 56.7 51.5 57.9 51.5 58.95 51.5 59.75 52.25 L59.8 52.3 59.85 52.4 60.25 52.1 60.3 52.1 Q61.4 51.5 62.85 51.5 64.5 51.5 65.9 52.4 L65.9 52.35 Q67.3 53.2 68.1 54.85 L68.1 54.9 68.45 55.65 Q68.8 54.3 69.7 53.4 71.3 51.5 73.95 51.5 L76.45 51.95 76.45 50.3 Q76.45 48.85 77.0 48.2 L77.05 48.15 Q77.8 47.2 79.0 47.2 80.25 47.2 80.95 48.15 L80.95 48.1 Q81.55 48.75 81.55 50.1 L81.55 59.65 Q81.8 58.9 82.45 58.25 L83.0 57.7 82.75 57.5 Q81.85 56.85 81.85 55.75 81.8 54.65 82.65 53.6 L82.65 53.55 Q83.35 52.6 84.85 51.95 L88.1 51.45 Q90.25 51.45 91.5 52.0 92.8 52.6 93.5 53.65 93.55 52.85 94.3 52.3 L94.2 52.35 95.1 51.85 95.1 51.25 95.15 50.05 Q95.2 49.4 95.5 48.85 L96.35 48.05 96.45 47.95 96.5 47.95 Q97.0 47.6 97.7 47.6 M105.75 57.55 Q105.9 56.1 106.6 55.4 107.25 54.65 108.3 54.65 109.45 54.65 110.1 55.4 110.8 56.1 110.9 57.55 L105.75 57.55 M111.3 59.15 L113.0 58.85 Q113.6 58.55 113.6 57.45 113.6 56.35 113.05 55.15 112.45 54.1 111.3 53.35 110.1 52.65 108.45 52.65 L106.1 53.1 Q105.0 53.5 104.35 54.25 103.6 55.05 103.2 56.1 102.85 57.2 102.85 58.45 102.85 61.15 104.4 62.7 105.9 64.25 108.6 64.25 L110.75 63.95 112.3 63.15 113.2 62.15 113.45 61.2 113.25 60.55 112.45 60.35 Q112.1 60.35 111.85 60.55 L111.0 61.3 110.25 61.85 109.5 62.25 108.55 62.35 Q107.8 62.35 107.15 61.95 106.5 61.6 106.15 60.85 105.75 60.15 105.75 59.15 L111.3 59.15 M101.5 60.6 L101.9 60.65 Q101.6 59.6 101.6 58.45 101.6 57.0 102.1 55.7 L102.2 55.4 101.6 55.85 100.4 56.2 100.4 60.2 100.45 60.8 100.55 60.8 101.5 60.6 M107.5 56.25 L107.4 56.35 109.3 56.35 109.2 56.25 109.2 56.2 Q108.85 55.85 108.3 55.85 107.8 55.85 107.5 56.25 M110.15 60.4 L110.2 60.35 107.25 60.35 107.8 60.9 107.8 60.95 108.55 61.15 109.25 61.1 109.5 60.9 109.65 60.85 110.15 60.4 M90.15 58.55 L90.15 58.95 Q90.15 60.4 89.8 61.1 89.45 61.65 88.8 62.0 L87.2 62.4 Q86.4 62.4 85.95 61.9 85.4 61.5 85.4 60.85 85.4 60.2 85.9 59.85 86.25 59.55 86.75 59.4 L88.4 59.0 90.15 58.55 M90.4 62.65 L91.3 63.8 Q91.65 64.25 92.15 64.25 92.65 64.25 93.05 63.9 L93.5 63.1 93.25 61.95 Q92.95 61.15 92.95 60.3 L92.95 58.75 92.95 57.05 Q92.95 55.45 92.55 54.5 92.1 53.55 91.0 53.15 89.95 52.65 88.1 52.65 86.4 52.65 85.3 53.15 84.15 53.55 83.65 54.3 83.05 55.0 83.05 55.75 83.05 56.25 83.45 56.5 83.75 56.85 84.3 56.85 L85.0 56.65 85.5 55.85 86.45 54.95 88.1 54.65 Q89.35 54.65 89.75 55.15 90.1 55.7 90.15 56.8 L88.5 57.25 86.7 57.7 85.3 58.0 Q84.05 58.25 83.35 59.05 82.6 59.9 82.6 61.05 82.6 61.9 83.05 62.65 L84.35 63.8 Q85.15 64.25 86.25 64.25 L88.45 63.85 90.4 62.65 M88.8 55.95 L88.1 55.85 87.1 56.05 87.0 56.1 86.6 56.45 88.25 56.1 88.3 56.1 88.8 55.95 M87.05 60.55 L86.65 60.8 86.65 60.85 86.8 61.05 87.2 61.15 88.25 60.9 88.2 60.95 88.75 60.45 88.75 60.5 88.85 60.2 88.6 60.25 87.05 60.55 M40.15 48.15 Q40.95 47.2 42.15 47.2 43.5 47.2 44.25 48.15 45.0 48.85 45.0 50.35 L45.0 57.85 45.2 59.6 45.8 60.35 47.1 60.55 Q48.1 60.55 48.7 60.1 49.15 59.35 49.15 57.95 L49.15 50.35 Q49.15 48.85 49.85 48.15 L49.9 48.15 Q50.6 47.25 51.9 47.2 53.15 47.2 53.95 48.15 54.7 48.8 54.7 50.35 L54.7 57.7 Q54.7 59.65 54.3 61.0 L54.3 61.05 Q53.8 62.5 52.7 63.65 L52.65 63.65 Q51.55 64.6 50.3 65.05 L50.25 65.05 47.3 65.45 43.95 65.0 Q42.35 64.6 41.4 63.6 L41.35 63.55 Q40.35 62.55 39.85 61.05 L39.8 61.05 Q39.45 59.6 39.45 57.7 L39.45 50.35 Q39.45 48.85 40.15 48.15 M77.65 62.65 Q77.65 63.4 78.05 63.8 78.4 64.25 79.0 64.25 79.6 64.25 79.95 63.8 80.35 63.45 80.35 62.65 L80.35 50.1 Q80.35 49.3 80.0 48.9 79.65 48.45 79.0 48.45 78.35 48.45 78.0 48.9 77.65 49.4 77.65 50.3 L77.65 54.45 Q76.85 53.55 76.05 53.15 75.2 52.7 73.95 52.7 71.85 52.7 70.6 54.2 69.25 55.7 69.25 58.35 69.25 59.6 69.6 60.7 69.9 61.8 70.55 62.6 L72.05 63.8 Q72.9 64.25 73.9 64.25 L75.35 64.05 Q76.05 63.8 76.55 63.4 L77.65 62.35 77.65 62.65 M40.65 57.7 Q40.65 59.4 41.05 60.65 41.4 61.9 42.2 62.7 L44.25 63.85 47.3 64.25 49.85 63.9 51.85 62.75 Q52.75 61.85 53.15 60.65 L53.45 57.7 53.45 50.35 Q53.45 49.4 53.05 48.95 52.6 48.45 51.9 48.45 51.2 48.45 50.8 48.95 50.4 49.4 50.4 50.35 L50.4 57.95 Q50.4 59.85 49.65 60.85 48.9 61.8 47.1 61.8 45.8 61.8 45.0 61.3 44.3 60.85 44.05 60.0 43.75 59.1 43.75 57.85 L43.75 50.35 Q43.75 49.4 43.3 48.95 42.9 48.45 42.15 48.45 41.5 48.45 41.1 48.95 40.65 49.4 40.65 50.35 L40.65 57.7 M27.75 52.95 Q27.1 52.95 26.75 53.25 26.4 53.55 26.4 53.95 26.4 54.4 26.75 54.75 L27.7 55.0 28.0 55.0 28.0 60.45 Q28.0 61.8 28.3 62.55 28.5 63.4 29.15 63.75 29.85 64.25 31.2 64.25 L33.35 63.85 Q34.05 63.5 34.05 62.8 L33.8 62.15 Q33.5 61.85 33.2 61.85 L32.5 61.95 31.85 62.05 31.2 61.8 Q31.0 61.6 30.95 61.2 L30.9 60.2 30.9 55.0 31.4 55.0 32.7 54.8 Q33.15 54.5 33.15 53.95 L32.85 53.25 Q32.55 52.95 31.9 52.95 L30.9 52.95 30.9 51.0 30.85 49.9 30.45 49.25 Q30.0 48.8 29.5 48.8 29.05 48.8 28.75 49.05 28.45 49.2 28.3 49.5 28.1 49.75 28.05 50.2 L28.0 51.25 28.0 52.95 27.75 52.95 M32.15 51.0 L32.15 51.75 Q33.15 51.8 33.7 52.35 L33.75 52.4 Q34.4 53.05 34.4 53.95 34.4 55.3 33.35 55.85 L32.15 56.2 32.15 60.2 32.15 60.8 32.25 60.8 33.2 60.6 Q34.0 60.55 34.7 61.25 L34.75 61.35 Q35.3 61.95 35.3 62.8 35.35 64.25 33.9 65.0 L33.8 65.0 31.2 65.45 Q29.4 65.45 28.5 64.8 L28.5 64.85 Q27.45 64.2 27.15 62.9 L27.1 62.85 Q26.8 61.9 26.8 60.45 L26.8 56.15 25.9 55.7 25.85 55.6 Q25.8 56.4 25.15 57.0 L25.15 57.05 24.7 57.35 25.75 58.45 25.8 58.5 Q26.4 59.4 26.4 60.55 26.4 62.05 25.6 63.25 24.85 64.35 23.4 65.0 L23.3 65.0 20.2 65.45 17.1 64.95 17.1 64.9 Q15.65 64.25 14.95 63.35 L14.45 62.45 14.3 62.75 14.25 62.75 13.05 64.15 11.2 65.05 11.15 65.1 8.6 65.45 Q5.35 65.45 3.5 63.5 3.2 64.4 2.2 65.0 L2.1 65.0 -0.55 65.45 Q-2.3 65.45 -3.2 64.8 L-3.2 64.85 Q-4.25 64.2 -4.6 62.9 L-4.6 62.85 -4.9 60.45 -4.9 56.15 -5.8 55.7 -5.85 55.6 -5.9 55.55 -5.8 57.05 -5.8 58.75 -5.8 60.3 -5.55 61.6 -5.55 61.65 Q-5.25 62.75 -5.3 63.1 -5.25 64.05 -6.1 64.85 L-6.15 64.9 Q-6.95 65.45 -7.85 65.45 -8.75 65.5 -9.55 64.7 L-9.85 64.35 -11.1 65.0 -11.15 65.0 -13.75 65.45 -16.2 64.95 Q-17.05 64.45 -17.6 63.8 L-18.15 64.5 -18.2 64.65 Q-18.9 65.2 -20.15 65.2 L-27.65 65.2 Q-29.25 65.2 -29.9 64.35 -30.75 63.7 -30.75 62.1 L-30.75 50.35 Q-30.75 48.85 -30.0 48.15 -29.25 47.2 -28.0 47.2 -26.8 47.2 -26.0 48.1 L-25.95 48.15 Q-25.15 48.8 -25.15 50.35 L-25.15 60.2 -20.15 60.2 Q-19.25 60.2 -18.55 60.55 -18.45 59.25 -17.55 58.25 L-17.0 57.7 -17.25 57.5 Q-18.15 56.85 -18.15 55.75 -18.15 54.65 -17.35 53.6 -16.65 52.6 -15.15 51.95 L-11.9 51.45 Q-9.75 51.45 -8.5 52.0 -7.2 52.6 -6.5 53.65 -6.4 52.85 -5.7 52.3 L-4.9 51.85 -4.9 51.25 -4.85 50.05 -4.5 48.85 -3.65 48.05 -3.55 47.95 -3.5 47.95 Q-3.0 47.6 -2.25 47.6 -1.25 47.6 -0.45 48.35 L-0.4 48.4 0.35 49.65 0.4 51.0 0.4 51.75 Q1.45 51.8 1.95 52.35 L2.0 52.4 Q2.65 53.05 2.65 53.95 L2.6 54.55 3.45 53.45 Q4.3 52.5 5.65 51.95 L8.45 51.45 Q10.45 51.45 11.9 52.3 L11.95 52.35 Q13.35 53.2 14.1 54.6 L14.15 54.65 14.4 55.15 15.05 53.65 15.05 53.7 Q15.7 52.65 17.1 52.05 18.3 51.5 20.0 51.5 L22.3 51.75 Q23.35 52.05 24.05 52.55 24.85 52.9 25.2 53.55 25.35 52.8 26.05 52.3 L25.95 52.35 Q26.3 51.95 26.8 51.85 L26.8 51.25 26.85 50.05 Q26.95 49.4 27.2 48.85 27.5 48.35 28.05 48.05 L28.15 47.95 28.25 47.95 Q28.7 47.6 29.5 47.6 30.45 47.6 31.25 48.35 L31.3 48.4 Q31.85 48.9 32.05 49.65 L32.15 51.0 M25.15 60.55 Q25.15 59.75 24.8 59.15 L23.5 58.05 21.35 57.3 19.55 56.85 18.6 56.4 Q18.15 56.1 18.15 55.7 18.15 55.15 18.7 54.85 19.2 54.5 20.0 54.5 20.7 54.5 21.15 54.8 21.65 55.0 21.95 55.45 L22.6 56.15 23.35 56.4 24.3 56.1 24.65 55.3 24.3 54.4 Q24.05 53.9 23.4 53.55 L21.95 52.9 20.0 52.7 Q18.6 52.7 17.6 53.2 16.55 53.6 16.1 54.35 15.55 55.15 15.55 55.95 15.55 56.95 16.15 57.6 L17.6 58.65 20.0 59.4 21.85 60.05 Q22.4 60.4 22.4 61.15 22.4 61.65 21.85 62.0 21.35 62.4 20.45 62.4 19.4 62.4 18.8 62.0 18.2 61.65 17.8 60.9 L17.3 60.3 16.6 60.05 Q16.15 60.05 15.75 60.35 15.45 60.75 15.45 61.2 15.45 61.9 15.95 62.6 L17.55 63.75 Q18.65 64.25 20.2 64.25 L22.9 63.8 Q24.05 63.4 24.6 62.55 25.15 61.7 25.15 60.55 M19.7 60.55 L18.85 60.35 19.45 61.0 20.45 61.15 21.1 61.1 19.7 60.55 M11.3 59.15 L13.05 58.85 Q13.65 58.55 13.65 57.45 13.65 56.35 13.05 55.15 12.4 54.1 11.3 53.35 10.1 52.65 8.45 52.65 7.1 52.65 6.1 53.1 5.05 53.5 4.35 54.25 3.6 55.05 3.2 56.1 2.85 57.2 2.85 58.45 2.85 61.15 4.4 62.7 5.9 64.25 8.6 64.25 L10.8 63.95 12.3 63.15 13.2 62.15 13.45 61.2 13.2 60.55 12.45 60.35 11.85 60.55 11.0 61.3 10.25 61.85 9.5 62.25 8.6 62.35 Q7.8 62.35 7.15 61.95 6.5 61.6 6.15 60.85 5.75 60.15 5.75 59.15 L11.3 59.15 M10.2 60.4 L10.2 60.35 7.3 60.35 7.8 60.9 7.8 60.95 8.6 61.15 9.25 61.1 9.55 60.9 9.65 60.85 10.2 60.4 M14.05 59.7 L14.45 60.2 14.85 59.6 14.95 59.5 Q15.3 59.1 15.75 58.95 L15.2 58.35 14.85 57.95 Q14.75 59.1 14.0 59.65 L14.05 59.7 M-3.95 52.95 Q-4.6 52.95 -4.95 53.25 -5.35 53.55 -5.35 53.95 L-5.0 54.75 -4.05 55.0 -3.7 55.0 -3.7 60.45 -3.45 62.55 Q-3.2 63.4 -2.55 63.75 -1.9 64.25 -0.55 64.25 L1.6 63.85 Q2.35 63.5 2.35 62.8 L2.1 62.15 Q1.8 61.85 1.5 61.85 L0.8 61.95 0.1 62.05 -0.55 61.8 -0.75 61.2 -0.8 60.2 -0.8 55.0 -0.3 55.0 0.95 54.8 Q1.45 54.5 1.45 53.95 L1.15 53.25 Q0.8 52.95 0.2 52.95 L-0.8 52.95 -0.8 51.0 -0.9 49.9 Q-0.95 49.5 -1.25 49.25 -1.7 48.8 -2.25 48.8 L-2.95 49.05 -3.45 49.5 -3.65 50.2 -3.7 51.25 -3.7 52.95 -3.95 52.95 M5.75 57.55 Q5.9 56.1 6.6 55.4 7.3 54.65 8.3 54.65 9.45 54.65 10.15 55.4 10.85 56.1 10.85 57.55 L5.75 57.55 M1.5 60.6 L1.9 60.65 Q1.6 59.6 1.6 58.45 1.6 57.0 2.1 55.7 L2.25 55.4 1.6 55.85 0.4 56.2 0.4 60.2 0.45 60.8 0.55 60.8 1.5 60.6 M9.3 56.35 L9.25 56.25 9.25 56.2 Q8.9 55.85 8.3 55.85 7.8 55.85 7.5 56.25 L7.4 56.35 9.3 56.35 M72.1 58.45 Q72.1 57.35 72.45 56.5 72.8 55.7 73.4 55.25 74.0 54.8 74.8 54.8 75.5 54.8 76.15 55.25 76.75 55.7 77.15 56.45 77.55 57.3 77.55 58.45 77.55 59.6 77.15 60.45 76.75 61.25 76.15 61.65 75.55 62.05 74.8 62.05 L73.45 61.65 72.45 60.4 Q72.1 59.6 72.1 58.45 M73.6 57.05 Q73.3 57.65 73.3 58.45 73.3 59.3 73.6 59.9 L74.15 60.6 74.8 60.85 75.5 60.6 75.55 60.6 76.05 59.95 76.3 58.45 76.05 57.05 75.5 56.3 75.45 56.3 Q75.15 56.05 74.8 56.05 L74.15 56.25 73.6 57.0 73.6 57.05 M59.2 54.25 Q59.2 53.55 58.9 53.15 58.45 52.7 57.9 52.7 57.3 52.7 56.9 53.1 56.55 53.5 56.55 54.3 L56.55 66.55 Q56.55 67.5 56.8 68.0 57.05 68.45 57.9 68.45 59.2 68.45 59.2 66.55 L59.2 62.3 60.8 63.7 Q61.6 64.25 62.85 64.25 L64.7 63.85 Q65.6 63.45 66.2 62.7 L67.25 60.85 Q67.6 59.75 67.6 58.45 67.6 56.7 67.0 55.4 66.35 54.1 65.25 53.4 64.15 52.7 62.85 52.7 61.75 52.7 60.85 53.2 60.0 53.65 59.2 54.65 L59.2 54.25 M64.8 58.4 Q64.8 59.6 64.4 60.4 L63.45 61.65 Q62.85 62.05 62.1 62.05 60.95 62.05 60.15 61.15 59.35 60.2 59.35 58.45 59.35 56.7 60.15 55.75 60.95 54.8 62.1 54.8 62.85 54.8 63.5 55.25 64.1 55.7 64.4 56.45 64.8 57.3 64.8 58.4 M63.6 58.4 L63.35 57.05 63.3 56.95 62.85 56.3 62.8 56.25 62.1 56.05 Q61.5 56.05 61.1 56.5 L61.1 56.55 Q60.55 57.25 60.55 58.45 60.55 59.6 61.1 60.35 61.5 60.85 62.1 60.85 L62.8 60.6 63.35 59.9 63.6 58.4 M-9.85 58.55 L-9.85 58.95 Q-9.85 60.4 -10.15 61.1 L-11.2 62.0 Q-11.95 62.4 -12.75 62.4 -13.6 62.4 -14.05 61.9 -14.6 61.5 -14.6 60.85 -14.6 60.2 -14.1 59.85 L-13.25 59.4 -11.6 59.0 -9.85 58.55 M-9.6 62.65 L-8.7 63.8 -7.85 64.25 Q-7.3 64.25 -6.95 63.9 -6.5 63.5 -6.5 63.1 L-6.75 61.95 -7.0 60.3 -7.0 58.75 -7.0 57.05 Q-7.0 55.45 -7.45 54.5 -7.9 53.55 -8.95 53.15 -10.05 52.65 -11.9 52.65 -13.6 52.65 -14.7 53.15 -15.85 53.55 -16.35 54.3 -16.9 55.0 -16.9 55.75 L-16.55 56.5 Q-16.2 56.85 -15.7 56.85 -15.2 56.85 -15.0 56.65 L-14.5 55.85 -13.55 54.95 -11.9 54.65 Q-10.65 54.65 -10.2 55.15 -9.85 55.7 -9.85 56.8 L-11.45 57.25 -13.3 57.7 -14.65 58.0 Q-15.9 58.25 -16.65 59.05 -17.4 59.9 -17.4 61.05 L-16.95 62.65 -15.65 63.8 -13.75 64.25 -11.6 63.85 Q-10.65 63.45 -9.6 62.65 M-26.4 50.35 Q-26.4 49.4 -26.85 48.95 -27.3 48.45 -28.0 48.45 -28.65 48.45 -29.05 48.95 -29.5 49.4 -29.5 50.35 L-29.5 62.1 Q-29.5 63.1 -29.05 63.5 -28.65 64.0 -27.65 64.0 L-20.15 64.0 Q-19.4 64.0 -19.0 63.65 -18.6 63.3 -18.6 62.7 -18.6 62.15 -19.0 61.8 -19.4 61.45 -20.15 61.45 L-26.4 61.45 -26.4 50.35 M-11.2 55.95 L-11.15 55.95 -11.2 55.85 -11.2 55.95 -11.9 55.85 -12.9 56.05 -13.0 56.1 -13.35 56.45 -11.75 56.1 -11.7 56.1 -11.2 55.95 M-12.95 60.55 L-13.35 60.8 -13.35 60.85 -13.2 61.05 -12.75 61.15 -11.75 60.9 -11.75 60.95 -11.25 60.45 -11.25 60.5 -11.15 60.2 -11.4 60.25 -12.95 60.55" fill="#05172a" fill-rule="evenodd" stroke="none"/>
    <path d="M57.9 -55.9 Q58.5 -52.4 56.55 -50.95 L57.2 -50.65 Q58.65 -49.95 58.95 -48.1 59.2 -46.9 58.6 -45.15 L58.55 -45.1 Q58.0 -43.7 56.7 -42.2 L56.7 -42.15 Q55.4 -40.8 53.35 -39.6 51.3 -38.55 48.55 -38.05 42.1 -36.9 37.9 -40.0 33.55 -43.05 32.45 -49.3 31.95 -52.2 32.45 -54.85 L32.4 -54.85 Q32.85 -57.55 34.25 -59.75 35.7 -61.9 38.05 -63.3 40.35 -64.75 43.35 -65.25 47.3 -66.0 50.4 -64.8 L50.35 -64.75 Q53.65 -63.6 55.5 -61.1 L55.45 -61.15 Q57.4 -58.75 57.9 -55.9 M42.5 -56.1 L42.0 -54.85 47.85 -55.85 46.95 -56.95 46.9 -56.95 Q45.9 -57.7 44.5 -57.45 43.15 -57.2 42.5 -56.15 L42.5 -56.1 M15.65 -59.15 Q17.5 -60.65 20.1 -61.1 L25.3 -60.8 25.25 -60.8 Q27.7 -60.0 29.25 -57.9 L29.3 -57.85 Q30.45 -56.2 31.15 -52.3 L33.15 -41.0 Q33.6 -38.3 32.6 -36.75 L32.55 -36.7 Q31.45 -35.0 29.2 -34.65 27.15 -34.25 25.5 -35.45 L25.5 -35.5 Q23.85 -36.6 23.4 -39.25 L21.65 -49.0 21.1 -51.75 21.1 -51.65 20.55 -52.55 19.8 -52.55 18.8 -51.95 18.75 -51.9 Q18.2 -51.45 17.95 -50.75 17.75 -49.35 18.3 -46.3 L19.65 -38.6 Q20.1 -35.9 19.05 -34.4 L19.0 -34.3 Q17.9 -32.65 15.7 -32.25 13.55 -31.85 12.0 -33.1 L11.95 -33.1 Q10.35 -34.2 9.9 -36.9 L8.25 -46.1 7.65 -49.2 Q7.45 -49.85 7.1 -50.1 L7.05 -50.15 6.4 -50.2 Q4.95 -49.95 4.55 -48.95 L4.5 -48.9 Q4.05 -47.1 4.6 -44.05 L6.0 -36.2 Q6.45 -33.6 5.5 -32.05 L5.45 -31.95 Q4.35 -30.25 2.1 -29.85 0.05 -29.45 -1.65 -30.65 L-1.65 -30.7 Q-3.25 -31.85 -3.7 -34.5 L-6.65 -51.05 Q-7.05 -53.5 -6.1 -54.95 -5.0 -56.65 -2.95 -57.05 -1.0 -57.4 0.6 -56.35 L0.65 -56.3 1.2 -55.8 2.4 -56.9 2.45 -56.9 Q4.35 -58.35 6.85 -58.8 L11.8 -58.45 11.75 -58.45 Q12.85 -58.15 13.85 -57.45 L15.7 -59.2 15.65 -59.15 M16.9 -8.15 Q16.7 -7.05 16.9 -5.45 17.0 -3.7 17.45 -1.2 L18.3 3.7 Q18.75 6.25 17.75 7.85 L17.7 7.95 Q16.5 9.55 14.45 9.9 12.4 10.25 10.8 9.05 L10.75 9.0 Q9.2 7.9 8.75 5.4 L5.9 -10.75 Q4.85 -16.75 9.6 -17.35 12.0 -17.75 13.35 -16.45 L13.5 -16.7 Q14.85 -18.25 17.4 -18.7 L22.05 -18.35 Q25.1 -17.4 25.45 -14.8 25.8 -12.9 24.7 -11.45 23.55 -9.95 22.0 -9.75 L19.85 -9.8 19.8 -9.8 18.15 -9.9 Q17.65 -9.8 17.4 -9.5 L17.35 -9.4 16.9 -8.25 16.9 -8.15 M36.25 -22.1 Q38.85 -22.55 41.15 -22.2 L41.2 -22.15 Q43.45 -21.8 45.2 -20.8 47.1 -19.85 48.15 -18.5 49.45 -17.05 49.65 -15.55 49.95 -13.75 48.9 -12.2 47.75 -10.75 45.9 -10.4 44.4 -10.15 43.45 -10.75 L41.65 -12.2 41.65 -12.15 39.6 -13.75 37.6 -13.9 Q36.0 -13.6 35.25 -12.1 34.35 -10.3 34.8 -7.6 35.05 -6.3 35.55 -5.25 L35.6 -5.2 Q36.1 -4.25 36.75 -3.65 37.3 -3.1 38.1 -2.95 L39.65 -2.9 Q40.8 -3.1 41.55 -3.8 L41.55 -3.75 Q42.25 -4.5 42.75 -5.75 43.25 -7.3 44.0 -8.1 44.9 -9.35 46.5 -9.65 48.4 -9.95 49.95 -8.7 51.4 -7.55 51.65 -6.0 51.95 -4.5 51.4 -2.7 L51.35 -2.65 Q50.85 -1.0 49.5 0.7 48.15 2.3 45.9 3.5 43.75 4.7 40.9 5.2 34.6 6.3 30.55 3.25 L30.5 3.25 Q26.35 0.25 25.25 -5.9 24.55 -9.9 25.55 -13.25 26.65 -16.8 29.45 -19.1 32.1 -21.35 36.25 -22.1 M53.75 -1.3 Q52.2 -3.1 51.8 -5.35 51.25 -8.4 52.9 -10.95 L52.9 -11.0 Q53.55 -12.05 54.45 -12.9 53.6 -13.05 52.85 -13.5 L52.8 -13.55 Q51.25 -14.55 50.95 -16.3 50.6 -18.45 51.7 -20.65 L51.75 -20.65 Q52.65 -22.75 55.3 -24.4 L55.35 -24.4 Q57.7 -25.9 61.5 -26.6 65.8 -27.35 68.45 -26.7 71.5 -26.05 73.15 -23.7 L73.25 -23.65 Q74.7 -21.6 75.35 -17.9 L75.95 -14.45 75.95 -14.35 76.45 -11.25 Q76.7 -9.9 77.4 -8.45 L77.35 -8.5 78.55 -5.8 Q78.95 -4.15 77.6 -2.45 L77.55 -2.45 Q76.35 -1.05 74.65 -0.75 73.1 -0.35 71.4 -1.45 L71.3 -1.5 70.1 -2.45 67.6 -0.5 67.6 -0.45 Q65.4 0.9 62.6 1.4 L57.6 1.2 Q55.2 0.45 53.75 -1.3 M50.55 -47.9 L51.55 -49.2 43.05 -47.7 43.5 -47.05 43.5 -47.0 Q44.15 -46.15 45.1 -45.75 L47.0 -45.6 48.45 -46.05 49.5 -46.75 50.55 -47.9 M59.6 -16.5 L59.05 -15.4 60.1 -15.8 60.15 -15.8 63.75 -17.25 65.35 -18.0 64.9 -18.75 62.9 -18.8 Q61.3 -18.5 60.6 -18.0 L60.55 -18.0 Q59.95 -17.45 59.6 -16.6 L59.6 -16.5 M66.65 -8.9 L66.75 -10.65 65.5 -10.1 62.35 -8.8 61.4 -8.05 61.3 -7.45 Q61.4 -6.95 61.85 -6.65 L61.9 -6.65 63.2 -6.5 Q64.5 -6.75 65.5 -7.45 L66.65 -8.9 M76.55 -15.35 Q75.45 -21.6 77.95 -25.6 80.5 -29.85 85.7 -30.8 L90.9 -30.6 91.0 -30.55 91.6 -30.4 90.8 -34.9 Q90.35 -37.4 91.2 -38.9 92.1 -40.85 94.45 -41.25 96.7 -41.65 98.2 -40.3 99.55 -39.3 99.95 -36.9 L104.5 -11.4 Q104.9 -8.9 103.95 -7.35 L103.9 -7.3 Q102.85 -5.75 100.8 -5.35 98.75 -5.0 97.25 -6.2 L97.2 -6.2 96.6 -6.75 96.55 -6.75 93.8 -4.65 Q92.25 -3.85 90.4 -3.55 L85.6 -3.75 85.55 -3.75 Q83.2 -4.4 81.35 -6.1 L81.3 -6.15 Q79.45 -7.8 78.25 -10.2 77.05 -12.55 76.55 -15.35 M109.55 -34.05 Q111.8 -35.45 114.75 -36.0 118.7 -36.7 121.85 -35.5 L121.8 -35.5 Q125.05 -34.3 127.0 -31.8 L126.95 -31.85 Q128.85 -29.45 129.35 -26.6 130.0 -23.1 127.95 -21.65 L128.7 -21.4 Q130.05 -20.65 130.4 -18.8 130.65 -17.6 130.05 -15.85 L130.0 -15.8 Q129.4 -14.4 128.15 -12.95 L128.15 -12.9 Q126.9 -11.5 124.8 -10.35 122.75 -9.25 120.0 -8.75 113.55 -7.6 109.4 -10.7 105.05 -13.75 103.95 -20.0 103.4 -22.9 103.95 -25.55 L103.9 -25.55 Q104.35 -28.25 105.75 -30.45 107.15 -32.65 109.55 -34.05 M113.95 -26.8 L113.45 -25.55 119.3 -26.6 118.4 -27.65 118.35 -27.65 Q117.35 -28.4 115.95 -28.15 114.65 -27.9 114.0 -26.9 L113.95 -26.8 M86.15 -20.15 Q85.8 -18.65 86.15 -16.85 86.45 -15.0 87.35 -13.7 88.0 -12.75 88.9 -12.3 L90.75 -12.1 Q91.7 -12.25 92.45 -12.85 93.15 -13.6 93.45 -14.7 93.85 -16.2 93.5 -18.15 93.15 -20.0 92.3 -21.25 91.6 -22.3 90.65 -22.75 89.7 -23.2 88.75 -23.05 87.8 -22.85 87.2 -22.15 L87.05 -22.05 Q86.35 -21.4 86.2 -20.2 L86.15 -20.15 M121.95 -18.6 L123.0 -19.9 114.5 -18.4 115.0 -17.75 115.0 -17.7 Q115.65 -16.85 116.55 -16.45 L118.5 -16.35 119.95 -16.75 121.0 -17.45 121.95 -18.6 M118.55 9.25 Q119.15 8.3 120.35 7.9 L120.05 6.25 119.7 3.85 119.75 3.75 Q119.6 2.5 120.05 1.55 120.4 0.5 121.4 -0.35 L121.45 -0.35 Q122.3 -1.2 123.65 -1.4 125.45 -1.8 127.15 -0.75 L127.25 -0.65 Q128.3 0.15 128.85 1.4 L128.9 1.45 129.55 4.05 129.9 6.1 130.15 6.05 Q132.15 5.7 133.45 6.55 L133.5 6.6 Q134.95 7.45 135.25 9.2 135.65 11.6 133.9 12.9 133.0 13.6 131.3 14.05 L132.85 22.8 133.25 24.6 134.25 24.3 134.35 24.3 135.9 23.8 137.9 24.0 Q136.5 21.7 135.95 18.55 135.45 15.65 135.95 12.95 L135.9 12.95 Q136.35 10.25 137.8 8.1 139.2 5.9 141.6 4.5 143.85 3.05 146.8 2.55 150.8 1.85 153.9 3.05 L153.85 3.05 Q157.15 4.2 159.05 6.7 L159.0 6.7 Q160.9 9.1 161.4 11.9 162.0 15.4 160.05 16.85 L160.75 17.15 Q162.15 17.9 162.45 19.75 162.75 20.95 162.1 22.75 L162.1 22.8 160.2 25.65 160.2 25.7 156.85 28.2 Q154.85 29.3 152.1 29.75 145.65 30.9 141.4 27.85 L140.3 26.95 Q140.85 29.5 138.4 31.25 L138.4 31.3 Q136.7 32.5 133.4 33.05 L128.0 32.85 128.05 32.8 Q125.75 31.9 124.75 29.6 123.9 27.9 123.4 24.95 L121.75 15.65 Q120.45 15.65 119.55 15.05 L119.5 15.0 Q118.05 14.1 117.75 12.3 117.45 10.55 118.55 9.25 M161.0 8.9 Q160.6 6.6 161.65 4.3 162.55 2.2 164.9 0.55 L164.95 0.5 Q167.1 -1.0 170.4 -1.6 L174.95 -1.85 175.0 -1.8 Q177.2 -1.7 178.8 -0.95 L178.85 -0.95 Q180.55 -0.2 181.55 0.9 182.8 2.15 183.0 3.6 183.3 5.35 182.35 6.85 L182.25 6.9 Q181.65 7.8 180.5 8.25 182.8 8.95 184.1 10.35 185.6 11.8 186.0 14.05 186.55 17.1 185.45 19.55 L185.45 19.5 Q184.4 21.9 181.75 23.55 L181.7 23.6 Q179.3 24.95 175.7 25.6 172.15 26.2 169.45 25.6 166.45 24.9 164.85 23.4 L164.8 23.3 Q162.95 21.55 162.65 19.6 162.35 17.8 163.4 16.4 164.3 15.0 166.0 14.65 164.5 14.05 163.4 13.15 L163.35 13.15 Q161.5 11.55 161.0 8.9 M171.6 7.0 L175.3 7.3 174.45 6.6 173.35 5.95 173.25 5.9 171.75 5.85 Q170.75 6.05 170.2 6.55 L170.05 6.65 171.6 7.0 M176.5 16.45 L173.1 15.85 169.6 15.5 170.65 16.6 Q171.45 17.55 172.5 18.0 173.4 18.25 174.9 18.0 176.0 17.8 176.6 17.3 L176.6 17.35 176.85 17.0 176.6 16.45 176.5 16.45 M150.45 10.85 Q149.45 10.1 148.05 10.35 146.7 10.6 146.05 11.65 L146.0 11.7 145.5 13.0 151.35 11.95 150.5 10.85 150.45 10.85 M154.05 19.95 L155.05 18.6 146.55 20.1 147.05 20.75 147.05 20.8 Q147.65 21.7 148.6 22.05 L150.55 22.25 151.95 21.85 153.0 21.1 154.05 19.95 M119.1 16.0 Q120.4 18.3 120.9 21.25 121.45 24.2 121.0 26.8 120.5 29.5 119.0 31.75 117.55 33.9 115.2 35.35 L115.15 35.35 Q112.95 36.7 109.95 37.2 106.9 37.75 104.25 37.25 101.65 36.65 99.55 35.1 97.4 33.55 96.05 31.2 94.65 28.95 94.1 26.0 93.6 22.95 94.1 20.3 94.6 17.6 96.1 15.5 97.45 13.3 99.85 11.9 102.1 10.5 105.1 9.95 108.05 9.45 110.75 10.0 113.4 10.55 115.55 12.1 117.7 13.55 119.1 15.95 L119.1 16.0 M111.3 22.95 Q110.85 20.15 109.45 18.75 L109.45 18.8 Q108.25 17.7 106.55 18.0 105.45 18.2 104.7 18.9 103.95 19.65 103.7 20.95 103.35 22.4 103.65 24.3 104.0 26.15 104.85 27.45 L104.9 27.5 Q105.5 28.5 106.45 28.95 L106.45 29.0 108.5 29.15 Q110.2 28.85 111.0 27.45 L111.0 27.5 Q111.8 25.7 111.3 22.95 M70.3 10.45 L71.5 11.8 71.5 11.75 82.4 23.3 80.25 11.15 Q79.75 8.4 80.9 6.95 81.9 5.25 84.05 4.8 86.3 4.4 87.8 5.75 89.35 6.7 89.85 9.45 L94.2 33.9 Q95.25 39.95 89.95 40.75 L87.7 40.8 87.75 40.8 Q86.6 40.6 85.6 40.0 L84.0 38.8 83.9 38.6 82.75 37.5 82.7 37.4 72.05 26.05 74.15 37.9 Q74.65 40.55 73.5 42.1 L73.45 42.15 Q72.45 43.85 70.3 44.2 68.05 44.6 66.45 43.35 L66.45 43.3 Q64.9 42.15 64.45 39.6 L60.2 15.65 Q59.85 13.65 60.2 12.55 L60.15 12.5 Q60.45 10.9 61.75 9.75 63.05 8.55 64.7 8.25 L67.0 8.3 67.05 8.3 Q68.0 8.6 68.8 9.15 L70.25 10.4 70.3 10.45 M-16.45 -20.85 L-16.35 -20.9 Q-15.3 -21.85 -13.5 -22.2 L-10.25 -22.0 Q-8.85 -21.5 -7.85 -20.5 L-7.75 -20.4 -6.35 -18.6 -6.3 -18.55 -5.05 -16.35 -5.0 -16.3 6.6 2.2 6.6 2.25 Q8.3 4.75 8.45 6.05 8.85 7.9 7.65 9.65 L7.6 9.65 Q6.35 11.35 4.35 11.7 3.1 11.9 2.25 11.7 L2.15 11.65 Q1.15 11.35 0.4 10.7 L-0.85 9.05 -1.95 7.45 -2.0 7.35 -3.45 4.9 -13.5 6.7 -14.0 9.55 Q-14.6 12.5 -15.15 13.6 -15.95 15.25 -18.45 15.7 -20.35 16.05 -22.0 14.95 L-22.05 14.95 Q-23.85 13.75 -24.15 11.85 L-24.15 10.0 -24.15 9.85 -23.75 7.8 -19.4 -13.7 -19.4 -13.75 -18.9 -15.95 -18.9 -16.0 -18.1 -18.6 -18.1 -18.7 Q-17.6 -19.9 -16.45 -20.85 M-19.8 -46.15 Q-19.35 -44.85 -19.0 -42.75 L-17.1 -31.95 Q-16.65 -29.4 -17.65 -27.9 -18.8 -26.15 -20.9 -25.75 -23.05 -25.4 -24.65 -26.65 -26.15 -27.75 -26.6 -30.3 L-28.3 -40.0 Q-28.7 -42.25 -29.5 -43.35 L-31.1 -43.6 Q-32.05 -43.45 -32.7 -42.75 L-32.75 -42.7 Q-33.45 -41.95 -33.6 -40.9 L-33.6 -40.85 Q-33.75 -39.65 -33.2 -36.65 L-31.95 -29.35 Q-31.5 -26.8 -32.5 -25.2 L-32.55 -25.15 Q-33.65 -23.5 -35.8 -23.15 -37.9 -22.75 -39.5 -24.05 -41.05 -25.1 -41.5 -27.65 L-44.45 -44.4 Q-44.9 -46.9 -43.9 -48.3 -42.95 -49.95 -40.75 -50.35 L-38.4 -50.2 -38.3 -50.2 Q-37.35 -49.8 -36.6 -49.0 L-35.3 -50.1 Q-33.4 -51.65 -30.5 -52.15 L-25.3 -51.8 -25.35 -51.8 Q-22.75 -50.95 -21.2 -48.85 -20.2 -47.6 -19.8 -46.05 L-19.8 -46.15 M-17.4 -53.0 L-16.35 -54.15 Q-16.95 -54.25 -17.4 -54.6 L-17.45 -54.65 Q-19.2 -55.55 -19.6 -57.9 -19.95 -59.95 -18.65 -61.55 -17.5 -63.1 -15.65 -63.4 -13.85 -63.75 -12.25 -62.85 L-12.15 -62.8 Q-10.45 -61.95 -10.05 -59.6 -9.65 -57.25 -10.9 -55.8 L-11.8 -54.9 -10.5 -54.2 -10.5 -54.25 Q-8.95 -53.2 -8.5 -50.75 L-5.55 -34.0 Q-5.1 -31.5 -6.15 -29.9 L-6.2 -29.85 Q-7.3 -28.2 -9.4 -27.8 -11.55 -27.45 -13.15 -28.7 -14.65 -29.75 -15.1 -32.3 L-18.0 -48.85 Q-18.5 -51.5 -17.4 -53.0 M-56.4 -51.6 L-55.15 -49.4 -55.05 -49.4 -43.5 -30.85 -43.5 -30.8 Q-41.8 -28.3 -41.65 -27.0 -41.25 -25.15 -42.45 -23.4 L-42.5 -23.4 Q-43.8 -21.75 -45.75 -21.4 L-47.85 -21.35 -47.95 -21.4 -49.7 -22.4 -51.0 -24.0 -52.05 -25.65 -52.1 -25.7 -53.55 -28.15 -63.6 -26.35 -64.1 -23.5 Q-64.65 -20.55 -65.25 -19.5 -66.05 -17.8 -68.55 -17.35 -70.45 -17.0 -72.15 -18.1 L-72.2 -18.1 Q-73.95 -19.35 -74.2 -21.2 L-74.25 -23.05 -74.2 -23.2 -73.85 -25.3 -69.5 -46.8 -69.5 -46.85 -69.05 -49.05 -69.05 -49.1 -68.2 -51.65 -68.15 -51.75 Q-67.6 -53.0 -66.5 -53.9 L-66.45 -53.9 Q-65.4 -54.95 -63.6 -55.25 L-60.35 -55.0 Q-59.0 -54.55 -57.95 -53.55 L-57.9 -53.45 Q-57.05 -52.7 -56.45 -51.65 L-56.4 -51.6 M-58.2 -36.1 L-61.1 -41.2 -62.1 -35.4 -58.2 -36.1 M-8.1 -3.05 L-11.0 -8.15 -12.0 -2.35 -8.1 -3.05" fill="#000000" fill-rule="evenodd" stroke="none"/>
    <path d="M96.05 52.95 L96.3 52.95 96.3 51.25 96.35 50.2 96.55 49.5 97.05 49.05 Q97.35 48.8 97.7 48.8 98.3 48.8 98.7 49.25 L99.1 49.9 99.2 51.0 99.2 52.95 100.2 52.95 Q100.85 52.95 101.15 53.25 L101.45 53.95 Q101.45 54.5 100.95 54.8 L99.65 55.0 99.2 55.0 99.2 60.2 99.25 61.2 99.45 61.8 100.1 62.05 100.8 61.95 101.5 61.85 Q101.8 61.85 102.1 62.15 L102.35 62.8 Q102.35 63.5 101.6 63.85 L99.45 64.25 Q98.1 64.25 97.4 63.75 96.75 63.4 96.55 62.55 96.3 61.8 96.3 60.45 L96.3 55.0 95.95 55.0 95.0 54.75 Q94.65 54.4 94.65 53.95 94.65 53.55 95.05 53.25 95.4 52.95 96.05 52.95 M111.3 59.15 L105.75 59.15 Q105.75 60.15 106.15 60.85 106.5 61.6 107.15 61.95 107.8 62.35 108.55 62.35 L109.5 62.25 110.25 61.85 111.0 61.3 111.85 60.55 Q112.1 60.35 112.45 60.35 L113.25 60.55 113.45 61.2 113.2 62.15 112.3 63.15 110.75 63.95 108.6 64.25 Q105.9 64.25 104.4 62.7 102.85 61.15 102.85 58.45 102.85 57.2 103.2 56.1 103.6 55.05 104.35 54.25 105.0 53.5 106.1 53.1 L108.45 52.65 Q110.1 52.65 111.3 53.35 112.45 54.1 113.05 55.15 113.6 56.35 113.6 57.45 113.6 58.55 113.0 58.85 L111.3 59.15 M105.75 57.55 L110.9 57.55 Q110.8 56.1 110.1 55.4 109.45 54.65 108.3 54.65 107.25 54.65 106.6 55.4 105.9 56.1 105.75 57.55 M90.4 62.65 L88.45 63.85 86.25 64.25 Q85.15 64.25 84.35 63.8 L83.05 62.65 Q82.6 61.9 82.6 61.05 82.6 59.9 83.35 59.05 84.05 58.25 85.3 58.0 L86.7 57.7 88.5 57.25 90.15 56.8 Q90.1 55.7 89.75 55.15 89.35 54.65 88.1 54.65 L86.45 54.95 85.5 55.85 85.0 56.65 84.3 56.85 Q83.75 56.85 83.45 56.5 83.05 56.25 83.05 55.75 83.05 55.0 83.65 54.3 84.15 53.55 85.3 53.15 86.4 52.65 88.1 52.65 89.95 52.65 91.0 53.15 92.1 53.55 92.55 54.5 92.95 55.45 92.95 57.05 L92.95 58.75 92.95 60.3 Q92.95 61.15 93.25 61.95 L93.5 63.1 93.05 63.9 Q92.65 64.25 92.15 64.25 91.65 64.25 91.3 63.8 L90.4 62.65 M90.15 58.55 L88.4 59.0 86.75 59.4 Q86.25 59.55 85.9 59.85 85.4 60.2 85.4 60.85 85.4 61.5 85.95 61.9 86.4 62.4 87.2 62.4 L88.8 62.0 Q89.45 61.65 89.8 61.1 90.15 60.4 90.15 58.95 L90.15 58.55 M40.65 57.7 L40.65 50.35 Q40.65 49.4 41.1 48.95 41.5 48.45 42.15 48.45 42.9 48.45 43.3 48.95 43.75 49.4 43.75 50.35 L43.75 57.85 Q43.75 59.1 44.05 60.0 44.3 60.85 45.0 61.3 45.8 61.8 47.1 61.8 48.9 61.8 49.65 60.85 50.4 59.85 50.4 57.95 L50.4 50.35 Q50.4 49.4 50.8 48.95 51.2 48.45 51.9 48.45 52.6 48.45 53.05 48.95 53.45 49.4 53.45 50.35 L53.45 57.7 53.15 60.65 Q52.75 61.85 51.85 62.75 L49.85 63.9 47.3 64.25 44.25 63.85 42.2 62.7 Q41.4 61.9 41.05 60.65 40.65 59.4 40.65 57.7 M77.65 62.65 L77.65 62.35 76.55 63.4 Q76.05 63.8 75.35 64.05 L73.9 64.25 Q72.9 64.25 72.05 63.8 L70.55 62.6 Q69.9 61.8 69.6 60.7 69.25 59.6 69.25 58.35 69.25 55.7 70.6 54.2 71.85 52.7 73.95 52.7 75.2 52.7 76.05 53.15 76.85 53.55 77.65 54.45 L77.65 50.3 Q77.65 49.4 78.0 48.9 78.35 48.45 79.0 48.45 79.65 48.45 80.0 48.9 80.35 49.3 80.35 50.1 L80.35 62.65 Q80.35 63.45 79.95 63.8 79.6 64.25 79.0 64.25 78.4 64.25 78.05 63.8 77.65 63.4 77.65 62.65 M27.75 52.95 L28.0 52.95 28.0 51.25 28.05 50.2 Q28.1 49.75 28.3 49.5 28.45 49.2 28.75 49.05 29.05 48.8 29.5 48.8 30.0 48.8 30.45 49.25 L30.85 49.9 30.9 51.0 30.9 52.95 31.9 52.95 Q32.55 52.95 32.85 53.25 L33.15 53.95 Q33.15 54.5 32.7 54.8 L31.4 55.0 30.9 55.0 30.9 60.2 30.95 61.2 Q31.0 61.6 31.2 61.8 L31.85 62.05 32.5 61.95 33.2 61.85 Q33.5 61.85 33.8 62.15 L34.05 62.8 Q34.05 63.5 33.35 63.85 L31.2 64.25 Q29.85 64.25 29.15 63.75 28.5 63.4 28.3 62.55 28.0 61.8 28.0 60.45 L28.0 55.0 27.7 55.0 26.75 54.75 Q26.4 54.4 26.4 53.95 26.4 53.55 26.75 53.25 27.1 52.95 27.75 52.95 M25.15 60.55 Q25.15 61.7 24.6 62.55 24.05 63.4 22.9 63.8 L20.2 64.25 Q18.65 64.25 17.55 63.75 L15.95 62.6 Q15.45 61.9 15.45 61.2 15.45 60.75 15.75 60.35 16.15 60.05 16.6 60.05 L17.3 60.3 17.8 60.9 Q18.2 61.65 18.8 62.0 19.4 62.4 20.45 62.4 21.35 62.4 21.85 62.0 22.4 61.65 22.4 61.15 22.4 60.4 21.85 60.05 L20.0 59.4 17.6 58.65 16.15 57.6 Q15.55 56.95 15.55 55.95 15.55 55.15 16.1 54.35 16.55 53.6 17.6 53.2 18.6 52.7 20.0 52.7 L21.95 52.9 23.4 53.55 Q24.05 53.9 24.3 54.4 L24.65 55.3 24.3 56.1 23.35 56.4 22.6 56.15 21.95 55.45 Q21.65 55.0 21.15 54.8 20.7 54.5 20.0 54.5 19.2 54.5 18.7 54.85 18.15 55.15 18.15 55.7 18.15 56.1 18.6 56.4 L19.55 56.85 21.35 57.3 23.5 58.05 24.8 59.15 Q25.15 59.75 25.15 60.55 M11.3 59.15 L5.75 59.15 Q5.75 60.15 6.15 60.85 6.5 61.6 7.15 61.95 7.8 62.35 8.6 62.35 L9.5 62.25 10.25 61.85 11.0 61.3 11.85 60.55 12.45 60.35 13.2 60.55 13.45 61.2 13.2 62.15 12.3 63.15 10.8 63.95 8.6 64.25 Q5.9 64.25 4.4 62.7 2.85 61.15 2.85 58.45 2.85 57.2 3.2 56.1 3.6 55.05 4.35 54.25 5.05 53.5 6.1 53.1 7.1 52.65 8.45 52.65 10.1 52.65 11.3 53.35 12.4 54.1 13.05 55.15 13.65 56.35 13.65 57.45 13.65 58.55 13.05 58.85 L11.3 59.15 M5.75 57.55 L10.85 57.55 Q10.85 56.1 10.15 55.4 9.45 54.65 8.3 54.65 7.3 54.65 6.6 55.4 5.9 56.1 5.75 57.55 M-3.95 52.95 L-3.7 52.95 -3.7 51.25 -3.65 50.2 -3.45 49.5 -2.95 49.05 -2.25 48.8 Q-1.7 48.8 -1.25 49.25 -0.95 49.5 -0.9 49.9 L-0.8 51.0 -0.8 52.95 0.2 52.95 Q0.8 52.95 1.15 53.25 L1.45 53.95 Q1.45 54.5 0.95 54.8 L-0.3 55.0 -0.8 55.0 -0.8 60.2 -0.75 61.2 -0.55 61.8 0.1 62.05 0.8 61.95 1.5 61.85 Q1.8 61.85 2.1 62.15 L2.35 62.8 Q2.35 63.5 1.6 63.85 L-0.55 64.25 Q-1.9 64.25 -2.55 63.75 -3.2 63.4 -3.45 62.55 L-3.7 60.45 -3.7 55.0 -4.05 55.0 -5.0 54.75 -5.35 53.95 Q-5.35 53.55 -4.95 53.25 -4.6 52.95 -3.95 52.95 M72.1 58.45 Q72.1 59.6 72.45 60.4 L73.45 61.65 74.8 62.05 Q75.55 62.05 76.15 61.65 76.75 61.25 77.15 60.45 77.55 59.6 77.55 58.45 77.55 57.3 77.15 56.45 76.75 55.7 76.15 55.25 75.5 54.8 74.8 54.8 74.0 54.8 73.4 55.25 72.8 55.7 72.45 56.5 72.1 57.35 72.1 58.45 M64.8 58.4 Q64.8 57.3 64.4 56.45 64.1 55.7 63.5 55.25 62.85 54.8 62.1 54.8 60.95 54.8 60.15 55.75 59.35 56.7 59.35 58.45 59.35 60.2 60.15 61.15 60.95 62.05 62.1 62.05 62.85 62.05 63.45 61.65 L64.4 60.4 Q64.8 59.6 64.8 58.4 M59.2 54.25 L59.2 54.65 Q60.0 53.65 60.85 53.2 61.75 52.7 62.85 52.7 64.15 52.7 65.25 53.4 66.35 54.1 67.0 55.4 67.6 56.7 67.6 58.45 67.6 59.75 67.25 60.85 L66.2 62.7 Q65.6 63.45 64.7 63.85 L62.85 64.25 Q61.6 64.25 60.8 63.7 L59.2 62.3 59.2 66.55 Q59.2 68.45 57.9 68.45 57.05 68.45 56.8 68.0 56.55 67.5 56.55 66.55 L56.55 54.3 Q56.55 53.5 56.9 53.1 57.3 52.7 57.9 52.7 58.45 52.7 58.9 53.15 59.2 53.55 59.2 54.25 M-26.4 50.35 L-26.4 61.45 -20.15 61.45 Q-19.4 61.45 -19.0 61.8 -18.6 62.15 -18.6 62.7 -18.6 63.3 -19.0 63.65 -19.4 64.0 -20.15 64.0 L-27.65 64.0 Q-28.65 64.0 -29.05 63.5 -29.5 63.1 -29.5 62.1 L-29.5 50.35 Q-29.5 49.4 -29.05 48.95 -28.65 48.45 -28.0 48.45 -27.3 48.45 -26.85 48.95 -26.4 49.4 -26.4 50.35 M-9.6 62.65 Q-10.65 63.45 -11.6 63.85 L-13.75 64.25 -15.65 63.8 -16.95 62.65 -17.4 61.05 Q-17.4 59.9 -16.65 59.05 -15.9 58.25 -14.65 58.0 L-13.3 57.7 -11.45 57.25 -9.85 56.8 Q-9.85 55.7 -10.2 55.15 -10.65 54.65 -11.9 54.65 L-13.55 54.95 -14.5 55.85 -15.0 56.65 Q-15.2 56.85 -15.7 56.85 -16.2 56.85 -16.55 56.5 L-16.9 55.75 Q-16.9 55.0 -16.35 54.3 -15.85 53.55 -14.7 53.15 -13.6 52.65 -11.9 52.65 -10.05 52.65 -8.95 53.15 -7.9 53.55 -7.45 54.5 -7.0 55.45 -7.0 57.05 L-7.0 58.75 -7.0 60.3 -6.75 61.95 -6.5 63.1 Q-6.5 63.5 -6.95 63.9 -7.3 64.25 -7.85 64.25 L-8.7 63.8 -9.6 62.65 M-9.85 58.55 L-11.6 59.0 -13.25 59.4 -14.1 59.85 Q-14.6 60.2 -14.6 60.85 -14.6 61.5 -14.05 61.9 -13.6 62.4 -12.75 62.4 -11.95 62.4 -11.2 62.0 L-10.15 61.1 Q-9.85 60.4 -9.85 58.95 L-9.85 58.55" fill="#8afbff" fill-rule="evenodd" stroke="none"/>
  </g>
</svg>
