<?xml version="1.0" encoding="UTF-8" standalone="no"?>
<svg xmlns:xlink="http://www.w3.org/1999/xlink" height="152.5px" width="432.95px" xmlns="http://www.w3.org/2000/svg">
  <g transform="matrix(1.0, 0.0, 0.0, 1.0, 216.45, 76.25)">
    <path d="M96.05 52.95 L96.3 52.95 96.3 51.25 96.35 50.2 96.55 49.5 97.05 49.05 Q97.35 48.8 97.7 48.8 98.3 48.8 98.7 49.25 L99.1 49.9 99.2 51.0 99.2 52.95 100.2 52.95 Q100.85 52.95 101.15 53.25 L101.45 53.95 Q101.45 54.5 100.95 54.8 L99.65 55.0 99.2 55.0 99.2 60.2 99.25 61.2 99.45 61.8 100.1 62.05 100.8 61.95 101.5 61.85 Q101.8 61.85 102.1 62.15 L102.35 62.8 Q102.35 63.5 101.6 63.85 L99.45 64.25 Q98.1 64.25 97.4 63.75 96.75 63.4 96.55 62.55 96.3 61.8 96.3 60.45 L96.3 55.0 95.95 55.0 95.0 54.75 Q94.65 54.4 94.65 53.95 94.65 53.55 95.05 53.25 95.4 52.95 96.05 52.95 M111.3 59.15 L105.75 59.15 Q105.75 60.15 106.15 60.85 106.5 61.6 107.15 61.95 107.8 62.35 108.55 62.35 L109.5 62.25 110.25 61.85 111.0 61.3 111.85 60.55 Q112.1 60.35 112.45 60.35 L113.25 60.55 113.45 61.2 113.2 62.15 112.3 63.15 110.75 63.95 108.6 64.25 Q105.9 64.25 104.4 62.7 102.85 61.15 102.85 58.45 102.85 57.2 103.2 56.1 103.6 55.05 104.35 54.25 105.0 53.5 106.1 53.1 L108.45 52.65 Q110.1 52.65 111.3 53.35 112.45 54.1 113.05 55.15 113.6 56.35 113.6 57.45 113.6 58.55 113.0 58.85 L111.3 59.15 M105.75 57.55 L110.9 57.55 Q110.8 56.1 110.1 55.4 109.45 54.65 108.3 54.65 107.25 54.65 106.6 55.4 105.9 56.1 105.75 57.55 M90.4 62.65 L88.45 63.85 86.25 64.25 Q85.15 64.25 84.35 63.8 L83.05 62.65 Q82.6 61.9 82.6 61.05 82.6 59.9 83.35 59.05 84.05 58.25 85.3 58.0 L86.7 57.7 88.5 57.25 90.15 56.8 Q90.1 55.7 89.75 55.15 89.35 54.65 88.1 54.65 L86.45 54.95 85.5 55.85 85.0 56.65 84.3 56.85 Q83.75 56.85 83.45 56.5 83.05 56.25 83.05 55.75 83.05 55.0 83.65 54.3 84.15 53.55 85.3 53.15 86.4 52.65 88.1 52.65 89.95 52.65 91.0 53.15 92.1 53.55 92.55 54.5 92.95 55.45 92.95 57.05 L92.95 58.75 92.95 60.3 Q92.95 61.15 93.25 61.95 L93.5 63.1 93.05 63.9 Q92.65 64.25 92.15 64.25 91.65 64.25 91.3 63.8 L90.4 62.65 M90.15 58.55 L88.4 59.0 86.75 59.4 Q86.25 59.55 85.9 59.85 85.4 60.2 85.4 60.85 85.4 61.5 85.95 61.9 86.4 62.4 87.2 62.4 L88.8 62.0 Q89.45 61.65 89.8 61.1 90.15 60.4 90.15 58.95 L90.15 58.55 M40.65 57.7 L40.65 50.35 Q40.65 49.4 41.1 48.95 41.5 48.45 42.15 48.45 42.9 48.45 43.3 48.95 43.75 49.4 43.75 50.35 L43.75 57.85 Q43.75 59.1 44.05 60.0 44.3 60.85 45.0 61.3 45.8 61.8 47.1 61.8 48.9 61.8 49.65 60.85 50.4 59.85 50.4 57.95 L50.4 50.35 Q50.4 49.4 50.8 48.95 51.2 48.45 51.9 48.45 52.6 48.45 53.05 48.95 53.45 49.4 53.45 50.35 L53.45 57.7 53.15 60.65 Q52.75 61.85 51.85 62.75 L49.85 63.9 47.3 64.25 44.25 63.85 42.2 62.7 Q41.4 61.9 41.05 60.65 40.65 59.4 40.65 57.7 M77.65 62.65 L77.65 62.35 76.55 63.4 Q76.05 63.8 75.35 64.05 L73.9 64.25 Q72.9 64.25 72.05 63.8 L70.55 62.6 Q69.9 61.8 69.6 60.7 69.25 59.6 69.25 58.35 69.25 55.7 70.6 54.2 71.85 52.7 73.95 52.7 75.2 52.7 76.05 53.15 76.85 53.55 77.65 54.45 L77.65 50.3 Q77.65 49.4 78.0 48.9 78.35 48.45 79.0 48.45 79.65 48.45 80.0 48.9 80.35 49.3 80.35 50.1 L80.35 62.65 Q80.35 63.45 79.95 63.8 79.6 64.25 79.0 64.25 78.4 64.25 78.05 63.8 77.65 63.4 77.65 62.65 M27.75 52.95 L28.0 52.95 28.0 51.25 28.05 50.2 Q28.1 49.75 28.3 49.5 28.45 49.2 28.75 49.05 29.05 48.8 29.5 48.8 30.0 48.8 30.45 49.25 L30.85 49.9 30.9 51.0 30.9 52.95 31.9 52.95 Q32.55 52.95 32.85 53.25 L33.15 53.95 Q33.15 54.5 32.7 54.8 L31.4 55.0 30.9 55.0 30.9 60.2 30.95 61.2 Q31.0 61.6 31.2 61.8 L31.85 62.05 32.5 61.95 33.2 61.85 Q33.5 61.85 33.8 62.15 L34.05 62.8 Q34.05 63.5 33.35 63.85 L31.2 64.25 Q29.85 64.25 29.15 63.75 28.5 63.4 28.3 62.55 28.0 61.8 28.0 60.45 L28.0 55.0 27.7 55.0 26.75 54.75 Q26.4 54.4 26.4 53.95 26.4 53.55 26.75 53.25 27.1 52.95 27.75 52.95 M25.15 60.55 Q25.15 61.7 24.6 62.55 24.05 63.4 22.9 63.8 L20.2 64.25 Q18.65 64.25 17.55 63.75 L15.95 62.6 Q15.45 61.9 15.45 61.2 15.45 60.75 15.75 60.35 16.15 60.05 16.6 60.05 L17.3 60.3 17.8 60.9 Q18.2 61.65 18.8 62.0 19.4 62.4 20.45 62.4 21.35 62.4 21.85 62.0 22.4 61.65 22.4 61.15 22.4 60.4 21.85 60.05 L20.0 59.4 17.6 58.65 16.15 57.6 Q15.55 56.95 15.55 55.95 15.55 55.15 16.1 54.35 16.55 53.6 17.6 53.2 18.6 52.7 20.0 52.7 L21.95 52.9 23.4 53.55 Q24.05 53.9 24.3 54.4 L24.65 55.3 24.3 56.1 23.35 56.4 22.6 56.15 21.95 55.45 Q21.65 55.0 21.15 54.8 20.7 54.5 20.0 54.5 19.2 54.5 18.7 54.85 18.15 55.15 18.15 55.7 18.15 56.1 18.6 56.4 L19.55 56.85 21.35 57.3 23.5 58.05 24.8 59.15 Q25.15 59.75 25.15 60.55 M11.3 59.15 L5.75 59.15 Q5.75 60.15 6.15 60.85 6.5 61.6 7.15 61.95 7.8 62.35 8.6 62.35 L9.5 62.25 10.25 61.85 11.0 61.3 11.85 60.55 12.45 60.35 13.2 60.55 13.45 61.2 13.2 62.15 12.3 63.15 10.8 63.95 8.6 64.25 Q5.9 64.25 4.4 62.7 2.85 61.15 2.85 58.45 2.85 57.2 3.2 56.1 3.6 55.05 4.35 54.25 5.05 53.5 6.1 53.1 7.1 52.65 8.45 52.65 10.1 52.65 11.3 53.35 12.4 54.1 13.05 55.15 13.65 56.35 13.65 57.45 13.65 58.55 13.05 58.85 L11.3 59.15 M5.75 57.55 L10.85 57.55 Q10.85 56.1 10.15 55.4 9.45 54.65 8.3 54.65 7.3 54.65 6.6 55.4 5.9 56.1 5.75 57.55 M-3.95 52.95 L-3.7 52.95 -3.7 51.25 -3.65 50.2 -3.45 49.5 -2.95 49.05 -2.25 48.8 Q-1.7 48.8 -1.25 49.25 -0.95 49.5 -0.9 49.9 L-0.8 51.0 -0.8 52.95 0.2 52.95 Q0.8 52.95 1.15 53.25 L1.45 53.95 Q1.45 54.5 0.95 54.8 L-0.3 55.0 -0.8 55.0 -0.8 60.2 -0.75 61.2 -0.55 61.8 0.1 62.05 0.8 61.95 1.5 61.85 Q1.8 61.85 2.1 62.15 L2.35 62.8 Q2.35 63.5 1.6 63.85 L-0.55 64.25 Q-1.9 64.25 -2.55 63.75 -3.2 63.4 -3.45 62.55 L-3.7 60.45 -3.7 55.0 -4.05 55.0 -5.0 54.75 -5.35 53.95 Q-5.35 53.55 -4.95 53.25 -4.6 52.95 -3.95 52.95 M72.1 58.45 Q72.1 59.6 72.45 60.4 L73.45 61.65 74.8 62.05 Q75.55 62.05 76.15 61.65 76.75 61.25 77.15 60.45 77.55 59.6 77.55 58.45 77.55 57.3 77.15 56.45 76.75 55.7 76.15 55.25 75.5 54.8 74.8 54.8 74.0 54.8 73.4 55.25 72.8 55.7 72.45 56.5 72.1 57.35 72.1 58.45 M64.8 58.4 Q64.8 57.3 64.4 56.45 64.1 55.7 63.5 55.25 62.85 54.8 62.1 54.8 60.95 54.8 60.15 55.75 59.35 56.7 59.35 58.45 59.35 60.2 60.15 61.15 60.95 62.05 62.1 62.05 62.85 62.05 63.45 61.65 L64.4 60.4 Q64.8 59.6 64.8 58.4 M59.2 54.25 L59.2 54.65 Q60.0 53.65 60.85 53.2 61.75 52.7 62.85 52.7 64.15 52.7 65.25 53.4 66.35 54.1 67.0 55.4 67.6 56.7 67.6 58.45 67.6 59.75 67.25 60.85 L66.2 62.7 Q65.6 63.45 64.7 63.85 L62.85 64.25 Q61.6 64.25 60.8 63.7 L59.2 62.3 59.2 66.55 Q59.2 68.45 57.9 68.45 57.05 68.45 56.8 68.0 56.55 67.5 56.55 66.55 L56.55 54.3 Q56.55 53.5 56.9 53.1 57.3 52.7 57.9 52.7 58.45 52.7 58.9 53.15 59.2 53.55 59.2 54.25 M-26.4 50.35 L-26.4 61.45 -20.15 61.45 Q-19.4 61.45 -19.0 61.8 -18.6 62.15 -18.6 62.7 -18.6 63.3 -19.0 63.65 -19.4 64.0 -20.15 64.0 L-27.65 64.0 Q-28.65 64.0 -29.05 63.5 -29.5 63.1 -29.5 62.1 L-29.5 50.35 Q-29.5 49.4 -29.05 48.95 -28.65 48.45 -28.0 48.45 -27.3 48.45 -26.85 48.95 -26.4 49.4 -26.4 50.35 M-9.6 62.65 Q-10.65 63.45 -11.6 63.85 L-13.75 64.25 -15.65 63.8 -16.95 62.65 -17.4 61.05 Q-17.4 59.9 -16.65 59.05 -15.9 58.25 -14.65 58.0 L-13.3 57.7 -11.45 57.25 -9.85 56.8 Q-9.85 55.7 -10.2 55.15 -10.65 54.65 -11.9 54.65 L-13.55 54.95 -14.5 55.85 -15.0 56.65 Q-15.2 56.85 -15.7 56.85 -16.2 56.85 -16.55 56.5 L-16.9 55.75 Q-16.9 55.0 -16.35 54.3 -15.85 53.55 -14.7 53.15 -13.6 52.65 -11.9 52.65 -10.05 52.65 -8.95 53.15 -7.9 53.55 -7.45 54.5 -7.0 55.45 -7.0 57.05 L-7.0 58.75 -7.0 60.3 -6.75 61.95 -6.5 63.1 Q-6.5 63.5 -6.95 63.9 -7.3 64.25 -7.85 64.25 L-8.7 63.8 -9.6 62.65 M-9.85 58.55 L-11.6 59.0 -13.25 59.4 -14.1 59.85 Q-14.6 60.2 -14.6 60.85 -14.6 61.5 -14.05 61.9 -13.6 62.4 -12.75 62.4 -11.95 62.4 -11.2 62.0 L-10.15 61.1 Q-9.85 60.4 -9.85 58.95 L-9.85 58.55" fill="#8afbff" fill-rule="evenodd" stroke="none"/>
    <path d="M51.85 -51.2 L40.55 -49.2 Q40.9 -47.25 41.95 -45.85 43.0 -44.5 44.4 -43.95 L47.35 -43.7 49.25 -44.3 50.8 -45.35 52.05 -46.7 53.5 -48.6 Q53.9 -49.1 54.75 -49.25 L56.25 -49.05 Q56.9 -48.65 57.05 -47.75 57.2 -46.95 56.8 -45.8 56.3 -44.7 55.25 -43.45 54.2 -42.3 52.4 -41.3 50.65 -40.4 48.25 -39.95 42.7 -38.95 38.95 -41.55 35.3 -44.2 34.35 -49.6 33.9 -52.15 34.3 -54.55 34.65 -56.85 35.9 -58.7 37.05 -60.5 39.0 -61.7 41.05 -62.9 43.65 -63.35 L49.7 -63.0 Q52.4 -62.05 53.95 -59.95 55.6 -57.9 56.05 -55.55 56.45 -53.35 55.25 -52.45 54.15 -51.6 51.85 -51.2 M39.95 -52.5 L50.4 -54.35 Q49.75 -57.35 48.05 -58.55 46.45 -59.75 44.2 -59.35 42.0 -58.95 40.9 -57.2 39.75 -55.5 39.95 -52.5 M16.4 -45.95 L17.75 -38.25 Q18.05 -36.4 17.4 -35.45 16.75 -34.4 15.4 -34.15 14.1 -33.9 13.1 -34.65 12.1 -35.35 11.8 -37.2 L10.15 -46.4 9.4 -49.8 Q9.1 -51.0 8.25 -51.65 7.45 -52.35 6.05 -52.1 3.2 -51.6 2.65 -49.45 2.05 -47.3 2.7 -43.7 L4.1 -35.85 Q4.4 -34.05 3.75 -33.0 3.15 -32.0 1.8 -31.75 0.55 -31.5 -0.5 -32.25 -1.5 -33.0 -1.8 -34.8 L-4.75 -51.35 Q-5.0 -52.95 -4.4 -53.95 -3.8 -54.95 -2.6 -55.15 -1.4 -55.35 -0.5 -54.7 0.45 -54.1 0.7 -52.7 L0.8 -52.15 Q2.0 -54.2 3.55 -55.35 5.15 -56.5 7.2 -56.9 L11.15 -56.65 Q12.85 -56.05 14.15 -54.5 15.3 -56.5 16.85 -57.65 18.35 -58.85 20.45 -59.2 L24.65 -59.0 Q26.55 -58.4 27.7 -56.8 28.7 -55.35 29.3 -51.95 L31.3 -40.65 Q31.6 -38.8 30.95 -37.8 30.3 -36.75 28.9 -36.55 27.65 -36.3 26.6 -37.05 25.6 -37.8 25.3 -39.6 L23.55 -49.35 22.9 -52.35 Q22.5 -53.4 21.7 -54.1 20.85 -54.7 19.45 -54.45 18.25 -54.25 17.4 -53.35 16.5 -52.5 16.1 -51.3 15.7 -49.65 16.4 -45.95 M-37.1 -45.8 L-37.0 -45.1 Q-35.85 -47.35 -34.15 -48.6 -32.55 -49.85 -30.15 -50.25 L-25.95 -50.0 Q-23.95 -49.35 -22.75 -47.7 -21.95 -46.7 -21.6 -45.55 L-20.9 -42.45 -19.0 -31.65 Q-18.7 -29.95 -19.35 -28.95 -19.95 -27.9 -21.2 -27.65 -22.5 -27.45 -23.5 -28.2 -24.45 -28.9 -24.75 -30.6 L-26.45 -40.3 Q-26.95 -43.1 -28.0 -44.45 -29.1 -45.95 -31.45 -45.5 -33.0 -45.25 -34.1 -44.05 -35.2 -42.95 -35.5 -41.2 -35.75 -39.8 -35.1 -36.3 L-33.85 -29.0 Q-33.55 -27.25 -34.15 -26.25 -34.8 -25.25 -36.1 -25.05 -37.35 -24.8 -38.35 -25.6 -39.3 -26.3 -39.6 -28.0 L-42.55 -44.75 Q-42.85 -46.4 -42.3 -47.3 -41.7 -48.25 -40.4 -48.45 L-39.0 -48.4 -37.8 -47.5 Q-37.3 -46.85 -37.1 -45.8 M-14.3 -55.85 Q-15.5 -55.65 -16.5 -56.25 -17.5 -56.85 -17.75 -58.25 -17.95 -59.45 -17.2 -60.35 -16.45 -61.3 -15.3 -61.5 -14.2 -61.7 -13.15 -61.15 -12.2 -60.6 -11.95 -59.25 -11.7 -57.85 -12.45 -56.95 -13.15 -56.05 -14.3 -55.85 M-10.4 -50.4 L-7.45 -33.65 Q-7.15 -31.95 -7.85 -30.95 -8.45 -29.95 -9.7 -29.7 -11.0 -29.5 -12.0 -30.25 -12.95 -30.95 -13.25 -32.65 L-16.15 -49.2 Q-16.45 -50.95 -15.8 -51.95 -15.15 -52.95 -13.85 -53.15 -12.6 -53.4 -11.65 -52.65 -10.65 -51.95 -10.4 -50.4 M-50.5 -26.7 L-52.6 -30.25 -65.25 -28.05 -66.0 -23.85 Q-66.5 -21.3 -66.95 -20.4 -67.4 -19.5 -68.85 -19.25 -70.0 -19.05 -71.05 -19.75 -72.15 -20.45 -72.3 -21.55 L-72.35 -22.9 -72.0 -24.9 -67.65 -46.45 -67.15 -48.7 -66.5 -50.9 -65.3 -52.4 Q-64.55 -53.1 -63.25 -53.35 L-60.95 -53.2 Q-59.95 -52.9 -59.35 -52.2 L-58.1 -50.65 -56.75 -48.4 -45.1 -29.8 Q-43.7 -27.7 -43.55 -26.65 -43.35 -25.55 -44.1 -24.55 -44.85 -23.5 -46.05 -23.3 L-47.4 -23.25 -48.45 -23.8 -49.45 -25.1 -50.5 -26.7 M-64.45 -33.05 L-55.15 -34.65 -62.05 -46.7 -64.45 -33.05" fill="url(#gradient0)" fill-rule="evenodd" stroke="none"/>
    <path d="M15.55 -0.85 L16.4 4.05 Q16.7 5.75 16.05 6.8 15.35 7.8 14.1 8.0 12.85 8.2 11.9 7.45 10.9 6.75 10.6 5.05 L7.75 -11.1 Q7.05 -14.95 9.9 -15.45 11.35 -15.7 12.1 -14.9 13.0 -14.1 13.35 -12.4 14.05 -14.3 14.95 -15.4 15.9 -16.5 17.7 -16.8 L21.4 -16.55 Q23.3 -15.95 23.55 -14.45 23.75 -13.4 23.15 -12.55 22.55 -11.75 21.7 -11.6 L20.1 -11.7 17.85 -11.75 Q16.6 -11.5 15.9 -10.65 15.2 -9.95 15.0 -8.5 14.8 -7.1 14.95 -5.25 15.1 -3.4 15.55 -0.85 M49.75 -5.65 Q49.95 -4.55 49.55 -3.25 49.1 -1.9 47.95 -0.55 46.85 0.8 44.95 1.85 43.05 2.85 40.55 3.3 35.15 4.25 31.6 1.65 28.1 -0.9 27.15 -6.2 26.55 -9.7 27.4 -12.7 28.3 -15.7 30.6 -17.6 32.95 -19.55 36.6 -20.2 L40.85 -20.3 Q42.8 -19.95 44.3 -19.15 45.8 -18.35 46.65 -17.3 47.6 -16.25 47.8 -15.2 48.0 -14.2 47.35 -13.35 46.7 -12.45 45.6 -12.25 L44.3 -12.45 Q43.75 -12.7 43.05 -13.45 L40.4 -15.5 37.3 -15.8 Q34.75 -15.35 33.55 -13.0 32.35 -10.75 32.95 -7.3 33.25 -5.7 33.85 -4.35 34.55 -3.1 35.45 -2.2 36.35 -1.4 37.55 -1.1 L40.0 -1.0 Q41.75 -1.3 42.85 -2.35 43.95 -3.35 44.55 -5.15 L45.45 -6.9 Q45.95 -7.6 46.85 -7.75 47.9 -7.9 48.75 -7.25 49.6 -6.55 49.75 -5.65 M70.15 -5.25 Q68.35 -3.25 66.5 -2.1 64.7 -0.95 62.25 -0.5 L58.15 -0.65 Q56.35 -1.25 55.2 -2.6 54.0 -3.95 53.7 -5.7 53.3 -8.05 54.5 -10.0 55.7 -11.95 58.2 -13.0 L60.85 -14.05 Q62.95 -14.85 64.45 -15.55 L67.65 -17.0 Q67.15 -19.3 66.15 -20.2 65.1 -21.15 62.55 -20.7 60.35 -20.3 59.35 -19.5 58.4 -18.7 57.8 -17.3 L57.0 -15.45 Q56.7 -15.0 55.65 -14.8 54.65 -14.65 53.85 -15.15 53.0 -15.7 52.8 -16.65 52.55 -18.2 53.4 -19.8 54.25 -21.4 56.3 -22.75 58.45 -24.1 61.85 -24.7 L68.0 -24.85 Q70.3 -24.3 71.6 -22.6 72.85 -20.75 73.45 -17.55 L74.05 -14.1 74.55 -10.95 Q74.85 -9.3 75.7 -7.65 L76.65 -5.5 Q76.8 -4.6 76.1 -3.7 75.35 -2.85 74.3 -2.65 73.4 -2.5 72.35 -3.15 L70.15 -5.25 M68.25 -13.55 Q67.1 -12.85 64.75 -11.9 L61.55 -10.55 59.95 -9.3 Q59.2 -8.45 59.45 -7.15 59.65 -5.85 60.8 -5.05 61.95 -4.35 63.55 -4.6 65.3 -4.9 66.6 -5.95 67.95 -6.95 68.4 -8.25 68.95 -9.7 68.4 -12.75 L68.25 -13.55 M97.15 -10.1 L97.05 -10.65 95.15 -8.1 92.95 -6.35 Q91.6 -5.7 90.05 -5.45 L86.1 -5.6 Q84.15 -6.2 82.55 -7.6 81.0 -9.0 79.95 -11.05 78.9 -13.15 78.45 -15.7 77.5 -21.15 79.55 -24.6 81.65 -28.15 86.0 -28.9 L90.35 -28.75 Q92.25 -28.2 94.2 -26.75 L92.7 -35.25 Q92.35 -37.05 92.95 -38.05 93.45 -39.15 94.8 -39.35 96.1 -39.6 96.95 -38.85 97.8 -38.15 98.05 -36.55 L102.6 -11.05 Q102.85 -9.4 102.25 -8.4 101.65 -7.5 100.45 -7.25 99.25 -7.05 98.35 -7.75 97.4 -8.5 97.15 -10.1 M111.45 -23.25 L121.9 -25.1 Q121.2 -28.05 119.5 -29.25 117.85 -30.45 115.6 -30.05 113.45 -29.65 112.35 -27.95 111.2 -26.25 111.45 -23.25 M123.35 -21.95 L112.05 -19.95 Q112.4 -18.0 113.45 -16.55 114.45 -15.2 115.85 -14.7 L118.85 -14.45 120.7 -15.0 122.2 -16.05 123.5 -17.4 125.0 -19.4 Q125.35 -19.8 126.15 -19.95 L127.7 -19.75 Q128.4 -19.35 128.55 -18.45 128.7 -17.65 128.2 -16.55 127.75 -15.4 126.7 -14.15 125.65 -13.0 123.85 -12.0 122.1 -11.1 119.65 -10.65 114.1 -9.7 110.45 -12.3 106.8 -14.95 105.85 -20.35 105.4 -22.9 105.8 -25.25 106.15 -27.55 107.3 -29.4 108.5 -31.2 110.5 -32.4 112.5 -33.65 115.1 -34.1 118.5 -34.7 121.15 -33.7 123.85 -32.75 125.45 -30.65 127.05 -28.6 127.45 -26.25 127.85 -24.05 126.75 -23.15 125.6 -22.35 123.35 -21.95 M84.3 -16.5 Q84.7 -14.15 85.75 -12.65 86.75 -11.15 88.15 -10.5 L91.05 -10.2 Q92.55 -10.45 93.75 -11.45 94.85 -12.45 95.3 -14.25 95.75 -16.05 95.35 -18.5 94.9 -20.85 93.9 -22.35 92.85 -23.85 91.45 -24.55 L88.4 -24.9 Q86.8 -24.6 85.75 -23.5 84.65 -22.4 84.3 -20.6 83.9 -18.75 84.3 -16.5 M-0.4 6.4 L-2.55 2.8 -15.2 5.05 -15.95 9.25 Q-16.4 11.75 -16.9 12.65 -17.35 13.55 -18.8 13.8 -19.95 14.0 -21.0 13.35 -22.05 12.6 -22.25 11.55 L-22.25 10.15 -21.9 8.2 -17.55 -13.35 -17.1 -15.6 -16.4 -17.85 -15.2 -19.4 Q-14.45 -20.05 -13.15 -20.3 L-10.85 -20.15 -9.2 -19.1 -8.0 -17.6 -6.65 -15.35 5.0 3.25 Q6.35 5.35 6.55 6.4 6.75 7.5 6.0 8.5 5.25 9.55 4.0 9.8 L2.7 9.8 Q2.05 9.6 1.7 9.25 L0.7 7.95 -0.4 6.4 M-14.35 0.05 L-5.05 -1.6 -12.0 -13.65 -14.35 0.05" fill="url(#gradient1)" fill-rule="evenodd" stroke="none"/>
    <path d="M184.1 14.4 Q184.55 16.8 183.7 18.7 182.85 20.6 180.75 21.9 178.6 23.15 175.35 23.75 172.2 24.3 169.85 23.75 167.45 23.2 166.1 21.95 164.8 20.65 164.55 19.25 164.4 18.25 164.9 17.5 165.5 16.7 166.5 16.55 L168.0 16.7 169.15 17.8 Q170.3 19.15 171.7 19.75 L175.25 19.9 Q177.0 19.6 177.9 18.65 178.9 17.65 178.75 16.65 178.45 15.1 177.15 14.65 175.9 14.15 173.15 13.95 L168.05 13.3 Q166.0 12.75 164.65 11.65 163.25 10.5 162.9 8.55 162.6 6.8 163.4 5.1 164.1 3.4 166.0 2.1 167.85 0.85 170.75 0.3 L174.8 0.0 Q176.7 0.2 178.1 0.8 179.4 1.35 180.15 2.2 180.95 3.05 181.15 3.95 181.3 4.9 180.7 5.7 180.2 6.45 179.0 6.65 L177.4 6.4 Q176.65 6.05 175.65 5.1 174.85 4.4 173.9 4.1 L171.4 4.0 Q169.8 4.3 168.85 5.15 167.95 5.95 168.1 6.95 168.25 7.85 169.15 8.35 L171.4 8.9 175.15 9.25 179.8 10.0 Q181.65 10.65 182.75 11.7 183.85 12.8 184.1 14.4 M155.35 16.6 L144.05 18.6 Q144.4 20.6 145.5 21.95 146.5 23.3 147.95 23.85 L150.85 24.1 152.8 23.55 154.3 22.45 155.55 21.1 157.0 19.2 Q157.4 18.7 158.2 18.55 159.1 18.4 159.8 18.8 160.4 19.15 160.55 20.05 160.7 20.85 160.3 22.0 L158.75 24.35 155.95 26.5 Q154.15 27.5 151.75 27.9 146.2 28.9 142.5 26.25 138.8 23.6 137.85 18.2 137.4 15.65 137.8 13.3 138.2 10.95 139.4 9.1 140.6 7.3 142.55 6.15 144.6 4.9 147.15 4.45 150.55 3.85 153.2 4.8 155.95 5.85 157.5 7.85 159.15 9.9 159.55 12.25 159.95 14.5 158.75 15.4 157.65 16.2 155.35 16.6 M143.5 15.3 L153.95 13.45 Q153.25 10.55 151.55 9.3 149.95 8.05 147.7 8.45 145.5 8.85 144.4 10.6 143.25 12.35 143.5 15.3 M121.95 9.4 L122.6 9.3 121.95 5.9 121.6 3.65 Q121.6 2.8 121.85 2.2 122.05 1.6 122.6 1.1 123.2 0.6 124.0 0.45 125.05 0.25 126.1 0.95 126.8 1.4 127.1 2.15 L127.65 4.4 128.35 8.3 130.5 7.9 132.45 8.2 Q133.25 8.65 133.4 9.55 133.6 10.7 132.75 11.35 131.85 12.0 130.15 12.3 L129.05 12.5 130.95 23.15 131.4 25.2 Q131.65 25.9 132.2 26.3 L133.6 26.5 134.95 26.1 136.25 25.65 Q136.95 25.55 137.6 26.05 138.25 26.5 138.4 27.3 138.65 28.7 137.25 29.75 135.85 30.7 133.05 31.2 L128.75 31.05 Q127.2 30.4 126.5 28.8 125.75 27.3 125.3 24.6 L123.3 13.5 122.5 13.65 120.5 13.35 Q119.75 12.95 119.6 12.0 119.45 11.1 120.05 10.4 120.65 9.65 121.95 9.4 M119.0 21.6 Q119.5 24.2 119.05 26.45 118.65 28.75 117.45 30.7 116.15 32.5 114.2 33.7 112.25 34.9 109.6 35.35 106.95 35.85 104.7 35.35 102.45 34.85 100.65 33.6 98.85 32.25 97.65 30.25 96.5 28.25 96.0 25.65 95.55 23.0 95.95 20.7 96.4 18.35 97.6 16.55 98.85 14.75 100.85 13.55 102.85 12.3 105.45 11.85 108.05 11.4 110.35 11.85 112.6 12.35 114.4 13.65 116.25 14.9 117.45 16.95 118.55 19.0 119.0 21.6 M113.2 22.6 Q112.6 19.05 110.75 17.3 108.8 15.65 106.2 16.1 104.5 16.4 103.3 17.55 102.2 18.65 101.8 20.5 101.4 22.3 101.8 24.6 102.2 26.85 103.2 28.45 104.15 30.05 105.65 30.7 L108.85 31.05 Q111.45 30.6 112.7 28.3 113.85 26.1 113.2 22.6 M70.1 13.1 L85.4 29.25 82.15 10.8 Q81.85 8.95 82.5 8.0 83.05 6.9 84.35 6.65 85.75 6.4 86.7 7.25 87.65 7.95 87.95 9.8 L92.3 34.25 Q93.0 38.3 89.6 38.9 L88.05 38.9 86.6 38.4 85.3 37.35 84.05 36.05 69.05 20.05 72.25 38.25 Q72.6 40.05 71.9 41.1 71.25 42.15 69.95 42.35 68.6 42.6 67.65 41.85 66.65 41.05 66.35 39.3 L62.1 15.35 Q61.85 13.8 62.05 12.9 62.25 11.85 63.05 11.1 63.9 10.3 65.0 10.1 L66.5 10.15 67.7 10.7 68.85 11.75 70.1 13.1" fill="url(#gradient2)" fill-rule="evenodd" stroke="none"/>
    <path d="M211.8 69.25 Q211.8 70.5 210.95 71.4 210.05 72.25 208.8 72.25 L-208.75 72.25 Q-210.0 72.25 -210.85 71.4 -211.75 70.5 -211.75 69.25 L-211.75 -69.25 Q-211.75 -70.5 -210.85 -71.35 -210.0 -72.25 -208.75 -72.25 L208.8 -72.25 Q210.05 -72.25 210.95 -71.35 211.8 -70.5 211.8 -69.25 L211.8 69.25 M208.8 -69.25 L-208.75 -69.25 -208.75 69.25 208.8 69.25 208.8 -69.25 M213.5 -73.25 L-213.45 -73.25 -213.45 73.25 213.5 73.25 213.5 -73.25 M216.5 -76.25 L216.5 76.25 -216.45 76.25 -216.45 -76.25 216.5 -76.25" fill="#266ab6" fill-rule="evenodd" stroke="none"/>
    <path d="M211.8 69.25 L211.8 -69.25 Q211.8 -70.5 210.95 -71.35 210.05 -72.25 208.8 -72.25 L-208.75 -72.25 Q-210.0 -72.25 -210.85 -71.35 -211.75 -70.5 -211.75 -69.25 L-211.75 69.25 Q-211.75 70.5 -210.85 71.4 -210.0 72.25 -208.75 72.25 L208.8 72.25 Q210.05 72.25 210.95 71.4 211.8 70.5 211.8 69.25 M213.5 -73.25 L213.5 73.25 -213.45 73.25 -213.45 -73.25 213.5 -73.25" fill="#8afbff" fill-rule="evenodd" stroke="none"/>
    <path d="M208.8 -69.25 L208.8 69.25 -208.75 69.25 -208.75 -69.25 208.8 -69.25 M216.5 -76.25 L216.5 76.25 -216.45 76.25 -216.45 -76.25 216.5 -76.25" fill="none" stroke="#03172a" stroke-linecap="round" stroke-linejoin="round" stroke-width="0.05"/>
  </g>
  <defs>
    <linearGradient gradientTransform="matrix(0.0027, 0.015, -0.2628, 0.0464, 140.75, -71.85)" gradientUnits="userSpaceOnUse" id="gradient0" spreadMethod="pad" x1="-819.2" x2="819.2">
      <stop offset="0.0392156862745098" stop-color="#f5feff"/>
      <stop offset="1.0" stop-color="#cbecff"/>
    </linearGradient>
    <linearGradient gradientTransform="matrix(0.0027, 0.015, -0.2628, 0.0464, 46.65, -13.25)" gradientUnits="userSpaceOnUse" id="gradient1" spreadMethod="pad" x1="-819.2" x2="819.2">
      <stop offset="0.0392156862745098" stop-color="#f5feff"/>
      <stop offset="1.0" stop-color="#cbecff"/>
    </linearGradient>
    <linearGradient gradientTransform="matrix(0.0027, 0.015, -0.2628, 0.0464, -32.45, 44.9)" gradientUnits="userSpaceOnUse" id="gradient2" spreadMethod="pad" x1="-819.2" x2="819.2">
      <stop offset="0.0392156862745098" stop-color="#f5feff"/>
      <stop offset="1.0" stop-color="#cbecff"/>
    </linearGradient>
  </defs>
</svg>
