<?xml version="1.0" encoding="UTF-8" standalone="no"?>
<svg xmlns:xlink="http://www.w3.org/1999/xlink" height="111.85px" width="431.25px" xmlns="http://www.w3.org/2000/svg">
  <g transform="matrix(1.0, 0.0, 0.0, 1.0, 216.0, 49.85)">
    <path d="M-215.5 37.0 L214.45 37.0 214.45 61.5 -215.5 61.5 -215.5 37.0" fill="#000000" fill-opacity="0.6" fill-rule="evenodd" stroke="none"/>
    <path d="M-215.2 -49.35 L214.75 -49.35 214.75 6.4 -215.2 6.4 -215.2 -49.35" fill="#252525" fill-opacity="0.43137255" fill-rule="evenodd" stroke="none"/>
    <path d="M-215.5 37.0 L214.45 37.0 214.45 61.5 -215.5 61.5 -215.5 37.0" fill="none" stroke="#000000" stroke-linecap="round" stroke-linejoin="round" stroke-opacity="0.9411765" stroke-width="1.0"/>
    <path d="M-215.2 -49.35 L214.75 -49.35 214.75 6.4 -215.2 6.4 -215.2 -49.35" fill="none" stroke="#e7e7e7" stroke-linecap="round" stroke-linejoin="round" stroke-opacity="0.9411765" stroke-width="1.0"/>
    <path d="M168.9 46.35 Q169.75 45.1 171.4 44.3 L171.45 44.3 Q172.95 43.6 175.05 43.6 L177.9 43.95 Q179.25 44.25 180.25 44.9 L181.8 46.45 181.85 46.45 Q182.4 47.4 182.4 48.4 182.4 49.65 181.55 50.45 L180.85 51.0 182.25 52.35 Q183.1 53.45 183.1 54.95 183.1 56.95 182.15 58.35 L182.15 58.4 Q181.15 59.75 179.3 60.5 L175.35 61.15 171.45 60.45 Q169.65 59.65 168.8 58.45 168.3 57.8 168.1 57.2 L167.85 57.7 167.8 57.8 166.3 59.45 166.25 59.45 163.9 60.7 160.75 61.15 Q156.6 61.15 154.35 58.7 152.5 56.85 152.1 53.95 L152.1 57.4 Q152.1 59.15 151.25 60.0 L151.2 60.05 Q150.3 61.1 148.75 61.15 147.3 61.15 146.3 60.1 L146.3 60.05 Q145.4 59.2 145.4 57.4 L145.4 51.35 145.35 49.75 145.15 49.35 144.95 49.4 Q144.7 49.4 144.45 49.55 144.15 49.75 144.0 50.1 L144.05 50.05 Q143.75 50.8 143.75 52.6 L143.75 57.4 Q143.75 59.1 142.85 60.0 141.9 61.15 140.4 61.15 138.8 61.15 137.9 60.0 137.05 59.15 137.05 57.4 L137.05 51.7 137.0 49.8 136.85 49.35 136.7 49.4 Q136.05 49.4 135.8 49.75 L135.75 49.8 Q135.3 50.75 135.3 52.55 L135.3 57.4 Q135.3 59.15 134.45 60.0 L134.4 60.05 Q133.45 61.15 132.0 61.15 130.4 61.15 129.5 60.0 L128.85 58.85 127.95 60.25 127.85 60.35 Q126.85 61.15 125.7 61.15 124.6 61.2 123.55 60.15 L123.15 59.7 121.65 60.55 121.55 60.55 Q120.05 61.15 118.25 61.15 116.5 61.15 115.15 60.45 113.75 59.7 113.0 58.45 L112.95 58.35 112.3 56.8 112.3 56.85 Q112.0 57.65 111.3 58.3 L110.05 59.15 110.0 59.15 106.35 60.65 102.45 61.15 Q99.95 61.15 97.9 60.35 L97.85 60.35 Q95.75 59.55 94.25 58.0 92.75 56.5 91.95 54.4 91.15 52.3 91.15 49.7 91.15 47.15 91.95 45.1 92.7 42.9 94.25 41.4 95.75 39.85 97.95 39.05 100.0 38.3 102.65 38.3 104.85 38.3 106.6 38.9 108.4 39.5 109.5 40.45 L109.5 40.5 Q110.7 41.5 111.25 42.55 L111.2 42.55 Q111.95 43.85 111.9 44.8 111.9 46.15 110.9 47.15 L110.85 47.2 109.9 47.85 110.1 47.9 Q111.2 48.2 111.9 49.15 112.5 49.9 112.5 51.5 L112.5 53.7 Q112.85 52.85 113.5 52.1 L114.25 51.4 113.85 51.15 113.75 51.1 Q112.8 50.2 112.8 48.95 112.8 47.5 113.85 46.2 L113.8 46.25 Q114.65 45.0 116.5 44.25 L116.5 44.3 Q118.15 43.55 120.6 43.55 123.35 43.55 124.9 44.3 L124.9 44.25 Q126.8 45.05 127.6 46.8 128.25 48.2 128.25 50.6 L128.25 52.7 128.25 54.65 128.5 56.35 128.5 56.3 128.65 56.9 128.65 47.15 Q128.65 45.55 129.45 44.65 L129.5 44.6 Q130.3 43.6 131.85 43.6 133.15 43.6 134.1 44.55 L134.2 44.65 134.95 44.3 134.85 44.35 Q136.2 43.6 137.9 43.6 139.7 43.6 140.95 44.35 L141.95 45.05 Q142.45 44.6 143.05 44.35 144.4 43.6 146.05 43.6 147.9 43.6 149.25 44.4 L149.3 44.4 Q150.75 45.15 151.5 46.7 152.1 47.85 152.1 50.4 L152.1 50.8 Q152.25 49.8 152.55 48.95 153.05 47.25 154.2 46.05 L154.25 46.0 Q155.4 44.8 157.0 44.2 L157.0 44.25 Q158.55 43.55 160.5 43.55 163.05 43.55 164.9 44.7 166.75 45.8 167.65 47.6 L167.65 47.55 168.05 48.5 Q168.2 47.35 168.9 46.35 M174.95 48.9 L176.1 49.2 175.85 49.05 175.75 49.0 175.05 48.85 174.85 48.85 174.95 48.9 M190.7 42.8 L190.6 44.75 190.05 51.15 189.5 53.45 189.5 53.5 188.65 54.5 189.65 55.2 Q190.7 56.25 190.7 57.65 190.7 59.25 189.65 60.2 L189.55 60.25 Q188.55 61.1 187.25 61.1 185.9 61.1 184.9 60.25 L184.85 60.2 Q183.75 59.25 183.75 57.65 183.75 56.25 184.7 55.25 L184.8 55.15 185.75 54.55 184.8 53.5 184.8 53.4 Q184.45 52.65 184.25 51.2 L184.25 51.1 183.85 44.8 183.75 42.1 Q183.75 40.35 184.7 39.4 L184.75 39.35 Q185.75 38.3 187.3 38.3 189.55 38.3 190.15 39.95 L190.15 39.9 Q190.7 40.9 190.7 42.8 M174.7 55.0 L173.6 54.7 173.6 54.75 173.6 54.7 174.4 55.6 175.65 55.8 176.55 55.65 176.6 55.75 176.6 55.65 174.7 55.0 M169.05 52.2 L168.55 51.45 Q168.45 53.15 167.55 53.9 L168.1 54.6 168.7 53.75 Q169.2 53.25 169.9 53.0 L169.1 52.25 169.05 52.2 M162.85 54.8 L162.85 54.75 159.05 54.75 Q159.25 55.25 159.7 55.55 L159.65 55.5 160.65 55.75 161.4 55.7 161.4 55.65 162.0 55.45 162.05 55.45 162.1 55.4 162.75 54.85 162.85 54.8 M119.25 49.3 L118.6 49.9 120.8 49.4 121.55 49.2 120.6 49.05 119.3 49.25 119.25 49.3 M99.3 45.6 Q98.75 46.25 98.45 47.2 98.1 48.3 98.1 49.6 98.1 52.35 99.3 53.85 100.45 55.1 102.5 55.1 L104.6 54.85 104.6 54.8 105.9 54.3 105.9 53.65 104.4 53.65 Q102.85 53.65 102.05 53.15 100.7 52.5 100.7 50.7 100.7 49.35 101.75 48.5 L101.8 48.5 Q102.6 47.7 103.95 47.7 L107.0 47.7 105.9 46.75 105.85 46.7 104.75 45.15 104.7 45.1 103.9 44.5 104.0 44.55 102.35 44.3 Q101.35 44.3 100.55 44.65 99.8 44.95 99.3 45.55 L99.3 45.6 M118.75 55.25 L118.75 55.35 118.9 55.55 118.95 55.65 119.5 55.8 120.8 55.5 120.75 55.55 121.45 54.9 121.5 54.8 121.6 54.45 121.25 54.55 119.45 54.95 119.15 55.05 Q118.95 55.1 118.8 55.25 L118.75 55.25 M83.95 60.35 Q82.95 61.15 81.8 61.15 80.7 61.2 79.65 60.15 L79.25 59.7 77.75 60.55 77.65 60.55 Q76.15 61.15 74.35 61.15 72.6 61.15 71.25 60.45 69.85 59.7 69.1 58.45 L69.05 58.35 Q68.25 57.1 68.25 55.6 68.25 53.55 69.6 52.1 L70.35 51.4 69.95 51.15 69.85 51.1 Q69.15 50.45 68.95 49.55 68.15 50.15 67.15 50.15 L65.75 49.85 64.9 49.65 Q64.7 49.65 64.6 49.75 L64.55 49.8 Q64.35 49.95 64.3 50.25 L64.25 50.35 63.95 51.9 63.85 54.45 63.85 57.45 Q63.85 59.25 62.95 60.1 L62.9 60.15 Q61.9 61.15 60.55 61.15 59.05 61.15 58.15 60.1 L58.05 60.0 57.3 60.5 57.25 60.5 Q56.05 61.15 53.9 61.15 51.6 61.15 50.5 60.3 L50.6 60.35 Q49.15 59.45 48.75 57.9 48.45 56.75 48.45 54.85 L48.45 49.4 Q47.7 49.15 47.25 48.65 L47.3 48.75 47.15 48.6 46.8 49.05 46.8 49.0 44.6 52.0 47.25 55.75 Q48.35 57.4 48.25 58.25 48.25 59.45 47.3 60.35 46.4 61.15 45.1 61.15 43.95 61.15 43.2 60.45 L41.9 59.05 41.85 59.0 40.5 57.0 39.1 59.0 39.05 59.05 37.95 60.35 37.85 60.5 Q37.0 61.15 35.85 61.15 34.65 61.15 33.7 60.35 L33.8 60.4 33.25 59.85 33.1 59.95 33.0 60.1 Q32.15 60.8 30.65 60.8 L20.1 60.8 Q18.05 60.8 17.2 59.8 L17.15 59.8 Q16.2 58.85 16.2 56.9 L16.2 42.5 Q16.2 41.25 16.6 40.55 L16.6 40.5 Q17.05 39.45 18.1 39.0 L18.15 39.0 Q18.85 38.6 20.1 38.6 L30.35 38.6 Q31.85 38.6 32.7 39.35 L32.8 39.45 Q33.7 40.35 33.7 41.6 33.7 43.05 32.75 43.85 L32.7 43.9 Q31.85 44.6 30.35 44.6 L23.1 44.6 23.1 46.3 29.65 46.3 Q31.25 46.3 32.0 47.1 L32.05 47.15 Q32.9 47.95 32.9 49.25 32.9 50.65 32.05 51.4 L32.0 51.5 Q31.25 52.25 29.65 52.25 L23.1 52.25 23.1 54.7 30.65 54.7 Q32.2 54.7 33.05 55.55 L33.55 56.05 33.75 55.75 36.35 52.05 34.15 49.05 34.1 49.0 Q32.95 47.55 33.05 46.45 33.05 45.25 34.0 44.4 34.8 43.6 36.2 43.6 37.35 43.6 38.2 44.3 L38.25 44.35 39.4 45.7 39.45 45.7 40.5 47.15 41.55 45.7 Q42.2 44.75 42.75 44.35 43.55 43.6 44.75 43.6 46.0 43.6 46.9 44.35 L46.95 44.4 47.25 44.7 47.4 44.6 Q47.8 44.2 48.45 44.05 L48.45 43.25 48.5 41.75 Q48.6 40.9 48.95 40.3 49.3 39.65 50.05 39.2 L50.2 39.1 Q50.9 38.75 51.7 38.75 52.95 38.75 53.95 39.65 L54.0 39.7 Q54.65 40.35 54.9 41.3 L55.0 42.95 55.0 43.9 Q56.35 43.95 57.0 44.65 L57.05 44.7 57.6 45.4 Q58.25 43.45 60.5 43.6 61.95 43.6 62.75 44.4 63.7 43.6 65.35 43.6 66.8 43.6 68.25 44.3 L68.25 44.35 Q69.6 45.05 69.95 46.1 70.8 44.95 72.6 44.25 L72.6 44.3 Q74.25 43.55 76.7 43.55 79.45 43.55 81.0 44.3 L81.0 44.25 Q82.9 45.05 83.7 46.8 84.35 48.2 84.35 50.6 L84.35 52.7 84.35 54.65 84.6 56.35 84.6 56.3 85.0 58.15 Q85.05 59.25 84.05 60.25 L83.95 60.35 M161.7 49.7 L161.55 49.45 161.6 49.5 Q161.1 49.05 160.35 49.05 159.75 49.05 159.35 49.5 L159.25 49.55 159.15 49.7 161.7 49.7 M56.4 55.15 L57.25 55.3 57.25 48.5 56.55 49.05 56.5 49.05 55.0 49.5 55.0 54.55 55.05 55.35 55.25 55.3 55.3 55.3 56.4 55.15 M75.35 49.3 L74.7 49.9 76.9 49.4 77.65 49.2 76.7 49.05 75.4 49.25 75.35 49.3 M77.6 54.8 L77.7 54.45 77.35 54.55 75.55 54.95 75.25 55.05 Q75.05 55.1 74.9 55.25 L74.85 55.25 74.85 55.35 75.0 55.55 75.05 55.65 75.6 55.8 76.9 55.5 76.85 55.55 77.55 54.9 77.6 54.8 M-38.4 38.95 Q-37.95 39.45 -37.8 40.3 L-37.7 41.35 -37.7 48.6 Q-37.65 47.15 -36.8 45.9 -35.95 44.65 -34.3 43.85 L-34.25 43.85 Q-32.75 43.15 -30.6 43.15 L-27.7 43.5 -27.75 43.5 Q-26.4 43.8 -25.4 44.45 -24.4 45.15 -23.9 46.0 L-23.85 46.05 Q-23.2 47.05 -23.25 47.95 -23.25 49.2 -24.1 50.0 L-24.8 50.55 Q-23.9 51.15 -23.35 51.95 -22.55 53.05 -22.55 54.55 -22.55 56.45 -23.45 57.9 L-23.5 58.0 Q-24.5 59.35 -26.35 60.1 -27.95 60.75 -30.35 60.75 -32.6 60.75 -34.25 60.05 -36.1 59.25 -36.9 58.05 L-37.7 56.5 -37.7 57.2 Q-37.7 58.9 -38.5 59.7 L-38.55 59.7 Q-39.5 60.75 -40.9 60.75 -42.25 60.75 -43.2 59.7 L-43.25 59.65 -43.3 59.55 -45.05 60.4 -45.0 60.4 -47.3 60.75 Q-48.95 60.75 -50.35 60.05 -51.75 59.35 -52.75 58.1 L-52.8 58.05 -53.5 56.95 -53.5 57.45 Q-53.45 58.65 -54.45 59.75 L-54.5 59.8 Q-55.6 60.75 -56.9 60.75 L-58.45 60.35 -59.45 59.5 -60.1 58.35 -60.55 57.3 -60.6 57.25 -61.1 55.8 -66.85 55.8 -67.45 57.3 -68.45 59.55 -68.55 59.7 Q-69.35 60.75 -71.0 60.75 -72.3 60.75 -73.3 59.8 L-73.35 59.75 Q-74.45 58.7 -74.4 57.45 L-74.15 56.15 -73.7 54.95 -68.8 42.45 -68.8 42.5 -68.25 41.25 -67.9 40.3 -67.45 39.6 Q-66.95 38.8 -66.05 38.35 -65.2 37.8 -64.0 37.8 -62.8 37.8 -61.9 38.35 -61.05 38.8 -60.55 39.6 L-60.1 40.3 -59.8 40.85 -59.8 40.95 -59.25 42.45 -59.25 42.4 -54.55 53.95 -54.75 51.8 Q-54.75 47.8 -52.7 45.6 -50.65 43.15 -47.25 43.15 -45.35 43.15 -44.05 43.85 L-44.05 41.55 -43.9 40.3 -43.35 39.1 -43.3 39.05 -43.25 38.95 Q-42.45 37.85 -40.9 37.8 -39.3 37.8 -38.45 38.9 L-38.4 38.95 M-30.6 48.45 L-30.75 48.45 -30.7 48.5 -29.5 48.8 -29.8 48.6 -30.6 48.45 M-46.25 48.85 Q-46.75 48.85 -47.15 49.15 L-47.8 50.1 Q-48.15 50.9 -48.15 51.9 -48.15 52.95 -47.8 53.75 L-47.75 53.8 -47.05 54.75 -46.2 54.95 -45.3 54.7 -44.6 53.85 -44.6 53.8 Q-44.25 53.05 -44.25 51.9 -44.25 50.85 -44.6 50.1 L-44.6 50.05 Q-44.9 49.45 -45.3 49.2 L-45.35 49.15 Q-45.75 48.85 -46.25 48.85 M-64.75 49.85 L-63.3 49.85 -64.05 47.8 -64.75 49.85 M-96.05 48.45 Q-95.45 46.8 -94.35 45.65 -93.2 44.4 -91.6 43.75 -90.0 43.1 -88.1 43.1 -85.55 43.1 -83.7 44.25 -81.85 45.35 -80.9 47.1 -80.0 48.85 -80.0 50.65 -80.0 52.7 -81.05 53.45 -80.2 54.15 -80.2 55.45 -80.15 56.25 -80.7 57.3 L-80.75 57.4 -82.25 59.05 -82.3 59.05 Q-83.25 59.8 -84.65 60.3 L-87.85 60.75 Q-92.0 60.75 -94.25 58.3 -96.6 56.0 -96.6 51.9 -96.6 50.05 -96.05 48.5 L-96.05 48.45 M-30.95 54.55 L-32.1 54.25 -31.25 55.2 -30.0 55.4 -29.1 55.25 -29.05 55.35 -29.05 55.2 Q-29.65 54.85 -30.95 54.55 M-36.95 53.25 Q-36.45 52.8 -35.8 52.6 L-36.65 51.75 Q-37.65 50.6 -37.7 48.9 L-37.7 54.45 -37.05 53.35 -36.95 53.25 M-119.0 48.8 L-120.0 49.1 Q-120.45 49.4 -120.65 50.0 L-120.65 50.05 Q-121.0 50.85 -121.0 51.95 -121.0 53.0 -120.65 53.8 L-120.65 53.9 -120.0 54.8 -119.0 55.05 Q-118.1 55.05 -117.55 54.45 -116.9 53.5 -116.9 51.95 -116.9 50.35 -117.55 49.45 -118.1 48.8 -119.0 48.8 M-112.65 45.65 L-111.55 47.05 -111.7 46.2 Q-111.75 45.5 -111.25 44.7 L-111.2 44.65 Q-110.8 43.95 -110.0 43.55 L-108.5 43.15 Q-106.7 43.15 -106.0 44.3 -105.55 44.9 -105.05 46.45 L-105.1 46.4 -103.6 50.65 -101.9 46.0 -101.9 45.95 Q-101.35 44.6 -100.85 44.1 -100.15 43.15 -98.7 43.15 -97.4 43.15 -96.5 44.0 L-96.45 44.05 Q-95.55 44.95 -95.55 46.15 L-95.6 46.95 -95.65 47.1 -95.9 47.85 -95.95 48.0 -96.2 48.5 -96.2 48.55 -99.6 57.05 -99.6 57.1 -100.0 58.05 -100.0 58.0 -100.6 59.2 -100.7 59.3 -101.9 60.35 Q-102.6 60.75 -103.6 60.75 -104.95 60.75 -105.7 60.1 L-106.85 58.7 -106.85 58.8 -107.55 57.1 -107.6 57.1 -110.45 50.1 Q-110.3 50.95 -110.3 51.95 -110.3 53.85 -110.9 55.45 -111.5 57.1 -112.7 58.25 L-112.65 58.25 Q-113.8 59.45 -115.45 60.1 L-115.5 60.1 -119.0 60.75 Q-120.9 60.75 -122.45 60.1 -124.05 59.45 -125.2 58.25 -126.4 57.0 -127.0 55.45 L-127.25 54.65 -127.25 56.95 Q-127.25 58.75 -128.15 59.6 -129.1 60.7 -130.65 60.75 -132.15 60.75 -133.1 59.6 -134.0 58.75 -134.0 56.95 L-134.0 50.95 -134.05 49.3 -134.2 48.95 -134.45 48.95 -134.9 49.1 -135.4 49.65 -135.65 52.2 -135.65 56.95 Q-135.65 58.75 -136.55 59.6 -137.5 60.7 -139.05 60.75 -140.5 60.75 -141.45 59.65 L-141.5 59.6 Q-142.35 58.75 -142.35 56.95 L-142.35 51.25 -142.4 49.35 -142.55 48.95 -142.6 48.9 -142.75 48.95 Q-143.4 48.95 -143.65 49.3 -144.1 50.25 -144.1 52.1 L-144.1 56.95 Q-144.1 58.8 -145.0 59.65 L-145.0 59.7 Q-146.0 60.75 -147.45 60.75 -148.9 60.75 -149.9 59.7 L-149.9 59.65 Q-150.8 58.8 -150.8 56.95 L-150.8 52.0 Q-151.05 52.95 -151.7 53.45 -150.85 54.15 -150.85 55.45 -150.8 56.25 -151.35 57.3 L-151.4 57.4 -152.9 59.05 -152.95 59.05 Q-153.9 59.8 -155.3 60.3 L-158.5 60.75 Q-162.65 60.75 -164.9 58.3 -167.25 56.0 -167.25 51.9 -167.25 50.05 -166.7 48.5 L-166.7 48.45 Q-166.1 46.8 -165.0 45.65 -163.85 44.4 -162.25 43.75 -160.65 43.1 -158.75 43.1 -156.2 43.1 -154.35 44.25 -152.5 45.35 -151.55 47.1 -151.0 48.15 -150.8 49.2 L-150.8 46.7 Q-150.8 45.1 -150.0 44.2 L-149.95 44.15 Q-149.15 43.15 -147.6 43.15 -146.3 43.15 -145.35 44.1 L-145.2 44.25 Q-144.9 44.0 -144.6 43.9 L-144.55 43.85 Q-143.2 43.15 -141.55 43.15 -139.8 43.15 -138.45 43.9 L-137.45 44.6 -136.35 43.9 Q-135.0 43.15 -133.35 43.15 -131.5 43.15 -130.05 43.95 -128.6 44.8 -127.9 46.25 -127.35 47.25 -127.25 49.25 L-127.0 48.45 Q-126.4 46.8 -125.25 45.65 L-125.2 45.6 Q-124.1 44.45 -122.45 43.75 -120.9 43.15 -119.0 43.15 L-115.5 43.75 -115.45 43.75 Q-113.85 44.45 -112.7 45.6 L-112.65 45.65 M-88.2 48.6 Q-88.85 48.6 -89.25 49.05 L-89.3 49.1 -89.45 49.3 -86.9 49.3 -87.05 49.1 -87.05 49.05 Q-87.5 48.6 -88.2 48.6 M-158.85 48.6 Q-159.5 48.6 -159.9 49.05 L-159.95 49.1 -160.1 49.3 -157.55 49.3 -157.7 49.1 -157.7 49.05 Q-158.15 48.6 -158.85 48.6 M-156.35 54.4 L-156.3 54.3 -160.25 54.3 -159.55 55.15 -159.6 55.1 -158.6 55.35 -157.8 55.25 -157.2 55.05 -156.35 54.4 M-85.7 54.4 L-85.65 54.3 -89.6 54.3 -88.9 55.15 -88.95 55.1 -87.95 55.35 -87.15 55.25 -86.55 55.05 -85.7 54.4 M-185.7 42.05 L-185.45 40.3 Q-185.2 39.55 -184.7 39.15 -183.85 38.15 -181.85 38.15 L-175.5 38.15 -173.1 38.25 Q-171.9 38.4 -170.9 38.85 L-170.95 38.85 Q-169.8 39.35 -168.9 40.25 L-168.85 40.3 Q-167.95 41.2 -167.5 42.45 -167.05 43.6 -167.05 44.95 -167.05 47.75 -168.65 49.45 -169.35 50.2 -170.4 50.75 L-170.35 50.85 -170.3 50.9 Q-169.3 52.0 -168.45 53.4 L-168.45 53.35 Q-167.65 54.7 -167.2 55.8 -166.65 57.15 -166.7 57.65 -166.7 58.45 -167.15 59.25 L-167.2 59.35 -168.3 60.3 -168.4 60.35 Q-169.1 60.75 -170.1 60.75 -171.25 60.75 -172.0 60.2 L-172.1 60.15 -173.2 59.0 -173.2 58.95 -174.05 57.55 -175.65 54.95 -175.7 54.9 -177.0 52.95 -177.75 52.4 -177.85 52.3 -178.8 52.15 -178.8 56.85 Q-178.8 58.75 -179.75 59.7 -180.75 60.75 -182.25 60.75 -184.0 60.75 -184.9 59.55 L-184.85 59.55 Q-185.7 58.65 -185.7 56.85 L-185.7 42.05 M-176.7 44.05 L-178.8 44.05 -178.8 46.35 -176.85 46.35 -174.75 46.2 -174.15 45.85 Q-174.0 45.6 -174.0 45.2 -174.0 44.85 -174.15 44.65 L-174.15 44.6 Q-174.35 44.35 -174.6 44.25 L-174.65 44.2 -176.7 44.05" fill="#000000" fill-rule="evenodd" stroke="none"/>
    <path d="M-42.55 57.2 L-42.55 56.8 -44.0 58.2 -45.5 58.95 -47.3 59.25 Q-48.6 59.25 -49.7 58.7 L-51.6 57.15 Q-52.4 56.1 -52.8 54.75 L-53.25 51.8 Q-53.25 48.45 -51.6 46.55 -49.95 44.65 -47.25 44.65 -45.7 44.65 -44.65 45.2 -43.6 45.75 -42.55 46.85 L-42.55 41.55 -42.35 40.3 -42.1 39.9 Q-41.7 39.3 -40.9 39.3 -40.05 39.3 -39.6 39.85 L-39.35 40.3 Q-39.2 40.75 -39.2 41.35 L-39.2 57.2 Q-39.2 58.2 -39.65 58.7 -40.15 59.25 -40.9 59.25 -41.6 59.25 -42.1 58.7 -42.55 58.15 -42.55 57.2 M-24.05 54.55 Q-24.05 56.0 -24.75 57.1 -25.5 58.15 -26.9 58.7 L-30.35 59.25 Q-32.25 59.25 -33.65 58.65 -35.05 58.05 -35.7 57.15 -36.35 56.25 -36.35 55.4 -36.35 54.8 -35.95 54.35 -35.5 53.95 -34.85 53.95 -34.3 53.95 -34.0 54.2 L-33.4 55.0 -32.1 56.45 -30.0 56.9 Q-28.9 56.9 -28.25 56.45 -27.55 55.95 -27.55 55.35 -27.55 54.4 -28.25 53.95 -29.0 53.5 -30.6 53.1 L-33.65 52.15 Q-34.8 51.65 -35.5 50.8 -36.2 50.0 -36.2 48.8 -36.2 47.7 -35.55 46.75 -34.9 45.8 -33.65 45.2 -32.4 44.65 -30.6 44.65 L-28.1 44.95 Q-27.0 45.2 -26.25 45.7 -25.5 46.2 -25.15 46.8 -24.75 47.4 -24.75 47.95 -24.75 48.55 -25.15 48.95 -25.55 49.35 -26.35 49.35 L-27.25 49.05 -28.15 48.1 -29.1 47.25 -30.6 46.95 Q-31.6 46.95 -32.25 47.35 -32.9 47.75 -32.9 48.4 -32.9 48.95 -32.4 49.3 L-31.15 49.9 -28.9 50.5 Q-27.25 50.9 -26.2 51.45 -25.15 52.0 -24.6 52.8 -24.05 53.55 -24.05 54.55 M-59.2 56.7 L-60.1 54.3 -67.9 54.3 -68.85 56.75 -69.75 58.75 Q-70.15 59.25 -71.0 59.25 -71.75 59.25 -72.3 58.7 -72.9 58.15 -72.9 57.45 L-72.75 56.65 -72.3 55.5 -67.4 43.0 -66.85 41.7 -66.25 40.45 -66.1 40.3 -65.35 39.65 Q-64.8 39.3 -64.0 39.3 -63.2 39.3 -62.65 39.65 L-61.85 40.3 -61.8 40.4 -61.2 41.45 -60.65 42.95 -55.6 55.4 Q-55.0 56.8 -55.0 57.45 -55.0 58.1 -55.55 58.7 -56.15 59.25 -56.9 59.25 L-57.7 59.05 -58.25 58.6 -58.75 57.75 -59.2 56.7 M-49.65 51.9 Q-49.65 53.35 -49.15 54.4 L-47.95 55.95 Q-47.15 56.45 -46.2 56.45 -45.25 56.45 -44.5 55.95 -43.7 55.45 -43.25 54.45 -42.75 53.45 -42.75 51.9 -42.75 50.5 -43.25 49.45 -43.7 48.4 -44.5 47.9 -45.3 47.35 -46.25 47.35 -47.2 47.35 -48.0 47.9 -48.75 48.45 -49.2 49.5 -49.65 50.55 -49.65 51.9 M-66.9 51.35 L-61.15 51.35 -64.05 43.4 -66.9 51.35 M-115.4 51.95 Q-115.4 49.75 -116.4 48.5 -117.35 47.3 -119.0 47.3 -120.05 47.3 -120.85 47.85 -121.65 48.4 -122.05 49.45 -122.5 50.5 -122.5 51.95 -122.5 53.35 -122.05 54.4 -121.65 55.45 -120.85 56.0 -120.05 56.55 -119.0 56.55 -117.35 56.55 -116.4 55.35 -115.4 54.1 -115.4 51.95 M-111.8 51.95 Q-111.8 53.55 -112.3 54.9 -112.8 56.25 -113.75 57.2 -114.7 58.2 -116.05 58.7 -117.35 59.25 -119.0 59.25 -120.6 59.25 -121.9 58.7 -123.2 58.2 -124.15 57.2 -125.1 56.2 -125.6 54.9 -126.1 53.55 -126.1 51.95 -126.1 50.3 -125.6 48.95 -125.1 47.6 -124.15 46.65 -123.25 45.7 -121.9 45.15 -120.6 44.65 -119.0 44.65 L-116.05 45.15 Q-114.7 45.7 -113.75 46.65 -112.8 47.65 -112.3 49.0 -111.8 50.3 -111.8 51.95 M-106.5 46.9 L-103.6 55.0 -100.5 46.5 -99.75 45.1 Q-99.4 44.65 -98.7 44.65 -98.0 44.65 -97.5 45.1 -97.05 45.55 -97.05 46.15 L-97.1 46.7 -97.3 47.3 -97.6 47.95 -101.0 56.5 -101.4 57.4 -101.9 58.4 -102.6 59.0 -103.6 59.25 -104.8 58.9 -105.5 58.1 -106.2 56.5 -109.65 48.05 -109.9 47.4 -110.1 46.75 -110.2 46.2 -109.95 45.45 -109.35 44.9 -108.5 44.65 Q-107.6 44.65 -107.25 45.15 -106.9 45.65 -106.5 46.9 M-84.45 52.8 L-91.45 52.8 Q-91.45 54.05 -90.95 54.95 L-89.7 56.4 -87.95 56.85 -86.75 56.7 Q-86.2 56.55 -85.7 56.25 L-84.8 55.55 -83.7 54.55 -82.95 54.3 Q-82.35 54.3 -82.05 54.6 -81.7 54.9 -81.7 55.45 -81.7 55.95 -82.05 56.6 L-83.2 57.85 Q-84.0 58.45 -85.15 58.85 L-87.85 59.25 Q-91.3 59.25 -93.2 57.25 -95.1 55.3 -95.1 51.9 -95.1 50.3 -94.65 48.95 -94.15 47.6 -93.25 46.65 -92.35 45.65 -91.05 45.15 L-88.1 44.6 Q-86.0 44.6 -84.5 45.5 -83.0 46.4 -82.25 47.8 -81.5 49.2 -81.5 50.65 -81.5 52.0 -82.25 52.4 L-84.45 52.8 M-91.45 50.8 L-84.95 50.8 Q-85.1 48.95 -85.95 48.05 -86.8 47.1 -88.2 47.1 -89.55 47.1 -90.4 48.05 -91.25 48.95 -91.45 50.8 M-155.1 52.8 L-162.1 52.8 Q-162.1 54.05 -161.6 54.95 -161.15 55.9 -160.35 56.4 L-158.6 56.85 -157.4 56.7 -156.35 56.25 -155.45 55.55 -154.35 54.55 -153.6 54.3 Q-153.0 54.3 -152.7 54.6 -152.35 54.9 -152.35 55.45 -152.35 55.95 -152.7 56.6 L-153.85 57.85 Q-154.65 58.45 -155.8 58.85 L-158.5 59.25 Q-161.95 59.25 -163.85 57.25 -165.75 55.3 -165.75 51.9 -165.75 50.3 -165.3 48.95 -164.8 47.6 -163.9 46.65 -163.0 45.65 -161.7 45.15 -160.35 44.6 -158.75 44.6 -156.65 44.6 -155.15 45.5 -153.65 46.4 -152.9 47.8 -152.15 49.2 -152.15 50.65 -152.15 52.0 -152.9 52.4 -153.7 52.8 -155.1 52.8 M-162.1 50.8 L-155.6 50.8 Q-155.75 48.95 -156.6 48.05 -157.45 47.1 -158.85 47.1 -160.2 47.1 -161.05 48.05 -161.9 48.95 -162.1 50.8 M-137.15 52.2 L-137.15 56.95 Q-137.15 58.1 -137.7 58.65 -138.2 59.25 -139.05 59.25 -139.85 59.25 -140.35 58.65 -140.85 58.1 -140.85 56.95 L-140.85 51.25 -140.95 49.15 Q-141.05 48.4 -141.45 47.95 -141.85 47.45 -142.75 47.45 -144.5 47.45 -145.05 48.65 -145.6 49.85 -145.6 52.1 L-145.6 56.95 Q-145.6 58.1 -146.1 58.65 -146.65 59.25 -147.45 59.25 -148.25 59.25 -148.8 58.65 -149.3 58.1 -149.3 56.95 L-149.3 46.7 Q-149.3 45.7 -148.85 45.15 -148.4 44.65 -147.6 44.65 -146.9 44.65 -146.4 45.15 -145.9 45.65 -145.9 46.5 L-145.9 46.85 Q-144.95 45.7 -143.9 45.2 -142.85 44.65 -141.55 44.65 -140.2 44.65 -139.2 45.2 -138.25 45.75 -137.6 46.85 -136.7 45.75 -135.65 45.2 -134.6 44.65 -133.35 44.65 -131.9 44.65 -130.8 45.25 -129.75 45.85 -129.25 46.9 -128.75 47.9 -128.75 49.95 L-128.75 56.95 Q-128.75 58.1 -129.3 58.65 -129.8 59.25 -130.65 59.25 -131.45 59.25 -131.95 58.65 -132.5 58.1 -132.5 56.95 L-132.5 50.95 -132.6 49.1 Q-132.7 48.4 -133.1 47.9 -133.55 47.45 -134.45 47.45 -135.15 47.45 -135.8 47.85 -136.4 48.3 -136.8 49.0 -137.15 49.9 -137.15 52.2 M-178.95 50.65 L-180.3 50.65 -180.3 56.85 Q-180.3 58.05 -180.85 58.65 -181.4 59.25 -182.25 59.25 -183.2 59.25 -183.7 58.6 -184.2 58.0 -184.2 56.85 L-184.2 42.05 Q-184.2 40.85 -183.75 40.3 L-183.65 40.2 Q-183.1 39.65 -181.85 39.65 L-175.5 39.65 -173.25 39.75 -171.55 40.2 -171.35 40.3 -169.95 41.3 Q-169.25 42.0 -168.9 42.95 -168.55 43.9 -168.55 44.95 -168.55 47.1 -169.75 48.4 -170.95 49.65 -173.45 50.2 -172.4 50.75 -171.45 51.85 L-169.75 54.15 Q-169.0 55.35 -168.6 56.35 L-168.2 57.65 Q-168.2 58.05 -168.45 58.45 -168.7 58.8 -169.1 59.0 L-170.1 59.25 -171.2 58.95 -171.95 58.15 -172.8 56.75 -174.4 54.15 -175.9 51.95 Q-176.55 51.2 -177.25 50.95 L-178.95 50.65 M-176.7 42.55 L-180.3 42.55 -180.3 47.85 -176.85 47.85 -174.45 47.65 Q-173.5 47.4 -173.0 46.8 -172.5 46.2 -172.5 45.2 -172.5 44.4 -172.9 43.8 -173.3 43.15 -174.05 42.85 L-176.7 42.55" fill="#e9faff" fill-rule="evenodd" stroke="none"/>
    <path d="M164.1 53.25 L157.15 53.25 Q157.15 54.45 157.65 55.4 158.1 56.3 158.9 56.8 L160.65 57.25 161.8 57.1 162.85 56.65 163.75 55.95 164.85 54.95 Q165.1 54.7 165.65 54.7 166.2 54.7 166.5 55.0 166.85 55.3 166.85 55.85 L166.5 57.0 165.35 58.25 163.4 59.25 160.75 59.65 Q157.3 59.65 155.4 57.65 153.5 55.7 153.5 52.35 153.5 50.75 153.95 49.4 154.4 48.05 155.3 47.05 156.25 46.1 157.55 45.6 158.85 45.05 160.5 45.05 162.6 45.05 164.1 45.95 165.6 46.85 166.3 48.25 167.05 49.65 167.05 51.1 167.05 52.45 166.3 52.85 L164.1 53.25 M181.6 54.95 Q181.6 56.45 180.9 57.5 180.15 58.55 178.75 59.1 177.35 59.65 175.35 59.65 173.4 59.65 172.05 59.05 170.65 58.45 170.0 57.55 169.35 56.7 169.35 55.8 169.35 55.2 169.75 54.8 170.2 54.35 170.85 54.35 171.4 54.35 171.7 54.65 L172.25 55.4 Q172.8 56.35 173.6 56.85 L175.65 57.3 Q176.75 57.3 177.45 56.85 178.1 56.35 178.1 55.75 178.1 54.8 177.4 54.35 176.7 53.95 175.05 53.55 L172.05 52.6 170.2 51.25 Q169.5 50.4 169.5 49.2 169.5 48.15 170.15 47.2 170.8 46.25 172.05 45.65 173.3 45.1 175.05 45.1 L177.55 45.4 Q178.65 45.65 179.4 46.15 L180.55 47.25 180.9 48.4 Q180.9 49.0 180.5 49.4 180.1 49.8 179.35 49.8 178.8 49.8 178.4 49.45 L177.5 48.5 176.55 47.7 Q176.0 47.35 175.05 47.35 174.1 47.35 173.45 47.8 172.8 48.2 172.8 48.8 172.8 49.4 173.3 49.75 173.75 50.1 174.55 50.35 L176.75 50.9 Q178.4 51.3 179.45 51.9 180.5 52.45 181.05 53.2 181.6 53.95 181.6 54.95 M185.75 51.0 L185.35 44.7 185.25 42.1 Q185.25 41.0 185.8 40.4 186.4 39.8 187.3 39.8 188.45 39.8 188.8 40.55 189.2 41.35 189.2 42.8 L189.1 44.55 188.55 51.0 Q188.45 52.15 188.15 52.8 187.85 53.4 187.15 53.4 186.45 53.4 186.15 52.8 185.9 52.2 185.75 51.0 M187.25 59.6 Q186.45 59.6 185.85 59.1 185.25 58.55 185.25 57.65 185.25 56.85 185.8 56.25 186.4 55.7 187.2 55.7 188.05 55.7 188.6 56.25 189.2 56.85 189.2 57.65 189.2 58.55 188.6 59.1 188.0 59.6 187.25 59.6 M157.15 51.2 L163.6 51.2 Q163.5 49.4 162.65 48.45 161.75 47.55 160.35 47.55 159.05 47.55 158.2 48.5 157.3 49.4 157.15 51.2 M123.5 57.6 Q122.2 58.6 121.0 59.15 L118.25 59.65 Q116.9 59.65 115.85 59.1 114.8 58.55 114.25 57.6 113.65 56.7 113.65 55.6 113.65 54.15 114.6 53.1 115.55 52.05 117.15 51.7 L118.85 51.35 121.15 50.85 123.25 50.3 Q123.2 48.9 122.7 48.2 122.15 47.55 120.6 47.55 L118.55 47.95 117.35 49.05 116.65 50.1 115.8 50.3 Q115.2 50.3 114.75 49.95 114.3 49.55 114.3 48.95 114.3 48.0 115.0 47.1 115.65 46.2 117.05 45.65 118.5 45.05 120.6 45.05 122.95 45.05 124.3 45.65 125.65 46.2 126.2 47.4 126.75 48.6 126.75 50.6 L126.75 52.7 126.75 54.65 Q126.75 55.65 127.05 56.75 L127.4 58.15 126.9 59.2 125.7 59.65 Q125.15 59.65 124.6 59.1 L123.5 57.6 M142.25 52.6 L142.25 57.4 Q142.25 58.5 141.7 59.05 141.2 59.65 140.4 59.65 139.55 59.65 139.05 59.05 138.55 58.5 138.55 57.4 L138.55 51.7 138.45 49.6 137.95 48.35 Q137.55 47.9 136.7 47.9 134.95 47.9 134.4 49.1 133.8 50.3 133.8 52.55 L133.8 57.4 Q133.8 58.5 133.3 59.05 132.8 59.65 132.0 59.65 131.15 59.65 130.65 59.05 130.15 58.5 130.15 57.4 L130.15 47.15 Q130.15 46.15 130.6 45.6 131.05 45.1 131.85 45.1 132.55 45.1 133.05 45.6 133.55 46.1 133.55 46.95 L133.55 47.3 Q134.45 46.15 135.55 45.65 136.6 45.1 137.9 45.1 139.25 45.1 140.2 45.65 141.15 46.2 141.8 47.3 142.7 46.2 143.75 45.65 144.8 45.1 146.05 45.1 147.5 45.1 148.55 45.7 149.6 46.25 150.15 47.35 150.6 48.3 150.6 50.4 L150.6 57.4 Q150.6 58.5 150.1 59.05 149.6 59.65 148.75 59.65 147.95 59.65 147.4 59.05 146.9 58.5 146.9 57.4 L146.9 51.35 146.8 49.5 Q146.7 48.85 146.25 48.35 145.85 47.9 144.95 47.9 144.25 47.9 143.6 48.3 143.0 48.7 142.65 49.45 142.25 50.35 142.25 52.6 M111.0 51.5 L111.0 55.2 110.85 56.35 110.3 57.15 109.3 57.8 105.95 59.2 102.45 59.65 Q100.25 59.65 98.4 58.95 96.6 58.25 95.3 56.95 94.05 55.65 93.35 53.85 92.65 52.0 92.65 49.7 92.65 47.45 93.35 45.6 94.0 43.75 95.3 42.45 96.6 41.15 98.45 40.45 100.3 39.8 102.65 39.8 L106.1 40.3 Q107.6 40.8 108.5 41.6 L109.9 43.25 Q110.4 44.15 110.4 44.8 110.4 45.55 109.85 46.1 109.3 46.6 108.55 46.6 L107.75 46.4 107.1 45.85 105.85 44.15 Q105.35 43.55 104.55 43.15 L102.35 42.8 Q101.05 42.8 99.95 43.25 98.9 43.7 98.15 44.6 97.4 45.45 97.0 46.75 96.6 48.05 96.6 49.6 96.6 53.0 98.15 54.8 99.7 56.6 102.5 56.6 L105.0 56.25 107.4 55.25 107.4 52.15 104.4 52.15 102.75 51.8 Q102.2 51.5 102.2 50.7 102.2 50.05 102.7 49.65 103.15 49.2 103.95 49.2 L108.35 49.2 109.7 49.35 110.65 50.0 Q111.0 50.5 111.0 51.5 M123.25 52.45 L120.95 53.05 118.9 53.55 Q118.3 53.65 117.8 54.1 117.25 54.55 117.25 55.35 117.25 56.15 117.9 56.7 118.5 57.3 119.5 57.3 L121.45 56.85 122.75 55.6 Q123.25 54.8 123.25 52.95 L123.25 52.45 M79.6 57.6 L77.1 59.15 Q75.85 59.65 74.35 59.65 73.0 59.65 71.95 59.1 70.9 58.55 70.35 57.6 69.75 56.7 69.75 55.6 69.75 54.15 70.7 53.1 71.65 52.05 73.25 51.7 L74.95 51.35 77.25 50.85 79.35 50.3 Q79.3 48.9 78.8 48.2 78.25 47.55 76.7 47.55 L74.65 47.95 Q73.95 48.3 73.45 49.05 L72.75 50.1 71.9 50.3 Q71.3 50.3 70.85 49.95 70.4 49.55 70.4 48.95 70.4 48.0 71.1 47.1 71.75 46.2 73.15 45.65 L76.7 45.05 Q79.05 45.05 80.4 45.65 81.75 46.2 82.3 47.4 82.85 48.6 82.85 50.6 L82.85 52.7 82.85 54.65 Q82.85 55.65 83.15 56.75 L83.5 58.15 83.0 59.2 Q82.45 59.65 81.8 59.65 81.25 59.65 80.7 59.1 L79.6 57.6 M49.55 45.4 L49.95 45.4 49.95 43.25 50.0 41.9 Q50.05 41.4 50.25 41.05 L50.85 40.45 51.7 40.25 Q52.4 40.25 52.95 40.75 L53.4 41.6 53.5 42.95 53.5 45.4 54.8 45.4 Q55.6 45.4 56.0 45.75 56.4 46.15 56.4 46.7 56.4 47.4 55.8 47.7 L54.2 48.0 53.5 48.0 53.5 54.55 53.6 55.85 53.9 56.6 54.7 56.85 55.55 56.75 56.4 56.65 Q56.85 56.65 57.2 57.0 57.55 57.35 57.55 57.85 57.55 58.7 56.6 59.15 L53.9 59.65 Q52.2 59.65 51.35 59.05 50.45 58.5 50.2 57.5 49.95 56.5 49.95 54.85 L49.95 48.0 49.45 48.0 Q48.7 48.0 48.3 47.6 47.9 47.25 47.9 46.7 47.9 46.15 48.3 45.75 48.75 45.4 49.55 45.4 M43.1 58.15 L40.5 54.35 37.85 58.15 36.9 59.3 35.85 59.65 Q35.2 59.65 34.7 59.2 34.2 58.8 34.2 58.25 34.2 57.65 34.95 56.6 L38.2 52.0 35.3 48.1 Q34.55 47.15 34.55 46.45 34.55 45.9 35.0 45.5 35.45 45.1 36.2 45.1 36.8 45.1 37.25 45.45 L38.2 46.55 40.5 49.75 42.75 46.55 Q43.3 45.75 43.75 45.45 44.15 45.1 44.75 45.1 45.45 45.1 45.95 45.5 46.4 45.9 46.4 46.45 L46.2 47.25 45.6 48.1 42.75 52.0 46.0 56.6 Q46.75 57.7 46.75 58.25 46.75 58.8 46.3 59.2 45.8 59.65 45.1 59.65 44.5 59.65 44.1 59.25 L43.1 58.15 M62.35 54.45 L62.35 57.45 Q62.35 58.55 61.85 59.1 61.3 59.65 60.55 59.65 59.75 59.65 59.25 59.1 58.75 58.55 58.75 57.45 L58.75 47.5 Q58.75 45.1 60.5 45.1 61.4 45.1 61.8 45.65 62.2 46.2 62.25 47.3 62.85 46.2 63.55 45.65 64.2 45.1 65.35 45.1 66.45 45.1 67.55 45.65 68.6 46.2 68.6 47.15 68.6 47.8 68.15 48.25 67.7 48.65 67.15 48.65 L66.2 48.4 64.9 48.15 Q64.1 48.15 63.6 48.6 63.1 49.0 62.85 49.8 62.55 50.6 62.45 51.75 L62.35 54.45 M30.35 43.1 L21.6 43.1 21.6 47.8 29.65 47.8 Q30.55 47.8 31.0 48.2 31.4 48.6 31.4 49.25 31.4 49.95 31.0 50.35 30.55 50.75 29.65 50.75 L21.6 50.75 21.6 56.2 30.65 56.2 Q31.55 56.2 32.05 56.65 32.5 57.05 32.5 57.75 32.5 58.45 32.05 58.9 31.55 59.3 30.65 59.3 L20.1 59.3 Q18.8 59.3 18.25 58.75 17.7 58.15 17.7 56.9 L17.7 42.5 Q17.7 41.65 17.95 41.15 18.2 40.6 18.75 40.35 L20.1 40.1 30.35 40.1 Q31.25 40.1 31.75 40.5 32.2 40.95 32.2 41.6 32.2 42.3 31.75 42.7 31.25 43.1 30.35 43.1 M79.35 52.45 L77.05 53.05 75.0 53.55 Q74.4 53.65 73.9 54.1 73.35 54.55 73.35 55.35 73.35 56.15 74.0 56.7 74.6 57.3 75.6 57.3 L77.55 56.85 78.85 55.6 Q79.35 54.8 79.35 52.95 L79.35 52.45" fill="#ffffff" fill-rule="evenodd" stroke="none"/>
  </g>
</svg>
