<?xml version="1.0" encoding="UTF-8" standalone="no"?>
<svg xmlns:xlink="http://www.w3.org/1999/xlink" height="152.6px" width="433.05px" xmlns="http://www.w3.org/2000/svg">
  <g transform="matrix(1.0, 0.0, 0.0, 1.0, 216.5, 76.3)">
    <path d="M-208.75 72.25 L208.8 72.25 Q210.05 72.25 210.95 71.4 211.8 70.5 211.8 69.25 L211.8 -69.25 Q211.8 -70.5 210.95 -71.35 210.05 -72.25 208.8 -72.25 L-208.75 -72.25 Q-210.0 -72.25 -210.85 -71.35 -211.75 -70.5 -211.75 -69.25 L-211.75 69.25 Q-211.75 70.5 -210.85 71.4 -210.0 72.25 -208.75 72.25 M-213.45 -73.25 L213.5 -73.25 213.5 73.25 -213.45 73.25 -213.45 -73.25" fill="#ffffff" fill-rule="evenodd" stroke="none"/>
    <path d="M-208.75 72.25 Q-210.0 72.25 -210.85 71.4 -211.75 70.5 -211.75 69.25 L-211.75 -69.25 Q-211.75 -70.5 -210.85 -71.35 -210.0 -72.25 -208.75 -72.25 L208.8 -72.25 Q210.05 -72.25 210.95 -71.35 211.8 -70.5 211.8 -69.25 L211.8 69.25 Q211.8 70.5 210.95 71.4 210.05 72.25 208.8 72.25 L-208.75 72.25 M-216.45 -76.25 L216.5 -76.25 216.5 76.25 -216.45 76.25 -216.45 -76.25 M-208.75 -69.25 L-208.75 69.25 208.8 69.25 208.8 -69.25 -208.75 -69.25 M-213.45 -73.25 L-213.45 73.25 213.5 73.25 213.5 -73.25 -213.45 -73.25" fill="url(#gradient0)" fill-rule="evenodd" stroke="none"/>
    <path d="M-216.45 -76.25 L216.5 -76.25 216.5 76.25 -216.45 76.25 -216.45 -76.25 M-208.75 -69.25 L208.8 -69.25 208.8 69.25 -208.75 69.25 -208.75 -69.25" fill="none" stroke="#afafaf" stroke-linecap="round" stroke-linejoin="round" stroke-width="0.05"/>
  </g>
  <defs>
    <linearGradient gradientTransform="matrix(0.2768, 0.0996, -0.06, 0.1666, 13.2, 4.75)" gradientUnits="userSpaceOnUse" id="gradient0" spreadMethod="pad" x1="-819.2" x2="819.2">
      <stop offset="0.0" stop-color="#7effa6"/>
      <stop offset="0.13333333333333333" stop-color="#83ffed"/>
      <stop offset="0.2823529411764706" stop-color="#12ebff"/>
      <stop offset="0.4117647058823529" stop-color="#1290ff"/>
      <stop offset="0.5568627450980392" stop-color="#0033ff"/>
      <stop offset="0.7098039215686275" stop-color="#620eff"/>
      <stop offset="0.8470588235294118" stop-color="#bf10ff"/>
      <stop offset="0.9607843137254902" stop-color="#ff2cfd"/>
    </linearGradient>
  </defs>
</svg>
