<?xml version="1.0" encoding="UTF-8" standalone="no"?>
<svg xmlns:xlink="http://www.w3.org/1999/xlink" height="22.25px" width="108.1px" xmlns="http://www.w3.org/2000/svg">
  <g transform="matrix(1.0, 0.0, 0.0, 1.0, -119.8, 12.3)">
    <path d="M138.95 -3.5 L138.1 -2.95 138.25 -2.95 Q139.25 -2.7 139.95 -1.75 L140.4 -0.95 140.7 -2.0 Q141.3 -3.6 142.4 -4.7 L142.45 -4.75 145.1 -6.5 Q146.65 -7.1 148.5 -7.1 150.35 -7.1 151.9 -6.5 153.55 -5.85 154.65 -4.65 L154.6 -4.7 Q155.75 -3.6 156.35 -2.0 L156.4 -1.95 Q156.9 -0.4 156.9 1.4 156.9 3.2 156.4 4.8 L156.35 4.85 Q155.75 6.45 154.65 7.6 L154.6 7.65 Q153.4 8.75 151.9 9.35 150.4 9.95 148.5 9.95 146.6 9.95 145.1 9.35 143.55 8.7 142.4 7.55 L142.45 7.55 Q141.25 6.35 140.7 4.8 L140.7 4.85 140.6 4.55 140.4 5.8 140.35 5.85 139.5 7.1 139.45 7.2 138.15 8.05 138.2 8.0 Q136.35 9.05 134.6 9.5 L130.8 9.95 Q128.35 9.95 126.4 9.2 124.3 8.45 122.85 6.95 121.35 5.5 120.6 3.35 L120.6 3.4 Q119.8 1.35 119.8 -1.15 119.8 -3.65 120.55 -5.65 121.3 -7.8 122.8 -9.25 124.35 -10.75 126.45 -11.5 L126.4 -11.5 Q128.45 -12.3 131.0 -12.3 L134.8 -11.65 134.9 -11.65 Q136.6 -11.1 137.7 -10.1 L137.65 -10.15 Q138.8 -9.2 139.4 -8.1 140.05 -6.85 140.0 -5.9 140.0 -4.65 139.1 -3.65 L138.95 -3.5 M129.05 -0.2 Q129.05 -1.5 130.15 -2.35 130.95 -3.15 132.25 -3.15 L135.0 -3.15 134.1 -4.0 134.05 -4.1 133.0 -5.6 132.2 -6.15 132.3 -6.1 130.75 -6.35 129.0 -6.0 129.05 -6.0 Q128.3 -5.7 127.8 -5.1 127.25 -4.5 127.0 -3.6 L127.0 -3.55 Q126.65 -2.5 126.65 -1.25 126.65 1.4 127.8 2.85 128.9 4.05 130.85 4.05 L132.9 3.8 134.15 3.3 134.15 2.7 132.7 2.7 130.4 2.25 130.3 2.2 Q129.05 1.45 129.05 -0.2 M150.45 1.4 Q150.45 -0.1 149.85 -0.95 149.3 -1.55 148.5 -1.55 L147.5 -1.25 147.6 -1.35 146.9 -0.35 146.9 -0.45 Q146.6 0.35 146.6 1.4 146.6 2.5 146.9 3.25 147.1 3.8 147.55 4.15 L147.6 4.15 148.5 4.4 Q149.3 4.4 149.85 3.8 150.45 2.9 150.45 1.4 M171.7 -6.15 L170.15 -6.15 170.15 -4.3 172.1 -4.3 173.7 -4.5 173.8 -4.5 174.2 -4.85 174.15 -4.8 174.25 -5.3 174.15 -5.75 174.1 -5.8 171.7 -6.15 M163.35 -8.15 Q163.35 -10.2 164.4 -11.0 165.25 -11.95 167.15 -11.95 L173.15 -11.95 175.75 -11.75 Q177.0 -11.6 178.05 -10.9 L179.55 -9.6 180.6 -7.95 180.65 -7.8 180.95 -5.8 Q180.95 -3.5 179.55 -1.95 181.5 -0.5 181.8 2.0 L182.4 1.15 183.1 0.5 182.75 0.25 Q181.7 -0.55 181.7 -1.9 181.65 -3.25 182.65 -4.5 L182.65 -4.55 Q183.5 -5.75 185.35 -6.5 186.9 -7.15 189.3 -7.15 191.95 -7.15 193.5 -6.45 195.35 -5.7 196.1 -4.05 L196.15 -4.0 Q196.75 -2.65 196.75 -0.3 197.0 -1.7 197.6 -2.85 L197.65 -2.9 Q198.65 -4.95 200.65 -6.05 L200.6 -6.05 Q202.45 -7.15 205.05 -7.15 L208.05 -6.65 208.1 -6.65 Q209.4 -6.15 210.35 -5.45 L210.45 -5.35 211.9 -3.7 211.95 -3.65 Q212.6 -2.55 212.55 -1.6 212.55 -0.4 211.65 0.5 L211.6 0.6 210.5 1.25 Q211.35 1.45 212.0 2.25 212.75 3.15 212.7 4.2 212.7 5.1 212.2 6.2 L212.2 6.25 210.6 8.15 Q209.6 9.0 208.15 9.5 L204.95 9.95 Q201.0 9.95 198.85 7.65 L198.8 7.65 Q197.2 5.95 196.75 3.45 L196.75 3.65 Q196.75 4.4 197.05 5.25 L197.05 5.3 197.4 7.05 Q197.45 8.25 196.4 9.2 L196.35 9.25 Q195.4 9.95 194.25 9.95 193.15 10.0 192.15 9.0 L191.8 8.6 190.3 9.4 190.25 9.4 187.05 9.95 Q185.3 9.95 184.05 9.3 L184.0 9.3 Q182.6 8.5 181.9 7.3 181.4 6.5 181.25 5.65 L180.8 6.45 Q179.7 8.1 177.95 8.9 L175.6 9.5 172.85 9.65 167.15 9.65 Q165.1 9.65 164.3 8.6 163.35 7.75 163.35 5.85 L163.35 -8.15 M190.15 -1.65 L189.3 -1.75 188.1 -1.55 188.0 -1.5 187.5 -1.05 189.5 -1.5 189.55 -1.5 190.15 -1.65 190.2 -1.65 190.15 -1.75 190.15 -1.65 M207.8 1.95 Q208.2 1.5 208.75 1.35 L207.85 0.85 206.9 -0.2 206.85 -0.2 205.9 -1.3 205.0 -1.5 Q204.2 -1.5 203.75 -0.9 L203.75 -0.85 Q203.1 0.0 203.1 1.5 L203.3 2.85 203.75 3.8 204.3 4.2 205.05 4.35 206.05 4.15 206.85 3.2 206.9 3.1 207.8 1.95 M219.45 -8.6 L219.45 -3.9 220.8 -5.3 220.75 -5.3 222.05 -6.55 222.1 -6.55 Q222.75 -7.1 223.85 -7.1 225.1 -7.1 225.95 -6.3 L226.0 -6.25 Q226.85 -5.45 226.85 -4.2 227.05 -2.9 225.0 -1.05 L224.05 -0.15 226.95 4.35 227.0 4.4 227.55 5.35 227.6 5.45 227.9 6.7 Q227.9 8.1 227.1 9.0 L227.0 9.05 Q226.15 9.95 224.8 9.95 223.45 9.95 222.75 9.15 L222.85 9.25 221.6 7.75 221.6 7.7 219.45 4.15 219.45 6.4 Q219.45 8.1 218.45 9.0 217.5 9.95 216.2 9.95 214.65 9.95 213.85 8.95 L213.8 8.9 Q213.0 8.05 213.0 6.35 L213.0 -8.4 Q213.0 -10.15 213.75 -11.05 214.55 -12.25 216.2 -12.3 217.75 -12.3 218.6 -11.2 219.45 -10.35 219.45 -8.6 M190.1 3.9 L190.25 3.55 189.95 3.6 188.05 4.0 187.55 4.25 187.55 4.3 187.7 4.55 188.25 4.7 189.5 4.4 189.45 4.45 190.1 3.85 190.1 3.9 M172.55 1.4 L170.15 1.4 170.15 3.8 172.7 3.8 Q174.8 3.8 175.0 2.55 175.0 2.0 174.7 1.75 L172.55 1.4" fill="#000000" fill-rule="evenodd" stroke="none"/>
    <path d="M139.1 0.6 L139.1 4.15 138.95 5.3 138.45 6.05 137.45 6.7 Q135.8 7.65 134.2 8.05 L130.8 8.45 126.9 7.8 Q125.15 7.15 123.9 5.9 122.65 4.65 122.0 2.85 121.3 1.05 121.3 -1.15 121.3 -3.35 121.95 -5.15 122.6 -6.95 123.85 -8.2 125.15 -9.45 126.95 -10.1 128.75 -10.8 131.0 -10.8 132.9 -10.8 134.35 -10.25 L136.7 -9.0 138.05 -7.4 138.5 -5.9 Q138.5 -5.2 138.0 -4.65 137.45 -4.2 136.7 -4.2 L135.95 -4.35 Q135.55 -4.55 135.3 -4.9 L134.15 -6.55 132.85 -7.5 130.75 -7.85 128.4 -7.4 Q127.4 -6.95 126.65 -6.1 125.9 -5.25 125.55 -4.0 125.15 -2.75 125.15 -1.25 125.15 2.0 126.65 3.8 128.15 5.55 130.85 5.55 L133.3 5.2 135.65 4.25 135.65 1.2 132.7 1.2 131.1 0.9 Q130.55 0.55 130.55 -0.2 130.55 -0.8 131.05 -1.2 131.5 -1.65 132.25 -1.65 L136.55 -1.65 137.85 -1.5 138.75 -0.85 Q139.1 -0.4 139.1 0.6 M155.4 1.4 Q155.4 2.95 154.95 4.3 154.45 5.6 153.55 6.55 152.6 7.45 151.35 7.95 L148.5 8.45 145.65 7.95 Q144.4 7.45 143.5 6.5 142.55 5.55 142.1 4.3 141.6 3.0 141.6 1.4 141.6 -0.15 142.1 -1.45 142.6 -2.75 143.5 -3.7 144.4 -4.6 145.65 -5.1 L148.5 -5.6 151.35 -5.1 153.55 -3.65 Q154.45 -2.75 154.95 -1.45 155.4 -0.15 155.4 1.4 M151.95 1.4 Q151.95 -0.7 151.0 -1.9 150.05 -3.05 148.5 -3.05 147.5 -3.05 146.7 -2.55 145.95 -2.0 145.5 -1.0 145.1 0.05 145.1 1.4 145.1 2.8 145.5 3.8 145.9 4.8 146.7 5.35 147.45 5.9 148.5 5.9 150.05 5.9 151.0 4.7 151.95 3.5 151.95 1.4 M172.85 8.15 L167.15 8.15 Q165.9 8.15 165.4 7.6 164.85 7.05 164.85 5.85 L164.85 -8.15 Q164.85 -9.4 165.4 -9.9 165.95 -10.45 167.15 -10.45 L173.15 -10.45 175.5 -10.3 Q176.45 -10.15 177.25 -9.65 L178.4 -8.65 179.2 -7.35 179.45 -5.8 Q179.45 -3.0 176.65 -1.7 180.3 -0.55 180.3 2.85 180.3 4.4 179.5 5.65 178.7 6.9 177.35 7.5 L175.4 8.0 172.85 8.15 M168.65 -7.65 L168.65 -2.8 172.1 -2.8 174.25 -3.1 Q175.0 -3.35 175.45 -4.1 L175.75 -5.3 Q175.75 -6.7 174.75 -7.15 L171.7 -7.65 168.65 -7.65 M172.55 -0.1 L168.65 -0.1 168.65 5.3 172.7 5.3 Q176.5 5.3 176.5 2.55 176.5 1.15 175.5 0.5 174.5 -0.1 172.55 -0.1 M192.1 6.5 L189.7 8.0 187.05 8.45 184.7 7.95 Q183.7 7.4 183.15 6.5 182.6 5.6 182.6 4.55 182.6 3.15 183.5 2.15 184.4 1.15 185.95 0.8 L187.6 0.45 189.85 -0.05 191.85 -0.6 Q191.8 -1.95 191.35 -2.6 190.85 -3.25 189.3 -3.25 187.95 -3.25 187.3 -2.85 186.65 -2.5 186.15 -1.75 L185.5 -0.8 Q185.3 -0.55 184.65 -0.55 184.05 -0.55 183.65 -0.95 183.2 -1.3 183.2 -1.9 183.2 -2.8 183.85 -3.65 184.5 -4.55 185.9 -5.1 L189.3 -5.65 Q191.6 -5.65 192.9 -5.1 194.2 -4.55 194.75 -3.4 195.25 -2.25 195.25 -0.3 L195.25 1.75 195.25 3.65 Q195.25 4.65 195.6 5.7 L195.9 7.05 Q195.9 7.6 195.4 8.05 194.9 8.45 194.25 8.45 193.7 8.45 193.2 7.95 L192.1 6.5 M211.2 4.2 L210.85 5.55 209.65 6.95 Q208.85 7.65 207.65 8.05 L204.95 8.45 Q201.7 8.45 199.9 6.6 198.1 4.7 198.1 1.55 198.1 -0.6 198.95 -2.2 199.75 -3.85 201.35 -4.75 202.9 -5.65 205.05 -5.65 L207.55 -5.25 209.45 -4.25 210.65 -2.9 Q211.05 -2.2 211.05 -1.6 211.05 -1.0 210.6 -0.55 210.1 -0.1 209.45 -0.1 209.0 -0.1 208.75 -0.35 L208.1 -1.05 206.8 -2.5 Q206.1 -3.0 205.0 -3.0 203.45 -3.0 202.55 -1.8 201.6 -0.6 201.6 1.5 201.6 2.5 201.85 3.3 L202.55 4.7 203.65 5.55 205.05 5.85 206.85 5.4 Q207.6 4.9 208.15 3.9 L208.85 3.0 Q209.2 2.65 209.75 2.65 210.4 2.65 210.8 3.15 211.2 3.65 211.2 4.2 M222.85 6.9 L219.8 1.85 217.95 3.65 217.95 6.4 Q217.95 7.4 217.4 7.95 216.9 8.45 216.2 8.45 215.4 8.45 214.95 7.95 214.5 7.4 214.5 6.35 L214.5 -8.4 Q214.5 -9.55 214.95 -10.15 215.35 -10.8 216.2 -10.8 217.0 -10.8 217.45 -10.25 217.95 -9.7 217.95 -8.6 L217.95 -0.2 221.85 -4.3 222.95 -5.35 223.85 -5.6 Q224.5 -5.6 224.95 -5.2 225.35 -4.8 225.35 -4.2 225.35 -3.4 223.95 -2.15 L222.1 -0.45 225.7 5.15 226.25 6.1 226.4 6.7 Q226.4 7.5 225.95 8.0 225.5 8.45 224.8 8.45 224.15 8.45 223.8 8.1 L222.85 6.9 M191.85 1.5 L189.65 2.1 187.65 2.55 Q187.1 2.7 186.6 3.1 186.05 3.55 186.05 4.3 186.05 5.1 186.65 5.65 187.25 6.2 188.25 6.2 L190.15 5.75 191.4 4.6 Q191.85 3.8 191.85 2.0 L191.85 1.5" fill="#ffffff" fill-rule="evenodd" stroke="none"/>
  </g>
</svg>
