<?xml version="1.0" encoding="UTF-8" standalone="no"?>
<svg xmlns:xlink="http://www.w3.org/1999/xlink" height="43.45px" width="362.2px" xmlns="http://www.w3.org/2000/svg">
  <g transform="matrix(1.0, 0.0, 0.0, 1.0, 0.5, 21.7)">
    <path d="M21.2 -21.2 L340.0 -21.2 Q348.8 -21.2 355.0 -15.0 361.2 -8.8 361.2 0.0 L361.2 0.05 Q361.2 8.85 355.0 15.05 348.8 21.25 340.0 21.25 L21.2 21.25 Q12.4 21.25 6.2 15.05 0.0 8.85 0.0 0.05 L0.0 0.0 Q0.0 -8.8 6.2 -15.0 12.4 -21.2 21.2 -21.2" fill="url(#gradient0)" fill-rule="evenodd" stroke="none"/>
    <path d="M21.2 -21.2 L340.0 -21.2 Q348.8 -21.2 355.0 -15.0 361.2 -8.8 361.2 0.0 L361.2 0.05 Q361.2 8.85 355.0 15.05 348.8 21.25 340.0 21.25 L21.2 21.25 Q12.4 21.25 6.2 15.05 0.0 8.85 0.0 0.05 L0.0 0.0 Q0.0 -8.8 6.2 -15.0 12.4 -21.2 21.2 -21.2 Z" fill="none" stroke="#a5afe5" stroke-linecap="round" stroke-linejoin="round" stroke-width="1.0"/>
  </g>
  <defs>
    <linearGradient gradientTransform="matrix(0.0, 0.0221, -0.2205, 0.0, 180.6, 2.6)" gradientUnits="userSpaceOnUse" id="gradient0" spreadMethod="pad" x1="-819.2" x2="819.2">
      <stop offset="0.023529411764705882" stop-color="#6d5bbd"/>
      <stop offset="1.0" stop-color="#372269"/>
    </linearGradient>
  </defs>
</svg>
