<?xml version="1.0" encoding="UTF-8" standalone="no"?>
<svg xmlns:xlink="http://www.w3.org/1999/xlink" height="79.9px" width="260.25px" xmlns="http://www.w3.org/2000/svg">
  <g transform="matrix(1.0, 0.0, 0.0, 1.0, 130.15, 39.95)">
    <path d="M-122.05 -39.45 L122.0 -39.45 Q122.0 -31.85 129.6 -31.85 L129.6 31.85 Q122.0 31.85 122.0 39.45 L-122.05 39.45 Q-122.05 31.85 -129.65 31.85 L-129.65 -31.85 Q-122.05 -31.85 -122.05 -39.45" fill="#4a4a4a" fill-rule="evenodd" stroke="none"/>
    <path d="M-122.05 -39.45 L122.0 -39.45 Q122.0 -31.85 129.6 -31.85 L129.6 31.85 Q122.0 31.85 122.0 39.45 L-122.05 39.45 Q-122.05 31.85 -129.65 31.85 L-129.65 -31.85 Q-122.05 -31.85 -122.05 -39.45 Z" fill="none" stroke="#989898" stroke-linecap="round" stroke-linejoin="round" stroke-opacity="0.9411765" stroke-width="1.0"/>
  </g>
</svg>
