<?xml version="1.0" encoding="UTF-8" standalone="no"?>
<svg xmlns:xlink="http://www.w3.org/1999/xlink" height="74.4px" width="148.8px" xmlns="http://www.w3.org/2000/svg">
  <g transform="matrix(1.0, 0.0, 0.0, 1.0, 74.4, 37.2)">
    <path d="M62.05 -31.7 Q63.7 -26.5 68.9 -24.85 L68.9 24.85 Q63.7 26.5 62.05 31.7 L-62.05 31.7 Q-63.7 26.5 -68.9 24.85 L-68.9 -24.85 Q-63.7 -26.5 -62.05 -31.7 L62.05 -31.7" fill="#2e1414" fill-rule="evenodd" stroke="none"/>
    <path d="M62.05 -31.7 L-62.05 -31.7 Q-63.7 -26.5 -68.9 -24.85 L-68.9 24.85 Q-63.7 26.5 -62.05 31.7 L62.05 31.7 Q63.7 26.5 68.9 24.85 L68.9 -24.85 Q63.7 -26.5 62.05 -31.7 M-66.8 -37.2 L66.8 -37.2 Q66.8 -29.6 74.4 -29.6 L74.4 29.6 Q66.8 29.6 66.8 37.2 L-66.8 37.2 Q-66.8 29.6 -74.4 29.6 L-74.4 -29.6 Q-66.8 -29.6 -66.8 -37.2" fill="#7e3838" fill-rule="evenodd" stroke="none"/>
    <path d="M-66.8 -37.2 L66.8 -37.2 Q66.8 -29.6 74.4 -29.6 L74.4 29.6 Q66.8 29.6 66.8 37.2 L-66.8 37.2 Q-66.8 29.6 -74.4 29.6 L-74.4 -29.6 Q-66.8 -29.6 -66.8 -37.2 Z" fill="none" stroke="#bb6f6f" stroke-linecap="round" stroke-linejoin="round" stroke-opacity="0.9411765" stroke-width="0.05"/>
  </g>
</svg>
