<?xml version="1.0" encoding="UTF-8" standalone="no"?>
<svg xmlns:xlink="http://www.w3.org/1999/xlink" height="79.9px" width="260.25px" xmlns="http://www.w3.org/2000/svg">
  <g transform="matrix(1.0, 0.0, 0.0, 1.0, 0.5, 39.95)">
    <path d="M7.6 -39.45 L251.65 -39.45 Q251.65 -31.85 259.25 -31.85 L259.25 31.85 Q251.65 31.85 251.65 39.45 L7.6 39.45 Q7.6 31.85 0.0 31.85 L0.0 -31.85 Q7.6 -31.85 7.6 -39.45 M5.5 -27.1 L5.5 27.1 Q10.7 28.75 12.35 33.95 L246.9 33.95 Q248.55 28.75 253.75 27.1 L253.75 -27.1 Q248.55 -28.75 246.9 -33.95 L12.35 -33.95 Q10.7 -28.75 5.5 -27.1" fill="#156454" fill-rule="evenodd" stroke="none"/>
    <path d="M5.5 -27.1 Q10.7 -28.75 12.35 -33.95 L246.9 -33.95 Q248.55 -28.75 253.75 -27.1 L253.75 27.1 Q248.55 28.75 246.9 33.95 L12.35 33.95 Q10.7 28.75 5.5 27.1 L5.5 -27.1" fill="#082721" fill-rule="evenodd" stroke="none"/>
    <path d="M7.6 -39.45 L251.65 -39.45 Q251.65 -31.85 259.25 -31.85 L259.25 31.85 Q251.65 31.85 251.65 39.45 L7.6 39.45 Q7.6 31.85 0.0 31.85 L0.0 -31.85 Q7.6 -31.85 7.6 -39.45 Z" fill="none" stroke="#33ff99" stroke-linecap="round" stroke-linejoin="round" stroke-opacity="0.9411765" stroke-width="1.0"/>
  </g>
</svg>
