<?xml version="1.0" encoding="UTF-8" standalone="no"?>
<svg xmlns:xlink="http://www.w3.org/1999/xlink" height="78.25px" width="87.45px" xmlns="http://www.w3.org/2000/svg">
  <g transform="matrix(1.0, 0.0, 0.0, 1.0, 44.55, 38.95)">
    <path d="M-44.55 39.3 L-44.55 -38.95 42.9 -38.95 42.9 39.3 -44.55 39.3" fill="#c7a7ff" fill-opacity="0.011764706" fill-rule="evenodd" stroke="none"/>
    <path d="M-34.65 -31.15 L35.1 -31.15 35.1 31.25 0.2 31.25 -34.65 -3.65 -34.65 -31.15" fill="#191e25" fill-rule="evenodd" stroke="none"/>
    <path d="M-37.6 -33.1 L37.35 -33.1 37.35 33.95 -0.15 33.95 -37.6 -3.55 -37.6 -33.1 M-34.65 -31.15 L-34.65 -3.65 0.2 31.25 35.1 31.25 35.1 -31.15 -34.65 -31.15" fill="#515a64" fill-rule="evenodd" stroke="none"/>
    <path d="M-42.0 -37.05 L41.75 -37.05 41.75 37.9 -0.15 37.9 -42.0 -4.0 -42.0 -37.05 M-37.6 -33.1 L-37.6 -3.55 -0.15 33.95 37.35 33.95 37.35 -33.1 -37.6 -33.1" fill="#6f7c8a" fill-rule="evenodd" stroke="none"/>
    <path d="M-42.0 -37.05 L41.75 -37.05 41.75 37.9 -0.15 37.9 -42.0 -4.0 -42.0 -37.05 Z" fill="none" stroke="#000000" stroke-linecap="round" stroke-linejoin="round" stroke-width="0.05"/>
  </g>
</svg>
