<?xml version="1.0" encoding="UTF-8" standalone="no"?>
<svg xmlns:xlink="http://www.w3.org/1999/xlink" height="174.05px" width="432.3px" xmlns="http://www.w3.org/2000/svg">
  <g transform="matrix(1.0, 0.0, 0.0, 1.0, 217.4, 91.8)">
    <path d="M30.15 72.0 L30.2 -6.1 30.25 -6.45 30.2 -6.55 30.1 -7.05 Q29.2 -8.9 26.75 -11.35 20.8 -17.25 20.95 -18.7 L20.85 -19.2 Q20.25 -23.1 23.25 -24.95 24.55 -26.25 27.6 -26.25 L121.95 -26.25 Q131.45 -26.3 138.9 -19.7 143.3 -15.85 145.75 -10.65 L145.8 -10.6 147.1 -7.05 147.15 -7.0 148.0 -3.5 Q148.6 -0.5 148.55 2.2 L148.6 54.5 148.5 55.55 148.5 71.6 Q148.7 73.05 148.4 74.1 147.0 81.0 140.45 80.75 L103.35 80.75 Q96.8 81.0 95.45 74.1 95.1 73.05 95.3 71.6 L95.35 21.75 95.35 21.25 95.35 5.6 83.75 5.6 83.75 72.2 83.75 72.4 Q83.4 81.15 75.65 80.75 L38.4 80.75 Q31.75 81.0 30.45 73.95 L30.25 72.9 30.15 72.0 M5.9 -26.25 Q12.4 -26.35 13.8 -19.85 L14.1 -18.1 14.1 -17.7 14.1 56.35 14.15 56.55 14.25 56.9 15.1 56.85 Q24.05 58.65 23.5 62.85 23.4 66.0 21.25 68.9 L15.1 76.4 15.0 76.5 Q11.2 80.85 6.05 80.75 L-77.7 80.75 Q-87.2 80.8 -94.65 73.85 L-94.7 73.85 Q-101.8 67.15 -103.7 56.7 -104.4 53.05 -104.2 50.0 L-104.3 3.65 -104.35 2.9 -104.35 -17.7 -104.25 -19.6 Q-102.95 -26.35 -96.3 -26.25 L-59.1 -26.25 Q-52.45 -26.35 -51.15 -19.6 -50.95 -19.1 -51.05 -17.7 L-51.05 27.3 -51.05 27.85 -51.05 29.1 -51.05 30.25 -51.05 30.3 -51.05 37.75 -51.1 47.9 -39.4 47.9 -39.4 38.4 -39.4 37.9 -39.45 -17.9 -39.45 -18.05 Q-39.2 -26.5 -31.35 -26.25 L5.9 -26.25 M155.2 -11.35 Q149.25 -17.25 149.4 -18.7 L149.35 -19.0 Q148.6 -22.9 151.25 -24.7 152.5 -26.25 155.75 -26.25 L203.95 -26.25 Q210.25 -26.5 211.65 -19.85 L211.95 -18.5 212.0 -17.7 211.95 72.0 211.9 72.9 211.65 74.05 Q210.4 80.6 204.7 80.75 L204.2 80.75 166.7 80.75 Q160.15 81.1 158.9 73.8 L158.85 73.6 158.75 72.9 158.65 72.0 158.7 -6.1 158.75 -6.45 158.7 -6.55 158.65 -6.7 158.6 -6.85 Q157.8 -8.8 155.2 -11.35 M184.15 -90.3 Q196.25 -90.3 204.85 -81.7 213.4 -73.15 213.4 -61.05 213.4 -48.95 204.85 -40.35 196.25 -31.8 184.15 -31.8 171.95 -31.8 163.45 -40.35 L163.5 -40.35 Q154.9 -48.95 154.9 -61.05 154.9 -73.15 163.5 -81.7 L163.45 -81.7 Q171.95 -90.3 184.15 -90.3 M-170.5 -61.65 Q-164.15 -61.8 -162.75 -55.2 L-162.75 -55.1 -162.55 -54.15 -162.45 -53.2 -162.6 44.85 -162.45 46.9 -162.45 47.05 -116.35 47.05 Q-110.45 46.95 -109.75 52.9 -109.15 55.0 -110.95 58.8 L-110.95 58.75 -117.35 72.7 -117.4 72.8 Q-121.15 81.25 -126.9 80.5 L-207.7 80.5 Q-216.15 78.9 -215.9 68.95 L-215.9 -53.2 -215.8 -54.15 -215.6 -55.1 -215.55 -55.2 Q-214.2 -61.8 -207.85 -61.65 L-170.5 -61.65" fill="#d0ecfc" fill-rule="evenodd" stroke="none"/>
    <path d="M30.15 72.0 L30.2 -6.1 30.25 -6.45 30.2 -6.55 30.1 -7.05 Q29.2 -8.9 26.75 -11.35 20.8 -17.25 20.95 -18.7 L20.85 -19.2 Q20.25 -23.1 23.25 -24.95 24.55 -26.25 27.6 -26.25 L121.95 -26.25 Q131.45 -26.3 138.9 -19.7 143.3 -15.85 145.75 -10.65 L145.8 -10.6 147.1 -7.05 147.15 -7.0 148.0 -3.5 Q148.6 -0.5 148.55 2.2 L148.6 54.5 148.5 55.55 148.5 71.6 Q148.7 73.05 148.4 74.1 147.0 81.0 140.45 80.75 L103.35 80.75 Q96.8 81.0 95.45 74.1 95.1 73.05 95.3 71.6 L95.35 21.75 95.35 21.25 95.35 5.6 83.75 5.6 83.75 72.2 83.75 72.4 Q83.4 81.15 75.65 80.75 L38.4 80.75 Q31.75 81.0 30.45 73.95 L30.25 72.9 30.15 72.0 M5.9 -26.25 Q12.4 -26.35 13.8 -19.85 L14.1 -18.1 14.1 -17.7 14.1 56.35 14.15 56.55 14.25 56.9 15.1 56.85 Q24.05 58.65 23.5 62.85 23.4 66.0 21.25 68.9 L15.1 76.4 15.0 76.5 Q11.2 80.85 6.05 80.75 L-77.7 80.75 Q-87.2 80.8 -94.65 73.85 L-94.7 73.85 Q-101.8 67.15 -103.7 56.7 -104.4 53.05 -104.2 50.0 L-104.3 3.65 -104.35 2.9 -104.35 -17.7 -104.25 -19.6 Q-102.95 -26.35 -96.3 -26.25 L-59.1 -26.25 Q-52.45 -26.35 -51.15 -19.6 -50.95 -19.1 -51.05 -17.7 L-51.05 27.3 -51.05 27.85 -51.05 29.1 -51.05 30.25 -51.05 30.3 -51.05 37.75 -51.1 47.9 -39.4 47.9 -39.4 38.4 -39.4 37.9 -39.45 -17.9 -39.45 -18.05 Q-39.2 -26.5 -31.35 -26.25 L5.9 -26.25 M155.2 -11.35 Q149.25 -17.25 149.4 -18.7 L149.35 -19.0 Q148.6 -22.9 151.25 -24.7 152.5 -26.25 155.75 -26.25 L203.95 -26.25 Q210.25 -26.5 211.65 -19.85 L211.95 -18.5 212.0 -17.7 211.95 72.0 211.9 72.9 211.65 74.05 Q210.4 80.6 204.7 80.75 L204.2 80.75 166.7 80.75 Q160.15 81.1 158.9 73.8 L158.85 73.6 158.75 72.9 158.65 72.0 158.7 -6.1 158.75 -6.45 158.7 -6.55 158.65 -6.7 158.6 -6.85 Q157.8 -8.8 155.2 -11.35 M184.15 -90.3 Q196.25 -90.3 204.85 -81.7 213.4 -73.15 213.4 -61.05 213.4 -48.95 204.85 -40.35 196.25 -31.8 184.15 -31.8 171.95 -31.8 163.45 -40.35 L163.5 -40.35 Q154.9 -48.95 154.9 -61.05 154.9 -73.15 163.5 -81.7 L163.45 -81.7 Q171.95 -90.3 184.15 -90.3 M-170.5 -61.65 Q-164.15 -61.8 -162.75 -55.2 L-162.75 -55.1 -162.55 -54.15 -162.45 -53.2 -162.6 44.85 -162.45 46.9 -162.45 47.05 -116.35 47.05 Q-110.45 46.95 -109.75 52.9 -109.15 55.0 -110.95 58.8 L-110.95 58.75 -117.35 72.7 -117.4 72.8 Q-121.15 81.25 -126.9 80.5 L-207.7 80.5 Q-216.15 78.9 -215.9 68.95 L-215.9 -53.2 -215.8 -54.15 -215.6 -55.1 -215.55 -55.2 Q-214.2 -61.8 -207.85 -61.65 L-170.5 -61.65" fill="none" stroke="#1e90ff" stroke-linecap="round" stroke-linejoin="round" stroke-width="3.0"/>
    <path d="M30.15 72.0 L30.2 -6.1 30.25 -6.45 30.2 -6.55 30.1 -7.05 Q29.2 -8.9 26.75 -11.35 20.8 -17.25 20.95 -18.7 L20.85 -19.2 Q20.25 -23.1 23.25 -24.95 24.55 -26.25 27.6 -26.25 L121.95 -26.25 Q131.45 -26.3 138.9 -19.7 143.3 -15.85 145.75 -10.65 L145.8 -10.6 147.1 -7.05 147.15 -7.0 148.0 -3.5 Q148.6 -0.5 148.55 2.2 L148.6 54.5 148.5 55.55 148.5 71.6 Q148.7 73.05 148.4 74.1 147.0 81.0 140.45 80.75 L103.35 80.75 Q96.8 81.0 95.45 74.1 95.1 73.05 95.3 71.6 L95.35 21.75 95.35 21.25 95.35 5.6 83.75 5.6 83.75 72.2 83.75 72.4 Q83.4 81.15 75.65 80.75 L38.4 80.75 Q31.75 81.0 30.45 73.95 L30.25 72.9 30.15 72.0 M5.9 -26.25 Q12.4 -26.35 13.8 -19.85 L14.1 -18.1 14.1 -17.7 14.1 56.35 14.15 56.55 14.25 56.9 15.1 56.85 Q24.05 58.65 23.5 62.85 23.4 66.0 21.25 68.9 L15.1 76.4 15.0 76.5 Q11.2 80.85 6.05 80.75 L-77.7 80.75 Q-87.2 80.8 -94.65 73.85 L-94.7 73.85 Q-101.8 67.15 -103.7 56.7 -104.4 53.05 -104.2 50.0 L-104.3 3.65 -104.35 2.9 -104.35 -17.7 -104.25 -19.6 Q-102.95 -26.35 -96.3 -26.25 L-59.1 -26.25 Q-52.45 -26.35 -51.15 -19.6 -50.95 -19.1 -51.05 -17.7 L-51.05 27.3 -51.05 27.85 -51.05 29.1 -51.05 30.25 -51.05 30.3 -51.05 37.75 -51.1 47.9 -39.4 47.9 -39.4 38.4 -39.4 37.9 -39.45 -17.9 -39.45 -18.05 Q-39.2 -26.5 -31.35 -26.25 L5.9 -26.25 M155.2 -11.35 Q149.25 -17.25 149.4 -18.7 L149.35 -19.0 Q148.6 -22.9 151.25 -24.7 152.5 -26.25 155.75 -26.25 L203.95 -26.25 Q210.25 -26.5 211.65 -19.85 L211.95 -18.5 212.0 -17.7 211.95 72.0 211.9 72.9 211.65 74.05 Q210.4 80.6 204.7 80.75 L204.2 80.75 166.7 80.75 Q160.15 81.1 158.9 73.8 L158.85 73.6 158.75 72.9 158.65 72.0 158.7 -6.1 158.75 -6.45 158.7 -6.55 158.65 -6.7 158.6 -6.85 Q157.8 -8.8 155.2 -11.35" fill="url(#gradient0)" fill-rule="evenodd" stroke="none"/>
    <path d="M184.15 -90.3 Q196.25 -90.3 204.85 -81.7 213.4 -73.15 213.4 -61.05 213.4 -48.95 204.85 -40.35 196.25 -31.8 184.15 -31.8 171.95 -31.8 163.45 -40.35 L163.5 -40.35 Q154.9 -48.95 154.9 -61.05 154.9 -73.15 163.5 -81.7 L163.45 -81.7 Q171.95 -90.3 184.15 -90.3" fill="url(#gradient1)" fill-rule="evenodd" stroke="none"/>
    <path d="M-170.5 -61.65 Q-164.15 -61.8 -162.75 -55.2 L-162.75 -55.1 -162.55 -54.15 -162.45 -53.2 -162.6 44.85 -162.45 46.9 -162.45 47.05 -116.35 47.05 Q-110.45 46.95 -109.75 52.9 -109.15 55.0 -110.95 58.8 L-110.95 58.75 -117.35 72.7 -117.4 72.8 Q-121.15 81.25 -126.9 80.5 L-207.7 80.5 Q-216.15 78.9 -215.9 68.95 L-215.9 -53.2 -215.8 -54.15 -215.6 -55.1 -215.55 -55.2 Q-214.2 -61.8 -207.85 -61.65 L-170.5 -61.65" fill="url(#gradient2)" fill-rule="evenodd" stroke="none"/>
    <path d="M30.15 72.0 L30.2 -6.1 30.25 -6.45 30.2 -6.55 30.1 -7.05 Q29.2 -8.9 26.75 -11.35 20.8 -17.25 20.95 -18.7 L20.85 -19.2 Q20.25 -23.1 23.25 -24.95 24.55 -26.25 27.6 -26.25 L121.95 -26.25 Q131.45 -26.3 138.9 -19.7 143.3 -15.85 145.75 -10.65 L145.8 -10.6 147.1 -7.05 147.15 -7.0 148.0 -3.5 Q148.6 -0.5 148.55 2.2 L148.6 54.5 148.5 55.55 148.5 71.6 Q148.7 73.05 148.4 74.1 147.0 81.0 140.45 80.75 L103.35 80.75 Q96.8 81.0 95.45 74.1 95.1 73.05 95.3 71.6 L95.35 21.75 95.35 21.25 95.35 5.6 83.75 5.6 83.75 72.2 83.75 72.4 Q83.4 81.15 75.65 80.75 L38.4 80.75 Q31.75 81.0 30.45 73.95 L30.25 72.9 30.15 72.0 M5.9 -26.25 Q12.4 -26.35 13.8 -19.85 L14.1 -18.1 14.1 -17.7 14.1 56.35 14.15 56.55 14.25 56.9 15.1 56.85 Q24.05 58.65 23.5 62.85 23.4 66.0 21.25 68.9 L15.1 76.4 15.0 76.5 Q11.2 80.85 6.05 80.75 L-77.7 80.75 Q-87.2 80.8 -94.65 73.85 L-94.7 73.85 Q-101.8 67.15 -103.7 56.7 -104.4 53.05 -104.2 50.0 L-104.3 3.65 -104.35 2.9 -104.35 -17.7 -104.25 -19.6 Q-102.95 -26.35 -96.3 -26.25 L-59.1 -26.25 Q-52.45 -26.35 -51.15 -19.6 -50.95 -19.1 -51.05 -17.7 L-51.05 27.3 -51.05 27.85 -51.05 29.1 -51.05 30.25 -51.05 30.3 -51.05 37.75 -51.1 47.9 -39.4 47.9 -39.4 38.4 -39.4 37.9 -39.45 -17.9 -39.45 -18.05 Q-39.2 -26.5 -31.35 -26.25 L5.9 -26.25 M155.2 -11.35 Q149.25 -17.25 149.4 -18.7 L149.35 -19.0 Q148.6 -22.9 151.25 -24.7 152.5 -26.25 155.75 -26.25 L203.95 -26.25 Q210.25 -26.5 211.65 -19.85 L211.95 -18.5 212.0 -17.7 211.95 72.0 211.9 72.9 211.65 74.05 Q210.4 80.6 204.7 80.75 L204.2 80.75 166.7 80.75 Q160.15 81.1 158.9 73.8 L158.85 73.6 158.75 72.9 158.65 72.0 158.7 -6.1 158.75 -6.45 158.7 -6.55 158.65 -6.7 158.6 -6.85 Q157.8 -8.8 155.2 -11.35 M184.15 -90.3 Q196.25 -90.3 204.85 -81.7 213.4 -73.15 213.4 -61.05 213.4 -48.95 204.85 -40.35 196.25 -31.8 184.15 -31.8 171.95 -31.8 163.45 -40.35 L163.5 -40.35 Q154.9 -48.95 154.9 -61.05 154.9 -73.15 163.5 -81.7 L163.45 -81.7 Q171.95 -90.3 184.15 -90.3 M-170.5 -61.65 Q-164.15 -61.8 -162.75 -55.2 L-162.75 -55.1 -162.55 -54.15 -162.45 -53.2 -162.6 44.85 -162.45 46.9 -162.45 47.05 -116.35 47.05 Q-110.45 46.95 -109.75 52.9 -109.15 55.0 -110.95 58.8 L-110.95 58.75 -117.35 72.7 -117.4 72.8 Q-121.15 81.25 -126.9 80.5 L-207.7 80.5 Q-216.15 78.9 -215.9 68.95 L-215.9 -53.2 -215.8 -54.15 -215.6 -55.1 -215.55 -55.2 Q-214.2 -61.8 -207.85 -61.65 L-170.5 -61.65" fill="none" stroke="#1e90ff" stroke-linecap="round" stroke-linejoin="round" stroke-width="0.05"/>
    <path d="M163.8 72.8 L163.65 71.9 163.7 -6.2 163.6 -7.65 163.3 -8.65 Q162.3 -11.45 158.7 -15.0 154.45 -19.25 154.25 -20.05 154.0 -21.35 155.75 -21.35 L203.95 -21.35 Q206.3 -21.35 206.8 -18.75 L207.0 -17.8 206.95 71.9 206.75 72.8 Q206.3 75.45 204.2 75.65 L166.7 75.65 Q164.3 75.65 163.8 72.8 M9.3 57.65 Q9.85 60.8 14.1 61.65 18.3 62.5 18.4 63.45 18.45 64.35 17.6 65.3 L11.2 73.1 Q9.0 75.65 6.05 75.65 L-77.7 75.65 Q-85.3 75.65 -91.25 70.1 -97.2 64.45 -98.8 55.65 -99.35 52.7 -99.2 50.2 L-99.3 2.8 -99.35 2.8 -99.35 -17.8 -99.35 -18.75 Q-98.85 -21.35 -96.3 -21.35 L-59.1 -21.35 Q-56.55 -21.35 -56.05 -18.75 L-56.05 -17.8 -56.05 28.9 -56.05 30.15 -56.05 37.65 -56.1 49.3 -55.95 50.15 Q-55.45 52.8 -52.85 52.8 L-37.5 52.8 Q-34.4 52.8 -34.4 49.3 L-34.45 -18.0 Q-34.35 -21.35 -31.35 -21.35 L5.9 -21.35 Q8.45 -21.35 8.95 -18.75 L9.1 -17.8 9.1 56.8 9.3 57.65 M143.55 2.1 L143.6 54.4 143.5 54.4 143.5 71.9 143.5 72.8 Q143.0 75.65 140.45 75.65 L103.35 75.65 Q100.8 75.65 100.3 72.8 L100.3 71.9 100.35 3.8 100.15 3.0 Q100.0 1.95 99.45 1.35 98.6 0.5 97.1 0.5 L81.8 0.5 Q80.2 0.5 79.45 1.35 78.7 2.15 78.75 3.8 L78.75 72.1 Q78.6 75.65 75.65 75.65 L38.4 75.65 Q35.85 75.65 35.35 72.8 L35.15 71.9 35.2 -6.2 35.1 -7.65 34.85 -8.65 Q33.85 -11.45 30.25 -15.0 26.0 -19.25 25.8 -20.05 25.6 -21.35 27.6 -21.35 L121.95 -21.35 Q129.6 -21.35 135.6 -16.05 139.2 -12.9 141.2 -8.65 L142.35 -5.65 143.1 -2.65 Q143.6 -0.15 143.55 2.1" fill="url(#gradient3)" fill-rule="evenodd" stroke="none"/>
    <path d="M-126.9 75.4 L-207.25 75.4 Q-211.0 74.7 -210.8 69.7 L-210.9 68.85 -210.9 -53.3 -210.7 -54.25 Q-210.2 -56.75 -207.85 -56.75 L-170.5 -56.75 Q-168.15 -56.75 -167.65 -54.25 L-167.45 -53.3 -167.6 44.95 -167.45 46.5 Q-166.9 51.95 -164.35 51.95 L-116.35 51.95 Q-114.85 51.95 -114.7 53.5 -114.55 54.55 -115.5 56.55 L-121.95 70.6 Q-124.05 75.4 -126.9 75.4" fill="url(#gradient4)" fill-rule="evenodd" stroke="none"/>
    <path d="M208.4 -61.15 Q208.4 -51.1 201.3 -44.0 194.2 -36.9 184.15 -36.9 174.05 -36.9 167.0 -44.0 159.9 -51.1 159.9 -61.15 159.9 -71.2 167.0 -78.3 174.05 -85.4 184.15 -85.4 194.2 -85.4 201.3 -78.3 208.4 -71.2 208.4 -61.15" fill="url(#gradient5)" fill-rule="evenodd" stroke="none"/>
    <path d="M40.2 -5.9 Q40.35 -7.2 40.0 -8.9 L40.0 -8.7 39.65 -10.15 39.55 -10.4 Q38.65 -13.2 35.85 -16.45 L121.95 -16.45 Q127.75 -16.4 132.3 -12.4 L132.3 -12.35 Q135.05 -10.0 136.65 -6.7 L136.7 -6.6 137.6 -4.2 137.6 -4.25 138.2 -1.8 138.2 -1.75 138.55 1.9 138.55 2.0 138.6 53.3 138.5 54.3 138.5 70.55 105.3 70.55 105.35 22.1 105.35 21.55 105.35 3.7 105.3 3.0 105.05 1.7 Q104.55 -0.75 103.15 -2.1 L103.0 -2.25 Q100.9 -4.6 97.1 -4.6 L81.8 -4.6 Q77.7 -4.6 75.8 -2.15 73.65 -0.3 73.75 3.7 L73.75 70.55 40.15 70.55 40.2 -5.9 M168.0 -10.4 Q167.1 -13.2 164.3 -16.45 L202.0 -16.45 201.95 70.55 168.65 70.55 168.7 -5.9 Q168.85 -7.2 168.5 -8.9 L168.5 -8.7 167.95 -10.6 168.0 -10.4 M-29.45 -16.45 L4.1 -16.45 4.1 56.7 4.2 57.7 4.4 58.4 4.4 58.5 4.4 58.55 Q5.0 63.8 10.65 65.8 L7.35 69.85 Q6.75 70.45 6.05 70.55 L-77.7 70.55 Q-83.35 70.5 -87.8 66.4 L-87.85 66.35 Q-92.6 61.75 -93.85 54.65 -94.3 52.35 -94.2 50.4 L-94.2 50.1 -94.3 2.7 -94.35 2.0 -94.35 -16.45 -61.05 -16.45 -61.05 27.55 -61.05 28.0 -61.05 28.7 -61.05 28.85 -61.05 30.05 -61.05 37.55 -61.1 49.2 -61.0 50.05 -60.85 50.95 -60.85 51.0 Q-59.6 57.1 -52.85 57.7 L-37.5 57.7 Q-30.0 57.4 -29.4 49.2 L-29.4 37.7 -29.4 37.15 -29.45 -16.45" fill="url(#gradient6)" fill-rule="evenodd" stroke="none"/>
    <path d="M184.15 -80.5 Q192.15 -80.5 197.8 -74.85 203.4 -69.25 203.4 -61.25 203.4 -53.25 197.8 -47.6 192.15 -42.0 184.15 -42.0 176.15 -42.0 170.55 -47.6 164.9 -53.25 164.9 -61.25 164.9 -69.25 170.55 -74.85 176.15 -80.5 184.15 -80.5" fill="url(#gradient7)" fill-rule="evenodd" stroke="none"/>
    <path d="M-205.9 -51.85 L-172.45 -51.85 -172.6 44.85 -172.55 45.35 -172.5 45.8 Q-172.45 55.5 -164.35 56.85 L-121.15 56.85 -126.5 68.45 -126.5 68.5 Q-127.1 69.8 -126.9 70.3 L-205.7 70.3 -205.7 70.05 -205.75 69.85 -205.9 68.6 -205.9 -51.85" fill="url(#gradient8)" fill-rule="evenodd" stroke="none"/>
  </g>
  <defs>
    <linearGradient gradientTransform="matrix(0.0, 0.0812, -0.261, 0.0, -0.35, 11.5)" gradientUnits="userSpaceOnUse" id="gradient0" spreadMethod="pad" x1="-819.2" x2="819.2">
      <stop offset="0.0" stop-color="#020512"/>
      <stop offset="1.0" stop-color="#06354b"/>
    </linearGradient>
    <linearGradient gradientTransform="matrix(0.0, 0.0366, -0.0357, 0.0, 184.15, -59.0)" gradientUnits="userSpaceOnUse" id="gradient1" spreadMethod="pad" x1="-819.2" x2="819.2">
      <stop offset="0.0" stop-color="#020512"/>
      <stop offset="1.0" stop-color="#06354b"/>
    </linearGradient>
    <linearGradient gradientTransform="matrix(0.0, 0.0812, -0.261, 0.0, -2.1, 11.5)" gradientUnits="userSpaceOnUse" id="gradient2" spreadMethod="pad" x1="-819.2" x2="819.2">
      <stop offset="0.0" stop-color="#020512"/>
      <stop offset="1.0" stop-color="#06354b"/>
    </linearGradient>
    <linearGradient gradientTransform="matrix(0.0, 0.0812, -0.2549, 0.0, -0.35, 10.5)" gradientUnits="userSpaceOnUse" id="gradient3" spreadMethod="pad" x1="-819.2" x2="819.2">
      <stop offset="0.0" stop-color="#10257f"/>
      <stop offset="1.0" stop-color="#19d3d8"/>
    </linearGradient>
    <linearGradient gradientTransform="matrix(0.0, 0.0812, -0.2549, 0.0, -2.1, 10.5)" gradientUnits="userSpaceOnUse" id="gradient4" spreadMethod="pad" x1="-819.2" x2="819.2">
      <stop offset="0.0" stop-color="#10257f"/>
      <stop offset="1.0" stop-color="#19d3d8"/>
    </linearGradient>
    <linearGradient gradientTransform="matrix(0.0, 0.0323, -0.0296, 0.0, 184.15, -57.5)" gradientUnits="userSpaceOnUse" id="gradient5" spreadMethod="pad" x1="-819.2" x2="819.2">
      <stop offset="0.0" stop-color="#10257f"/>
      <stop offset="1.0" stop-color="#19d3d8"/>
    </linearGradient>
    <linearGradient gradientTransform="matrix(0.0, 0.0898, -0.2487, 0.0, -0.35, -4.05)" gradientUnits="userSpaceOnUse" id="gradient6" spreadMethod="pad" x1="-819.2" x2="819.2">
      <stop offset="0.0" stop-color="#9ed9fa"/>
      <stop offset="1.0" stop-color="#ffffff"/>
    </linearGradient>
    <linearGradient gradientTransform="matrix(0.0, 0.0217, -0.0235, 0.0, 184.15, -61.3)" gradientUnits="userSpaceOnUse" id="gradient7" spreadMethod="pad" x1="-819.2" x2="819.2">
      <stop offset="0.0" stop-color="#9ed9fa"/>
      <stop offset="1.0" stop-color="#ffffff"/>
    </linearGradient>
    <linearGradient gradientTransform="matrix(0.0, 0.0898, -0.2487, 0.0, -2.1, -4.05)" gradientUnits="userSpaceOnUse" id="gradient8" spreadMethod="pad" x1="-819.2" x2="819.2">
      <stop offset="0.0" stop-color="#9ed9fa"/>
      <stop offset="1.0" stop-color="#ffffff"/>
    </linearGradient>
  </defs>
</svg>
