<?xml version="1.0" encoding="UTF-8" standalone="no"?>
<svg xmlns:xlink="http://www.w3.org/1999/xlink" height="202.7px" width="183.65px" xmlns="http://www.w3.org/2000/svg">
  <g transform="matrix(1.0, 0.0, 0.0, 1.0, 113.2, 103.4)">
    <path d="M-15.9 -101.55 Q14.3 -83.3 27.3 -65.05 35.8 -59.7 43.4 -52.1 68.95 -26.4 68.95 9.95 68.95 46.25 43.4 72.05 L43.4 72.1 Q17.55 97.8 -18.9 97.8 -55.5 97.8 -80.95 72.05 L-81.4 71.45 Q-106.75 45.85 -106.75 9.95 -106.75 -25.95 -81.4 -51.5 L-80.95 -52.1 -77.05 -55.85 Q-98.45 -57.85 -110.75 -67.85 -111.55 -68.5 -111.65 -69.45 -111.8 -70.45 -111.2 -71.25 -110.65 -72.05 -109.65 -72.25 -33.9 -86.7 -18.95 -101.15 -18.35 -101.75 -17.5 -101.85 -16.65 -102.0 -15.9 -101.55" fill="#1e90ff" fill-rule="evenodd" stroke="none"/>
    <path d="M-15.9 -101.55 Q14.3 -83.3 27.3 -65.05 35.8 -59.7 43.4 -52.1 68.95 -26.4 68.95 9.95 68.95 46.25 43.4 72.05 L43.4 72.1 Q17.55 97.8 -18.9 97.8 -55.5 97.8 -80.95 72.05 L-81.4 71.45 Q-106.75 45.85 -106.75 9.95 -106.75 -25.95 -81.4 -51.5 L-80.95 -52.1 -77.05 -55.85 Q-98.45 -57.85 -110.75 -67.85 -111.55 -68.5 -111.65 -69.45 -111.8 -70.45 -111.2 -71.25 -110.65 -72.05 -109.65 -72.25 -33.9 -86.7 -18.95 -101.15 -18.35 -101.75 -17.5 -101.85 -16.65 -102.0 -15.9 -101.55 Z" fill="none" stroke="#1e90ff" stroke-linecap="round" stroke-linejoin="round" stroke-width="3.0"/>
    <path d="M-70.7 -57.95 Q-95.65 -58.9 -109.2 -69.8 -86.5 -62.5 -62.15 -69.25 -37.8 -76.05 -36.8 -74.1 -37.15 -73.15 -39.2 -72.5 -56.4 -67.55 -70.7 -57.95" fill="url(#gradient0)" fill-rule="evenodd" stroke="none"/>
    <path d="M-109.2 -69.8 Q-32.3 -84.45 -17.2 -99.4 12.85 -81.3 25.55 -63.15 34.05 -57.9 41.6 -50.35 66.45 -25.35 66.45 9.95 66.45 45.25 41.6 70.3 16.5 95.3 -18.9 95.3 -54.45 95.3 -79.2 70.3 L-79.05 70.3 Q-104.25 45.25 -104.25 9.95 -104.25 -25.35 -79.05 -50.35 L-79.2 -50.35 Q-75.1 -54.5 -70.7 -57.95 -56.4 -67.55 -39.2 -72.5 -37.15 -73.15 -36.8 -74.1 -37.8 -76.05 -62.15 -69.25 -86.5 -62.5 -109.2 -69.8" fill="url(#gradient1)" fill-rule="evenodd" stroke="none"/>
    <path d="M-109.2 -69.8 Q-32.3 -84.45 -17.2 -99.4 12.85 -81.3 25.55 -63.15 34.05 -57.9 41.6 -50.35 66.45 -25.35 66.45 9.95 66.45 45.25 41.6 70.3 16.5 95.3 -18.9 95.3 -54.45 95.3 -79.2 70.3 L-79.05 70.3 Q-104.25 45.25 -104.25 9.95 -104.25 -25.35 -79.05 -50.35 L-79.2 -50.35 Q-75.1 -54.5 -70.7 -57.95 -95.65 -58.9 -109.2 -69.8 Z" fill="none" stroke="#1e90ff" stroke-linecap="round" stroke-linejoin="round" stroke-width="0.05"/>
    <path d="M61.5 9.7 Q61.5 42.95 37.95 66.55 14.3 90.0 -18.9 90.0 -52.4 90.0 -75.7 66.55 -99.35 42.95 -99.35 9.7 -99.35 -23.75 -75.7 -47.15 -52.4 -70.7 -18.9 -70.7 14.3 -70.7 37.95 -47.15 61.5 -23.75 61.5 9.7" fill="url(#gradient2)" fill-rule="evenodd" stroke="none"/>
    <path d="M-18.9 -66.15 Q12.55 -66.15 34.7 -43.95 56.55 -22.05 56.55 9.3 56.55 40.75 34.7 62.85 12.55 84.8 -18.9 84.8 -50.2 84.8 -72.1 62.85 -94.35 40.75 -94.35 9.3 -94.35 -22.05 -72.1 -43.95 -50.2 -66.15 -18.9 -66.15" fill="url(#gradient3)" fill-rule="evenodd" stroke="none"/>
    <path d="M-18.9 -61.1 Q10.45 -61.1 31.1 -40.4 51.55 -19.9 51.55 9.3 51.55 38.7 31.1 59.35 10.45 79.8 -18.9 79.8 -48.15 79.8 -68.6 59.35 -89.3 38.7 -89.3 9.3 -89.3 -19.9 -68.6 -40.4 -48.15 -61.1 -18.9 -61.1" fill="url(#gradient4)" fill-rule="evenodd" stroke="none"/>
  </g>
  <defs>
    <linearGradient gradientTransform="matrix(0.0, 0.1072, -0.0981, 0.0, -18.9, 21.8)" gradientUnits="userSpaceOnUse" id="gradient0" spreadMethod="pad" x1="-819.2" x2="819.2">
      <stop offset="0.0" stop-color="#10257f"/>
      <stop offset="1.0" stop-color="#19d3d8"/>
    </linearGradient>
    <linearGradient gradientTransform="matrix(0.0, 0.1068, -0.1042, 0.0, -18.9, 15.9)" gradientUnits="userSpaceOnUse" id="gradient1" spreadMethod="pad" x1="-819.2" x2="819.2">
      <stop offset="0.0" stop-color="#020512"/>
      <stop offset="1.0" stop-color="#07394f"/>
    </linearGradient>
    <linearGradient gradientTransform="matrix(0.0, 0.1072, -0.0981, 0.0, -18.9, 21.8)" gradientUnits="userSpaceOnUse" id="gradient2" spreadMethod="pad" x1="-819.2" x2="819.2">
      <stop offset="0.0" stop-color="#10257f"/>
      <stop offset="1.0" stop-color="#19d3d8"/>
    </linearGradient>
    <linearGradient gradientTransform="matrix(0.0, 0.0851, -0.0921, 0.0, -18.9, 9.2)" gradientUnits="userSpaceOnUse" id="gradient3" spreadMethod="pad" x1="-819.2" x2="819.2">
      <stop offset="0.0" stop-color="#9ed9fa"/>
      <stop offset="1.0" stop-color="#ffffff"/>
    </linearGradient>
    <linearGradient gradientTransform="matrix(0.0, 0.0794, -0.086, 0.0, -18.9, 9.25)" gradientUnits="userSpaceOnUse" id="gradient4" spreadMethod="pad" x1="-819.2" x2="819.2">
      <stop offset="0.0" stop-color="#020512"/>
      <stop offset="1.0" stop-color="#07394f"/>
    </linearGradient>
  </defs>
</svg>
