<?xml version="1.0" encoding="UTF-8" standalone="no"?>
<svg xmlns:xlink="http://www.w3.org/1999/xlink" height="104.5px" width="71.6px" xmlns="http://www.w3.org/2000/svg">
  <g transform="matrix(1.0, 0.0, 0.0, 1.0, 70.65, 70.6)">
    <path d="M-28.95 4.85 Q-37.2 -6.7 -44.15 -21.0 -61.25 4.0 -62.25 33.9 -70.8 18.05 -70.65 -0.05 -70.5 -18.15 -64.9 -29.4 -59.3 -40.65 -49.6 -49.9 -29.25 -70.5 -0.15 -70.6 1.6 -20.15 0.0 28.85 -8.1 15.5 -21.25 -15.8 L-21.4 -17.7 Q-27.95 -7.8 -28.95 4.85" fill="url(#gradient0)" fill-rule="evenodd" stroke="none"/>
    <path d="M-68.55 -18.85 L-68.6 -18.75 -68.65 -18.65 -68.55 -18.85" fill="#113b8a" fill-rule="evenodd" stroke="none"/>
    <path d="M0.55 -44.3 L0.95 -33.3 Q-23.95 -33.25 -40.15 -26.25 -56.4 -19.25 -70.4 -6.25 L-68.6 -18.75 -68.55 -18.85 -68.5 -19.35 -68.5 -19.05 -68.5 -18.95 Q-68.5 -17.5 -68.35 -18.3 L-68.1 -19.05 Q-37.0 -43.4 0.55 -44.3 M-65.1 -27.3 L-64.75 -28.0 -63.1 -31.65 -62.3 -33.35 Q-60.05 -37.65 -56.2 -42.3 L-54.35 -44.55 -54.15 -44.75 -49.6 -49.9 Q-29.25 -70.5 -0.15 -70.6 L0.45 -50.05 Q-39.35 -49.4 -65.1 -27.3" fill="url(#gradient1)" fill-rule="evenodd" stroke="none"/>
    <path d="M0.55 -44.3 Q-37.0 -43.4 -68.1 -19.05 L-67.95 -19.65 Q-67.65 -20.6 -68.5 -18.95 L-68.5 -19.05 Q-65.7 -26.95 -65.1 -27.3 -39.35 -49.4 0.45 -50.05 L0.55 -44.3" fill="url(#gradient2)" fill-rule="evenodd" stroke="none"/>
    <path d="M-18.9 8.0 Q-18.7 16.0 -21.15 22.7 -22.0 24.85 -23.2 27.2 -34.8 28.6 -45.15 24.05 L-50.1 24.95 -47.35 22.5 Q-57.4 16.65 -57.95 8.9 L-57.95 8.35 Q-58.1 6.6 -57.85 4.95 -53.3 2.75 -47.6 2.3 -38.2 1.6 -30.35 3.5 -22.55 5.35 -18.9 8.0" fill="#020512" fill-rule="evenodd" stroke="none"/>
    <path d="M-23.2 27.2 L-21.0 31.75 -25.0 29.45 Q-38.5 30.15 -48.85 26.25 L-55.9 28.6 -51.45 24.2 Q-65.25 13.8 -65.7 -1.65 L-58.85 -1.25 -61.3 -6.3 Q-58.7 -4.1 -53.4 -3.2 L-35.55 -2.65 -10.55 3.3 Q-13.9 4.45 -16.1 4.85 -14.2 8.35 -12.5 14.9 -17.3 9.0 -18.9 8.0 -22.55 5.35 -30.35 3.5 -38.2 1.6 -47.6 2.3 -53.3 2.75 -57.85 4.95 -58.1 6.6 -57.95 8.35 L-57.95 8.9 Q-57.4 16.65 -47.35 22.5 L-50.1 24.95 -45.15 24.05 Q-34.8 28.6 -23.2 27.2" fill="url(#gradient3)" fill-rule="evenodd" stroke="none"/>
    <path d="M-26.1 4.55 Q-25.45 6.7 -25.45 9.25 -25.45 14.75 -28.5 18.5 -31.5 22.4 -35.85 22.4 -40.2 22.4 -43.25 18.5 -46.3 14.75 -46.3 9.25 -46.3 5.05 -44.55 1.8 -35.35 1.55 -26.1 4.55" fill="url(#gradient4)" fill-rule="evenodd" stroke="none"/>
    <path d="M-44.55 1.8 Q-46.3 5.05 -46.3 9.25 -46.3 14.75 -43.25 18.5 -40.2 22.4 -35.85 22.4 -31.5 22.4 -28.5 18.5 -25.45 14.75 -25.45 9.25 -25.45 6.7 -26.1 4.55 L-23.15 5.7 -22.95 9.25 Q-22.95 16.05 -26.65 20.8 -30.45 25.7 -35.85 25.7 -41.2 25.7 -44.95 20.8 -48.8 16.05 -48.8 9.25 -48.8 5.5 -47.65 2.25 L-44.55 1.8" fill="url(#gradient5)" fill-rule="evenodd" stroke="none"/>
    <path d="M-31.05 9.8 Q-31.05 12.3 -32.2 14.05 -33.4 15.85 -35.05 15.85 -36.75 15.85 -37.9 14.05 -39.05 12.3 -39.05 9.8 -39.05 7.3 -37.9 5.5 -36.75 3.7 -35.05 3.7 -33.4 3.7 -32.2 5.5 -31.05 7.3 -31.05 9.8" fill="url(#gradient6)" fill-rule="evenodd" stroke="none"/>
    <path d="M-12.0 0.2 Q-32.9 -21.1 -63.6 -24.5 -31.85 -29.15 -12.0 0.2" fill="url(#gradient7)" fill-rule="evenodd" stroke="none"/>
  </g>
  <defs>
    <linearGradient gradientTransform="matrix(0.0, 0.0488, -0.0421, 0.0, -33.95, -8.05)" gradientUnits="userSpaceOnUse" id="gradient0" spreadMethod="pad" x1="-819.2" x2="819.2">
      <stop offset="0.0" stop-color="#10257f"/>
      <stop offset="1.0" stop-color="#19d3d8"/>
    </linearGradient>
    <linearGradient gradientTransform="matrix(0.0, 0.0333, -0.0434, 0.0, -34.85, -39.55)" gradientUnits="userSpaceOnUse" id="gradient1" spreadMethod="pad" x1="-819.2" x2="819.2">
      <stop offset="0.0" stop-color="#020512"/>
      <stop offset="1.0" stop-color="#07394f"/>
    </linearGradient>
    <linearGradient gradientTransform="matrix(0.0, 0.0488, -0.0421, 0.0, -33.95, -8.05)" gradientUnits="userSpaceOnUse" id="gradient2" spreadMethod="pad" x1="-819.2" x2="819.2">
      <stop offset="0.0" stop-color="#10257f"/>
      <stop offset="1.0" stop-color="#19d3d8"/>
    </linearGradient>
    <linearGradient gradientTransform="matrix(0.0, 0.0851, -0.0921, 0.0, -18.9, 9.2)" gradientUnits="userSpaceOnUse" id="gradient3" spreadMethod="pad" x1="-819.2" x2="819.2">
      <stop offset="0.0" stop-color="#9ed9fa"/>
      <stop offset="1.0" stop-color="#ffffff"/>
    </linearGradient>
    <linearGradient gradientTransform="matrix(0.0, 0.018, -0.0127, 0.0, -35.85, 17.7)" gradientUnits="userSpaceOnUse" id="gradient4" spreadMethod="pad" x1="-819.2" x2="819.2">
      <stop offset="0.0" stop-color="#10257f"/>
      <stop offset="1.0" stop-color="#19d3d8"/>
    </linearGradient>
    <linearGradient gradientTransform="matrix(0.0, 0.0851, -0.0921, 0.0, -18.9, 9.2)" gradientUnits="userSpaceOnUse" id="gradient5" spreadMethod="pad" x1="-819.2" x2="819.2">
      <stop offset="0.0" stop-color="#9ed9fa"/>
      <stop offset="1.0" stop-color="#ffffff"/>
    </linearGradient>
    <linearGradient gradientTransform="matrix(0.0, 0.0057, -0.0049, 0.0, -35.05, 9.95)" gradientUnits="userSpaceOnUse" id="gradient6" spreadMethod="pad" x1="-819.2" x2="819.2">
      <stop offset="0.0" stop-color="#87fff5"/>
      <stop offset="1.0" stop-color="#18d0d6"/>
    </linearGradient>
    <linearGradient gradientTransform="matrix(0.0, 0.0851, -0.0921, 0.0, -18.9, 9.2)" gradientUnits="userSpaceOnUse" id="gradient7" spreadMethod="pad" x1="-819.2" x2="819.2">
      <stop offset="0.0" stop-color="#9ed9fa"/>
      <stop offset="1.0" stop-color="#ffffff"/>
    </linearGradient>
  </defs>
</svg>
