<?xml version="1.0" encoding="UTF-8" standalone="no"?>
<svg xmlns:xlink="http://www.w3.org/1999/xlink" height="540.45px" width="515.4px" xmlns="http://www.w3.org/2000/svg">
  <g transform="matrix(1.0, 0.0, 0.0, 1.0, 237.45, 133.35)">
    <path d="M164.15 76.3 L159.15 125.1 Q86.8 102.05 38.8 95.75 L42.95 51.2 Q116.2 60.6 164.15 76.3 M-129.75 217.7 Q-81.8 202.0 -8.55 192.6 L-4.4 237.15 Q-52.4 243.45 -124.75 266.5 L-129.75 217.7" fill="#3ee4ff" fill-opacity="0.6" fill-rule="evenodd" stroke="none"/>
    <path d="M164.15 76.3 Q116.2 60.6 42.95 51.2 L38.8 95.75 Q86.8 102.05 159.15 125.1 L164.15 76.3 M-129.75 217.7 Q-81.8 202.0 -8.55 192.6 L-4.4 237.15 Q-52.4 243.45 -124.75 266.5 L-129.75 217.7" fill="none" stroke="#00fff7" stroke-linecap="round" stroke-linejoin="round" stroke-width="2.0"/>
    <path d="M20.85 -122.9 Q17.8 -121.3 14.65 -119.35 L7.8 -114.95 Q1.0 -110.25 -6.15 -104.3 L-8.65 -102.2 Q-21.75 -91.55 -27.1 -92.05 -27.75 -76.25 -38.85 -60.45 L-48.0 -50.5 Q-36.5 -58.5 -19.75 -64.25 -8.5 -68.1 5.15 -70.95 L5.55 -71.05 Q15.25 -73.2 24.4 -73.95 55.05 -76.5 79.8 -63.3 102.25 -49.45 112.6 -35.0 116.1 -30.1 118.25 -25.15 113.6 -41.3 113.6 -60.1 107.7 -86.05 80.2 -107.65 54.85 -118.15 42.45 -128.75 L40.8 -130.2 40.1 -130.85 Q36.05 -134.8 14.95 -128.35 -17.3 -111.5 -42.0 -112.35 L-39.8 -110.75 Q-26.55 -101.6 -6.15 -104.3 M-48.0 -50.5 Q-53.6 -43.95 -55.8 -39.75 L-57.15 -33.4 Q-44.55 -47.7 -16.1 -55.35 L-12.1 -56.3 Q17.1 -63.35 42.6 -61.85 L55.85 -60.45 56.25 -60.4 Q80.2 -52.6 103.0 -31.4 113.25 -22.55 119.6 -13.3 123.9 -7.05 126.4 -0.6 125.4 -5.85 122.6 -12.9 120.1 -18.8 118.25 -25.15 M20.2 -20.7 Q19.1 -15.2 18.7 -9.7 L18.45 -4.55 Q20.85 -14.4 25.2 -21.2 L28.75 -27.3 29.1 -27.95 Q30.95 -31.7 32.45 -35.7 L34.45 -43.4 35.55 -47.4 M27.95 -45.95 L27.1 -43.85 26.7 -42.95 Q22.4 -32.1 20.35 -21.45 M66.15 -5.05 L67.75 -8.55 Q65.35 -6.15 62.7 -4.35 66.15 -7.5 68.0 -14.0 L68.95 -18.2 Q69.75 -23.0 69.9 -29.15 67.65 -26.3 64.2 -23.0 L61.0 -19.8 58.1 -16.6 54.1 -11.35 53.7 -10.7 Q52.1 -8.4 50.8 -6.0 L51.05 -7.05 52.0 -10.5 Q52.85 -13.2 54.15 -16.3 L51.45 -11.0 51.1 -10.4 Q46.3 -2.25 40.35 1.85 L39.55 2.35 Q41.55 -0.1 43.5 -3.55 47.05 -9.7 50.6 -18.9 L51.4 -20.95 50.25 -19.05 Q43.25 -7.25 33.45 1.25 L26.65 6.55 25.4 7.4 Q28.15 5.0 30.4 1.6 33.5 -3.15 35.7 -9.75 32.3 -4.95 28.6 -0.55 L28.35 -0.3 Q24.15 4.6 19.6 8.9 L21.25 6.55 23.25 2.45 Q25.95 -3.9 27.8 -13.95 28.9 -20.25 30.35 -26.6 L30.55 -27.55 32.45 -35.7 M-1.5 -45.2 L-3.5 -42.65 Q-17.5 -24.3 -17.9 -7.05 L-17.8 -2.75 Q-17.8 -7.3 -15.3 -12.1 -14.1 -14.4 -12.35 -16.7 L-9.9 -19.7 Q-7.25 -22.7 -3.7 -25.8 1.5 -30.4 8.65 -35.15 L12.65 -43.9 13.4 -45.55 M8.65 -35.15 Q5.8 -28.7 4.9 -19.35 L4.85 -18.95 4.7 -16.9 Q6.75 -24.45 16.15 -36.8 L18.45 -44.0 18.85 -45.2 M13.4 -15.1 L13.25 -16.65 Q13.1 -18.8 13.25 -21.25 L13.45 -23.75 13.5 -24.4 Q14.15 -29.95 16.15 -36.8 M15.15 -22.95 Q13.4 -18.9 13.25 -16.65 M26.7 -42.95 Q18.7 -30.7 15.45 -23.6 M54.15 -16.3 L54.7 -17.6 56.15 -20.9 56.45 -21.55 56.6 -21.85 Q59.4 -27.85 63.5 -35.15 L63.5 -35.2 64.25 -36.5 M69.9 -13.55 L71.75 -13.15 72.0 -13.45 74.55 -17.15 Q77.2 -21.45 79.5 -26.7 L80.2 -30.35 80.35 -31.4 80.7 -33.45 M-57.15 -33.4 L-58.5 -27.05 Q-65.95 -14.25 -60.45 -2.6 L-60.35 -2.95 Q-64.4 -13.2 -58.3 -20.7 -50.5 -30.3 -36.35 -37.75 -32.2 -39.9 -24.75 -42.3 26.85 -56.4 60.15 -48.95 L62.1 -48.5 Q69.5 -45.6 76.75 -41.05 85.75 -35.4 94.5 -27.1 L101.4 -20.2 Q106.0 -15.5 113.6 -5.3 118.8 1.9 118.95 8.0 L118.95 9.3 Q118.4 16.15 111.2 21.55 100.35 27.5 91.05 33.8 105.5 26.4 114.35 20.6 L120.2 16.35 124.55 12.5 Q128.25 8.8 126.4 -0.6 M73.85 -36.65 L73.8 -36.3 Q73.0 -33.15 69.9 -29.15 M50.45 -36.15 L49.55 -34.05 Q47.1 -28.75 44.4 -23.8 L43.15 -21.5 Q39.65 -15.35 35.7 -9.75 M51.4 -20.95 L51.9 -21.9 Q55.35 -28.2 58.05 -35.4 59.2 -37.6 59.75 -40.2 60.6 -44.15 60.15 -48.95 M71.75 -13.15 L71.85 -13.1 72.0 -13.45 M71.85 -13.1 Q64.2 1.3 56.25 7.45 61.15 5.55 64.85 3.05 71.95 -1.8 74.7 -8.8 L75.25 -10.3 75.9 -12.3 77.2 -16.75 Q78.45 -21.4 79.5 -26.7 M67.75 -8.55 Q69.85 -10.65 71.75 -13.15 M95.7 -19.15 L95.85 -18.1 96.2 -14.7 96.5 -9.25 Q96.65 -4.65 96.35 -0.15 98.3 10.8 98.35 20.3 L98.35 20.75 98.35 21.6 99.6 14.35 Q102.45 -3.9 102.0 -14.6 L101.4 -20.2 M94.5 -27.1 L94.1 -24.55 94.05 -24.45 93.8 -23.3 Q92.9 -19.25 91.15 -15.0 L88.95 -10.15 Q86.65 -5.65 83.5 -0.9 L80.5 2.05 74.5 6.9 Q73.6 9.85 73.0 12.65 L72.75 13.9 72.5 15.1 Q71.85 18.3 71.6 21.3 L71.6 21.35 71.35 24.15 Q70.95 28.55 71.85 34.3 73.3 28.35 78.45 20.8 L79.65 18.95 Q82.8 13.75 85.0 6.85 L86.15 2.75 86.45 1.55 86.95 -0.1 87.3 -1.3 Q87.85 -3.05 88.55 -4.65 L89.65 -7.1 94.2 -17.7 M-36.35 -37.75 Q-38.5 -34.5 -39.8 -31.1 L-39.95 -30.75 Q-41.3 -27.3 -41.75 -23.65 -42.85 -8.45 -45.05 -5.6 -43.45 -7.25 -41.7 -9.65 L-40.0 -12.25 Q-37.35 -16.4 -37.15 -17.65 -36.55 -26.95 -33.7 -34.15 L-31.75 -38.45 M-28.1 -30.35 L-30.5 -15.15 -30.55 -14.6 Q-31.4 -5.7 -30.2 2.45 -28.95 11.0 -25.45 18.7 L-17.25 32.35 Q-22.9 16.75 -23.0 2.55 -25.9 -17.9 -20.3 -39.2 M-37.15 -17.65 Q-37.5 -8.35 -36.45 -1.2 -35.1 8.4 -35.15 15.45 -35.2 19.05 -35.6 22.0 -34.2 20.6 -33.15 18.75 -29.85 12.85 -30.2 2.45 M-15.3 -12.1 Q-15.4 -8.3 -15.1 -4.8 -13.95 10.65 -6.2 20.45 -8.05 11.4 -4.7 1.65 L-4.3 0.55 Q-11.35 -7.75 -12.35 -16.7 M-3.7 -25.8 Q-4.65 -16.25 -1.55 -6.15 0.9 1.9 5.9 10.3 L2.85 7.55 -2.55 2.5 -2.15 4.2 1.85 10.35 Q11.35 23.8 22.25 29.3 L22.75 29.55 Q28.7 29.25 34.55 27.9 L38.05 26.95 Q47.85 24.05 57.35 18.05 53.15 20.05 47.95 20.9 53.55 17.95 59.5 10.5 L64.85 3.05 M-16.4 10.35 L-15.6 15.2 Q-10.75 42.5 0.65 63.95 L7.45 75.9 Q8.5 77.6 13.25 83.4 L15.55 86.2 Q13.9 83.75 12.45 80.9 10.65 77.5 9.1 73.55 3.6 59.85 0.75 39.85 -0.5 31.2 -1.25 21.4 -1.9 13.2 -2.15 4.2 L-4.3 0.55 -2.55 2.5 M-23.0 2.55 Q-21.65 11.95 -18.55 21.3 L-18.7 20.15 Q-19.7 11.1 -15.1 -4.8 M-60.35 -2.95 L-58.3 1.25 Q-54.4 8.1 -46.35 16.1 L-20.95 45.8 -17.5 49.85 -15.3 52.4 Q-0.4 70.95 8.25 89.7 L8.35 88.8 8.35 88.6 8.4 87.8 8.4 87.15 8.4 86.75 8.4 86.15 Q8.4 81.6 7.45 75.9 M-78.2 89.1 L-79.6 86.2 -79.3 88.95 -78.2 89.1 Q-76.9 91.85 -75.7 95.05 L-73.6 100.85 Q-71.15 108.1 -68.95 116.95 -65.2 124.65 -61.65 130.55 L-54.2 111.3 Q-46.0 79.3 -46.1 69.6 -44.05 64.7 -37.0 58.65 L-20.95 45.8 M-120.6 62.35 L-120.8 60.8 -128.2 54.3 Q-132.8 45.6 -134.8 45.55 -135.9 46.9 -135.9 48.95 -135.9 54.3 -128.2 64.3 -122.05 70.45 -120.8 76.65 -119.55 82.9 -113.85 90.75 -111.4 92.6 -109.7 95.6 L-105.5 102.7 Q-98.45 115.6 -94.1 131.3 L-91.7 128.4 Q-88.3 123.75 -84.0 115.7 -81.75 109.3 -80.55 103.6 -84.65 97.65 -87.9 87.55 L-88.7 84.95 -87.5 82.05 -82.75 70.55 -77.75 61.45 -75.55 51.75 Q-72.3 44.05 -77.4 45.8 -82.55 47.6 -87.1 58.0 L-89.9 60.0 -89.95 60.05 -90.4 60.4 Q-95.65 64.55 -98.95 70.6 L-100.9 74.6 M-17.5 49.85 Q-31.95 58.0 -40.05 68.55 -46.25 90.7 -52.45 106.9 L-54.2 111.3 M-13.25 64.45 Q-13.4 74.95 -18.55 84.55 -24.8 96.05 -25.05 107.45 L-24.7 113.25 Q-24.2 117.0 -22.85 120.9 -21.05 126.3 -17.75 132.1 -9.65 151.9 -16.0 174.05 -18.8 182.7 -28.95 194.85 -26.3 195.4 -23.4 196.75 -16.6 199.9 -8.6 207.1 2.75 217.35 14.65 218.0 14.5 205.55 16.25 190.0 20.55 159.7 15.95 141.85 15.2 138.8 14.15 136.15 10.7 127.25 9.2 115.7 7.65 103.65 8.35 88.8 M-17.25 32.35 Q-11.9 45.15 -5.35 55.4 L-5.1 55.8 -1.7 60.8 0.65 63.95 M-89.9 60.0 Q-88.3 57.7 -89.35 43.95 L-92.45 35.2 Q-96.3 25.5 -101.25 18.9 -103.75 20.15 -104.2 23.5 -104.45 25.4 -104.05 27.95 L-99.35 38.95 Q-99.05 44.05 -100.15 50.1 -100.7 53.15 -101.55 56.45 L-101.85 57.45 M-100.15 50.1 L-109.4 37.05 -122.45 22.05 Q-125.8 21.8 -125.35 25.5 -125.2 27.25 -124.15 29.85 -123.0 32.0 -120.3 35.75 L-114.1 43.95 Q-111.0 52.05 -110.55 55.4 L-110.45 56.55 -110.65 57.45 M-110.55 55.4 Q-112.35 56.55 -117.9 47.3 -123.5 38.05 -127.65 33.15 -131.85 28.2 -132.75 30.95 -133.2 32.0 -133.0 33.35 -132.65 36.25 -129.45 40.5 L-123.8 51.65 Q-122.5 54.0 -121.3 58.25 L-120.8 60.8 M-94.1 131.3 Q-98.9 136.55 -103.0 138.85 -105.2 140.1 -107.2 140.45 -113.5 137.7 -114.55 119.5 -115.3 107.05 -109.7 95.6 M-113.85 90.75 Q-117.85 106.05 -117.9 122.85 -117.95 143.15 -113.45 145.15 L-107.5 146.0 -104.1 146.7 Q-97.95 147.05 -91.45 140.95 -87.3 137.0 -83.05 130.4 -71.8 111.95 -73.6 100.85 M-68.95 116.95 Q-73.5 133.6 -83.85 143.7 -87.9 147.7 -92.9 150.65 -90.5 151.85 -88.4 153.3 L-74.3 176.8 Q-71.0 182.3 -59.85 182.75 -57.2 182.05 -54.85 180.15 -50.8 176.85 -47.65 169.9 -34.0 148.25 -22.85 120.9 M-104.1 146.7 Q-97.9 148.15 -92.9 150.65 M-61.65 130.55 L-60.0 133.1 Q-56.4 138.7 -53.05 142.45 M24.65 406.1 L24.6 404.1 -18.2 404.1 -22.75 383.85 -27.3 363.65 -28.5 358.35 Q-30.95 349.4 -33.0 340.65 -35.85 328.35 -37.9 316.55 -41.3 296.9 -42.4 278.6 L-43.75 280.15 -47.7 273.25 -46.7 267.35 Q-49.75 237.95 -36.95 219.7 L-42.8 219.5 Q-44.2 214.35 -39.25 207.5 -35.6 202.5 -30.7 196.85 L-28.95 194.85 M-79.3 88.95 Q-78.9 95.5 -80.55 103.6 M-79.6 86.2 Q-83.55 81.55 -87.5 82.05 M-39.25 207.5 Q-35.0 208.4 -30.75 210.3 L-30.7 210.35 Q-21.55 214.4 -12.35 222.95 2.4 236.15 15.8 234.75 14.7 227.2 14.65 218.0 M21.7 249.6 L17.4 243.1 18.7 247.5 Q9.65 246.3 -0.3 241.9 -12.95 236.3 -27.05 225.6 L-27.75 225.05 Q-33.15 221.05 -36.95 219.7 M-46.7 267.35 L-46.4 267.15 Q-42.45 264.3 -37.6 262.15 L-36.2 261.55 -35.7 261.3 -35.45 261.2 -35.15 261.1 -33.95 260.65 -32.75 260.2 -19.05 256.65 -10.8 255.55 Q-4.45 255.3 1.0 255.75 16.3 257.0 24.15 263.9 L36.2 261.9 36.95 254.05 M-42.4 278.6 Q-35.55 271.8 -15.55 269.0 5.1 266.05 21.75 272.25 L22.4 272.85 Q23.05 273.65 23.75 270.8 L23.85 270.2 24.1 269.0 24.15 268.55 24.15 263.9 M-33.0 340.65 L-32.5 340.45 -24.35 337.35 -23.75 337.15 -21.05 336.3 Q4.5 328.4 24.4 335.75 L23.9 310.15 Q22.1 304.15 4.4 303.9 0.9 303.8 -3.2 304.0 L-9.9 304.35 Q-30.6 306.65 -37.9 316.55 M-27.3 363.65 Q-22.25 361.8 -17.4 360.4 L-17.1 360.3 Q6.15 353.6 24.55 357.55 L24.4 335.75 M-22.75 383.85 Q-17.95 381.7 -13.15 380.35 L-12.3 380.1 Q6.15 374.95 24.6 380.55 L24.6 362.85 24.6 361.3 24.55 357.85 24.55 357.55 Q25.3 348.05 26.65 337.25 29.2 341.85 36.7 346.0 M91.05 33.8 Q83.05 39.15 76.2 44.8 89.5 52.7 91.45 57.65 91.95 64.0 93.45 70.5 L93.55 70.95 Q96.2 82.45 101.8 94.55 L115.6 123.55 126.25 125.55 126.4 125.6 147.05 129.45 Q159.6 131.65 172.15 131.15 L182.9 130.25 192.8 128.5 Q194.55 128.9 194.15 130.55 L202.85 127.75 Q207.45 126.3 213.6 127.1 222.3 129.35 237.7 129.1 245.65 128.95 244.1 131.55 L243.45 132.0 Q238.0 135.2 227.25 135.85 234.55 137.4 235.5 138.95 237.0 143.15 235.5 151.25 234.25 160.65 233.0 161.3 229.65 162.15 228.65 154.75 L227.2 156.95 Q232.8 163.35 231.3 164.25 226.25 165.1 223.75 161.95 L223.15 162.8 Q221.4 162.55 220.8 159.9 L212.5 153.8 Q203.5 160.55 194.45 157.45 193.85 189.5 190.35 187.5 L183.05 183.1 Q176.95 179.65 170.0 176.3 153.2 168.25 131.3 160.95 97.8 154.6 90.0 143.75 L80.35 124.85 77.8 130.85 Q77.1 133.5 76.75 136.3 L76.45 139.0 Q75.3 153.95 82.7 173.6 92.1 198.85 101.0 212.15 103.65 216.15 106.3 219.1 L107.0 219.85 109.7 222.45 Q107.65 227.05 105.0 230.75 L103.95 232.15 100.55 235.9 100.25 236.15 Q102.4 245.25 102.5 253.75 L102.45 257.0 102.0 262.45 102.0 262.6 101.5 265.7 Q100.85 269.25 99.85 272.65 L99.4 274.0 99.2 274.7 98.75 275.9 97.55 279.0 97.45 279.15 95.45 279.45 95.1 281.4 Q90.2 306.4 83.5 330.55 L82.25 335.05 77.1 352.1 76.1 355.25 Q72.2 367.65 69.25 377.65 66.25 387.75 64.25 395.35 L62.0 404.1 24.6 404.1 24.6 382.9 24.6 380.55 M228.65 154.75 L231.05 151.25 Q231.1 150.2 230.2 149.2 L228.85 147.95 Q227.2 146.75 224.4 145.6 L221.65 146.15 Q217.1 146.4 208.9 143.7 204.5 147.75 198.2 149.1 L187.35 150.25 M227.25 135.85 L219.5 136.05 216.8 135.95 M202.85 134.5 Q205.75 134.15 208.4 134.6 211.1 135.05 213.6 136.35 215.05 137.15 219.05 138.1 226.25 138.6 227.1 141.25 227.65 143.1 226.05 144.55 L228.3 144.85 228.1 143.85 M226.05 144.55 L224.4 145.6 M228.85 147.95 L228.3 144.85 M192.8 128.5 Q190.7 129.45 189.0 131.35 L194.15 130.55 M189.0 131.35 Q187.85 132.6 186.95 134.3 183.35 140.9 182.85 154.1 184.5 153.95 190.5 156.05 L190.6 156.05 194.15 157.3 194.45 157.45 M182.85 154.1 Q182.5 154.7 182.45 157.05 184.7 180.05 190.35 187.5 M172.15 131.15 Q166.2 134.8 163.8 154.1 163.7 157.85 164.0 161.0 164.85 172.4 170.0 176.3 M182.9 130.25 Q174.4 133.85 173.6 156.55 173.55 161.0 174.1 164.85 175.7 177.25 183.05 183.1 M227.2 156.95 L223.75 161.95 M220.8 159.9 Q220.3 157.65 221.7 151.75 214.95 150.7 209.9 146.35 M209.65 151.7 L212.5 153.8 M86.15 2.75 Q84.95 7.75 84.75 13.15 84.4 22.7 87.1 33.55 L87.45 31.9 87.65 31.05 91.35 19.0 92.3 16.65 92.5 16.15 94.65 9.8 94.9 8.8 Q96.0 4.4 96.35 -0.15 M74.5 6.9 L69.95 9.85 68.2 10.9 65.2 12.45 63.0 14.5 Q61.05 17.55 59.55 20.8 56.55 27.2 55.35 34.1 L55.15 35.35 57.15 32.35 59.25 29.45 Q64.1 23.0 71.3 16.2 L72.5 15.1 M58.0 15.75 L59.2 15.0 55.9 16.15 Q67.7 11.05 74.7 -8.8 M54.75 21.7 L53.55 24.65 52.55 27.1 51.55 29.6 51.3 30.3 Q46.65 44.85 47.05 62.2 47.1 66.0 47.45 70.0 46.55 54.0 53.05 44.2 L53.45 43.6 54.4 42.75 54.5 42.7 71.6 21.35 M52.55 27.1 L52.35 27.2 51.55 29.6 M93.45 70.5 Q89.95 56.3 74.45 46.2 L73.1 47.35 Q57.65 60.95 53.0 69.55 49.95 79.1 54.65 88.7 60.2 102.45 63.05 111.9 67.5 126.6 65.4 130.9 65.75 135.05 66.5 139.4 69.25 156.35 77.2 176.2 L80.25 186.7 Q84.6 203.85 84.6 219.0 L84.6 219.05 Q100.5 219.0 101.0 212.15 M76.2 44.8 L74.45 46.2 M71.35 24.15 Q71.0 26.45 66.2 31.4 L54.5 42.7 M65.2 12.45 Q62.3 13.85 59.2 15.0 M53.55 24.65 L52.35 27.2 M57.35 18.05 Q60.45 16.6 63.0 14.5 M1.85 10.35 Q2.2 19.75 2.0 26.65 1.8 35.1 0.75 39.85 M-1.25 21.4 L0.7 30.5 2.0 26.65 M38.05 26.95 L37.05 31.45 Q34.65 45.75 40.25 64.05 42.95 72.05 45.9 78.1 L49.75 84.9 50.05 85.35 50.8 86.5 51.8 87.95 51.85 88.0 Q50.25 83.1 49.05 78.3 L48.65 76.65 47.6 71.7 47.55 71.35 47.45 70.0 M40.25 64.05 L39.35 61.35 37.8 56.2 37.05 53.35 Q34.6 43.9 34.25 36.4 L34.2 34.45 Q34.15 30.95 34.55 27.9 M34.2 34.45 L35.35 39.3 37.05 31.45 M31.7 85.75 Q28.6 83.0 24.85 80.7 L24.55 80.5 23.9 80.1 Q18.85 77.1 12.75 74.8 L12.75 76.25 M31.9 85.9 L32.85 86.85 33.35 87.3 Q35.55 84.6 38.35 82.45 41.7 79.85 45.9 78.1 M9.1 73.55 L12.75 74.8 M66.95 63.65 Q66.9 66.3 67.3 68.65 68.3 74.3 72.05 78.3 83.9 92.8 84.7 103.45 85.0 107.65 84.0 112.8 82.95 118.3 80.35 124.85 M53.0 69.55 L52.15 71.3 51.85 72.05 Q50.85 74.7 51.05 76.75 M54.65 88.7 Q51.25 85.15 49.0 77.85 L48.65 76.65 M49.75 84.9 L50.35 86.0 50.8 86.5 M99.85 126.0 Q103.3 123.25 115.6 123.55 M79.65 18.95 Q83.7 16.05 84.75 13.15 M83.3 234.55 L83.1 235.6 84.05 235.4 Q98.85 231.85 104.5 224.5 105.9 222.65 106.75 220.55 L107.0 219.85 M84.6 219.0 L84.6 219.05 Q84.55 224.5 84.0 229.7 L83.65 232.25 Q54.15 244.85 16.8 240.4 L17.4 243.1 M101.5 265.7 Q96.45 272.65 72.5 269.95 59.35 268.4 50.6 266.6 L49.2 266.3 46.85 265.75 43.05 264.7 41.95 264.35 Q38.35 263.2 36.2 261.9 L35.45 269.8 37.35 270.6 44.8 273.45 46.35 274.0 93.9 279.6 95.45 279.45 M15.8 234.75 L16.8 240.4 M24.15 254.25 L24.15 250.6 M24.15 261.7 L24.15 257.05 M21.75 272.25 L21.8 272.55 M21.85 272.95 L21.95 273.95 22.4 272.85 M38.9 257.5 Q41.35 254.15 45.95 250.8 51.15 247.0 59.05 243.25 M47.55 326.95 L57.85 330.55 62.7 331.4 Q76.1 333.4 83.5 330.55 M37.35 270.6 Q33.05 293.05 30.1 312.25 L30.1 312.4 30.05 312.55 30.05 312.65 30.05 312.8 30.05 312.9 30.05 313.05 30.05 313.15 30.05 313.3 30.05 313.4 30.05 313.55 30.05 313.65 30.1 313.75 30.1 313.9 30.15 314.0 30.15 314.1 30.2 314.25 30.2 314.35 30.25 314.5 30.25 314.6 30.3 314.7 30.35 314.85 30.35 314.95 30.4 315.05 30.4 315.15 30.5 315.3 30.55 315.4 30.6 315.5 30.65 315.65 30.7 315.75 30.75 315.85 30.8 315.9 30.85 316.0 30.95 316.2 31.0 316.3 31.1 316.45 31.15 316.55 31.2 316.65 46.95 326.7 M30.05 312.55 Q28.05 325.65 26.65 337.25 M24.6 361.3 L25.1 362.4 Q26.55 364.95 30.6 367.55 L30.7 367.65 Q36.0 371.0 45.6 374.35 60.4 379.0 69.25 377.65 M24.6 382.9 L24.9 384.05 Q25.35 385.3 26.45 386.5 L29.2 388.9 30.1 389.5 Q34.65 392.4 43.0 395.35 57.25 399.0 64.25 395.35 M36.95 346.15 Q42.05 348.9 49.35 351.5 70.85 359.1 76.1 355.25 M21.95 273.95 Q23.2 285.6 23.9 310.15 M83.1 235.6 Q82.2 240.7 80.65 245.55 92.4 243.45 100.25 236.15 M-60.45 -2.6 L-58.3 1.25" fill="none" stroke="#000000" stroke-linecap="round" stroke-linejoin="round" stroke-width="2.0"/>
    <path d="M7.8 -114.95 L14.65 -119.35 Q-19.3 -104.6 -39.8 -110.75 L-42.0 -112.35 Q-17.3 -111.5 14.95 -128.35 36.05 -134.8 40.1 -130.85 L40.8 -130.2 42.45 -128.75 Q50.65 -116.7 81.05 -103.6 L102.9 -77.35 Q71.45 -81.9 39.95 -78.2 97.15 -75.7 106.85 -65.95 106.9 -54.9 112.6 -35.0 102.25 -49.45 79.8 -63.3 55.05 -76.5 24.4 -73.95 L17.25 -76.2 Q34.25 -83.15 60.5 -85.4 26.1 -89.35 -4.65 -72.65 L5.55 -71.05 5.15 -70.95 Q-8.5 -68.1 -19.75 -64.25 L-22.45 -67.05 Q17.0 -97.85 73.7 -96.05 21.2 -104.5 -23.5 -78.25 L7.8 -114.95 M20.85 -122.9 Q17.8 -121.3 14.65 -119.35 17.8 -121.3 20.85 -122.9 M120.2 16.35 L114.35 20.6 Q126.35 9.75 121.5 -0.4 95.75 -37.25 64.05 -52.3 22.05 -61.6 -8.25 -52.3 L-12.1 -56.3 Q17.1 -63.35 42.6 -61.85 60.65 -56.0 77.6 -47.65 66.75 -54.75 55.85 -60.45 L56.25 -60.4 Q80.2 -52.6 103.0 -31.4 113.25 -22.55 119.6 -13.3 128.15 7.4 120.2 16.35 M93.45 70.5 L93.55 70.95 Q96.2 82.45 101.8 94.55 L114.3 120.8 112.8 120.95 Q103.4 121.9 95.7 125.85 94.75 126.35 95.3 126.35 L126.95 125.7 147.05 129.45 Q159.6 131.65 172.15 131.15 166.2 134.8 163.8 154.1 163.7 157.85 164.0 161.0 129.45 154.3 97.35 135.7 90.7 127.15 86.4 98.5 83.35 85.4 72.45 72.25 72.85 67.4 74.25 64.0 71.5 66.95 70.25 69.2 66.2 62.25 69.8 53.9 65.15 59.95 67.3 68.65 68.3 74.3 72.05 78.3 83.9 92.8 84.7 103.45 85.0 107.65 84.0 112.8 75.9 106.05 63.05 111.9 60.2 102.45 54.65 88.7 49.95 79.1 53.0 69.55 57.65 60.95 73.1 47.35 L74.45 46.2 Q89.95 56.3 93.45 70.5 M182.9 130.25 L192.8 128.5 Q190.7 129.45 189.0 131.35 187.85 132.6 186.95 134.3 176.4 150.25 177.85 166.3 L174.1 164.85 Q173.55 161.0 173.6 156.55 174.4 133.85 182.9 130.25 M76.45 139.0 Q75.3 153.95 82.7 173.6 92.1 198.85 101.0 212.15 100.5 219.0 84.6 219.05 L84.6 219.0 84.6 219.05 84.6 219.0 Q84.6 203.85 80.25 186.7 77.45 167.35 72.0 149.05 73.25 143.6 76.45 139.0 M107.0 219.85 L109.7 222.45 Q107.65 227.05 105.0 230.75 94.65 236.5 83.55 239.9 L84.65 235.25 84.05 235.4 Q98.85 231.85 104.5 224.5 105.9 222.65 106.75 220.55 L107.0 219.85 M76.1 355.25 Q72.2 367.65 69.25 377.65 60.4 379.0 45.6 374.35 36.0 371.0 30.7 367.65 L30.7 367.6 31.3 368.0 Q33.2 356.8 36.7 346.0 L36.95 346.15 Q42.05 348.9 49.35 351.5 70.85 359.1 76.1 355.25 M64.25 395.35 L62.0 404.1 30.4 404.1 30.75 399.75 Q30.85 394.0 29.7 389.25 L29.2 388.9 30.1 389.5 Q34.65 392.4 43.0 395.35 57.25 399.0 64.25 395.35 M8.35 88.8 Q7.65 103.65 9.2 115.7 1.6 110.6 -2.0 109.9 -9.25 108.1 -16.65 110.05 -23.45 108.25 -12.7 80.2 L-13.25 64.45 -13.4 60.2 -30.55 116.4 Q-32.95 129.55 -36.45 141.0 L-36.55 141.25 Q-45.7 168.7 -54.85 172.6 -63.85 160.35 -83.85 143.7 -73.5 133.6 -68.95 116.95 -65.2 124.65 -61.65 130.55 L-60.0 133.1 -61.65 130.55 -61.1 129.1 -60.0 133.1 Q-57.9 138.95 -53.05 142.45 L-52.65 142.7 Q-50.3 139.9 -51.1 136.1 -54.15 121.45 -52.45 106.9 -46.25 90.7 -40.05 68.55 -31.95 58.0 -17.5 49.85 L-15.3 52.4 Q-0.4 70.95 8.25 89.7 L8.35 88.8 M15.95 141.85 Q20.55 159.7 16.25 190.0 14.5 205.55 14.65 218.0 2.75 217.35 -8.6 207.1 -16.6 199.9 -23.4 196.75 -10.0 178.15 -4.1 152.05 0.4 143.15 15.95 141.85 M15.8 234.75 L16.8 240.4 17.4 243.1 18.7 247.5 Q9.65 246.3 -0.3 241.9 -23.8 229.15 -30.7 210.35 -21.55 214.4 -12.35 222.95 2.4 236.15 15.8 234.75 M24.4 335.75 L24.55 357.55 Q6.15 353.6 -17.1 360.3 L-17.4 360.4 Q-18.5 355.15 -20.25 349.1 L-23.75 337.15 -21.05 336.3 Q4.5 328.4 24.4 335.75 M-12.3 380.1 Q6.15 374.95 24.6 380.55 L24.6 382.9 24.6 404.1 -8.15 404.1 Q-8.8 398.45 -10.05 392.55 L-12.3 380.1 M-91.45 140.95 Q-93.85 140.2 -96.45 139.6 -85.75 133.7 -75.7 95.05 L-73.6 100.85 Q-71.8 111.95 -83.05 130.4 -87.3 137.0 -91.45 140.95" fill="#3a3b48" fill-rule="evenodd" stroke="none"/>
    <path d="M100.25 236.15 Q102.4 245.25 102.5 253.75 87.95 259.15 62.7 258.9 85.15 259.75 89.2 259.3 L102.45 257.0 102.0 262.45 95.8 263.7 Q85.75 265.8 70.5 264.2 L54.8 262.5 49.85 260.2 Q51.2 257.15 51.75 254.35 63.75 261.1 95.3 251.35 76.7 255.55 54.35 252.45 67.35 248.55 78.85 243.8 69.1 246.5 59.25 247.95 L65.05 246.15 Q75.7 242.55 83.3 234.55 L83.1 235.6 Q82.2 240.7 80.65 245.55 92.4 243.45 100.25 236.15 M102.0 262.6 L101.5 265.7 Q96.45 272.65 72.5 269.95 L63.75 266.45 Q88.45 271.0 100.2 263.1 L102.0 262.6 M31.4 252.8 L31.65 251.95 33.15 251.95 32.45 251.95 31.4 252.8 M24.15 251.8 L24.15 254.25 -26.5 245.5 Q-25.05 248.55 -11.75 250.5 1.6 252.4 24.15 257.05 L24.15 261.7 24.15 263.9 Q16.3 257.0 1.0 255.75 -11.15 250.15 -27.0 252.55 L-35.65 255.3 Q-34.4 245.3 -31.5 235.6 -18.65 242.05 -4.45 246.5 9.95 251.0 24.15 251.8 M46.85 265.75 L47.25 265.1 49.2 266.3 46.85 265.75" fill="#2b2c36" fill-rule="evenodd" stroke="none"/>
    <path d="M194.4 130.5 L202.85 127.75 Q207.45 126.3 213.6 127.1 222.3 129.35 237.7 129.1 245.65 128.95 244.1 131.55 L243.45 132.0 Q225.9 134.95 208.4 134.6 211.1 135.05 213.6 136.35 215.05 137.15 219.05 138.1 226.25 138.6 227.1 141.25 227.65 143.1 226.05 144.55 214.95 145.55 209.2 141.25 200.25 147.35 191.3 145.85 192.1 138.15 194.3 130.7 L194.4 130.5 M227.25 135.85 Q234.55 137.4 235.5 138.95 237.0 143.15 235.5 151.25 234.25 160.65 233.0 161.3 231.2 157.35 230.5 152.05 L231.05 151.25 Q231.1 150.2 230.2 149.2 231.1 150.2 231.05 151.25 L230.5 152.05 228.65 154.75 227.2 156.95 Q232.8 163.35 231.3 164.25 226.25 165.1 223.75 161.95 L227.05 150.7 221.65 146.15 224.4 145.6 Q227.2 146.75 228.85 147.95 L230.2 149.2 Q229.9 144.9 230.25 139.9 L219.5 136.05 227.25 135.85 M95.1 281.4 Q90.2 306.4 83.5 330.55 76.1 333.4 62.7 331.4 L64.25 331.6 Q55.8 328.4 48.45 322.4 L48.65 321.1 50.25 310.1 54.55 282.2 Q72.1 282.9 91.1 281.65 L95.1 281.4 M21.25 6.55 L19.6 8.9 Q24.15 4.6 28.35 -0.3 L22.65 8.4 30.4 1.6 Q28.15 5.0 25.4 7.4 L26.65 6.55 33.45 1.25 Q32.3 5.2 33.55 6.4 34.95 2.5 38.95 0.45 L37.2 3.55 Q53.8 6.15 59.5 10.5 53.55 17.95 47.95 20.9 53.15 20.05 57.35 18.05 47.85 24.05 38.05 26.95 L34.55 27.9 Q28.7 29.25 22.75 29.55 L22.25 29.3 Q11.15 22.1 2.85 7.55 L5.9 10.3 Q0.9 1.9 -1.55 -6.15 8.55 -6.15 22.65 -0.5 L17.25 9.75 23.25 2.45 21.25 6.55 M1.6 -4.65 Q0.2 -4.55 0.25 -3.1 0.25 -0.75 2.65 -1.9 6.65 -3.9 1.6 -4.65 M208.4 134.6 Q205.75 134.15 202.85 134.5 205.75 134.15 208.4 134.6 M227.2 156.95 L223.75 161.95 227.2 156.95 M40.25 64.05 Q42.95 72.05 45.9 78.1 41.7 79.85 38.35 82.45 39.4 78.4 38.9 74.8 L37.15 77.5 Q36.5 70.5 36.9 56.35 L37.8 56.2 39.35 61.35 40.25 64.05 M54.8 8.85 Q52.4 9.45 53.8 11.45 54.3 12.2 55.0 12.15 60.75 11.65 54.8 8.85 M8.9 48.55 L9.05 48.5 Q28.05 42.55 34.25 36.4 34.45 40.85 35.4 45.95 L34.8 53.25 Q34.6 52.8 34.15 52.65 L33.35 52.5 33.1 52.6 31.8 53.5 Q31.45 53.65 31.5 54.05 L31.6 54.25 32.05 54.65 31.65 54.8 31.65 56.4 31.55 58.65 31.55 58.7 34.3 56.6 34.7 56.55 Q34.5 68.15 37.05 77.7 L33.5 83.95 32.35 86.35 32.85 86.85 31.9 85.9 Q27.7 79.55 22.7 74.25 22.75 76.9 23.9 80.1 18.85 77.1 12.75 74.8 L11.0 67.2 13.3 70.1 10.35 63.7 Q9.5 59.1 9.15 55.4 L9.15 55.1 Q13.45 55.85 17.45 57.4 17.5 57.8 20.5 59.4 L21.5 59.95 21.75 60.15 21.55 59.7 Q20.95 58.7 20.7 57.5 20.4 56.2 17.35 54.65 L18.65 54.45 Q17.3 53.1 14.85 52.65 12.1 52.15 9.75 51.0 L9.7 51.05 Q9.05 51.9 9.9 52.65 L8.95 52.3 8.85 49.8 8.9 48.7 8.9 48.55 M36.95 53.35 L36.95 53.05 37.05 53.35 36.95 53.35 M34.8 53.35 L34.8 53.75 33.65 54.05 Q34.0 53.75 34.5 53.65 L34.8 53.35 M21.95 273.95 Q23.2 285.6 23.9 310.15 22.1 304.15 4.4 303.9 0.9 303.8 -3.2 304.0 -13.2 302.05 -23.35 301.85 -22.9 298.05 -23.15 294.15 L-23.15 292.15 Q-23.1 291.5 -23.3 290.9 L-23.35 290.5 -23.35 286.85 Q-23.3 281.55 -24.15 276.35 -19.95 274.15 -15.45 272.95 -0.75 268.85 14.95 272.15 L21.85 272.95 21.95 273.95 M-89.9 60.0 L-87.1 58.0 Q-82.55 47.6 -77.4 45.8 -72.3 44.05 -75.55 51.75 L-77.75 61.45 -82.75 70.55 -87.5 82.05 -88.7 84.95 -87.9 87.55 Q-84.65 97.65 -80.55 103.6 -81.75 109.3 -84.0 115.7 -93.25 119.95 -96.65 115.95 L-98.15 112.65 Q-102.25 104.15 -107.8 95.05 -116.85 82.6 -122.9 68.05 -131.4 57.6 -135.9 48.95 -135.9 46.9 -134.8 45.55 -132.8 45.6 -128.2 54.3 L-120.8 60.8 -120.6 62.35 Q-120.1 63.5 -118.55 64.55 L-118.45 60.9 Q-121.9 47.25 -133.0 33.35 -133.2 32.0 -132.75 30.95 -131.85 28.2 -127.65 33.15 -123.5 38.05 -117.9 47.3 -112.35 56.55 -110.55 55.4 L-110.45 56.55 -107.0 58.9 -110.25 46.2 -125.35 25.5 Q-125.8 21.8 -122.45 22.05 L-109.4 37.05 -100.15 50.1 Q-100.7 53.15 -101.55 56.45 L-98.9 59.15 -96.75 39.45 -104.2 23.5 Q-103.75 20.15 -101.25 18.9 -96.3 25.5 -92.45 35.2 L-89.35 43.95 Q-88.3 57.7 -89.9 60.0 L-89.95 60.05 -89.9 60.0 M-98.95 70.6 Q-95.65 64.55 -90.4 60.4 L-89.95 60.05 Q-101.6 63.1 -110.2 71.25 L-99.95 66.7 -103.75 75.9 Q-106.1 88.4 -98.95 70.6 M-101.85 57.45 L-101.55 56.45 -101.85 57.45 M-110.65 57.45 L-110.45 56.55 -110.65 57.45" fill="#ffead5" fill-rule="evenodd" stroke="none"/>
    <path d="M76.2 44.8 Q89.5 52.7 91.45 57.65 91.95 64.0 93.45 70.5 89.95 56.3 74.45 46.2 L76.2 44.8 M172.15 131.15 L182.9 130.25 Q174.4 133.85 173.6 156.55 173.55 161.0 174.1 164.85 L164.0 161.0 Q163.7 157.85 163.8 154.1 166.2 134.8 172.15 131.15 M194.45 157.45 Q193.85 189.5 190.35 187.5 192.7 175.25 190.5 156.05 L190.6 156.05 194.15 157.3 194.45 157.45 M101.0 212.15 Q103.65 216.15 106.3 219.1 L100.65 221.6 Q93.2 224.75 87.2 228.85 L87.2 229.05 Q95.05 228.6 104.5 224.5 98.85 231.85 84.05 235.4 L83.1 235.6 83.3 234.55 83.6 232.6 83.65 232.25 84.0 229.7 Q84.55 224.5 84.6 219.05 100.5 219.0 101.0 212.15 M101.5 265.7 Q100.85 269.25 99.85 272.65 L95.6 272.45 59.95 270.4 Q65.65 272.6 76.35 273.5 L99.2 274.7 98.75 275.9 99.1 274.9 77.2 275.8 Q60.15 276.95 50.6 266.6 59.35 268.4 72.35 269.9 L72.5 269.95 Q96.45 272.65 101.5 265.7 M82.25 335.05 L77.1 352.1 76.1 355.25 Q70.85 359.1 49.35 351.5 42.05 348.9 36.95 346.15 40.45 338.65 42.5 330.25 58.1 334.15 74.45 335.45 L82.25 335.05 M69.25 377.65 Q66.25 387.75 64.25 395.35 57.25 399.0 43.0 395.35 34.65 392.4 30.1 389.5 29.65 386.2 29.9 381.6 L30.7 367.65 Q36.0 371.0 45.6 374.35 60.4 379.0 69.25 377.65 M14.65 218.0 Q14.7 227.2 15.8 234.75 2.4 236.15 -12.35 222.95 -21.55 214.4 -30.7 210.35 L-30.75 210.3 -23.4 196.75 Q-16.6 199.9 -8.6 207.1 2.75 217.35 14.65 218.0 M-20.95 45.8 L-17.5 49.85 Q-31.95 58.0 -40.05 68.55 -46.25 90.7 -52.45 106.9 L-54.2 111.3 Q-46.0 79.3 -46.1 69.6 -44.05 64.7 -37.0 58.65 L-20.95 45.8 M-68.95 116.95 Q-73.5 133.6 -83.85 143.7 -87.35 142.15 -91.45 140.95 -87.3 137.0 -83.05 130.4 -71.8 111.95 -73.6 100.85 -71.15 108.1 -68.95 116.95 M24.15 263.9 L24.15 268.55 24.1 269.0 Q17.7 265.55 9.45 262.95 0.2 260.05 -20.8 262.1 -2.55 262.85 8.8 265.1 -13.05 263.2 -27.55 265.55 L-20.35 258.65 -20.95 259.25 Q-4.65 259.75 11.35 259.5 -1.2 257.7 -15.4 257.45 L-19.0 257.4 -18.45 256.85 -18.05 256.5 -19.05 256.65 -10.8 255.55 Q-4.45 255.3 1.0 255.75 16.3 257.0 24.15 263.9 M23.85 270.2 L23.75 270.8 21.45 269.95 23.85 270.2 M23.9 310.15 L24.4 335.75 Q4.5 328.4 -21.05 336.3 L-23.75 337.15 -23.2 336.95 -23.4 335.5 Q-24.6 327.3 -26.75 319.0 -29.0 310.3 -19.75 307.95 -10.35 305.6 -0.7 304.9 2.1 304.7 4.4 303.9 22.1 304.15 23.9 310.15 M61.3 276.2 Q62.35 276.0 63.35 276.9 63.75 277.2 61.3 276.2 M24.55 357.55 L24.55 357.85 24.6 361.3 25.1 362.4 24.6 362.85 24.6 380.55 Q6.15 374.95 -12.3 380.1 L-13.15 380.35 -14.25 374.15 Q-14.8 371.1 -17.1 360.3 6.15 353.6 24.55 357.55 M24.6 361.3 L24.6 362.85 24.6 361.3 M-79.6 86.2 L-79.3 88.95 Q-86.6 84.3 -87.9 87.55 L-88.7 84.95 -87.5 82.05 Q-83.55 81.55 -79.6 86.2 M-103.0 138.85 Q-105.2 140.1 -107.2 140.45 -113.5 137.7 -114.55 119.5 -115.3 107.05 -109.7 95.6 L-105.5 102.7 Q-115.5 141.2 -103.0 138.85 M-22.15 203.35 Q-23.8 207.2 -19.35 212.75 -14.0 219.45 12.4 234.85 -9.5 218.05 -12.8 214.0 -17.35 208.4 -22.15 203.35 M-24.35 337.35 L-23.75 337.15 -24.35 337.35" fill="#24ecff" fill-rule="evenodd" stroke="none"/>
    <path d="M48.65 76.65 L49.0 77.85 49.05 78.3 48.65 76.65 M45.9 78.1 L49.75 84.9 50.35 86.0 49.75 84.9 50.05 85.35 50.35 86.0 50.6 86.65 Q59.45 106.0 57.45 115.45 45.55 117.4 38.25 111.25 36.75 112.5 35.8 100.2 36.25 88.3 45.9 78.1 M12.75 76.25 Q29.25 88.7 35.8 100.2 33.55 108.55 30.5 113.0 27.45 117.45 15.5 117.35 15.2 115.5 13.5 112.25 11.75 108.95 10.85 104.0 9.9 99.0 8.4 86.15 8.4 81.6 7.45 75.9 8.5 77.6 13.25 83.4 L15.55 86.2 Q13.9 83.75 12.45 80.9 L12.75 76.25 M84.0 229.7 Q41.0 242.75 26.15 234.7 58.55 233.7 78.0 223.9 26.85 230.3 25.0 219.45 23.15 208.55 22.35 191.5 L25.05 148.8 Q30.95 137.7 34.7 134.1 30.1 161.1 30.9 165.55 33.6 155.6 38.25 139.6 42.4 162.5 72.6 191.65 47.1 164.0 40.35 133.6 50.55 137.3 60.0 138.7 80.65 185.55 84.6 219.0 L84.6 219.05 Q84.55 224.5 84.0 229.7 M26.45 161.75 Q30.25 179.75 43.9 192.7 57.5 205.65 80.2 204.25 67.65 200.9 54.5 195.35 35.55 187.35 26.45 161.75 M82.65 213.6 Q55.85 221.95 27.3 220.2 27.2 221.0 27.85 221.0 41.75 221.55 55.6 220.9 L74.45 219.6 Q83.9 218.75 82.65 213.6" fill="#2ea1b4" fill-rule="evenodd" stroke="none"/>
    <path d="M13.25 -21.25 Q16.8 -34.2 22.75 -43.95 L27.1 -43.85 26.7 -42.95 Q18.7 -30.7 15.45 -23.6 L15.15 -22.95 Q13.4 -18.9 13.25 -16.65 13.1 -18.8 13.25 -21.25 M29.1 -27.95 L24.05 -29.45 28.75 -27.3 25.2 -21.2 Q20.85 -14.4 18.45 -4.55 L18.7 -9.7 Q21.95 -27.05 30.0 -43.7 L34.45 -43.4 32.45 -35.7 Q30.95 -31.7 29.1 -27.95 M44.4 -23.8 L34.15 -26.55 33.85 -25.15 Q38.45 -23.2 43.15 -21.5 L44.4 -23.8 45.65 -23.45 44.6 -21.0 43.15 -21.5 Q39.65 -15.35 35.7 -9.75 32.3 -4.95 28.6 -0.55 L28.35 -0.3 Q24.15 4.6 19.6 8.9 L21.25 6.55 Q29.55 -6.05 32.7 -20.3 L33.85 -25.15 30.35 -26.6 30.55 -27.55 34.15 -26.55 Q36.8 -37.4 39.1 -43.05 L47.7 -42.2 59.75 -40.2 Q59.2 -37.6 58.05 -35.4 55.35 -28.2 51.9 -21.9 L54.65 -21.25 Q58.8 -30.1 61.6 -39.8 68.15 -38.35 73.8 -36.3 73.0 -33.15 69.9 -29.15 67.65 -26.3 64.2 -23.0 L61.0 -19.8 58.3 -20.4 56.75 -17.0 54.7 -17.6 56.15 -20.9 58.3 -20.4 Q61.15 -27.1 63.5 -35.15 59.4 -27.85 56.6 -21.85 L56.45 -21.55 56.15 -20.9 54.65 -21.25 53.1 -18.1 54.7 -17.6 54.15 -16.3 51.45 -11.0 51.1 -10.4 Q46.3 -2.25 40.35 1.85 47.75 -7.5 53.1 -18.1 L50.6 -18.9 51.4 -20.95 51.9 -21.9 45.65 -23.45 Q47.7 -28.5 49.55 -34.05 47.1 -28.75 44.4 -23.8 M50.45 -36.15 L49.55 -34.05 50.45 -36.15 M-17.9 -7.05 L-17.55 -7.5 Q-8.35 -30.15 7.6 -43.7 L12.65 -43.9 8.65 -35.15 Q1.5 -30.4 -3.7 -25.8 -4.65 -16.25 -1.55 -6.15 0.9 1.9 5.9 10.3 -6.8 -2.05 -9.9 -19.7 L-12.35 -16.7 Q-14.1 -14.4 -15.3 -12.1 -15.4 -8.3 -15.1 -4.8 -19.7 11.1 -18.7 20.15 -19.7 11.1 -15.1 -4.8 -13.95 10.65 -6.2 20.45 -8.05 11.4 -4.7 1.65 -8.05 11.4 -6.2 20.45 -12.05 6.7 -11.3 -5.5 L-4.7 1.65 -4.3 0.55 -2.15 4.2 Q-1.9 13.2 -1.25 21.4 -0.5 31.2 0.75 39.85 L2.55 50.55 Q5.15 63.65 9.1 73.55 10.65 77.5 12.45 80.9 13.9 83.75 15.55 86.2 L13.25 83.4 Q-6.6 47.75 -15.85 4.15 L-15.6 15.2 -16.4 10.35 -15.6 15.2 Q-10.75 42.5 0.65 63.95 L-1.7 60.8 Q-12.9 42.65 -18.4 21.3 L-18.7 20.15 -18.7 20.1 Q-23.6 -16.0 -15.85 -40.35 -10.0 -41.8 -3.5 -42.65 -17.5 -24.3 -17.9 -7.05 L-17.8 -2.75 Q-17.8 -7.3 -15.3 -12.1 -17.8 -7.3 -17.8 -2.75 L-17.9 -7.05 M18.45 -44.0 L16.15 -36.8 Q6.75 -24.45 4.7 -16.9 L4.85 -18.95 4.9 -19.35 Q8.0 -31.9 14.55 -43.95 L18.45 -44.0 M64.25 -36.5 L63.5 -35.2 63.5 -35.15 63.5 -35.2 64.25 -36.5 M80.7 -33.45 L80.35 -31.4 80.2 -30.35 79.5 -26.7 Q77.2 -21.45 74.55 -17.15 L71.5 -17.7 Q75.0 -27.0 76.7 -35.2 L80.7 -33.45 M74.55 -17.15 L77.2 -16.75 82.6 -15.95 80.85 -11.35 75.9 -12.3 77.2 -16.75 75.9 -12.3 71.85 -13.1 72.0 -13.45 74.55 -17.15 M68.95 -18.2 L71.5 -17.7 69.9 -13.55 71.75 -13.15 Q69.85 -10.65 67.75 -8.55 L69.9 -13.55 68.0 -14.0 68.95 -18.2 M51.05 -7.05 Q54.1 -11.5 56.75 -17.0 L58.1 -16.6 54.1 -11.35 53.65 -10.7 53.7 -10.7 Q52.1 -8.4 50.8 -6.0 L51.05 -7.05 M44.6 -21.0 Q47.4 -19.95 50.25 -19.05 43.25 -7.25 33.45 1.25 L26.65 6.55 Q37.0 -3.55 44.6 -21.0 M93.8 -23.3 L94.05 -24.45 94.1 -24.55 94.05 -24.45 93.8 -23.3 Q92.5 -18.2 89.6 -15.15 L82.6 -15.95 Q84.95 -22.65 86.35 -30.35 90.65 -27.75 94.1 -24.55 94.7 -23.9 95.8 -18.1 L95.7 -19.15 96.2 -14.7 93.4 -14.85 94.2 -17.7 93.0 -14.85 91.15 -15.0 Q92.9 -19.25 93.8 -23.3 M94.05 -24.45 L94.1 -24.55 94.05 -24.45 M93.0 -14.85 L93.4 -14.85 Q92.65 -12.3 92.05 -9.75 L90.85 -9.9 93.0 -14.85 M96.2 -14.7 L98.95 -14.6 98.45 -19.85 102.0 -14.6 98.95 -14.6 99.3 -9.05 96.5 -9.25 96.2 -14.7 M86.95 -0.1 L86.45 1.55 86.15 2.75 Q84.95 7.75 84.75 13.15 83.7 16.05 79.65 18.95 82.8 13.75 85.0 6.85 85.25 4.95 86.95 -0.1 M87.1 33.55 Q86.6 12.15 92.05 -9.75 L96.5 -9.25 Q96.65 -4.65 96.35 -0.15 96.0 4.4 94.9 8.8 95.65 3.15 96.5 -9.25 94.6 -1.0 94.25 1.25 92.75 12.15 89.25 22.5 87.55 27.55 87.45 31.9 L87.1 33.55 M88.95 -10.15 L90.85 -9.9 89.65 -7.1 88.55 -4.65 Q87.85 -3.05 87.3 -1.3 84.0 4.05 83.25 6.15 79.4 16.9 74.15 27.35 72.65 30.35 72.0 33.2 73.9 16.25 80.5 2.05 L83.5 -0.9 Q86.65 -5.65 88.95 -10.15 M86.15 2.75 L85.0 6.85 86.15 2.75 M99.6 14.35 L98.35 21.6 98.35 20.75 98.35 20.3 Q100.0 5.4 99.3 -9.05 L100.5 -8.95 99.6 14.35 M80.85 -11.35 L86.9 -10.4 Q83.2 1.65 68.2 10.9 L65.2 12.45 Q62.3 13.85 59.2 15.0 73.5 5.7 80.85 -11.35 M69.95 9.85 L74.5 6.9 Q73.6 9.85 73.0 12.65 L73.3 11.4 Q68.6 16.2 64.2 21.3 59.7 26.5 57.15 32.35 L59.25 29.45 67.85 21.9 53.45 43.6 53.05 44.2 Q46.55 54.0 47.45 70.0 L47.55 71.35 47.6 71.7 48.65 76.65 49.05 78.3 Q50.25 83.1 51.85 88.0 L51.8 87.95 50.05 85.35 49.75 84.9 Q37.75 61.65 41.7 31.55 L52.35 27.2 53.55 24.65 52.55 27.1 51.55 29.6 51.3 30.3 Q46.65 44.85 47.05 62.2 51.8 34.65 59.55 20.8 56.55 27.2 55.35 34.1 L55.15 35.35 57.15 32.35 55.15 35.35 55.35 34.1 Q60.0 20.8 69.95 9.85 M71.35 24.15 Q71.0 26.45 66.2 31.4 L54.5 42.7 71.6 21.35 71.35 24.15 M71.3 16.2 L72.75 13.9 72.5 15.1 71.3 16.2 M51.55 29.6 L52.35 27.2 52.55 27.1 52.35 27.2 51.55 29.6 M-33.15 18.75 Q-34.2 20.6 -35.6 22.0 -32.5 11.85 -34.2 -5.3 -35.85 -21.7 -31.0 -35.4 -25.95 -37.55 -20.3 -39.2 -25.9 -17.9 -23.0 2.55 -22.9 16.75 -17.25 32.35 L-23.25 22.35 Q-31.5 0.1 -28.1 -30.35 L-30.5 -15.15 -30.55 -14.6 Q-31.4 -5.7 -30.2 2.45 -29.85 12.85 -33.15 18.75 M47.45 70.0 Q47.1 66.0 47.05 62.2 47.1 66.0 47.45 70.0 M43.9 32.2 Q40.25 49.55 46.25 74.15 42.95 51.7 43.9 32.2 M-41.7 -9.65 Q-40.75 -21.8 -37.35 -32.35 L-33.7 -34.15 Q-36.55 -26.95 -37.15 -17.65 -37.35 -16.4 -40.0 -12.25 L-41.7 -9.65 M-9.9 -19.7 Q-7.25 -22.7 -3.7 -25.8 -7.25 -22.7 -9.9 -19.7 M-9.5 21.7 Q-4.75 42.75 3.7 60.15 -0.7 41.8 -4.4 18.15 -4.4 31.65 -1.05 44.75 -5.6 36.75 -9.5 21.7" fill="#1a768c" fill-rule="evenodd" stroke="none"/>
    <path d="M14.65 -119.35 L7.8 -114.95 -23.5 -78.25 Q21.2 -104.5 73.7 -96.05 17.0 -97.85 -22.45 -67.05 L-19.75 -64.25 Q-36.5 -58.5 -48.0 -50.5 L-38.85 -60.45 Q-27.75 -76.25 -27.1 -92.05 -21.75 -91.55 -8.65 -102.2 L-6.15 -104.3 Q-26.55 -101.6 -39.8 -110.75 -19.3 -104.6 14.65 -119.35 M5.55 -71.05 L-4.65 -72.65 Q26.1 -89.35 60.5 -85.4 34.25 -83.15 17.25 -76.2 L24.4 -73.95 Q15.25 -73.2 5.55 -71.05 M114.35 20.6 Q105.5 26.4 91.05 33.8 100.35 27.5 111.2 21.55 118.4 16.15 118.95 9.3 L118.95 8.0 Q118.8 1.9 113.6 -5.3 106.0 -15.5 101.4 -20.2 L94.5 -27.1 Q85.75 -35.4 76.75 -41.05 69.5 -45.6 62.1 -48.5 L60.15 -48.95 Q26.85 -56.4 -24.75 -42.3 -32.2 -39.9 -36.35 -37.75 -50.5 -30.3 -58.3 -20.7 -64.4 -13.2 -60.35 -2.95 L-58.3 1.25 -60.45 -2.6 Q-65.95 -14.25 -58.5 -27.05 L-57.15 -33.4 Q-44.55 -47.7 -16.1 -55.35 L-12.1 -56.3 -8.25 -52.3 Q22.05 -61.6 64.05 -52.3 95.75 -37.25 121.5 -0.4 126.35 9.75 114.35 20.6 M114.3 120.8 L115.6 123.55 126.25 125.55 126.4 125.6 126.55 125.6 127.0 125.7 126.95 125.7 126.55 125.6 126.95 125.7 95.3 126.35 Q94.75 126.35 95.7 125.85 103.4 121.9 112.8 120.95 L114.3 120.8 M190.35 187.5 L183.05 183.1 Q175.7 177.25 174.1 164.85 L177.85 166.3 Q176.4 150.25 186.95 134.3 183.35 140.9 182.85 154.1 182.5 154.7 182.45 157.05 184.7 180.05 190.35 187.5 M170.0 176.3 Q153.2 168.25 131.3 160.95 97.8 154.6 90.0 143.75 L80.35 124.85 77.8 130.85 Q77.1 133.5 76.75 136.3 L76.45 139.0 Q73.25 143.6 72.0 149.05 77.45 167.35 80.25 186.7 L77.2 176.2 Q69.25 156.35 66.5 139.4 65.75 135.05 65.4 130.9 67.5 126.6 63.05 111.9 75.9 106.05 84.0 112.8 85.0 107.65 84.7 103.45 83.9 92.8 72.05 78.3 68.3 74.3 67.3 68.65 65.15 59.95 69.8 53.9 66.2 62.25 70.25 69.2 71.5 66.95 74.25 64.0 72.85 67.4 72.45 72.25 83.35 85.4 86.4 98.5 90.7 127.15 97.35 135.7 129.45 154.3 164.0 161.0 164.85 172.4 170.0 176.3 M105.0 230.75 L103.95 232.15 100.55 235.9 100.25 236.15 Q92.4 243.45 80.65 245.55 82.2 240.7 83.1 235.6 L84.05 235.4 84.65 235.25 83.55 239.9 Q94.65 236.5 105.0 230.75 L103.95 232.15 105.0 230.75 M102.5 253.75 L102.45 257.0 89.2 259.3 Q85.15 259.75 62.7 258.9 87.95 259.15 102.5 253.75 M102.0 262.45 Q102.5 262.4 102.0 262.6 L102.0 262.45 102.0 262.6 100.2 263.1 Q88.45 271.0 63.75 266.45 L63.7 266.45 54.75 262.5 54.8 262.5 70.5 264.2 Q85.75 265.8 95.8 263.7 L102.0 262.45 M42.6 -61.85 L55.85 -60.45 Q66.75 -54.75 77.6 -47.65 60.65 -56.0 42.6 -61.85 M66.95 63.65 Q66.9 66.3 67.3 68.65 66.9 66.3 66.95 63.65 M9.2 115.7 Q10.7 127.25 14.15 136.15 15.2 138.8 15.95 141.85 0.4 143.15 -4.1 152.05 -10.0 178.15 -23.4 196.75 -26.3 195.4 -28.95 194.85 -18.8 182.7 -16.0 174.05 -9.65 151.9 -17.75 132.1 -21.05 126.3 -22.85 120.9 -24.2 117.0 -24.7 113.25 L-25.05 107.45 Q-24.8 96.05 -18.55 84.55 -13.4 74.95 -13.25 64.45 -13.4 74.95 -18.55 84.55 -24.8 96.05 -25.05 107.45 L-24.7 113.25 Q-24.2 117.0 -22.85 120.9 -34.0 148.25 -47.65 169.9 -50.8 176.85 -54.85 180.15 -57.2 182.05 -59.85 182.75 -71.0 182.3 -74.3 176.8 L-88.4 153.3 Q-90.5 151.85 -92.9 150.65 -87.9 147.7 -83.85 143.7 -63.85 160.35 -54.85 172.6 -45.7 168.7 -36.55 141.25 L-36.45 141.0 Q-32.95 129.55 -30.55 116.4 L-13.4 60.2 -13.25 64.45 -12.7 80.2 Q-23.45 108.25 -16.65 110.05 -9.25 108.1 -2.0 109.9 1.6 110.6 9.2 115.7 M-52.45 106.9 Q-54.15 121.45 -51.1 136.1 -50.3 139.9 -52.65 142.7 L-53.05 142.45 Q-57.9 138.95 -60.0 133.1 -56.4 138.7 -53.05 142.45 -56.4 138.7 -60.0 133.1 L-61.1 129.1 -54.2 111.3 -52.45 106.9 M80.35 124.85 Q82.95 118.3 84.0 112.8 82.95 118.3 80.35 124.85 M115.6 123.55 Q103.3 123.25 99.85 126.0 103.3 123.25 115.6 123.55 M31.4 252.8 L30.6 253.7 Q27.75 257.8 24.15 261.7 L24.15 257.05 Q1.6 252.4 -11.75 250.5 -25.05 248.55 -26.5 245.5 L24.15 254.25 24.15 251.8 31.65 251.95 31.4 252.8 M51.75 254.35 Q52.1 252.3 52.05 250.4 L52.0 249.7 52.4 249.65 55.55 248.9 58.95 248.05 59.25 247.95 Q69.1 246.5 78.85 243.8 67.35 248.55 54.35 252.45 76.7 255.55 95.3 251.35 63.75 261.1 51.75 254.35 M-0.3 241.9 Q-12.95 236.3 -27.05 225.6 L-27.75 225.05 Q-33.15 221.05 -36.95 219.7 L-42.8 219.5 Q-44.2 214.35 -39.25 207.5 -35.0 208.4 -30.75 210.3 L-30.7 210.35 Q-23.8 229.15 -0.3 241.9 M-60.35 -2.95 L-60.45 -2.6 -60.35 -2.95 M-79.3 88.95 L-79.6 86.2 -78.2 89.1 -79.3 88.95 -78.2 89.1 Q-76.9 91.85 -75.7 95.05 -85.75 133.7 -96.45 139.6 -93.85 140.2 -91.45 140.95 -97.95 147.05 -104.1 146.7 L-107.5 146.0 -113.45 145.15 Q-117.95 143.15 -117.9 122.85 -117.85 106.05 -113.85 90.75 -111.4 92.6 -109.7 95.6 -115.3 107.05 -114.55 119.5 -113.5 137.7 -107.2 140.45 -105.2 140.1 -103.0 138.85 -98.9 136.55 -94.1 131.3 L-91.7 128.4 Q-88.3 123.75 -84.0 115.7 -81.75 109.3 -80.55 103.6 -78.9 95.5 -79.3 88.95 M-6.15 -104.3 Q1.0 -110.25 7.8 -114.95 1.0 -110.25 -6.15 -104.3" fill="#12141e" fill-rule="evenodd" stroke="none"/>
    <path d="M112.6 -35.0 Q106.9 -54.9 106.85 -65.95 97.15 -75.7 39.95 -78.2 71.45 -81.9 102.9 -77.35 L81.05 -103.6 Q50.65 -116.7 42.45 -128.75 54.85 -118.15 80.2 -107.65 107.7 -86.05 113.6 -60.1 113.6 -41.3 118.25 -25.15 116.1 -30.1 112.6 -35.0 M126.4 -0.6 Q128.25 8.8 124.55 12.5 L120.2 16.35 Q128.15 7.4 119.6 -13.3 123.9 -7.05 126.4 -0.6" fill="#65677e" fill-rule="evenodd" stroke="none"/>
    <path d="M118.25 -25.15 Q120.1 -18.8 122.6 -12.9 125.4 -5.85 126.4 -0.6 123.9 -7.05 119.6 -13.3 115.4 -25.25 112.6 -35.0 116.1 -30.1 118.25 -25.15" fill="#a6f7ff" fill-rule="evenodd" stroke="none"/>
    <path d="M37.05 31.45 Q36.45 35.1 36.35 39.05 L35.4 45.95 Q34.45 40.85 34.25 36.4 L34.2 34.45 35.35 39.3 37.05 31.45 M37.1 50.2 Q38.0 56.8 40.25 64.05 L39.35 61.35 37.8 56.2 37.05 53.35 36.95 53.05 37.1 50.2 M2.0 26.65 Q1.8 35.1 0.75 39.85 -0.5 31.2 -1.25 21.4 L0.7 30.5 2.0 26.65" fill="#1cb8c6" fill-rule="evenodd" stroke="none"/>
    <path d="M192.8 128.5 Q194.55 128.9 194.15 130.55 L189.0 131.35 Q190.7 129.45 192.8 128.5 M183.05 183.1 Q176.95 179.65 170.0 176.3 164.85 172.4 164.0 161.0 L174.1 164.85 Q175.7 177.25 183.05 183.1 M182.85 154.1 Q184.5 153.95 190.5 156.05 192.7 175.25 190.35 187.5 184.7 180.05 182.45 157.05 182.5 154.7 182.85 154.1" fill="#1aafbd" fill-rule="evenodd" stroke="none"/>
    <path d="M49.0 77.85 Q51.25 85.15 54.65 88.7 60.2 102.45 63.05 111.9 67.5 126.6 65.4 130.9 65.75 135.05 66.5 139.4 69.25 156.35 77.2 176.2 L80.25 186.7 Q84.6 203.85 84.6 219.0 80.65 185.55 60.0 138.7 50.55 137.3 40.35 133.6 47.1 164.0 72.6 191.65 42.4 162.5 38.25 139.6 33.6 155.6 30.9 165.55 30.1 161.1 34.7 134.1 30.95 137.7 25.05 148.8 L22.35 191.5 Q23.15 208.55 25.0 219.45 26.85 230.3 78.0 223.9 58.55 233.7 26.15 234.7 41.0 242.75 84.0 229.7 L83.65 232.25 Q54.15 244.85 16.8 240.4 L15.8 234.75 Q14.7 227.2 14.65 218.0 14.5 205.55 16.25 190.0 20.55 159.7 15.95 141.85 15.2 138.8 14.15 136.15 10.7 127.25 9.2 115.7 7.65 103.65 8.35 88.8 L8.35 88.6 8.4 87.8 8.4 87.15 8.4 86.75 8.4 86.15 Q9.9 99.0 10.85 104.0 11.75 108.95 13.5 112.25 15.2 115.5 15.5 117.35 27.45 117.45 30.5 113.0 33.55 108.55 35.8 100.2 29.25 88.7 12.75 76.25 L12.45 80.9 Q10.65 77.5 9.1 73.55 L12.75 74.8 Q18.85 77.1 23.9 80.1 L24.55 80.5 24.85 80.7 Q28.6 83.0 31.7 85.75 L31.9 85.9 32.85 86.85 33.35 87.3 Q35.55 84.6 38.35 82.45 41.7 79.85 45.9 78.1 36.25 88.3 35.8 100.2 36.75 112.5 38.25 111.25 45.55 117.4 57.45 115.45 59.45 106.0 50.6 86.65 L50.35 86.0 50.05 85.35 51.8 87.95 51.85 88.0 Q50.25 83.1 49.05 78.3 L49.0 77.85 M12.75 76.25 L12.75 74.8 12.75 76.25 M26.45 161.75 Q35.55 187.35 54.5 195.35 67.65 200.9 80.2 204.25 57.5 205.65 43.9 192.7 30.25 179.75 26.45 161.75 M82.65 213.6 Q83.9 218.75 74.45 219.6 L55.6 220.9 Q41.75 221.55 27.85 221.0 27.2 221.0 27.3 220.2 55.85 221.95 82.65 213.6" fill="#1e6a77" fill-rule="evenodd" stroke="none"/>
    <path d="M194.15 130.55 L194.4 130.5 194.3 130.7 Q192.1 138.15 191.3 145.85 200.25 147.35 209.2 141.25 214.95 145.55 226.05 144.55 227.65 143.1 227.1 141.25 226.25 138.6 219.05 138.1 215.05 137.15 213.6 136.35 211.1 135.05 208.4 134.6 225.9 134.95 243.45 132.0 238.0 135.2 227.25 135.85 L219.5 136.05 216.8 135.95 219.5 136.05 230.25 139.9 Q229.9 144.9 230.2 149.2 L228.85 147.95 228.3 144.85 226.05 144.55 224.4 145.6 221.65 146.15 227.05 150.7 223.75 161.95 223.15 162.8 Q221.4 162.55 220.8 159.9 L212.5 153.8 Q203.5 160.55 194.45 157.45 L194.15 157.3 190.6 156.05 190.5 156.05 Q184.5 153.95 182.85 154.1 183.35 140.9 186.95 134.3 187.85 132.6 189.0 131.35 L194.15 130.55 M233.0 161.3 Q229.65 162.15 228.65 154.75 L230.5 152.05 Q231.2 157.35 233.0 161.3 M95.45 279.45 L95.1 281.4 91.1 281.65 Q72.1 282.9 54.55 282.2 L50.25 310.1 48.65 321.1 48.45 322.4 Q55.8 328.4 64.25 331.6 L62.7 331.4 57.85 330.55 47.55 326.95 46.95 326.7 31.2 316.65 31.15 316.55 31.1 316.45 31.0 316.3 30.95 316.2 30.85 316.0 30.8 315.9 30.75 315.85 30.7 315.75 30.65 315.65 30.6 315.5 30.55 315.4 30.5 315.3 30.4 315.15 30.4 315.05 30.35 314.95 30.35 314.85 30.3 314.7 30.25 314.6 30.25 314.5 30.2 314.35 30.2 314.25 30.15 314.1 30.15 314.0 30.1 313.9 30.1 313.75 30.05 313.65 30.05 313.55 30.05 313.4 30.05 313.3 30.05 313.15 30.05 313.05 30.05 312.9 30.05 312.8 30.05 312.65 30.05 312.55 30.1 312.4 30.1 312.25 Q33.05 293.05 37.35 270.6 L44.8 273.45 46.35 274.0 93.9 279.6 95.45 279.45 M13.25 -21.25 Q13.1 -18.8 13.25 -16.65 13.4 -18.9 15.15 -22.95 L17.55 -21.9 20.2 -20.7 Q19.1 -15.2 18.7 -9.7 L18.45 -4.55 Q20.85 -14.4 25.2 -21.2 L28.75 -27.3 29.1 -27.95 Q30.95 -31.7 32.45 -35.7 L30.55 -27.55 30.35 -26.6 Q28.9 -20.25 27.8 -13.95 25.95 -3.9 23.25 2.45 L17.25 9.75 22.65 -0.5 Q8.55 -6.15 -1.55 -6.15 -4.65 -16.25 -3.7 -25.8 1.5 -30.4 8.65 -35.15 5.8 -28.7 4.9 -19.35 L4.85 -18.95 4.7 -16.9 Q6.75 -24.45 16.15 -36.8 14.15 -29.95 13.5 -24.4 L9.6 -26.0 9.45 -25.95 13.45 -23.75 13.25 -21.25 M15.45 -23.6 Q18.7 -30.7 26.7 -42.95 22.4 -32.1 20.35 -21.45 L19.65 -21.8 15.45 -23.6 M28.35 -0.3 L28.6 -0.55 Q32.3 -4.95 35.7 -9.75 33.5 -3.15 30.4 1.6 L22.65 8.4 28.35 -0.3 M13.25 -16.65 L13.4 -15.1 13.25 -16.65 M24.7 -18.8 L24.05 -19.25 23.75 -18.7 25.5 -17.55 Q25.45 -18.25 24.7 -18.8 M69.9 -29.15 Q69.75 -23.0 68.95 -18.2 L68.0 -14.0 Q66.15 -7.5 62.7 -4.35 65.35 -6.15 67.75 -8.55 69.85 -10.65 71.75 -13.15 L72.0 -13.45 71.85 -13.1 71.75 -13.15 71.85 -13.1 Q64.2 1.3 56.25 7.45 61.15 5.55 64.85 3.05 L59.5 10.5 Q53.8 6.15 37.2 3.55 L38.95 0.45 Q34.95 2.5 33.55 6.4 32.3 5.2 33.45 1.25 43.25 -7.25 50.25 -19.05 L51.4 -20.95 50.6 -18.9 Q47.05 -9.7 43.5 -3.55 41.55 -0.1 39.55 2.35 L40.35 1.85 Q46.3 -2.25 51.1 -10.4 L52.0 -10.5 51.05 -7.05 50.8 -6.0 Q52.1 -8.4 53.7 -10.7 L55.5 -10.9 63.25 -11.45 Q62.75 -11.9 61.8 -11.9 L59.4 -11.9 56.8 -11.55 54.1 -11.35 58.1 -16.6 61.0 -19.8 64.2 -23.0 Q67.65 -26.3 69.9 -29.15 M54.15 -16.3 Q52.85 -13.2 52.0 -10.5 L52.2 -11.15 51.45 -11.0 54.15 -16.3 M66.15 -5.05 L67.75 -8.55 66.15 -5.05 M228.1 143.85 L228.3 144.85 228.1 143.85 M187.35 150.25 L198.2 149.1 Q204.5 147.75 208.9 143.7 217.1 146.4 221.65 146.15 217.1 146.4 208.9 143.7 204.5 147.75 198.2 149.1 L187.35 150.25 M212.5 153.8 L209.65 151.7 212.5 153.8 M209.9 146.35 Q214.95 150.7 221.7 151.75 220.3 157.65 220.8 159.9 220.3 157.65 221.7 151.75 214.95 150.7 209.9 146.35 M2.85 7.55 Q11.15 22.1 22.25 29.3 11.35 23.8 1.85 10.35 L-2.15 4.2 -2.55 2.5 2.85 7.55 M1.1 40.85 L4.05 27.9 7.5 44.95 Q6.85 36.8 6.6 22.95 11.5 30.05 22.8 34.35 31.05 34.4 34.25 31.65 34.15 33.0 34.2 34.45 L34.25 36.4 Q28.05 42.55 9.05 48.5 9.25 41.35 8.9 48.55 L8.9 48.7 8.85 49.8 8.75 51.15 8.95 52.3 9.9 52.65 Q10.5 53.2 11.9 53.7 14.8 54.8 17.35 54.65 20.4 56.2 20.7 57.5 20.95 58.7 21.55 59.7 L21.75 60.15 21.5 59.95 18.05 56.4 8.4 53.9 9.15 55.4 Q9.5 59.1 10.35 63.7 5.95 53.8 1.1 40.85 M11.0 67.2 L12.75 74.8 9.1 73.55 Q5.15 63.65 2.55 50.55 5.8 60.0 11.0 67.2 M23.9 80.1 Q22.75 76.9 22.7 74.25 27.7 79.55 31.9 85.9 L31.7 85.75 Q28.6 83.0 24.85 80.7 L24.55 80.5 23.9 80.1 M32.85 86.85 L32.35 86.35 33.5 83.95 37.05 77.7 37.25 78.55 37.15 77.5 38.9 74.8 Q39.4 78.4 38.35 82.45 35.55 84.6 33.35 87.3 L32.85 86.85 M31.55 58.65 L31.65 56.4 31.65 54.8 32.05 54.65 32.7 54.75 32.95 54.75 33.15 54.6 33.65 54.05 34.8 53.75 34.75 54.4 31.55 58.65 M36.95 53.35 L37.05 53.35 37.8 56.2 36.9 56.35 36.95 53.35 M37.15 77.5 L37.25 78.55 37.05 77.7 37.15 77.5 M21.75 272.25 L21.8 272.55 21.85 272.95 14.95 272.15 Q-0.75 268.85 -15.45 272.95 -19.95 274.15 -24.15 276.35 -23.3 281.55 -23.35 286.85 L-23.35 290.5 -23.3 290.9 Q-23.1 291.5 -23.15 292.15 L-23.15 294.15 Q-22.9 298.05 -23.35 301.85 -13.2 302.05 -3.2 304.0 L-9.9 304.35 Q-30.6 306.65 -37.9 316.55 -41.3 296.9 -42.4 278.6 -35.55 271.8 -15.55 269.0 5.1 266.05 21.75 272.25 M61.3 276.2 Q63.75 277.2 63.35 276.9 62.35 276.0 61.3 276.2 M-89.95 60.05 L-90.4 60.4 Q-95.65 64.55 -98.95 70.6 -106.1 88.4 -103.75 75.9 L-99.95 66.7 -110.2 71.25 Q-101.6 63.1 -89.95 60.05 M-84.0 115.7 Q-88.3 123.75 -91.7 128.4 L-94.1 131.3 Q-98.45 115.6 -105.5 102.7 L-109.7 95.6 Q-111.4 92.6 -113.85 90.75 -119.55 82.9 -120.8 76.65 -122.05 70.45 -128.2 64.3 -135.9 54.3 -135.9 48.95 -131.4 57.6 -122.9 68.05 -116.85 82.6 -107.8 95.05 -102.25 104.15 -98.15 112.65 L-96.65 115.95 Q-93.25 119.95 -84.0 115.7 M-110.55 55.4 Q-111.0 52.05 -114.1 43.95 L-120.3 35.75 Q-123.0 32.0 -124.15 29.85 -125.2 27.25 -125.35 25.5 L-110.25 46.2 -107.0 58.9 -110.45 56.55 -110.55 55.4 M-100.15 50.1 Q-99.05 44.05 -99.35 38.95 L-104.05 27.95 Q-104.45 25.4 -104.2 23.5 L-96.75 39.45 -98.9 59.15 -101.55 56.45 Q-100.7 53.15 -100.15 50.1 M-120.8 60.8 L-121.3 58.25 Q-122.5 54.0 -123.8 51.65 L-129.45 40.5 Q-132.65 36.25 -133.0 33.35 -121.9 47.25 -118.45 60.9 L-118.55 64.55 Q-120.1 63.5 -120.6 62.35 L-120.8 60.8 M-98.95 70.6 L-100.9 74.6 -98.95 70.6" fill="#efc3c0" fill-rule="evenodd" stroke="none"/>
    <path d="M30.4 404.1 L24.6 404.1 24.6 382.9 24.9 384.05 Q25.35 385.3 26.45 386.5 L29.2 388.9 29.7 389.25 Q30.85 394.0 30.75 399.75 L30.4 404.1 M16.8 240.4 Q54.15 244.85 83.65 232.25 L83.6 232.6 83.3 234.55 Q75.7 242.55 65.05 246.15 L59.25 247.95 58.95 248.05 55.55 248.9 52.4 249.65 52.0 249.7 52.05 250.4 Q52.1 252.3 51.75 254.35 51.2 257.15 49.85 260.2 L54.8 262.5 54.75 262.5 63.7 266.45 63.75 266.45 72.5 269.95 72.35 269.9 Q59.35 268.4 50.6 266.6 L49.2 266.3 47.25 265.1 46.85 265.75 43.05 264.7 41.95 264.35 Q38.35 263.2 36.2 261.9 L24.15 263.9 24.15 261.7 Q27.75 257.8 30.6 253.7 L31.4 252.8 32.45 251.95 33.15 251.95 31.65 251.95 24.15 251.8 24.15 250.6 24.15 251.8 Q9.95 251.0 -4.45 246.5 -18.65 242.05 -31.5 235.6 -34.4 245.3 -35.65 255.3 L-27.0 252.55 Q-11.15 250.15 1.0 255.75 -4.45 255.3 -10.8 255.55 L-19.05 256.65 -32.75 260.2 -33.95 260.65 -35.15 261.1 -35.45 261.2 -35.7 261.3 -36.2 261.55 -37.6 262.15 Q-42.45 264.3 -46.4 267.15 L-46.7 267.35 Q-49.75 237.95 -36.95 219.7 -33.15 221.05 -27.75 225.05 L-27.05 225.6 Q-12.95 236.3 -0.3 241.9 9.65 246.3 18.7 247.5 L17.4 243.1 16.8 240.4 M21.7 249.6 L17.4 243.1 21.7 249.6 M36.95 254.05 L36.2 261.9 36.95 254.05 M24.55 357.55 Q25.3 348.05 26.65 337.25 29.2 341.85 36.7 346.0 33.2 356.8 31.3 368.0 L30.7 367.6 30.6 367.55 Q26.55 364.95 25.1 362.4 L24.6 361.3 24.55 357.85 24.55 357.55 M59.05 243.25 Q51.15 247.0 45.95 250.8 41.35 254.15 38.9 257.5 41.35 254.15 45.95 250.8 51.15 247.0 59.05 243.25 M-13.15 380.35 L-12.3 380.1 -10.05 392.55 Q-8.8 398.45 -8.15 404.1 L-18.2 404.1 -22.75 383.85 Q-17.95 381.7 -13.15 380.35 M-27.3 363.65 L-28.5 358.35 Q-30.95 349.4 -33.0 340.65 L-32.5 340.45 -24.35 337.35 -23.75 337.15 -20.25 349.1 Q-18.5 355.15 -17.4 360.4 -22.25 361.8 -27.3 363.65" fill="#16161c" fill-rule="evenodd" stroke="none"/>
    <path d="M106.3 219.1 L107.0 219.85 106.75 220.55 Q105.9 222.65 104.5 224.5 95.05 228.6 87.2 229.05 L87.2 228.85 Q93.2 224.75 100.65 221.6 L106.3 219.1 M99.85 272.65 L99.4 274.0 99.2 274.7 76.35 273.5 Q65.65 272.6 59.95 270.4 L95.6 272.45 99.85 272.65 99.4 274.0 99.85 272.65 M98.75 275.9 L97.55 279.0 97.45 279.15 95.45 279.45 93.9 279.6 46.35 274.0 44.8 273.45 37.35 270.6 35.45 269.8 36.2 261.9 Q38.35 263.2 41.95 264.35 L43.05 264.7 46.85 265.75 49.2 266.3 50.6 266.6 Q60.15 276.95 77.2 275.8 L99.1 274.9 98.75 275.9 M83.5 330.55 L82.25 335.05 74.45 335.45 Q58.1 334.15 42.5 330.25 40.45 338.65 36.95 346.15 L36.7 346.0 Q29.2 341.85 26.65 337.25 28.05 325.65 30.05 312.55 L30.05 312.65 30.05 312.8 30.05 312.9 30.05 313.05 30.05 313.15 30.05 313.3 30.05 313.4 30.05 313.55 30.05 313.65 30.1 313.75 30.1 313.9 30.15 314.0 30.15 314.1 30.2 314.25 30.2 314.35 30.25 314.5 30.25 314.6 30.3 314.7 30.35 314.85 30.35 314.95 30.4 315.05 30.4 315.15 30.5 315.3 30.55 315.4 30.6 315.5 30.65 315.65 30.7 315.75 30.75 315.85 30.8 315.9 30.85 316.0 30.95 316.2 31.0 316.3 31.1 316.45 31.15 316.55 31.2 316.65 46.95 326.7 47.55 326.95 57.85 330.55 62.7 331.4 Q76.1 333.4 83.5 330.55 M-19.05 256.65 L-18.05 256.5 -18.45 256.85 -19.0 257.4 -15.4 257.45 Q-1.2 257.7 11.35 259.5 -4.65 259.75 -20.95 259.25 L-20.35 258.65 -27.55 265.55 Q-13.05 263.2 8.8 265.1 -2.55 262.85 -20.8 262.1 0.2 260.05 9.45 262.95 17.7 265.55 24.1 269.0 L23.85 270.2 21.45 269.95 23.75 270.8 Q23.05 273.65 22.4 272.85 L21.75 272.25 Q5.1 266.05 -15.55 269.0 -35.55 271.8 -42.4 278.6 L-43.75 280.15 -47.7 273.25 -46.7 267.35 -46.4 267.15 Q-42.45 264.3 -37.6 262.15 L-36.2 261.55 -35.7 261.3 -35.45 261.2 -35.15 261.1 -33.95 260.65 -32.75 260.2 -19.05 256.65 M-3.2 304.0 Q0.9 303.8 4.4 303.9 2.1 304.7 -0.7 304.9 -10.35 305.6 -19.75 307.95 -29.0 310.3 -26.75 319.0 -24.6 327.3 -23.4 335.5 L-23.2 336.95 -23.75 337.15 -24.35 337.35 -32.5 340.45 -33.0 340.65 Q-35.85 328.35 -37.9 316.55 -30.6 306.65 -9.9 304.35 L-3.2 304.0 M43.05 264.7 L41.95 264.35 43.05 264.7 M46.35 274.0 L44.8 273.45 46.35 274.0 M25.1 362.4 Q26.55 364.95 30.6 367.55 L30.7 367.6 30.7 367.65 30.6 367.55 30.7 367.65 29.9 381.6 Q29.65 386.2 30.1 389.5 L29.2 388.9 26.45 386.5 Q25.35 385.3 24.9 384.05 L24.6 382.9 24.6 380.55 24.6 362.85 25.1 362.4 M-17.1 360.3 Q-14.8 371.1 -14.25 374.15 L-13.15 380.35 Q-17.95 381.7 -22.75 383.85 L-27.3 363.65 Q-22.25 361.8 -17.4 360.4 L-17.1 360.3 M-87.9 87.55 Q-86.6 84.3 -79.3 88.95 -78.9 95.5 -80.55 103.6 -84.65 97.65 -87.9 87.55 M-94.1 131.3 Q-98.9 136.55 -103.0 138.85 -115.5 141.2 -105.5 102.7 -98.45 115.6 -94.1 131.3 M-104.1 146.7 Q-97.95 147.05 -91.45 140.95 -87.35 142.15 -83.85 143.7 -87.9 147.7 -92.9 150.65 -97.9 148.15 -104.1 146.7 M-28.95 194.85 Q-26.3 195.4 -23.4 196.75 L-30.75 210.3 Q-35.0 208.4 -39.25 207.5 -35.6 202.5 -30.7 196.85 L-28.95 194.85 M-22.15 203.35 Q-17.35 208.4 -12.8 214.0 -9.5 218.05 12.4 234.85 -14.0 219.45 -19.35 212.75 -23.8 207.2 -22.15 203.35" fill="#1aadbb" fill-rule="evenodd" stroke="none"/>
    <path d="M1.6 -4.65 Q6.65 -3.9 2.65 -1.9 0.25 -0.75 0.25 -3.1 0.2 -4.55 1.6 -4.65 M54.8 8.85 Q60.75 11.65 55.0 12.15 54.3 12.2 53.8 11.45 52.4 9.45 54.8 8.85 M9.9 52.65 Q9.05 51.9 9.7 51.05 L9.75 51.0 Q12.1 52.15 14.85 52.65 17.3 53.1 18.65 54.45 L17.35 54.65 Q14.8 54.8 11.9 53.7 10.5 53.2 9.9 52.65 M32.05 54.65 L31.6 54.25 31.5 54.05 Q31.45 53.65 31.8 53.5 L33.1 52.6 33.35 52.5 34.15 52.65 Q34.6 52.8 34.8 53.25 L34.8 53.35 34.5 53.65 Q34.0 53.75 33.65 54.05 L33.15 54.6 32.95 54.75 32.7 54.75 32.05 54.65" fill="#ffffff" fill-rule="evenodd" stroke="none"/>
    <path d="M35.55 -47.4 L34.45 -43.4 35.55 -47.4 M27.1 -43.85 L22.75 -43.95 Q16.8 -34.2 13.25 -21.25 L13.45 -23.75 13.5 -24.4 Q14.15 -29.95 16.15 -36.8 L18.45 -44.0 14.55 -43.95 Q8.0 -31.9 4.9 -19.35 5.8 -28.7 8.65 -35.15 L12.65 -43.9 7.6 -43.7 Q-8.35 -30.15 -17.55 -7.5 L-17.9 -7.05 Q-17.5 -24.3 -3.5 -42.65 L-1.5 -45.2 -3.5 -42.65 Q-10.0 -41.8 -15.85 -40.35 -23.6 -16.0 -18.7 20.1 L-18.7 20.15 -18.4 21.3 Q-12.9 42.65 -1.7 60.8 L-5.1 55.8 -5.35 55.4 Q-11.9 45.15 -17.25 32.35 -22.9 16.75 -23.0 2.55 -21.65 11.95 -18.55 21.3 L-18.7 20.15 -18.55 21.3 Q-21.65 11.95 -23.0 2.55 -25.9 -17.9 -20.3 -39.2 -25.95 -37.55 -31.0 -35.4 -35.85 -21.7 -34.2 -5.3 -32.5 11.85 -35.6 22.0 -35.2 19.05 -35.15 15.45 -35.1 8.4 -36.45 -1.2 -37.5 -8.35 -37.15 -17.65 -36.55 -26.95 -33.7 -34.15 L-37.35 -32.35 Q-40.75 -21.8 -41.7 -9.65 -43.45 -7.25 -45.05 -5.6 -42.85 -8.45 -41.75 -23.65 -41.3 -27.3 -39.95 -30.75 L-39.8 -31.1 Q-38.5 -34.5 -36.35 -37.75 -32.2 -39.9 -24.75 -42.3 26.85 -56.4 60.15 -48.95 L62.1 -48.5 Q69.5 -45.6 76.75 -41.05 85.75 -35.4 94.5 -27.1 L101.4 -20.2 102.0 -14.6 98.45 -19.85 98.95 -14.6 96.2 -14.7 95.7 -19.15 95.8 -18.1 Q94.7 -23.9 94.1 -24.55 90.65 -27.75 86.35 -30.35 84.95 -22.65 82.6 -15.95 L77.2 -16.75 74.55 -17.15 Q77.2 -21.45 79.5 -26.7 L80.2 -30.35 80.35 -31.4 80.7 -33.45 76.7 -35.2 Q75.0 -27.0 71.5 -17.7 L68.95 -18.2 Q69.75 -23.0 69.9 -29.15 73.0 -33.15 73.8 -36.3 68.15 -38.35 61.6 -39.8 58.8 -30.1 54.65 -21.25 L51.9 -21.9 Q55.35 -28.2 58.05 -35.4 59.2 -37.6 59.75 -40.2 L47.7 -42.2 39.1 -43.05 Q36.8 -37.4 34.15 -26.55 L30.55 -27.55 32.45 -35.7 34.45 -43.4 30.0 -43.7 Q21.95 -27.05 18.7 -9.7 19.1 -15.2 20.2 -20.7 L20.35 -21.45 Q22.4 -32.1 26.7 -42.95 L27.1 -43.85 27.95 -45.95 27.1 -43.85 M44.4 -23.8 Q47.1 -28.75 49.55 -34.05 47.7 -28.5 45.65 -23.45 L44.4 -23.8 M30.35 -26.6 L33.85 -25.15 32.7 -20.3 Q29.55 -6.05 21.25 6.55 L23.25 2.45 Q25.95 -3.9 27.8 -13.95 28.9 -20.25 30.35 -26.6 M35.7 -9.75 Q39.65 -15.35 43.15 -21.5 L44.6 -21.0 Q37.0 -3.55 26.65 6.55 L25.4 7.4 Q28.15 5.0 30.4 1.6 33.5 -3.15 35.7 -9.75 M13.4 -45.55 L12.65 -43.9 13.4 -45.55 M18.85 -45.2 L18.45 -44.0 18.85 -45.2 M73.8 -36.3 L73.85 -36.65 73.8 -36.3 M79.5 -26.7 Q78.45 -21.4 77.2 -16.75 78.45 -21.4 79.5 -26.7 M60.15 -48.95 Q60.6 -44.15 59.75 -40.2 60.6 -44.15 60.15 -48.95 M58.3 -20.4 L56.15 -20.9 56.45 -21.55 56.6 -21.85 Q59.4 -27.85 63.5 -35.15 61.15 -27.1 58.3 -20.4 M54.7 -17.6 L56.75 -17.0 Q54.1 -11.5 51.05 -7.05 L52.0 -10.5 Q52.85 -13.2 54.15 -16.3 L54.7 -17.6 M50.6 -18.9 L53.1 -18.1 Q47.75 -7.5 40.35 1.85 L39.55 2.35 Q41.55 -0.1 43.5 -3.55 47.05 -9.7 50.6 -18.9 M68.0 -14.0 L69.9 -13.55 67.75 -8.55 Q65.35 -6.15 62.7 -4.35 66.15 -7.5 68.0 -14.0 M75.9 -12.3 L80.85 -11.35 Q73.5 5.7 59.2 15.0 62.3 13.85 65.2 12.45 L63.0 14.5 Q60.45 16.6 57.35 18.05 60.45 16.6 63.0 14.5 L65.2 12.45 68.2 10.9 69.95 9.85 Q60.0 20.8 55.35 34.1 56.55 27.2 59.55 20.8 51.8 34.65 47.05 62.2 46.65 44.85 51.3 30.3 L51.55 29.6 52.55 27.1 53.55 24.65 52.35 27.2 41.7 31.55 Q37.75 61.65 49.75 84.9 L45.9 78.1 Q42.95 72.05 40.25 64.05 38.0 56.8 37.1 50.2 36.2 44.4 36.35 39.05 36.2 44.4 37.1 50.2 L36.95 53.05 36.95 53.35 36.9 56.35 Q36.5 70.5 37.15 77.5 L37.05 77.7 Q34.5 68.15 34.7 56.55 L34.75 54.4 34.8 53.75 34.8 53.35 34.8 53.25 35.4 45.95 36.35 39.05 Q36.45 35.1 37.05 31.45 L38.05 26.95 37.05 31.45 35.35 39.3 34.2 34.45 Q34.15 33.0 34.25 31.65 L34.55 27.9 38.05 26.95 Q47.85 24.05 57.35 18.05 53.15 20.05 47.95 20.9 53.55 17.95 59.5 10.5 L64.85 3.05 Q61.15 5.55 56.25 7.45 64.2 1.3 71.85 -13.1 L75.9 -12.3 75.25 -10.3 74.7 -8.8 Q71.95 -1.8 64.85 3.05 71.95 -1.8 74.7 -8.8 L75.25 -10.3 75.9 -12.3 M93.0 -14.85 L94.2 -17.7 93.4 -14.85 93.0 -14.85 M90.85 -9.9 L92.05 -9.75 Q86.6 12.15 87.1 33.55 84.4 22.7 84.75 13.15 84.95 7.75 86.15 2.75 L86.45 1.55 86.95 -0.1 87.35 -1.4 87.3 -1.3 Q87.85 -3.05 88.55 -4.65 L89.65 -7.1 90.85 -9.9 M94.5 -27.1 L94.1 -24.55 94.5 -27.1 M80.5 2.05 Q73.9 16.25 72.0 33.2 L71.95 33.3 71.9 33.8 71.85 34.3 Q70.95 28.55 71.35 24.15 L71.6 21.35 71.6 21.3 Q71.85 18.3 72.5 15.1 71.85 18.3 71.6 21.3 L71.6 21.35 54.5 42.7 54.4 42.75 53.45 43.6 67.85 21.9 59.25 29.45 Q64.1 23.0 71.3 16.2 L72.5 15.1 72.75 13.9 73.0 12.65 Q73.6 9.85 74.5 6.9 L80.5 2.05 M96.5 -9.25 L99.3 -9.05 Q100.0 5.4 98.35 20.3 98.3 10.8 96.35 -0.15 96.65 -4.65 96.5 -9.25 M58.0 15.75 L59.2 15.0 58.0 15.75 M74.7 -8.8 Q67.7 11.05 55.9 16.15 L59.2 15.0 55.9 16.15 Q67.7 11.05 74.7 -8.8 M54.75 21.7 L53.55 24.65 54.75 21.7 M63.0 14.5 Q61.05 17.55 59.55 20.8 61.05 17.55 63.0 14.5 M5.9 10.3 L2.85 7.55 -2.55 2.5 -4.3 0.55 Q-11.35 -7.75 -12.35 -16.7 -11.35 -7.75 -4.3 0.55 L-4.7 1.65 -11.3 -5.5 Q-12.05 6.7 -6.2 20.45 -13.95 10.65 -15.1 -4.8 -15.4 -8.3 -15.3 -12.1 -14.1 -14.4 -12.35 -16.7 L-9.9 -19.7 Q-6.8 -2.05 5.9 10.3 M0.75 39.85 L1.1 40.85 Q5.95 53.8 10.35 63.7 L13.3 70.1 11.0 67.2 Q5.8 60.0 2.55 50.55 L0.75 39.85 M2.0 26.65 L0.7 30.5 -1.25 21.4 Q-1.9 13.2 -2.15 4.2 L1.85 10.35 Q2.2 19.75 2.0 26.65 M13.25 83.4 Q8.5 77.6 7.45 75.9 L0.65 63.95 Q-10.75 42.5 -15.6 15.2 L-15.85 4.15 Q-6.6 47.75 13.25 83.4 M43.9 32.2 Q42.95 51.7 46.25 74.15 40.25 49.55 43.9 32.2 M-31.75 -38.45 L-33.7 -34.15 -31.75 -38.45 M-30.2 2.45 Q-31.4 -5.7 -30.55 -14.6 L-30.5 -15.15 -28.1 -30.35 Q-31.5 0.1 -23.25 22.35 L-25.45 18.7 Q-28.95 11.0 -30.2 2.45 M-9.5 21.7 Q-5.6 36.75 -1.05 44.75 -4.4 31.65 -4.4 18.15 -0.7 41.8 3.7 60.15 -4.75 42.75 -9.5 21.7" fill="#125262" fill-rule="evenodd" stroke="none"/>
    <path d="M28.75 -27.3 L24.05 -29.45 29.1 -27.95 28.75 -27.3 M43.15 -21.5 Q38.45 -23.2 33.85 -25.15 L34.15 -26.55 44.4 -23.8 43.15 -21.5 M44.6 -21.0 L45.65 -23.45 51.9 -21.9 51.4 -20.95 50.25 -19.05 Q47.4 -19.95 44.6 -21.0 M71.5 -17.7 L74.55 -17.15 72.0 -13.45 71.75 -13.15 69.9 -13.55 71.5 -17.7 M56.15 -20.9 L54.7 -17.6 53.1 -18.1 54.65 -21.25 56.15 -20.9 M56.75 -17.0 L58.3 -20.4 61.0 -19.8 58.1 -16.6 56.75 -17.0 M80.85 -11.35 L82.6 -15.95 89.6 -15.15 Q92.5 -18.2 93.8 -23.3 92.9 -19.25 91.15 -15.0 L93.0 -14.85 90.85 -9.9 88.95 -10.15 Q86.65 -5.65 83.5 -0.9 L80.5 2.05 74.5 6.9 69.95 9.85 68.2 10.9 Q83.2 1.65 86.9 -10.4 L80.85 -11.35 M93.4 -14.85 L96.2 -14.7 96.5 -9.25 92.05 -9.75 Q92.65 -12.3 93.4 -14.85 M87.3 -1.3 L87.35 -1.4 86.95 -0.1 87.3 -1.3 86.95 -0.1 Q85.25 4.95 85.0 6.85 82.8 13.75 79.65 18.95 L78.45 20.8 Q73.3 28.35 71.85 34.3 L71.9 33.8 71.95 33.3 72.0 33.2 Q72.65 30.35 74.15 27.35 79.4 16.9 83.25 6.15 84.0 4.05 87.3 -1.3 M99.3 -9.05 L98.95 -14.6 102.0 -14.6 Q102.45 -3.9 99.6 14.35 L100.5 -8.95 99.3 -9.05 M94.9 8.8 L94.9 8.85 94.65 9.8 92.5 16.15 92.3 16.65 91.35 19.0 87.65 31.05 87.45 31.95 87.45 31.9 Q87.55 27.55 89.25 22.5 92.75 12.15 94.25 1.25 94.6 -1.0 96.5 -9.25 95.65 3.15 94.9 8.8 L94.65 9.8 94.9 8.8 M88.95 -10.15 L91.15 -15.0 88.95 -10.15 M87.65 31.05 L87.45 31.9 87.65 31.05 M73.0 12.65 L72.75 13.9 71.3 16.2 Q64.1 23.0 59.25 29.45 L57.15 32.35 Q59.7 26.5 64.2 21.3 68.6 16.2 73.3 11.4 L73.0 12.65" fill="#76bcd4" fill-rule="evenodd" stroke="none"/>
    <path d="M15.15 -22.95 L15.45 -23.6 19.65 -21.8 20.35 -21.45 20.2 -20.7 17.55 -21.9 15.15 -22.95 M13.5 -24.4 L13.45 -23.75 9.45 -25.95 9.6 -26.0 13.5 -24.4 M24.7 -18.8 Q25.45 -18.25 25.5 -17.55 L23.75 -18.7 24.05 -19.25 24.7 -18.8 M51.1 -10.4 L51.45 -11.0 52.2 -11.15 52.0 -10.5 51.1 -10.4 M54.1 -11.35 L56.8 -11.55 59.4 -11.9 61.8 -11.9 Q62.75 -11.9 63.25 -11.45 L55.5 -10.9 53.7 -10.7 54.1 -11.35 53.7 -10.7 53.65 -10.7 54.1 -11.35" fill="#ad8d8b" fill-rule="evenodd" stroke="none"/>
    <path d="M24.4 -73.95 Q55.05 -76.5 79.8 -63.3 102.25 -49.45 112.6 -35.0 115.4 -25.25 119.6 -13.3 113.25 -22.55 103.0 -31.4 80.2 -52.6 56.25 -60.4 L55.85 -60.45 Q40.15 -68.65 24.4 -73.95 M89.8 -50.65 Q86.25 -53.1 84.0 -54.8 87.55 -50.65 91.55 -47.0 101.1 -38.3 113.9 -24.25 105.85 -39.6 89.8 -50.65" fill="url(#gradient0)" fill-rule="evenodd" stroke="none"/>
    <path d="M-19.75 -64.25 Q-8.5 -68.1 5.15 -70.95 L5.55 -71.05 Q24.6 -67.7 42.6 -61.85 17.1 -63.35 -12.1 -56.3 L-19.75 -64.25" fill="url(#gradient1)" fill-rule="evenodd" stroke="none"/>
    <path d="M-48.0 -50.5 Q-36.5 -58.5 -19.75 -64.25 L-12.1 -56.3 -16.1 -55.35 Q-44.55 -47.7 -57.15 -33.4 L-55.8 -39.75 Q-53.6 -43.95 -48.0 -50.5" fill="url(#gradient2)" fill-rule="evenodd" stroke="none"/>
    <path d="M55.85 -60.45 L42.6 -61.85 Q24.6 -67.7 5.55 -71.05 15.25 -73.2 24.4 -73.95 40.15 -68.65 55.85 -60.45" fill="url(#gradient3)" fill-rule="evenodd" stroke="none"/>
    <path d="M89.8 -50.65 Q105.85 -39.6 113.9 -24.25 101.1 -38.3 91.55 -47.0 87.55 -50.65 84.0 -54.8 86.25 -53.1 89.8 -50.65" fill="url(#gradient4)" fill-rule="evenodd" stroke="none"/>
    <path d="M101.4 -20.2 Q106.0 -15.5 113.6 -5.3 118.8 1.9 118.95 8.0 118.6 2.5 110.0 -3.0 112.55 10.6 98.65 25.85 L87.1 33.55 87.45 31.9 87.45 31.95 87.65 31.05 91.35 19.0 92.3 16.65 92.5 16.15 94.65 9.8 94.9 8.85 94.9 8.8 Q96.0 4.4 96.35 -0.15 98.3 10.8 98.35 20.3 L98.35 20.75 98.35 21.6 99.6 14.35 Q102.45 -3.9 102.0 -14.6 L101.4 -20.2 M84.75 13.15 Q84.4 22.7 87.1 33.55 L68.45 42.7 Q52.25 55.85 52.15 71.3 L53.0 69.55 Q49.95 79.1 54.65 88.7 51.25 85.15 49.0 77.85 L48.65 76.65 47.6 71.7 47.55 71.35 47.45 70.0 Q46.55 54.0 53.05 44.2 L53.45 43.6 54.4 42.75 54.5 42.7 66.2 31.4 Q71.0 26.45 71.35 24.15 70.95 28.55 71.85 34.3 73.3 28.35 78.45 20.8 L79.65 18.95 Q83.7 16.05 84.75 13.15 M51.05 76.75 Q50.85 74.7 51.85 72.05 L52.15 71.3 51.85 72.05 Q50.85 74.7 51.05 76.75 M-5.35 55.4 L-33.15 18.75 Q-29.85 12.85 -30.2 2.45 -28.95 11.0 -25.45 18.7 L-23.25 22.35 -17.25 32.35 Q-11.9 45.15 -5.35 55.4 M-35.15 15.45 Q-51.9 -1.85 -54.0 -21.75 -61.9 -12.35 -60.35 -2.95 -64.4 -13.2 -58.3 -20.7 -50.5 -30.3 -36.35 -37.75 -38.5 -34.5 -39.8 -31.1 L-39.95 -30.75 Q-41.3 -27.3 -41.75 -23.65 -42.85 -8.45 -45.05 -5.6 -43.45 -7.25 -41.7 -9.65 L-40.0 -12.25 Q-37.35 -16.4 -37.15 -17.65 -37.5 -8.35 -36.45 -1.2 -35.1 8.4 -35.15 15.45" fill="url(#gradient5)" fill-rule="evenodd" stroke="none"/>
    <path d="M91.05 33.8 Q83.05 39.15 76.2 44.8 L74.45 46.2 73.1 47.35 Q57.65 60.95 53.0 69.55 L52.15 71.3 Q52.25 55.85 68.45 42.7 L87.1 33.55 98.65 25.85 Q112.55 10.6 110.0 -3.0 118.6 2.5 118.95 8.0 L118.95 9.3 Q118.4 16.15 111.2 21.55 100.35 27.5 91.05 33.8 M8.4 86.15 L8.4 86.75 8.4 87.15 8.4 87.8 8.35 88.6 8.35 88.8 8.25 89.7 Q-0.4 70.95 -15.3 52.4 L-17.5 49.85 -20.95 45.8 -46.35 16.1 Q-54.4 8.1 -58.3 1.25 L-60.35 -2.95 Q-61.9 -12.35 -54.0 -21.75 -51.9 -1.85 -35.15 15.45 -35.2 19.05 -35.6 22.0 -34.2 20.6 -33.15 18.75 L-5.35 55.4 -5.1 55.8 -1.7 60.8 0.65 63.95 7.45 75.9 Q8.4 81.6 8.4 86.15" fill="url(#gradient6)" fill-rule="evenodd" stroke="none"/>
    <path d="M22.25 29.3 L22.75 29.55 Q28.7 29.25 34.55 27.9 L34.25 31.65 Q31.05 34.4 22.8 34.35 11.5 30.05 6.6 22.95 6.85 36.8 7.5 44.95 L4.05 27.9 1.1 40.85 0.75 39.85 Q1.8 35.1 2.0 26.65 2.2 19.75 1.85 10.35 11.35 23.8 22.25 29.3 M9.05 48.5 L8.9 48.55 Q9.25 41.35 9.05 48.5 M8.85 49.8 L8.95 52.3 8.75 51.15 8.85 49.8 M21.5 59.95 L20.5 59.4 Q17.5 57.8 17.45 57.4 13.45 55.85 9.15 55.1 L9.15 55.4 8.4 53.9 18.05 56.4 21.5 59.95 M34.7 56.55 L34.3 56.6 31.55 58.7 31.55 58.65 34.75 54.4 34.7 56.55" fill="#c9a4a1" fill-rule="evenodd" stroke="none"/>
    <path d="M14.65 -119.35 L7.8 -114.95 Q1.0 -110.25 -6.15 -104.3 L-8.65 -102.2 Q-21.75 -91.55 -27.1 -92.05 -27.75 -76.25 -38.85 -60.45 L-48.0 -50.5 Q-36.5 -58.5 -19.75 -64.25 -8.5 -68.1 5.15 -70.95 L5.55 -71.05 Q15.25 -73.2 24.4 -73.95 55.05 -76.5 79.8 -63.3 102.25 -49.45 112.6 -35.0 116.1 -30.1 118.25 -25.15 120.1 -18.8 122.6 -12.9 125.4 -5.85 126.4 -0.6 128.25 8.8 124.55 12.5 L120.2 16.35 114.35 20.6 Q105.5 26.4 91.05 33.8 83.05 39.15 76.2 44.8 89.5 52.7 91.45 57.65 91.95 64.0 93.45 70.5 L93.55 70.95 Q96.2 82.45 101.8 94.55 L114.3 120.8 115.6 123.55 126.25 125.55 126.4 125.6 126.55 125.6 126.95 125.7 147.05 129.45 Q159.6 131.65 172.15 131.15 L182.9 130.25 192.8 128.5 Q194.55 128.9 194.15 130.55 L194.4 130.5 202.85 127.75 Q207.45 126.3 213.6 127.1 222.3 129.35 237.7 129.1 245.65 128.95 244.1 131.55 L243.45 132.0 Q238.0 135.2 227.25 135.85 234.55 137.4 235.5 138.95 237.0 143.15 235.5 151.25 234.25 160.65 233.0 161.3 229.65 162.15 228.65 154.75 L227.2 156.95 Q232.8 163.35 231.3 164.25 226.25 165.1 223.75 161.95 L223.15 162.8 Q221.4 162.55 220.8 159.9 L212.5 153.8 Q203.5 160.55 194.45 157.45 193.85 189.5 190.35 187.5 L183.05 183.1 Q176.95 179.65 170.0 176.3 153.2 168.25 131.3 160.95 97.8 154.6 90.0 143.75 L80.35 124.85 77.8 130.85 Q77.1 133.5 76.75 136.3 L76.45 139.0 Q75.3 153.95 82.7 173.6 92.1 198.85 101.0 212.15 103.65 216.15 106.3 219.1 L107.0 219.85 109.7 222.45 Q107.65 227.05 105.0 230.75 L103.95 232.15 100.55 235.9 100.25 236.15 Q102.4 245.25 102.5 253.75 L102.45 257.0 102.0 262.45 102.0 262.6 101.5 265.7 Q100.85 269.25 99.85 272.65 L99.4 274.0 99.2 274.7 98.75 275.9 97.55 279.0 97.45 279.15 95.45 279.45 95.1 281.4 Q90.2 306.4 83.5 330.55 L82.25 335.05 77.1 352.1 76.1 355.25 Q72.2 367.65 69.25 377.65 66.25 387.75 64.25 395.35 L62.0 404.1 30.4 404.1 24.6 404.1 24.65 406.1 M42.45 -128.75 L40.8 -130.2 40.1 -130.85 Q36.05 -134.8 14.95 -128.35 -17.3 -111.5 -42.0 -112.35 L-39.8 -110.75 Q-26.55 -101.6 -6.15 -104.3 M14.65 -119.35 Q17.8 -121.3 20.85 -122.9 M42.45 -128.75 Q54.85 -118.15 80.2 -107.65 107.7 -86.05 113.6 -60.1 113.6 -41.3 118.25 -25.15 M55.85 -60.45 L56.25 -60.4 Q80.2 -52.6 103.0 -31.4 113.25 -22.55 119.6 -13.3 123.9 -7.05 126.4 -0.6 M42.6 -61.85 L55.85 -60.45 M42.6 -61.85 Q17.1 -63.35 -12.1 -56.3 L-16.1 -55.35 Q-44.55 -47.7 -57.15 -33.4 L-58.5 -27.05 Q-65.95 -14.25 -60.45 -2.6 L-60.35 -2.95 Q-64.4 -13.2 -58.3 -20.7 -50.5 -30.3 -36.35 -37.75 -38.5 -34.5 -39.8 -31.1 L-39.95 -30.75 Q-41.3 -27.3 -41.75 -23.65 -42.85 -8.45 -45.05 -5.6 -43.45 -7.25 -41.7 -9.65 L-40.0 -12.25 Q-37.35 -16.4 -37.15 -17.65 -36.55 -26.95 -33.7 -34.15 L-31.75 -38.45 M34.45 -43.4 L35.55 -47.4 M13.25 -21.25 Q13.1 -18.8 13.25 -16.65 13.4 -18.9 15.15 -22.95 M15.45 -23.6 Q18.7 -30.7 26.7 -42.95 L27.1 -43.85 27.95 -45.95 M28.75 -27.3 L29.1 -27.95 Q30.95 -31.7 32.45 -35.7 L34.45 -43.4 M18.7 -9.7 L18.45 -4.55 Q20.85 -14.4 25.2 -21.2 L28.75 -27.3 M43.15 -21.5 L44.4 -23.8 Q47.1 -28.75 49.55 -34.05 L50.45 -36.15 M30.55 -27.55 L32.45 -35.7 M30.55 -27.55 L30.35 -26.6 Q28.9 -20.25 27.8 -13.95 25.95 -3.9 23.25 2.45 L21.25 6.55 19.6 8.9 Q24.15 4.6 28.35 -0.3 L28.6 -0.55 Q32.3 -4.95 35.7 -9.75 39.65 -15.35 43.15 -21.5 M12.65 -43.9 L13.4 -45.55 M8.65 -35.15 L12.65 -43.9 M18.45 -44.0 L18.85 -45.2 M16.15 -36.8 L18.45 -44.0 M4.9 -19.35 L4.85 -18.95 4.7 -16.9 Q6.75 -24.45 16.15 -36.8 14.15 -29.95 13.5 -24.4 L13.45 -23.75 13.25 -21.25 M20.35 -21.45 Q22.4 -32.1 26.7 -42.95 M13.4 -15.1 L13.25 -16.65 M20.2 -20.7 Q19.1 -15.2 18.7 -9.7 M4.9 -19.35 Q5.8 -28.7 8.65 -35.15 1.5 -30.4 -3.7 -25.8 -4.65 -16.25 -1.55 -6.15 0.9 1.9 5.9 10.3 L2.85 7.55 -2.55 2.5 -2.15 4.2 -4.3 0.55 -4.7 1.65 Q-8.05 11.4 -6.2 20.45 -13.95 10.65 -15.1 -4.8 -15.4 -8.3 -15.3 -12.1 -17.8 -7.3 -17.8 -2.75 L-17.9 -7.05 Q-17.5 -24.3 -3.5 -42.65 L-1.5 -45.2 M63.5 -35.15 L63.5 -35.2 64.25 -36.5 M74.55 -17.15 Q77.2 -21.45 79.5 -26.7 L80.2 -30.35 80.35 -31.4 80.7 -33.45 M77.2 -16.75 Q78.45 -21.4 79.5 -26.7 M73.85 -36.65 L73.8 -36.3 Q73.0 -33.15 69.9 -29.15 69.75 -23.0 68.95 -18.2 L68.0 -14.0 Q66.15 -7.5 62.7 -4.35 65.35 -6.15 67.75 -8.55 L66.15 -5.05 M69.9 -13.55 L71.75 -13.15 72.0 -13.45 74.55 -17.15 M-36.35 -37.75 Q-32.2 -39.9 -24.75 -42.3 26.85 -56.4 60.15 -48.95 L62.1 -48.5 Q69.5 -45.6 76.75 -41.05 85.75 -35.4 94.5 -27.1 L101.4 -20.2 Q106.0 -15.5 113.6 -5.3 118.8 1.9 118.95 8.0 L118.95 9.3 Q118.4 16.15 111.2 21.55 100.35 27.5 91.05 33.8 M59.75 -40.2 Q60.6 -44.15 60.15 -48.95 M51.9 -21.9 Q55.35 -28.2 58.05 -35.4 59.2 -37.6 59.75 -40.2 M56.15 -20.9 L54.7 -17.6 54.15 -16.3 Q52.85 -13.2 52.0 -10.5 L51.05 -7.05 50.8 -6.0 Q52.1 -8.4 53.7 -10.7 L54.1 -11.35 58.1 -16.6 61.0 -19.8 64.2 -23.0 Q67.65 -26.3 69.9 -29.15 M63.5 -35.15 Q59.4 -27.85 56.6 -21.85 L56.45 -21.55 56.15 -20.9 M51.4 -20.95 L51.9 -21.9 M50.25 -19.05 L51.4 -20.95 50.6 -18.9 Q47.05 -9.7 43.5 -3.55 41.55 -0.1 39.55 2.35 L40.35 1.85 Q46.3 -2.25 51.1 -10.4 L51.45 -11.0 54.15 -16.3 M71.75 -13.15 L71.85 -13.1 72.0 -13.45 M67.75 -8.55 Q69.85 -10.65 71.75 -13.15 M77.2 -16.75 L75.9 -12.3 75.25 -10.3 74.7 -8.8 Q71.95 -1.8 64.85 3.05 L59.5 10.5 Q53.55 17.95 47.95 20.9 53.15 20.05 57.35 18.05 47.85 24.05 38.05 26.95 L37.05 31.45 Q36.45 35.1 36.35 39.05 36.2 44.4 37.1 50.2 38.0 56.8 40.25 64.05 42.95 72.05 45.9 78.1 L49.75 84.9 50.05 85.35 51.8 87.95 51.85 88.0 Q50.25 83.1 49.05 78.3 L48.65 76.65 49.0 77.85 Q51.25 85.15 54.65 88.7 49.95 79.1 53.0 69.55 L52.15 71.3 51.85 72.05 Q50.85 74.7 51.05 76.75 M71.85 -13.1 Q64.2 1.3 56.25 7.45 61.15 5.55 64.85 3.05 M94.1 -24.55 L94.05 -24.45 93.8 -23.3 Q92.9 -19.25 91.15 -15.0 L88.95 -10.15 Q86.65 -5.65 83.5 -0.9 L80.5 2.05 74.5 6.9 69.95 9.85 68.2 10.9 65.2 12.45 Q62.3 13.85 59.2 15.0 L58.0 15.75 M93.0 -14.85 L94.2 -17.7 M96.2 -14.7 L95.7 -19.15 95.8 -18.1 M94.1 -24.55 L94.05 -24.45 M93.0 -14.85 L90.85 -9.9 89.65 -7.1 88.55 -4.65 Q87.85 -3.05 87.3 -1.3 L86.95 -0.1 86.45 1.55 86.15 2.75 Q84.95 7.75 84.75 13.15 84.4 22.7 87.1 33.55 L87.45 31.9 87.65 31.05 91.35 19.0 92.3 16.65 92.5 16.15 94.65 9.8 94.9 8.8 Q96.0 4.4 96.35 -0.15 98.3 10.8 98.35 20.3 L98.35 20.75 98.35 21.6 99.6 14.35 Q102.45 -3.9 102.0 -14.6 L101.4 -20.2 M94.1 -24.55 L94.5 -27.1 M96.5 -9.25 L96.2 -14.7 M85.0 6.85 L86.15 2.75 M96.5 -9.25 Q96.65 -4.65 96.35 -0.15 M219.5 136.05 L216.8 135.95 M208.4 134.6 Q211.1 135.05 213.6 136.35 215.05 137.15 219.05 138.1 226.25 138.6 227.1 141.25 227.65 143.1 226.05 144.55 L228.3 144.85 228.1 143.85 M202.85 134.5 Q205.75 134.15 208.4 134.6 M221.65 146.15 Q217.1 146.4 208.9 143.7 204.5 147.75 198.2 149.1 L187.35 150.25 M224.4 145.6 Q227.2 146.75 228.85 147.95 L228.3 144.85 M226.05 144.55 L224.4 145.6 221.65 146.15 M223.75 161.95 L227.2 156.95 M230.2 149.2 Q231.1 150.2 231.05 151.25 L230.5 152.05 228.65 154.75 M227.25 135.85 L219.5 136.05 M189.0 131.35 Q187.85 132.6 186.95 134.3 183.35 140.9 182.85 154.1 184.5 153.95 190.5 156.05 L190.6 156.05 194.15 157.3 194.45 157.45 M192.8 128.5 Q190.7 129.45 189.0 131.35 L194.15 130.55 M182.85 154.1 Q182.5 154.7 182.45 157.05 184.7 180.05 190.35 187.5 M174.1 164.85 Q173.55 161.0 173.6 156.55 174.4 133.85 182.9 130.25 M172.15 131.15 Q166.2 134.8 163.8 154.1 163.7 157.85 164.0 161.0 164.85 172.4 170.0 176.3 M67.3 68.65 Q66.9 66.3 66.95 63.65 M174.1 164.85 Q175.7 177.25 183.05 183.1 M220.8 159.9 Q220.3 157.65 221.7 151.75 214.95 150.7 209.9 146.35 M209.65 151.7 L212.5 153.8 M228.85 147.95 L230.2 149.2 M57.35 18.05 Q60.45 16.6 63.0 14.5 L65.2 12.45 M79.65 18.95 L78.45 20.8 Q73.3 28.35 71.85 34.3 70.95 28.55 71.35 24.15 71.0 26.45 66.2 31.4 L54.5 42.7 54.4 42.75 53.45 43.6 53.05 44.2 Q46.55 54.0 47.45 70.0 L47.55 71.35 47.6 71.7 48.65 76.65 M72.75 13.9 L73.0 12.65 Q73.6 9.85 74.5 6.9 M57.15 32.35 L59.25 29.45 Q64.1 23.0 71.3 16.2 L72.5 15.1 Q71.85 18.3 71.6 21.3 L71.6 21.35 71.35 24.15 M72.75 13.9 L72.5 15.1 M52.35 27.2 L53.55 24.65 54.75 21.7 M59.2 15.0 L55.9 16.15 Q67.7 11.05 74.7 -8.8 M55.35 34.1 L55.15 35.35 57.15 32.35 M52.55 27.1 L52.35 27.2 51.55 29.6 52.55 27.1 53.55 24.65 M51.55 29.6 L51.3 30.3 Q46.65 44.85 47.05 62.2 47.1 66.0 47.45 70.0 M59.55 20.8 Q61.05 17.55 63.0 14.5 M74.45 46.2 L73.1 47.35 Q57.65 60.95 53.0 69.55 M76.2 44.8 L74.45 46.2 Q89.95 56.3 93.45 70.5 M55.35 34.1 Q56.55 27.2 59.55 20.8 M54.5 42.7 L71.6 21.35 M33.45 1.25 L26.65 6.55 25.4 7.4 Q28.15 5.0 30.4 1.6 33.5 -3.15 35.7 -9.75 M22.25 29.3 L22.75 29.55 Q28.7 29.25 34.55 27.9 L38.05 26.95 M2.0 26.65 Q1.8 35.1 0.75 39.85 L1.1 40.85 Q5.95 53.8 10.35 63.7 L13.3 70.1 11.0 67.2 Q5.8 60.0 2.55 50.55 5.15 63.65 9.1 73.55 L12.75 74.8 12.75 76.25 M34.25 31.65 L34.55 27.9 M12.75 74.8 Q18.85 77.1 23.9 80.1 L24.55 80.5 24.85 80.7 Q28.6 83.0 31.7 85.75 M31.9 85.9 L32.85 86.85 33.35 87.3 Q35.55 84.6 38.35 82.45 41.7 79.85 45.9 78.1 M37.05 77.7 Q34.5 68.15 34.7 56.55 L34.75 54.4 34.8 53.75 34.8 53.35 34.8 53.25 35.4 45.95 Q34.45 40.85 34.25 36.4 L34.2 34.45 35.35 39.3 37.05 31.45 M-1.25 21.4 L0.7 30.5 2.0 26.65 Q2.2 19.75 1.85 10.35 L-2.15 4.2 Q-1.9 13.2 -1.25 21.4 -0.5 31.2 0.75 39.85 L2.55 50.55 M34.25 31.65 Q34.15 33.0 34.2 34.45 M36.35 39.05 L35.4 45.95 M22.25 29.3 Q11.35 23.8 1.85 10.35 M36.95 53.35 L36.95 53.05 37.1 50.2 M37.05 53.35 L36.95 53.05 M37.05 53.35 L37.8 56.2 39.35 61.35 40.25 64.05 M36.9 56.35 Q36.5 70.5 37.15 77.5 L37.25 78.55 37.05 77.7 M50.6 86.65 L50.35 86.0 49.75 84.9 M36.9 56.35 L36.95 53.35 M8.4 86.15 L8.4 86.75 8.4 87.15 8.4 87.8 8.35 88.6 8.35 88.8 Q7.65 103.65 9.2 115.7 10.7 127.25 14.15 136.15 15.2 138.8 15.95 141.85 20.55 159.7 16.25 190.0 14.5 205.55 14.65 218.0 14.7 227.2 15.8 234.75 L16.8 240.4 Q54.15 244.85 83.65 232.25 L84.0 229.7 Q84.55 224.5 84.6 219.05 100.5 219.0 101.0 212.15 M84.6 219.0 Q84.6 203.85 80.25 186.7 L77.2 176.2 Q69.25 156.35 66.5 139.4 65.75 135.05 65.4 130.9 67.5 126.6 63.05 111.9 60.2 102.45 54.65 88.7 M12.45 80.9 Q13.9 83.75 15.55 86.2 L13.25 83.4 Q8.5 77.6 7.45 75.9 8.4 81.6 8.4 86.15 M12.45 80.9 Q10.65 77.5 9.1 73.55 M-17.5 49.85 L-15.3 52.4 Q-0.4 70.95 8.25 89.7 L8.35 88.8 M7.45 75.9 L0.65 63.95 -1.7 60.8 -5.1 55.8 -5.35 55.4 Q-11.9 45.15 -17.25 32.35 -22.9 16.75 -23.0 2.55 -21.65 11.95 -18.55 21.3 L-18.7 20.15 Q-19.7 11.1 -15.1 -4.8 M-33.15 18.75 Q-34.2 20.6 -35.6 22.0 -35.2 19.05 -35.15 15.45 -35.1 8.4 -36.45 -1.2 -37.5 -8.35 -37.15 -17.65 M-60.35 -2.95 L-58.3 1.25 Q-54.4 8.1 -46.35 16.1 L-20.95 45.8 -17.5 49.85 Q-31.95 58.0 -40.05 68.55 -46.25 90.7 -52.45 106.9 L-54.2 111.3 Q-46.0 79.3 -46.1 69.6 -44.05 64.7 -37.0 58.65 L-20.95 45.8 M-60.0 133.1 L-61.65 130.55 Q-65.2 124.65 -68.95 116.95 -73.5 133.6 -83.85 143.7 -87.9 147.7 -92.9 150.65 -90.5 151.85 -88.4 153.3 L-74.3 176.8 Q-71.0 182.3 -59.85 182.75 -57.2 182.05 -54.85 180.15 -50.8 176.85 -47.65 169.9 -34.0 148.25 -22.85 120.9 -21.05 126.3 -17.75 132.1 -9.65 151.9 -16.0 174.05 -18.8 182.7 -28.95 194.85 -26.3 195.4 -23.4 196.75 -16.6 199.9 -8.6 207.1 2.75 217.35 14.65 218.0 M67.3 68.65 Q68.3 74.3 72.05 78.3 83.9 92.8 84.7 103.45 85.0 107.65 84.0 112.8 82.95 118.3 80.35 124.85 M99.85 126.0 Q103.3 123.25 115.6 123.55 M79.65 18.95 Q83.7 16.05 84.75 13.15 M85.0 6.85 Q82.8 13.75 79.65 18.95 M104.5 224.5 Q105.9 222.65 106.75 220.55 L107.0 219.85 M84.6 219.0 L84.6 219.05 84.6 219.0 M83.3 234.55 L83.1 235.6 84.05 235.4 Q98.85 231.85 104.5 224.5 M46.35 274.0 L93.9 279.6 95.45 279.45 M16.8 240.4 L17.4 243.1 21.7 249.6 M24.15 251.8 L24.15 254.25 M24.15 257.05 L24.15 261.7 M24.15 263.9 L36.2 261.9 36.95 254.05 M24.15 251.8 L24.15 250.6 M24.1 269.0 L24.15 268.55 24.15 263.9 Q16.3 257.0 1.0 255.75 -4.45 255.3 -10.8 255.55 L-19.05 256.65 -32.75 260.2 -33.95 260.65 -35.15 261.1 -35.45 261.2 -35.7 261.3 -36.2 261.55 -37.6 262.15 Q-42.45 264.3 -46.4 267.15 L-46.7 267.35 Q-49.75 237.95 -36.95 219.7 L-42.8 219.5 Q-44.2 214.35 -39.25 207.5 -35.6 202.5 -30.7 196.85 L-28.95 194.85 M24.1 269.0 L23.85 270.2 23.75 270.8 Q23.05 273.65 22.4 272.85 L21.95 273.95 Q23.2 285.6 23.9 310.15 L24.4 335.75 24.55 357.55 Q25.3 348.05 26.65 337.25 28.05 325.65 30.05 312.55 L30.1 312.4 30.1 312.25 Q33.05 293.05 37.35 270.6 L35.45 269.8 36.2 261.9 Q38.35 263.2 41.95 264.35 L43.05 264.7 46.85 265.75 49.2 266.3 50.6 266.6 Q59.35 268.4 72.35 269.9 M21.85 272.95 L21.95 273.95 M21.75 272.25 L21.8 272.55 M-3.2 304.0 Q0.9 303.8 4.4 303.9 22.1 304.15 23.9 310.15 M21.75 272.25 L22.4 272.85 M72.5 269.95 Q96.45 272.65 101.5 265.7 M44.8 273.45 L37.35 270.6 M44.8 273.45 L46.35 274.0 M17.4 243.1 L18.7 247.5 Q9.65 246.3 -0.3 241.9 -12.95 236.3 -27.05 225.6 L-27.75 225.05 Q-33.15 221.05 -36.95 219.7 M38.9 257.5 Q41.35 254.15 45.95 250.8 51.15 247.0 59.05 243.25 M47.55 326.95 L57.85 330.55 62.7 331.4 Q76.1 333.4 83.5 330.55 M36.95 346.15 Q42.05 348.9 49.35 351.5 70.85 359.1 76.1 355.25 M30.05 312.55 L30.05 312.65 30.05 312.8 30.05 312.9 30.05 313.05 30.05 313.15 30.05 313.3 30.05 313.4 30.05 313.55 30.05 313.65 30.1 313.75 30.1 313.9 30.15 314.0 30.15 314.1 30.2 314.25 30.2 314.35 30.25 314.5 30.25 314.6 30.3 314.7 30.35 314.85 30.35 314.95 30.4 315.05 30.4 315.15 30.5 315.3 30.55 315.4 30.6 315.5 30.65 315.65 30.7 315.75 30.75 315.85 30.8 315.9 30.85 316.0 30.95 316.2 31.0 316.3 31.1 316.45 31.15 316.55 31.2 316.65 46.95 326.7 M26.65 337.25 Q29.2 341.85 36.7 346.0 M24.55 357.55 L24.55 357.85 24.6 361.3 25.1 362.4 Q26.55 364.95 30.6 367.55 L30.7 367.65 Q36.0 371.0 45.6 374.35 60.4 379.0 69.25 377.65 M24.55 357.55 Q6.15 353.6 -17.1 360.3 L-17.4 360.4 Q-22.25 361.8 -27.3 363.65 L-28.5 358.35 Q-30.95 349.4 -33.0 340.65 -35.85 328.35 -37.9 316.55 -41.3 296.9 -42.4 278.6 L-43.75 280.15 -47.7 273.25 -46.7 267.35 M-13.15 380.35 L-12.3 380.1 Q6.15 374.95 24.6 380.55 L24.6 362.85 24.6 361.3 M30.1 389.5 Q34.65 392.4 43.0 395.35 57.25 399.0 64.25 395.35 M29.2 388.9 L30.1 389.5 M24.6 382.9 L24.9 384.05 Q25.35 385.3 26.45 386.5 L29.2 388.9 M24.6 380.55 L24.6 382.9 24.6 404.1 -8.15 404.1 -18.2 404.1 -22.75 383.85 -27.3 363.65 M83.1 235.6 Q82.2 240.7 80.65 245.55 92.4 243.45 100.25 236.15 M33.45 1.25 Q43.25 -7.25 50.25 -19.05 M-48.0 -50.5 Q-53.6 -43.95 -55.8 -39.75 L-57.15 -33.4 M-28.1 -30.35 L-30.5 -15.15 -30.55 -14.6 Q-31.4 -5.7 -30.2 2.45 -28.95 11.0 -25.45 18.7 L-23.25 22.35 -17.25 32.35 M-12.35 -16.7 Q-14.1 -14.4 -15.3 -12.1 M-9.9 -19.7 L-12.35 -16.7 Q-11.35 -7.75 -4.3 0.55 L-2.55 2.5 M-3.7 -25.8 Q-7.25 -22.7 -9.9 -19.7 M-15.6 15.2 L-16.4 10.35 M-33.15 18.75 Q-29.85 12.85 -30.2 2.45 M-87.5 82.05 L-82.75 70.55 -77.75 61.45 -75.55 51.75 Q-72.3 44.05 -77.4 45.8 -82.55 47.6 -87.1 58.0 L-89.9 60.0 -89.95 60.05 -90.4 60.4 Q-95.65 64.55 -98.95 70.6 L-100.9 74.6 M-79.6 86.2 L-79.3 88.95 -78.2 89.1 -79.6 86.2 Q-83.55 81.55 -87.5 82.05 L-88.7 84.95 -87.9 87.55 Q-84.65 97.65 -80.55 103.6 -81.75 109.3 -84.0 115.7 -88.3 123.75 -91.7 128.4 L-94.1 131.3 Q-98.9 136.55 -103.0 138.85 -105.2 140.1 -107.2 140.45 -113.5 137.7 -114.55 119.5 -115.3 107.05 -109.7 95.6 -111.4 92.6 -113.85 90.75 -117.85 106.05 -117.9 122.85 -117.95 143.15 -113.45 145.15 L-107.5 146.0 -104.1 146.7 Q-97.95 147.05 -91.45 140.95 -87.3 137.0 -83.05 130.4 -71.8 111.95 -73.6 100.85 -71.15 108.1 -68.95 116.95 M-79.3 88.95 Q-78.9 95.5 -80.55 103.6 M-75.7 95.05 Q-76.9 91.85 -78.2 89.1 M-13.25 64.45 Q-13.4 74.95 -18.55 84.55 -24.8 96.05 -25.05 107.45 L-24.7 113.25 Q-24.2 117.0 -22.85 120.9 M-125.35 25.5 Q-125.2 27.25 -124.15 29.85 -123.0 32.0 -120.3 35.75 L-114.1 43.95 Q-111.0 52.05 -110.55 55.4 L-110.45 56.55 -110.65 57.45 M-125.35 25.5 Q-125.8 21.8 -122.45 22.05 L-109.4 37.05 -100.15 50.1 Q-99.05 44.05 -99.35 38.95 L-104.05 27.95 Q-104.45 25.4 -104.2 23.5 -103.75 20.15 -101.25 18.9 -96.3 25.5 -92.45 35.2 L-89.35 43.95 Q-88.3 57.7 -89.9 60.0 M-101.55 56.45 L-101.85 57.45 M-133.0 33.35 Q-132.65 36.25 -129.45 40.5 L-123.8 51.65 Q-122.5 54.0 -121.3 58.25 L-120.8 60.8 -120.6 62.35 M-133.0 33.35 Q-133.2 32.0 -132.75 30.95 -131.85 28.2 -127.65 33.15 -123.5 38.05 -117.9 47.3 -112.35 56.55 -110.55 55.4 M-135.9 48.95 Q-135.9 46.9 -134.8 45.55 -132.8 45.6 -128.2 54.3 L-120.8 60.8 M-113.85 90.75 Q-119.55 82.9 -120.8 76.65 -122.05 70.45 -128.2 64.3 -135.9 54.3 -135.9 48.95 M-100.15 50.1 Q-100.7 53.15 -101.55 56.45 M-105.5 102.7 Q-98.45 115.6 -94.1 131.3 M-104.1 146.7 Q-97.9 148.15 -92.9 150.65 M-61.1 129.1 L-61.65 130.55 M-60.0 133.1 Q-56.4 138.7 -53.05 142.45 M-61.1 129.1 L-54.2 111.3 M-109.7 95.6 L-105.5 102.7 M-75.7 95.05 L-73.6 100.85 M-30.75 210.3 L-30.7 210.35 Q-21.55 214.4 -12.35 222.95 2.4 236.15 15.8 234.75 M-39.25 207.5 Q-35.0 208.4 -30.75 210.3 M-42.4 278.6 Q-35.55 271.8 -15.55 269.0 5.1 266.05 21.75 272.25 M-24.35 337.35 L-23.75 337.15 -21.05 336.3 Q4.5 328.4 24.4 335.75 M-37.9 316.55 Q-30.6 306.65 -9.9 304.35 L-3.2 304.0 M-33.0 340.65 L-32.5 340.45 -24.35 337.35 M-22.75 383.85 Q-17.95 381.7 -13.15 380.35 M-20.3 -39.2 Q-25.9 -17.9 -23.0 2.55 M-60.45 -2.6 L-58.3 1.25 M0.65 63.95 Q-10.75 42.5 -15.6 15.2" fill="none" stroke="#000000" stroke-linecap="round" stroke-linejoin="round" stroke-opacity="0.6" stroke-width="0.05"/>
    <path d="M16.45 -18.35 L17.75 -17.8 17.05 -15.05 Q14.5 -6.9 9.6 -8.0 4.05 -10.5 6.15 -19.15 L7.05 -22.25 8.15 -21.8 7.45 -18.85 Q5.85 -11.35 9.65 -9.65 13.4 -7.95 15.9 -16.1 L16.45 -18.35 M53.65 -7.95 L53.35 -7.95 54.7 -8.0 53.4 -3.85 Q52.45 1.1 54.4 1.75 57.35 2.45 60.35 -4.95 L61.25 -8.05 62.4 -8.0 61.55 -4.65 Q58.25 3.95 54.0 3.25 51.2 2.15 52.15 -2.85 L52.55 -4.55 53.65 -7.95" fill="#000000" fill-opacity="0.9019608" fill-rule="evenodd" stroke="none"/>
    <path d="M15.05 -5.65 L17.75 -2.35 14.3 -4.55 Q6.3 -5.55 1.8 -8.9 L-0.6 -7.8 1.4 -10.55 Q8.6 -5.6 15.05 -5.65 M50.4 4.0 Q55.7 5.4 59.85 4.5 L60.9 6.3 58.95 5.1 Q55.55 6.45 50.75 5.25 L48.05 5.25 50.4 4.0" fill="#000000" fill-rule="evenodd" stroke="none"/>
    <path d="M6.15 -19.15 Q4.05 -10.5 9.6 -8.0 14.5 -6.9 17.05 -15.05 20.35 -10.0 15.55 -5.95 L15.05 -5.65 Q8.6 -5.6 1.4 -10.55 -0.15 -12.7 -0.7 -14.4 L-0.95 -15.65 -1.2 -18.05 -1.0 -18.95 6.15 -19.15 M65.75 -2.6 Q65.2 -0.75 63.9 1.55 62.05 3.6 59.85 4.5 55.7 5.4 50.4 4.0 50.4 -0.45 52.15 -2.85 51.2 2.15 54.0 3.25 58.25 3.95 61.55 -4.65 64.7 -4.3 65.75 -2.6" fill="#ffffff" fill-rule="evenodd" stroke="none"/>
    <path d="M7.05 -22.25 L6.15 -19.15 -1.0 -18.95 Q0.15 -24.2 3.85 -23.05 L7.05 -22.25 M17.05 -15.05 L17.75 -17.8 20.5 -15.45 Q19.4 -8.6 15.55 -5.95 20.35 -10.0 17.05 -15.05 M62.4 -8.0 Q63.95 -7.9 65.05 -7.15 66.65 -5.8 65.75 -2.6 64.7 -4.3 61.55 -4.65 L62.4 -8.0 M51.85 -7.65 L53.65 -7.95 52.55 -4.55 52.15 -2.85 Q50.4 -0.45 50.4 4.0 48.65 0.1 51.85 -7.65" fill="#c6c6c6" fill-rule="evenodd" stroke="none"/>
    <path d="M15.9 -16.1 Q13.4 -7.95 9.65 -9.65 5.85 -11.35 7.45 -18.85 12.2 -18.0 15.9 -16.1 M8.3 -17.75 Q7.45 -12.8 10.1 -11.0 13.05 -10.85 14.95 -15.25 13.2 -12.85 10.8 -13.3 8.75 -13.85 8.3 -17.75 M54.05 -3.55 Q53.5 -0.05 54.55 1.1 57.15 0.55 59.45 -4.35 57.7 -1.2 55.3 -0.95 54.7 -1.25 54.05 -3.55 M53.4 -3.85 Q55.75 -6.2 60.35 -4.95 57.35 2.45 54.4 1.75 52.45 1.1 53.4 -3.85" fill="#3bd9e7" fill-rule="evenodd" stroke="none"/>
    <path d="M16.45 -18.35 L15.9 -16.1 Q12.2 -18.0 7.45 -18.85 L8.15 -21.8 16.45 -18.35 M54.7 -8.0 Q57.8 -8.2 61.25 -8.05 L60.35 -4.95 Q55.75 -6.2 53.4 -3.85 L54.7 -8.0" fill="#269098" fill-rule="evenodd" stroke="none"/>
    <path d="M8.3 -17.75 Q8.75 -13.85 10.8 -13.3 13.2 -12.85 14.95 -15.25 13.05 -10.85 10.1 -11.0 7.45 -12.8 8.3 -17.75 M54.05 -3.55 Q54.7 -1.25 55.3 -0.95 57.7 -1.2 59.45 -4.35 57.15 0.55 54.55 1.1 53.5 -0.05 54.05 -3.55" fill="#a1f7ff" fill-rule="evenodd" stroke="none"/>
    <path d="M17.75 -17.8 L16.45 -18.35 8.15 -21.8 7.05 -22.25 3.85 -23.05 Q0.15 -24.2 -1.0 -18.95 L-1.2 -18.05 -0.95 -15.65 -0.7 -14.4 Q-0.35 -12.9 0.35 -11.6 -3.15 -15.55 -3.9 -22.4 -4.6 -25.4 -8.2 -27.6 L-2.45 -26.85 -5.1 -30.85 Q10.1 -25.05 25.9 -16.35 22.5 -15.45 20.7 -17.2 23.5 -14.35 23.0 -11.45 22.4 -13.45 20.5 -15.45 L17.75 -17.8" fill="url(#gradient7)" fill-rule="evenodd" stroke="none"/>
    <path d="M54.7 -8.0 L53.35 -7.95 53.65 -7.95 51.85 -7.65 Q49.7 -7.2 48.55 -6.5 49.6 -7.85 51.4 -8.5 49.35 -8.4 49.15 -9.8 L52.75 -9.75 Q61.65 -11.55 71.15 -9.8 68.9 -9.2 68.45 -7.8 69.05 -8.6 70.85 -8.2 69.7 -7.75 68.85 -6.0 66.8 -0.55 63.15 2.75 L63.9 1.55 Q65.2 -0.75 65.75 -2.6 66.65 -5.8 65.05 -7.15 63.95 -7.9 62.4 -8.0 L61.25 -8.05 Q57.8 -8.2 54.7 -8.0" fill="url(#gradient8)" fill-rule="evenodd" stroke="none"/>
    <path d="M21.3 18.85 L21.7 18.9 24.85 19.0 25.7 19.0 Q27.35 19.05 28.2 20.15 L28.4 20.35 27.95 20.8 24.65 21.1 Q21.8 21.05 20.7 20.15 L19.4 19.2 19.45 19.15 19.75 18.9 19.8 18.9 20.55 19.05 19.8 18.9 20.0 18.8 20.55 18.8 20.95 18.85 20.85 18.85 20.55 19.05 Q20.3 19.3 20.65 19.65 21.95 21.0 23.2 20.05 23.3 19.45 22.65 19.2 L21.3 18.85 M28.2 20.15 Q26.9 19.25 24.85 19.0 26.9 19.25 28.2 20.15" fill="#efc3c0" fill-rule="evenodd" stroke="none"/>
    <path d="M21.0 19.1 L20.55 19.05 21.0 19.1 M20.95 18.85 L21.3 18.85 22.65 19.2 Q23.3 19.45 23.2 20.05 21.95 21.0 20.65 19.65 20.3 19.3 20.55 19.05 L20.85 18.85 20.95 18.85" fill="#ffffff" fill-rule="evenodd" stroke="none"/>
    <path d="M33.5 1.3 Q32.2 5.3 34.25 7.3 M20.55 19.05 L21.0 19.1 M21.7 18.9 L24.85 19.0 Q26.9 19.25 28.2 20.15 L28.4 20.35 M19.8 18.9 Q16.5 18.1 15.85 15.9 M20.55 19.05 L19.8 18.9" fill="none" stroke="#000000" stroke-linecap="round" stroke-linejoin="round" stroke-opacity="0.6" stroke-width="0.05"/>
    <path d="M13.9 -16.6 Q13.65 -15.6 13.0 -15.0 12.4 -14.35 11.8 -14.5 11.2 -14.7 10.95 -15.55 10.75 -16.35 11.0 -17.35 11.3 -18.35 11.9 -19.0 12.5 -19.6 13.1 -19.4 13.7 -19.25 13.95 -18.45 14.2 -17.6 13.9 -16.6 M57.9 -5.1 Q57.65 -4.25 57.1 -3.75 56.65 -3.25 56.15 -3.4 55.65 -3.5 55.45 -4.2 55.25 -4.9 55.5 -5.75 55.7 -6.6 56.25 -7.1 56.75 -7.6 57.25 -7.5 57.75 -7.35 57.9 -6.65 58.1 -5.95 57.9 -5.1" fill="#ffffff" fill-opacity="0.9019608" fill-rule="evenodd" stroke="none"/>
    <path d="M26.4 -23.2 Q17.5 -34.05 1.55 -44.35 16.2 -40.4 26.4 -23.2 M51.5 -14.9 Q65.4 -26.35 77.45 -19.95 61.9 -21.5 51.5 -14.9" fill="#00182a" fill-rule="evenodd" stroke="none"/>
    <path d="M26.4 -23.2 Q17.5 -34.05 1.55 -44.35 16.2 -40.4 26.4 -23.2 M51.5 -14.9 Q61.9 -21.5 77.45 -19.95 65.4 -26.35 51.5 -14.9" fill="none" stroke="#000000" stroke-linecap="round" stroke-linejoin="round" stroke-opacity="0.6" stroke-width="0.05"/>
    <path d="M70.95 -38.1 Q74.55 -21.05 68.65 -1.5 63.8 11.0 58.05 18.3 53.0 23.8 46.45 28.5 50.7 24.9 54.15 20.75 L57.45 16.55 Q67.3 3.45 67.85 -3.75 73.25 -25.1 67.4 -39.25 L70.95 -38.1" fill="#1a768c" fill-rule="evenodd" stroke="none"/>
    <path d="M70.95 -38.1 L67.4 -39.25 Q73.25 -25.1 67.85 -3.75 67.3 3.45 57.45 16.55 64.65 6.35 67.9 -6.55 73.15 -27.8 60.15 -48.95 L66.2 -46.75 Q69.1 -42.6 70.95 -38.1" fill="#125262" fill-rule="evenodd" stroke="none"/>
    <path d="M58.05 18.3 Q63.8 11.0 68.65 -1.5 74.55 -21.05 70.95 -38.1 76.4 -24.7 72.15 -8.05 68.3 6.9 58.05 18.3 M1.05 56.95 Q4.25 61.65 6.45 67.15 L9.45 74.75 Q6.55 70.1 4.2 64.35 L1.05 56.95 M48.0 40.15 Q45.95 50.6 46.05 61.6 46.1 69.1 47.9 76.25 44.0 66.25 45.15 54.65 45.9 47.0 48.0 40.15 M-31.7 -28.6 L-33.0 -13.7 -33.8 -3.35 Q-34.35 -10.7 -33.4 -18.35 L-31.7 -28.6 M-26.45 -22.8 L-26.0 -5.1 Q-25.8 1.15 -24.8 7.05 -27.15 -1.4 -27.1 -10.85 -27.1 -17.2 -26.45 -22.8 M-13.45 -37.35 Q-17.7 -26.5 -19.1 -14.15 L-19.85 -7.55 Q-20.55 -16.25 -19.0 -24.75 -17.65 -32.05 -13.45 -37.35" fill="#76bcd4" fill-rule="evenodd" stroke="none"/>
    <path d="M58.05 18.3 Q68.3 6.9 72.15 -8.05 76.4 -24.7 70.95 -38.1 69.1 -42.6 66.2 -46.75 L60.15 -48.95 Q73.15 -27.8 67.9 -6.55 64.65 6.35 57.45 16.55 L54.15 20.75 Q50.7 24.9 46.45 28.5 53.0 23.8 58.05 18.3 Z" fill="none" stroke="#000000" stroke-linecap="round" stroke-linejoin="round" stroke-opacity="0.6" stroke-width="0.05"/>
    <path d="M-174.65 12.4 Q-116.4 23.4 -70.9 30.75 -15.5 39.75 28.65 42.25 L38.95 120.95 Q-5.55 118.35 -51.95 112.15 -103.2 105.35 -157.45 92.9 -204.55 78.25 -230.4 62.2 L-236.45 -12.45 Q-217.15 1.55 -174.65 12.4" fill="#3ee4ff" fill-opacity="0.6" fill-rule="evenodd" stroke="none"/>
    <path d="M-174.65 12.4 Q-217.15 1.55 -236.45 -12.45 L-230.4 62.2 Q-204.55 78.25 -157.45 92.9 -103.2 105.35 -51.95 112.15 -5.55 118.35 38.95 120.95 L28.65 42.25 Q-15.5 39.75 -70.9 30.75 -116.4 23.4 -174.65 12.4 Z" fill="none" stroke="#00fff7" stroke-linecap="round" stroke-linejoin="round" stroke-width="2.0"/>
    <path d="M-178.15 -23.1 L-75.1 -4.9 -51.95 131.25 -48.6 148.9 -154.65 123.15 -157.45 105.65 -157.4 105.7 -157.45 105.65 -178.15 -23.1 M-161.9 -6.5 L-143.35 112.5 -68.6 130.45 -88.95 6.05 -161.9 -6.5" fill="#278b9c" fill-opacity="0.6392157" fill-rule="evenodd" stroke="none"/>
    <path d="M-161.9 -6.5 L-88.95 6.05 -68.6 130.45 -143.35 112.5 -161.9 -6.5" fill="#33bad0" fill-opacity="0.5882353" fill-rule="evenodd" stroke="none"/>
    <path d="M-178.15 -23.1 L-75.1 -4.9 -51.95 131.25 -48.6 148.9 -154.65 123.15 -157.45 105.65 -157.4 105.7 -157.45 105.65 -178.15 -23.1 M-161.9 -6.5 L-88.95 6.05 -68.6 130.45 -143.35 112.5 -161.9 -6.5" fill="none" stroke="#00fff7" stroke-linecap="round" stroke-linejoin="round" stroke-width="2.0"/>
    <path d="M-105.9 45.05 Q-104.4 45.85 -102.85 47.4 -99.9 50.45 -99.05 54.2 -98.25 58.0 -100.0 60.4 -101.6 62.65 -104.55 62.6 L-105.1 62.5 Q-108.4 62.15 -111.4 59.1 -114.4 56.15 -115.2 52.35 L-115.3 51.35 Q-115.8 48.25 -114.25 46.1 -112.45 43.65 -109.15 44.0 -107.55 44.2 -105.9 45.05 M-145.75 50.0 Q-146.95 49.65 -148.2 48.3 -149.65 46.9 -150.05 45.05 -150.5 43.1 -149.6 41.95 -148.65 40.8 -147.1 41.0 -145.5 41.2 -143.9 42.6 -142.55 44.0 -142.1 45.95 -141.7 47.8 -142.5 48.95 -143.5 50.3 -145.1 50.1 L-145.75 50.0" fill="#3ee4ff" fill-opacity="0.7882353" fill-rule="evenodd" stroke="none"/>
    <path d="M-105.9 45.05 Q-104.4 45.85 -102.85 47.4 -99.9 50.45 -99.05 54.2 -98.25 58.0 -100.0 60.4 -101.6 62.65 -104.55 62.6 L-100.0 86.05 -82.9 89.8 -79.9 107.3 M-115.3 51.35 Q-115.8 48.25 -114.25 46.1 -112.45 43.65 -109.15 44.0 -107.55 44.2 -105.9 45.05 L-109.15 30.2 -91.45 34.25 -88.35 46.4 M-145.75 50.0 Q-146.95 49.65 -148.2 48.3 -149.65 46.9 -150.05 45.05 -150.5 43.1 -149.6 41.95 -148.65 40.8 -147.1 41.0 -145.5 41.2 -143.9 42.6 -142.55 44.0 -142.1 45.95 -141.7 47.8 -142.5 48.95 -143.5 50.3 -145.1 50.1 L-145.75 50.0 -142.95 62.4 -129.4 67.1 -127.1 79.4 M-115.3 51.35 L-127.4 47.15 -133.45 19.7 -151.2 16.75 M-104.55 62.6 L-105.1 62.5 Q-108.4 62.15 -111.4 59.1 -114.4 56.15 -115.2 52.35 L-115.3 51.35" fill="none" stroke="#00fff7" stroke-linecap="round" stroke-linejoin="round" stroke-width="0.05"/>
    <path d="M231.85 125.85 L235.9 92.0 241.4 92.65 Q260.15 94.6 270.4 97.9 277.75 100.75 269.0 108.5 261.0 113.05 237.3 122.85 234.85 124.25 232.35 125.6 L231.85 125.85 232.35 125.6 Q234.85 124.25 237.3 122.85 261.0 113.05 269.0 108.5 277.75 100.75 270.4 97.9 276.65 99.75 276.95 106.0 276.15 123.45 273.0 140.0 L272.45 142.75 272.3 143.6 Q269.3 156.2 261.55 164.75 250.4 175.85 228.5 187.9 203.15 207.15 126.0 205.55 L130.15 144.05 Q193.5 145.55 231.85 125.85" fill="#3ee4ff" fill-opacity="0.6" fill-rule="evenodd" stroke="none"/>
    <path d="M270.4 97.9 Q260.15 94.6 241.4 92.65 L235.9 92.0 231.85 125.85 232.35 125.6 Q234.85 124.25 237.3 122.85 261.0 113.05 269.0 108.5 277.75 100.75 270.4 97.9 276.65 99.75 276.95 106.0 276.15 123.45 273.0 140.0 L272.45 142.75 272.3 143.6 Q269.3 156.2 261.55 164.75 250.4 175.85 228.5 187.9 203.15 207.15 126.0 205.55 L130.15 144.05 Q193.5 145.55 231.85 125.85" fill="none" stroke="#00fff7" stroke-linecap="round" stroke-linejoin="round" stroke-width="2.0"/>
    <path d="M241.55 91.3 L273.35 75.4 255.95 207.2 223.35 226.1 241.55 91.3 M247.75 99.35 L234.0 208.75 251.95 197.4 264.5 90.35 247.75 99.35" fill="#278b9c" fill-opacity="0.6392157" fill-rule="evenodd" stroke="none"/>
    <path d="M247.75 99.35 L264.5 90.35 251.95 197.4 234.0 208.75 247.75 99.35" fill="#33bad0" fill-opacity="0.5882353" fill-rule="evenodd" stroke="none"/>
    <path d="M241.55 91.3 L273.35 75.4 255.95 207.2 223.35 226.1 241.55 91.3 M247.75 99.35 L264.5 90.35 251.95 197.4 234.0 208.75 247.75 99.35" fill="none" stroke="#00fff7" stroke-linecap="round" stroke-linejoin="round" stroke-width="2.0"/>
    <path d="M245.45 153.9 Q244.85 153.5 244.5 151.45 244.2 149.15 244.55 145.95 244.9 142.75 245.8 140.45 246.5 138.6 247.2 138.35 L247.5 138.25 Q248.4 138.3 248.65 140.6 248.95 142.55 248.8 145.05 L248.7 146.25 Q248.35 149.45 247.4 151.65 246.55 153.9 245.7 153.85 L245.45 153.9 M254.25 141.0 Q254.55 141.2 254.6 141.85 254.8 143.3 254.6 144.9 254.4 146.65 253.9 147.8 253.45 149.1 253.0 149.1 252.55 149.1 252.35 147.7 252.2 146.45 252.4 144.65 252.6 143.05 253.05 141.75 253.5 140.65 253.95 140.65 254.2 140.6 254.25 141.0" fill="#3ee4ff" fill-opacity="0.7882353" fill-rule="evenodd" stroke="none"/>
    <path d="M245.45 153.9 L244.05 168.05 240.35 174.85 239.1 185.2 M247.2 138.35 L249.2 123.3 255.25 114.75 256.05 108.4 M254.25 141.0 L254.9 133.2 258.35 128.15 258.85 121.45 M245.45 153.9 Q244.85 153.5 244.5 151.45 244.2 149.15 244.55 145.95 244.9 142.75 245.8 140.45 246.5 138.6 247.2 138.35 L247.5 138.25 Q248.4 138.3 248.65 140.6 248.95 142.55 248.8 145.05 L251.05 143.1 249.95 157.8 253.45 155.95 M248.8 145.05 L248.7 146.25 Q248.35 149.45 247.4 151.65 246.55 153.9 245.7 153.85 L245.45 153.9 M254.25 141.0 Q254.55 141.2 254.6 141.85 254.8 143.3 254.6 144.9 254.4 146.65 253.9 147.8 253.45 149.1 253.0 149.1 252.55 149.1 252.35 147.7 252.2 146.45 252.4 144.65 252.6 143.05 253.05 141.75 253.5 140.65 253.95 140.65 254.2 140.6 254.25 141.0" fill="none" stroke="#00fff7" stroke-linecap="round" stroke-linejoin="round" stroke-width="0.05"/>
  </g>
  <defs>
    <linearGradient gradientTransform="matrix(-0.004, 0.0074, -0.0605, -0.0326, 78.3, -55.2)" gradientUnits="userSpaceOnUse" id="gradient0" spreadMethod="pad" x1="-819.2" x2="819.2">
      <stop offset="0.00392156862745098" stop-color="#24ecff"/>
      <stop offset="1.0" stop-color="#1aabb8"/>
    </linearGradient>
    <linearGradient gradientTransform="matrix(6.0E-4, 0.006, -0.0375, 0.0038, 11.15, -65.75)" gradientUnits="userSpaceOnUse" id="gradient1" spreadMethod="pad" x1="-819.2" x2="819.2">
      <stop offset="0.00392156862745098" stop-color="#24ecff"/>
      <stop offset="1.0" stop-color="#1aabb8"/>
    </linearGradient>
    <linearGradient gradientTransform="matrix(-0.0193, 0.0134, -0.0055, -0.0079, -36.35, -49.0)" gradientUnits="userSpaceOnUse" id="gradient2" spreadMethod="pad" x1="-819.2" x2="819.2">
      <stop offset="0.00392156862745098" stop-color="#189daa"/>
      <stop offset="1.0" stop-color="#127883"/>
    </linearGradient>
    <linearGradient gradientTransform="matrix(0.0089, 0.0131, -0.0181, 0.0122, 31.85, -64.05)" gradientUnits="userSpaceOnUse" id="gradient3" spreadMethod="pad" x1="-819.2" x2="819.2">
      <stop offset="0.00392156862745098" stop-color="#189daa"/>
      <stop offset="1.0" stop-color="#127883"/>
    </linearGradient>
    <linearGradient gradientTransform="matrix(0.0042, 0.0133, -0.0112, 0.0036, 99.75, -37.2)" gradientUnits="userSpaceOnUse" id="gradient4" spreadMethod="pad" x1="-819.2" x2="819.2">
      <stop offset="0.00392156862745098" stop-color="#189daa"/>
      <stop offset="1.0" stop-color="#127883"/>
    </linearGradient>
    <linearGradient gradientTransform="matrix(0.0, -0.0613, 0.1104, 0.0, 28.5, 16.65)" gradientUnits="userSpaceOnUse" id="gradient5" spreadMethod="pad" x1="-819.2" x2="819.2">
      <stop offset="0.050980392156862744" stop-color="#1cb8c6"/>
      <stop offset="0.9333333333333333" stop-color="#14848e"/>
    </linearGradient>
    <linearGradient gradientTransform="matrix(0.0, -0.0458, 0.1096, 0.0, 29.15, 18.8)" gradientUnits="userSpaceOnUse" id="gradient6" spreadMethod="pad" x1="-819.2" x2="819.2">
      <stop offset="0.0" stop-color="#24ecff"/>
      <stop offset="0.984313725490196" stop-color="#1cb8c6"/>
    </linearGradient>
    <linearGradient gradientTransform="matrix(-0.0114, -0.0065, 0.0051, -0.0089, 5.35, -18.35)" gradientUnits="userSpaceOnUse" id="gradient7" spreadMethod="pad" x1="-819.2" x2="819.2">
      <stop offset="0.6705882352941176" stop-color="#000000"/>
      <stop offset="0.984313725490196" stop-color="#004056"/>
    </linearGradient>
    <linearGradient gradientTransform="matrix(0.0061, -0.0017, 0.0026, 0.0093, 62.4, -5.3)" gradientUnits="userSpaceOnUse" id="gradient8" spreadMethod="pad" x1="-819.2" x2="819.2">
      <stop offset="0.6705882352941176" stop-color="#000000"/>
      <stop offset="0.984313725490196" stop-color="#004056"/>
    </linearGradient>
  </defs>
</svg>
