<?xml version="1.0" encoding="UTF-8" standalone="no"?>
<svg xmlns:xlink="http://www.w3.org/1999/xlink" height="57.9px" width="561.9px" xmlns="http://www.w3.org/2000/svg">
  <g transform="matrix(1.0, 0.0, 0.0, 1.0, 128.0, 30.35)">
    <path d="M433.9 -1.4 Q433.9 10.6 351.6 19.1 269.35 27.55 152.95 27.55 36.6 27.55 -45.7 19.1 -128.0 10.6 -128.0 -1.4 -128.0 -13.35 -45.7 -21.85 36.6 -30.35 152.95 -30.35 269.35 -30.35 351.6 -21.85 433.9 -13.35 433.9 -1.4" fill="url(#gradient0)" fill-rule="evenodd" stroke="none"/>
    <path d="M0.95 -4.25 L1.0 -5.65 -3.55 12.0 Q-3.8 12.8 -4.45 13.35 -5.15 13.85 -6.0 13.85 L-10.05 13.85 Q-10.9 13.85 -11.55 13.35 L-12.45 12.05 -14.95 3.5 -17.25 12.0 Q-17.5 12.8 -18.15 13.35 -18.85 13.85 -19.7 13.85 L-24.0 13.85 Q-24.85 13.85 -25.5 13.35 -26.2 12.8 -26.4 12.0 L-32.6 -11.95 -32.55 -13.45 Q-32.25 -14.2 -31.6 -14.65 -31.0 -15.1 -30.2 -15.1 L-25.55 -15.1 Q-24.7 -15.1 -24.0 -14.55 -23.35 -14.05 -23.1 -13.2 L-21.4 -6.25 -19.6 -13.2 Q-19.4 -14.05 -18.7 -14.55 -18.05 -15.1 -17.2 -15.1 L-13.15 -15.1 Q-12.3 -15.1 -11.65 -14.6 -11.0 -14.1 -10.75 -13.3 L-8.6 -5.95 -6.85 -13.15 Q-6.7 -14.0 -6.0 -14.55 -5.3 -15.1 -4.45 -15.1 L0.2 -15.1 Q1.0 -15.1 1.65 -14.65 L2.55 -13.45 Q2.8 -12.75 2.65 -11.95 L2.15 -10.1 Q3.2 -12.2 5.2 -13.4 8.25 -15.45 14.05 -15.5 22.55 -15.5 25.2 -10.5 26.8 -7.9 26.8 -4.0 L26.8 2.95 Q26.8 9.3 22.65 12.1 19.7 14.25 14.0 14.25 5.25 14.25 2.6 9.6 0.95 7.15 0.95 3.25 L0.95 -4.25 M16.95 -4.9 L16.7 -6.15 16.65 -6.2 Q15.8 -6.7 14.05 -6.7 12.15 -6.7 11.15 -6.15 10.8 -5.75 10.8 -4.9 L10.8 3.75 Q10.8 4.55 11.1 4.95 L14.05 5.5 16.75 5.05 16.95 3.75 16.95 -4.9 M40.9 -6.65 L37.3 -6.65 37.3 -4.05 40.7 -4.05 41.0 -3.9 41.2 -5.45 Q41.2 -6.45 40.9 -6.65 M30.0 -15.1 L40.3 -15.1 Q46.4 -15.1 48.55 -12.35 50.8 -9.85 50.8 -5.6 50.8 -1.5 49.55 0.4 L49.5 0.5 48.0 2.2 51.55 10.05 51.55 -12.6 Q51.55 -13.65 52.3 -14.35 53.0 -15.1 54.05 -15.1 L58.85 -15.1 Q59.9 -15.1 60.65 -14.35 61.35 -13.65 61.35 -12.6 L61.35 5.1 68.85 5.1 Q69.75 5.1 70.4 5.65 L70.4 -12.6 Q70.4 -13.65 71.15 -14.35 71.85 -15.1 72.9 -15.1 L83.25 -15.1 Q90.6 -15.1 93.1 -10.45 L93.15 -10.35 93.5 -9.7 92.95 -11.95 Q92.75 -12.75 93.0 -13.45 93.3 -14.2 93.95 -14.65 L95.35 -15.1 100.0 -15.1 Q100.85 -15.1 101.55 -14.55 102.2 -14.05 102.45 -13.2 L104.15 -6.25 105.95 -13.2 Q106.15 -14.05 106.85 -14.55 107.5 -15.1 108.35 -15.1 L112.4 -15.1 Q113.25 -15.1 113.9 -14.6 114.55 -14.1 114.8 -13.3 L116.95 -5.95 118.7 -13.15 Q118.85 -14.0 119.55 -14.55 120.25 -15.1 121.1 -15.1 L125.75 -15.1 127.2 -14.65 127.4 -14.5 Q128.05 -15.1 129.0 -15.1 L142.5 -15.1 Q143.55 -15.1 144.3 -14.35 145.0 -13.65 145.0 -12.6 L145.0 -9.0 Q145.0 -7.95 144.3 -7.2 143.55 -6.5 142.5 -6.5 L140.65 -6.5 140.65 5.25 142.5 5.25 Q143.55 5.25 144.3 6.0 145.0 6.7 145.0 7.75 L145.0 11.35 Q145.0 12.4 144.3 13.15 143.55 13.85 142.5 13.85 L129.0 13.85 Q127.95 13.85 127.25 13.15 126.5 12.4 126.5 11.35 L126.5 7.75 Q126.5 6.7 127.25 6.0 127.95 5.25 129.0 5.25 L130.85 5.25 130.85 -6.5 129.0 -6.5 Q127.95 -6.5 127.25 -7.2 L127.0 -7.45 122.0 12.0 Q121.75 12.8 121.1 13.35 120.4 13.85 119.55 13.85 L115.5 13.85 Q114.65 13.85 114.0 13.35 113.35 12.85 113.1 12.05 L110.6 3.5 108.3 12.0 Q108.05 12.8 107.4 13.35 106.7 13.85 105.85 13.85 L101.55 13.85 Q100.7 13.85 100.05 13.35 99.35 12.8 99.15 12.0 L94.55 -5.7 94.6 -4.25 94.6 3.1 Q94.6 11.2 88.25 13.15 L83.25 13.85 72.9 13.85 Q71.85 13.85 71.15 13.15 L70.9 12.85 70.65 13.15 Q69.9 13.85 68.85 13.85 L54.05 13.85 Q53.0 13.85 52.3 13.15 L51.75 12.3 50.95 13.35 Q50.25 13.85 49.4 13.85 L44.4 13.85 Q43.65 13.85 43.05 13.45 42.4 13.05 42.15 12.4 L38.6 4.4 37.3 4.4 37.3 11.35 Q37.3 12.4 36.6 13.15 35.85 13.85 34.8 13.85 L30.0 13.85 Q28.95 13.85 28.25 13.15 27.5 12.4 27.5 11.35 L27.5 -12.6 Q27.5 -13.65 28.25 -14.35 28.95 -15.1 30.0 -15.1 M84.5 -6.05 L82.85 -6.35 80.2 -6.35 80.2 5.1 82.85 5.1 84.6 4.9 84.75 3.75 84.75 -4.85 84.55 -6.0 84.5 -6.05 M148.15 -15.1 L158.5 -15.1 Q165.85 -15.1 168.35 -10.45 169.85 -8.05 169.85 -4.25 L169.85 3.1 Q169.85 11.2 163.5 13.15 L158.5 13.85 148.15 13.85 Q147.1 13.85 146.4 13.15 145.65 12.4 145.65 11.35 L145.65 -12.6 Q145.65 -13.65 146.4 -14.35 147.1 -15.1 148.15 -15.1 M158.1 -6.35 L155.45 -6.35 155.45 5.1 158.1 5.1 159.85 4.9 160.0 3.75 160.0 -4.85 159.8 -6.0 159.75 -6.05 158.1 -6.35 M187.5 3.4 L180.35 3.4 180.35 5.2 188.9 5.2 Q189.95 5.2 190.7 5.95 191.4 6.65 191.4 7.7 L191.4 11.35 Q191.4 12.4 190.7 13.15 189.95 13.85 188.9 13.85 L173.05 13.85 Q172.0 13.85 171.3 13.15 170.55 12.4 170.55 11.35 L170.55 -12.6 Q170.55 -13.65 171.3 -14.35 172.0 -15.1 173.05 -15.1 L188.7 -15.1 Q189.75 -15.1 190.5 -14.35 191.2 -13.65 191.2 -12.6 L191.2 -8.95 Q191.2 -7.9 190.5 -7.15 189.75 -6.45 188.7 -6.45 L180.35 -6.45 180.35 -5.1 187.5 -5.1 Q188.55 -5.1 189.3 -4.35 190.0 -3.65 190.0 -2.6 L190.0 0.9 Q190.0 1.95 189.3 2.7 188.55 3.4 187.5 3.4 M223.1 -5.6 Q223.1 -1.5 221.85 0.4 L221.8 0.5 220.3 2.2 223.85 10.05 223.85 -12.6 Q223.85 -13.65 224.6 -14.35 225.3 -15.1 226.35 -15.1 L242.0 -15.1 Q243.05 -15.1 243.8 -14.35 244.5 -13.65 244.5 -12.6 L244.5 -8.95 Q244.5 -7.9 243.8 -7.15 243.05 -6.45 242.0 -6.45 L233.65 -6.45 233.65 -5.1 240.8 -5.1 Q241.85 -5.1 242.6 -4.35 243.3 -3.65 243.3 -2.6 L243.3 0.9 Q243.3 1.95 242.6 2.7 241.85 3.4 240.8 3.4 L233.65 3.4 233.65 5.2 242.2 5.2 Q243.25 5.2 244.0 5.95 244.7 6.65 244.7 7.6 L244.7 -12.6 Q244.7 -13.65 245.45 -14.35 246.15 -15.1 247.2 -15.1 L252.0 -15.1 Q253.05 -15.1 253.8 -14.35 254.5 -13.65 254.5 -12.6 L254.5 5.1 262.0 5.1 Q262.9 5.1 263.6 5.7 L263.6 -12.6 Q263.6 -13.65 264.35 -14.35 265.05 -15.1 266.1 -15.1 L281.75 -15.1 Q282.8 -15.1 283.55 -14.35 284.25 -13.65 284.25 -12.6 L284.25 -8.95 Q284.25 -7.9 283.55 -7.15 282.8 -6.45 281.75 -6.45 L273.4 -6.45 273.4 -5.1 280.55 -5.1 Q281.6 -5.1 282.35 -4.35 283.05 -3.65 283.05 -2.6 L283.05 0.9 Q283.05 1.95 282.35 2.7 281.6 3.4 280.55 3.4 L273.4 3.4 273.4 5.2 281.95 5.2 Q283.0 5.2 283.75 5.95 L284.1 6.35 290.55 -13.35 Q290.8 -14.15 291.45 -14.6 292.1 -15.1 292.9 -15.1 L299.3 -15.1 Q300.1 -15.1 300.75 -14.6 L301.7 -13.4 308.65 7.5 309.8 5.05 Q310.1 4.4 310.65 4.05 311.25 3.65 311.95 3.6 L313.25 3.9 Q316.25 5.5 319.5 5.5 L320.45 5.45 320.5 4.8 320.45 4.15 319.0 3.9 314.9 2.7 Q312.45 1.95 310.95 0.65 L310.95 0.6 Q309.25 -0.95 308.7 -2.7 L308.7 -2.75 Q308.15 -4.3 308.15 -6.4 308.15 -11.1 311.6 -13.4 314.5 -15.5 318.95 -15.5 324.5 -15.5 328.25 -13.25 329.05 -12.8 329.4 -11.9 329.65 -11.0 329.3 -10.1 L327.9 -6.75 327.1 -5.75 Q326.55 -5.35 325.85 -5.25 L324.55 -5.45 Q321.95 -6.7 319.4 -6.7 L317.9 -6.7 317.9 -6.6 317.85 -6.4 317.9 -6.3 319.2 -5.85 319.25 -5.85 323.3 -4.6 Q326.6 -3.6 328.2 -1.35 329.6 0.4 329.85 3.4 L329.85 -12.6 Q329.85 -13.65 330.6 -14.35 331.3 -15.1 332.35 -15.1 L348.0 -15.1 Q349.05 -15.1 349.8 -14.35 350.5 -13.65 350.5 -12.6 L350.5 -8.95 Q350.5 -7.9 349.8 -7.15 349.05 -6.45 348.0 -6.45 L339.65 -6.45 339.65 -5.1 346.8 -5.1 Q347.85 -5.1 348.6 -4.35 349.3 -3.65 349.3 -2.6 L349.3 0.9 Q349.3 1.95 348.6 2.7 347.85 3.4 346.8 3.4 L339.65 3.4 339.65 5.2 348.2 5.2 Q349.25 5.2 350.0 5.95 350.7 6.65 350.7 7.7 L350.7 11.35 Q350.7 12.4 350.0 13.15 349.25 13.85 348.2 13.85 L332.35 13.85 Q331.3 13.85 330.6 13.15 329.85 12.4 329.85 11.35 L329.85 5.75 Q329.55 9.0 327.35 11.4 324.9 14.25 319.4 14.25 L314.15 13.65 Q311.6 13.0 309.7 12.05 L309.7 12.1 Q309.45 12.9 308.8 13.4 L307.3 13.85 302.15 13.85 Q301.3 13.85 300.65 13.35 300.0 12.85 299.75 12.05 L299.0 9.3 293.3 9.3 292.45 12.1 291.55 13.35 290.05 13.85 285.05 13.85 283.6 13.4 283.5 13.35 Q282.85 13.85 281.95 13.85 L266.1 13.85 Q265.05 13.85 264.35 13.15 L264.05 12.8 263.8 13.15 Q263.05 13.85 262.0 13.85 L247.2 13.85 Q246.15 13.85 245.45 13.15 244.7 12.4 244.7 11.45 244.7 12.4 244.0 13.15 243.25 13.85 242.2 13.85 L226.35 13.85 Q225.3 13.85 224.6 13.15 L224.05 12.3 223.25 13.35 Q222.55 13.85 221.7 13.85 L216.7 13.85 Q215.95 13.85 215.35 13.45 L214.45 12.4 210.9 4.4 209.6 4.4 209.6 11.35 Q209.6 12.4 208.9 13.15 208.15 13.85 207.1 13.85 L202.3 13.85 Q201.25 13.85 200.55 13.15 199.8 12.4 199.8 11.35 L199.8 -12.6 Q199.8 -13.65 200.55 -14.35 201.25 -15.1 202.3 -15.1 L212.6 -15.1 Q218.7 -15.1 220.85 -12.35 223.1 -9.85 223.1 -5.6 M213.2 -6.65 L209.6 -6.65 209.6 -4.05 213.0 -4.05 213.3 -3.9 213.5 -5.45 Q213.5 -6.45 213.2 -6.65 M295.8 1.1 L296.6 1.1 296.2 -0.2 295.8 1.1" fill="#000000" fill-rule="evenodd" stroke="none"/>
    <path d="M14.0 10.6 Q6.95 10.6 4.7 7.1 3.45 5.15 3.45 2.1 L3.45 -5.4 Q3.45 -10.45 6.55 -12.45 9.15 -14.1 14.05 -14.15 20.85 -14.15 23.05 -10.4 24.3 -8.3 24.3 -5.15 L24.3 1.8 Q24.3 6.7 21.2 8.9 18.75 10.6 14.0 10.6 M8.3 2.6 Q8.3 4.95 9.7 5.9 11.15 6.85 14.05 6.85 16.9 6.85 18.2 5.9 19.45 5.0 19.45 2.6 L19.45 -6.05 Q19.45 -8.4 18.15 -9.35 16.85 -10.35 14.05 -10.35 11.2 -10.35 9.75 -9.4 8.3 -8.4 8.3 -6.05 L8.3 2.6 M34.8 -2.7 L40.7 -2.7 Q42.4 -2.7 43.05 -3.65 43.7 -4.6 43.7 -6.6 43.7 -10.3 40.9 -10.3 L34.8 -10.3 34.8 -2.7 M30.0 10.2 L30.0 -13.75 40.3 -13.75 Q44.95 -13.75 46.65 -11.85 48.3 -9.95 48.3 -6.75 48.3 -3.55 47.4 -2.05 46.45 -0.6 44.8 0.05 L49.4 10.2 44.4 10.2 40.2 0.75 34.8 0.75 34.8 10.2 30.0 10.2 M54.05 10.2 L54.05 -13.75 58.85 -13.75 58.85 6.45 68.85 6.45 68.85 10.2 54.05 10.2 M72.9 10.2 L72.9 -13.75 83.25 -13.75 Q89.0 -13.75 90.95 -10.3 92.1 -8.4 92.1 -5.4 L92.1 1.95 Q92.1 8.05 87.45 9.6 L83.25 10.2 72.9 10.2 M77.7 6.45 L82.85 6.45 Q85.3 6.45 86.3 5.55 87.25 4.65 87.25 2.6 L87.25 -6.0 Q87.25 -8.05 86.25 -9.0 85.25 -10.0 82.85 -10.0 L77.7 -10.0 77.7 6.45 M101.55 10.2 L95.35 -13.75 100.0 -13.75 104.15 2.8 108.35 -13.75 112.4 -13.75 117.2 2.65 121.1 -13.75 125.75 -13.75 119.55 10.2 115.5 10.2 110.45 -6.85 105.85 10.2 101.55 10.2 M129.0 10.2 L129.0 6.6 133.35 6.6 133.35 -10.15 129.0 -10.15 129.0 -13.75 142.5 -13.75 142.5 -10.15 138.15 -10.15 138.15 6.6 142.5 6.6 142.5 10.2 129.0 10.2 M148.15 10.2 L148.15 -13.75 158.5 -13.75 Q164.25 -13.75 166.2 -10.3 167.35 -8.4 167.35 -5.4 L167.35 1.95 Q167.35 8.05 162.7 9.6 L158.5 10.2 148.15 10.2 M152.95 6.45 L158.1 6.45 Q160.55 6.45 161.55 5.55 162.5 4.65 162.5 2.6 L162.5 -6.0 Q162.5 -8.05 161.5 -9.0 160.5 -10.0 158.1 -10.0 L152.95 -10.0 152.95 6.45 M173.05 10.2 L173.05 -13.75 188.7 -13.75 188.7 -10.1 177.85 -10.1 177.85 -3.75 187.5 -3.75 187.5 -0.25 177.85 -0.25 177.85 6.55 188.9 6.55 188.9 10.2 173.05 10.2 M207.1 -2.7 L213.0 -2.7 Q214.7 -2.7 215.35 -3.65 216.0 -4.6 216.0 -6.6 216.0 -10.3 213.2 -10.3 L207.1 -10.3 207.1 -2.7 M202.3 10.2 L202.3 -13.75 212.6 -13.75 Q217.25 -13.75 218.95 -11.85 220.6 -9.95 220.6 -6.75 220.6 -3.55 219.7 -2.05 218.75 -0.6 217.1 0.05 L221.7 10.2 216.7 10.2 212.5 0.75 207.1 0.75 207.1 10.2 202.3 10.2 M226.35 10.2 L226.35 -13.75 242.0 -13.75 242.0 -10.1 231.15 -10.1 231.15 -3.75 240.8 -3.75 240.8 -0.25 231.15 -0.25 231.15 6.55 242.2 6.55 242.2 10.2 226.35 10.2 M266.1 10.2 L266.1 -13.75 281.75 -13.75 281.75 -10.1 270.9 -10.1 270.9 -3.75 280.55 -3.75 280.55 -0.25 270.9 -0.25 270.9 6.55 281.95 6.55 281.95 10.2 266.1 10.2 M247.2 10.2 L247.2 -13.75 252.0 -13.75 252.0 6.45 262.0 6.45 262.0 10.2 247.2 10.2 M285.05 10.2 L292.9 -13.75 299.3 -13.75 307.3 10.2 302.15 10.2 300.85 5.65 291.45 5.65 290.05 10.2 285.05 10.2 M319.4 10.6 L314.7 10.05 Q312.2 9.45 310.4 8.45 L312.05 4.95 Q315.65 6.85 319.5 6.85 321.4 6.85 322.2 6.05 323.0 5.25 323.0 3.65 L322.95 2.75 Q322.8 1.3 319.7 0.35 L315.6 -0.85 Q313.75 -1.4 312.6 -2.4 311.45 -3.45 311.05 -4.65 310.65 -5.9 310.65 -7.55 310.65 -10.85 313.0 -12.5 315.35 -14.15 318.95 -14.15 323.75 -14.15 327.0 -12.25 L325.6 -8.9 Q322.5 -10.35 319.4 -10.35 315.5 -10.35 315.4 -7.95 L315.4 -7.75 Q315.4 -6.5 316.0 -5.85 316.6 -5.15 318.5 -4.6 L322.55 -3.35 Q325.0 -2.6 326.2 -1.0 327.4 0.6 327.4 3.55 327.4 6.5 325.5 8.55 323.6 10.6 319.4 10.6 M332.35 10.2 L332.35 -13.75 348.0 -13.75 348.0 -10.1 337.15 -10.1 337.15 -3.75 346.8 -3.75 346.8 -0.25 337.15 -0.25 337.15 6.55 348.2 6.55 348.2 10.2 332.35 10.2 M292.4 2.45 L299.9 2.45 296.2 -10.15 292.4 2.45 M-24.0 10.2 L-30.2 -13.75 -25.55 -13.75 -21.4 2.8 -17.2 -13.75 -13.15 -13.75 -8.35 2.65 -4.45 -13.75 0.2 -13.75 -6.0 10.2 -10.05 10.2 -15.1 -6.85 -19.7 10.2 -24.0 10.2" fill="url(#gradient1)" fill-rule="evenodd" stroke="none"/>
  </g>
  <defs>
    <radialGradient cx="0" cy="0" gradientTransform="matrix(0.3459, 0.0, 0.0, 0.0357, 152.95, -1.4)" gradientUnits="userSpaceOnUse" id="gradient0" r="819.2" spreadMethod="pad">
      <stop offset="0.6039215686274509" stop-color="#000000" stop-opacity="0.70980394"/>
      <stop offset="1.0" stop-color="#000000" stop-opacity="0.0"/>
    </radialGradient>
    <linearGradient gradientTransform="matrix(0.0, 0.013, -0.2309, 0.0, 159.0, -0.9)" gradientUnits="userSpaceOnUse" id="gradient1" spreadMethod="pad" x1="-819.2" x2="819.2">
      <stop offset="0.0" stop-color="#fcffd2"/>
      <stop offset="0.5529411764705883" stop-color="#dbf1f9"/>
      <stop offset="1.0" stop-color="#ffd4f7"/>
    </linearGradient>
  </defs>
</svg>
