<?xml version="1.0" encoding="UTF-8" standalone="no"?>
<svg xmlns:xlink="http://www.w3.org/1999/xlink" height="86.05px" width="253.0px" xmlns="http://www.w3.org/2000/svg">
  <g transform="matrix(1.0, 0.0, 0.0, 1.0, 120.6, 45.85)">
    <path d="M132.15 -34.6 L132.15 28.95 -120.55 28.95 -120.55 -34.6 132.15 -34.6" fill="url(#gradient0)" fill-rule="evenodd" stroke="none"/>
    <path d="M-120.55 -34.6 L-120.55 -45.8 132.35 -45.8 132.35 -34.6 -120.55 -34.6" fill="url(#gradient1)" fill-rule="evenodd" stroke="none"/>
    <path d="M132.35 28.95 L132.35 40.15 -120.55 40.15 -120.55 28.95 132.35 28.95" fill="url(#gradient2)" fill-rule="evenodd" stroke="none"/>
    <path d="M-120.55 -34.6 L-120.55 -45.8 132.35 -45.8 132.35 -34.6 132.35 28.95 -120.55 28.95 -120.55 -34.6 132.35 -34.6 M132.35 40.15 L-120.55 40.15 -120.55 28.95" fill="none" stroke="#000000" stroke-linecap="round" stroke-linejoin="round" stroke-width="0.05"/>
  </g>
  <defs>
    <linearGradient gradientTransform="matrix(0.0, -0.0385, 0.1542, 0.0, 5.75, -1.8)" gradientUnits="userSpaceOnUse" id="gradient0" spreadMethod="pad" x1="-819.2" x2="819.2">
      <stop offset="0.023529411764705882" stop-color="#000000" stop-opacity="0.47843137"/>
      <stop offset="0.5098039215686274" stop-color="#ffffff" stop-opacity="0.36078432"/>
      <stop offset="1.0" stop-color="#ffffff" stop-opacity="0.50980395"/>
    </linearGradient>
    <linearGradient gradientTransform="matrix(0.0, -0.0069, 0.1544, 0.0, 5.9, -40.2)" gradientUnits="userSpaceOnUse" id="gradient1" spreadMethod="pad" x1="-819.2" x2="819.2">
      <stop offset="0.1411764705882353" stop-color="#ae2aff"/>
      <stop offset="0.5490196078431373" stop-color="#8709ff"/>
      <stop offset="0.984313725490196" stop-color="#e4c2ff"/>
    </linearGradient>
    <linearGradient gradientTransform="matrix(0.0, 0.0057, -0.1544, 0.0, 5.9, 35.05)" gradientUnits="userSpaceOnUse" id="gradient2" spreadMethod="pad" x1="-819.2" x2="819.2">
      <stop offset="0.0" stop-color="#9407ff"/>
      <stop offset="0.5098039215686274" stop-color="#890aff"/>
      <stop offset="0.9686274509803922" stop-color="#100046"/>
    </linearGradient>
  </defs>
</svg>
