<?xml version="1.0" encoding="UTF-8" standalone="no"?>
<svg xmlns:xlink="http://www.w3.org/1999/xlink" height="51.4px" width="290.4px" xmlns="http://www.w3.org/2000/svg">
  <g transform="matrix(1.0, 0.0, 0.0, 1.0, 85.85, -161.7)">
    <path d="M177.2 180.35 Q178.85 180.9 179.95 181.85 L180.15 182.0 Q181.3 183.0 181.75 184.05 182.35 185.4 182.35 186.5 182.35 187.8 181.65 188.8 L181.5 189.0 Q180.75 189.8 179.8 190.0 L180.45 190.45 Q181.8 191.35 182.6 192.8 L182.65 193.0 Q183.25 194.3 183.25 196.25 183.25 198.65 182.15 200.45 L182.1 200.55 182.1 200.65 Q180.85 202.55 178.55 203.5 176.25 204.5 173.4 204.5 169.8 204.5 167.5 203.2 165.7 202.05 164.65 200.3 L164.65 200.35 Q163.55 198.5 163.55 196.8 163.55 195.4 164.4 194.4 L164.5 194.3 Q165.55 193.2 167.05 193.2 L167.3 193.2 Q165.85 192.45 165.15 191.3 163.9 189.65 163.9 187.25 163.9 185.0 165.15 183.35 166.3 181.5 168.55 180.65 L168.7 180.6 Q170.7 179.75 173.35 179.75 175.6 179.75 177.2 180.35 M148.85 180.95 L148.9 181.1 Q149.85 181.9 149.85 184.0 L149.85 194.2 Q149.85 195.6 150.25 196.5 L150.25 196.55 Q150.4 197.2 150.9 197.45 L152.7 197.8 Q154.15 197.8 154.8 197.2 155.6 196.2 155.6 194.25 L155.6 184.0 Q155.6 181.9 156.6 181.1 L156.65 180.95 Q157.65 179.75 159.3 179.75 160.9 179.75 161.95 180.85 L162.05 180.95 Q163.1 181.85 163.1 184.0 L163.1 193.95 Q163.1 196.65 162.55 198.45 162.0 200.45 160.3 202.1 L160.3 202.05 160.2 202.15 157.1 204.0 157.0 204.0 153.1 204.5 148.45 203.95 Q146.25 203.25 144.95 202.05 L144.8 201.8 144.8 201.7 Q143.55 200.35 142.95 198.45 142.35 196.55 142.35 193.95 L142.35 184.0 Q142.35 181.85 143.35 180.95 144.3 179.75 146.1 179.75 147.75 179.75 148.85 180.95 M174.35 188.15 L175.95 188.5 175.5 187.85 175.4 187.55 174.55 186.35 173.05 186.15 Q172.15 186.15 171.5 186.6 L171.3 186.65 171.15 186.85 171.2 187.0 171.45 187.2 171.65 187.3 172.35 187.6 174.35 188.15 M172.15 195.0 L169.5 194.2 170.55 195.9 170.6 195.95 171.2 197.25 171.3 197.4 171.9 197.85 173.35 198.05 175.2 197.7 175.35 197.5 175.85 196.7 175.7 196.25 175.65 196.2 174.7 195.7 172.15 195.0 M197.3 180.65 Q199.15 181.1 200.7 182.4 L200.85 182.55 Q204.55 185.75 204.55 192.1 204.55 194.1 204.15 195.85 203.8 197.45 203.05 198.85 L203.0 199.05 200.95 201.7 200.7 201.85 198.8 203.15 198.65 203.3 196.1 203.95 193.25 204.15 187.8 204.15 Q186.1 204.15 185.25 203.6 184.2 202.9 183.8 201.75 L183.75 201.6 Q183.5 200.7 183.5 199.55 L183.5 184.35 Q183.5 182.2 184.55 181.3 L184.6 181.25 Q185.6 180.15 187.75 180.15 L193.15 180.15 197.3 180.65 M194.85 187.25 L192.15 186.85 191.1 186.85 191.1 197.4 192.6 197.4 193.95 197.35 194.0 197.35 194.8 197.25 194.85 197.25 195.5 196.85 Q196.9 195.35 196.9 192.1 196.9 189.65 196.3 188.4 195.65 187.4 194.9 187.25 L194.85 187.25 M11.4 177.1 Q11.4 172.35 14.5 169.45 16.9 166.9 21.1 166.2 L21.1 165.35 Q21.1 161.4 24.35 161.7 27.7 161.5 27.7 165.35 L27.7 166.2 30.75 167.2 Q32.8 168.0 34.4 169.85 35.65 171.3 36.3 172.75 37.0 174.35 37.0 175.8 37.0 177.6 35.7 179.0 L35.65 179.05 Q34.2 180.35 32.3 180.35 28.75 180.35 27.7 176.85 L27.7 180.35 31.0 181.45 30.95 181.45 Q32.85 182.2 34.55 183.65 36.25 185.15 37.2 187.3 38.1 189.35 38.1 191.75 38.1 194.8 36.7 197.45 L36.7 197.5 Q35.2 200.2 32.4 201.9 L32.35 201.9 Q30.25 203.2 27.7 203.65 L27.7 207.65 Q27.7 209.55 27.25 210.3 L27.25 210.55 Q26.6 212.1 24.4 212.1 22.55 212.1 21.75 210.85 L21.7 210.75 Q21.1 209.95 21.1 208.25 L21.1 203.65 17.55 202.55 17.5 202.55 Q15.2 201.35 13.7 199.75 L13.65 199.75 Q12.0 197.95 11.35 196.25 L11.3 196.2 Q10.55 194.3 10.55 192.5 10.55 190.65 11.95 189.25 L11.9 189.35 Q13.2 187.85 15.3 187.85 16.9 187.85 18.1 188.65 L18.05 188.65 Q19.3 189.35 19.85 190.85 L19.85 190.9 20.8 193.7 20.8 193.6 21.1 194.15 21.1 188.25 17.0 186.7 Q14.5 185.4 13.05 183.05 11.4 180.8 11.4 177.1 M62.35 169.85 Q63.8 171.45 64.6 173.35 65.4 175.35 65.4 177.55 65.4 180.9 63.8 183.65 62.25 186.15 60.6 187.65 L60.5 187.65 55.6 191.85 55.6 191.75 52.7 194.3 60.45 194.3 Q62.95 194.3 64.4 195.45 65.95 196.7 65.95 198.85 65.95 200.8 64.65 202.05 L64.7 202.05 Q63.55 203.35 61.15 203.35 L44.4 203.35 Q42.0 203.35 40.55 201.9 L40.4 201.85 Q39.0 200.3 39.0 198.35 38.95 197.35 39.75 195.55 L39.8 195.45 Q40.5 193.75 41.4 192.85 L41.5 192.75 Q44.5 189.5 47.0 187.35 49.45 185.05 50.65 184.35 L53.45 181.9 53.5 181.9 55.0 179.65 55.45 177.65 55.0 175.95 53.95 174.95 54.0 174.95 Q53.15 174.5 52.2 174.5 50.3 174.5 49.15 176.15 L48.45 177.75 48.45 177.7 Q47.75 179.65 47.0 180.65 L46.95 180.7 Q45.75 182.05 43.6 182.05 41.6 182.05 40.35 180.8 39.05 179.65 39.05 177.5 39.05 175.6 39.9 173.5 L39.95 173.45 Q40.8 171.5 42.5 169.85 44.05 168.3 46.6 167.2 49.1 166.2 52.25 166.2 56.2 166.2 59.1 167.45 60.85 168.35 62.3 169.85 L62.35 169.85 M20.7 176.55 Q20.7 177.35 21.1 177.85 L21.1 175.3 Q20.7 175.8 20.7 176.55 M28.2 190.9 L27.7 190.5 27.7 194.85 28.0 194.65 28.0 194.6 Q28.7 193.7 28.7 192.55 28.7 191.55 28.2 190.9 M76.85 202.55 Q75.35 203.9 73.2 203.9 71.15 203.9 69.5 202.6 67.9 201.2 67.9 198.6 67.9 196.5 69.35 195.05 70.85 193.4 73.1 193.4 75.35 193.4 76.85 194.85 L76.9 195.05 Q78.45 196.45 78.45 198.6 78.45 201.05 76.85 202.55 M103.75 171.1 Q105.5 173.35 106.5 176.85 L106.5 176.9 Q107.4 180.2 107.4 184.35 107.4 188.9 106.4 192.5 105.45 196.2 103.6 198.7 L103.6 198.65 Q101.55 201.35 98.8 202.65 L98.8 202.7 Q96.1 203.85 92.7 203.85 89.2 203.85 86.7 202.6 84.05 201.2 82.7 199.15 L82.8 199.2 Q81.2 197.0 81.2 194.85 81.2 193.2 82.45 191.95 L82.5 191.9 Q83.7 190.6 85.6 190.6 L86.3 190.65 Q84.6 189.8 83.25 188.3 81.7 186.5 80.75 184.3 79.95 181.85 79.95 179.35 79.95 176.7 80.95 174.35 L81.0 174.25 Q81.9 171.8 83.65 170.05 85.45 168.3 87.85 167.25 90.3 166.2 93.2 166.2 96.6 166.2 99.25 167.4 101.9 168.75 103.75 171.1 M108.55 174.35 L108.6 174.25 Q109.5 171.8 111.2 170.05 113.0 168.3 115.5 167.25 117.95 166.2 120.8 166.2 124.2 166.2 126.85 167.4 129.5 168.75 131.4 171.1 133.15 173.35 134.15 176.85 L134.15 176.9 Q134.95 180.2 134.95 184.35 134.95 188.9 134.05 192.5 133.1 196.2 131.2 198.7 L131.2 198.65 Q129.15 201.35 126.4 202.65 L126.4 202.7 Q123.7 203.85 120.3 203.85 116.8 203.85 114.3 202.6 111.7 201.2 110.3 199.15 L110.35 199.2 Q108.75 197.0 108.85 194.85 108.85 193.2 110.1 191.95 L110.15 191.9 Q111.25 190.6 113.2 190.6 L113.85 190.65 Q112.2 189.8 110.9 188.3 109.25 186.5 108.45 184.3 107.55 181.85 107.55 179.35 107.55 176.7 108.55 174.35 M95.7 175.8 L94.5 174.7 94.45 174.7 93.0 174.4 Q91.7 174.4 90.8 175.55 L90.75 175.55 Q89.7 177.0 89.7 179.3 89.7 181.45 90.75 182.9 91.7 184.0 93.15 184.0 94.05 184.0 94.9 183.5 L94.9 183.6 96.3 182.05 Q96.85 181.1 96.85 179.7 L96.6 177.45 96.55 177.35 95.7 175.8 M91.75 192.0 L88.65 191.6 Q89.8 192.45 90.35 194.15 90.65 194.85 91.35 195.4 L91.3 195.35 Q91.95 195.85 92.9 195.85 93.65 195.85 94.4 195.45 L94.45 195.4 Q95.2 195.0 95.7 194.2 L95.75 194.15 96.9 190.9 96.7 190.95 Q94.5 192.0 91.75 192.0 M117.25 179.3 Q117.25 181.45 118.3 182.9 119.3 184.0 120.75 184.0 L122.55 183.5 122.55 183.6 123.95 182.05 Q124.45 181.1 124.45 179.7 L124.15 177.35 123.35 175.8 122.1 174.7 122.05 174.7 120.7 174.4 Q119.3 174.4 118.4 175.55 L118.3 175.55 Q117.25 177.0 117.25 179.3 M119.35 192.0 L116.2 191.6 Q117.35 192.45 118.0 194.15 118.25 194.85 118.95 195.4 L118.9 195.35 Q119.6 195.85 120.45 195.85 L122.0 195.45 122.05 195.4 Q122.8 195.0 123.35 194.2 L123.4 194.15 124.55 190.9 124.4 190.95 124.3 190.95 Q122.1 192.0 119.35 192.0 M-85.85 172.35 Q-85.85 169.35 -84.35 167.95 -83.05 166.35 -79.95 166.35 L-69.15 166.35 -64.7 166.75 Q-62.55 167.05 -60.95 168.05 L-60.9 168.1 Q-59.45 168.95 -58.35 170.3 L-58.35 170.25 Q-57.2 171.6 -56.65 173.3 -56.1 174.85 -56.1 176.6 -56.0 180.9 -59.05 183.65 -54.5 186.35 -54.55 192.0 -54.55 195.35 -56.2 198.05 -58.0 200.8 -60.9 202.1 -62.7 202.8 -64.95 203.15 L-69.8 203.35 -79.95 203.35 Q-83.05 203.35 -84.35 201.8 L-84.3 201.8 Q-85.85 200.45 -85.85 197.35 L-85.85 172.35 M-71.75 175.2 L-75.45 175.2 -75.45 180.1 -71.1 180.1 -67.75 179.7 -67.7 179.7 Q-67.1 179.45 -66.7 178.8 -66.35 178.15 -66.35 177.5 -66.35 176.35 -67.1 175.85 -68.6 175.2 -71.75 175.2 M-65.05 191.55 Q-65.05 190.05 -65.9 189.45 L-65.9 189.4 Q-67.4 188.6 -70.2 188.6 L-75.45 188.6 -75.45 194.65 -70.0 194.65 Q-65.25 194.65 -65.05 191.55 M-28.65 176.55 L-28.6 176.6 -28.55 176.65 Q-27.2 177.9 -27.2 180.65 L-27.2 198.55 Q-27.2 201.05 -28.5 202.5 L-28.55 202.55 Q-29.8 203.9 -32.0 203.9 -34.0 203.9 -35.5 202.5 L-35.5 202.3 -36.1 201.6 -36.15 201.65 Q-37.65 202.75 -39.25 203.35 L-39.3 203.35 -43.2 203.85 Q-46.0 203.85 -48.05 202.75 -50.35 201.6 -51.55 199.55 L-51.6 199.55 Q-53.0 197.25 -53.0 192.9 L-53.0 180.65 Q-53.0 177.9 -51.7 176.65 -50.45 175.05 -48.05 175.05 -45.85 175.05 -44.45 176.6 -43.15 177.9 -43.15 180.65 L-43.15 190.45 Q-43.15 192.4 -42.8 193.7 -42.6 194.6 -42.05 195.15 L-40.7 195.4 Q-39.75 195.4 -38.75 194.8 L-38.8 194.8 Q-37.95 194.2 -37.5 193.15 L-37.45 193.1 Q-37.1 192.0 -37.1 188.15 L-37.1 180.65 Q-37.1 177.9 -35.7 176.6 -34.35 175.05 -32.15 175.05 -29.95 175.05 -28.65 176.55 M-4.95 175.05 Q-3.85 175.05 -2.65 175.75 L-2.6 175.8 Q-1.6 176.35 -0.95 177.35 -0.35 178.4 -0.35 179.65 L-0.4 180.15 -0.75 181.3 -0.75 181.4 -1.25 183.0 -1.3 183.15 -9.35 204.3 Q-10.5 207.2 -11.5 208.95 L-11.6 209.05 Q-12.85 210.95 -14.9 212.1 L-14.95 212.1 Q-16.95 213.1 -20.2 213.1 -23.35 213.1 -25.05 212.4 L-25.1 212.4 Q-27.6 211.3 -27.6 208.5 -27.6 206.45 -26.2 205.4 -25.15 204.45 -23.15 204.45 L-21.65 204.7 -21.7 204.7 -21.15 204.75 -20.2 204.55 -19.9 204.3 -18.85 202.15 -18.6 201.45 -26.0 182.95 -26.0 183.0 Q-26.9 180.85 -26.75 179.85 -26.75 178.55 -26.2 177.55 L-26.1 177.45 Q-25.5 176.35 -24.3 175.75 L-24.25 175.75 Q-23.25 175.05 -21.9 175.05 -19.75 175.05 -18.6 176.55 -17.6 177.55 -16.95 179.65 L-16.95 179.55 -13.5 189.8 -10.2 180.65 -10.2 180.7 -9.05 177.7 -9.2 177.75 Q-8.35 176.3 -7.6 175.8 L-7.35 175.6 Q-6.5 175.05 -4.95 175.05" fill="#000000" fill-rule="evenodd" stroke="none"/>
    <path d="M181.6 196.25 Q181.6 198.1 180.7 199.6 179.65 201.15 177.8 201.9 175.95 202.8 173.4 202.8 170.35 202.8 168.45 201.65 166.95 200.85 166.05 199.45 165.15 198.05 165.15 196.8 165.15 195.95 165.75 195.45 166.25 194.85 167.05 194.85 167.65 194.85 168.15 195.3 168.65 195.7 168.95 196.55 L169.8 198.25 Q170.3 198.95 171.15 199.35 L173.35 199.7 Q175.15 199.7 176.4 198.95 177.4 197.95 177.4 196.7 177.4 195.7 176.8 195.05 176.15 194.35 175.2 194.05 L172.55 193.4 Q170.35 192.85 168.9 192.15 167.35 191.5 166.45 190.3 165.55 189.05 165.55 187.25 165.55 185.55 166.5 184.2 167.5 182.9 169.15 182.15 170.95 181.45 173.35 181.45 175.2 181.45 176.65 181.95 178.0 182.4 178.95 183.25 L180.3 184.85 Q180.7 185.7 180.7 186.5 180.7 187.25 180.15 187.85 179.65 188.45 178.85 188.45 178.15 188.45 177.75 188.15 L177.0 186.85 Q176.45 185.7 175.6 185.1 174.8 184.45 173.05 184.45 171.5 184.45 170.5 185.15 169.5 185.85 169.5 186.85 L169.75 187.95 170.7 188.7 Q171.25 189.05 171.9 189.25 L173.95 189.8 177.1 190.65 Q178.55 191.15 179.5 191.85 L181.1 193.6 Q181.6 194.7 181.6 196.25 M187.75 181.85 L193.15 181.85 196.8 182.2 Q198.4 182.55 199.65 183.7 202.85 186.45 202.85 192.1 202.85 193.95 202.45 195.45 L201.5 198.3 Q200.9 199.5 199.75 200.45 L197.95 201.65 195.8 202.25 193.25 202.5 187.8 202.5 Q186.65 202.5 186.15 202.15 L185.3 201.15 185.2 199.55 185.2 184.35 Q185.2 183.0 185.75 182.4 186.4 181.85 187.75 181.85 M189.35 185.1 L189.35 199.1 192.6 199.1 194.15 199.1 195.4 198.85 196.55 198.25 Q198.6 196.4 198.6 192.1 198.6 189.0 197.65 187.4 196.75 186.0 195.4 185.55 L192.15 185.1 189.35 185.1 M144.05 193.95 L144.05 184.0 Q144.05 182.75 144.6 182.05 145.2 181.45 146.1 181.45 147.1 181.45 147.65 182.05 148.2 182.75 148.2 184.0 L148.2 194.2 Q148.2 195.9 148.65 197.05 148.95 198.25 149.95 198.85 150.95 199.5 152.7 199.5 155.15 199.5 156.2 198.25 157.15 196.85 157.15 194.25 L157.15 184.0 Q157.15 182.75 157.75 182.05 158.35 181.45 159.3 181.45 160.15 181.45 160.75 182.05 161.4 182.75 161.4 184.0 L161.4 193.95 Q161.4 196.35 160.85 197.95 160.5 199.6 159.15 200.85 158.0 201.8 156.5 202.3 L153.1 202.8 148.9 202.3 Q147.2 201.75 146.1 200.75 145.0 199.6 144.55 197.9 144.05 196.25 144.05 193.95" fill="url(#gradient0)" fill-rule="evenodd" stroke="none"/>
    <path d="M25.85 165.35 L25.85 167.85 Q28.2 168.0 29.9 168.85 31.7 169.6 32.95 171.05 34.05 172.25 34.6 173.45 35.15 174.7 35.15 175.8 35.15 176.85 34.3 177.7 33.45 178.5 32.3 178.5 30.15 178.5 29.35 176.15 28.65 173.3 25.85 172.35 L25.85 181.85 Q28.6 182.5 30.25 183.25 31.95 183.85 33.3 185.0 34.7 186.3 35.45 188.05 36.15 189.8 36.15 191.75 36.15 194.35 35.05 196.65 33.8 198.95 31.45 200.35 29.05 201.75 25.85 202.05 L25.85 207.65 Q25.85 209.05 25.55 209.65 25.3 210.25 24.4 210.25 23.65 210.25 23.25 209.75 22.9 209.3 22.9 208.25 L22.9 202.1 Q20.25 201.75 18.3 200.85 16.25 199.85 14.95 198.5 13.65 197.0 13.05 195.55 12.4 194.0 12.4 192.5 12.4 191.35 13.25 190.5 14.05 189.7 15.3 189.7 16.3 189.7 17.05 190.2 17.75 190.6 18.05 191.5 L19.15 194.35 Q19.55 195.35 20.5 196.15 21.35 196.95 22.9 197.35 L22.9 186.85 Q19.9 186.0 17.85 185.0 15.75 183.9 14.55 182.0 13.25 180.15 13.25 177.1 13.25 173.25 15.75 170.75 18.25 168.3 22.9 167.85 L22.9 165.35 Q22.9 163.55 24.35 163.55 25.85 163.55 25.85 165.35 M22.9 180.9 L22.9 172.25 Q21.05 172.8 20.0 173.75 18.85 174.7 18.85 176.55 18.85 178.35 19.9 179.3 20.95 180.2 22.9 180.9 M25.85 187.65 L25.85 197.7 Q28.1 197.15 29.3 195.8 30.6 194.35 30.6 192.55 30.6 190.6 29.35 189.45 28.15 188.45 25.85 187.65 M48.65 196.15 L60.45 196.15 Q62.25 196.15 63.2 196.85 64.1 197.7 64.1 198.85 64.1 199.95 63.35 200.75 62.65 201.5 61.15 201.5 L44.4 201.5 Q42.75 201.5 41.8 200.55 40.85 199.6 40.85 198.35 40.85 197.5 41.5 196.2 42.05 194.85 42.75 194.05 45.75 190.9 48.25 188.7 50.65 186.45 51.75 185.8 L54.8 183.15 Q56.05 181.85 56.7 180.35 57.3 179.0 57.3 177.65 57.3 176.3 56.65 175.05 55.95 173.9 54.8 173.3 53.55 172.7 52.2 172.7 49.2 172.7 47.45 175.3 L46.75 177.1 45.6 179.45 Q44.85 180.25 43.6 180.25 42.45 180.25 41.65 179.5 40.9 178.8 40.9 177.5 40.9 175.9 41.6 174.2 42.35 172.55 43.75 171.1 45.15 169.75 47.3 168.9 49.45 168.0 52.25 168.0 55.8 168.0 58.25 169.15 59.75 169.85 61.0 171.1 62.25 172.35 62.85 174.1 63.55 175.8 63.55 177.55 63.55 180.35 62.25 182.6 60.75 184.95 59.25 186.3 L54.4 190.35 Q51.05 193.1 49.75 194.7 L48.65 196.15 M73.2 202.1 Q71.85 202.1 70.75 201.15 69.75 200.3 69.75 198.6 69.75 197.3 70.7 196.25 71.65 195.25 73.1 195.25 74.6 195.25 75.55 196.25 76.5 197.25 76.5 198.6 76.5 200.2 75.55 201.15 74.6 202.1 73.2 202.1 M126.85 186.6 Q125.3 188.4 123.5 189.35 121.65 190.2 119.35 190.2 117.25 190.2 115.45 189.35 113.6 188.5 112.25 187.0 110.9 185.55 110.15 183.6 109.4 181.5 109.4 179.35 109.4 177.05 110.25 174.95 111.1 172.85 112.5 171.35 114.1 169.75 116.2 168.9 118.25 168.0 120.8 168.0 123.75 168.0 126.05 169.1 128.3 170.2 129.95 172.25 131.45 174.25 132.3 177.35 133.15 180.35 133.15 184.35 133.15 188.7 132.2 192.0 131.4 195.35 129.65 197.5 128.05 199.85 125.65 200.95 123.3 202.05 120.3 202.05 117.3 202.05 115.15 200.9 112.95 199.75 111.85 198.1 110.7 196.45 110.7 194.85 110.7 193.95 111.4 193.15 112.15 192.45 113.2 192.45 114.2 192.45 115.0 193.0 115.85 193.55 116.2 194.7 116.7 196.0 117.8 196.85 119.05 197.75 120.45 197.75 121.75 197.75 122.9 197.0 124.1 196.4 124.8 195.2 126.55 192.75 126.85 186.6 M98.7 179.7 Q98.7 178.15 98.3 176.85 L97.15 174.55 95.25 173.05 Q94.2 172.55 93.0 172.55 90.85 172.55 89.25 174.4 87.8 176.3 87.8 179.3 87.8 182.35 89.25 184.05 90.85 185.85 93.15 185.85 94.55 185.85 95.8 185.1 97.1 184.35 97.9 182.95 98.7 181.5 98.7 179.7 M99.25 186.6 Q97.75 188.4 95.85 189.35 94.05 190.2 91.75 190.2 89.7 190.2 87.8 189.35 86.0 188.5 84.65 187.0 83.25 185.55 82.5 183.6 81.75 181.5 81.75 179.35 81.75 177.05 82.65 174.95 83.45 172.85 84.9 171.35 86.5 169.75 88.6 168.9 90.65 168.0 93.2 168.0 96.2 168.0 98.4 169.1 100.7 170.2 102.3 172.25 103.85 174.25 104.7 177.35 105.5 180.35 105.5 184.35 105.5 188.7 104.65 192.0 103.75 195.35 102.05 197.5 100.4 199.85 98.0 200.95 95.7 202.05 92.7 202.05 89.7 202.05 87.5 200.9 85.35 199.75 84.25 198.1 83.05 196.45 83.05 194.85 83.05 193.95 83.8 193.15 84.45 192.45 85.6 192.45 86.6 192.45 87.4 193.0 88.2 193.55 88.6 194.7 89.1 196.0 90.25 196.85 91.4 197.75 92.9 197.75 94.15 197.75 95.25 197.0 96.45 196.4 97.25 195.2 98.9 192.75 99.25 186.6 M126.3 179.7 Q126.3 178.15 125.9 176.85 125.5 175.45 124.7 174.55 123.95 173.6 122.9 173.05 121.8 172.55 120.7 172.55 118.5 172.55 116.9 174.4 115.45 176.3 115.45 179.3 115.45 182.35 116.9 184.05 118.5 185.85 120.75 185.85 122.15 185.85 123.45 185.1 124.7 184.35 125.6 182.95 126.3 181.5 126.3 179.7 M-69.8 201.5 L-79.95 201.5 Q-82.15 201.5 -83.0 200.5 -84.0 199.55 -84.0 197.35 L-84.0 172.35 Q-84.0 170.2 -83.0 169.2 -82.15 168.3 -79.95 168.3 L-69.15 168.3 -65.05 168.5 Q-63.2 168.85 -61.9 169.7 L-59.75 171.5 Q-58.85 172.55 -58.4 173.85 -57.95 175.1 -57.95 176.6 -57.95 181.6 -62.9 183.85 -56.4 186.0 -56.4 192.0 -56.4 194.8 -57.8 197.05 -59.2 199.25 -61.6 200.35 -63.2 201.0 -65.15 201.3 L-69.8 201.5 M-77.3 173.35 L-77.3 181.9 -71.1 181.9 -67.2 181.4 Q-65.8 180.95 -65.1 179.65 -64.55 178.65 -64.55 177.5 -64.55 174.95 -66.3 174.15 -68.15 173.35 -71.75 173.35 L-77.3 173.35 M-70.2 186.75 L-77.3 186.75 -77.3 196.45 -70.0 196.45 Q-63.2 196.45 -63.2 191.55 -63.2 189.0 -65.0 187.85 -66.75 186.75 -70.2 186.75 M-34.9 198.6 L-34.9 197.85 -37.2 200.15 Q-38.4 201.05 -39.9 201.6 L-43.2 202.05 Q-45.45 202.05 -47.2 201.05 -49.0 200.15 -50.0 198.55 -51.15 196.55 -51.15 192.9 L-51.15 180.65 Q-51.15 178.7 -50.25 177.85 -49.55 176.9 -48.05 176.9 -46.7 176.9 -45.85 177.85 -44.95 178.8 -44.95 180.65 L-44.95 190.45 -44.7 194.15 Q-44.25 195.6 -43.2 196.45 -42.3 197.3 -40.7 197.3 -39.2 197.3 -37.75 196.35 -36.4 195.4 -35.75 193.85 -35.2 192.55 -35.2 188.15 L-35.2 180.65 Q-35.2 178.8 -34.4 177.85 -33.5 176.9 -32.15 176.9 -30.75 176.9 -29.95 177.85 -29.1 178.7 -29.1 180.65 L-29.1 198.55 Q-29.1 200.3 -29.85 201.2 -30.7 202.1 -32.0 202.1 -33.2 202.1 -34.1 201.15 -34.9 200.2 -34.9 198.6 M-17.2 202.8 L-16.7 201.45 -24.25 182.35 -24.95 179.85 Q-24.95 179.05 -24.6 178.4 -24.2 177.7 -23.4 177.25 -22.75 176.9 -21.9 176.9 -20.65 176.9 -19.95 177.75 -19.2 178.55 -18.7 180.2 L-13.55 195.4 -8.45 181.25 -7.45 178.55 -6.5 177.2 -4.95 176.9 Q-4.25 176.9 -3.55 177.25 L-2.6 178.3 Q-2.25 178.9 -2.25 179.65 L-2.55 180.85 -3.05 182.45 -11.1 203.6 Q-12.15 206.35 -13.15 208.0 -14.2 209.6 -15.75 210.45 -17.45 211.3 -20.2 211.3 -22.9 211.3 -24.3 210.7 -25.7 210.1 -25.7 208.5 -25.7 207.45 -25.05 206.9 -24.35 206.3 -23.15 206.3 L-22.15 206.45 -21.15 206.55 -19.4 206.3 Q-18.8 205.95 -18.35 205.2 L-17.2 202.8" fill="url(#gradient1)" fill-rule="evenodd" stroke="none"/>
  </g>
  <defs>
    <linearGradient gradientTransform="matrix(0.0, -0.0126, 0.1249, 0.0, 100.55, 191.75)" gradientUnits="userSpaceOnUse" id="gradient0" spreadMethod="pad" x1="-819.2" x2="819.2">
      <stop offset="0.0" stop-color="#d0f5ff"/>
      <stop offset="1.0" stop-color="#fddeff"/>
    </linearGradient>
    <linearGradient gradientTransform="matrix(0.0, -0.0202, 0.2012, 0.0, 80.75, 184.35)" gradientUnits="userSpaceOnUse" id="gradient1" spreadMethod="pad" x1="-819.2" x2="819.2">
      <stop offset="0.0" stop-color="#d0f5ff"/>
      <stop offset="1.0" stop-color="#fddeff"/>
    </linearGradient>
  </defs>
</svg>
