<?xml version="1.0" encoding="UTF-8" standalone="no"?>
<svg xmlns:xlink="http://www.w3.org/1999/xlink" height="42.4px" width="20.1px" xmlns="http://www.w3.org/2000/svg">
  <g transform="matrix(1.0, 0.0, 0.0, 1.0, 3.9, 3.5)">
    <path d="M6.25 1.55 L6.4 1.75 Q8.55 18.25 12.1 32.6 L12.0 32.8 Q11.25 34.0 9.7 34.15 9.55 31.6 9.0 30.4 7.75 14.35 3.1 0.0 4.85 0.35 6.25 1.55" fill="#3a3b48" fill-rule="evenodd" stroke="none"/>
    <path d="M9.7 34.15 L7.05 35.25 Q4.8 36.15 4.15 31.6 L2.2 21.0 Q0.9 14.95 -0.2 7.6 -1.3 0.2 3.1 0.0 7.75 14.35 9.0 30.4 9.55 31.6 9.7 34.15" fill="#16171c" fill-rule="evenodd" stroke="none"/>
    <path d="M6.4 1.75 Q9.4 4.6 10.5 11.9 12.05 22.65 12.6 28.25 12.9 31.1 12.1 32.6 8.55 18.25 6.4 1.75" fill="#24ecff" fill-rule="evenodd" stroke="none"/>
    <path d="M6.4 1.75 Q9.4 4.6 10.5 11.9 12.05 22.65 12.6 28.25 12.9 31.1 12.1 32.6 M12.0 32.8 Q11.25 34.0 9.7 34.15 L7.05 35.25 Q4.8 36.15 4.15 31.6 L2.2 21.0 Q0.9 14.95 -0.2 7.6 -1.3 0.2 3.1 0.0 4.85 0.35 6.25 1.55" fill="none" stroke="#000000" stroke-linecap="round" stroke-linejoin="round" stroke-width="1.0"/>
    <path d="M6.25 1.55 L6.4 1.75 Q8.55 18.25 12.1 32.6 L12.0 32.8" fill="none" stroke="#000000" stroke-linecap="round" stroke-linejoin="round" stroke-width="0.05"/>
  </g>
</svg>
