<?xml version="1.0" encoding="UTF-8" standalone="no"?>
<svg xmlns:xlink="http://www.w3.org/1999/xlink" height="50.25px" width="30.25px" xmlns="http://www.w3.org/2000/svg">
  <g transform="matrix(1.0, 0.0, 0.0, 1.0, 5.5, 4.3)">
    <path d="M2.55 0.55 Q4.65 -0.25 5.85 0.15 L7.4 3.45 Q8.5 5.85 10.3 14.2 11.1 17.7 12.05 20.05 L12.05 20.0 15.65 24.15 Q18.6 26.95 21.1 31.9 21.4 32.65 20.65 33.95 L20.55 34.15 Q19.6 35.5 18.45 38.2 L17.95 40.2 Q17.2 40.55 16.75 39.95 L16.75 39.9 Q16.25 37.1 17.9 31.25 15.4 29.9 13.5 29.8 12.2 31.2 13.5 33.5 13.8 35.4 13.6 36.5 13.05 38.55 12.05 38.4 11.15 38.25 10.8 36.65 L9.75 32.8 Q8.7 30.7 8.6 28.1 L10.55 33.9 10.0 24.0 9.55 22.25 Q8.95 19.75 8.7 17.8 7.5 9.2 2.55 0.55 M21.0 35.0 Q21.4 36.25 21.1 38.55 L21.1 42.05 20.55 42.4 Q19.4 41.35 19.4 38.9 L21.0 35.0" fill="#ffead5" fill-rule="evenodd" stroke="none"/>
    <path d="M20.55 34.15 L21.0 35.0 19.4 38.9 Q19.4 41.35 20.55 42.4 19.6 42.65 18.9 40.9 L18.45 38.2 Q19.6 35.5 20.55 34.15 M16.75 39.9 Q16.0 41.45 15.5 41.3 14.2 41.25 14.85 39.3 L16.15 36.45 16.2 35.6 Q15.3 35.55 13.35 33.1 L13.5 33.5 Q12.2 31.2 13.5 29.8 15.4 29.9 17.9 31.25 16.25 37.1 16.75 39.9 16.25 39.25 16.1 37.55 L16.15 36.45 16.1 37.55 Q16.25 39.25 16.75 39.9 M8.6 28.1 L8.55 27.2 7.5 25.0 7.3 24.3 Q6.0 20.3 3.7 15.5 0.6 9.7 -0.2 6.65 L-1.2 2.7 -0.75 2.45 Q0.15 1.7 2.55 0.55 7.5 9.2 8.7 17.8 8.95 19.75 9.55 22.25 L10.0 24.0 10.55 33.9 8.6 28.1 M13.35 33.1 L13.3 32.9 13.15 32.2 Q13.65 31.0 14.4 30.65 16.0 31.7 16.8 31.7 L16.2 35.6 16.8 31.7 Q16.0 31.7 14.4 30.65 13.65 31.0 13.15 32.2 L13.3 32.9 13.35 33.1" fill="#efc3c0" fill-rule="evenodd" stroke="none"/>
    <path d="M5.85 0.15 L7.4 3.45 Q8.5 5.85 10.3 14.2 11.1 17.7 12.05 20.05 L12.05 20.0 15.65 24.15 Q18.6 26.95 21.1 31.9 21.4 32.65 20.65 33.95 L20.55 34.15 21.0 35.0 Q21.4 36.25 21.1 38.55 L21.1 42.05 20.55 42.4 Q19.6 42.65 18.9 40.9 L18.45 38.2 17.95 40.2 Q17.2 40.55 16.75 39.95 L16.75 39.9 Q16.0 41.45 15.5 41.3 14.2 41.25 14.85 39.3 L16.15 36.45 16.2 35.6 Q15.3 35.55 13.35 33.1 L13.5 33.5 Q13.8 35.4 13.6 36.5 13.05 38.55 12.05 38.4 11.15 38.25 10.8 36.65 L9.75 32.8 Q8.7 30.7 8.6 28.1 L8.55 27.2 7.5 25.0 7.3 24.3 Q6.0 20.3 3.7 15.5 0.6 9.7 -0.2 6.65 L-1.2 2.7 M16.2 35.6 L16.8 31.7 Q16.0 31.7 14.4 30.65 13.65 31.0 13.15 32.2 L13.3 32.9 13.35 33.1 M16.75 39.9 Q16.25 39.25 16.1 37.55 L16.15 36.45 M20.55 34.15 Q19.6 35.5 18.45 38.2" fill="none" stroke="#000000" stroke-linecap="round" stroke-linejoin="round" stroke-width="1.0"/>
    <path d="M3.25 -0.45 L5.5 -0.85 Q8.65 12.05 14.35 22.85 12.05 24.45 10.05 25.1 3.45 11.2 3.25 -0.45" fill="#3a3b48" fill-rule="evenodd" stroke="none"/>
    <path d="M-2.0 1.3 Q0.3 -0.15 3.0 -0.6 L3.25 -0.65 3.25 -0.45 3.0 -0.6 3.25 -0.45 Q3.45 11.2 10.05 25.1 3.45 27.35 2.9 28.35 3.45 23.75 2.4 19.55 -1.25 9.15 -2.0 1.3" fill="#16171c" fill-rule="evenodd" stroke="none"/>
    <path d="M5.5 -0.85 L6.9 -0.8 Q10.1 10.65 15.85 21.75 L14.35 22.85 Q8.65 12.05 5.5 -0.85" fill="#24ecff" fill-rule="evenodd" stroke="none"/>
    <path d="M3.25 -0.45 L3.0 -0.6" fill="none" stroke="#000000" stroke-linecap="round" stroke-linejoin="round" stroke-width="0.05"/>
    <path d="M6.9 -0.8 Q10.1 10.65 15.85 21.75 L14.35 22.85 Q12.05 24.45 10.05 25.1 3.45 27.35 2.9 28.35 3.45 23.75 2.4 19.55 -1.25 9.15 -2.0 1.3" fill="none" stroke="#000000" stroke-linecap="round" stroke-linejoin="round" stroke-width="1.0"/>
  </g>
</svg>
