<?xml version="1.0" encoding="UTF-8" standalone="no"?>
<svg xmlns:xlink="http://www.w3.org/1999/xlink" height="47.4px" width="26.3px" xmlns="http://www.w3.org/2000/svg">
  <g transform="matrix(1.0, 0.0, 0.0, 1.0, 4.85, 0.2)">
    <path d="M1.5 27.85 L1.35 26.7 Q0.4 20.05 0.0 11.6 L0.05 11.65 6.05 11.95 Q6.05 19.35 6.7 28.35 L6.75 28.95 1.5 27.85 M0.0 11.6 Q0.05 12.3 0.05 11.65 0.05 12.3 0.0 11.6" fill="#efc3c0" fill-rule="evenodd" stroke="none"/>
    <path d="M6.05 11.95 Q12.35 10.1 16.35 5.3 17.1 15.2 16.95 26.7 L16.95 27.7 Q12.35 29.6 6.75 28.95 L6.7 28.35 Q6.05 19.35 6.05 11.95" fill="#ffead5" fill-rule="evenodd" stroke="none"/>
    <path d="M16.95 27.7 L16.75 35.4 Q13.35 37.1 7.9 36.55 7.05 33.05 6.75 28.95 12.35 29.6 16.95 27.7" fill="#24ecff" fill-rule="evenodd" stroke="none"/>
    <path d="M16.75 35.4 L16.6 39.05 16.15 42.05 Q14.95 43.65 12.9 43.7 L10.3 43.5 Q8.8 40.35 7.9 36.55 13.35 37.1 16.75 35.4" fill="#3a3b48" fill-rule="evenodd" stroke="none"/>
    <path d="M10.3 43.5 Q6.15 42.95 3.9 40.45 L2.85 35.65 7.9 36.55 Q8.8 40.35 10.3 43.5" fill="#16171c" fill-rule="evenodd" stroke="none"/>
    <path d="M2.85 35.65 L1.5 27.85 6.75 28.95 Q7.05 33.05 7.9 36.55 L2.85 35.65" fill="#1aafbd" fill-rule="evenodd" stroke="none"/>
    <path d="M1.5 27.85 L1.35 26.7 Q0.4 20.05 0.0 11.6 L0.05 11.65 6.05 11.95 Q12.35 10.1 16.35 5.3 17.1 15.2 16.95 26.7 L16.95 27.7 16.75 35.4 16.6 39.05 16.15 42.05 Q14.95 43.65 12.9 43.7 L10.3 43.5 Q6.15 42.95 3.9 40.45 L2.85 35.65 1.5 27.85 6.75 28.95 Q12.35 29.6 16.95 27.7 M0.05 11.65 Q0.05 12.3 0.0 11.6 M2.85 35.65 L7.9 36.55 Q13.35 37.1 16.75 35.4" fill="none" stroke="#000000" stroke-linecap="round" stroke-linejoin="round" stroke-width="1.0"/>
    <path d="M17.85 17.4 Q12.95 18.85 7.0 18.7 L6.9 5.35 Q11.65 3.9 17.05 3.3 L17.85 17.4" fill="#3a3b48" fill-rule="evenodd" stroke="none"/>
    <path d="M7.0 18.7 Q12.95 18.85 17.85 17.4 L17.95 19.45 Q12.4 21.4 7.0 21.25 L7.0 18.7" fill="#24ecff" fill-rule="evenodd" stroke="none"/>
    <path d="M6.9 5.35 L7.0 18.7 -0.85 17.85 -1.35 8.65 Q2.5 6.65 6.9 5.35" fill="#16171c" fill-rule="evenodd" stroke="none"/>
    <path d="M-0.85 17.85 L7.0 18.7 7.0 21.25 Q3.1 21.1 -0.75 19.85 L-0.85 17.85" fill="#1aafbd" fill-rule="evenodd" stroke="none"/>
    <path d="M17.85 17.4 L17.05 3.3 Q11.65 3.9 6.9 5.35 2.5 6.65 -1.35 8.65 L-0.85 17.85 -0.75 19.85 Q3.1 21.1 7.0 21.25 12.4 21.4 17.95 19.45 L17.85 17.4 Z" fill="none" stroke="#000000" stroke-linecap="round" stroke-linejoin="round" stroke-width="1.0"/>
  </g>
</svg>
