<?xml version="1.0" encoding="UTF-8" standalone="no"?>
<svg xmlns:xlink="http://www.w3.org/1999/xlink" height="53.8px" width="27.45px" xmlns="http://www.w3.org/2000/svg">
  <g transform="matrix(1.0, 0.0, 0.0, 1.0, 3.5, 3.8)">
    <path d="M4.55 37.55 L4.6 37.15 4.65 36.65 4.65 37.2 4.55 37.55" fill="#efc3c0" fill-rule="evenodd" stroke="none"/>
    <path d="M13.3 12.0 L13.45 19.6 5.8 20.0 5.1 12.9 Q9.4 13.2 13.3 12.0 M13.2 26.75 L13.0 30.3 7.15 30.7 6.9 27.4 6.85 27.15 13.2 26.75 M20.15 43.0 L20.45 44.6 Q20.5 46.35 17.25 46.45 L8.55 46.0 Q7.15 45.0 6.8 42.5 17.0 44.55 20.15 43.0 M4.6 -0.65 Q8.5 -1.3 12.75 0.7 L12.95 4.1 Q8.7 5.6 4.7 5.7 L4.6 -0.65" fill="#3a3b48" fill-rule="evenodd" stroke="none"/>
    <path d="M12.95 4.1 L13.3 12.0 Q9.4 13.2 5.1 12.9 L4.7 5.7 Q8.7 5.6 12.95 4.1 M13.45 19.6 L13.25 25.75 13.2 26.75 6.85 27.15 5.8 20.0 13.45 19.6 M13.0 30.3 L13.8 30.1 Q14.05 32.3 13.6 34.05 L7.1 34.4 7.15 30.7 13.0 30.3" fill="#24ecff" fill-rule="evenodd" stroke="none"/>
    <path d="M8.55 46.0 L4.75 45.05 Q3.8 44.5 3.9 42.4 L6.8 42.5 Q7.15 45.0 8.55 46.0 M4.85 30.3 L4.4 26.6 6.85 27.15 6.9 27.4 7.15 30.7 4.85 30.3 M2.7 19.5 L2.4 18.7 Q1.6 15.35 1.1 12.25 L5.1 12.9 5.8 20.0 2.7 19.5 M0.2 5.4 L0.0 0.65 1.65 0.2 Q3.1 -0.4 4.6 -0.65 L4.7 5.7 0.2 5.4" fill="#16171c" fill-rule="evenodd" stroke="none"/>
    <path d="M3.9 42.4 L3.95 41.55 4.55 37.55 4.65 37.2 4.65 36.65 4.65 36.35 4.75 36.35 4.65 36.3 Q4.7 35.35 4.2 34.0 L7.1 34.4 7.1 36.65 7.1 37.2 7.05 36.45 7.05 36.65 7.0 37.4 6.65 40.4 Q6.65 41.55 6.8 42.5 L3.9 42.4" fill="#1c626d" fill-rule="evenodd" stroke="none"/>
    <path d="M13.6 34.05 L13.55 34.1 Q13.0 35.3 13.05 36.35 L13.05 36.45 13.1 37.15 13.1 37.55 15.4 37.8 Q19.05 39.3 20.15 43.0 17.0 44.55 6.8 42.5 6.65 41.55 6.65 40.4 L7.0 37.4 7.05 36.65 7.05 36.45 7.1 37.2 7.1 36.65 7.1 34.4 13.6 34.05 M9.8 39.9 Q11.3 37.8 13.1 37.55 11.3 37.8 9.8 39.9" fill="#2ea1b4" fill-rule="evenodd" stroke="none"/>
    <path d="M4.2 34.0 L4.15 33.85 Q3.55 32.3 3.8 30.1 L4.85 30.3 7.15 30.7 7.1 34.4 4.2 34.0 M4.4 26.6 Q3.8 22.95 2.7 19.5 L5.8 20.0 6.85 27.15 4.4 26.6 M1.1 12.25 Q0.45 8.6 0.2 5.4 L4.7 5.7 5.1 12.9 1.1 12.25" fill="#1aafbd" fill-rule="evenodd" stroke="none"/>
    <path d="M12.95 4.1 L13.3 12.0 13.45 19.6 13.25 25.75 13.2 26.75 13.0 30.3 13.8 30.1 Q14.05 32.3 13.6 34.05 L13.55 34.1 Q13.0 35.3 13.05 36.35 L13.1 37.15 13.1 37.55 15.4 37.8 Q19.05 39.3 20.15 43.0 L20.45 44.6 Q20.5 46.35 17.25 46.45 L8.55 46.0 4.75 45.05 Q3.8 44.5 3.9 42.4 L3.95 41.55 4.55 37.55 4.6 37.15 4.65 36.65 4.65 36.35 M4.65 36.3 Q4.7 35.35 4.2 34.0 L4.15 33.85 Q3.55 32.3 3.8 30.1 L4.85 30.3 4.4 26.6 Q3.8 22.95 2.7 19.5 L2.4 18.7 Q1.6 15.35 1.1 12.25 0.45 8.6 0.2 5.4 L0.0 0.65 M12.75 0.7 L12.95 4.1 Q8.7 5.6 4.7 5.7 L0.2 5.4 M5.1 12.9 Q9.4 13.2 13.3 12.0 M5.8 20.0 L13.45 19.6 M2.7 19.5 L5.8 20.0 M6.85 27.15 L13.2 26.75 M1.1 12.25 L5.1 12.9 M13.05 36.35 L13.05 36.45 13.1 37.15 M7.15 30.7 L13.0 30.3 M6.8 42.5 Q17.0 44.55 20.15 43.0 M4.85 30.3 L7.15 30.7 M7.1 34.4 L13.6 34.05 M4.4 26.6 L6.85 27.15 M4.2 34.0 L7.1 34.4 M4.65 36.65 L4.65 37.2 4.55 37.55 M3.9 42.4 L6.8 42.5 M13.1 37.55 Q11.3 37.8 9.8 39.9" fill="none" stroke="#000000" stroke-linecap="round" stroke-linejoin="round" stroke-width="1.0"/>
  </g>
</svg>
