<?xml version="1.0" encoding="UTF-8" standalone="no"?>
<svg xmlns:xlink="http://www.w3.org/1999/xlink" height="53.4px" width="29.55px" xmlns="http://www.w3.org/2000/svg">
  <g transform="matrix(1.0, 0.0, 0.0, 1.0, 3.65, 4.85)">
    <path d="M0.45 26.0 Q1.05 16.7 2.35 7.0 L2.75 4.15 6.2 1.3 Q3.75 15.0 2.5 26.85 L0.45 26.0" fill="#efc3c0" fill-rule="evenodd" stroke="none"/>
    <path d="M20.9 13.1 L20.85 13.25 Q19.35 21.9 17.25 29.35 9.55 29.5 2.5 26.85 3.75 15.0 6.2 1.3 L2.75 4.15 3.25 0.2 Q5.7 -1.45 14.2 2.1 19.75 6.0 20.9 13.1" fill="#ffead5" fill-rule="evenodd" stroke="none"/>
    <path d="M14.95 36.7 L12.5 42.9 Q9.55 45.9 5.2 44.7 2.7 44.0 1.35 42.6 L1.85 34.1 Q7.75 36.45 14.95 36.7" fill="#3a3b48" fill-rule="evenodd" stroke="none"/>
    <path d="M17.25 29.35 L14.95 36.7 Q7.75 36.45 1.85 34.1 L2.5 26.85 Q9.55 29.5 17.25 29.35" fill="#24ecff" fill-rule="evenodd" stroke="none"/>
    <path d="M1.35 42.6 Q0.3 41.5 -0.1 40.0 L0.1 33.35 1.85 34.1 1.35 42.6" fill="#16171c" fill-rule="evenodd" stroke="none"/>
    <path d="M0.1 33.35 Q0.2 29.7 0.45 26.0 L2.5 26.85 1.85 34.1 0.1 33.35" fill="#1aafbd" fill-rule="evenodd" stroke="none"/>
    <path d="M20.9 13.1 L20.85 13.25 Q19.35 21.9 17.25 29.35 L14.95 36.7 12.5 42.9 Q9.55 45.9 5.2 44.7 2.7 44.0 1.35 42.6 0.3 41.5 -0.1 40.0 L0.1 33.35 Q0.2 29.7 0.45 26.0 1.05 16.7 2.35 7.0 L2.75 4.15 3.25 0.2 M2.5 26.85 L0.45 26.0 M0.1 33.35 L1.85 34.1 Q7.75 36.45 14.95 36.7 M2.5 26.85 Q9.55 29.5 17.25 29.35" fill="none" stroke="#000000" stroke-linecap="round" stroke-linejoin="round" stroke-width="1.0"/>
    <path d="M4.7 15.9 L8.75 -0.75 Q18.1 1.35 22.4 11.05 L20.55 18.9 Q13.55 18.5 4.7 15.9" fill="#3a3b48" fill-rule="evenodd" stroke="none"/>
    <path d="M20.55 18.9 L20.0 21.05 Q11.4 21.2 4.1 18.35 L4.7 15.9 Q13.55 18.5 20.55 18.9" fill="#24ecff" fill-rule="evenodd" stroke="none"/>
    <path d="M-0.05 14.4 Q0.45 7.1 3.2 -1.35 L8.75 -0.75 4.7 15.9 -0.05 14.4" fill="#16171c" fill-rule="evenodd" stroke="none"/>
    <path d="M-0.05 14.4 L4.7 15.9 4.1 18.35 Q1.9 17.45 -0.15 16.35 L-0.05 14.4" fill="#1aafbd" fill-rule="evenodd" stroke="none"/>
    <path d="M8.75 -0.75 L3.2 -1.35 Q0.45 7.1 -0.05 14.4 L-0.15 16.35 Q1.9 17.45 4.1 18.35 11.4 21.2 20.0 21.05 L20.55 18.9 22.4 11.05 Q18.1 1.35 8.75 -0.75 Z" fill="none" stroke="#000000" stroke-linecap="round" stroke-linejoin="round" stroke-width="1.0"/>
  </g>
</svg>
