<?xml version="1.0" encoding="UTF-8" standalone="no"?>
<svg xmlns:xlink="http://www.w3.org/1999/xlink" height="88.2px" width="57.7px" xmlns="http://www.w3.org/2000/svg">
  <g transform="matrix(1.0, 0.0, 0.0, 1.0, 5.9, 5.8)">
    <path d="M3.35 -2.3 L31.35 -2.3 31.35 18.4 3.35 18.4 3.35 -2.3" fill="#12141e" fill-rule="evenodd" stroke="none"/>
    <path d="M3.35 -2.3 L31.35 -2.3 31.35 18.4 3.35 18.4 3.35 -2.3 Z" fill="none" stroke="#000000" stroke-linecap="round" stroke-linejoin="round" stroke-width="1.0"/>
    <path d="M19.85 13.1 L22.95 15.1 28.2 19.9 29.3 20.4 Q32.0 22.15 34.05 25.3 35.85 29.25 34.75 32.75 30.85 32.6 25.6 29.45 24.45 32.05 20.3 33.0 14.15 34.0 11.4 32.1 L7.95 26.95 Q3.2 23.1 2.15 17.2 L3.95 14.95 Q6.75 12.7 8.6 12.0 L8.8 8.9 Q17.35 15.25 19.85 13.1 M33.0 36.75 L31.9 40.9 Q31.2 43.45 31.15 46.2 31.1 48.9 32.0 51.55 L34.0 57.0 Q35.1 59.85 36.35 67.15 L33.2 67.75 31.95 67.95 21.05 68.35 7.65 66.5 Q6.6 63.2 9.25 58.35 12.15 53.45 13.3 50.7 14.45 45.2 11.65 36.05 14.45 37.3 17.85 37.4 L21.05 36.25 Q24.0 34.5 25.6 31.0 28.7 35.6 33.0 36.75 M23.35 23.9 L24.85 25.3 25.85 23.35 22.45 20.1 23.35 23.9 M26.4 53.9 Q25.3 55.5 25.1 56.75 24.9 57.55 25.15 58.5 25.5 59.45 26.7 60.05 25.75 59.1 26.4 53.9" fill="#ffead5" fill-rule="evenodd" stroke="none"/>
    <path d="M34.75 32.75 L34.65 32.95 33.0 36.75 Q28.7 35.6 25.6 31.0 24.0 34.5 21.05 36.25 L17.85 37.4 Q14.45 37.3 11.65 36.05 14.45 45.2 13.3 50.7 12.15 53.45 9.25 58.35 6.6 63.2 7.65 66.5 L3.05 65.5 Q4.55 59.75 7.85 54.8 11.1 49.8 11.4 46.7 11.6 43.55 7.4 33.9 L2.3 23.3 Q0.85 19.65 1.55 18.25 L2.15 17.2 Q3.2 23.1 7.95 26.95 L11.4 32.1 Q14.15 34.0 20.3 33.0 24.45 32.05 25.6 29.45 30.85 32.6 34.75 32.75 M8.8 8.9 L8.6 0.25 Q9.85 -1.5 14.05 -1.1 17.6 -1.05 18.4 1.5 18.1 7.95 19.85 13.1 17.35 15.25 8.8 8.9 M23.35 23.9 L22.45 20.1 25.85 23.35 24.85 25.3 23.35 23.9 M26.4 53.9 Q25.75 59.1 26.7 60.05 25.5 59.45 25.15 58.5 24.9 57.55 25.1 56.75 25.3 55.5 26.4 53.9" fill="#efc3c0" fill-rule="evenodd" stroke="none"/>
    <path d="M19.85 13.1 L22.95 15.1 28.2 19.9 29.3 20.4 Q32.0 22.15 34.05 25.3 35.85 29.25 34.75 32.75 L34.65 32.95 33.0 36.75 31.9 40.9 Q31.2 43.45 31.15 46.2 31.1 48.9 32.0 51.55 L34.0 57.0 Q35.1 59.85 36.35 67.15 M3.05 65.5 Q4.55 59.75 7.85 54.8 11.1 49.8 11.4 46.7 11.6 43.55 7.4 33.9 L2.3 23.3 Q0.85 19.65 1.55 18.25 L2.15 17.2 3.95 14.95 Q6.75 12.7 8.6 12.0 L8.8 8.9 8.6 0.25 Q9.85 -1.5 14.05 -1.1 17.6 -1.05 18.4 1.5 18.1 7.95 19.85 13.1 Z" fill="none" stroke="#000000" stroke-linecap="round" stroke-linejoin="round" stroke-width="1.0"/>
    <path d="M28.4 21.15 Q29.1 20.7 30.0 20.4 32.9 22.15 35.1 25.3 37.05 29.25 35.85 32.75 L35.75 32.95 34.4 36.05 34.0 36.75 Q33.35 39.15 33.05 41.6 L32.3 38.35 30.8 31.7 28.4 21.15" fill="#3a3b48" fill-rule="evenodd" stroke="none"/>
    <path d="M6.95 26.95 Q11.3 22.65 15.75 21.1 18.65 21.45 21.1 22.4 22.4 23.0 23.6 23.9 L25.2 25.3 Q25.6 24.2 26.25 23.35 27.1 21.95 28.4 21.15 L30.8 31.7 Q28.55 30.85 26.0 29.45 24.75 32.05 20.3 33.0 13.65 34.0 10.7 32.1 L6.95 26.95 M37.65 68.5 L38.6 72.35 Q32.65 78.1 15.4 77.2 20.0 77.3 34.0 72.75 24.2 75.35 18.05 70.5 15.15 55.75 19.4 39.05 L25.95 37.35 Q24.85 39.4 21.95 47.15 L25.85 40.1 27.25 37.0 Q29.7 38.0 32.3 38.35 L33.05 41.6 32.75 45.0 Q32.55 47.45 33.7 55.1 34.2 58.55 35.1 61.65 L36.5 65.9 37.65 68.5 M19.05 48.95 L18.95 49.0 Q19.85 51.25 22.1 53.25 26.6 57.25 31.5 59.15 L26.2 55.3 Q22.25 52.4 19.05 48.95 M27.4 37.4 Q26.75 37.9 26.9 38.9 27.7 43.6 29.45 48.0 30.2 50.0 31.35 51.35 L30.25 48.15 Q28.05 41.75 27.4 37.4 M36.9 69.7 L36.35 69.9 Q31.25 72.15 25.7 72.1 26.3 72.9 27.75 72.8 31.5 72.6 35.1 71.6 37.2 71.0 36.9 69.7" fill="#2ea1b4" fill-rule="evenodd" stroke="none"/>
    <path d="M15.4 77.2 Q13.05 77.0 11.0 74.65 11.5 68.6 9.5 68.25 L1.8 66.35 9.05 50.05 Q9.2 46.45 8.8 42.85 8.2 38.1 6.65 33.35 L5.7 32.45 4.3 29.85 6.95 26.95 10.7 32.1 Q13.65 34.0 20.3 33.0 24.75 32.05 26.0 29.45 28.55 30.85 30.8 31.7 L32.3 38.35 Q29.7 38.0 27.25 37.0 L25.85 40.1 21.95 47.15 Q24.85 39.4 25.95 37.35 L19.4 39.05 Q15.15 55.75 18.05 70.5 24.2 75.35 34.0 72.75 20.0 77.3 15.4 77.2 M19.05 48.95 Q22.25 52.4 26.2 55.3 L31.5 59.15 Q26.6 57.25 22.1 53.25 19.85 51.25 18.95 49.0 L19.05 48.95 M27.4 37.4 Q28.05 41.75 30.25 48.15 L31.35 51.35 Q30.2 50.0 29.45 48.0 27.7 43.6 26.9 38.9 26.75 37.9 27.4 37.4 M36.9 69.7 Q37.2 71.0 35.1 71.6 31.5 72.6 27.75 72.8 26.3 72.9 25.7 72.1 31.25 72.15 36.35 69.9 L36.9 69.7" fill="#1e6a77" fill-rule="evenodd" stroke="none"/>
    <path d="M34.4 36.05 Q36.35 48.9 43.1 55.7 40.65 60.75 35.1 61.65 34.2 58.55 33.7 55.1 32.55 47.45 32.75 45.0 L33.05 41.6 Q33.35 39.15 34.0 36.75 L34.4 36.05 M45.95 58.15 Q47.05 58.95 48.3 59.65 44.8 68.1 37.65 68.5 L36.5 65.9 Q43.3 65.25 45.95 58.15" fill="#16171c" fill-rule="evenodd" stroke="none"/>
    <path d="M43.1 55.7 L43.15 55.75 Q44.45 57.05 45.95 58.15 43.3 65.25 36.5 65.9 L35.1 61.65 Q40.65 60.75 43.1 55.7" fill="#1aadbb" fill-rule="evenodd" stroke="none"/>
    <path d="M6.95 26.95 Q11.3 22.65 15.75 21.1 18.65 21.45 21.1 22.4 22.4 23.0 23.6 23.9 L25.2 25.3 Q25.6 24.2 26.25 23.35 27.1 21.95 28.4 21.15 L28.25 20.55 M28.4 21.15 Q29.1 20.7 30.0 20.4 32.9 22.15 35.1 25.3 37.05 29.25 35.85 32.75 L35.75 32.95 34.4 36.05 Q36.35 48.9 43.1 55.7 L43.15 55.75 Q44.45 57.05 45.95 58.15 47.05 58.95 48.3 59.65 44.8 68.1 37.65 68.5 L38.6 72.35 Q32.65 78.1 15.4 77.2 13.05 77.0 11.0 74.65 11.5 68.6 9.5 68.25 L1.8 66.35 9.05 50.05 Q9.2 46.45 8.8 42.85 8.2 38.1 6.65 33.35 L5.7 32.45 4.3 29.85 6.95 26.95 M30.8 31.7 L28.4 21.15 M34.4 36.05 L34.0 36.75 Q33.35 39.15 33.05 41.6 L32.75 45.0 Q32.55 47.45 33.7 55.1 34.2 58.55 35.1 61.65 40.65 60.75 43.1 55.7 M32.3 38.35 L33.05 41.6 M30.8 31.7 L32.3 38.35 M36.5 65.9 L37.65 68.5 M35.1 61.65 L36.5 65.9 Q43.3 65.25 45.95 58.15" fill="none" stroke="#000000" stroke-linecap="round" stroke-linejoin="round" stroke-width="1.0"/>
    <path d="M17.7 30.55 L17.6 33.1 Q13.65 32.75 10.9 30.5 L9.55 26.1 17.7 30.55 M17.1 39.55 Q16.15 47.95 13.9 53.85 11.25 60.55 11.55 68.5 7.5 67.85 4.45 65.6 4.4 63.6 5.35 61.6 L17.1 39.55 M12.05 73.8 L12.85 78.05 Q6.2 76.05 2.75 73.3 L2.55 70.3 Q6.55 73.4 12.05 73.8" fill="#3a3b48" fill-rule="evenodd" stroke="none"/>
    <path d="M2.55 15.8 L1.65 15.25 Q3.4 11.4 7.95 9.7 15.3 18.9 17.85 28.1 L17.75 28.65 Q13.1 22.2 2.55 15.8 M11.55 68.5 Q11.65 71.1 12.05 73.8 6.55 73.4 2.55 70.3 L2.35 67.4 6.65 71.2 Q4.5 68.45 4.45 65.6 7.5 67.85 11.55 68.5 M18.8 9.0 Q27.05 12.9 31.85 16.35 32.2 22.15 29.75 26.8 29.7 23.65 20.35 13.45 L18.8 9.0" fill="#24ecff" fill-rule="evenodd" stroke="none"/>
    <path d="M2.55 15.8 Q13.1 22.2 17.75 28.65 L17.7 30.55 9.55 26.1 10.9 30.5 Q13.65 32.75 17.6 33.1 L17.1 39.55 5.35 61.6 Q4.4 63.6 4.45 65.6 2.75 64.3 1.35 62.55 L8.35 50.35 Q9.95 45.25 7.35 37.0 -1.45 21.0 2.55 15.8 M12.85 78.05 L13.05 78.9 Q-2.5 74.4 -2.4 68.55 L-1.1 66.55 Q0.55 68.75 2.55 70.3 L2.75 73.3 Q6.2 76.05 12.85 78.05" fill="#1d1e25" fill-rule="evenodd" stroke="none"/>
    <path d="M-1.1 66.55 L1.35 62.55 Q2.75 64.3 4.45 65.6 4.5 68.45 6.65 71.2 L2.35 67.4 2.55 70.3 Q0.55 68.75 -1.1 66.55" fill="#1aafbd" fill-rule="evenodd" stroke="none"/>
    <path d="M17.75 28.65 L17.85 28.1 Q15.3 18.9 7.95 9.7 3.4 11.4 1.65 15.25 L2.55 15.8 Q13.1 22.2 17.75 28.65 L18.1 29.2 17.85 28.1 M17.7 30.55 L17.6 33.1 17.1 39.55 Q16.15 47.95 13.9 53.85 11.25 60.55 11.55 68.5 11.65 71.1 12.05 73.8 L12.85 78.05 13.05 78.9 Q-2.5 74.4 -2.4 68.55 L-1.1 66.55 1.35 62.55 8.35 50.35 Q9.95 45.25 7.35 37.0 -1.45 21.0 2.55 15.8 M17.75 28.65 L17.7 30.55 M18.8 9.0 Q27.05 12.9 31.85 16.35 32.2 22.15 29.75 26.8 29.7 23.65 20.35 13.45 L18.8 9.0 M2.55 70.3 Q6.55 73.4 12.05 73.8 M4.45 65.6 Q2.75 64.3 1.35 62.55 M11.55 68.5 Q7.5 67.85 4.45 65.6 M-1.1 66.55 Q0.55 68.75 2.55 70.3" fill="none" stroke="#000000" stroke-linecap="round" stroke-linejoin="round" stroke-width="1.0"/>
  </g>
</svg>
