<?xml version="1.0" encoding="UTF-8" standalone="no"?>
<svg xmlns:xlink="http://www.w3.org/1999/xlink" height="55.95px" width="26.75px" xmlns="http://www.w3.org/2000/svg">
  <g transform="matrix(1.0, 0.0, 0.0, 1.0, 3.95, -0.5)">
    <path d="M19.3 5.8 L18.9 9.0 Q12.7 9.1 7.0 6.1 L7.55 3.95 Q10.35 3.0 14.5 4.05 19.85 5.35 19.3 5.8 M17.4 16.0 L15.25 22.8 Q9.35 22.8 4.95 20.25 5.1 16.6 5.6 13.1 9.75 15.6 17.4 16.0 M12.9 29.35 L12.1 32.25 Q10.95 36.75 11.3 39.75 L3.6 39.75 3.65 39.65 Q4.5 35.7 4.85 32.25 L5.05 27.75 Q8.45 29.75 12.9 29.35" fill="#3a3b48" fill-rule="evenodd" stroke="none"/>
    <path d="M7.0 6.1 Q12.7 9.1 18.9 9.0 18.4 12.3 17.4 16.0 9.75 15.6 5.6 13.1 6.1 9.55 7.0 6.1 M15.25 22.8 L14.2 25.65 12.9 29.35 Q8.45 29.75 5.05 27.75 L4.85 24.95 4.95 20.25 Q9.35 22.8 15.25 22.8" fill="#24ecff" fill-rule="evenodd" stroke="none"/>
    <path d="M7.55 3.95 L7.0 6.1 5.7 5.4 6.0 4.7 Q6.7 4.25 7.55 3.95 M3.6 39.75 L1.9 39.75 1.95 39.65 2.0 39.65 Q3.25 36.3 3.4 32.25 L3.35 29.0 3.25 26.5 5.05 27.75 4.85 32.25 Q4.5 35.7 3.65 39.65 L3.6 39.75 M3.15 19.05 L3.3 15.35 Q3.45 13.45 3.75 11.7 L5.6 13.1 Q5.1 16.6 4.95 20.25 L3.15 19.05" fill="#16171c" fill-rule="evenodd" stroke="none"/>
    <path d="M3.25 26.5 Q3.05 22.6 3.15 19.05 L4.95 20.25 4.85 24.95 5.05 27.75 3.25 26.5 M3.75 11.7 Q4.35 8.25 5.7 5.4 L7.0 6.1 Q6.1 9.55 5.6 13.1 L3.75 11.7" fill="#1aafbd" fill-rule="evenodd" stroke="none"/>
    <path d="M18.9 9.0 L19.3 5.8 M7.0 6.1 Q12.7 9.1 18.9 9.0 18.4 12.3 17.4 16.0 L15.25 22.8 14.2 25.65 12.9 29.35 12.1 32.25 Q10.95 36.75 11.3 39.75 M1.9 39.75 L1.95 39.65 M2.0 39.65 Q3.25 36.3 3.4 32.25 L3.35 29.0 3.25 26.5 Q3.05 22.6 3.15 19.05 L3.3 15.35 Q3.45 13.45 3.75 11.7 4.35 8.25 5.7 5.4 L6.0 4.7 M5.7 5.4 L7.0 6.1 M5.6 13.1 Q9.75 15.6 17.4 16.0 M3.15 19.05 L4.95 20.25 Q9.35 22.8 15.25 22.8 M5.6 13.1 L3.75 11.7 M5.05 27.75 Q8.45 29.75 12.9 29.35 M3.25 26.5 L5.05 27.75" fill="none" stroke="#000000" stroke-linecap="round" stroke-linejoin="round" stroke-width="1.0"/>
    <path d="M4.0 36.95 L4.75 33.05 Q8.15 34.4 12.9 33.05 L12.0 37.45 Q9.7 38.4 4.0 36.95" fill="#24ecff" fill-rule="evenodd" stroke="none"/>
    <path d="M1.55 48.35 Q10.0 50.75 14.2 47.7 L14.35 50.6 Q12.9 53.2 8.6 52.95 3.8 53.0 1.5 51.6 L1.55 48.35" fill="#3a3b48" fill-rule="evenodd" stroke="none"/>
    <path d="M-0.35 46.25 L1.55 48.35 1.5 51.6 Q0.15 50.75 -0.35 49.4 -0.55 47.95 -0.35 46.25" fill="#16171c" fill-rule="evenodd" stroke="none"/>
    <path d="M4.0 36.95 Q9.7 38.4 12.0 37.45 L11.9 38.0 Q11.45 38.7 11.55 39.6 L11.55 39.7 Q11.7 41.05 12.15 42.1 10.75 40.9 8.75 40.65 4.35 40.35 2.35 43.65 4.35 40.35 8.75 40.65 10.75 40.9 12.15 42.1 13.7 45.1 14.2 47.7 10.0 50.75 1.55 48.35 L1.6 46.3 2.35 43.65 3.3 39.7 3.35 39.6 3.45 39.5 4.0 36.95" fill="#2ea1b4" fill-rule="evenodd" stroke="none"/>
    <path d="M1.95 35.55 L4.0 36.95 3.45 39.5 3.35 39.6 3.3 39.7 2.35 43.65 1.6 46.3 1.55 48.35 -0.35 46.25 Q-0.2 44.25 0.55 41.9 L1.5 39.7 1.6 39.5 1.65 39.5 Q2.25 37.85 1.95 36.1 L1.95 35.55" fill="#1c626d" fill-rule="evenodd" stroke="none"/>
    <path d="M4.75 33.05 L4.0 36.95 1.95 35.55 Q1.95 33.55 2.3 31.65 L4.75 33.05" fill="#1aafbd" fill-rule="evenodd" stroke="none"/>
    <path d="M4.0 36.95 Q9.7 38.4 12.0 37.45 L12.9 33.05 Q8.15 34.4 4.75 33.05 L2.3 31.65 Q1.95 33.55 1.95 35.55 L4.0 36.95 M2.35 43.65 Q4.35 40.35 8.75 40.65 10.75 40.9 12.15 42.1 11.7 41.05 11.55 39.7 L11.55 39.6 Q11.45 38.7 11.9 38.0 L12.0 37.45 M1.95 35.55 L1.95 36.1 Q2.25 37.85 1.65 39.5 M1.6 39.5 L1.5 39.7 0.55 41.9 Q-0.2 44.25 -0.35 46.25 L1.55 48.35 Q10.0 50.75 14.2 47.7 L14.35 50.6 Q12.9 53.2 8.6 52.95 3.8 53.0 1.5 51.6 0.15 50.75 -0.35 49.4 -0.55 47.95 -0.35 46.25 M14.2 47.7 Q13.7 45.1 12.15 42.1" fill="none" stroke="#000000" stroke-linecap="round" stroke-linejoin="round" stroke-width="1.0"/>
  </g>
</svg>
