<?xml version="1.0" encoding="UTF-8" standalone="no"?>
<svg xmlns:xlink="http://www.w3.org/1999/xlink" height="78.75px" width="70.95px" xmlns="http://www.w3.org/2000/svg">
  <g transform="matrix(1.0, 0.0, 0.0, 1.0, 35.15, 71.6)">
    <path d="M-4.7 -1.95 L-8.95 -15.45 Q0.8 -11.95 13.45 -10.7 23.85 -9.85 30.55 -11.7 L30.15 -9.75 Q29.15 -4.4 24.5 -1.55 18.5 2.15 11.3 3.65 4.15 2.1 -4.7 -1.95 M12.75 -2.85 Q11.9 -3.55 9.6 -3.15 7.25 -2.75 6.4 -4.25 7.25 -2.75 9.6 -3.15 11.9 -3.55 12.75 -2.85" fill="#ffead5" fill-rule="evenodd" stroke="none"/>
    <path d="M30.55 -11.7 Q23.85 -9.85 13.45 -10.7 0.8 -11.95 -8.95 -15.45 L-4.7 -1.95 Q-11.7 -5.2 -19.75 -9.95 -30.55 -20.55 -31.6 -35.3 -32.55 -49.3 -21.0 -61.1 -9.45 -72.95 16.5 -64.8 32.45 -56.6 32.05 -37.25 32.9 -24.95 30.55 -11.7" fill="#e2b9b6" fill-rule="evenodd" stroke="none"/>
    <path d="M30.55 -11.7 Q32.9 -24.95 32.05 -37.25 32.45 -56.6 16.5 -64.8 -9.45 -72.95 -21.0 -61.1 -32.55 -49.3 -31.6 -35.3 -30.55 -20.55 -19.75 -9.95 -11.7 -5.2 -4.7 -1.95 4.15 2.1 11.3 3.65 18.5 2.15 24.5 -1.55 29.15 -4.4 30.15 -9.75 L30.55 -11.7 M6.4 -4.25 Q7.25 -2.75 9.6 -3.15 11.9 -3.55 12.75 -2.85" fill="none" stroke="#000000" stroke-linecap="round" stroke-linejoin="round" stroke-width="1.0"/>
    <path d="M30.55 -11.7 L32.0 -11.8" fill="none" stroke="#000000" stroke-linecap="round" stroke-linejoin="round" stroke-width="0.05"/>
  </g>
</svg>
