<?xml version="1.0" encoding="UTF-8" standalone="no"?>
<svg xmlns:xlink="http://www.w3.org/1999/xlink" height="13.8px" width="21.4px" xmlns="http://www.w3.org/2000/svg">
  <g transform="matrix(1.0, 0.0, 0.0, 1.0, -2.0, -0.8)">
    <path d="M16.25 13.25 L15.8 13.25 12.35 12.95 12.2 12.95 Q9.55 12.2 9.25 8.5 9.3 7.1 9.65 6.1 10.1 4.75 11.05 4.2 L11.3 4.25 12.5 4.35 Q11.2 4.7 10.75 6.1 10.5 6.85 10.5 7.85 10.35 12.45 14.45 12.8 17.5 12.8 17.85 9.3 L17.75 7.1 17.05 5.2 18.15 5.45 Q18.7 6.2 18.75 7.5 L18.5 10.05 Q17.85 12.9 16.25 13.25" fill="#000000" fill-rule="evenodd" stroke="none"/>
    <path d="M19.3 11.3 L18.5 12.95 16.25 13.25 Q17.85 12.9 18.5 10.05 L18.75 7.5 19.5 7.9 19.3 11.3 M12.2 12.95 L8.0 11.6 Q5.2 9.1 5.0 6.3 L9.65 6.1 Q9.3 7.1 9.25 8.5 9.55 12.2 12.2 12.95" fill="#ffffff" fill-rule="evenodd" stroke="none"/>
    <path d="M18.5 12.95 L19.35 14.6 17.8 13.75 Q12.55 14.0 8.55 12.6 L5.8 13.45 7.55 11.85 Q2.15 8.1 2.0 2.5 L4.65 2.65 3.7 0.8 Q8.5 1.95 13.35 2.35 L23.4 4.3 21.25 4.85 Q22.0 6.1 22.65 8.5 L20.15 6.0 18.15 5.45 17.05 5.2 13.2 4.45 12.5 4.35 11.3 4.25 11.05 4.2 Q7.3 3.9 5.05 4.9 4.95 5.6 5.0 6.3 5.2 9.1 8.0 11.6 L12.2 12.95 12.35 12.95 15.8 13.25 16.25 13.25 18.5 12.95" fill="#05243f" fill-rule="evenodd" stroke="none"/>
    <path d="M20.15 6.0 Q20.35 8.7 19.3 11.3 L19.5 7.9 18.75 7.5 Q18.7 6.2 18.15 5.45 L20.15 6.0 M5.0 6.3 Q4.95 5.6 5.05 4.9 7.3 3.9 11.05 4.2 10.1 4.75 9.65 6.1 L5.0 6.3" fill="#b6b6b6" fill-rule="evenodd" stroke="none"/>
    <path d="M11.25 8.7 Q12.45 10.2 14.85 10.35 16.5 10.6 17.5 9.25 17.05 11.9 14.65 12.25 11.6 11.95 11.25 8.7" fill="#a6f7ff" fill-rule="evenodd" stroke="none"/>
    <path d="M10.75 6.1 Q15.1 6.2 17.75 7.1 L17.85 9.3 Q17.5 12.8 14.45 12.8 10.35 12.45 10.5 7.85 10.5 6.85 10.75 6.1 M11.25 8.7 Q11.6 11.95 14.65 12.25 17.05 11.9 17.5 9.25 16.5 10.6 14.85 10.35 12.45 10.2 11.25 8.7" fill="#3bd9e7" fill-rule="evenodd" stroke="none"/>
    <path d="M12.5 4.35 L13.2 4.45 17.05 5.2 17.75 7.1 Q15.1 6.2 10.75 6.1 11.2 4.7 12.5 4.35" fill="#27939c" fill-rule="evenodd" stroke="none"/>
    <path d="M15.9 8.05 Q15.9 8.75 15.55 9.25 15.2 9.8 14.7 9.8 14.2 9.8 13.85 9.25 13.5 8.75 13.5 8.05 13.5 7.35 13.85 6.8 14.2 6.3 14.7 6.3 15.2 6.3 15.55 6.8 15.9 7.35 15.9 8.05" fill="#ffffff" fill-rule="evenodd" stroke="none"/>
  </g>
</svg>
