<?xml version="1.0" encoding="UTF-8" standalone="no"?>
<svg xmlns:xlink="http://www.w3.org/1999/xlink" height="7.95px" width="28.85px" xmlns="http://www.w3.org/2000/svg">
  <g transform="matrix(1.0, 0.0, 0.0, 1.0, 1.5, 21.6)">
    <path d="M1.1 -20.75 Q1.1 -20.4 0.7 -20.15 L-0.2 -19.9 -1.15 -20.15 Q-1.5 -20.4 -1.5 -20.75 L-1.15 -21.35 -0.2 -21.6 0.7 -21.35 Q1.1 -21.1 1.1 -20.75 M6.6 -15.0 L6.1 -14.65 4.95 -14.5 3.75 -14.65 Q3.3 -14.8 3.3 -15.0 L3.75 -15.35 4.95 -15.5 6.1 -15.35 6.6 -15.0 M23.8 -18.9 L23.6 -18.5 23.1 -18.3 Q22.8 -18.3 22.6 -18.5 L22.4 -18.9 22.6 -19.35 23.1 -19.5 23.6 -19.35 23.8 -18.9 M27.35 -14.25 L27.0 -13.85 26.15 -13.65 25.3 -13.85 Q24.95 -14.0 24.95 -14.25 24.95 -14.5 25.3 -14.7 L26.15 -14.85 27.0 -14.7 27.35 -14.25" fill="#ffffff" fill-rule="evenodd" stroke="none"/>
  </g>
</svg>
