<?xml version="1.0" encoding="UTF-8" standalone="no"?>
<svg xmlns:xlink="http://www.w3.org/1999/xlink" height="115.0px" width="106.9px" xmlns="http://www.w3.org/2000/svg">
  <g transform="matrix(1.0, 0.0, 0.0, 1.0, 53.45, 57.5)">
    <path d="M-41.3 24.5 Q-35.25 30.4 -24.2 35.65 -13.6 40.75 -12.15 43.75 -11.85 42.75 -12.0 41.75 -8.8 47.95 -8.7 53.15 -6.8 45.05 -12.55 35.55 -4.35 46.65 -2.05 54.0 L-1.95 53.3 Q-0.55 43.0 -9.5 29.95 -13.65 24.5 -14.45 20.5 L-11.45 21.9 -11.0 22.05 -10.2 22.3 Q-16.25 16.35 -17.45 6.2 -15.3 2.9 -12.2 -0.45 L-6.35 -6.2 -5.8 -3.65 -5.55 -2.05 Q-4.25 6.7 -7.5 9.7 L-5.25 7.35 -5.05 7.1 Q-2.3 3.5 -1.1 -1.6 L-0.95 -2.25 Q-0.6 -4.1 -0.4 -6.1 L-0.3 -8.35 -0.15 -6.2 0.25 -2.35 0.35 -1.45 Q1.75 8.6 5.85 17.65 7.7 10.6 7.4 0.25 8.4 9.9 8.7 19.15 13.75 13.25 18.15 -0.75 L18.4 -1.55 16.55 8.55 Q20.55 4.7 22.35 -0.85 L22.75 -2.3 23.2 -0.9 Q24.55 3.65 23.65 6.25 L24.85 3.8 25.95 0.95 Q24.75 14.65 18.4 22.05 L19.05 21.6 Q22.55 18.9 24.0 17.2 L23.7 19.85 Q20.65 24.1 15.25 27.1 11.0 29.5 5.25 31.1 6.9 33.25 5.75 39.4 4.55 46.1 7.2 51.95 L7.4 52.35 Q6.75 47.5 7.75 42.3 7.35 45.5 9.55 48.7 9.65 42.9 11.25 37.2 16.8 37.35 22.8 32.1 24.0 29.75 27.2 27.35 L29.8 25.6 Q30.25 25.3 30.8 25.05 L30.75 25.25 30.9 24.95 Q32.6 24.0 34.65 23.0 43.15 19.7 45.0 3.35 L46.2 5.85 Q50.05 14.85 44.75 22.3 L47.05 19.65 Q51.0 14.0 49.55 6.75 49.2 2.25 45.45 -2.45 L45.45 -11.2 45.6 -11.65 45.6 -11.15 47.1 -17.5 Q45.9 -18.35 44.85 -19.25 L44.0 -20.0 43.85 -20.15 Q40.95 -22.9 39.5 -25.9 38.6 -27.8 38.3 -29.75 30.05 -39.8 11.15 -48.4 L10.9 -48.5 -13.95 -54.0 Q-16.1 -49.95 -49.1 -41.1 L-32.85 -35.75 -34.15 -34.2 Q-39.5 -27.35 -42.0 -20.95 L-49.95 -7.35 Q-45.3 -1.5 -43.75 3.2 L-45.8 19.05 Q-44.05 21.85 -41.3 24.5 Z" fill="none" stroke="#000000" stroke-linecap="round" stroke-linejoin="round" stroke-width="1.0"/>
  </g>
</svg>
