<?xml version="1.0" encoding="UTF-8" standalone="no"?>
<svg xmlns:xlink="http://www.w3.org/1999/xlink" height="32.55px" width="42.3px" xmlns="http://www.w3.org/2000/svg">
  <g transform="matrix(1.0, 0.0, 0.0, 1.0, 3.5, 14.5)">
    <path d="M12.35 -9.55 L15.2 -9.75 20.55 -6.55 Q24.35 -3.75 26.9 -0.2 28.8 4.0 28.25 6.9 L26.9 9.75 Q22.7 13.75 18.15 14.55 L15.6 14.25 Q10.35 11.1 9.25 9.2 11.55 10.2 14.75 10.8 20.7 11.35 27.4 8.6 L26.1 2.05 Q23.05 -3.15 19.2 -6.1 16.05 -8.55 12.35 -9.55 M33.05 -10.1 L34.1 -8.95 Q35.85 -6.1 35.05 -3.9 34.2 -1.75 32.8 -0.8 31.9 -0.2 29.8 3.85 30.55 -0.5 23.05 -6.5 L33.05 -10.1 M19.2 -6.1 L20.55 -6.55 19.2 -6.1" fill="#3a3b48" fill-rule="evenodd" stroke="none"/>
    <path d="M2.85 0.25 L3.4 -0.7 Q6.35 -5.4 10.8 -9.45 L11.3 -9.5 12.35 -9.55 Q16.05 -8.55 19.2 -6.1 L14.15 -4.5 19.2 -6.1 Q23.05 -3.15 26.1 2.05 L27.4 8.6 Q20.7 11.35 14.75 10.8 11.55 10.2 9.25 9.2 2.65 6.4 2.85 0.25 M3.4 -0.7 L3.9 -0.85 3.4 -0.7" fill="#16171c" fill-rule="evenodd" stroke="none"/>
    <path d="M32.3 -10.55 L33.05 -10.1 23.05 -6.5 Q30.55 -0.5 29.8 3.85 29.05 5.2 28.25 6.9 28.8 4.0 26.9 -0.2 24.35 -3.75 20.55 -6.55 24.6 -8.85 32.3 -10.55" fill="#24ecff" fill-rule="evenodd" stroke="none"/>
    <path d="M2.9 -0.55 L2.85 0.25 Q2.65 6.4 9.25 9.2 10.35 11.1 15.6 14.25 10.5 13.45 6.35 11.05 0.35 6.65 1.35 0.0 L2.9 -0.55 M17.05 -9.9 L27.45 -10.7 Q30.25 -11.35 32.05 -10.65 L20.05 -8.65 17.05 -9.9" fill="#1d1e25" fill-rule="evenodd" stroke="none"/>
    <path d="M15.2 -9.75 L17.05 -9.9 20.05 -8.65 32.05 -10.65 32.3 -10.55 Q24.6 -8.85 20.55 -6.55 L15.2 -9.75" fill="#1aafbd" fill-rule="evenodd" stroke="none"/>
    <path d="M19.2 -6.1 L14.15 -4.5 M20.55 -6.55 L19.2 -6.1" fill="none" stroke="#000000" stroke-linecap="round" stroke-linejoin="round" stroke-width="0.05"/>
    <path d="M3.4 -0.7 L2.9 -0.55 2.85 0.25 3.4 -0.7 Q6.35 -5.4 10.8 -9.45 L11.3 -9.5 12.35 -9.55 15.2 -9.75 17.05 -9.9 27.45 -10.7 Q30.25 -11.35 32.05 -10.65 L32.3 -10.55 33.05 -10.1 34.1 -8.95 Q35.85 -6.1 35.05 -3.9 34.2 -1.75 32.8 -0.8 31.9 -0.2 29.8 3.85 29.05 5.2 28.25 6.9 L26.9 9.75 Q22.7 13.75 18.15 14.55 L15.6 14.25 Q10.5 13.45 6.35 11.05 0.35 6.65 1.35 0.0 L2.9 -0.55 3.0 -1.6 M3.9 -0.85 L3.4 -0.7 M19.2 -6.1 Q16.05 -8.55 12.35 -9.55 M19.2 -6.1 Q23.05 -3.15 26.1 2.05 L27.4 8.6 Q20.7 11.35 14.75 10.8 11.55 10.2 9.25 9.2 2.65 6.4 2.85 0.25" fill="none" stroke="#000000" stroke-linecap="round" stroke-linejoin="round" stroke-width="1.0"/>
    <path d="M6.2 -0.7 L6.4 -1.2 Q7.3 -3.3 8.3 -4.85 L9.05 -5.95 10.75 -8.0 9.05 -5.95 8.3 -4.85 Q6.7 -2.5 5.1 -1.9 1.55 -1.05 0.0 -2.6 L3.35 -4.35 Q5.95 -8.05 8.35 -9.75 9.35 -10.0 10.75 -8.0 12.75 -9.95 15.4 -10.4 16.9 -10.2 17.5 -7.6 12.05 0.4 9.7 1.9 6.9 2.0 6.2 -0.7 M17.6 -7.1 L18.0 -7.5 Q19.9 -7.95 21.75 -4.6 L21.95 -4.3 24.45 0.9 Q26.75 2.35 28.0 4.05 L32.6 7.0 Q33.2 9.0 32.25 9.8 L21.1 3.7 20.1 4.6 21.15 -0.8 21.45 -1.65 16.9 5.3 Q15.15 6.95 12.6 4.75 13.35 0.05 15.1 -3.4 16.2 -5.45 17.6 -7.1 M21.6 -2.2 L21.45 -1.65 21.6 -2.2" fill="#ffebd2" fill-rule="evenodd" stroke="none"/>
    <path d="M8.3 -4.85 Q7.3 -3.3 6.4 -1.2 L6.2 -0.7 Q6.9 2.0 9.7 1.9 12.05 0.4 17.5 -7.6 L17.6 -7.1 Q16.2 -5.45 15.1 -3.4 13.35 0.05 12.6 4.75 15.15 6.95 16.9 5.3 L21.45 -1.65 21.15 -0.8 20.1 4.6 21.1 3.7 32.25 9.8 Q31.45 10.55 29.4 10.3 24.9 10.05 22.0 7.35 L20.7 5.7 22.0 7.35 Q19.95 9.95 16.45 8.85 12.9 7.75 12.25 6.7 11.55 5.6 7.65 4.85 3.7 4.05 4.2 0.4 L3.3 0.4 Q-0.05 0.4 0.0 -2.6 1.55 -1.05 5.1 -1.9 6.7 -2.5 8.3 -4.85 M6.4 -1.2 Q5.5 0.25 4.2 0.4 5.5 0.25 6.4 -1.2 M12.6 4.75 Q12.5 7.3 15.2 7.9 17.45 7.25 18.6 5.25 L21.15 -0.8 18.6 5.25 Q17.45 7.25 15.2 7.9 12.5 7.3 12.6 4.75 M15.1 -3.4 L11.7 1.75 Q9.65 4.75 7.55 4.25 5.7 2.9 5.65 0.8 L6.2 -0.7 5.65 0.8 Q5.7 2.9 7.55 4.25 9.65 4.75 11.7 1.75 L15.1 -3.4" fill="#dbb5a2" fill-rule="evenodd" stroke="none"/>
    <path d="M8.3 -4.85 Q7.3 -3.3 6.4 -1.2 L6.2 -0.7 5.65 0.8 Q5.7 2.9 7.55 4.25 9.65 4.75 11.7 1.75 L15.1 -3.4 Q13.35 0.05 12.6 4.75 12.5 7.3 15.2 7.9 17.45 7.25 18.6 5.25 L21.15 -0.8 21.45 -1.65 21.6 -2.2 M17.5 -7.6 Q16.9 -10.2 15.4 -10.4 12.75 -9.95 10.75 -8.0 L9.05 -5.95 8.3 -4.85 M0.0 -2.6 Q-0.05 0.4 3.3 0.4 L4.2 0.4 Q5.5 0.25 6.4 -1.2 M10.75 -8.0 Q9.35 -10.0 8.35 -9.75 5.95 -8.05 3.35 -4.35 L0.0 -2.6 M32.25 9.8 Q33.2 9.0 32.6 7.0 L28.0 4.05 Q26.75 2.35 24.45 0.9 L21.95 -4.3 21.75 -4.6 Q19.9 -7.95 18.0 -7.5 L17.6 -7.1 Q16.2 -5.45 15.1 -3.4 M17.6 -7.1 L17.5 -7.6 M22.0 7.35 L20.7 5.7 M22.0 7.35 Q24.9 10.05 29.4 10.3 31.45 10.55 32.25 9.8 M4.2 0.4 Q3.7 4.05 7.65 4.85 11.55 5.6 12.25 6.7 12.9 7.75 16.45 8.85 19.95 9.95 22.0 7.35" fill="none" stroke="#000000" stroke-linecap="round" stroke-linejoin="round" stroke-width="1.0"/>
  </g>
</svg>
