<?xml version="1.0" encoding="UTF-8" standalone="no"?>
<svg xmlns:xlink="http://www.w3.org/1999/xlink" height="97.8px" width="111.4px" xmlns="http://www.w3.org/2000/svg">
  <g transform="matrix(1.0, 0.0, 0.0, 1.0, 45.25, -17.15)">
    <path d="M4.65 20.25 Q5.8 39.6 -5.15 63.3 -0.3 61.2 1.05 53.3 1.6 61.05 7.45 69.5 4.75 61.6 11.45 53.7 17.5 74.6 24.25 82.5 19.2 68.85 28.25 56.5 36.8 70.8 35.25 79.7 43.15 78.6 47.4 54.9 45.75 65.6 50.65 74.9 47.35 54.1 53.55 33.25 L55.5 35.5 52.85 53.65 Q51.25 70.3 65.65 84.3 L64.35 84.05 Q59.3 81.55 54.2 74.7 54.8 91.3 63.0 97.1 L59.95 95.45 Q49.35 85.95 45.1 73.65 L43.0 79.8 Q35.05 89.15 40.3 97.65 29.95 93.4 32.6 82.2 23.15 89.05 29.4 99.0 19.15 89.9 17.9 78.7 17.4 79.3 17.05 80.05 9.4 82.6 16.65 99.7 17.85 105.5 8.55 113.4 L6.45 114.45 Q17.4 102.3 12.05 92.05 3.4 85.55 3.75 72.85 L3.1 73.65 2.8 73.95 Q-3.95 76.05 -1.55 90.3 2.9 105.05 -9.1 108.2 L-12.5 108.05 Q-3.85 107.95 -2.8 98.35 -2.15 92.6 -6.65 86.95 -9.35 82.85 -3.95 76.6 1.75 71.55 -2.1 62.45 L-2.8 64.7 -6.5 68.35 Q-5.45 66.8 -5.1 64.8 -5.45 65.85 -6.5 66.95 -11.25 72.0 -18.25 73.3 -15.1 73.55 -11.5 72.05 -10.0 71.45 -8.85 70.65 L-9.35 71.1 Q-17.0 76.55 -23.55 70.5 -28.05 64.0 -41.25 61.4 L-41.95 61.15 -44.75 60.05 Q-30.0 59.55 -21.05 68.05 -11.8 75.4 -5.55 53.65 -0.75 37.7 -2.5 19.35 L4.65 20.25 M10.9 61.6 Q10.25 63.5 10.6 66.15 10.9 68.55 10.45 70.95 L7.6 85.4 Q9.4 80.9 10.55 75.9 12.2 68.75 10.9 61.6 M28.5 63.4 Q27.95 68.45 27.95 74.1 28.0 82.25 26.65 90.0 28.5 85.25 28.7 79.45 28.9 71.4 28.5 63.4" fill="url(#gradient0)" fill-rule="evenodd" stroke="none"/>
    <path d="M64.35 84.05 Q54.9 81.95 54.2 74.7 59.3 81.55 64.35 84.05 M59.95 95.45 Q47.2 87.8 45.1 73.65 49.35 85.95 59.95 95.45 M17.05 80.05 Q14.6 84.9 17.65 94.7 20.0 107.15 8.55 113.4 17.85 105.5 16.65 99.7 9.4 82.6 17.05 80.05 M2.8 73.95 Q-1.7 79.55 -0.5 87.25 2.05 95.55 2.0 100.05 1.9 108.15 -9.1 108.2 2.9 105.05 -1.55 90.3 -3.95 76.05 2.8 73.95 M-2.8 64.7 Q-9.0 82.1 -25.3 72.6 -29.6 66.25 -41.25 61.4 -28.05 64.0 -23.55 70.5 -17.0 76.55 -9.35 71.1 L-8.85 70.65 Q-10.0 71.45 -11.5 72.05 -15.1 73.55 -18.25 73.3 -11.25 72.0 -6.5 66.95 -5.45 65.85 -5.1 64.8 -5.45 66.8 -6.5 68.35 L-2.8 64.7 M28.5 63.4 Q28.9 71.4 28.7 79.45 28.5 85.25 26.65 90.0 28.0 82.25 27.95 74.1 27.95 68.45 28.5 63.4 M10.9 61.6 Q12.2 68.75 10.55 75.9 9.4 80.9 7.6 85.4 L10.45 70.95 Q10.9 68.55 10.6 66.15 10.25 63.5 10.9 61.6" fill="#87d089" fill-rule="evenodd" stroke="none"/>
    <path d="M4.65 20.25 L46.7 25.35 53.55 33.25 Q47.35 54.1 50.65 74.9 45.75 65.6 47.4 54.9 43.15 78.6 35.25 79.7 36.8 70.8 28.25 56.5 19.2 68.85 24.25 82.5 17.5 74.6 11.45 53.7 4.75 61.6 7.45 69.5 1.6 61.05 1.05 53.3 -0.3 61.2 -5.15 63.3 5.8 39.6 4.65 20.25" fill="#79c478" fill-rule="evenodd" stroke="none"/>
    <path d="M53.55 33.25 L46.7 25.35 4.65 20.25 -2.5 19.35 -2.35 17.65 M53.55 33.25 L55.5 35.5 52.85 53.65 Q51.25 70.3 65.65 84.3 L64.35 84.05 Q54.9 81.95 54.2 74.7 54.8 91.3 63.0 97.1 L59.95 95.45 Q47.2 87.8 45.1 73.65 L43.0 79.8 Q35.05 89.15 40.3 97.65 29.95 93.4 32.6 82.2 23.15 89.05 29.4 99.0 19.15 89.9 17.9 78.7 17.4 79.3 17.05 80.05 14.6 84.9 17.65 94.7 20.0 107.15 8.55 113.4 L6.45 114.45 Q17.4 102.3 12.05 92.05 3.4 85.55 3.75 72.85 L3.1 73.65 2.8 73.95 Q-1.7 79.55 -0.5 87.25 2.05 95.55 2.0 100.05 1.9 108.15 -9.1 108.2 L-12.5 108.05 Q-3.85 107.95 -2.8 98.35 -2.15 92.6 -6.65 86.95 -9.35 82.85 -3.95 76.6 1.75 71.55 -2.1 62.45 L-2.8 64.7 Q-9.0 82.1 -25.3 72.6 -29.6 66.25 -41.25 61.4 L-41.95 61.15 -44.75 60.05 Q-30.0 59.55 -21.05 68.05 -11.8 75.4 -5.55 53.65 -0.75 37.7 -2.5 19.35" fill="none" stroke="#215f3b" stroke-linecap="round" stroke-linejoin="round" stroke-width="1.0"/>
  </g>
  <defs>
    <linearGradient gradientTransform="matrix(-0.0031, 0.041, -0.0681, -0.0051, 10.25, 74.85)" gradientUnits="userSpaceOnUse" id="gradient0" spreadMethod="pad" x1="-819.2" x2="819.2">
      <stop offset="0.054901960784313725" stop-color="#9ef3a1"/>
      <stop offset="1.0" stop-color="#efffee"/>
    </linearGradient>
  </defs>
</svg>
