<?xml version="1.0" encoding="UTF-8" standalone="no"?>
<svg xmlns:xlink="http://www.w3.org/1999/xlink" height="33.6px" width="15.05px" xmlns="http://www.w3.org/2000/svg">
  <g transform="matrix(1.0, 0.0, 0.0, 1.0, 1.15, -0.45)">
    <path d="M3.4 0.95 Q8.6 2.05 9.8 11.85 L10.2 14.85 6.95 14.05 Q5.25 6.95 3.4 0.95" fill="#ffead5" fill-rule="evenodd" stroke="none"/>
    <path d="M0.9 10.9 L0.45 8.1 Q-0.5 1.15 3.4 0.95 5.25 6.95 6.95 14.05 5.25 13.6 0.9 10.9" fill="#efc3c0" fill-rule="evenodd" stroke="none"/>
    <path d="M10.2 14.85 L11.5 27.15 Q11.95 31.95 9.3 33.2 9.15 30.75 8.65 29.65 8.05 21.2 6.95 14.05 L10.2 14.85" fill="#b2f3ca" fill-rule="evenodd" stroke="none"/>
    <path d="M9.3 33.2 L8.55 33.4 Q5.0 34.2 4.5 30.05 L2.65 20.5 Q1.7 16.15 0.9 10.9 5.25 13.6 6.95 14.05 8.05 21.2 8.65 29.65 9.15 30.75 9.3 33.2" fill="#7bb47a" fill-rule="evenodd" stroke="none"/>
    <path d="M9.3 33.2 L8.55 33.4 Q5.0 34.2 4.5 30.05 L2.65 20.5 Q1.7 16.15 0.9 10.9 L0.45 8.1 Q-0.5 1.15 3.4 0.95 8.6 2.05 9.8 11.85 L10.2 14.85 11.5 27.15 Q11.95 31.95 9.3 33.2 M6.95 14.05 Q5.25 13.6 0.9 10.9 M10.2 14.85 L6.95 14.05" fill="none" stroke="#000000" stroke-linecap="round" stroke-linejoin="round" stroke-width="1.0"/>
    <path d="M8.2 19.1 Q5.2 17.6 -0.6 11.8 L-0.65 10.05 Q5.7 15.85 10.5 18.05 7.4 17.65 8.2 19.1" fill="#032704" fill-rule="evenodd" stroke="none"/>
    <path d="M8.2 19.1 Q8.45 21.05 10.75 24.25 6.35 21.15 0.05 14.3 L-0.55 13.65 -0.6 11.8 Q5.2 17.6 8.2 19.1" fill="#3fb82d" fill-rule="evenodd" stroke="none"/>
    <path d="M10.75 24.25 Q8.45 21.05 8.2 19.1 L12.85 21.3 12.85 25.6 12.1 25.15 10.75 24.25" fill="#8ef86d" fill-rule="evenodd" stroke="none"/>
    <path d="M12.85 21.3 L8.2 19.1 Q7.4 17.65 10.5 18.05 L12.85 18.9 12.85 21.3" fill="#075b09" fill-rule="evenodd" stroke="none"/>
    <path d="M10.75 24.25 L12.1 25.15 Q12.3 26.95 13.9 29.85 10.5 28.35 7.0 24.5 3.25 20.9 0.4 20.05 L0.05 14.3 Q6.35 21.15 10.75 24.25" fill="#ffffff" fill-opacity="0.9411765" fill-rule="evenodd" stroke="none"/>
    <path d="M12.85 21.3 L8.2 19.1 Q5.2 17.6 -0.6 11.8 M12.1 25.15 Q12.3 26.95 13.9 29.85 10.5 28.35 7.0 24.5 3.25 20.9 0.4 20.05 L0.05 14.3" fill="none" stroke="#000000" stroke-linecap="round" stroke-linejoin="round" stroke-width="0.05"/>
    <path d="M10.75 24.25 L12.1 25.15 12.85 25.6 12.85 21.3 12.85 18.9 10.5 18.05 Q5.7 15.85 -0.65 10.05 L-0.6 11.8 -0.55 13.65 0.05 14.3 Q6.35 21.15 10.75 24.25" fill="none" stroke="#000000" stroke-linecap="round" stroke-linejoin="round" stroke-width="1.0"/>
  </g>
</svg>
