<?xml version="1.0" encoding="UTF-8" standalone="no"?>
<svg xmlns:xlink="http://www.w3.org/1999/xlink" height="40.95px" width="25.85px" xmlns="http://www.w3.org/2000/svg">
  <g transform="matrix(1.0, 0.0, 0.0, 1.0, 0.5, -0.65)">
    <path d="M15.4 24.6 L15.55 24.55 16.3 25.4 16.8 24.65 16.8 24.6 16.95 24.6 17.0 24.7 17.05 24.95 16.85 25.8 17.8 26.35 18.55 25.5 Q18.8 25.35 18.75 25.65 L18.65 26.35 18.6 26.6 19.75 27.05 Q20.05 27.25 19.7 27.3 L18.6 27.3 18.2 27.2 17.65 27.65 Q17.4 27.35 17.5 26.85 L16.85 26.55 Q16.9 27.25 16.5 27.55 15.9 27.1 15.95 26.35 L16.1 26.0 15.8 25.8 Q15.15 25.15 15.4 24.6" fill="#3fb82d" fill-rule="evenodd" stroke="none"/>
    <path d="M15.4 24.6 Q15.15 25.15 15.8 25.8 L16.1 26.0 15.95 26.35 Q15.9 27.1 16.5 27.55 16.9 27.25 16.85 26.55 L17.5 26.85 Q17.4 27.35 17.65 27.65 L18.2 27.2 18.6 27.3 19.7 27.3 Q20.05 27.25 19.75 27.05 L18.6 26.6 18.65 26.35 18.75 25.65 Q18.8 25.35 18.55 25.5 L17.8 26.35 16.85 25.8 17.05 24.95 17.0 24.7 16.95 24.6 16.8 24.6 16.8 24.65 16.3 25.4 15.55 24.55 15.4 24.6 M12.85 23.0 L15.3 23.85 Q18.05 22.85 20.6 24.75 22.2 26.45 24.85 27.85 20.1 29.75 15.8 28.5 14.2 27.85 14.5 25.45 L12.85 23.0" fill="#8ef86d" fill-rule="evenodd" stroke="none"/>
    <path d="M12.85 23.0 L15.3 23.85 Q18.05 22.85 20.6 24.75 22.2 26.45 24.85 27.85 20.1 29.75 15.8 28.5 14.2 27.85 14.5 25.45 L12.85 23.0 Z" fill="none" stroke="#000000" stroke-linecap="round" stroke-linejoin="round" stroke-width="1.0"/>
    <path d="M12.6 22.0 L12.75 22.3 12.6 22.0 M15.55 26.2 L15.65 26.3 19.75 29.6 Q20.95 31.7 19.8 32.55 18.1 31.0 13.8 28.85 L11.3 27.0 Q12.55 25.7 15.55 26.2 M19.0 32.85 Q19.2 34.25 20.35 35.6 21.65 37.15 22.0 38.2 21.75 38.9 20.9 38.9 16.9 35.4 15.55 31.55 L16.35 32.15 Q17.4 32.9 19.0 32.85" fill="#ffead5" fill-rule="evenodd" stroke="none"/>
    <path d="M19.8 32.55 L19.3 32.85 19.0 32.85 Q17.4 32.9 16.35 32.15 L15.55 31.55 Q16.9 35.4 20.9 38.9 20.1 38.85 18.8 38.2 17.6 37.6 16.35 36.3 L17.1 38.75 Q17.35 40.25 16.9 40.8 16.35 41.25 15.1 39.95 L13.2 37.6 12.2 35.75 Q13.0 40.05 11.65 41.05 10.65 41.4 9.85 38.6 L8.8 34.2 Q8.75 30.95 13.65 30.05 L13.25 29.95 Q11.4 29.3 12.0 29.15 12.5 29.65 13.25 29.95 12.5 29.65 12.0 29.15 11.25 28.35 11.25 26.95 L11.3 27.0 13.8 28.85 Q18.1 31.0 19.8 32.55 M7.3 23.6 L6.8 22.0 6.7 21.75 6.75 21.8 6.8 22.0 7.2 23.0 7.25 23.3 7.3 23.6 M13.65 30.05 L15.55 31.55 13.65 30.05 M14.3 33.65 Q14.65 34.35 16.35 36.3 14.65 34.35 14.3 33.65" fill="#efc3c0" fill-rule="evenodd" stroke="none"/>
    <path d="M6.25 1.15 L7.6 4.25 Q8.6 6.55 10.2 14.5 11.25 19.5 12.6 22.0 L12.75 22.3 Q14.2 24.95 15.55 26.2 12.55 25.7 11.3 27.0 L11.25 26.95 Q9.85 25.45 9.25 23.65 L9.2 23.55 9.2 23.45 9.2 23.1 9.15 23.1 8.8 17.9 Q7.7 9.75 3.3 1.5 5.2 0.75 6.25 1.15" fill="#b2f3ca" fill-rule="evenodd" stroke="none"/>
    <path d="M8.8 34.2 L8.35 31.45 Q8.0 29.2 8.0 27.55 L7.8 26.3 7.35 24.2 7.3 23.6 7.25 23.3 7.2 23.0 6.8 22.0 6.75 21.8 6.8 21.8 6.75 21.75 4.35 15.7 Q1.6 10.2 0.85 7.3 L0.0 3.55 Q0.1 3.65 0.4 3.35 1.2 2.6 3.3 1.5 7.7 9.75 8.8 17.9 L9.15 23.1 9.2 23.1 9.2 23.45 9.2 23.55 9.25 23.65 Q9.85 25.45 11.25 26.95 11.25 28.35 12.0 29.15 11.4 29.3 13.25 29.95 L13.65 30.05 Q8.75 30.95 8.8 34.2" fill="#7bb47a" fill-rule="evenodd" stroke="none"/>
    <path d="M6.25 1.15 L7.6 4.25 Q8.6 6.55 10.2 14.5 11.25 19.5 12.6 22.0 L12.75 22.3 Q14.2 24.95 15.55 26.2 L15.65 26.3 19.75 29.6 Q20.95 31.7 19.8 32.55 L19.3 32.85 19.0 32.85 Q19.2 34.25 20.35 35.6 21.65 37.15 22.0 38.2 21.75 38.9 20.9 38.9 20.1 38.85 18.8 38.2 17.6 37.6 16.35 36.3 L17.1 38.75 Q17.35 40.25 16.9 40.8 16.35 41.25 15.1 39.95 L13.2 37.6 12.2 35.75 Q13.0 40.05 11.65 41.05 10.65 41.4 9.85 38.6 L8.8 34.2 8.35 31.45 Q8.0 29.2 8.0 27.55 L7.8 26.3 7.35 24.2 7.3 23.6 6.8 22.0 6.7 21.75 M6.75 21.8 L6.75 21.75 4.35 15.7 Q1.6 10.2 0.85 7.3 L0.0 3.55 M6.8 22.0 L6.75 21.8 M7.3 23.6 L7.25 23.3 7.2 23.0 6.8 22.0 M12.6 22.0 L12.75 22.3 M13.25 29.95 Q12.5 29.65 12.0 29.15 11.25 28.35 11.25 26.95 M11.3 27.0 Q12.55 25.7 15.55 26.2 M8.8 34.2 Q8.75 30.95 13.65 30.05 L13.25 29.95 M19.0 32.85 Q17.4 32.9 16.35 32.15 L15.55 31.55 13.65 30.05 M16.35 36.3 Q14.65 34.35 14.3 33.65" fill="none" stroke="#000000" stroke-linecap="round" stroke-linejoin="round" stroke-width="1.0"/>
    <path d="M7.15 28.7 L7.05 28.75 6.95 29.9 6.15 29.55 6.1 29.6 6.0 29.65 6.0 29.75 6.1 30.0 6.75 30.5 6.35 31.55 5.25 31.35 Q5.0 31.35 5.2 31.6 L5.7 32.1 5.9 32.2 5.3 33.3 Q5.15 33.65 5.45 33.45 L6.3 32.8 6.55 32.45 7.2 32.5 Q7.25 32.1 6.9 31.8 L7.2 31.15 8.05 31.7 Q8.25 31.0 7.75 30.45 L7.45 30.25 7.6 29.9 Q7.7 29.0 7.15 28.7 M8.2 25.85 L8.35 28.85 Q10.0 30.6 9.15 32.05 6.55 35.65 1.8 37.0 3.05 34.3 3.3 31.95 4.15 28.9 6.8 28.05 L8.2 25.85" fill="#8ef86d" fill-rule="evenodd" stroke="none"/>
    <path d="M7.15 28.7 Q7.7 29.0 7.6 29.9 L7.45 30.25 7.75 30.45 Q8.25 31.0 8.05 31.7 L7.2 31.15 6.9 31.8 Q7.25 32.1 7.2 32.5 L6.55 32.45 6.3 32.8 5.45 33.45 Q5.15 33.65 5.3 33.3 L5.9 32.2 5.7 32.1 5.2 31.6 Q5.0 31.35 5.25 31.35 L6.35 31.55 6.75 30.5 6.1 30.0 6.0 29.75 6.0 29.65 6.1 29.6 6.15 29.55 6.95 29.9 7.05 28.75 7.15 28.7" fill="#3fb82d" fill-rule="evenodd" stroke="none"/>
    <path d="M8.2 25.85 L6.8 28.05 Q4.15 28.9 3.3 31.95 3.05 34.3 1.8 37.0 6.55 35.65 9.15 32.05 10.0 30.6 8.35 28.85 L8.2 25.85 Z" fill="none" stroke="#000000" stroke-linecap="round" stroke-linejoin="round" stroke-width="1.0"/>
    <path d="M10.4 24.4 L9.65 21.4 12.95 20.8 14.2 23.15 Q12.05 23.6 10.4 24.4" fill="#8ef86d" fill-rule="evenodd" stroke="none"/>
    <path d="M9.65 21.4 L10.4 24.4 Q8.05 25.55 6.8 27.55 L6.35 24.0 Q7.2 22.2 9.65 21.4" fill="#3fb82d" fill-rule="evenodd" stroke="none"/>
    <path d="M10.4 24.4 Q12.05 23.6 14.2 23.15 L12.95 20.8 9.65 21.4 Q7.2 22.2 6.35 24.0 L6.8 27.55 Q8.05 25.55 10.4 24.4 Z" fill="none" stroke="#000000" stroke-linecap="round" stroke-linejoin="round" stroke-width="1.0"/>
  </g>
</svg>
