<?xml version="1.0" encoding="UTF-8" standalone="no"?>
<svg xmlns:xlink="http://www.w3.org/1999/xlink" height="44.2px" width="17.95px" xmlns="http://www.w3.org/2000/svg">
  <g transform="matrix(1.0, 0.0, 0.0, 1.0, 0.45, 0.0)">
    <path d="M0.45 9.9 L0.6 9.35 0.15 11.4 0.15 11.05 0.15 11.4 0.1 11.55 0.15 11.05 0.35 10.25 0.45 9.9 0.35 10.25 0.65 8.8 0.45 9.9" fill="#2d69d0" fill-rule="evenodd" stroke="none"/>
    <path d="M0.15 11.4 L0.6 9.35 1.35 5.55 1.8 6.95 Q2.95 8.1 6.3 9.75 6.05 19.35 6.7 28.35 7.3 37.3 10.3 43.5 6.15 42.95 3.9 40.45 2.3 33.75 1.35 26.7 0.4 20.05 0.15 15.15 L0.1 11.55 0.15 11.4 0.15 15.15 0.15 11.4" fill="#efc3c0" fill-rule="evenodd" stroke="none"/>
    <path d="M6.3 9.75 Q16.55 12.2 16.85 16.1 L16.9 17.15 Q17.1 15.2 16.95 26.7 L16.6 39.05 16.15 42.05 Q14.95 43.65 12.9 43.7 L10.3 43.5 Q7.3 37.3 6.7 28.35 6.05 19.35 6.3 9.75" fill="#ffead5" fill-rule="evenodd" stroke="none"/>
    <path d="M6.3 9.75 Q2.95 8.1 1.8 6.95 3.05 4.85 5.3 2.9 13.7 -2.4 16.05 2.05 L16.85 16.1 Q16.55 12.2 6.3 9.75" fill="#075b09" fill-rule="evenodd" stroke="none"/>
    <path d="M0.45 9.9 L0.35 10.25 0.15 11.05 0.15 11.4 0.6 9.35 1.35 5.55 0.65 8.8 0.45 9.9 M0.15 11.4 L0.1 11.55 0.15 15.15 0.15 11.4 M0.15 11.05 L0.1 11.55 M0.35 10.25 L0.65 8.8 M1.8 6.95 Q2.95 8.1 6.3 9.75 16.55 12.2 16.85 16.1 L16.05 2.05 M1.8 6.95 L1.35 5.55 M10.3 43.5 L12.9 43.7 Q14.95 43.65 16.15 42.05 L16.6 39.05 16.95 26.7 Q17.1 15.2 16.9 17.15 L16.85 16.1 M10.3 43.5 Q6.15 42.95 3.9 40.45 2.3 33.75 1.35 26.7 0.4 20.05 0.15 15.15" fill="none" stroke="#000000" stroke-linecap="round" stroke-linejoin="round" stroke-width="1.0"/>
  </g>
</svg>
