<?xml version="1.0" encoding="UTF-8" standalone="no"?>
<svg xmlns:xlink="http://www.w3.org/1999/xlink" height="47.55px" width="15.95px" xmlns="http://www.w3.org/2000/svg">
  <g transform="matrix(1.0, 0.0, 0.0, 1.0, 0.5, -1.5)">
    <path d="M12.3 37.85 L12.3 38.2 12.1 38.6 12.35 36.35 12.3 37.85" fill="#ffead5" fill-rule="evenodd" stroke="none"/>
    <path d="M2.3 2.05 Q2.85 1.75 2.25 1.8 8.5 0.9 12.45 2.5 11.35 22.7 11.65 26.05 11.9 29.35 12.4 29.4 L11.7 30.25 Q9.2 29.4 7.0 28.1 L6.9 27.0 Q3.05 14.05 2.3 2.05" fill="#b2f3ca" fill-rule="evenodd" stroke="none"/>
    <path d="M2.3 2.05 Q3.05 14.05 6.9 27.0 L7.0 28.1 Q5.65 27.25 5.45 26.4 L3.0 18.3 Q-0.05 9.6 0.0 2.7 L1.65 2.3 2.3 2.05" fill="#7bb47a" fill-rule="evenodd" stroke="none"/>
    <path d="M7.2 31.0 L11.9 33.1 14.0 30.35 Q13.65 34.3 12.3 37.85 L12.35 36.35 12.1 38.6 12.05 38.7 12.05 40.25 Q14.2 42.65 14.7 43.85 15.1 44.8 14.9 46.4 12.1 47.9 7.15 44.0 L7.15 41.65 Q5.55 40.7 4.65 39.65 4.85 38.95 5.35 38.15 L6.85 36.0 7.3 35.35 7.05 35.9 7.5 35.1 7.3 35.0 7.2 31.0 M8.3 39.6 Q9.65 39.5 12.05 40.25 9.65 39.5 8.3 39.6" fill="#8ef86d" fill-rule="evenodd" stroke="none"/>
    <path d="M4.65 39.65 Q3.5 38.3 3.5 36.75 4.45 36.15 4.8 35.2 L3.7 28.55 7.2 31.0 7.3 35.0 7.5 35.1 7.05 35.9 7.3 35.35 6.85 36.0 5.35 38.15 Q4.85 38.95 4.65 39.65" fill="#3fb82d" fill-rule="evenodd" stroke="none"/>
    <path d="M7.0 28.1 Q9.2 29.4 11.7 30.25 L12.4 29.4 Q13.8 26.95 14.1 25.25 14.25 27.85 14.0 30.35 L11.9 33.1 7.2 31.0 7.0 28.1 M5.4 42.1 Q3.95 41.5 4.65 39.65 5.55 40.7 7.15 41.65 L7.15 44.0 Q12.1 47.9 14.9 46.4 L14.75 47.1 Q14.25 49.15 10.8 48.35 7.3 47.55 4.9 44.65 5.6 42.45 5.4 42.1" fill="#075b09" fill-rule="evenodd" stroke="none"/>
    <path d="M5.45 26.4 Q5.65 27.25 7.0 28.1 L7.2 31.0 3.7 28.55 3.1 25.1 5.45 26.4 M5.4 42.1 Q3.65 43.1 3.15 42.95 1.5 42.2 1.15 40.45 0.8 38.6 2.9 37.05 L3.5 36.75 Q3.5 38.3 4.65 39.65 3.95 41.5 5.4 42.1" fill="#032704" fill-rule="evenodd" stroke="none"/>
    <path d="M7.0 28.1 Q9.2 29.4 11.7 30.25 L12.4 29.4 Q11.9 29.35 11.65 26.05 11.35 22.7 12.45 2.5 M0.0 2.7 Q-0.05 9.6 3.0 18.3 L5.45 26.4 Q5.65 27.25 7.0 28.1 M7.2 31.0 L11.9 33.1 14.0 30.35 Q14.25 27.85 14.1 25.25 13.8 26.95 12.4 29.4 M3.7 28.55 L3.1 25.1 5.45 26.4 M3.5 36.75 L2.9 37.05 Q0.8 38.6 1.15 40.45 1.5 42.2 3.15 42.95 3.65 43.1 5.4 42.1 5.6 42.45 4.9 44.65 7.3 47.55 10.8 48.35 14.25 49.15 14.75 47.1 L14.9 46.4 Q15.1 44.8 14.7 43.85 14.2 42.65 12.05 40.25 9.65 39.5 8.3 39.6 M4.65 39.65 Q3.5 38.3 3.5 36.75 4.45 36.15 4.8 35.2 L3.7 28.55 7.2 31.0 M4.65 39.65 Q5.55 40.7 7.15 41.65 L7.15 44.0 Q12.1 47.9 14.9 46.4 M12.1 38.6 L12.05 38.7 12.05 40.25 M12.3 37.85 L12.3 38.2 12.1 38.6 M12.3 37.85 Q13.65 34.3 14.0 30.35" fill="none" stroke="#000000" stroke-linecap="round" stroke-linejoin="round" stroke-width="1.0"/>
  </g>
</svg>
