<?xml version="1.0" encoding="UTF-8" standalone="no"?>
<svg xmlns:xlink="http://www.w3.org/1999/xlink" height="81.95px" width="40.9px" xmlns="http://www.w3.org/2000/svg">
  <g transform="matrix(1.0, 0.0, 0.0, 1.0, -0.55, 2.25)">
    <path d="M2.05 65.35 L6.95 50.65 Q10.2 43.15 6.4 34.5 L5.2 29.5 5.3 29.4 5.2 29.25 2.05 22.7 Q0.6 19.05 1.3 17.65 L1.9 16.6 3.7 14.35 Q6.5 12.1 8.35 11.4 L8.55 8.3 8.35 -0.35 Q9.6 -2.1 13.8 -1.7 17.35 -1.65 18.15 0.9 17.85 7.35 19.6 12.5 L22.7 14.5 27.35 18.75 29.05 17.55 30.3 18.7 Q32.35 20.7 34.4 23.75 36.85 28.95 34.5 33.5 L34.35 33.7 32.8 38.2 32.75 38.75 Q32.3 51.25 40.95 62.95 40.1 65.35 36.35 66.95 L36.5 67.25 32.55 71.0 Q31.45 71.95 30.15 73.95 28.85 75.9 29.3 76.7 24.6 79.15 23.8 79.2 L20.8 78.95 Q14.8 77.95 9.25 75.9 3.45 72.55 2.55 66.7 L2.7 65.55 2.05 65.35 Z" fill="none" stroke="#000000" stroke-linecap="round" stroke-linejoin="round" stroke-width="1.0"/>
  </g>
</svg>
