<?xml version="1.0" encoding="UTF-8" standalone="no"?>
<svg xmlns:xlink="http://www.w3.org/1999/xlink" height="42.4px" width="19.85px" xmlns="http://www.w3.org/2000/svg">
  <g transform="matrix(1.0, 0.0, 0.0, 1.0, -0.5, -1.4)">
    <path d="M2.15 15.35 L2.9 8.15 3.25 5.55 3.45 4.2 3.1 15.4 2.15 15.35" fill="#efc3c0" fill-rule="evenodd" stroke="none"/>
    <path d="M19.8 13.95 L18.5 21.1 Q11.15 16.1 3.1 15.4 L3.45 4.2 Q6.15 2.25 10.9 3.6 15.6 4.95 19.8 13.95" fill="#ffead5" fill-rule="evenodd" stroke="none"/>
    <path d="M3.25 5.55 L3.65 1.9 Q5.9 0.35 13.6 3.65 18.7 7.25 19.85 13.8 L19.8 13.95 Q15.6 4.95 10.9 3.6 6.15 2.25 3.45 4.2 L3.25 5.55" fill="#075b09" fill-rule="evenodd" stroke="none"/>
    <path d="M18.5 21.1 Q16.15 32.5 12.5 41.35 9.85 44.1 5.9 43.0 3.6 42.35 2.4 41.05 4.85 30.1 3.1 15.4 11.15 16.1 18.5 21.1" fill="#b2f3ca" fill-rule="evenodd" stroke="none"/>
    <path d="M2.4 41.05 Q1.35 40.05 1.0 38.65 1.05 27.3 2.15 15.35 L3.1 15.4 Q4.85 30.1 2.4 41.05" fill="#7bb47a" fill-rule="evenodd" stroke="none"/>
    <path d="M2.15 15.35 L2.9 8.15 3.25 5.55 3.65 1.9 M19.85 13.8 L19.8 13.95 18.5 21.1 Q16.15 32.5 12.5 41.35 9.85 44.1 5.9 43.0 3.6 42.35 2.4 41.05 1.35 40.05 1.0 38.65 1.05 27.3 2.15 15.35 M3.45 4.2 L3.25 5.55 M19.8 13.95 Q15.6 4.95 10.9 3.6 6.15 2.25 3.45 4.2" fill="none" stroke="#000000" stroke-linecap="round" stroke-linejoin="round" stroke-width="1.0"/>
    <path d="M2.15 15.35 L3.1 15.4 Q11.15 16.1 18.5 21.1" fill="none" stroke="#000000" stroke-linecap="round" stroke-linejoin="round" stroke-width="0.05"/>
  </g>
</svg>
