<?xml version="1.0" encoding="UTF-8" standalone="no"?>
<svg xmlns:xlink="http://www.w3.org/1999/xlink" height="61.8px" width="112.85px" xmlns="http://www.w3.org/2000/svg">
  <g transform="matrix(1.0, 0.0, 0.0, 1.0, 29.55, 0.7)">
    <path d="M48.45 26.0 Q53.8 33.6 57.2 35.1 67.9 41.4 76.4 40.75 L76.75 40.7 Q76.15 35.7 67.35 22.9 L64.9 20.25 Q73.7 25.2 82.8 17.1 80.4 15.7 70.3 11.3 L62.45 7.9 Q50.95 2.4 39.25 -0.2 M11.75 36.85 Q10.85 48.55 4.85 60.5 L4.8 60.6 Q-0.5 50.85 -2.7 39.85 -4.35 46.25 -7.6 48.55 -8.4 41.7 -6.7 33.85 -15.15 46.3 -29.05 49.05 -27.35 40.25 -19.85 30.85 -24.0 34.75 -25.5 34.5 -23.55 27.7 -19.75 21.75 -15.1 14.55 -7.75 8.65 -1.9 5.3 1.6 0.25 L2.15 0.4" fill="none" stroke="#000000" stroke-linecap="round" stroke-linejoin="round" stroke-width="1.0"/>
  </g>
</svg>
