<?xml version="1.0" encoding="UTF-8" standalone="no"?>
<svg xmlns:xlink="http://www.w3.org/1999/xlink" height="72.75px" width="64.9px" xmlns="http://www.w3.org/2000/svg">
  <g transform="matrix(1.0, 0.0, 0.0, 1.0, 32.15, 68.6)">
    <path d="M11.3 3.65 Q-1.5 0.85 -19.75 -9.95 -30.55 -20.55 -31.6 -35.3 -32.55 -49.3 -21.0 -61.1 -9.45 -72.95 16.5 -64.8 32.45 -56.6 32.05 -37.25 32.95 -24.05 30.15 -9.75 29.15 -4.4 24.5 -1.55 18.5 2.15 11.3 3.65 M15.85 -3.85 Q14.4 -2.0 13.35 -2.35 12.65 -2.15 10.55 -3.65 12.65 -2.15 13.35 -2.35 14.4 -2.0 15.85 -3.85" fill="#ffead5" fill-rule="evenodd" stroke="none"/>
    <path d="M11.3 3.65 Q18.5 2.15 24.5 -1.55 29.15 -4.4 30.15 -9.75 32.95 -24.05 32.05 -37.25 32.45 -56.6 16.5 -64.8 -9.45 -72.95 -21.0 -61.1 -32.55 -49.3 -31.6 -35.3 -30.55 -20.55 -19.75 -9.95 -1.5 0.85 11.3 3.65 M10.55 -3.65 Q12.65 -2.15 13.35 -2.35 14.4 -2.0 15.85 -3.85" fill="none" stroke="#000000" stroke-linecap="round" stroke-linejoin="round" stroke-width="1.0"/>
    <path d="M19.65 -6.05 Q17.65 -6.7 17.65 -7.95 17.65 -9.25 19.65 -10.4 21.65 -11.5 24.45 -11.8 L29.3 -11.5 Q31.25 -10.8 31.25 -9.5 31.25 -8.25 29.3 -7.15 27.3 -6.0 24.45 -5.7 L19.65 -6.05" fill="url(#gradient0)" fill-rule="evenodd" stroke="none"/>
    <path d="M2.8 -6.4 L-3.4 -6.0 Q-7.1 -6.4 -9.7 -7.8 -12.2 -9.15 -12.2 -10.7 -12.2 -12.25 -9.7 -13.05 L-3.4 -13.4 Q0.25 -13.0 2.8 -11.65 5.4 -10.25 5.4 -8.7 5.4 -7.15 2.8 -6.4" fill="url(#gradient1)" fill-rule="evenodd" stroke="none"/>
    <path d="M-7.3 -10.0 L-6.85 -10.65 -5.7 -11.05 -4.5 -11.0 -3.95 -10.55 Q-3.9 -10.25 -4.35 -9.95 -4.75 -9.65 -5.45 -9.55 L-6.7 -9.6 -7.3 -10.0 M26.35 -8.9 L26.9 -9.35 27.9 -9.25 28.8 -8.85 29.05 -8.15 Q29.0 -7.85 28.55 -7.8 28.05 -7.65 27.5 -7.8 26.9 -7.95 26.65 -8.3 26.3 -8.6 26.35 -8.9" fill="#ffffff" fill-rule="evenodd" stroke="none"/>
  </g>
  <defs>
    <radialGradient cx="0" cy="0" gradientTransform="matrix(-0.0084, 9.0E-4, 0.0, 0.0038, 24.45, -8.75)" gradientUnits="userSpaceOnUse" id="gradient0" r="819.2" spreadMethod="pad">
      <stop offset="0.22745098039215686" stop-color="#ff8e8e" stop-opacity="0.38039216"/>
      <stop offset="0.9725490196078431" stop-color="#ffb4b4" stop-opacity="0.0"/>
    </radialGradient>
    <radialGradient cx="0" cy="0" gradientTransform="matrix(0.0108, 0.0012, 0.0, 0.0046, -3.4, -9.7)" gradientUnits="userSpaceOnUse" id="gradient1" r="819.2" spreadMethod="pad">
      <stop offset="0.22745098039215686" stop-color="#ff8e8e" stop-opacity="0.38039216"/>
      <stop offset="0.9725490196078431" stop-color="#ffb4b4" stop-opacity="0.0"/>
    </radialGradient>
  </defs>
</svg>
