<?xml version="1.0" encoding="UTF-8" standalone="no"?>
<svg xmlns:xlink="http://www.w3.org/1999/xlink" height="19.0px" width="23.05px" xmlns="http://www.w3.org/2000/svg">
  <g transform="matrix(1.0, 0.0, 0.0, 1.0, 0.3, 3.6)">
    <path d="M16.2 1.25 Q17.25 2.3 17.6 4.35 L17.75 7.05 Q17.6 12.4 14.35 13.7 L12.25 13.9 12.15 13.9 Q8.05 13.55 7.35 8.7 6.95 6.0 7.5 4.05 7.95 2.35 9.0 1.2 L10.55 0.7 Q9.1 1.6 8.65 3.7 8.2 5.4 8.45 7.95 9.1 12.8 12.75 13.2 15.8 13.3 16.6 7.75 16.75 5.6 16.4 3.85 16.05 2.1 15.25 0.8 L16.2 1.25" fill="#000000" fill-rule="evenodd" stroke="none"/>
    <path d="M18.55 10.65 Q17.75 12.55 16.0 13.35 L14.35 13.7 Q17.6 12.4 17.75 7.05 L17.6 4.35 18.3 4.75 Q19.2 7.7 18.55 10.65 M9.3 13.55 L8.0 12.8 7.05 12.1 Q4.3 9.85 3.85 5.6 5.75 4.6 7.5 4.05 6.95 6.0 7.35 8.7 8.05 13.55 12.15 13.9 L9.25 13.5 9.3 13.55" fill="#ffffff" fill-rule="evenodd" stroke="none"/>
    <path d="M8.65 3.7 Q12.9 2.55 16.4 3.85 16.75 5.6 16.6 7.75 15.8 13.3 12.75 13.2 9.1 12.8 8.45 7.95 8.2 5.4 8.65 3.7" fill="url(#gradient0)" fill-rule="evenodd" stroke="none"/>
    <path d="M18.75 3.5 Q19.5 8.05 18.55 10.65 19.2 7.7 18.3 4.75 L17.6 4.35 Q17.25 2.3 16.2 1.25 L17.75 2.35 18.75 3.5 M7.5 4.05 Q5.75 4.6 3.85 5.6 L3.75 4.15 Q5.85 2.3 9.0 1.2 7.95 2.35 7.5 4.05" fill="#c2c2c2" fill-rule="evenodd" stroke="none"/>
    <path d="M15.25 0.8 Q16.05 2.1 16.4 3.85 12.9 2.55 8.65 3.7 9.1 1.6 10.55 0.7 L11.6 0.4 Q13.55 0.15 15.25 0.8" fill="#006600" fill-rule="evenodd" stroke="none"/>
    <path d="M8.0 12.8 Q0.8 9.6 -0.3 3.4 3.95 -1.95 12.85 -2.35 16.9 -1.75 19.3 0.8 20.55 2.2 22.75 1.3 21.55 2.6 19.6 2.25 20.8 5.1 22.0 5.9 L21.6 5.7 18.15 1.9 Q16.4 -0.05 12.55 -0.55 5.9 0.7 2.3 3.6 1.95 8.15 7.05 12.1 L8.0 12.8 M16.0 13.35 Q13.2 14.55 10.05 14.45 8.7 14.75 8.25 15.4 8.75 13.5 9.3 13.55 L9.25 13.5 12.15 13.9 12.25 13.9 14.35 13.7 16.0 13.35" fill="#145416" fill-rule="evenodd" stroke="none"/>
    <path d="M21.6 5.7 L18.75 3.5 17.75 2.35 16.2 1.25 15.25 0.8 Q13.55 0.15 11.6 0.4 L10.55 0.7 9.0 1.2 Q5.85 2.3 3.75 4.15 L3.85 5.6 Q4.3 9.85 7.05 12.1 1.95 8.15 2.3 3.6 5.9 0.7 12.55 -0.55 16.4 -0.05 18.15 1.9 L21.6 5.7" fill="#071e07" fill-rule="evenodd" stroke="none"/>
    <path d="M12.7 -3.6 Q14.6 -3.55 16.25 -2.8 L18.2 -1.7 18.35 -1.35 15.4 -2.6 12.5 -3.35 12.5 -3.4 12.55 -3.45 12.55 -3.55 12.65 -3.55 12.7 -3.6" fill="#efc3c0" fill-rule="evenodd" stroke="none"/>
    <path d="M14.6 6.5 Q14.65 7.55 14.2 8.3 13.75 9.05 13.15 9.05 12.55 9.05 12.1 8.3 11.65 7.55 11.6 6.5 11.6 5.45 12.05 4.7 12.5 3.95 13.1 3.95 13.7 3.95 14.15 4.7 14.6 5.45 14.6 6.5" fill="#ffffff" fill-rule="evenodd" stroke="none"/>
    <path d="M14.9 6.5 Q14.95 7.8 14.4 8.7 13.85 9.6 13.15 9.6 12.4 9.6 11.85 8.7 11.3 7.8 11.25 6.5 11.25 5.25 11.8 4.3 12.35 3.4 13.1 3.4 13.8 3.4 14.35 4.3 14.9 5.25 14.9 6.5 M14.6 6.5 Q14.6 5.45 14.15 4.7 13.7 3.95 13.1 3.95 12.5 3.95 12.05 4.7 11.6 5.45 11.6 6.5 11.65 7.55 12.1 8.3 12.55 9.05 13.15 9.05 13.75 9.05 14.2 8.3 14.65 7.55 14.6 6.5" fill="#2c7e27" fill-rule="evenodd" stroke="none"/>
    <path d="M9.3 8.2 Q11.0 9.9 13.05 10.15 15.0 10.1 16.2 8.0 15.7 12.0 13.3 12.65 9.7 12.6 9.3 8.2" fill="#c8f2c7" fill-rule="evenodd" stroke="none"/>
  </g>
  <defs>
    <linearGradient gradientTransform="matrix(0.0, -0.0072, 0.0051, 0.0, 12.5, 6.3)" gradientUnits="userSpaceOnUse" id="gradient0" spreadMethod="pad" x1="-819.2" x2="819.2">
      <stop offset="0.07058823529411765" stop-color="#9ef3a1"/>
      <stop offset="0.9921568627450981" stop-color="#2c7e26"/>
    </linearGradient>
  </defs>
</svg>
