<?xml version="1.0" encoding="UTF-8" standalone="no"?>
<svg xmlns:xlink="http://www.w3.org/1999/xlink" height="10.5px" width="29.95px" xmlns="http://www.w3.org/2000/svg">
  <g transform="matrix(1.0, 0.0, 0.0, 1.0, 2.0, 25.05)">
    <path d="M5.8 -15.8 Q5.75 -15.5 5.05 -15.3 L3.3 -14.95 1.65 -15.0 Q1.0 -15.1 1.0 -15.35 L1.7 -15.9 3.4 -16.25 5.05 -16.2 Q5.8 -16.1 5.8 -15.8 M24.45 -23.4 L24.25 -22.95 23.75 -22.75 Q23.5 -22.75 23.25 -22.9 L23.05 -23.35 23.25 -23.8 23.75 -24.0 24.2 -23.85 24.45 -23.4 M27.95 -15.25 L27.5 -14.85 26.4 -14.6 25.35 -14.65 Q24.95 -14.75 25.0 -14.95 L25.4 -15.3 26.5 -15.55 27.5 -15.55 27.95 -15.25 M-0.1 -24.2 Q-0.1 -23.8 -0.4 -23.55 -0.65 -23.2 -1.05 -23.2 -1.45 -23.15 -1.75 -23.45 L-2.0 -24.1 -1.8 -24.8 -1.1 -25.05 -0.4 -24.85 Q-0.1 -24.6 -0.1 -24.2" fill="#ffffff" fill-rule="evenodd" stroke="none"/>
  </g>
</svg>
