<?xml version="1.0" encoding="UTF-8" standalone="no"?>
<svg xmlns:xlink="http://www.w3.org/1999/xlink" height="108.2px" width="126.05px" xmlns="http://www.w3.org/2000/svg">
  <g transform="matrix(1.0, 0.0, 0.0, 1.0, 63.05, 54.1)">
    <path d="M-9.75 42.95 Q-6.15 48.6 -1.0 52.75 L-0.75 52.95 Q-6.5 47.2 -10.05 20.75 -9.4 23.6 -7.8 24.65 -7.1 19.2 -8.85 13.75 L-9.5 11.95 Q3.6 9.0 7.95 4.05 8.85 2.95 9.35 1.85 L9.6 3.4 Q12.25 20.7 6.4 32.3 20.1 18.8 20.4 3.35 21.85 11.85 20.9 18.2 L20.8 18.7 Q25.75 8.95 26.85 2.0 L27.15 -1.4 27.15 -2.1 27.2 -1.4 27.5 1.95 Q28.6 11.75 32.9 15.95 31.9 30.0 27.6 34.55 L27.25 34.75 22.9 37.9 Q24.2 46.35 21.6 51.65 L23.3 50.0 Q31.9 40.8 34.55 25.25 38.1 36.85 46.25 39.95 L48.15 40.55 Q39.3 34.4 38.4 19.4 46.6 28.85 59.55 24.05 L60.6 23.65 61.6 23.2 Q55.45 23.8 50.15 18.25 53.7 17.65 57.9 15.65 L61.2 13.8 62.5 13.0 Q54.45 16.3 47.35 14.5 42.9 8.2 41.9 2.25 48.85 3.8 54.7 -0.4 58.25 -4.35 56.75 -10.85 L56.2 -12.75 Q54.2 -2.1 49.3 -3.3 L48.25 -3.7 Q46.1 -4.75 43.8 -7.1 L41.0 -10.3 Q44.0 -7.95 46.9 -7.25 L49.55 -7.0 Q44.15 -10.45 41.15 -17.45 L41.1 -17.5 Q52.25 -16.3 56.3 -22.25 L56.55 -22.6 57.6 -24.8 Q52.7 -19.85 45.3 -20.9 43.25 -21.2 41.05 -21.95 36.25 -23.55 30.55 -27.3 L26.3 -29.8 Q26.65 -41.9 -10.8 -50.45 L-12.3 -50.8 -18.3 -52.05 -26.4 -53.6 Q9.05 -44.25 9.5 -34.55 L7.65 -34.65 3.3 -34.6 Q-7.15 -34.9 -15.35 -31.75 -38.35 -42.6 -59.5 -42.1 L-60.0 -42.1 Q-43.05 -37.0 -29.95 -26.35 L-26.2 -23.5 Q-30.6 -18.5 -32.35 -12.35 -39.75 -15.85 -45.7 -21.9 L-43.25 -17.4 Q-39.6 -11.5 -34.45 -7.1 -46.35 5.6 -62.55 4.6 L-61.7 5.05 Q-46.55 12.55 -35.85 5.2 -41.3 9.6 -42.3 20.1 -45.05 29.8 -54.4 31.1 -42.05 35.8 -38.1 26.7 -39.05 32.25 -36.4 38.45 -36.35 46.95 -42.05 51.9 -32.0 50.05 -30.0 42.35 L-29.2 41.1 M21.95 38.4 L19.1 39.65 13.7 41.25 Q16.85 49.5 14.9 53.6 L16.3 52.25 Q20.7 47.35 21.95 38.4" fill="none" stroke="#205d3a" stroke-linecap="round" stroke-linejoin="round" stroke-width="1.0"/>
  </g>
</svg>
