<?xml version="1.0" encoding="UTF-8" standalone="no"?>
<svg xmlns:xlink="http://www.w3.org/1999/xlink" height="32.75px" width="25.4px" xmlns="http://www.w3.org/2000/svg">
  <g transform="matrix(1.0, 0.0, 0.0, 1.0, 3.55, -0.95)">
    <path d="M13.25 1.45 Q17.5 6.2 15.7 10.45 L14.4 13.65 5.75 13.3 Q6.85 8.45 7.8 5.5 10.0 2.75 13.25 1.45 M11.05 5.75 L12.1 4.45 Q12.4 3.85 12.0 3.65 L10.95 3.75 Q10.1 4.0 9.35 4.65 8.65 5.3 8.35 5.9 8.1 6.6 8.4 6.8 L9.55 6.65 11.05 5.75" fill="#ffead5" fill-rule="evenodd" stroke="none"/>
    <path d="M11.05 5.75 L9.55 6.65 8.4 6.8 Q8.1 6.6 8.35 5.9 8.65 5.3 9.35 4.65 10.1 4.0 10.95 3.75 L12.0 3.65 Q12.4 3.85 12.1 4.45 L11.05 5.75" fill="#ffffff" fill-rule="evenodd" stroke="none"/>
    <path d="M7.8 5.5 Q6.85 8.45 5.75 13.3 L4.25 13.2 4.4 12.65 Q5.55 8.3 7.8 5.5" fill="#efc3c0" fill-rule="evenodd" stroke="none"/>
    <path d="M5.75 13.3 L14.4 13.65 Q13.2 16.7 11.95 20.25 10.0 25.7 8.85 29.75 7.75 33.8 3.9 33.1 2.65 32.8 1.95 32.05 4.05 20.55 5.75 13.3" fill="#b2f3ca" fill-rule="evenodd" stroke="none"/>
    <path d="M4.25 13.2 L5.75 13.3 Q4.05 20.55 1.95 32.05 0.45 30.5 1.2 26.8 2.15 21.4 4.25 13.2" fill="#7bb47a" fill-rule="evenodd" stroke="none"/>
    <path d="M13.25 1.45 Q10.0 2.75 7.8 5.5 5.55 8.3 4.4 12.65 L4.25 13.2 5.75 13.3 14.4 13.65 15.7 10.45 M1.95 32.05 Q2.65 32.8 3.9 33.1 7.75 33.8 8.85 29.75 10.0 25.7 11.95 20.25 13.2 16.7 14.4 13.65 M4.25 13.2 Q2.15 21.4 1.2 26.8 0.45 30.5 1.95 32.05" fill="none" stroke="#000000" stroke-linecap="round" stroke-linejoin="round" stroke-width="1.0"/>
    <path d="M1.95 32.05 L1.8 32.8" fill="none" stroke="#000000" stroke-linecap="round" stroke-linejoin="round" stroke-width="0.05"/>
    <path d="M3.7 20.95 L3.6 21.1 3.5 21.3 3.5 21.45 3.55 21.5 5.35 21.65 Q6.7 21.5 7.4 20.8 6.85 20.2 5.85 20.5 L3.7 20.95 M14.9 15.9 L12.2 17.65 Q9.05 19.2 3.8 19.95 L12.4 19.0 Q8.1 21.95 2.25 23.55 2.7 20.8 4.15 17.85 10.05 17.9 14.9 15.9" fill="#8ef86d" fill-rule="evenodd" stroke="none"/>
    <path d="M21.35 13.3 L20.6 17.4 Q17.75 17.2 13.4 19.45 L10.05 21.4 Q5.6 24.2 2.2 23.55 L1.1 23.25 2.2 17.75 4.15 17.85 Q2.7 20.8 2.25 23.55 8.1 21.95 12.4 19.0 L3.8 19.95 Q9.05 19.2 12.2 17.65 L14.9 15.9 Q19.1 13.35 21.35 13.3" fill="#3fb82d" fill-rule="evenodd" stroke="none"/>
    <path d="M21.35 10.35 L21.35 13.3 Q19.1 13.35 14.9 15.9 10.05 17.9 4.15 17.85 L4.9 16.4 Q13.6 16.65 21.35 10.35" fill="#075b09" fill-rule="evenodd" stroke="none"/>
    <path d="M2.2 17.75 L2.5 16.15 4.9 16.4 4.15 17.85 2.2 17.75" fill="#032704" fill-rule="evenodd" stroke="none"/>
    <path d="M13.4 19.45 Q12.9 23.05 14.6 25.45 9.9 24.65 5.15 26.2 0.25 28.35 -3.55 27.2 0.0 26.65 1.1 23.25 L2.2 23.55 Q5.6 24.2 10.05 21.4 L13.4 19.45" fill="#ffffff" fill-opacity="0.8392157" fill-rule="evenodd" stroke="none"/>
    <path d="M3.7 20.95 L5.85 20.5 Q6.85 20.2 7.4 20.8 6.7 21.5 5.35 21.65 L3.55 21.5 3.5 21.45 3.5 21.3 3.6 21.1 3.7 20.95" fill="#b6f8b1" fill-rule="evenodd" stroke="none"/>
    <path d="M4.15 17.85 L2.2 17.75 M4.15 17.85 Q10.05 17.9 14.9 15.9 19.1 13.35 21.35 13.3" fill="none" stroke="#000000" stroke-linecap="round" stroke-linejoin="round" stroke-width="0.05"/>
    <path d="M13.4 19.45 Q12.9 23.05 14.6 25.45 9.9 24.65 5.15 26.2 0.25 28.35 -3.55 27.2 0.0 26.65 1.1 23.25" fill="none" stroke="#1a3a2e" stroke-linecap="round" stroke-linejoin="round" stroke-width="0.05"/>
    <path d="M20.6 17.4 Q17.75 17.2 13.4 19.45 L10.05 21.4 Q5.6 24.2 2.2 23.55 L1.1 23.25 2.2 17.75 2.5 16.15 4.9 16.4 Q13.6 16.65 21.35 10.35" fill="none" stroke="#000000" stroke-linecap="round" stroke-linejoin="round" stroke-width="1.0"/>
  </g>
</svg>
