<?xml version="1.0" encoding="UTF-8" standalone="no"?>
<svg xmlns:xlink="http://www.w3.org/1999/xlink" height="45.95px" width="25.35px" xmlns="http://www.w3.org/2000/svg">
  <g transform="matrix(1.0, 0.0, 0.0, 1.0, 7.15, -1.25)">
    <path d="M1.4 29.2 Q5.85 30.95 8.45 35.1 8.15 37.05 8.75 38.3 7.6 42.6 5.7 38.3 L6.0 35.9 5.7 38.1 Q3.55 43.55 2.25 38.55 0.15 43.7 -0.95 38.9 L-0.25 35.25 Q0.05 33.65 0.7 31.4 L0.9 30.7 1.4 29.2 M9.7 35.85 Q9.25 33.25 10.45 30.5 L11.95 33.35 Q12.6 35.05 13.8 36.1 15.7 40.25 12.65 39.55 11.9 36.55 9.7 35.85 M2.65 36.15 L2.25 38.55 2.65 36.15" fill="#ffead5" fill-rule="evenodd" stroke="none"/>
    <path d="M-0.95 38.9 Q0.15 43.7 2.25 38.55 3.55 43.55 5.7 38.1 L5.65 38.9 5.5 40.55 5.75 41.9 5.8 42.2 6.35 45.5 Q6.35 46.15 5.25 46.6 4.1 47.0 3.55 45.35 L2.75 43.1 2.45 41.95 2.15 40.65 2.2 41.0 2.2 41.2 2.65 43.7 Q2.75 44.65 1.7 45.65 0.65 46.6 -0.3 43.8 -1.35 40.9 -0.95 38.9 M9.55 36.7 L9.7 35.85 Q11.9 36.55 12.65 39.55 10.7 38.8 9.55 36.7 M9.4 36.8 Q9.1 39.75 9.6 41.9 10.05 45.9 7.5 44.55 6.65 44.1 5.8 42.2 L5.75 41.9 5.5 40.55 5.65 38.9 5.7 38.3 Q7.6 42.6 8.75 38.3 8.15 37.05 8.45 35.1 L9.4 36.8 M2.15 40.65 L2.1 40.45 2.1 40.0 2.25 38.55 2.1 40.0 2.1 40.45 2.15 40.65" fill="#efc3c0" fill-rule="evenodd" stroke="none"/>
    <path d="M11.85 2.75 L11.9 6.65 Q11.95 9.75 10.6 15.8 9.9 19.6 9.8 22.45 L9.55 27.6 Q9.55 29.3 10.4 30.45 L10.45 30.5 Q9.25 33.25 9.7 35.85 L8.6 34.2 8.45 35.1 Q5.85 30.95 1.4 29.2 L1.6 28.75 1.7 28.3 1.95 27.35 2.3 25.9 2.7 26.45 Q4.75 21.7 4.5 16.65 3.85 8.35 6.2 1.4 L7.95 1.5 Q9.95 1.85 11.4 2.6 L11.85 2.75 M9.8 22.45 L8.35 23.35 9.8 22.45" fill="#b2f3ca" fill-rule="evenodd" stroke="none"/>
    <path d="M6.2 1.4 Q3.85 8.35 4.5 16.65 4.75 21.7 2.7 26.45 L2.3 25.9 1.95 27.35 1.8 27.45 1.85 27.3 Q3.35 22.45 3.15 14.55 3.0 6.7 3.75 4.55 4.4 2.4 4.9 1.75 L6.2 1.4 M8.45 35.1 L8.6 34.2 9.7 35.85 9.55 36.7 9.4 36.45 9.4 36.8 8.45 35.1" fill="#7bb47a" fill-rule="evenodd" stroke="none"/>
    <path d="M9.8 22.45 Q9.9 19.6 10.6 15.8 11.95 9.75 11.9 6.65 L11.85 2.75 M2.3 25.9 L1.95 27.35 1.7 28.3 1.6 28.75 1.4 29.2 Q5.85 30.95 8.45 35.1 L9.4 36.8 Q9.1 39.75 9.6 41.9 10.05 45.9 7.5 44.55 6.65 44.1 5.8 42.2 L6.35 45.5 Q6.35 46.15 5.25 46.6 4.1 47.0 3.55 45.35 L2.75 43.1 2.45 41.95 2.2 41.2 2.65 43.7 Q2.75 44.65 1.7 45.65 0.65 46.6 -0.3 43.8 -1.35 40.9 -0.95 38.9 L-0.25 35.25 Q0.05 33.65 0.7 31.4 L0.9 30.7 1.4 29.2 M9.7 35.85 Q9.25 33.25 10.45 30.5 L10.4 30.45 Q9.55 29.3 9.55 27.6 L9.8 22.45 M4.9 1.75 Q4.4 2.4 3.75 4.55 3.0 6.7 3.15 14.55 3.35 22.45 1.85 27.3 M12.65 39.55 Q15.7 40.25 13.8 36.1 12.6 35.05 11.95 33.35 L10.45 30.5 M2.25 38.55 L2.65 36.15 M9.55 36.7 L9.7 35.85 M12.65 39.55 Q10.7 38.8 9.55 36.7 L9.4 36.45 9.4 36.8 M5.65 38.9 L5.5 40.55 5.75 41.9 5.8 42.2 M5.65 38.9 L5.7 38.1 6.0 35.9 5.7 38.3 5.65 38.9 M2.25 38.55 L2.1 40.0 2.1 40.45 2.15 40.65 2.45 41.95 M2.15 40.65 L2.2 41.0 2.2 41.2" fill="none" stroke="#000000" stroke-linecap="round" stroke-linejoin="round" stroke-width="1.0"/>
    <path d="M10.4 28.7 Q9.9 29.15 10.3 30.0 L10.5 30.3 10.3 30.55 Q9.95 31.2 10.3 31.85 L10.95 31.05 11.4 31.65 Q11.15 32.0 11.3 32.35 L11.95 32.15 12.25 32.4 13.3 32.85 Q13.6 32.95 13.4 32.7 L12.5 31.75 12.65 31.6 13.05 30.95 12.95 30.75 11.9 31.25 11.25 30.35 11.75 29.65 11.8 29.4 11.75 29.3 11.65 29.3 11.6 29.25 10.9 29.8 10.5 28.75 10.4 28.7 M8.65 26.2 L10.55 27.95 Q13.35 28.1 14.95 30.85 15.8 33.05 17.7 35.3 12.75 35.25 9.3 32.45 8.15 31.3 9.25 29.15 L8.65 26.2 M0.65 28.25 L0.55 28.3 0.15 29.35 -0.55 28.8 -0.6 28.85 -0.7 28.85 -0.75 28.95 -0.7 29.2 -0.2 29.9 -0.85 30.8 Q-1.4 30.45 -1.9 30.3 -2.1 30.25 -2.0 30.5 L-1.6 31.15 -1.45 31.3 -2.35 32.25 Q-2.55 32.5 -2.25 32.4 L-1.2 31.95 -0.9 31.7 -0.25 31.9 Q-0.1 31.55 -0.35 31.2 L0.1 30.6 Q0.3 31.25 0.75 31.4 1.1 30.75 0.75 30.1 L0.55 29.85 0.75 29.55 Q1.15 28.7 0.65 28.25 M2.4 25.75 L1.8 28.7 Q2.9 30.85 1.75 32.0 -1.7 34.8 -6.65 34.85 -4.75 32.6 -3.9 30.4 -2.3 27.65 0.5 27.5 L2.4 25.75" fill="#8ef86d" fill-rule="evenodd" stroke="none"/>
    <path d="M10.4 28.7 L10.5 28.75 10.9 29.8 11.6 29.25 11.65 29.3 11.75 29.3 11.8 29.4 11.75 29.65 11.25 30.35 11.9 31.25 12.95 30.75 13.05 30.95 12.65 31.6 12.5 31.75 13.4 32.7 Q13.6 32.95 13.3 32.85 L12.25 32.4 11.95 32.15 11.3 32.35 Q11.15 32.0 11.4 31.65 L10.95 31.05 10.3 31.85 Q9.95 31.2 10.3 30.55 L10.5 30.3 10.3 30.0 Q9.9 29.15 10.4 28.7 M0.65 28.25 Q1.15 28.7 0.75 29.55 L0.55 29.85 0.75 30.1 Q1.1 30.75 0.75 31.4 0.3 31.25 0.1 30.6 L-0.35 31.2 Q-0.1 31.55 -0.25 31.9 L-0.9 31.7 -1.2 31.95 -2.25 32.4 Q-2.55 32.5 -2.35 32.25 L-1.45 31.3 -1.6 31.15 -2.0 30.5 Q-2.1 30.25 -1.9 30.3 -1.4 30.45 -0.85 30.8 L-0.2 29.9 -0.7 29.2 -0.75 28.95 -0.7 28.85 -0.6 28.85 -0.55 28.8 0.15 29.35 0.55 28.3 0.65 28.25" fill="#3fb82d" fill-rule="evenodd" stroke="none"/>
    <path d="M8.65 26.2 L10.55 27.95 Q13.35 28.1 14.95 30.85 15.8 33.05 17.7 35.3 12.75 35.25 9.3 32.45 8.15 31.3 9.25 29.15 L8.65 26.2 M2.4 25.75 L0.5 27.5 Q-2.3 27.65 -3.9 30.4 -4.75 32.6 -6.65 34.85 -1.7 34.8 1.75 32.0 2.9 30.85 1.8 28.7 L2.4 25.75" fill="none" stroke="#000000" stroke-linecap="round" stroke-linejoin="round" stroke-width="1.0"/>
    <path d="M10.85 25.55 Q6.95 24.3 1.4 24.2 1.55 23.45 2.0 22.6 5.85 22.0 10.6 23.75 10.9 24.7 10.85 25.55" fill="#8ef86d" fill-rule="evenodd" stroke="none"/>
    <path d="M10.85 25.55 Q10.8 26.5 10.2 27.2 5.35 26.05 1.5 25.9 1.15 25.15 1.4 24.2 6.95 24.3 10.85 25.55" fill="#3fb82d" fill-rule="evenodd" stroke="none"/>
    <path d="M1.4 24.2 Q1.15 25.15 1.5 25.9 5.35 26.05 10.2 27.2 10.8 26.5 10.85 25.55 10.9 24.7 10.6 23.75 5.85 22.0 2.0 22.6 1.55 23.45 1.4 24.2 Z" fill="none" stroke="#000000" stroke-linecap="round" stroke-linejoin="round" stroke-width="1.0"/>
  </g>
</svg>
