<?xml version="1.0" encoding="UTF-8" standalone="no"?>
<svg xmlns:xlink="http://www.w3.org/1999/xlink" height="553.75px" width="479.9px" xmlns="http://www.w3.org/2000/svg">
  <g transform="matrix(1.0, 0.0, 0.0, 1.0, 239.95, 276.9)">
    <path d="M239.2 -265.5 L239.2 -219.4 -239.2 -219.4 -239.2 -265.5 239.2 -265.5 M239.2 -197.75 L239.2 -158.6 -5.6 -158.6 23.65 -197.75 239.2 -197.75 M239.2 -152.25 L239.2 126.8 -7.45 126.8 -7.45 -152.25 239.2 -152.25 M239.2 142.15 L239.2 181.3 -31.45 181.3 -52.7 142.15 239.2 142.15 M239.2 187.9 L239.2 254.15 1.1 254.15 -239.2 254.15 -239.2 187.9 1.1 187.9 239.2 187.9 M1.1 187.9 L1.1 254.15 1.1 187.9" fill="#20b41d" fill-opacity="0.8392157" fill-rule="evenodd" stroke="none"/>
    <path d="M-239.2 -265.5 L-239.2 -276.15 239.2 -276.15 239.2 -265.5 239.2 -219.4 239.2 -197.75 239.2 -158.6 239.2 -152.25 239.2 126.8 239.2 142.15 239.2 181.3 239.2 187.9 239.2 254.15 239.2 276.1 -239.2 276.1 -239.2 254.15 -239.2 187.9 -239.2 -219.4 -239.2 -265.5 M1.1 254.15 L1.1 187.9 -239.2 187.9 M239.2 254.15 L1.1 254.15 -239.2 254.15 M1.1 187.9 L239.2 187.9" fill="none" stroke="#70ff75" stroke-linecap="round" stroke-linejoin="round" stroke-opacity="0.9019608" stroke-width="1.5"/>
  </g>
</svg>
