<?xml version="1.0" encoding="UTF-8" standalone="no"?>
<svg xmlns:xlink="http://www.w3.org/1999/xlink" height="33.3px" width="54.6px" xmlns="http://www.w3.org/2000/svg">
  <g transform="matrix(1.0, 0.0, 0.0, 1.0, 26.6, 12.4)">
    <path d="M-5.05 11.7 Q-15.4 10.95 -26.1 7.5 L-11.1 -11.9 19.1 -9.1 26.1 6.7 24.9 7.25 Q21.7 10.4 18.5 9.7 15.05 12.7 11.15 11.15 6.65 12.65 2.1 11.9 L-5.05 11.7" fill="#6b0b1b" fill-rule="evenodd" stroke="none"/>
    <path d="M24.9 7.25 L27.5 14.5 Q23.95 18.75 19.7 18.7 L19.4 16.25 Q15.9 19.65 11.7 17.9 L11.65 16.9 Q11.15 19.1 10.3 19.1 4.5 21.5 2.3 19.5 L2.25 17.1 Q-2.55 19.5 -4.7 17.9 L-5.05 11.7 2.1 11.9 Q6.65 12.65 11.15 11.15 15.05 12.7 18.5 9.7 21.7 10.4 24.9 7.25 M11.15 11.15 L11.65 16.9 11.15 11.15 M18.5 9.7 L19.4 16.25 18.5 9.7 M2.1 11.9 L2.25 17.1 2.1 11.9" fill="#d0bcc9" fill-rule="evenodd" stroke="none"/>
    <path d="M-5.05 11.7 Q-15.4 10.95 -26.1 7.5 L-11.1 -11.9 19.1 -9.1 26.1 6.7 24.9 7.25 27.5 14.5 Q23.95 18.75 19.7 18.7 L19.4 16.25 Q15.9 19.65 11.7 17.9 L11.65 16.9 Q11.15 19.1 10.3 19.1 4.5 21.5 2.3 19.5 L2.25 17.1 Q-2.55 19.5 -4.7 17.9 L-5.05 11.7 2.1 11.9 Q6.65 12.65 11.15 11.15 15.05 12.7 18.5 9.7 21.7 10.4 24.9 7.25 M2.25 17.1 L2.1 11.9 M19.4 16.25 L18.5 9.7 M11.65 16.9 L11.15 11.15" fill="none" stroke="#000000" stroke-linecap="round" stroke-linejoin="round" stroke-width="1.0"/>
  </g>
</svg>
