<?xml version="1.0" encoding="UTF-8" standalone="no"?>
<svg xmlns:xlink="http://www.w3.org/1999/xlink" height="103.35px" width="114.25px" xmlns="http://www.w3.org/2000/svg">
  <g transform="matrix(1.0, 0.0, 0.0, 1.0, 59.85, 40.45)">
    <path d="M11.4 -12.55 Q11.95 -1.9 7.05 8.15 3.7 15.0 -1.15 20.4 5.45 11.1 9.1 -0.05 11.15 -6.35 11.4 -12.55 M37.15 -7.95 Q37.55 -2.7 34.55 2.35 L30.95 7.9 Q28.6 11.25 25.45 12.85 31.4 7.2 34.95 -0.45 36.65 -4.25 37.15 -7.95 M27.45 -19.25 Q28.05 -15.55 27.6 -11.5 27.25 -8.7 26.25 -6.3 L26.75 -14.1 Q26.95 -16.9 27.45 -19.25 M33.7 -14.7 Q33.55 -11.35 32.1 -7.85 29.65 -1.8 26.45 3.5 29.05 0.6 31.25 -3.25 34.45 -8.9 33.7 -14.7 M20.3 11.6 Q30.9 -5.1 32.1 -19.75 36.2 -17.25 33.3 -3.2 23.3 14.1 20.05 29.4 20.25 20.85 24.25 12.15 L23.9 12.55 27.0 5.2 Q8.95 28.3 11.65 40.15 8.65 30.0 16.2 16.6 L20.3 11.6 22.4 9.05 20.3 11.6 M-17.1 -25.3 L-6.95 -36.3 Q-7.7 -21.8 -14.15 -14.7 -3.65 -18.45 -0.7 -32.7 -4.75 -5.25 -20.85 7.8 -41.1 21.85 -47.55 45.0 -45.55 23.1 -25.75 4.15 L-24.3 3.5 -22.95 2.8 Q-11.4 -3.35 -5.5 -18.05 -10.2 -8.75 -19.65 -2.6 -52.1 17.1 -57.6 32.75 -50.9 11.6 -28.45 -0.7 -25.95 -1.65 -24.0 -3.0 L-22.15 -4.45 Q-17.85 -10.2 -15.55 -15.9 -23.2 -3.5 -32.1 -1.65 L-47.45 3.15 Q-54.95 6.75 -58.9 12.35 L-59.6 13.05 Q-55.35 4.4 -41.15 -1.15 -26.9 -6.7 -19.35 -17.3 L-17.85 -18.25 Q-13.0 -22.0 -10.9 -27.05 -17.95 -18.9 -27.7 -14.8 -36.3 -12.15 -42.45 -13.85 L-44.7 -14.95 Q-28.35 -10.5 -17.25 -25.1 L-17.1 -25.3 M-18.65 10.6 L-17.0 9.45 -14.1 7.55 -12.2 6.1 Q-0.9 -3.1 5.8 -29.05 7.95 -22.5 0.25 9.1 2.6 8.1 8.35 -11.3 7.75 7.95 -3.85 20.25 L-15.45 32.55 Q-6.3 27.85 -3.55 24.4 L-2.15 22.65 Q-2.55 25.75 -5.95 27.9 -8.15 29.3 -15.45 32.55 -17.75 35.0 -21.2 41.55 -24.7 49.25 -22.8 61.9 -28.65 43.0 -18.45 25.75 -13.05 17.15 -7.5 5.05 L-6.25 2.3 -7.5 5.05 -17.25 18.65 Q-22.35 33.35 -39.2 46.1 -41.25 46.75 -43.2 46.85 -25.2 40.5 -18.65 10.6 M-22.55 62.65 Q-23.4 49.5 -17.8 40.3 -22.8 51.25 -22.55 62.65 M-1.85 25.65 Q8.9 16.5 12.5 4.3 L12.65 3.65 12.85 2.9 Q15.75 -8.95 23.55 -17.65 27.45 4.2 11.5 18.35 -0.75 34.2 -1.6 45.4 -2.3 35.25 5.4 21.7 L11.2 14.8 Q1.45 23.0 -4.8 33.7 L-5.05 34.0 Q-11.05 47.2 -11.05 57.05 -12.2 41.0 -1.85 25.65 M21.7 -12.9 Q20.5 -8.0 18.8 -2.85 16.0 5.75 11.45 13.2 14.95 8.8 17.4 3.25 21.0 -4.8 21.7 -12.9 M11.65 14.3 L11.2 14.8 11.65 14.3 M-15.25 -20.05 L-17.85 -18.25 -15.25 -20.05 M-2.3 -15.15 Q-2.35 -9.8 -5.65 -4.65 -7.9 -1.15 -10.85 0.85 -6.8 -3.65 -4.25 -9.25 -2.9 -12.25 -2.3 -15.15 M-19.7 -7.35 Q-20.75 -5.75 -22.15 -4.45 -20.75 -5.75 -19.7 -7.35 M-8.4 17.85 L-11.2 20.75 Q-13.3 22.9 -16.4 27.7 -19.55 32.45 -19.7 37.35 L-18.8 34.65 Q-18.0 32.1 -12.9 25.15 -7.85 18.15 -8.4 17.85 M2.65 -14.0 Q1.55 -7.75 -1.35 -1.2 -5.95 9.2 -11.95 18.1 -7.4 13.35 -2.1 5.45 3.2 -2.6 2.65 -14.0" fill="#ffffff" fill-rule="evenodd" stroke="none"/>
    <path d="M27.45 -19.25 Q26.95 -16.9 26.75 -14.1 L26.25 -6.3 Q27.25 -8.7 27.6 -11.5 28.05 -15.55 27.45 -19.25 M37.15 -7.95 Q36.65 -4.25 34.95 -0.45 31.4 7.2 25.45 12.85 28.6 11.25 30.95 7.9 L34.55 2.35 Q37.55 -2.7 37.15 -7.95 M11.4 -12.55 Q11.15 -6.35 9.1 -0.05 5.45 11.1 -1.15 20.4 3.7 15.0 7.05 8.15 11.95 -1.9 11.4 -12.55 M33.7 -14.7 Q34.45 -8.9 31.25 -3.25 29.05 0.6 26.45 3.5 29.65 -1.8 32.1 -7.85 33.55 -11.35 33.7 -14.7 M20.05 29.4 Q23.3 14.1 33.3 -3.2 36.2 -17.25 32.1 -19.75 30.9 -5.1 20.3 11.6 L16.2 16.6 Q2.2 34.15 -1.6 45.4 -0.75 34.2 11.5 18.35 27.45 4.2 23.55 -17.65 15.75 -8.95 12.85 2.9 L12.65 3.65 12.5 4.3 Q8.9 16.5 -1.85 25.65 L-7.6 29.95 Q-14.15 34.25 -17.8 40.3 -23.4 49.5 -22.55 62.65 L-22.7 62.15 -22.8 61.9 Q-24.7 49.25 -21.2 41.55 -17.75 35.0 -15.45 32.55 -8.15 29.3 -5.95 27.9 -2.55 25.75 -2.15 22.65 L-3.55 24.4 Q-6.3 27.85 -15.45 32.55 L-3.85 20.25 Q7.75 7.95 8.35 -11.3 2.6 8.1 0.25 9.1 7.95 -22.5 5.8 -29.05 -0.9 -3.1 -12.2 6.1 L-14.1 7.55 -17.0 9.45 -18.65 10.6 Q-44.45 28.55 -47.75 47.3 L-47.55 45.0 Q-41.1 21.85 -20.85 7.8 -4.75 -5.25 -0.7 -32.7 -3.65 -18.45 -14.15 -14.7 -7.7 -21.8 -6.95 -36.3 L-17.1 -25.3 Q-12.7 -31.2 -9.1 -40.2 20.2 -40.4 54.15 -33.45 L50.45 -18.05 Q21.5 20.2 20.15 32.75 L20.05 29.4 M21.7 -12.9 Q21.0 -4.8 17.4 3.25 14.95 8.8 11.45 13.2 16.0 5.75 18.8 -2.85 20.5 -8.0 21.7 -12.9 M11.65 40.15 Q8.95 28.3 27.0 5.2 L23.9 12.55 Q10.0 26.75 12.25 42.0 L11.75 40.5 11.65 40.15 M11.2 14.8 L5.4 21.7 Q-10.3 41.7 -10.85 59.25 L-11.05 57.05 Q-11.05 47.2 -5.05 34.0 L-4.8 33.7 Q1.45 23.0 11.2 14.8 M-42.45 -13.85 Q-36.3 -12.15 -27.7 -14.8 -17.95 -18.9 -10.9 -27.05 -13.0 -22.0 -17.85 -18.25 L-19.35 -17.3 Q-32.0 -9.55 -42.45 -13.85 M-22.15 -4.45 L-24.0 -3.0 Q-25.95 -1.65 -28.45 -0.7 -31.3 0.4 -34.9 1.0 -50.0 3.85 -58.9 12.35 -54.95 6.75 -47.45 3.15 L-32.1 -1.65 Q-23.2 -3.5 -15.55 -15.9 -17.85 -10.2 -22.15 -4.45 M-57.6 32.75 Q-52.1 17.1 -19.65 -2.6 -10.2 -8.75 -5.5 -18.05 -11.4 -3.35 -22.95 2.8 L-24.3 3.5 -25.75 4.15 Q-49.25 14.65 -57.8 33.4 L-57.6 32.75 M-2.3 -15.15 Q-2.9 -12.25 -4.25 -9.25 -6.8 -3.65 -10.85 0.85 -7.9 -1.15 -5.65 -4.65 -2.35 -9.8 -2.3 -15.15 M2.65 -14.0 Q3.2 -2.6 -2.1 5.45 -7.4 13.35 -11.95 18.1 -5.95 9.2 -1.35 -1.2 1.55 -7.75 2.65 -14.0 M-8.4 17.85 Q-7.85 18.15 -12.9 25.15 -18.0 32.1 -18.8 34.65 L-19.7 37.35 Q-19.55 32.45 -16.4 27.7 -13.3 22.9 -11.2 20.75 L-8.4 17.85 M-39.2 46.1 Q-22.35 33.35 -17.25 18.65 L-7.5 5.05 Q-13.05 17.15 -18.45 25.75 -29.2 42.85 -39.2 46.1" fill="#d9c9e3" fill-rule="evenodd" stroke="none"/>
    <path d="M20.05 29.4 L20.15 32.75 Q21.5 20.2 50.45 -18.05 L54.15 -33.45 Q20.2 -40.4 -9.1 -40.2 -12.7 -31.2 -17.1 -25.3 L-17.25 -25.1 Q-28.35 -10.5 -44.7 -14.95 L-42.45 -13.85 Q-32.0 -9.55 -19.35 -17.3 L-17.85 -18.25 -15.25 -20.05 M-47.55 45.0 L-47.75 47.3 Q-44.45 28.55 -18.65 10.6 -25.2 40.5 -43.2 46.85 -41.25 46.75 -39.2 46.1 -29.2 42.85 -18.45 25.75 -13.05 17.15 -7.5 5.05 L-6.25 2.3 M-22.8 61.9 L-22.7 62.15 -22.55 62.65 Q-23.4 49.5 -17.8 40.3 -14.15 34.25 -7.6 29.95 L-1.85 25.65 Q-12.2 41.0 -11.05 57.05 L-10.85 59.25 Q-10.3 41.7 5.4 21.7 -2.3 35.25 -1.6 45.4 2.2 34.15 16.2 16.6 L20.3 11.6 22.4 9.05 M23.9 12.55 L24.25 12.15 Q20.25 20.85 20.05 29.4 M11.65 40.15 L11.75 40.5 12.25 42.0 Q10.0 26.75 23.9 12.55 M11.2 14.8 L11.65 14.3 M5.4 21.7 L11.2 14.8 M20.15 32.75 L20.55 36.5 Q19.85 35.05 20.15 32.75 M16.2 16.6 Q8.65 30.0 11.65 40.15 M-28.45 -0.7 Q-25.95 -1.65 -24.0 -3.0 L-22.15 -4.45 Q-20.75 -5.75 -19.7 -7.35 M-58.9 12.35 Q-50.0 3.85 -34.9 1.0 -31.3 0.4 -28.45 -0.7 -50.9 11.6 -57.6 32.75 L-57.8 33.4 Q-49.25 14.65 -25.75 4.15 -45.55 23.1 -47.55 45.0 M-5.5 -18.05 Q-11.4 -3.35 -22.95 2.8 L-24.3 3.5 -25.75 4.15 M-19.35 -17.3 Q-26.9 -6.7 -41.15 -1.15 -55.35 4.4 -59.6 13.05 L-58.9 12.35 M-43.8 47.0 L-43.2 46.85 M-47.75 47.3 L-47.8 48.2 M-22.8 61.9 Q-28.65 43.0 -18.45 25.75" fill="none" stroke="#5b4250" stroke-linecap="round" stroke-linejoin="round" stroke-width="0.5"/>
  </g>
</svg>
