<?xml version="1.0" encoding="UTF-8" standalone="no"?>
<svg xmlns:xlink="http://www.w3.org/1999/xlink" height="35.55px" width="13.3px" xmlns="http://www.w3.org/2000/svg">
  <g transform="matrix(1.0, 0.0, 0.0, 1.0, 0.75, 0.5)">
    <path d="M3.1 0.0 Q8.25 1.05 9.65 11.45 L10.05 14.3 9.3 15.0 9.4 14.85 Q5.5 7.35 3.1 0.0" fill="#ffead5" fill-rule="evenodd" stroke="none"/>
    <path d="M1.55 16.1 L0.05 7.85 Q-1.3 0.2 3.1 0.0 5.5 7.35 9.4 14.85 L9.3 15.0 7.2 16.25 1.55 16.1" fill="#efc3c0" fill-rule="evenodd" stroke="none"/>
    <path d="M11.9 31.35 Q11.4 33.4 9.7 34.15 L8.85 34.4 Q4.9 35.25 4.35 30.95 L3.55 25.8 Q6.4 30.95 11.9 31.35" fill="#e9c0db" fill-rule="evenodd" stroke="none"/>
    <path d="M10.05 14.3 L10.35 16.55 11.9 27.35 Q12.25 29.75 11.9 31.35 6.4 30.95 3.55 25.8 L2.55 21.05 1.95 18.15 1.55 16.1 7.2 16.25 9.3 15.0 10.05 14.3 M10.35 16.55 Q7.0 18.95 1.95 18.15 7.0 18.95 10.35 16.55" fill="#c297ac" fill-rule="evenodd" stroke="none"/>
    <path d="M3.1 0.0 Q8.25 1.05 9.65 11.45 L10.05 14.3 10.35 16.55 11.9 27.35 Q12.25 29.75 11.9 31.35 11.4 33.4 9.7 34.15 L8.85 34.4 Q4.9 35.25 4.35 30.95 L3.55 25.8 2.55 21.05 1.95 18.15 1.55 16.1 0.05 7.85 Q-1.3 0.2 3.1 0.0" fill="none" stroke="#000000" stroke-linecap="round" stroke-linejoin="round" stroke-width="1.0"/>
    <path d="M9.3 15.0 L10.05 14.3 M1.55 16.1 L7.2 16.25 9.3 15.0" fill="none" stroke="#000000" stroke-linecap="round" stroke-linejoin="round" stroke-width="0.05"/>
    <path d="M1.95 18.15 Q7.0 18.95 10.35 16.55" fill="none" stroke="#000000" stroke-linecap="round" stroke-linejoin="round" stroke-opacity="0.50980395" stroke-width="0.05"/>
  </g>
</svg>
