<?xml version="1.0" encoding="UTF-8" standalone="no"?>
<svg xmlns:xlink="http://www.w3.org/1999/xlink" height="48.0px" width="22.3px" xmlns="http://www.w3.org/2000/svg">
  <g transform="matrix(1.0, 0.0, 0.0, 1.0, 0.9, 0.7)">
    <path d="M12.75 0.7 L13.35 12.35 5.05 11.95 Q4.55 5.65 3.25 0.85 L2.85 -0.45 Q8.5 -1.3 12.75 0.7" fill="#331d29" fill-rule="evenodd" stroke="none"/>
    <path d="M5.05 11.95 L1.0 11.75 Q-0.05 5.6 0.0 0.65 0.05 -0.85 1.05 -0.15 2.05 0.5 3.25 0.85 4.55 5.65 5.05 11.95" fill="#170d12" fill-rule="evenodd" stroke="none"/>
    <path d="M12.75 0.7 L13.35 12.35 M1.0 11.75 Q-0.05 5.6 0.0 0.65" fill="none" stroke="#000000" stroke-linecap="round" stroke-linejoin="round" stroke-width="1.0"/>
    <path d="M8.25 45.3 L8.7 45.7 8.1 45.6 8.25 45.3 M4.85 37.65 L4.9 37.25 4.95 36.8 4.95 37.3 4.85 37.65" fill="#efc3c0" fill-rule="evenodd" stroke="none"/>
    <path d="M5.05 11.95 L13.35 12.35 13.45 18.7 13.25 25.75 Q12.8 31.95 13.0 36.5 L13.0 36.6 13.05 37.25 13.05 37.65 Q14.45 40.05 16.75 41.25 18.25 42.0 19.55 43.65 14.05 44.2 6.9 41.15 L6.9 40.35 7.2 37.5 7.25 36.6 7.3 37.3 Q7.35 32.1 6.9 27.4 6.15 22.85 5.65 18.3 L5.05 11.95 M9.9 39.9 Q11.3 37.9 13.05 37.65 11.3 37.9 9.9 39.9" fill="#bb2434" fill-rule="evenodd" stroke="none"/>
    <path d="M4.95 36.45 Q5.35 27.1 2.4 18.7 L2.3 18.15 1.0 11.75 5.05 11.95 5.65 18.3 Q6.15 22.85 6.9 27.4 7.35 32.1 7.3 37.3 L7.25 36.6 7.2 37.5 6.9 40.35 6.9 41.15 4.5 40.05 4.85 37.65 4.95 37.3 4.95 36.5 5.05 36.5 4.95 36.45" fill="#6b0b1b" fill-rule="evenodd" stroke="none"/>
    <path d="M19.55 43.65 L20.9 45.65 Q19.2 47.1 15.6 46.7 L9.65 45.85 8.95 43.75 8.25 45.3 Q7.0 44.05 6.9 41.15 14.05 44.2 19.55 43.65" fill="#430d12" fill-rule="evenodd" stroke="none"/>
    <path d="M8.1 45.6 L5.05 44.8 Q3.95 44.2 4.3 41.45 L4.5 40.05 6.9 41.15 Q7.0 44.05 8.25 45.3 L8.1 45.6" fill="#230609" fill-rule="evenodd" stroke="none"/>
    <path d="M4.95 36.45 Q5.35 27.1 2.4 18.7 L2.3 18.15 1.0 11.75 5.05 11.95 13.35 12.35 13.45 18.7 13.25 25.75 Q12.8 31.95 13.0 36.5 L13.05 37.25 13.05 37.65 Q14.45 40.05 16.75 41.25 18.25 42.0 19.55 43.65 L20.9 45.65 Q19.2 47.1 15.6 46.7 L9.65 45.85 8.95 43.75 8.25 45.3 8.1 45.6 5.05 44.8 Q3.95 44.2 4.3 41.45 L4.5 40.05 4.85 37.65 4.9 37.25 4.95 36.8 M4.95 37.3 L4.95 36.5 M6.9 41.15 Q14.05 44.2 19.55 43.65 M13.0 36.5 L13.0 36.6 13.05 37.25 M4.95 37.3 L4.85 37.65 M6.9 41.15 L4.5 40.05 M13.05 37.65 Q11.3 37.9 9.9 39.9" fill="none" stroke="#000000" stroke-linecap="round" stroke-linejoin="round" stroke-width="1.0"/>
    <path d="M13.95 15.45 L14.7 8.4 Q15.85 10.95 16.05 15.35 15.75 17.4 14.0 18.05 L13.95 15.45 M12.2 8.4 L11.1 12.8 Q10.7 14.6 10.6 15.95 9.3 16.3 10.35 10.2 8.75 13.2 8.65 16.0 5.0 16.35 3.6 14.7 L4.45 8.6 9.0 8.75 12.2 8.4" fill="#ffd9fc" fill-rule="evenodd" stroke="none"/>
    <path d="M13.55 12.05 L12.75 8.2 13.55 12.05 11.1 12.8 12.2 8.4 12.75 8.2 14.1 7.3 14.7 8.4 13.95 15.45 13.55 12.05 M4.45 8.6 L3.6 14.7 Q5.0 16.35 8.65 16.0 8.75 13.2 10.35 10.2 9.3 16.3 10.6 15.95 L10.55 16.75 Q10.5 17.5 10.6 18.05 0.05 18.25 -0.4 14.5 L-0.35 6.5 Q1.05 8.1 4.45 8.6" fill="#d4a9ca" fill-rule="evenodd" stroke="none"/>
    <path d="M12.75 8.2 L13.55 12.05 13.95 15.45 14.0 18.05 Q15.75 17.4 16.05 15.35 15.85 10.95 14.7 8.4 L14.1 7.3 12.75 8.2 12.2 8.4 11.1 12.8 13.55 12.05 M4.45 8.6 L9.0 8.75 12.2 8.4 M10.6 15.95 Q10.7 14.6 11.1 12.8 M10.6 15.95 L10.55 16.75 Q10.5 17.5 10.6 18.05 0.05 18.25 -0.4 14.5 L-0.35 6.5 Q1.05 8.1 4.45 8.6" fill="none" stroke="#000000" stroke-linecap="round" stroke-linejoin="round" stroke-width="1.0"/>
  </g>
</svg>
