<?xml version="1.0" encoding="UTF-8" standalone="no"?>
<svg xmlns:xlink="http://www.w3.org/1999/xlink" height="82.15px" width="37.4px" xmlns="http://www.w3.org/2000/svg">
  <g transform="matrix(1.0, 0.0, 0.0, 1.0, -0.8, 1.65)">
    <path d="M23.35 23.9 L24.85 25.3 25.85 23.35 24.35 22.65 23.35 23.9 M19.85 13.1 L22.95 15.1 28.2 19.9 29.3 20.4 Q32.0 22.15 34.05 25.3 35.85 29.25 34.75 32.75 30.85 32.6 25.6 29.45 24.45 32.05 20.3 33.0 14.15 34.0 11.4 32.1 L7.95 26.95 Q3.2 23.1 2.15 17.2 L3.95 14.95 Q6.75 12.7 8.6 12.0 L8.8 8.9 Q17.35 15.25 19.85 13.1 M33.0 36.75 L31.9 40.9 Q31.2 43.45 31.15 46.2 31.1 48.9 32.0 51.55 L34.0 57.0 Q35.1 59.85 36.35 67.15 L33.2 67.75 31.95 67.95 21.05 68.35 7.65 66.5 7.5 65.9 8.0 65.9 8.25 60.55 9.25 58.35 Q12.15 53.45 13.3 50.7 14.45 45.2 11.65 36.05 14.45 37.3 17.85 37.4 L21.05 36.25 Q24.0 34.5 25.6 31.0 28.7 35.6 33.0 36.75 M26.4 53.9 Q25.3 55.5 25.1 56.75 24.9 57.55 25.15 58.5 25.5 59.45 26.7 60.05 25.75 59.1 26.4 53.9" fill="#ffead5" fill-rule="evenodd" stroke="none"/>
    <path d="M23.35 23.9 L24.35 22.65 25.85 23.35 24.85 25.3 23.35 23.9 M34.75 32.75 L34.65 32.95 33.0 36.75 Q28.7 35.6 25.6 31.0 24.0 34.5 21.05 36.25 L17.85 37.4 Q14.45 37.3 11.65 36.05 14.45 45.2 13.3 50.7 12.15 53.45 9.25 58.35 L8.25 60.55 8.5 53.75 Q11.15 49.5 11.4 46.7 11.6 43.55 7.4 33.9 L2.3 23.3 Q0.85 19.65 1.55 18.25 L2.15 17.2 Q3.2 23.1 7.95 26.95 L11.4 32.1 Q14.15 34.0 20.3 33.0 24.45 32.05 25.6 29.45 30.85 32.6 34.75 32.75 M4.1 65.75 L7.5 65.9 7.65 66.5 4.1 65.75 M8.8 8.9 L8.6 0.25 Q9.85 -1.5 14.05 -1.1 17.6 -1.05 18.4 1.5 18.1 7.95 19.85 13.1 17.35 15.25 8.8 8.9 M26.4 53.9 Q25.75 59.1 26.7 60.05 25.5 59.45 25.15 58.5 24.9 57.55 25.1 56.75 25.3 55.5 26.4 53.9" fill="#efc3c0" fill-rule="evenodd" stroke="none"/>
    <path d="M36.35 67.15 L37.2 71.45 Q35.85 73.65 33.2 75.3 L31.95 76.15 Q29.55 78.0 25.95 79.15 L23.85 80.0 21.05 79.55 Q15.05 78.55 9.5 76.5 3.7 73.15 2.8 67.3 L3.05 65.7 3.05 65.5 4.1 65.75 7.65 66.5 21.05 68.35 31.95 67.95 33.2 67.75 36.35 67.15" fill="#2c1d2b" fill-rule="evenodd" stroke="none"/>
    <path d="M19.85 13.1 L22.95 15.1 28.2 19.9 29.3 20.4 Q32.0 22.15 34.05 25.3 35.85 29.25 34.75 32.75 L34.65 32.95 33.0 36.75 31.9 40.9 Q31.2 43.45 31.15 46.2 31.1 48.9 32.0 51.55 L34.0 57.0 Q35.1 59.85 36.35 67.15 L37.2 71.45 M25.95 79.15 L23.85 80.0 21.05 79.55 Q15.05 78.55 9.5 76.5 3.7 73.15 2.8 67.3 L3.05 65.7 3.05 65.5 4.1 65.75 7.65 66.5 21.05 68.35 31.95 67.95 33.2 67.75 36.35 67.15 M8.5 53.75 Q11.15 49.5 11.4 46.7 11.6 43.55 7.4 33.9 L2.3 23.3 Q0.85 19.65 1.55 18.25 L2.15 17.2 3.95 14.95 Q6.75 12.7 8.6 12.0 L8.8 8.9 8.6 0.25 Q9.85 -1.5 14.05 -1.1 17.6 -1.05 18.4 1.5 18.1 7.95 19.85 13.1 Z" fill="none" stroke="#000000" stroke-linecap="round" stroke-linejoin="round" stroke-width="1.0"/>
    <path d="M36.4 67.4 L35.15 67.4 Q36.25 66.85 33.4 64.55 30.85 63.05 28.8 58.5 28.45 54.9 28.45 51.15 L28.5 48.95 28.25 47.9 Q31.25 59.05 36.4 67.4 M27.1 43.3 L27.35 44.3 Q26.55 45.65 26.8 47.2 L26.9 47.9 26.3 53.85 Q25.85 56.75 25.2 58.5 L23.4 60.0 18.95 63.5 18.05 64.15 Q24.85 58.3 25.3 47.6 L26.4 45.05 26.95 43.75 27.1 43.3 M27.2 52.45 Q26.9 50.35 26.9 47.9 L27.55 54.6 Q27.3 53.6 27.2 52.45" fill="#ffffff" fill-rule="evenodd" stroke="none"/>
    <path d="M19.75 16.05 L20.8 13.1 Q24.3 15.3 28.7 20.15 32.0 22.15 34.05 25.3 L34.65 26.8 Q35.65 29.9 34.75 32.75 30.85 32.6 27.2 29.55 26.8 27.55 25.4 25.15 26.05 22.75 27.55 20.75 25.0 18.4 19.75 16.05 M32.95 39.5 Q31.95 43.75 33.1 49.1 L37.7 67.4 36.4 67.4 Q31.25 59.05 28.25 47.9 L27.45 44.7 27.35 44.3 27.1 43.3 27.1 43.25 27.0 37.4 Q30.65 37.45 32.95 39.5 M14.4 66.7 L7.9 66.5 10.9 61.7 Q14.05 56.2 15.5 46.15 16.85 37.0 25.6 37.4 L25.65 37.4 Q25.65 40.9 26.1 44.35 L26.4 45.05 25.3 47.6 Q20.2 59.4 14.4 66.7 M24.7 24.9 Q24.6 25.15 24.8 25.6 25.7 27.6 26.25 29.65 L26.45 30.2 Q23.9 32.2 20.3 33.0 L15.65 33.35 Q13.3 32.45 10.85 29.05 12.45 26.2 10.5 18.6 L17.35 20.0 17.1 21.0 Q18.8 22.5 24.7 24.9" fill="#bb2434" fill-rule="evenodd" stroke="none"/>
    <path d="M34.75 32.75 L34.65 32.95 Q33.9 35.05 33.45 37.7 L33.4 37.7 32.95 39.5 Q30.65 37.45 27.0 37.4 L27.1 43.25 27.1 43.3 26.95 43.75 26.4 45.05 26.1 44.35 Q25.65 40.9 25.65 37.4 L25.6 37.4 Q16.85 37.0 15.5 46.15 14.05 56.2 10.9 61.7 L7.9 66.5 2.3 66.3 7.95 54.6 Q11.4 46.0 10.0 41.15 8.55 36.3 6.75 32.5 L5.45 29.85 7.65 29.05 Q9.15 28.05 9.85 25.25 11.45 20.45 5.9 13.45 L7.8 11.75 19.7 16.05 Q18.0 17.9 17.35 20.0 L10.5 18.6 Q12.45 26.2 10.85 29.05 13.3 32.45 15.65 33.35 L20.3 33.0 Q23.9 32.2 26.45 30.2 L26.25 29.65 Q25.7 27.6 24.8 25.6 24.6 25.15 24.7 24.9 L25.4 25.15 Q26.8 27.55 27.2 29.55 30.85 32.6 34.75 32.75 M26.95 43.75 L27.1 43.25 26.95 43.75 M27.2 29.55 Q28.05 32.65 27.0 37.4 28.05 32.65 27.2 29.55" fill="#6b0b1b" fill-rule="evenodd" stroke="none"/>
    <path d="M35.15 67.4 Q30.9 68.45 26.45 68.45 20.6 68.45 14.45 66.7 L16.75 65.1 16.0 65.65 Q15.55 66.1 15.25 66.7 L15.2 66.85 Q19.8 64.15 24.5 60.75 L24.7 60.7 Q26.1 59.3 26.95 57.35 L26.95 57.3 27.25 56.4 27.55 54.8 27.55 54.75 Q28.0 56.75 28.7 58.25 L28.8 58.5 Q30.85 63.05 33.4 64.55 36.25 66.85 35.15 67.4 M18.95 63.5 L23.4 60.0 Q21.55 62.15 18.95 63.5 M26.3 53.85 L26.9 47.9 Q26.9 50.35 27.2 52.45 L27.15 52.4 26.8 52.9 26.8 52.95 26.3 53.85 M26.45 68.45 Q27.0 63.4 26.95 57.35 27.0 63.4 26.45 68.45" fill="#2c1d2b" fill-rule="evenodd" stroke="none"/>
    <path d="M18.05 64.15 L18.95 63.5 Q21.55 62.15 23.4 60.0 L25.2 58.5 Q25.85 56.75 26.3 53.85 L26.8 52.95 26.8 52.9 27.15 52.4 27.2 52.45 Q27.3 53.6 27.55 54.6 L27.55 54.75 27.55 54.8 27.25 56.4 26.95 57.3 26.95 57.35 Q26.1 59.3 24.7 60.7 L24.5 60.75 Q19.8 64.15 15.2 66.85 L15.25 66.7 Q15.55 66.1 16.0 65.65 L16.75 65.1 18.05 64.15 M26.8 52.95 L26.95 57.3 26.8 52.95" fill="#170d12" fill-rule="evenodd" stroke="none"/>
    <path d="M14.45 66.7 L14.4 66.7 Q20.2 59.4 25.3 47.6 24.85 58.3 18.05 64.15 L16.75 65.1 14.45 66.7 M27.35 44.3 L27.45 44.7 28.25 47.9 28.5 48.95 28.45 51.15 Q28.45 54.9 28.8 58.5 L28.7 58.25 Q28.0 56.75 27.55 54.75 L27.55 54.6 26.9 47.9 26.8 47.2 Q26.55 45.65 27.35 44.3" fill="#e9d3e1" fill-rule="evenodd" stroke="none"/>
    <path d="M19.75 16.05 L20.8 13.1 Q24.3 15.3 28.7 20.15 32.0 22.15 34.05 25.3 L34.65 26.8 Q35.65 29.9 34.75 32.75 L34.65 32.95 Q33.9 35.05 33.45 37.7 L33.4 37.7 32.95 39.5 Q31.95 43.75 33.1 49.1 L37.7 67.4 36.4 67.4 35.15 67.4 Q30.9 68.45 26.45 68.45 20.6 68.45 14.45 66.7 L14.4 66.7 7.9 66.5 2.3 66.3 7.95 54.6 Q11.4 46.0 10.0 41.15 8.55 36.3 6.75 32.5 L5.45 29.85 7.65 29.05 Q9.15 28.05 9.85 25.25 11.45 20.45 5.9 13.45 L7.8 11.75 19.7 16.05 19.75 16.05 Q25.0 18.4 27.55 20.75 26.05 22.75 25.4 25.15 L24.7 24.9 Q18.8 22.5 17.1 21.0 L17.35 20.0 Q18.0 17.9 19.7 16.05 M27.1 43.3 L27.35 44.3 27.45 44.7 28.25 47.9 Q31.25 59.05 36.4 67.4 M26.95 43.75 L26.4 45.05 25.3 47.6 Q20.2 59.4 14.4 66.7 M18.05 64.15 L18.95 63.5 23.4 60.0 25.2 58.5 Q25.85 56.75 26.3 53.85 L26.9 47.9 Q26.9 50.35 27.2 52.45 27.3 53.6 27.55 54.6 L27.55 54.75 Q28.0 56.75 28.7 58.25 L28.8 58.5 Q30.85 63.05 33.4 64.55 36.25 66.85 35.15 67.4 M27.1 43.25 L26.95 43.75 M16.75 65.1 L14.45 66.7 M18.05 64.15 L16.75 65.1" fill="none" stroke="#000000" stroke-linecap="round" stroke-linejoin="round" stroke-width="1.0"/>
    <path d="M25.4 25.15 Q26.8 27.55 27.2 29.55 28.05 32.65 27.0 37.4 L27.1 43.25 M26.95 57.35 Q27.0 63.4 26.45 68.45 M26.95 57.3 L26.8 52.95" fill="none" stroke="#000000" stroke-linecap="round" stroke-linejoin="round" stroke-width="0.05"/>
    <path d="M27.9 28.25 Q29.5 29.05 28.15 30.5 L28.0 30.5 Q26.45 30.35 26.65 29.5 26.8 28.6 27.15 28.4 L27.9 28.25 M27.9 33.75 Q29.5 34.55 28.15 36.0 L28.0 36.0 Q26.45 35.85 26.65 35.0 26.8 34.1 27.15 33.9 L27.9 33.75 M27.75 41.1 L27.6 41.1 Q26.05 40.95 26.25 40.1 26.4 39.2 26.75 39.0 L27.5 38.85 Q29.1 39.65 27.75 41.1" fill="#fff677" fill-rule="evenodd" stroke="none"/>
    <path d="M28.15 30.5 L27.95 30.7 27.35 30.75 Q25.2 29.6 26.9 28.05 L27.15 27.95 27.9 28.25 27.15 28.4 Q26.8 28.6 26.65 29.5 26.45 30.35 28.0 30.5 L28.15 30.5 M28.15 36.0 L27.95 36.2 27.35 36.25 Q25.2 35.1 26.9 33.55 L27.15 33.45 27.9 33.75 27.15 33.9 Q26.8 34.1 26.65 35.0 26.45 35.85 28.0 36.0 L28.15 36.0 M27.5 38.85 L26.75 39.0 Q26.4 39.2 26.25 40.1 26.05 40.95 27.6 41.1 L27.75 41.1 27.55 41.3 26.95 41.35 Q24.8 40.2 26.5 38.65 L26.75 38.55 27.5 38.85" fill="#aa913e" fill-rule="evenodd" stroke="none"/>
    <path d="M28.15 30.5 L27.95 30.7 27.35 30.75 Q25.2 29.6 26.9 28.05 L27.15 27.95 27.9 28.25 Q29.5 29.05 28.15 30.5 M28.15 36.0 L27.95 36.2 27.35 36.25 Q25.2 35.1 26.9 33.55 L27.15 33.45 27.9 33.75 Q29.5 34.55 28.15 36.0 M27.75 41.1 Q29.1 39.65 27.5 38.85 L26.75 38.55 26.5 38.65 Q24.8 40.2 26.95 41.35 L27.55 41.3 27.75 41.1" fill="none" stroke="#000000" stroke-linecap="round" stroke-linejoin="round" stroke-width="0.05"/>
    <path d="M22.4 10.4 L23.4 11.4 Q22.15 13.5 19.65 14.2 L19.7 12.55 19.75 12.55 Q21.55 12.2 22.25 10.35 L22.4 10.4 M24.15 13.75 L24.2 14.6 Q22.6 17.8 19.65 15.95 L19.6 15.9 19.65 15.05 Q22.7 15.8 24.15 13.75 M18.9 16.7 L18.95 16.7 18.85 16.75 Q17.6 16.9 18.45 16.95 17.35 17.55 16.15 17.8 8.75 16.9 5.75 12.65 L5.65 11.6 Q10.8 15.9 18.9 16.7 L18.85 16.75 18.9 16.7 M6.5 9.65 L7.75 8.45 Q10.7 12.25 16.9 12.85 L18.05 14.2 Q12.2 14.55 6.5 9.65" fill="#ffffff" fill-rule="evenodd" stroke="none"/>
    <path d="M23.4 11.4 L24.05 12.8 24.15 13.75 Q22.7 15.8 19.65 15.05 L19.65 14.2 Q22.15 13.5 23.4 11.4 M19.65 15.95 L19.75 16.05 18.9 16.7 Q10.8 15.9 5.65 11.6 5.75 10.6 6.5 9.65 12.2 14.55 18.05 14.2 L19.6 15.9 19.65 15.95 M18.85 16.75 L18.45 16.95 Q17.6 16.9 18.85 16.75 M19.75 12.55 Q19.25 11.55 18.95 9.6 L22.25 10.35 Q21.55 12.2 19.75 12.55" fill="#bb2434" fill-rule="evenodd" stroke="none"/>
    <path d="M22.4 10.4 L23.4 11.4 24.05 12.8 24.15 13.75 24.2 14.6 Q22.6 17.8 19.65 15.95 L19.75 16.05 18.9 16.7 18.85 16.75 18.45 16.95 Q17.35 17.55 16.15 17.8 8.75 16.9 5.75 12.65 L5.65 11.6 Q5.75 10.6 6.5 9.65 L7.75 8.45 Q10.7 12.25 16.9 12.85 L18.05 14.2 19.6 15.9 19.65 15.05 19.65 14.2 19.7 12.55 19.75 12.55 Q19.25 11.55 18.95 9.6 L22.25 10.35 22.25 10.3 22.4 10.4 22.25 10.35 Q21.55 12.2 19.75 12.55 M19.6 15.9 L19.65 15.95" fill="none" stroke="#000000" stroke-linecap="round" stroke-linejoin="round" stroke-width="1.0"/>
    <path d="M24.3 21.45 L24.0 21.75 Q23.55 22.25 22.55 22.05 21.65 21.9 20.8 21.05 19.95 20.25 19.7 19.35 19.5 18.35 20.05 17.9 L20.45 17.65 Q20.25 21.2 24.3 21.45" fill="#bb2434" fill-rule="evenodd" stroke="none"/>
    <path d="M22.15 16.95 L24.05 18.15 Q25.25 19.35 25.55 20.8 L25.6 20.9 Q24.85 23.1 22.9 22.85 20.9 22.55 19.9 21.05 18.9 19.55 19.55 17.55 19.85 16.45 22.15 16.95 M24.3 21.45 Q24.55 20.95 24.4 20.3 24.15 19.35 23.35 18.55 22.55 17.7 21.55 17.55 L20.45 17.65 20.05 17.9 Q19.5 18.35 19.7 19.35 19.95 20.25 20.8 21.05 21.65 21.9 22.55 22.05 23.55 22.25 24.0 21.75 L24.3 21.45 M22.3 17.35 L23.8 18.6 Q24.55 19.0 24.7 19.75 24.8 18.9 24.0 18.5 L22.3 17.35 M25.05 20.25 L24.95 20.95 Q25.05 22.05 24.05 22.4 24.65 22.45 24.9 21.85 L25.05 20.25 M19.9 20.25 L20.05 21.0 Q20.45 21.8 21.1 22.2 L20.6 21.4 19.9 20.25" fill="#fff082" fill-rule="evenodd" stroke="none"/>
    <path d="M20.45 17.65 L21.55 17.55 Q22.55 17.7 23.35 18.55 24.15 19.35 24.4 20.3 24.55 20.95 24.3 21.45 20.25 21.2 20.45 17.65 M21.4 17.8 L21.1 17.85 20.95 18.05 Q20.65 19.05 22.1 19.0 L22.3 18.9 Q22.7 17.95 21.4 17.8 M22.85 18.65 Q22.6 18.65 22.6 18.9 22.6 19.2 22.85 19.25 23.8 19.3 22.85 18.65" fill="#fa6262" fill-rule="evenodd" stroke="none"/>
    <path d="M21.4 17.8 Q22.7 17.95 22.3 18.9 L22.1 19.0 Q20.65 19.05 20.95 18.05 L21.1 17.85 21.4 17.8 M22.85 18.65 Q23.8 19.3 22.85 19.25 22.6 19.2 22.6 18.9 22.6 18.65 22.85 18.65" fill="#ffd2d2" fill-rule="evenodd" stroke="none"/>
    <path d="M25.6 20.9 Q25.8 22.2 25.0 23.05 24.2 23.8 22.75 23.55 21.3 23.3 20.1 22.15 18.85 20.9 18.5 19.45 18.25 18.0 19.05 17.25 19.9 16.45 21.3 16.7 L22.15 16.95 Q19.85 16.45 19.55 17.55 18.9 19.55 19.9 21.05 20.9 22.55 22.9 22.85 24.85 23.1 25.6 20.9 M22.3 17.35 L24.0 18.5 Q24.8 18.9 24.7 19.75 24.55 19.0 23.8 18.6 L22.3 17.35 M25.05 20.25 L24.9 21.85 Q24.65 22.45 24.05 22.4 25.05 22.05 24.95 20.95 L25.05 20.25 M19.9 20.25 L20.6 21.4 21.1 22.2 Q20.45 21.8 20.05 21.0 L19.9 20.25" fill="#c4af50" fill-rule="evenodd" stroke="none"/>
    <path d="M22.15 16.95 L24.05 18.15 Q25.25 19.35 25.55 20.8 L25.6 20.9 Q25.8 22.2 25.0 23.05 24.2 23.8 22.75 23.55 21.3 23.3 20.1 22.15 18.85 20.9 18.5 19.45 18.25 18.0 19.05 17.25 19.9 16.45 21.3 16.7 L22.15 16.95 M20.45 17.65 L21.55 17.55 Q22.55 17.7 23.35 18.55 24.15 19.35 24.4 20.3 24.55 20.95 24.3 21.45 L24.0 21.75 Q23.55 22.25 22.55 22.05 21.65 21.9 20.8 21.05 19.95 20.25 19.7 19.35 19.5 18.35 20.05 17.9 L20.45 17.65" fill="none" stroke="#000000" stroke-linecap="round" stroke-linejoin="round" stroke-width="0.05"/>
  </g>
</svg>
