<?xml version="1.0" encoding="UTF-8" standalone="no"?>
<svg xmlns:xlink="http://www.w3.org/1999/xlink" height="45.85px" width="22.0px" xmlns="http://www.w3.org/2000/svg">
  <g transform="matrix(1.0, 0.0, 0.0, 1.0, 0.6, 0.3)">
    <path d="M20.9 13.1 L20.85 13.25 Q19.75 19.65 18.3 25.4 11.4 21.45 6.65 21.0 L5.65 22.3 Q5.4 22.75 5.55 24.2 L0.8 21.8 Q1.35 14.5 2.35 7.0 L2.75 4.15 3.25 0.2 Q5.7 -1.45 14.2 2.1 19.75 6.0 20.9 13.1" fill="#efc3c0" fill-rule="evenodd" stroke="none"/>
    <path d="M18.3 25.4 L18.1 26.3 Q13.6 27.55 5.55 24.2 5.4 22.75 5.65 22.3 L6.65 21.0 Q11.4 21.45 18.3 25.4" fill="#ffead5" fill-rule="evenodd" stroke="none"/>
    <path d="M2.6 43.6 Q1.95 44.75 1.35 42.6 0.3 41.5 -0.1 40.0 0.0 31.1 0.8 21.8 L5.55 24.2 Q3.95 41.15 2.6 43.6 L1.35 42.6 2.6 43.6" fill="#170d12" fill-rule="evenodd" stroke="none"/>
    <path d="M18.1 26.3 Q15.7 35.45 12.5 42.9 9.55 45.9 5.2 44.7 3.7 44.25 2.6 43.6 3.95 41.15 5.55 24.2 13.6 27.55 18.1 26.3" fill="#331d29" fill-rule="evenodd" stroke="none"/>
    <path d="M20.9 13.1 L20.85 13.25 Q19.75 19.65 18.3 25.4 L18.1 26.3 Q15.7 35.45 12.5 42.9 9.55 45.9 5.2 44.7 3.7 44.25 2.6 43.6 L1.35 42.6 Q0.3 41.5 -0.1 40.0 0.0 31.1 0.8 21.8 1.35 14.5 2.35 7.0 L2.75 4.15 3.25 0.2" fill="none" stroke="#000000" stroke-linecap="round" stroke-linejoin="round" stroke-width="1.0"/>
    <path d="M5.55 24.2 Q13.6 27.55 18.1 26.3 M0.8 21.8 L5.55 24.2" fill="none" stroke="#000000" stroke-linecap="round" stroke-linejoin="round" stroke-width="0.05"/>
  </g>
</svg>
