<?xml version="1.0" encoding="UTF-8" standalone="no"?>
<svg xmlns:xlink="http://www.w3.org/1999/xlink" height="46.5px" width="87.4px" xmlns="http://www.w3.org/2000/svg">
  <g transform="matrix(1.0, 0.0, 0.0, 1.0, 36.05, 3.75)">
    <path d="M-18.75 22.8 L-21.1 22.55 -29.45 25.3 -32.2 22.55 -25.75 20.8 -18.75 22.8 M-22.85 31.45 L-29.8 27.75 -17.2 23.0 -11.2 23.65 -22.85 31.45 M-29.4 20.45 L-30.05 17.95 -26.85 16.85 -26.5 20.55 -26.55 20.55 -29.4 20.45" fill="#ffffff" fill-rule="evenodd" stroke="none"/>
    <path d="M-18.75 22.8 L-17.2 23.0 -29.8 27.75 -22.85 31.45 -24.95 32.85 Q-26.45 31.05 -29.9 30.15 -35.3 29.2 -35.55 27.6 L-33.25 26.5 -29.45 25.3 -33.25 26.5 Q-35.3 23.4 -34.95 20.3 L-32.1 20.3 Q-32.5 18.95 -33.95 17.65 -36.45 14.95 -35.05 13.1 -32.05 15.5 -26.95 15.9 L-26.85 16.85 -30.05 17.95 -29.4 20.45 -26.55 20.55 -25.75 20.8 -32.2 22.55 -29.45 25.3 -21.1 22.55 -18.75 22.8 M-29.4 20.45 L-32.1 20.3 -29.4 20.45" fill="#e9d3e1" fill-rule="evenodd" stroke="none"/>
    <path d="M-17.2 23.0 L-18.75 22.8 -21.1 22.55 -29.45 25.3 -33.25 26.5 -35.55 27.6 Q-35.3 29.2 -29.9 30.15 -26.45 31.05 -24.95 32.85 L-22.85 31.45 -11.2 23.65 -17.2 23.0 -13.25 21.5 M-26.85 16.85 L-26.95 15.9 Q-32.05 15.5 -35.05 13.1 -36.45 14.95 -33.95 17.65 -32.5 18.95 -32.1 20.3 L-29.4 20.45 -26.55 20.55 -25.75 20.8 -25.1 20.6 -26.5 20.55 -26.55 20.55 M-26.85 16.85 L-20.05 14.5 M-32.1 20.3 L-34.95 20.3 Q-35.3 23.4 -33.25 26.5 M-26.85 16.85 L-26.5 20.55 M-25.75 20.8 L-18.75 22.8 M-21.2 32.3 L-22.85 31.45 M-25.1 20.6 L-17.9 18.6" fill="none" stroke="#000000" stroke-linecap="round" stroke-linejoin="round" stroke-width="1.0"/>
    <path d="M28.9 4.8 Q29.45 5.5 29.55 6.5 29.6 7.25 29.3 7.75 28.3 7.35 28.25 5.95 28.25 5.15 28.9 4.8 M23.95 4.65 Q24.85 5.85 24.2 7.35 23.85 8.35 23.0 9.0 22.45 7.85 23.0 6.25 23.35 5.25 23.95 4.65 M18.0 4.3 Q18.55 5.2 17.35 6.3 16.65 7.05 15.75 7.05 15.8 6.15 16.75 5.2 L18.0 4.3" fill="#093113" fill-rule="evenodd" stroke="none"/>
    <path d="M34.55 8.9 L34.55 9.1 34.55 8.9 34.4 8.55 34.55 8.9 M23.95 4.65 Q23.35 5.25 23.0 6.25 22.45 7.85 23.0 9.0 23.85 8.35 24.2 7.35 24.85 5.85 23.95 4.65 M28.9 4.8 Q28.25 5.15 28.25 5.95 28.3 7.35 29.3 7.75 29.6 7.25 29.55 6.5 29.45 5.5 28.9 4.8 M31.15 19.55 L25.4 20.45 22.9 10.1 22.65 19.85 14.45 19.7 15.2 9.1 12.45 17.75 5.9 17.0 8.35 8.15 4.9 14.5 2.8 13.5 8.1 4.4 Q21.5 2.55 34.15 4.45 L40.1 16.6 38.8 17.2 34.55 9.1 36.8 18.3 32.5 19.05 29.0 9.95 31.15 19.55 M8.5 7.9 L8.35 8.15 8.5 7.9 M18.0 4.3 L16.75 5.2 Q15.8 6.15 15.75 7.05 16.65 7.05 17.35 6.3 18.55 5.2 18.0 4.3" fill="#e278a6" fill-rule="evenodd" stroke="none"/>
    <path d="M22.6 21.5 L22.65 19.85 22.6 21.5 Q15.65 22.05 11.6 20.7 L11.95 19.5 12.45 17.75 11.95 19.5 Q6.1 19.4 3.15 17.45 L4.05 16.0 Q0.85 15.35 -0.5 14.05 L7.7 4.45 8.1 4.4 2.8 13.5 4.9 14.5 8.35 8.15 5.9 17.0 12.45 17.75 15.2 9.1 14.45 19.7 22.65 19.85 22.9 10.1 25.4 20.45 31.15 19.55 31.5 21.1 31.15 19.55 29.0 9.95 32.5 19.05 36.8 18.3 34.55 9.1 38.8 17.2 40.1 16.6 40.6 17.65 Q39.75 18.7 37.05 19.3 L37.25 20.05 Q35.7 21.2 31.5 21.1 L31.6 21.6 Q25.2 22.95 22.55 22.1 L22.6 21.5 M36.8 18.3 L37.05 19.3 36.8 18.3 M4.9 14.5 L4.05 16.0 4.9 14.5" fill="#9f4664" fill-rule="evenodd" stroke="none"/>
    <path d="M34.55 8.9 L34.4 8.55 M22.65 19.85 L22.6 21.5 22.55 22.1 Q25.2 22.95 31.6 21.6 L31.5 21.1 31.15 19.55 29.0 9.95 M22.9 10.1 L22.65 19.85 M15.2 9.1 L12.45 17.75 11.95 19.5 11.6 20.7 Q15.65 22.05 22.6 21.5 M40.1 16.6 L34.15 4.45 Q21.5 2.55 8.1 4.4 L7.7 4.45 -0.5 14.05 Q0.85 15.35 4.05 16.0 L4.9 14.5 8.35 8.15 8.5 7.9 M31.5 21.1 Q35.7 21.2 37.25 20.05 L37.05 19.3 36.8 18.3 34.55 9.1 M4.05 16.0 L3.15 17.45 Q6.1 19.4 11.95 19.5 M37.05 19.3 Q39.75 18.7 40.6 17.65 L40.1 16.6" fill="none" stroke="#000000" stroke-linecap="round" stroke-linejoin="round" stroke-width="1.0"/>
    <path d="M34.55 9.1 L34.55 8.9 Z" fill="none" stroke="#000000" stroke-linecap="round" stroke-linejoin="round" stroke-width="0.05"/>
    <path d="M35.3 4.2 L34.65 2.15 36.6 2.15 Q44.1 15.95 46.85 26.25 45.55 35.3 37.95 36.95 L42.35 30.65 Q44.95 19.3 35.3 4.2 M14.5 0.95 L11.85 3.5 9.85 5.15 Q6.0 8.25 0.1 12.2 -8.5 18.1 -14.15 24.2 -17.1 22.65 -22.75 22.5 -14.55 12.15 7.8 0.95 L14.5 0.95" fill="#bb2434" fill-rule="evenodd" stroke="none"/>
    <path d="M35.3 4.2 Q44.95 19.3 42.35 30.65 L37.95 36.95 37.2 37.05 Q41.6 28.4 39.75 18.45 L36.35 7.55 35.75 5.65 35.3 4.2 M-22.75 22.5 Q-27.85 22.05 -27.6 15.85 -24.5 16.6 -12.15 9.1 0.2 1.55 4.05 -3.25 L7.8 0.95 Q-14.55 12.15 -22.75 22.5" fill="#6b0b1b" fill-rule="evenodd" stroke="none"/>
    <path d="M34.65 2.15 L35.3 4.2 35.75 5.65 34.65 7.65 34.55 7.4 Q33.3 4.9 31.35 3.15 29.55 5.0 28.35 5.1 27.25 3.1 25.95 1.9 24.35 3.15 23.05 5.0 L21.7 4.15 19.3 2.15 14.95 5.65 Q15.3 3.9 16.1 2.3 L16.5 1.1 14.85 1.0 13.95 4.4 13.9 5.65 11.85 3.5 14.5 0.95 34.65 2.15 M33.6 8.8 Q32.3 9.95 30.45 10.3 29.65 7.75 28.7 5.8 30.15 5.55 31.35 4.3 L32.9 7.4 33.6 8.8 M14.8 6.4 L15.35 6.8 Q17.5 5.45 19.2 3.25 L21.0 4.95 Q21.7 5.6 22.55 5.8 21.5 7.4 20.7 9.4 17.4 8.4 14.8 6.4" fill="#2c1d2b" fill-rule="evenodd" stroke="none"/>
    <path d="M11.85 3.5 L13.9 5.65 14.35 6.05 14.95 5.65 19.3 2.15 21.7 4.15 23.05 5.0 Q24.35 3.15 25.95 1.9 27.25 3.1 28.35 5.1 29.55 5.0 31.35 3.15 33.3 4.9 34.55 7.4 L34.65 7.65 35.75 5.65 36.35 7.55 Q34.35 12.0 28.75 14.0 27.75 7.9 25.8 5.15 23.4 7.65 22.4 13.6 13.05 10.85 9.85 5.15 L11.85 3.5 M28.7 5.8 Q29.65 7.75 30.45 10.3 32.3 9.95 33.6 8.8 L32.9 7.4 31.35 4.3 Q30.15 5.55 28.7 5.8 L28.35 5.1 28.7 5.8 M34.65 7.65 L33.6 8.8 34.65 7.65 M22.55 5.8 Q21.7 5.6 21.0 4.95 L19.2 3.25 Q17.5 5.45 15.35 6.8 L14.8 6.4 Q17.4 8.4 20.7 9.4 21.5 7.4 22.55 5.8 L22.85 5.3 22.55 5.8" fill="#ffffff" fill-rule="evenodd" stroke="none"/>
    <path d="M13.9 5.65 L13.95 4.4 14.85 1.0 16.5 1.1 16.1 2.3 Q15.3 3.9 14.95 5.65 L14.35 6.05 13.9 5.65" fill="#170d12" fill-rule="evenodd" stroke="none"/>
    <path d="M34.65 2.15 L35.3 4.2 35.75 5.65 36.35 7.55 39.75 18.45 Q41.6 28.4 37.2 37.05 L37.95 36.95 Q45.55 35.3 46.85 26.25 44.1 15.95 36.6 2.15 M14.5 0.95 L11.85 3.5 13.9 5.65 14.35 6.05 M23.05 5.0 Q24.35 3.15 25.95 1.9 27.25 3.1 28.35 5.1 L28.7 5.8 Q29.65 7.75 30.45 10.3 32.3 9.95 33.6 8.8 L34.65 7.65 35.75 5.65 M14.8 6.4 Q17.4 8.4 20.7 9.4 21.5 7.4 22.55 5.8 L22.85 5.3 M9.85 5.15 Q13.05 10.85 22.4 13.6 23.4 7.65 25.8 5.15 27.75 7.9 28.75 14.0 34.35 12.0 36.35 7.55 M9.85 5.15 Q6.0 8.25 0.1 12.2 -8.5 18.1 -14.15 24.2 L-14.05 24.15 -17.45 28.05 -14.15 24.2 Q-17.1 22.65 -22.75 22.5 -27.85 22.05 -27.6 15.85 -24.5 16.6 -12.15 9.1 0.2 1.55 4.05 -3.25 M11.85 3.5 L9.85 5.15" fill="none" stroke="#000000" stroke-linecap="round" stroke-linejoin="round" stroke-width="1.0"/>
    <path d="M1.65 24.25 L2.0 22.35 8.8 34.95 Q8.0 36.15 7.0 36.8 L1.65 24.85 3.4 35.2 Q0.2 37.1 -1.05 36.05 L-0.3 15.45 -0.1 15.3 -0.3 15.45 -0.4 15.75 Q-3.8 26.85 -3.35 35.45 -11.75 37.7 -11.0 35.7 L-0.4 15.75 -0.15 15.0 -0.1 15.3 1.6 24.6 1.5 24.65 1.65 24.85 1.5 24.65 1.6 24.6 1.6 24.7 1.65 24.25 M1.6 24.7 L1.65 24.85 1.6 24.7 M-0.2 14.6 L-0.2 14.7 Q-9.7 26.25 -13.95 33.75 -22.45 33.95 -22.9 31.55 -11.85 25.25 -3.05 16.6 L-0.2 14.6" fill="#ffffff" fill-rule="evenodd" stroke="none"/>
    <path d="M-0.3 15.45 L-1.05 36.05 Q0.2 37.1 3.4 35.2 L1.65 24.85 7.0 36.8 Q5.0 38.05 2.2 37.7 L3.65 36.7 3.4 35.2 3.65 36.7 2.2 37.7 Q-1.8 40.1 -5.15 37.7 L-3.25 36.9 -3.35 35.45 -3.25 36.9 -5.15 37.7 Q-13.5 40.65 -16.25 35.7 -24.85 35.85 -26.9 32.1 -14.6 26.2 -3.05 16.6 -11.85 25.25 -22.9 31.55 -22.45 33.95 -13.95 33.75 -9.7 26.25 -0.2 14.7 L-0.15 15.0 -0.4 15.75 -11.0 35.7 Q-11.75 37.7 -3.35 35.45 -3.8 26.85 -0.4 15.75 L-0.3 15.45 M-13.95 33.75 L-15.0 35.55 -16.25 35.7 -15.0 35.55 -13.95 33.75" fill="#e9d3e1" fill-rule="evenodd" stroke="none"/>
    <path d="M1.65 24.25 L2.0 22.35 8.8 34.95 Q8.0 36.15 7.0 36.8 L7.1 37.1 M1.6 24.6 L1.6 24.7 1.65 24.25 1.6 24.6 -0.1 15.3 -0.3 15.45 -0.4 15.75 Q-3.8 26.85 -3.35 35.45 L-3.25 36.9 -5.15 37.7 Q-1.8 40.1 2.2 37.7 5.0 38.05 7.0 36.8 M3.4 35.2 L1.65 24.85 1.5 24.65 1.6 24.6 M3.4 35.2 L3.65 36.7 2.2 37.7 M1.65 24.85 L1.6 24.7 M-0.2 14.6 L-0.2 14.7 0.0 14.45 -0.2 14.6 -3.05 16.6 Q-14.6 26.2 -26.9 32.1 -24.85 35.85 -16.25 35.7 L-15.0 35.55 -13.95 33.75 Q-9.7 26.25 -0.2 14.7 L-0.15 15.0 0.0 14.45 M-0.15 15.0 L-0.1 15.3 M-0.15 15.0 L-0.4 15.75 M-5.15 37.7 Q-13.5 40.65 -16.25 35.7" fill="none" stroke="#000000" stroke-linecap="round" stroke-linejoin="round" stroke-width="1.0"/>
    <path d="M4.05 8.2 Q5.35 7.4 6.75 6.65 L6.75 6.75 Q-3.25 16.4 -8.2 22.9 -15.05 21.85 -14.95 19.55 -4.8 15.15 4.05 8.2 M6.7 7.05 L6.7 7.35 6.1 16.45 6.05 16.5 6.1 16.65 6.05 16.5 6.1 16.45 6.1 16.55 6.25 16.15 6.9 14.35 9.8 27.35 7.95 28.8 6.1 16.65 5.4 26.8 1.65 26.95 6.5 7.5 6.35 7.75 Q1.35 17.8 -0.05 26.05 -7.25 27.0 -6.25 25.15 L6.35 7.75 6.7 7.05 M6.5 7.5 L6.7 7.35 6.5 7.5 M6.1 16.65 L6.1 16.55 6.1 16.65" fill="#ffffff" fill-rule="evenodd" stroke="none"/>
    <path d="M6.75 6.75 L6.7 7.05 6.35 7.75 -6.25 25.15 Q-7.25 27.0 -0.05 26.05 1.35 17.8 6.35 7.75 L6.5 7.5 1.65 26.95 5.4 26.8 6.1 16.65 7.95 28.8 3.95 28.95 Q0.2 30.7 -1.95 27.9 L-0.3 27.45 -0.05 26.05 -0.3 27.45 -1.95 27.9 Q-9.25 29.5 -10.45 24.4 -17.35 23.35 -16.45 16.7 -7.15 15.65 4.05 8.2 -4.8 15.15 -14.95 19.55 -15.05 21.85 -8.2 22.9 -3.25 16.4 6.75 6.75 M5.4 26.8 L5.3 28.2 3.95 28.95 5.3 28.2 5.4 26.8 M-8.2 22.9 L-9.4 24.45 -10.45 24.4 -9.4 24.45 -8.2 22.9" fill="#e9d3e1" fill-rule="evenodd" stroke="none"/>
    <path d="M6.75 6.75 L6.7 7.05 6.95 6.55 6.75 6.75 6.75 6.65 Q5.35 7.4 4.05 8.2 -7.15 15.65 -16.45 16.7 -17.35 23.35 -10.45 24.4 L-9.4 24.45 -8.2 22.9 Q-3.25 16.4 6.75 6.75 M6.7 7.05 L6.7 7.35 6.1 16.45 6.25 16.15 6.9 14.35 9.8 27.35 7.95 28.8 8.0 29.1 M6.7 7.35 L6.5 7.5 6.35 7.75 Q1.35 17.8 -0.05 26.05 L-0.3 27.45 -1.95 27.9 Q0.2 30.7 3.95 28.95 L5.3 28.2 5.4 26.8 6.1 16.65 6.05 16.5 6.1 16.45 6.1 16.55 6.25 16.15 M6.95 6.55 L6.75 6.65 M6.7 7.05 L6.35 7.75 M6.1 16.55 L6.1 16.65 M7.95 28.8 L3.95 28.95 M-1.95 27.9 Q-9.25 29.5 -10.45 24.4" fill="none" stroke="#000000" stroke-linecap="round" stroke-linejoin="round" stroke-width="1.0"/>
    <path d="M14.4 1.05 L14.4 1.1 Q6.7 8.1 2.7 12.9 -1.8 11.9 -1.5 10.15 5.45 6.1 12.45 2.1 L14.4 1.05 M14.15 1.7 L14.3 1.55 14.15 1.7 14.05 1.85 14.35 1.35 14.3 1.55 11.5 16.3 Q9.35 17.2 8.95 16.3 L14.15 1.7 M7.9 15.55 Q2.95 16.05 3.8 14.7 L14.05 1.85 Q9.65 9.35 7.9 15.55" fill="#ffffff" fill-rule="evenodd" stroke="none"/>
    <path d="M12.45 2.1 Q5.45 6.1 -1.5 10.15 -1.8 11.9 2.7 12.9 6.7 8.1 14.4 1.1 L14.35 1.35 14.05 1.85 14.15 1.7 8.95 16.3 Q9.35 17.2 11.5 16.3 L11.3 17.35 Q7.8 19.5 6.45 16.9 L7.6 16.6 7.9 15.55 7.6 16.6 6.45 16.9 Q1.35 17.9 1.05 13.95 -3.5 12.95 -3.55 9.25 4.0 6.5 12.45 2.1 M14.05 1.85 L3.8 14.7 Q2.95 16.05 7.9 15.55 9.65 9.35 14.05 1.85 M2.7 12.9 L1.75 14.05 1.05 13.95 1.75 14.05 2.7 12.9" fill="#e9d3e1" fill-rule="evenodd" stroke="none"/>
    <path d="M14.4 1.05 L14.4 1.1 14.55 0.95 14.4 1.05 12.45 2.1 Q4.0 6.5 -3.55 9.25 -3.5 12.95 1.05 13.95 L1.75 14.05 2.7 12.9 Q6.7 8.1 14.4 1.1 L14.35 1.35 14.55 0.95 M14.3 1.55 L14.15 1.7 14.05 1.85 14.35 1.35 14.3 1.55 11.5 16.3 11.3 17.35 Q7.8 19.5 6.45 16.9 1.35 17.9 1.05 13.95 M7.9 15.55 Q9.65 9.35 14.05 1.85 M7.9 15.55 L7.6 16.6 6.45 16.9" fill="none" stroke="#000000" stroke-linecap="round" stroke-linejoin="round" stroke-width="1.0"/>
    <path d="M46.5 22.2 Q50.35 23.75 50.85 25.5 L50.7 27.95 Q47.65 25.15 46.5 22.2 M49.8 29.5 L50.65 30.45 46.9 32.6 44.1 26.2 46.65 26.45 46.85 26.25 49.8 29.5 M36.25 29.7 L35.8 29.65 37.9 28.8 Q36.55 26.35 37.9 19.05 L37.0 19.15 36.0 7.15 39.3 18.45 37.95 19.05 Q40.05 27.25 38.15 29.45 L36.25 29.7 M37.75 7.5 Q40.3 11.9 40.45 13.9 40.65 14.75 40.4 15.45 43.05 21.35 43.4 25.75 L43.35 25.75 40.6 27.55 Q41.05 24.75 39.55 18.15 L39.6 17.6 39.2 16.7 39.95 16.15 40.4 15.45 39.95 16.15 37.75 7.5 M41.6 28.6 L42.7 26.95 Q45.35 32.2 45.65 34.65 L41.85 36.3 41.6 28.6 M37.95 29.95 Q39.1 30.9 40.65 29.6 40.7 34.4 40.05 37.35 L35.75 40.2 37.95 29.95 M37.95 19.05 L37.9 19.05 37.95 19.05" fill="#ffffff" fill-rule="evenodd" stroke="none"/>
    <path d="M46.65 26.45 L45.5 21.8 46.5 22.2 Q47.65 25.15 50.7 27.95 50.45 29.5 49.8 29.5 L46.85 26.25 46.65 26.45 M50.65 30.45 Q50.2 34.25 45.65 34.7 L45.65 36.45 Q42.1 39.75 39.5 39.25 38.95 40.5 38.25 41.15 35.7 43.45 31.7 40.85 34.95 38.75 36.25 29.7 L38.15 29.45 Q40.05 27.25 37.95 19.05 L39.3 18.45 39.55 18.15 39.3 18.45 36.0 7.15 34.7 2.55 37.75 7.5 39.95 16.15 39.2 16.7 39.6 17.6 39.55 18.15 Q41.05 24.75 40.6 27.55 L43.35 25.75 42.7 26.95 Q43.15 26.3 44.1 26.2 L46.9 32.6 50.65 30.45 M35.8 29.65 Q34.0 29.5 33.55 28.15 35.7 25.6 35.95 18.9 35.25 18.5 34.7 17.6 35.7 12.75 34.6 2.4 L34.7 2.55 36.0 7.15 37.0 19.15 37.9 19.05 Q36.55 26.35 37.9 28.8 L35.8 29.65 M42.7 26.95 L41.6 28.6 40.65 29.6 41.6 28.6 41.85 36.3 45.65 34.65 Q45.35 32.2 42.7 26.95 M45.65 34.65 L45.65 34.7 45.65 34.65 M37.95 29.95 L38.15 29.45 37.95 29.95 35.75 40.2 40.05 37.35 Q40.7 34.4 40.65 29.6 39.1 30.9 37.95 29.95 M39.5 39.25 L40.05 37.35 39.5 39.25 M37.0 19.15 L35.95 18.9 37.0 19.15" fill="#e9d3e1" fill-rule="evenodd" stroke="none"/>
    <path d="M46.65 26.45 L45.5 21.8 46.5 22.2 Q50.35 23.75 50.85 25.5 L50.7 27.95 Q50.45 29.5 49.8 29.5 L50.65 30.45 Q50.2 34.25 45.65 34.7 L45.65 36.45 Q42.1 39.75 39.5 39.25 38.95 40.5 38.25 41.15 35.7 43.45 31.7 40.85 34.95 38.75 36.25 29.7 L35.8 29.65 Q34.0 29.5 33.55 28.15 35.7 25.6 35.95 18.9 35.25 18.5 34.7 17.6 35.7 12.75 34.6 2.4 L34.6 2.3 34.7 2.55 37.75 7.5 Q40.3 11.9 40.45 13.9 40.65 14.75 40.4 15.45 43.05 21.35 43.4 25.75 L43.35 25.75 42.7 26.95 Q43.15 26.3 44.1 26.2 L46.65 26.45 46.85 26.25 49.8 29.5 M41.6 28.6 L42.7 26.95 Q45.35 32.2 45.65 34.65 L45.65 34.7 M40.65 29.6 L41.6 28.6 M36.0 7.15 L34.7 2.55 34.6 2.4 M39.55 18.15 L39.3 18.45 37.95 19.05 Q40.05 27.25 38.15 29.45 L37.95 29.95 Q39.1 30.9 40.65 29.6 40.7 34.4 40.05 37.35 L39.5 39.25 M40.4 15.45 L39.95 16.15 39.2 16.7 39.6 17.6 M35.95 18.9 L37.0 19.15 37.9 19.05 37.95 19.05 M36.0 7.15 L39.3 18.45 M36.25 29.7 L38.15 29.45" fill="none" stroke="#000000" stroke-linecap="round" stroke-linejoin="round" stroke-width="1.0"/>
    <path d="M39.6 17.6 L39.55 18.15" fill="none" stroke="#000000" stroke-linecap="round" stroke-linejoin="round" stroke-width="0.05"/>
  </g>
</svg>
