<?xml version="1.0" encoding="UTF-8" standalone="no"?>
<svg xmlns:xlink="http://www.w3.org/1999/xlink" height="72.75px" width="64.9px" xmlns="http://www.w3.org/2000/svg">
  <g transform="matrix(1.0, 0.0, 0.0, 1.0, 32.15, 68.6)">
    <path d="M11.3 3.65 Q-1.5 0.85 -19.75 -9.95 -30.55 -20.55 -31.6 -35.3 -32.55 -49.3 -21.0 -61.1 -9.45 -72.95 16.5 -64.8 32.45 -56.6 32.05 -37.25 32.95 -24.05 30.15 -9.75 29.15 -4.4 24.5 -1.55 18.5 2.15 11.3 3.65" fill="#ffead5" fill-rule="evenodd" stroke="none"/>
    <path d="M11.3 3.65 Q18.5 2.15 24.5 -1.55 29.15 -4.4 30.15 -9.75 32.95 -24.05 32.05 -37.25 32.45 -56.6 16.5 -64.8 -9.45 -72.95 -21.0 -61.1 -32.55 -49.3 -31.6 -35.3 -30.55 -20.55 -19.75 -9.95 -1.5 0.85 11.3 3.65 Z" fill="none" stroke="#000000" stroke-linecap="round" stroke-linejoin="round" stroke-width="1.0"/>
    <path d="M15.8 -1.5 Q15.2 -0.25 14.2 -0.1 12.0 -0.2 10.85 -1.15 8.65 -2.7 9.25 -5.15 L13.25 -5.55 Q10.65 -5.6 12.05 -5.2 15.3 -4.1 15.8 -1.5" fill="#e97588" fill-rule="evenodd" stroke="none"/>
    <path d="M13.25 -5.55 L16.6 -5.05 Q16.4 -2.75 15.8 -1.5 15.3 -4.1 12.05 -5.2 10.65 -5.6 13.25 -5.55" fill="#3f1c1c" fill-rule="evenodd" stroke="none"/>
    <path d="M15.8 -1.5 Q15.2 -0.25 14.2 -0.1 12.0 -0.2 10.85 -1.15 8.65 -2.7 9.25 -5.15 L13.25 -5.55 16.6 -5.05 Q16.4 -2.75 15.8 -1.5 Z" fill="none" stroke="#000000" stroke-linecap="round" stroke-linejoin="round" stroke-width="1.0"/>
    <path d="M4.8 -7.1 L-2.35 -6.65 Q-6.6 -7.1 -9.6 -8.75 -12.5 -10.35 -12.5 -12.2 -12.5 -14.05 -9.6 -15.0 L-2.35 -15.4 Q1.9 -14.9 4.8 -13.3 7.8 -11.65 7.8 -9.85 7.8 -8.0 4.8 -7.1" fill="url(#gradient0)" fill-rule="evenodd" stroke="none"/>
    <path d="M20.35 -6.7 Q18.35 -7.45 18.35 -8.9 18.35 -10.45 20.35 -11.8 22.35 -13.1 25.2 -13.45 L30.05 -13.1 Q32.05 -12.25 32.05 -10.75 32.05 -9.25 30.05 -7.95 28.05 -6.6 25.2 -6.25 22.35 -5.9 20.35 -6.7" fill="url(#gradient1)" fill-rule="evenodd" stroke="none"/>
  </g>
  <defs>
    <radialGradient cx="0" cy="0" gradientTransform="matrix(0.0125, 0.0015, 0.0, 0.0054, -2.35, -11.0)" gradientUnits="userSpaceOnUse" id="gradient0" r="819.2" spreadMethod="pad">
      <stop offset="0.22745098039215686" stop-color="#ff8e8e" stop-opacity="0.38039216"/>
      <stop offset="0.9725490196078431" stop-color="#ffb4b4" stop-opacity="0.0"/>
    </radialGradient>
    <radialGradient cx="0" cy="0" gradientTransform="matrix(-0.0084, 0.0011, 0.0, 0.0044, 25.2, -9.85)" gradientUnits="userSpaceOnUse" id="gradient1" r="819.2" spreadMethod="pad">
      <stop offset="0.22745098039215686" stop-color="#ff8e8e" stop-opacity="0.38039216"/>
      <stop offset="0.9725490196078431" stop-color="#ffb4b4" stop-opacity="0.0"/>
    </radialGradient>
  </defs>
</svg>
