<?xml version="1.0" encoding="UTF-8" standalone="no"?>
<svg xmlns:xlink="http://www.w3.org/1999/xlink" height="17.25px" width="23.3px" xmlns="http://www.w3.org/2000/svg">
  <g transform="matrix(1.0, 0.0, 0.0, 1.0, -0.3, 3.9)">
    <path d="M17.15 12.6 L17.85 13.0 Q12.25 14.0 8.05 12.15 L9.15 12.15 11.4 12.6 12.05 12.75 Q11.0 12.1 10.25 10.75 9.0 8.6 8.9 5.25 8.85 4.5 8.95 3.85 9.15 1.45 10.55 -0.15 L9.75 0.0 Q6.15 0.9 4.5 4.65 4.45 5.7 4.85 6.75 5.2 7.85 6.1 8.95 1.15 6.4 0.3 3.65 5.05 -0.95 8.3 -2.15 15.75 -4.05 23.5 1.25 L21.35 1.05 Q21.75 1.0 23.6 3.15 22.95 3.25 21.8 2.75 L21.3 4.35 21.35 3.9 Q21.2 2.25 18.8 0.85 L18.65 0.8 Q19.4 2.25 19.25 4.25 L18.9 6.35 Q17.9 10.05 16.55 11.7 L15.3 12.8 17.15 12.6 M18.6 3.85 Q18.55 2.3 17.85 1.2 L17.2 0.3 12.65 -0.3 11.35 0.75 Q10.4 1.85 10.05 3.35 9.85 4.25 9.9 5.3 9.95 8.05 11.05 9.85 12.05 11.7 13.65 11.9 15.15 12.05 16.35 10.65 17.45 9.3 18.3 6.2 L18.6 3.85" fill="#000000" fill-rule="evenodd" stroke="none"/>
    <path d="M21.05 5.65 Q20.05 10.4 17.15 12.6 L15.3 12.8 16.55 11.7 Q17.9 10.05 18.9 6.35 L19.25 4.25 21.05 5.65 M9.15 12.15 Q7.95 11.7 6.2 9.2 L6.1 8.95 Q5.2 7.85 4.85 6.75 6.9 4.9 8.95 3.85 8.85 4.5 8.9 5.25 9.0 8.6 10.25 10.75 11.0 12.1 12.05 12.75 L11.4 12.6 9.15 12.15" fill="#ffffff" fill-rule="evenodd" stroke="none"/>
    <path d="M21.35 3.9 L21.05 5.65 19.25 4.25 Q19.4 2.25 18.65 0.8 L18.8 0.85 Q21.2 2.25 21.35 3.9 M8.95 3.85 Q6.9 4.9 4.85 6.75 4.45 5.7 4.5 4.65 6.15 0.9 9.75 0.0 L10.55 -0.15 Q9.15 1.45 8.95 3.85" fill="#c4c4c4" fill-rule="evenodd" stroke="none"/>
    <path d="M13.3 -3.85 Q18.25 -3.95 22.3 -1.3 22.75 -1.05 22.5 -0.7 L21.8 -0.65 Q20.45 -1.7 18.9 -2.25 L16.9 -2.7 11.3 -3.45 11.35 -3.5 12.65 -3.85 13.3 -3.85" fill="#efc3c0" fill-rule="evenodd" stroke="none"/>
    <path d="M18.6 3.85 L18.3 6.2 Q17.45 9.3 16.35 10.65 15.15 12.05 13.65 11.9 12.05 11.7 11.05 9.85 9.95 8.05 9.9 5.3 9.85 4.25 10.05 3.35 14.55 1.55 18.6 3.85 M14.0 11.5 Q16.75 11.4 17.85 6.3 16.05 9.3 14.1 9.0 11.45 8.6 10.55 6.0 11.1 11.25 14.0 11.5" fill="#a32323" fill-rule="evenodd" stroke="none"/>
    <path d="M10.05 3.35 Q10.4 1.85 11.35 0.75 L12.65 -0.3 17.2 0.3 17.85 1.2 Q18.55 2.3 18.6 3.85 14.55 1.55 10.05 3.35" fill="#621515" fill-rule="evenodd" stroke="none"/>
    <path d="M14.0 11.5 Q11.1 11.25 10.55 6.0 11.45 8.6 14.1 9.0 16.05 9.3 17.85 6.3 16.75 11.4 14.0 11.5" fill="#ff8787" fill-rule="evenodd" stroke="none"/>
    <path d="M16.05 5.35 Q16.0 6.55 15.5 7.3 15.05 8.1 14.4 8.05 13.7 8.0 13.3 7.05 12.85 6.15 12.9 4.95 13.0 3.75 13.5 2.95 14.05 2.2 14.7 2.25 15.35 2.3 15.7 3.2 16.15 4.15 16.05 5.35" fill="#000000" fill-rule="evenodd" stroke="none"/>
  </g>
</svg>
