<?xml version="1.0" encoding="UTF-8" standalone="no"?>
<svg xmlns:xlink="http://www.w3.org/1999/xlink" height="11.75px" width="30.45px" xmlns="http://www.w3.org/2000/svg">
  <g transform="matrix(1.0, 0.0, 0.0, 1.0, 3.6, 26.5)">
    <path d="M24.6 -24.6 L24.5 -24.35 24.35 -24.25 24.15 -24.4 24.1 -24.65 24.2 -24.9 24.4 -25.0 24.55 -24.9 24.6 -24.6 M0.85 -26.15 L0.7 -25.85 0.4 -25.8 Q0.2 -25.8 0.1 -25.9 L-0.05 -26.15 0.15 -26.45 0.5 -26.5 0.75 -26.4 0.85 -26.15 M5.15 -16.4 L4.4 -15.85 3.0 -15.65 1.7 -15.9 Q1.2 -16.2 1.25 -16.5 1.35 -16.9 1.95 -17.1 L3.4 -17.3 4.7 -17.05 5.15 -16.4 M24.0 -23.65 L23.55 -22.8 Q23.15 -22.45 22.7 -22.5 22.2 -22.5 21.9 -22.9 21.6 -23.3 21.6 -23.8 21.7 -24.35 22.1 -24.7 22.45 -25.05 22.95 -25.0 23.45 -25.0 23.75 -24.6 L24.0 -23.65 M26.85 -15.25 L26.45 -14.9 25.65 -14.75 24.9 -14.95 24.65 -15.3 25.1 -15.65 25.9 -15.75 26.65 -15.6 26.85 -15.25 M-0.15 -25.15 Q-0.25 -24.65 -0.8 -24.3 -1.35 -23.95 -2.05 -24.0 -2.8 -24.0 -3.2 -24.4 -3.65 -24.8 -3.6 -25.3 L-2.95 -26.2 -1.7 -26.5 Q-0.95 -26.5 -0.55 -26.1 -0.1 -25.65 -0.15 -25.15" fill="#ffffff" fill-rule="evenodd" stroke="none"/>
  </g>
</svg>
