<?xml version="1.0" encoding="UTF-8" standalone="no"?>
<svg xmlns:xlink="http://www.w3.org/1999/xlink" height="120.0px" width="110.45px" xmlns="http://www.w3.org/2000/svg">
  <g transform="matrix(1.0, 0.0, 0.0, 1.0, 16.2, -2.0)">
    <path d="M22.8 19.4 Q32.4 8.1 41.6 8.35 59.45 9.15 63.2 22.35 57.05 12.35 39.05 11.0 L32.0 15.8 Q26.75 17.5 22.8 21.45 L22.15 22.15 22.3 21.45 22.8 19.4 M44.8 19.45 Q61.9 17.65 75.55 36.3 49.1 18.05 33.85 24.4 L44.8 19.45 M20.5 20.25 L19.9 22.35 -1.4 24.8 Q-10.15 29.3 -14.1 40.05 -11.8 26.4 -0.25 21.3 11.8 14.85 20.5 20.25 M22.3 21.45 L22.8 21.45 22.3 21.45 M-7.2 30.85 L-5.4 29.25 Q-11.3 40.55 -10.1 52.8 -14.1 41.65 -7.2 30.85 M-4.55 74.0 L-5.35 68.8 Q-6.6 56.65 -1.5 43.05 -4.65 56.25 -4.55 68.8 L-4.35 73.9 -4.3 75.2 -4.55 74.0 M-7.0 57.95 Q-9.75 46.45 -4.25 37.0 -6.8 43.8 -6.65 50.4 -5.1 42.55 -0.05 37.25 -5.65 47.25 -7.0 57.95" fill="#ffffff" fill-rule="evenodd" stroke="none"/>
    <path d="M63.2 22.35 Q56.4 16.1 46.7 14.85 40.35 13.95 35.1 15.0 L32.0 15.8 39.05 11.0 Q57.05 12.35 63.2 22.35 M19.9 22.35 L3.55 77.85 -2.25 72.6 -4.35 73.9 -4.55 68.8 Q-4.65 56.25 -1.5 43.05 -6.6 56.65 -5.35 68.8 L-4.55 74.0 -9.25 76.85 Q-5.5 74.35 -6.1 68.8 -6.7 64.1 -8.55 57.35 -10.2 47.95 -7.2 39.35 -10.7 46.05 -9.9 53.4 L-10.1 52.8 Q-11.3 40.55 -5.4 29.25 L-7.2 30.85 Q-11.65 35.1 -14.35 41.6 L-14.1 40.05 Q-10.15 29.3 -1.4 24.8 L19.9 22.35 M-2.8 32.95 Q-5.55 36.05 -7.2 39.35 -5.55 36.05 -2.8 32.95 M-3.55 27.9 L-5.4 29.25 -3.55 27.9 M-7.0 57.95 Q-5.65 47.25 -0.05 37.25 -5.1 42.55 -6.65 50.4 -6.8 43.8 -4.25 37.0 -9.75 46.45 -7.0 57.95" fill="#d9c9e3" fill-rule="evenodd" stroke="none"/>
    <path d="M63.2 22.35 Q56.4 16.1 46.7 14.85 40.35 13.95 35.1 15.0 L44.8 19.45 46.05 18.85 M22.8 19.4 Q32.4 8.1 41.6 8.35 59.45 9.15 63.2 22.35 M32.0 15.8 L35.1 15.0 M44.8 19.45 Q61.9 17.65 75.55 36.3 49.1 18.05 33.85 24.4 L44.8 19.45 M23.85 21.45 L22.8 21.45 22.15 22.15 22.3 21.45 21.9 21.2 21.85 21.15 20.5 20.25 19.9 22.35 21.65 22.1 M20.5 20.25 L20.6 19.9 M21.5 20.05 L22.8 19.4 23.0 18.4 M22.3 21.45 L22.8 19.4 M22.8 21.45 L22.3 21.45 M28.6 18.1 L32.0 15.8 Q26.75 17.5 22.8 21.45 M3.55 77.85 L19.9 22.35 M-14.1 40.05 L-14.35 41.6 Q-11.65 35.1 -7.2 30.85 L-5.4 29.25 -3.55 27.9 M-7.2 39.35 Q-5.55 36.05 -2.8 32.95 M20.5 20.25 Q11.8 14.85 -0.25 21.3 -11.8 26.4 -14.1 40.05 M-7.2 39.35 Q-10.2 47.95 -8.55 57.35 -6.7 64.1 -6.1 68.8 -5.5 74.35 -9.25 76.85 L-9.9 77.25 M-10.1 52.8 L-9.9 53.4 Q-10.7 46.05 -7.2 39.35 M-10.1 52.8 Q-14.1 41.65 -7.2 30.85" fill="none" stroke="#5b4250" stroke-linecap="round" stroke-linejoin="round" stroke-width="0.5"/>
    <path d="M-8.55 33.25 Q0.0 29.4 2.6 20.25 3.45 17.5 6.2 17.6 14.0 18.3 21.4 20.05 L21.45 20.05 21.85 19.55 21.95 19.55 23.35 19.5 28.65 15.75 Q34.2 11.7 37.0 11.8 40.0 11.85 44.25 14.55 48.5 17.3 50.6 17.7 L54.15 18.5 Q55.15 18.8 55.2 19.05 40.1 21.9 23.7 22.05 L23.2 23.3 22.75 23.95 Q22.6 24.2 21.9 23.5 L21.9 23.45 21.85 23.4 21.65 23.15 21.35 22.7 21.1 22.2 21.3 22.2 21.85 22.2 21.9 22.2 22.2 22.15 23.7 22.05 22.2 22.15 23.75 21.7 23.8 21.6 Q28.05 20.5 32.45 19.9 34.95 19.5 36.5 18.4 L36.35 18.15 36.05 18.0 24.15 20.4 23.75 20.5 23.8 20.65 22.75 20.85 Q22.3 20.95 21.9 21.15 L21.9 21.2 21.85 21.25 21.05 21.65 21.05 21.7 21.05 21.3 Q13.05 24.6 7.35 23.85 7.75 28.45 14.55 25.95 5.3 34.55 -8.55 33.25 M21.4 20.05 L21.15 20.7 21.15 20.8 21.05 21.2 21.05 21.3 21.05 21.2 21.15 20.8 21.15 20.7 21.4 20.05 M23.75 20.5 L23.35 19.5 23.75 20.5" fill="#331d29" fill-rule="evenodd" stroke="none"/>
    <path d="M55.2 19.05 L55.05 19.25 47.2 24.4 Q41.9 27.85 35.45 27.35 30.65 27.05 26.35 25.3 24.65 24.65 23.55 23.65 L22.2 25.05 21.9 25.3 21.9 25.35 11.05 33.5 10.65 33.85 10.6 33.75 10.55 34.0 Q9.5 35.75 7.05 35.7 L2.9 35.8 Q-3.5 36.3 -8.6 33.65 -9.0 33.45 -8.55 33.25 5.3 34.55 14.55 25.95 7.75 28.45 7.35 23.85 13.05 24.6 21.05 21.3 L21.05 21.7 21.05 21.65 21.85 21.25 21.9 21.2 21.9 21.15 Q22.3 20.95 22.75 20.85 L23.8 20.65 23.8 21.6 23.8 20.65 23.75 20.5 24.15 20.4 36.05 18.0 36.35 18.15 36.5 18.4 Q34.95 19.5 32.45 19.9 28.05 20.5 23.8 21.6 L23.75 21.7 22.2 22.15 21.9 22.2 21.85 22.2 21.3 22.2 21.1 22.2 21.35 22.7 21.65 23.15 21.85 23.4 21.9 23.45 21.9 23.5 Q22.6 24.2 22.75 23.95 L23.2 23.3 23.35 23.4 23.25 23.3 23.7 22.05 Q40.1 21.9 55.2 19.05 M23.55 23.65 L23.35 23.45 23.35 23.4 23.35 23.45 23.55 23.65" fill="#170d12" fill-rule="evenodd" stroke="none"/>
    <path d="M55.2 19.05 L55.05 19.25 47.2 24.4 Q41.9 27.85 35.45 27.35 30.65 27.05 26.35 25.3 24.65 24.65 23.55 23.65 L22.2 25.05 21.9 25.3 M21.9 25.35 L11.05 33.5 10.65 33.85 10.6 33.75 10.55 34.0 Q9.5 35.75 7.05 35.7 L2.9 35.8 Q-3.5 36.3 -8.6 33.65 -9.0 33.45 -8.55 33.25 0.0 29.4 2.6 20.25 3.45 17.5 6.2 17.6 14.0 18.3 21.4 20.05 L21.15 20.7 21.15 20.8 21.05 21.2 21.05 21.3 21.05 21.7 M21.45 20.05 L21.85 19.55 21.95 19.55 23.35 19.5 28.65 15.75 Q34.2 11.7 37.0 11.8 40.0 11.85 44.25 14.55 48.5 17.3 50.6 17.7 L54.15 18.5 Q55.15 18.8 55.2 19.05 M23.7 22.05 L23.25 23.3 23.35 23.4 23.35 23.45 23.55 23.65 M23.8 20.65 L23.8 21.6 M23.75 20.5 L23.8 20.65 M23.35 19.5 L23.75 20.5 M21.1 22.2 L21.35 22.7 21.65 23.15 21.85 23.4 21.9 23.45 M21.9 23.5 Q22.6 24.2 22.75 23.95 L23.2 23.3" fill="none" stroke="#000000" stroke-linecap="round" stroke-linejoin="round" stroke-width="1.0"/>
    <path d="M23.7 22.05 L22.2 22.15" fill="none" stroke="#5b4250" stroke-linecap="round" stroke-linejoin="round" stroke-width="1.0"/>
    <path d="M74.1 58.65 Q76.35 64.0 77.0 68.85 77.4 71.9 77.25 74.75 76.85 82.4 81.5 90.45 L80.0 88.9 Q75.35 79.65 75.15 72.35 L74.9 68.85 Q74.0 61.8 70.5 55.75 72.05 61.15 71.85 66.3 L71.65 68.85 70.85 73.15 71.65 68.85 71.85 66.3 72.65 68.8 72.65 68.85 Q72.8 86.5 77.3 96.95 70.55 84.55 70.85 73.15 L69.85 76.25 68.5 79.45 Q70.9 74.2 71.0 68.85 71.05 63.7 68.75 58.55 L68.65 58.3 Q63.95 44.8 55.5 38.35 L54.75 37.65 54.25 37.1 54.75 37.65 55.5 38.35 Q60.85 43.9 61.85 48.05 63.4 51.4 62.7 55.05 L62.25 56.75 Q60.05 63.15 56.75 68.8 53.2 75.25 48.4 80.9 51.9 74.45 54.0 68.8 59.75 53.85 54.55 44.6 48.9 34.3 34.3 26.55 48.65 36.3 51.35 43.55 L49.5 41.4 51.35 43.55 Q54.65 47.85 55.4 54.05 L54.4 58.8 54.3 59.2 53.6 62.0 51.55 68.8 Q46.65 82.8 38.0 85.6 46.65 78.35 49.15 68.8 49.9 66.2 50.1 63.4 48.65 51.9 43.65 40.55 48.1 55.55 46.1 60.05 44.55 52.15 39.85 45.75 43.85 62.1 42.0 63.95 41.7 59.8 36.6 44.35 L36.3 57.35 Q34.25 64.35 30.3 68.8 L27.95 71.2 29.55 68.8 Q35.55 59.15 32.05 43.85 L30.45 56.75 Q26.15 61.8 24.0 68.8 22.45 74.1 22.05 80.45 L22.05 80.85 22.05 81.3 22.0 82.4 22.0 82.85 21.95 83.85 21.95 84.25 Q19.45 77.6 21.15 68.8 L22.0 65.55 22.0 65.45 22.0 65.4 Q22.85 62.55 24.15 59.6 L24.85 58.0 24.15 59.6 22.0 63.3 22.0 63.35 22.0 63.4 Q20.7 66.05 19.95 68.8 18.9 72.65 18.75 76.65 17.75 74.85 17.45 68.8 17.25 64.15 17.45 56.75 L18.4 53.45 17.45 56.75 Q16.7 59.8 16.4 62.95 L13.8 68.95 13.7 69.1 13.8 68.8 14.25 67.6 17.0 51.3 Q14.55 61.3 12.05 68.8 9.75 76.15 7.3 81.15 L9.3 78.45 Q11.7 85.6 17.55 93.85 L7.25 81.2 5.75 82.85 6.85 81.0 Q4.25 76.75 6.15 68.8 6.5 67.2 7.15 65.4 L7.15 68.8 Q7.35 74.25 8.25 76.2 L8.7 71.35 8.85 68.8 Q9.25 62.7 11.0 57.5 12.9 53.0 14.1 46.75 L14.45 44.9 14.1 46.75 Q9.2 61.55 2.3 68.05 1.4 68.45 0.45 68.8 L-0.05 68.95 0.1 68.8 Q6.0 63.15 8.65 50.35 5.35 61.1 0.7 66.95 -1.0 64.05 -0.2 52.75 -2.15 60.6 -10.0 60.5 -12.7 59.85 -15.95 57.5 -4.05 63.3 -1.0 48.55 L-0.8 47.35 -0.5 46.1 Q0.35 42.05 1.85 38.85 5.3 31.45 11.45 27.0 L21.85 23.8 21.9 23.75 21.9 23.7 23.1 23.35 23.55 23.35 24.1 23.5 22.95 24.3 Q22.05 24.95 21.9 25.65 L25.3 23.85 26.4 24.2 26.6 25.8 Q27.1 28.15 27.8 29.65 L27.45 24.45 32.55 25.95 29.3 24.5 38.6 25.3 32.75 23.95 31.25 23.65 36.8 23.85 33.7 23.3 26.9 22.75 26.65 22.8 Q36.35 21.05 49.4 23.35 52.7 24.35 56.0 25.85 71.6 36.05 73.4 47.95 78.0 63.95 93.1 64.95 82.35 64.95 77.3 60.2 72.85 55.15 66.8 40.8 L72.15 54.3 72.75 55.75 73.15 56.75 74.1 58.65 M46.7 27.95 L46.7 28.0 47.3 28.35 46.7 27.95 M52.5 25.4 L52.4 25.45 Q54.1 27.0 57.1 28.65 60.25 30.35 62.8 31.95 61.75 29.85 59.3 28.45 55.95 26.6 52.5 25.4 M60.95 46.55 L61.85 48.05 60.95 46.55 M53.5 32.3 L49.6 29.95 Q53.35 32.65 61.0 42.1 56.2 33.85 53.5 32.3 M64.85 43.35 Q68.75 49.7 70.5 55.75 68.75 49.7 64.85 43.35 M9.1 47.65 L8.65 50.35 9.1 47.65 M14.1 27.75 Q10.85 30.45 8.15 34.0 4.85 38.3 4.15 42.9 L7.25 37.55 Q9.35 34.05 12.4 30.55 15.4 27.1 14.1 27.75 M19.4 29.65 Q17.85 31.95 16.25 34.55 14.0 38.0 13.35 41.85 L13.6 41.8 Q14.75 39.3 16.2 37.05 18.6 33.2 19.4 29.65 M25.05 28.9 Q24.2 32.6 24.25 36.95 24.3 43.35 25.65 48.9 L25.65 40.75 Q25.55 34.65 25.05 28.9 M23.95 72.9 Q26.65 81.2 31.8 82.9 28.0 83.1 25.75 81.8 28.0 93.3 31.1 95.25 L30.3 95.0 Q21.0 90.55 22.55 78.85 23.05 75.85 23.95 72.9 M25.55 92.65 Q26.85 95.05 32.75 99.35 38.2 104.2 39.0 107.2 L33.5 102.05 33.55 102.1 Q39.05 111.7 36.85 118.3 37.7 115.5 34.5 107.15 30.35 100.5 22.05 92.6 L19.35 89.95 19.25 89.85 19.35 89.9 Q18.6 87.1 18.55 83.35 19.95 86.95 22.05 89.55 23.6 91.3 25.55 92.65 M33.1 108.3 Q34.7 113.8 34.5 116.6 33.3 111.4 30.3 106.15 L30.25 106.1 Q26.1 101.3 22.1 97.55 L18.75 94.4 Q20.35 95.15 22.1 96.4 25.85 98.95 29.95 103.7 L30.0 103.75 33.1 108.3 M-5.2 84.8 Q-6.75 86.05 -8.7 87.1 -1.8 80.7 -1.7 68.8 L-1.75 67.35 -1.9 64.0 Q-1.2 66.45 -0.95 68.8 0.0 78.1 -5.2 84.8 M17.35 49.55 L17.15 50.6 17.0 51.3 17.15 50.6 17.35 49.55 M6.1 44.5 L4.6 49.95 Q3.4 54.3 1.55 58.15 3.45 56.15 4.6 53.05 6.2 48.7 6.1 44.5 M15.4 63.4 L14.25 67.6 15.4 63.4 M6.85 81.0 Q7.8 79.0 8.25 76.2 7.8 79.0 6.85 81.0 M7.3 81.15 L7.25 81.2 7.3 81.15 M19.35 89.95 L19.35 89.9 19.35 89.95 M24.5 80.85 L25.75 81.8 24.5 80.85 M18.55 89.55 Q10.65 78.05 14.9 69.15 15.7 80.5 18.55 89.55 M68.55 68.5 L68.6 68.85 68.75 69.7 Q69.35 74.2 68.5 78.5 L68.0 80.45 68.5 79.45 68.5 79.55 Q67.1 87.75 68.95 95.1 L67.7 92.65 Q65.95 79.15 68.5 68.85 L68.55 68.5 M65.55 85.8 Q65.3 94.85 66.5 99.8 64.7 97.9 63.5 89.1 L63.6 87.8 63.5 89.1 63.45 91.2 63.45 91.5 Q60.65 101.8 61.7 105.6 L61.05 103.9 Q60.5 97.95 61.9 90.8 L62.85 89.6 61.9 90.8 60.5 92.7 Q56.65 98.4 55.75 105.05 L56.0 99.25 Q54.45 105.85 55.3 110.65 52.95 107.95 54.05 102.05 L52.2 106.05 Q50.45 109.7 49.65 112.45 L52.8 97.05 50.55 102.35 50.15 103.25 49.35 106.95 Q47.45 116.95 50.65 121.75 49.55 120.85 48.75 119.6 46.4 113.1 50.85 96.25 L60.05 91.5 Q63.35 88.7 65.2 83.6 L65.45 85.25 65.55 85.8 M57.75 93.25 Q56.7 96.25 56.05 98.95 L56.0 99.25 56.05 98.95 Q56.7 96.25 57.75 93.25 M54.55 98.65 Q54.65 100.15 54.05 102.05 54.65 100.15 54.55 98.65" fill="#ffffff" fill-rule="evenodd" stroke="none"/>
    <path d="M93.1 64.95 L94.0 65.0 Q79.5 68.35 74.1 58.65 L73.15 56.75 72.75 55.75 72.15 54.3 66.8 40.8 Q72.85 55.15 77.3 60.2 82.35 64.95 93.1 64.95 M52.5 25.4 Q55.95 26.6 59.3 28.45 61.75 29.85 62.8 31.95 60.25 30.35 57.1 28.65 54.1 27.0 52.4 25.45 L52.5 25.4 M46.7 27.95 L47.3 28.35 46.7 28.0 46.7 27.95 M51.35 43.55 Q48.65 36.3 34.3 26.55 48.9 34.3 54.55 44.6 59.75 53.85 54.0 68.8 51.9 74.45 48.4 80.9 L48.05 81.25 47.5 81.9 Q50.3 76.1 52.1 68.8 L53.6 62.0 54.3 59.2 54.4 58.8 55.4 54.05 Q54.65 47.85 51.35 43.55 M62.7 55.05 Q63.4 51.4 61.85 48.05 60.85 43.9 55.5 38.35 63.95 44.8 68.65 58.3 L68.75 58.55 Q71.05 63.7 71.0 68.85 70.9 74.2 68.5 79.45 L68.0 80.45 68.5 78.5 Q69.35 74.2 68.75 69.7 L68.6 68.85 68.55 68.5 Q67.75 64.2 65.45 59.7 67.75 64.2 68.55 68.5 L68.5 68.85 Q65.95 79.15 67.7 92.65 66.2 89.35 65.55 85.8 L65.45 85.25 65.2 83.6 Q63.35 88.7 60.05 91.5 L50.85 96.25 Q46.4 113.1 48.75 119.6 46.1 115.5 46.15 107.5 46.3 104.9 48.35 95.05 53.85 93.45 59.95 90.25 64.45 86.05 65.0 80.05 L65.0 79.15 65.2 68.85 65.45 59.7 62.7 55.05 M53.5 32.3 Q56.2 33.85 61.0 42.1 53.35 32.65 49.6 29.95 L53.5 32.3 M69.85 76.25 L70.85 73.15 Q70.55 84.55 77.3 96.95 69.05 86.4 69.85 76.25 M71.85 66.3 Q72.05 61.15 70.5 55.75 74.0 61.8 74.9 68.85 L75.15 72.35 Q75.35 79.65 80.0 88.9 75.4 83.8 74.55 77.95 73.75 72.9 72.65 68.85 L72.65 68.8 71.85 66.3 M49.4 23.35 Q36.35 21.05 26.65 22.8 L26.9 22.75 33.7 23.3 36.8 23.85 31.25 23.65 32.75 23.95 38.6 25.3 29.3 24.5 32.55 25.95 27.45 24.45 27.8 29.65 Q27.1 28.15 26.6 25.8 L26.4 24.2 25.3 23.85 21.9 25.65 Q22.05 24.95 22.95 24.3 L24.1 23.5 23.55 23.35 23.1 23.35 21.9 23.7 21.9 23.75 21.85 23.8 11.45 27.0 Q15.65 23.95 21.1 22.25 L21.85 22.0 25.25 21.4 Q37.7 19.65 49.4 23.35 M-10.0 60.5 Q-2.15 60.6 -0.2 52.75 -1.0 64.05 0.7 66.95 5.35 61.1 8.65 50.35 6.0 63.15 0.1 68.8 L-0.05 68.95 0.45 68.8 Q1.4 68.45 2.3 68.05 7.7 65.25 11.0 57.5 7.7 65.25 2.3 68.05 9.2 61.55 14.1 46.75 12.9 53.0 11.0 57.5 9.25 62.7 8.85 68.8 L8.7 71.35 8.25 76.2 Q7.35 74.25 7.15 68.8 L7.15 65.4 Q6.5 67.2 6.15 68.8 4.25 76.75 6.85 81.0 L5.75 82.85 7.25 81.2 17.55 93.85 Q11.7 85.6 9.3 78.45 L7.3 81.15 Q9.75 76.15 12.05 68.8 14.55 61.3 17.0 51.3 L14.25 67.6 13.8 68.8 13.7 69.1 13.25 70.4 13.8 68.95 13.25 70.4 13.7 69.1 13.8 68.95 16.4 62.95 Q16.05 65.85 16.15 68.8 16.25 73.6 17.2 78.6 17.7 81.15 18.55 83.35 17.7 81.15 17.2 78.6 16.25 73.6 16.15 68.8 16.05 65.85 16.4 62.95 16.7 59.8 17.45 56.75 17.25 64.15 17.45 68.8 17.75 74.85 18.75 76.65 18.9 72.65 19.95 68.8 20.7 66.05 22.0 63.4 L22.0 63.35 22.0 63.3 24.15 59.6 Q22.85 62.55 22.0 65.4 L22.0 65.45 22.0 65.55 21.15 68.8 Q19.45 77.6 21.95 84.25 L21.95 83.85 22.0 82.85 22.0 82.4 22.05 81.3 22.05 80.85 22.05 80.45 Q22.45 74.1 24.0 68.8 26.15 61.8 30.45 56.75 L32.05 43.85 Q35.55 59.15 29.55 68.8 L27.95 71.2 25.0 73.3 Q26.85 71.3 28.25 68.8 31.1 63.9 31.9 57.15 27.8 62.85 25.4 68.8 24.55 70.8 23.95 72.9 23.05 75.85 22.55 78.85 L22.0 82.4 22.55 78.85 Q21.0 90.55 30.3 95.0 27.7 94.1 25.55 92.65 23.6 91.3 22.05 89.55 19.95 86.95 18.55 83.35 18.6 87.1 19.35 89.9 L19.25 89.85 19.35 89.95 22.05 92.6 Q30.35 100.5 34.5 107.15 37.7 115.5 36.85 118.3 L36.8 118.45 36.2 119.85 Q37.25 115.2 33.1 108.3 L30.0 103.75 29.95 103.7 Q25.85 98.95 22.1 96.4 20.35 95.15 18.75 94.4 L22.1 97.55 Q26.1 101.3 30.25 106.1 L30.3 106.15 Q33.3 111.4 34.5 116.6 34.3 118.6 33.25 119.25 36.35 115.05 22.85 100.1 L22.1 99.4 12.75 90.4 Q2.3 84.45 0.1 77.5 -1.6 81.8 -5.2 84.8 0.0 78.1 -0.95 68.8 -1.2 66.45 -1.9 64.0 L-1.95 63.45 Q-2.1 59.55 -1.7 58.95 -4.8 61.8 -10.0 60.5 M19.4 29.65 Q18.6 33.2 16.2 37.05 14.75 39.3 13.6 41.8 L13.35 41.85 Q14.0 38.0 16.25 34.55 17.85 31.95 19.4 29.65 M14.1 27.75 Q15.4 27.1 12.4 30.55 9.35 34.05 7.25 37.55 L4.15 42.9 Q4.85 38.3 8.15 34.0 10.85 30.45 14.1 27.75 M25.05 28.9 Q25.55 34.65 25.65 40.75 L25.65 48.9 Q24.3 43.35 24.25 36.95 24.2 32.6 25.05 28.9 M32.2 50.0 Q32.3 53.8 31.9 57.15 32.3 53.8 32.2 50.0 M41.8 73.95 Q42.5 71.7 42.05 68.8 41.55 65.4 39.3 61.15 37.8 59.2 37.3 53.4 L36.3 57.35 36.6 44.35 Q41.7 59.8 42.0 63.95 43.85 62.1 39.85 45.75 44.55 52.15 46.1 60.05 48.1 55.55 43.65 40.55 48.65 51.9 50.1 63.4 49.9 66.2 49.15 68.8 46.65 78.35 38.0 85.6 L37.1 85.85 Q44.05 81.45 46.35 68.8 L46.4 68.75 Q46.15 64.45 43.95 58.65 44.9 64.2 43.75 68.8 43.05 71.5 41.8 73.95 M6.1 44.5 Q6.2 48.7 4.6 53.05 3.45 56.15 1.55 58.15 3.4 54.3 4.6 49.95 L6.1 44.5 M13.25 70.4 Q11.55 74.95 9.3 78.45 11.55 74.95 13.25 70.4 M18.55 89.55 Q15.7 80.5 14.9 69.15 10.65 78.05 18.55 89.55 M0.1 77.5 Q1.1 74.8 1.4 71.6 1.1 74.8 0.1 77.5 M12.0 76.0 Q11.45 85.1 21.7 94.95 20.1 93.0 19.35 89.95 20.1 93.0 21.7 94.95 11.45 85.1 12.0 76.0 M66.5 99.8 L66.6 100.15 66.75 100.55 Q67.05 101.7 67.5 102.6 63.5 98.75 63.45 91.5 L63.45 91.2 63.5 89.1 Q64.7 97.9 66.5 99.8 M61.05 103.9 Q59.45 98.95 60.5 92.7 L61.9 90.8 Q60.5 97.95 61.05 103.9 M49.65 112.45 Q49.4 113.1 49.3 113.7 L49.05 114.8 Q48.5 112.1 49.35 106.95 L50.15 103.25 50.55 102.35 52.8 97.05 49.65 112.45 M42.1 52.4 Q42.75 55.45 43.95 58.65 42.75 55.45 42.1 52.4 M46.4 68.75 Q47.2 64.45 47.4 59.25 47.2 64.45 46.4 68.75 M65.0 80.05 L65.2 83.6 65.0 80.05 M37.05 49.35 Q37.1 51.55 37.3 53.4 37.1 51.55 37.05 49.35" fill="#d9c9e3" fill-rule="evenodd" stroke="none"/>
    <path d="M93.1 64.95 L94.0 65.0 Q79.5 68.35 74.1 58.65 76.35 64.0 77.0 68.85 77.4 71.9 77.25 74.75 76.85 82.4 81.5 90.45 L80.0 88.9 81.2 91.15 M55.5 38.35 L54.75 37.65 54.25 37.1 M49.5 41.4 L51.35 43.55 Q54.65 47.85 55.4 54.05 L54.4 58.8 54.3 59.2 53.6 62.0 52.1 68.8 Q50.3 76.1 47.5 81.9 L48.05 81.25 48.4 80.9 Q53.2 75.25 56.75 68.8 60.05 63.15 62.25 56.75 L62.7 55.05 Q63.4 51.4 61.85 48.05 L60.95 46.55 M61.85 48.05 Q60.85 43.9 55.5 38.35 M68.5 79.45 L69.85 76.25 70.85 73.15 71.65 68.85 71.85 66.3 Q72.05 61.15 70.5 55.75 68.75 49.7 64.85 43.35 M49.4 23.35 Q52.7 24.35 56.0 25.85 71.6 36.05 73.4 47.95 78.0 63.95 93.1 64.95 M72.15 54.3 L72.75 55.75 73.15 56.75 74.1 58.65 M49.4 23.35 Q37.7 19.65 25.25 21.4 L21.85 22.0 21.1 22.25 Q15.65 23.95 11.45 27.0 5.3 31.45 1.85 38.85 0.35 42.05 -0.5 46.1 L-0.8 47.35 -1.0 48.55 Q-4.05 63.3 -15.95 57.5 -12.7 59.85 -10.0 60.5 -4.8 61.8 -1.7 58.95 -2.1 59.55 -1.95 63.45 L-1.9 64.0 -1.75 67.35 -1.7 68.8 Q-1.8 80.7 -8.7 87.1 -6.75 86.05 -5.2 84.8 -1.6 81.8 0.1 77.5 1.1 74.8 1.4 71.6 M8.65 50.35 L9.1 47.65 M14.1 46.75 L14.45 44.9 M31.9 57.15 Q32.3 53.8 32.2 50.0 M41.8 73.95 Q42.5 71.7 42.05 68.8 41.55 65.4 39.3 61.15 37.8 59.2 37.3 53.4 L36.3 57.35 Q34.25 64.35 30.3 68.8 L27.95 71.2 25.0 73.3 Q26.85 71.3 28.25 68.8 31.1 63.9 31.9 57.15 27.8 62.85 25.4 68.8 24.55 70.8 23.95 72.9 26.65 81.2 31.8 82.9 28.0 83.1 25.75 81.8 28.0 93.3 31.1 95.25 L30.3 95.0 Q27.7 94.1 25.55 92.65 26.85 95.05 32.75 99.35 38.2 104.2 39.0 107.2 L33.5 102.05 33.55 102.1 Q39.05 111.7 36.85 118.3 L36.8 118.45 36.2 119.85 Q37.25 115.2 33.1 108.3 34.7 113.8 34.5 116.6 34.3 118.6 33.25 119.25 36.35 115.05 22.85 100.1 L22.1 99.4 12.75 90.4 M24.15 59.6 L24.85 58.0 M24.15 59.6 Q22.85 62.55 22.0 65.4 M22.0 65.45 L22.0 65.55 21.15 68.8 Q19.45 77.6 21.95 84.25 L21.95 83.85 22.0 82.85 M17.45 56.75 L18.4 53.45 M17.0 51.3 L17.15 50.6 17.35 49.55 M8.25 76.2 L8.7 71.35 8.85 68.8 Q9.25 62.7 11.0 57.5 7.7 65.25 2.3 68.05 1.4 68.45 0.45 68.8 L-0.05 68.95 0.1 68.8 Q6.0 63.15 8.65 50.35 M14.25 67.6 L15.4 63.4 M13.7 69.1 L13.25 70.4 13.8 68.95 M13.7 69.1 L13.8 68.8 14.25 67.6 17.0 51.3 M7.3 81.15 L9.3 78.45 Q11.55 74.95 13.25 70.4 M18.55 83.35 Q17.7 81.15 17.2 78.6 16.25 73.6 16.15 68.8 16.05 65.85 16.4 62.95 16.7 59.8 17.45 56.75 M8.25 76.2 Q7.8 79.0 6.85 81.0 L5.75 82.85 7.25 81.2 7.3 81.15 M19.35 89.9 Q18.6 87.1 18.55 83.35 19.95 86.95 22.05 89.55 23.6 91.3 25.55 92.65 M19.35 89.9 L19.35 89.95 Q20.1 93.0 21.7 94.95 11.45 85.1 12.0 76.0 M38.0 85.6 L37.1 85.85 Q44.05 81.45 46.35 68.8 M46.4 68.75 Q46.15 64.45 43.95 58.65 44.9 64.2 43.75 68.8 43.05 71.5 41.8 73.95 L40.5 76.05 M25.75 81.8 L24.5 80.85 M22.55 78.85 L22.0 82.4 M22.55 78.85 Q23.05 75.85 23.95 72.9 M62.7 55.05 L65.45 59.7 Q67.75 64.2 68.55 68.5 L68.6 68.85 68.75 69.7 Q69.35 74.2 68.5 78.5 L68.0 80.45 68.5 79.45 68.5 79.55 Q67.1 87.75 68.95 95.1 L67.7 92.65 Q66.2 89.35 65.55 85.8 65.3 94.85 66.5 99.8 L66.6 100.15 66.75 100.55 Q67.05 101.7 67.5 102.6 63.5 98.75 63.45 91.5 60.65 101.8 61.7 105.6 L61.05 103.9 Q59.45 98.95 60.5 92.7 56.65 98.4 55.75 105.05 L56.0 99.25 Q54.45 105.85 55.3 110.65 52.95 107.95 54.05 102.05 L52.2 106.05 Q50.45 109.7 49.65 112.45 49.4 113.1 49.3 113.7 L49.05 114.8 Q48.5 112.1 49.35 106.95 47.45 116.95 50.65 121.75 49.55 120.85 48.75 119.6 46.1 115.5 46.15 107.5 46.3 104.9 48.35 95.05 53.85 93.45 59.95 90.25 64.45 86.05 65.0 80.05 L65.0 79.15 65.2 68.85 65.45 59.7 M80.0 88.9 Q75.4 83.8 74.55 77.95 73.75 72.9 72.65 68.85 72.8 86.5 77.3 96.95 69.05 86.4 69.85 76.25 M71.85 66.3 L72.65 68.8 M43.95 58.65 Q42.75 55.45 42.1 52.4 M38.0 85.6 Q46.65 82.8 51.55 68.8 L53.6 62.0 M47.4 59.25 Q47.2 64.45 46.4 68.75 M65.2 83.6 L65.0 80.05 M56.0 99.25 L56.05 98.95 Q56.7 96.25 57.75 93.25 M47.15 82.25 L47.5 81.9 M65.2 83.6 L65.45 85.25 65.55 85.8 M61.9 90.8 L62.85 89.6 M63.5 89.1 L63.6 87.8 M63.45 91.5 L63.45 91.2 63.5 89.1 M60.5 92.7 L61.9 90.8 M37.3 53.4 Q37.1 51.55 37.05 49.35 M14.1 46.75 Q12.9 53.0 11.0 57.5 M49.35 106.95 L50.15 103.25 50.55 102.35 M54.05 102.05 Q54.65 100.15 54.55 98.65" fill="none" stroke="#5b4250" stroke-linecap="round" stroke-linejoin="round" stroke-width="0.5"/>
    <path d="M23.25 10.65 Q24.35 8.1 26.55 5.65 33.15 1.5 40.2 2.45 49.05 5.8 52.4 13.85 L52.15 13.55 51.15 12.3 Q50.3 10.1 47.6 7.75 L39.8 4.1 Q29.1 4.2 23.25 10.65 M26.45 11.65 Q29.75 8.85 32.8 9.15 45.0 13.15 42.3 24.55 L42.15 23.9 41.35 21.2 Q38.85 12.65 34.0 11.6 28.55 10.4 26.45 11.65 M-3.9 19.45 L-4.5 19.85 -5.8 20.65 Q-1.5 14.35 5.15 12.45 11.2 11.65 16.85 14.9 15.3 14.15 11.8 13.7 4.3 13.7 -3.9 19.45 M-1.65 11.0 L-3.5 12.15 -6.05 14.65 Q-1.5 7.3 8.6 6.2 16.3 5.3 21.9 16.35 L21.9 16.5 22.1 16.85 22.5 19.15 21.9 17.45 21.9 17.3 21.85 17.15 Q19.2 11.4 10.65 8.0 4.3 7.75 -1.65 11.0" fill="#ffffff" fill-rule="evenodd" stroke="none"/>
    <path d="M51.15 12.3 Q43.35 2.95 31.45 6.15 29.35 7.7 26.1 11.9 L26.45 11.65 Q28.55 10.4 34.0 11.6 38.85 12.65 41.35 21.2 38.65 13.55 31.95 12.25 27.35 13.4 23.45 19.6 L22.45 19.6 21.9 19.7 21.9 19.75 Q21.55 19.85 21.45 20.05 17.9 16.2 10.15 14.55 4.0 14.85 -3.9 19.45 4.3 13.7 11.8 13.7 15.3 14.15 16.85 14.9 L17.65 15.4 Q19.75 16.7 21.9 18.65 L21.9 18.75 22.1 18.9 21.85 18.4 21.85 18.3 Q18.95 13.3 12.0 9.75 3.55 8.35 -1.65 11.0 4.3 7.75 10.65 8.0 19.2 11.4 21.85 17.15 L21.9 17.3 21.9 17.45 22.5 19.15 22.1 16.85 Q21.9 13.7 23.25 10.65 29.1 4.2 39.8 4.1 L47.6 7.75 Q50.3 10.1 51.15 12.3 M22.5 19.15 L22.55 19.4 22.45 19.6 22.1 18.9 22.45 19.6 22.55 19.4 22.5 19.15 M15.5 15.1 Q13.0 14.35 10.15 14.55 13.0 14.35 15.5 15.1 M24.4 11.05 Q27.2 7.65 31.45 6.15 27.2 7.65 24.4 11.05 M26.1 11.9 Q24.45 13.95 22.55 19.4 24.45 13.95 26.1 11.9 M27.8 12.0 L31.95 12.25 27.8 12.0" fill="#d9c9e3" fill-rule="evenodd" stroke="none"/>
    <path d="M23.25 10.65 Q24.35 8.1 26.55 5.65 33.15 1.5 40.2 2.45 49.05 5.8 52.4 13.85 L52.15 13.55 51.15 12.3 Q43.35 2.95 31.45 6.15 29.35 7.7 26.1 11.9 L26.45 11.65 Q29.75 8.85 32.8 9.15 45.0 13.15 42.3 24.55 L42.15 23.9 41.35 21.2 Q38.65 13.55 31.95 12.25 27.35 13.4 23.45 19.6 L22.45 19.6 21.9 19.7 M21.9 19.75 Q21.55 19.85 21.45 20.05 17.9 16.2 10.15 14.55 4.0 14.85 -3.9 19.45 L-4.5 19.85 -5.8 20.65 Q-1.5 14.35 5.15 12.45 11.2 11.65 16.85 14.9 L17.65 15.4 Q19.75 16.7 21.9 18.65 M21.9 18.75 L22.1 18.9 21.85 18.4 M21.85 18.3 Q18.95 13.3 12.0 9.75 3.55 8.35 -1.65 11.0 L-3.5 12.15 -6.05 14.65 Q-1.5 7.3 8.6 6.2 16.3 5.3 21.9 16.35 M21.9 16.5 L22.1 16.85 Q21.9 13.7 23.25 10.65 M22.5 19.15 L22.1 16.85 M22.1 18.9 L22.45 19.6 22.55 19.4 22.5 19.15 M31.95 12.25 L27.8 12.0 M22.55 19.4 Q24.45 13.95 26.1 11.9 M31.45 6.15 Q27.2 7.65 24.4 11.05 M10.15 14.55 Q13.0 14.35 15.5 15.1" fill="none" stroke="#5b4250" stroke-linecap="round" stroke-linejoin="round" stroke-width="0.5"/>
  </g>
</svg>
