<?xml version="1.0" encoding="UTF-8" standalone="no"?>
<svg xmlns:xlink="http://www.w3.org/1999/xlink" height="35.6px" width="21.95px" xmlns="http://www.w3.org/2000/svg">
  <g transform="matrix(1.0, 0.0, 0.0, 1.0, 0.5, 0.45)">
    <path d="M19.4 0.9 Q15.4 3.65 15.1 8.15 17.9 3.75 20.1 1.7 L20.95 1.9 18.55 6.2 Q14.1 12.2 10.45 18.95 L8.05 18.45 Q6.05 17.75 4.95 16.85 4.15 16.2 3.65 16.45 4.4 14.1 5.65 11.4 6.85 8.7 9.1 5.4 11.3 2.15 14.4 0.05 L19.4 0.9" fill="#ffead5" fill-rule="evenodd" stroke="none"/>
    <path d="M19.4 0.9 Q19.35 1.25 19.55 1.05 L20.15 1.6 20.1 1.7 Q17.9 3.75 15.1 8.15 15.4 3.65 19.4 0.9 M18.55 6.2 L18.65 6.0 14.05 15.35 12.75 18.25 Q12.0 19.05 10.45 18.95 14.1 12.2 18.55 6.2" fill="#efc3c0" fill-rule="evenodd" stroke="none"/>
    <path d="M3.65 16.45 Q4.15 16.2 4.95 16.85 6.05 17.75 8.05 18.45 L10.45 18.95 9.8 20.7 4.4 34.6 2.7 34.55 Q1.45 34.25 0.8 33.4 -0.55 31.7 0.45 27.65 1.6 22.85 3.5 16.95 L3.65 16.45 M3.5 16.95 Q5.45 19.75 9.8 20.7 5.45 19.75 3.5 16.95" fill="#e9c0db" fill-rule="evenodd" stroke="none"/>
    <path d="M12.75 18.25 L11.5 21.15 9.8 20.7 10.45 18.95 Q12.0 19.05 12.75 18.25 M4.4 34.6 L9.8 20.7 11.5 21.15 Q9.2 26.45 8.15 30.0 6.9 34.05 4.4 34.6" fill="#c297ac" fill-rule="evenodd" stroke="none"/>
    <path d="M20.95 1.9 L18.55 6.2 M18.65 6.0 L14.05 15.35 12.75 18.25 11.5 21.15 Q9.2 26.45 8.15 30.0 6.9 34.05 4.4 34.6 L2.7 34.55 Q1.45 34.25 0.8 33.4 -0.55 31.7 0.45 27.65 1.6 22.85 3.5 16.95 L3.65 16.45 Q4.4 14.1 5.65 11.4 6.85 8.7 9.1 5.4 11.3 2.15 14.4 0.05" fill="none" stroke="#000000" stroke-linecap="round" stroke-linejoin="round" stroke-width="1.0"/>
    <path d="M18.55 6.2 L18.65 6.0 M11.5 21.15 L11.85 21.25 M3.65 16.45 Q4.15 16.2 4.95 16.85 6.05 17.75 8.05 18.45 L10.45 18.95 Q12.0 19.05 12.75 18.25 M0.8 33.4 L0.6 34.2" fill="none" stroke="#000000" stroke-linecap="round" stroke-linejoin="round" stroke-width="0.05"/>
    <path d="M9.8 20.7 Q5.45 19.75 3.5 16.95 M11.5 21.15 L9.8 20.7" fill="none" stroke="#000000" stroke-linecap="round" stroke-linejoin="round" stroke-opacity="0.46666667" stroke-width="0.05"/>
  </g>
</svg>
