<?xml version="1.0" encoding="UTF-8" standalone="no"?>
<svg xmlns:xlink="http://www.w3.org/1999/xlink" height="46.75px" width="23.7px" xmlns="http://www.w3.org/2000/svg">
  <g transform="matrix(1.0, 0.0, 0.0, 1.0, 7.05, 0.7)">
    <path d="M10.25 0.65 Q9.3 13.4 7.35 25.8 L3.4 24.2 2.35 24.0 Q3.0 19.8 2.85 14.15 2.7 5.7 3.5 3.4 4.25 1.05 4.4 -0.2 L6.2 0.0 8.05 0.1 10.25 0.65" fill="#e9c0db" fill-rule="evenodd" stroke="none"/>
    <path d="M10.25 0.65 L11.8 1.3 11.95 1.4 11.7 4.25 10.2 14.5 Q8.95 22.55 9.85 26.75 L7.35 25.8 Q9.3 13.4 10.25 0.65" fill="#c297ac" fill-rule="evenodd" stroke="none"/>
    <path d="M9.85 26.75 Q8.95 22.55 10.2 14.5 L11.7 4.25 11.95 1.4 11.7 0.6 M2.35 24.0 Q3.0 19.8 2.85 14.15 2.7 5.7 3.5 3.4 4.25 1.05 4.4 -0.2" fill="none" stroke="#000000" stroke-linecap="round" stroke-linejoin="round" stroke-width="1.0"/>
    <path d="M15.85 37.6 L15.25 37.85 Q13.7 36.3 10.65 34.45 9.95 34.3 9.65 34.75 9.15 34.0 8.25 33.95 L9.4 37.5 Q10.1 40.2 9.65 42.95 11.05 43.25 10.85 41.1 L10.15 36.15 Q11.05 38.2 11.4 40.5 11.5 43.35 10.3 43.5 9.25 43.15 8.1 40.15 L6.15 36.45 Q5.95 34.75 4.65 34.6 L4.85 37.3 4.95 39.45 Q4.95 42.85 3.25 45.4 2.55 44.6 2.2 40.25 1.75 35.1 0.95 32.85 4.5 31.35 5.55 29.35 L5.9 28.45 5.55 29.35 5.4 26.4 Q3.75 29.95 -4.5 35.35 L-4.55 35.35 Q-7.7 34.8 -5.85 33.0 L-1.65 28.5 Q-0.75 26.5 2.25 23.7 L8.3 24.0 Q9.9 29.0 9.3 31.65 13.55 33.7 15.85 37.6 M5.6 41.75 L5.7 43.35 Q5.2 45.45 3.85 45.55 L4.5 45.35 4.7 44.85 5.6 41.75" fill="#ffead5" fill-rule="evenodd" stroke="none"/>
    <path d="M8.3 24.0 L9.3 24.05 Q11.35 27.85 11.6 31.2 13.15 31.8 15.3 34.6 16.65 36.9 15.85 37.6 13.55 33.7 9.3 31.65 9.9 29.0 8.3 24.0 M9.65 34.75 L9.65 34.8 9.55 34.95 10.15 36.15 10.85 41.1 Q11.05 43.25 9.65 42.95 10.1 40.2 9.4 37.5 L8.25 33.95 Q9.15 34.0 9.65 34.75 L9.55 34.95 9.65 34.75 M6.15 36.45 L5.9 36.1 5.8 35.95 5.25 36.4 5.6 41.7 5.6 41.75 4.7 44.85 4.5 45.35 3.85 45.55 3.4 45.5 3.35 45.5 3.25 45.4 Q4.95 42.85 4.95 39.45 L4.85 37.3 4.65 34.6 Q5.95 34.75 6.15 36.45 L5.9 36.1 6.15 36.45 M0.95 32.85 L0.5 33.0 Q-2.2 35.75 -4.5 35.35 3.75 29.95 5.4 26.4 L5.55 29.35 Q4.5 31.35 0.95 32.85" fill="#efc3c0" fill-rule="evenodd" stroke="none"/>
    <path d="M9.3 24.05 Q11.35 27.85 11.6 31.2 13.15 31.8 15.3 34.6 16.65 36.9 15.85 37.6 L15.25 37.85 Q13.7 36.3 10.65 34.45 9.95 34.3 9.65 34.75 L9.55 34.95 10.15 36.15 Q11.05 38.2 11.4 40.5 11.5 43.35 10.3 43.5 9.25 43.15 8.1 40.15 L6.15 36.45 5.9 36.1 5.8 35.95 5.25 36.4 5.6 41.7 5.6 41.75 5.7 43.35 Q5.2 45.45 3.85 45.55 L3.4 45.5 3.35 45.5 3.25 45.4 Q2.55 44.6 2.2 40.25 1.75 35.1 0.95 32.85 L0.5 33.0 Q-2.2 35.75 -4.5 35.35 L-4.55 35.35 Q-7.7 34.8 -5.85 33.0 L-1.65 28.5 Q-0.75 26.5 2.25 23.7 M5.55 29.35 L5.9 28.45 M5.55 29.35 Q4.5 31.35 0.95 32.85" fill="none" stroke="#000000" stroke-linecap="round" stroke-linejoin="round" stroke-opacity="0.9411765" stroke-width="1.0"/>
    <path d="M8.3 24.0 L7.75 19.75" fill="none" stroke="#000000" stroke-linecap="round" stroke-linejoin="round" stroke-width="0.05"/>
    <path d="M1.95 12.0 L2.8 11.0 2.95 12.65 1.95 12.0 M10.55 13.45 L10.9 12.2 11.7 12.45 Q11.45 13.15 10.55 13.45" fill="#561717" fill-rule="evenodd" stroke="none"/>
    <path d="M5.5 13.35 L7.15 13.55 10.55 13.45 Q11.45 13.15 11.7 12.45 10.3 17.3 11.05 23.95 7.15 25.25 2.85 24.15 L8.85 23.25 Q10.6 20.85 9.05 16.25 8.9 14.45 5.5 13.35" fill="#170d12" fill-rule="evenodd" stroke="none"/>
    <path d="M2.95 12.65 L5.5 13.35 Q8.9 14.45 9.05 16.25 10.6 20.85 8.85 23.25 L2.85 24.15 1.45 23.7 Q2.55 17.95 1.95 12.05 L1.95 12.0 2.95 12.65" fill="#331d29" fill-rule="evenodd" stroke="none"/>
    <path d="M1.95 12.0 L2.8 11.0 2.95 12.65 5.5 13.35 7.15 13.55 10.55 13.45 10.9 12.2 11.7 12.45 Q10.3 17.3 11.05 23.95 7.15 25.25 2.85 24.15 L1.45 23.7 Q2.55 17.95 1.95 12.05 L1.95 12.0 2.95 12.65 M10.55 13.45 Q11.45 13.15 11.7 12.45" fill="none" stroke="#000000" stroke-linecap="round" stroke-linejoin="round" stroke-width="0.05"/>
  </g>
</svg>
