<?xml version="1.0" encoding="UTF-8" standalone="no"?>
<svg xmlns:xlink="http://www.w3.org/1999/xlink" height="38.85px" width="26.85px" xmlns="http://www.w3.org/2000/svg">
  <g transform="matrix(1.0, 0.0, 0.0, 1.0, 1.0, -0.1)">
    <path d="M7.85 20.25 L11.8 19.15 Q12.6 21.65 13.55 23.0 L9.65 24.4 7.85 20.25" fill="#ffead5" fill-rule="evenodd" stroke="none"/>
    <path d="M5.95 20.75 L7.85 20.25 9.65 24.4 7.15 25.35 7.1 24.9 Q6.8 23.1 5.95 20.75" fill="#efc3c0" fill-rule="evenodd" stroke="none"/>
    <path d="M3.7 3.1 L3.95 3.15 4.05 3.35 4.45 3.6 4.5 3.65 5.25 4.1 Q7.45 5.25 7.0 4.1 9.0 6.35 10.35 13.35 11.0 16.8 11.8 19.15 L7.85 20.25 5.95 20.75 3.8 15.7 Q5.9 9.1 3.7 3.1" fill="#c297ac" fill-rule="evenodd" stroke="none"/>
    <path d="M-0.3 2.1 Q0.6 1.5 2.7 3.4 L3.65 3.05 3.7 3.1 Q5.9 9.1 3.8 15.7 L3.7 15.5 Q0.6 9.7 -0.2 6.65 -0.75 4.3 -0.3 2.1" fill="#e9c0db" fill-rule="evenodd" stroke="none"/>
    <path d="M7.0 4.1 Q9.0 6.35 10.35 13.35 11.0 16.8 11.8 19.15 12.6 21.65 13.55 23.0 M3.8 15.7 L5.95 20.75 Q6.8 23.1 7.1 24.9 L7.15 25.35 M3.8 15.7 L3.7 15.5 Q0.6 9.7 -0.2 6.65 -0.75 4.3 -0.3 2.1 L0.15 0.6" fill="none" stroke="#000000" stroke-linecap="round" stroke-linejoin="round" stroke-width="1.0"/>
    <path d="M11.8 19.15 L12.55 18.95 M5.95 20.75 L7.85 20.25 11.8 19.15 M5.95 20.75 L5.55 20.85" fill="none" stroke="#000000" stroke-linecap="round" stroke-linejoin="round" stroke-width="0.05"/>
    <path d="M15.45 25.55 Q11.45 27.35 13.25 24.1 13.45 23.75 14.15 23.65 16.6 23.35 15.45 25.55 M7.25 24.6 L7.2 24.7 7.2 24.6 7.25 24.6 M24.3 37.4 Q22.65 36.85 21.35 35.4 L21.1 35.15 Q20.2 34.45 20.0 33.55 19.95 33.45 20.1 33.5 L22.45 35.3 24.35 37.25 24.3 37.4" fill="#ffead5" fill-rule="evenodd" stroke="none"/>
    <path d="M15.45 25.55 Q16.6 23.35 14.15 23.65 13.45 23.75 13.25 24.1 11.45 27.35 15.45 25.55 M7.2 24.7 L7.25 24.6 9.0 24.3 Q11.45 23.9 11.0 23.2 14.75 20.85 17.8 23.6 20.6 22.1 22.8 22.75 26.4 23.8 22.95 26.55 19.65 27.8 18.45 27.15 L23.5 33.05 Q26.45 36.75 24.65 38.45 22.2 37.3 16.6 31.05 13.65 32.5 9.7 29.85 6.35 28.95 7.1 24.9 L7.2 24.7 M15.9 30.25 L16.6 31.05 15.9 30.25 M24.3 37.4 L24.35 37.25 22.45 35.3 20.1 33.5 Q19.95 33.45 20.0 33.55 20.2 34.45 21.1 35.15 L21.35 35.4 Q22.65 36.85 24.3 37.4" fill="#efc3c0" fill-rule="evenodd" stroke="none"/>
    <path d="M7.25 24.6 L7.2 24.7 7.1 24.9 Q6.35 28.95 9.7 29.85 13.65 32.5 16.6 31.05 L15.9 30.25 M7.1 24.9 Q6.3 24.3 8.75 23.8 7.55 24.15 7.25 24.6 M11.0 23.2 Q14.75 20.85 17.8 23.6 20.6 22.1 22.8 22.75 26.4 23.8 22.95 26.55 19.65 27.8 18.45 27.15 L23.5 33.05 Q26.45 36.75 24.65 38.45 22.2 37.3 16.6 31.05 M7.2 24.6 L7.2 24.7" fill="none" stroke="#000000" stroke-linecap="round" stroke-linejoin="round" stroke-opacity="0.9411765" stroke-width="1.0"/>
  </g>
</svg>
