<?xml version="1.0" encoding="UTF-8" standalone="no"?>
<svg xmlns:xlink="http://www.w3.org/1999/xlink" height="11.3px" width="31.35px" xmlns="http://www.w3.org/2000/svg">
  <g transform="matrix(1.0, 0.0, 0.0, 1.0, 10.6, 5.65)">
    <path d="M20.3 -1.5 L20.5 0.0 Q20.5 2.2 18.9 3.75 17.35 5.3 15.15 5.3 12.95 5.3 11.45 3.75 9.8 2.2 9.8 0.0 L10.05 -1.35 Q15.25 -4.8 20.3 -1.5 M12.55 3.45 L12.75 3.05 Q12.7 2.8 12.45 2.9 11.75 3.25 12.55 3.45 M13.15 3.95 L13.3 3.6 13.1 3.45 Q12.3 3.8 13.15 3.95 M12.0 2.65 L12.15 2.3 11.95 2.15 Q11.15 2.5 12.0 2.65 M12.9 1.9 L13.05 1.55 Q13.0 1.3 12.8 1.4 12.05 1.75 12.9 1.9 M13.05 2.75 L13.2 2.4 Q13.15 2.15 12.95 2.25 12.2 2.6 13.05 2.75 M16.3 3.5 L16.45 3.1 Q16.4 2.85 16.2 2.95 15.5 3.3 16.3 3.5 M16.6 4.65 L16.8 4.3 Q16.75 4.05 16.5 4.15 15.8 4.5 16.6 4.65 M17.4 4.0 L17.55 3.65 Q17.5 3.4 17.3 3.5 16.55 3.85 17.4 4.0 M17.5 2.75 L17.65 2.4 Q17.6 2.15 17.4 2.25 16.7 2.6 17.5 2.75 M17.05 1.95 L17.2 1.6 Q17.15 1.35 16.95 1.45 16.2 1.8 17.05 1.95 M16.95 3.25 L17.1 2.9 Q17.05 2.65 16.85 2.75 16.1 3.1 16.95 3.25 M16.2 2.7 L16.35 2.35 Q16.3 2.1 16.1 2.2 15.4 2.55 16.2 2.7 M18.95 1.9 L19.1 1.55 18.85 1.4 Q18.15 1.75 18.95 1.9 M18.15 2.1 L18.3 1.7 Q18.25 1.45 18.05 1.55 17.3 1.9 18.15 2.1 M18.25 2.95 L18.4 2.6 18.2 2.45 Q17.4 2.8 18.25 2.95 M17.8 1.2 L17.95 0.85 Q17.9 0.55 17.7 0.7 17.0 1.05 17.8 1.2 M19.15 1.05 L19.3 0.7 Q19.2 0.35 18.95 0.5 18.2 1.0 19.15 1.05" fill="#777777" fill-rule="evenodd" stroke="none"/>
    <path d="M19.15 1.05 Q18.2 1.0 18.95 0.5 19.2 0.35 19.3 0.7 L19.15 1.05 M17.8 1.2 Q17.0 1.05 17.7 0.7 17.9 0.55 17.95 0.85 L17.8 1.2 M18.25 2.95 Q17.4 2.8 18.2 2.45 L18.4 2.6 18.25 2.95 M18.15 2.1 Q17.3 1.9 18.05 1.55 18.25 1.45 18.3 1.7 L18.15 2.1 M18.95 1.9 Q18.15 1.75 18.85 1.4 L19.1 1.55 18.95 1.9 M16.2 2.7 Q15.4 2.55 16.1 2.2 16.3 2.1 16.35 2.35 L16.2 2.7 M16.95 3.25 Q16.1 3.1 16.85 2.75 17.05 2.65 17.1 2.9 L16.95 3.25 M17.05 1.95 Q16.2 1.8 16.95 1.45 17.15 1.35 17.2 1.6 L17.05 1.95 M17.5 2.75 Q16.7 2.6 17.4 2.25 17.6 2.15 17.65 2.4 L17.5 2.75 M17.4 4.0 Q16.55 3.85 17.3 3.5 17.5 3.4 17.55 3.65 L17.4 4.0 M16.6 4.65 Q15.8 4.5 16.5 4.15 16.75 4.05 16.8 4.3 L16.6 4.65 M16.3 3.5 Q15.5 3.3 16.2 2.95 16.4 2.85 16.45 3.1 L16.3 3.5 M13.05 2.75 Q12.2 2.6 12.95 2.25 13.15 2.15 13.2 2.4 L13.05 2.75 M12.9 1.9 Q12.05 1.75 12.8 1.4 13.0 1.3 13.05 1.55 L12.9 1.9 M12.0 2.65 Q11.15 2.5 11.95 2.15 L12.15 2.3 12.0 2.65 M13.15 3.95 Q12.3 3.8 13.1 3.45 L13.3 3.6 13.15 3.95 M12.55 3.45 Q11.75 3.25 12.45 2.9 12.7 2.8 12.75 3.05 L12.55 3.45" fill="#b8b8b8" fill-rule="evenodd" stroke="none"/>
    <path d="M10.05 -1.35 Q10.35 -2.7 11.45 -3.8 12.95 -5.35 15.15 -5.35 17.35 -5.35 18.9 -3.8 19.95 -2.75 20.3 -1.5 15.25 -4.8 10.05 -1.35" fill="#545454" fill-rule="evenodd" stroke="none"/>
    <path d="M10.05 -1.35 Q10.35 -2.7 11.45 -3.8 12.95 -5.35 15.15 -5.35 17.35 -5.35 18.9 -3.8 19.95 -2.75 20.3 -1.5 L20.5 0.0 Q20.5 2.2 18.9 3.75 17.35 5.3 15.15 5.3 12.95 5.3 11.45 3.75 9.8 2.2 9.8 0.0 L10.05 -1.35 Z" fill="none" stroke="#000000" stroke-linecap="round" stroke-linejoin="round" stroke-width="0.5"/>
    <path d="M13.55 -1.85 L13.9 -5.4 15.4 -5.4 Q15.05 -3.4 15.0 -1.4 L13.55 -1.85 M14.95 0.45 L15.1 3.2 13.65 2.95 13.5 0.05 14.95 0.45 M10.0 0.35 Q10.1 1.1 10.6 1.4 L10.65 1.2 10.8 1.2 10.85 0.5 10.5 -0.55 10.4 -0.45 10.4 -0.3 10.4 -0.25 10.3 -0.3 10.25 -0.35 10.0 0.15 10.05 -1.7 10.15 -3.3 11.1 -4.0 Q10.75 0.05 11.1 4.0 L10.15 3.25 10.0 0.35" fill="#b8b8b8" fill-rule="evenodd" stroke="none"/>
    <path d="M10.0 0.35 L10.15 3.25 -9.85 1.7 -9.9 1.55 -9.3 -0.9 10.05 -1.7 10.0 0.15 10.0 0.35" fill="#313131" fill-rule="evenodd" stroke="none"/>
    <path d="M10.15 -3.3 L10.05 -1.7 -9.3 -0.9 -9.9 1.55 Q-10.8 -0.15 -9.85 -1.9 L10.15 -3.3" fill="#101010" fill-rule="evenodd" stroke="none"/>
    <path d="M15.0 -1.4 L14.95 0.45 13.5 0.05 13.55 -1.85 15.0 -1.4 M15.1 3.2 L15.4 5.4 13.9 5.4 13.65 2.95 15.1 3.2 M10.0 0.15 L10.25 -0.35 10.3 -0.3 10.4 -0.25 10.4 -0.3 10.4 -0.45 10.5 -0.55 10.85 0.5 10.8 1.2 10.65 1.2 10.6 1.4 Q10.1 1.1 10.0 0.35 L10.0 0.15" fill="#f7f7f7" fill-rule="evenodd" stroke="none"/>
    <path d="M19.4 1.45 Q18.55 1.3 19.25 0.95 19.5 0.85 19.55 1.1 L19.4 1.45" fill="#777777" fill-rule="evenodd" stroke="none"/>
    <path d="M13.55 -1.85 L13.9 -5.4 15.4 -5.4 Q15.05 -3.4 15.0 -1.4 L14.95 0.45 15.1 3.2 15.4 5.4 13.9 5.4 13.65 2.95 13.5 0.05 13.55 -1.85 M10.0 0.35 L10.15 3.25 11.1 4.0 Q10.75 0.05 11.1 -4.0 L10.15 -3.3 10.05 -1.7 10.0 0.15 M10.15 3.25 L-9.85 1.7 -9.9 1.55 Q-10.8 -0.15 -9.85 -1.9 L10.15 -3.3" fill="none" stroke="#000000" stroke-linecap="round" stroke-linejoin="round" stroke-width="0.5"/>
  </g>
</svg>
