<?xml version="1.0" encoding="UTF-8" standalone="no"?>
<svg xmlns:xlink="http://www.w3.org/1999/xlink" height="24.65px" width="15.4px" xmlns="http://www.w3.org/2000/svg">
  <g transform="matrix(1.0, 0.0, 0.0, 1.0, -2.4, -11.45)">
    <path d="M12.3 28.55 L12.25 28.4 Q12.95 27.0 13.95 26.65 L16.55 34.55 Q15.55 35.2 14.15 34.85 L14.1 34.65 Q12.75 30.8 12.3 28.55 M13.25 35.4 L11.15 35.35 Q9.35 32.25 9.05 30.3 9.55 28.7 10.75 28.45 L13.25 35.4" fill="#ffead5" fill-rule="evenodd" stroke="none"/>
    <path d="M10.75 28.45 L12.3 28.55 Q12.75 30.8 14.1 34.65 L13.25 35.4 10.75 28.45 M13.95 26.65 L15.4 26.75 Q16.85 29.8 17.3 33.75 L16.55 34.55 13.95 26.65" fill="#efc3c0" fill-rule="evenodd" stroke="none"/>
    <path d="M10.75 28.45 L12.3 28.55 12.25 28.4 Q12.95 27.0 13.95 26.65 L15.4 26.75 Q16.85 29.8 17.3 33.75 L16.55 34.55 Q15.55 35.2 14.15 34.85 L14.1 34.65 13.25 35.4 11.15 35.35 Q9.35 32.25 9.05 30.3 9.55 28.7 10.75 28.45 M14.1 34.65 Q12.75 30.8 12.3 28.55" fill="none" stroke="#000000" stroke-linecap="round" stroke-linejoin="round" stroke-opacity="0.9411765" stroke-width="1.0"/>
    <path d="M13.95 26.65 L13.85 26.4" fill="none" stroke="#000000" stroke-linecap="round" stroke-linejoin="round" stroke-width="0.5"/>
    <path d="M5.05 23.95 Q4.55 19.0 2.4 14.8 2.55 13.9 4.2 13.05 6.6 14.25 9.05 21.1 7.25 21.75 6.3 22.4 5.1 23.2 5.05 23.95" fill="#331d29" fill-rule="evenodd" stroke="none"/>
    <path d="M5.05 23.95 Q5.1 23.2 6.3 22.4 L6.9 23.85 5.05 23.95 M9.05 21.1 Q6.6 14.25 4.2 13.05 L5.65 12.35 Q9.5 10.5 10.95 12.4 11.95 16.85 14.55 20.65 L14.6 20.65 Q14.65 21.15 12.85 21.9 L12.15 20.25 Q10.85 20.4 9.15 21.05 L9.05 21.1 M12.15 20.25 Q13.7 20.05 14.55 20.65 13.7 20.05 12.15 20.25 L12.05 20.0 12.15 20.25" fill="#170d12" fill-rule="evenodd" stroke="none"/>
    <path d="M4.2 13.05 Q2.55 13.9 2.4 14.8 4.55 19.0 5.05 23.95 5.1 23.2 6.3 22.4 7.25 21.75 9.05 21.1 L9.15 21.05 Q10.85 20.4 12.15 20.25 L12.05 20.0 M4.2 13.05 L5.65 12.35 Q9.5 10.5 10.95 12.4 11.95 16.85 14.55 20.65 L14.6 20.65 Q14.65 21.15 12.85 21.9 L12.15 20.25 Q13.7 20.05 14.55 20.65 M6.3 22.4 L6.9 23.85 5.05 23.95" fill="none" stroke="#000000" stroke-linecap="round" stroke-linejoin="round" stroke-width="0.05"/>
  </g>
</svg>
