<?xml version="1.0" encoding="UTF-8" standalone="no"?>
<svg xmlns:xlink="http://www.w3.org/1999/xlink" height="37.4px" width="15.5px" xmlns="http://www.w3.org/2000/svg">
  <g transform="matrix(1.0, 0.0, 0.0, 1.0, 2.25, 2.35)">
    <path d="M9.95 34.15 Q9.8 31.6 9.2 30.4 7.85 14.35 2.9 0.0 9.1 1.15 10.6 11.55 12.1 21.9 12.65 27.75 13.2 32.85 9.95 34.15" fill="#ffdfc6" fill-rule="evenodd" stroke="none"/>
    <path d="M2.9 0.0 Q7.85 14.35 9.2 30.4 9.8 31.6 9.95 34.15 L9.05 34.4 Q4.8 35.25 4.15 30.85 L1.95 20.7 Q0.5 14.95 -0.65 7.6 -1.85 0.2 2.9 0.0" fill="#d99a83" fill-rule="evenodd" stroke="none"/>
    <path d="M9.95 34.15 Q13.2 32.85 12.65 27.75 12.1 21.9 10.6 11.55 9.1 1.15 2.9 0.0 -1.85 0.2 -0.65 7.6 0.5 14.95 1.95 20.7 L4.15 30.85 Q4.8 35.25 9.05 34.4 L9.95 34.15 Z" fill="none" stroke="#000000" stroke-linecap="round" stroke-linejoin="round" stroke-width="1.0"/>
    <path d="M-1.5 -0.15 Q0.85 -1.85 5.4 -1.85 L8.75 2.5 -1.75 8.05 -1.5 -0.15" fill="#b4b4b4" fill-rule="evenodd" stroke="none"/>
    <path d="M-1.5 -0.15 L-1.75 8.05 8.75 2.5 5.4 -1.85" fill="none" stroke="#000000" stroke-linecap="round" stroke-linejoin="round" stroke-width="1.0"/>
  </g>
</svg>
