<?xml version="1.0" encoding="UTF-8" standalone="no"?>
<svg xmlns:xlink="http://www.w3.org/1999/xlink" height="53.5px" width="27.7px" xmlns="http://www.w3.org/2000/svg">
  <g transform="matrix(1.0, 0.0, 0.0, 1.0, 3.7, 1.8)">
    <path d="M13.15 0.7 Q14.25 17.95 13.7 25.75 13.35 30.55 13.4 34.4 L9.85 34.4 9.15 34.0 8.9 34.4 7.5 34.4 7.05 27.4 Q4.55 13.25 4.65 -0.65 8.75 -1.3 13.15 0.7 M11.25 35.2 L13.75 36.15 Q13.8 37.65 14.7 39.85 11.4 39.2 7.15 41.55 L7.9 40.1 9.6 37.85 10.1 37.05 9.8 37.7 11.25 35.2 M14.8 40.95 L16.7 42.35 Q19.1 45.4 18.25 48.9 15.35 48.55 8.45 42.95 13.1 40.25 14.8 40.95" fill="#ffdfc6" fill-rule="evenodd" stroke="none"/>
    <path d="M9.85 34.4 L11.25 35.2 9.8 37.7 10.1 37.05 9.6 37.85 7.9 40.1 7.15 41.55 6.9 41.75 7.15 41.55 7.05 41.8 6.9 41.75 4.65 40.25 5.05 39.75 7.65 36.45 7.7 36.4 7.9 36.0 8.05 35.75 8.1 35.8 8.1 35.7 8.9 34.4 9.15 34.0 9.85 34.4 M7.5 34.4 L5.1 34.4 Q5.1 26.15 2.4 18.7 -0.15 8.25 -0.1 0.65 L1.6 0.2 4.65 -0.65 Q4.55 13.25 7.05 27.4 L7.5 34.4" fill="#d99a83" fill-rule="evenodd" stroke="none"/>
    <path d="M18.25 48.9 L17.7 50.45 Q17.0 51.95 14.15 50.4 10.0 48.25 6.8 45.7 6.1 44.15 7.05 41.8 L8.45 42.95 Q15.35 48.55 18.25 48.9" fill="#65676d" fill-rule="evenodd" stroke="none"/>
    <path d="M14.7 39.85 L15.25 40.05 15.0 40.6 14.8 40.95 Q13.1 40.25 8.45 42.95 L7.05 41.8 7.15 41.55 Q11.4 39.2 14.7 39.85 M6.8 45.7 L3.95 43.0 Q3.45 42.0 4.65 40.25 L6.9 41.75 7.05 41.8 Q6.1 44.15 6.8 45.7" fill="#2b2c2e" fill-rule="evenodd" stroke="none"/>
    <path d="M13.15 0.7 Q14.25 17.95 13.7 25.75 13.35 30.55 13.4 34.4 M13.75 36.15 Q13.8 37.65 14.7 39.85 L15.25 40.05 15.0 40.6 14.8 40.95 16.7 42.35 Q19.1 45.4 18.25 48.9 L17.7 50.45 Q17.0 51.95 14.15 50.4 10.0 48.25 6.8 45.7 L3.95 43.0 Q3.45 42.0 4.65 40.25 L5.05 39.75 7.65 36.45 7.7 36.4 7.9 36.0 8.05 35.75 M8.1 35.7 L8.9 34.4 9.15 34.0 M5.1 34.4 Q5.1 26.15 2.4 18.7 -0.15 8.25 -0.1 0.65 M7.15 41.55 L6.9 41.75 7.05 41.8 8.45 42.95 Q13.1 40.25 14.8 40.95 M4.65 40.25 L6.9 41.75 M8.45 42.95 Q15.35 48.55 18.25 48.9 M14.7 39.85 Q11.4 39.2 7.15 41.55" fill="none" stroke="#000000" stroke-linecap="round" stroke-linejoin="round" stroke-width="1.0"/>
    <path d="M3.7 -1.6 Q9.4 -2.35 14.65 -0.5 L18.8 27.5 23.5 36.65 23.0 37.8 4.1 34.0 Q10.15 33.4 12.0 31.7 L5.85 32.5 3.7 -1.6" fill="#e9e9e9" fill-rule="evenodd" stroke="none"/>
    <path d="M23.0 37.8 L22.05 39.85 13.85 37.6 Q5.95 39.9 1.1 43.75 -2.45 43.1 -3.2 40.1 -0.95 35.65 -1.3 27.25 L-2.1 -0.25 Q0.85 -1.25 3.7 -1.6 L5.85 32.5 12.0 31.7 Q10.15 33.4 4.1 34.0 L23.0 37.8" fill="#a8a8a8" fill-rule="evenodd" stroke="none"/>
    <path d="M14.65 -0.5 L18.8 27.5 23.5 36.65 23.0 37.8 22.05 39.85 13.85 37.6 Q5.95 39.9 1.1 43.75 -2.45 43.1 -3.2 40.1 -0.95 35.65 -1.3 27.25 L-2.1 -0.25" fill="none" stroke="#000000" stroke-linecap="round" stroke-linejoin="round" stroke-width="1.0"/>
  </g>
</svg>
