<?xml version="1.0" encoding="UTF-8" standalone="no"?>
<svg xmlns:xlink="http://www.w3.org/1999/xlink" height="82.25px" width="39.1px" xmlns="http://www.w3.org/2000/svg">
  <g transform="matrix(1.0, 0.0, 0.0, 1.0, 3.4, 1.65)">
    <path d="M20.95 12.6 L26.55 16.75 Q29.7 20.35 31.4 27.2 33.05 34.05 32.75 46.45 32.65 50.25 33.5 54.25 L35.1 66.75 6.1 67.05 Q5.8 58.9 8.65 51.55 10.0 44.9 5.4 32.05 1.2 23.95 2.85 17.05 5.4 15.8 6.75 14.55 L10.45 10.25 Q18.2 14.95 20.95 12.6 M22.2 25.45 L22.2 31.65 Q18.7 34.85 10.45 35.2 24.75 35.85 31.75 33.95 26.7 33.95 25.15 31.5 L22.2 25.45 M25.35 58.45 L26.1 59.15 26.1 54.55 Q25.25 55.65 25.05 56.85 24.85 58.0 25.35 58.45" fill="#ffdfc6" fill-rule="evenodd" stroke="none"/>
    <path d="M2.6 67.05 Q2.55 63.25 5.15 54.95 7.7 46.65 4.85 39.2 0.6 31.65 -0.55 26.0 -1.75 20.35 0.7 17.35 2.1 15.65 4.65 14.6 7.6 13.35 7.95 11.95 L8.5 9.0 Q9.1 5.65 8.95 0.55 L8.95 0.25 Q10.25 -1.5 14.55 -1.1 17.05 -1.05 19.15 0.55 L20.85 2.2 Q19.7 8.05 20.95 12.6 18.2 14.95 10.45 10.25 L6.75 14.55 Q5.4 15.8 2.85 17.05 1.2 23.95 5.4 32.05 10.0 44.9 8.65 51.55 5.8 58.9 6.1 67.05 L2.6 67.05 M22.2 25.45 L25.15 31.5 Q26.7 33.95 31.75 33.95 24.75 35.85 10.45 35.2 18.7 34.85 22.2 31.65 L22.2 25.45 M25.35 58.45 Q24.85 58.0 25.05 56.85 25.25 55.65 26.1 54.55 L26.1 59.15 25.35 58.45" fill="#d99a83" fill-rule="evenodd" stroke="none"/>
    <path d="M35.1 66.75 Q35.35 70.3 34.2 72.95 18.1 71.65 5.7 74.6 2.7 71.6 2.6 67.05 L6.1 67.05 35.1 66.75" fill="#a6a6a6" fill-rule="evenodd" stroke="none"/>
    <path d="M34.2 72.95 Q32.3 77.2 26.7 78.3 24.55 79.75 21.9 80.1 10.3 79.2 5.7 74.6 18.1 71.65 34.2 72.95" fill="#e9e9e9" fill-rule="evenodd" stroke="none"/>
    <path d="M2.6 67.05 Q2.55 63.25 5.15 54.95 7.7 46.65 4.85 39.2 0.6 31.65 -0.55 26.0 -1.75 20.35 0.7 17.35 2.1 15.65 4.65 14.6 7.6 13.35 7.95 11.95 L8.5 9.0 Q9.1 5.65 8.95 0.55 L8.95 0.25 Q10.25 -1.5 14.55 -1.1 17.05 -1.05 19.15 0.55 L20.85 2.2 Q19.7 8.05 20.95 12.6 L26.55 16.75 Q29.7 20.35 31.4 27.2 33.05 34.05 32.75 46.45 32.65 50.25 33.5 54.25 L35.1 66.75 6.1 67.05 2.6 67.05 Q2.7 71.6 5.7 74.6 10.3 79.2 21.9 80.1 24.55 79.75 26.7 78.3" fill="none" stroke="#000000" stroke-linecap="round" stroke-linejoin="round" stroke-width="1.0"/>
    <path d="M22.3 20.25 Q23.3 22.65 23.95 25.8 L24.05 26.2 20.7 27.75 20.5 27.1 Q19.5 24.3 18.05 21.8 L22.3 20.25 M24.1 26.45 L24.6 30.1 24.65 30.85 Q26.9 51.5 29.95 67.1 L30.05 67.65 26.95 67.6 Q24.55 48.2 24.1 26.45" fill="#100505" fill-rule="evenodd" stroke="none"/>
    <path d="M24.05 26.2 L24.1 26.45 Q24.55 48.2 26.95 67.6 L14.45 67.35 Q22.6 47.1 21.3 29.55 L20.7 27.75 24.05 26.2" fill="#411313" fill-rule="evenodd" stroke="none"/>
    <path d="M29.95 67.1 L26.5 25.0 Q29.25 24.0 30.6 22.45 34.2 31.0 33.65 44.1 33.55 51.6 34.45 53.65 L35.2 67.65 30.05 67.65 29.95 67.1 M14.45 67.35 L6.1 67.15 Q7.45 61.2 6.7 58.6 L9.65 58.6 Q12.3 58.55 14.85 57.3 L12.65 57.05 Q10.3 56.25 7.75 53.4 8.0 45.9 7.05 37.2 L20.5 27.1 20.7 27.75 21.3 29.55 Q22.6 47.1 14.45 67.35" fill="#f8ff7b" fill-rule="evenodd" stroke="none"/>
    <path d="M22.3 20.25 L28.25 18.05 Q29.6 20.1 30.6 22.45 29.25 24.0 26.5 25.0 L29.95 67.1 Q26.9 51.5 24.65 30.85 L24.6 30.1 24.1 26.45 24.05 26.2 23.95 25.8 Q23.3 22.65 22.3 20.25 M6.1 67.15 L2.6 67.05 3.9 54.4 Q5.65 45.05 0.05 28.35 L18.05 21.8 Q19.5 24.3 20.5 27.1 L7.05 37.2 Q8.0 45.9 7.75 53.4 10.3 56.25 12.65 57.05 L14.85 57.3 Q12.3 58.55 9.65 58.6 L6.7 58.6 Q7.45 61.2 6.1 67.15" fill="#d4bd53" fill-rule="evenodd" stroke="none"/>
    <path d="M30.6 22.45 Q29.6 20.1 28.25 18.05 L22.3 20.25 Q23.3 22.65 23.95 25.8 L24.05 26.2 24.1 26.45 24.6 30.1 24.65 30.85 Q26.9 51.5 29.95 67.1 L30.05 67.65 26.95 67.6 14.45 67.35 6.1 67.15 2.6 67.05 3.9 54.4 Q5.65 45.05 0.05 28.35 L18.05 21.8 17.15 16.95 M30.6 22.45 Q34.2 31.0 33.65 44.1 33.55 51.6 34.45 53.65 L35.2 67.65 30.05 67.65 M21.95 18.65 L22.3 20.25 18.05 21.8 Q19.5 24.3 20.5 27.1 L20.7 27.75 21.3 29.55 Q22.6 47.1 14.45 67.35" fill="none" stroke="#000000" stroke-linecap="round" stroke-linejoin="round" stroke-width="1.0"/>
    <path d="M10.95 30.4 Q9.5 31.45 8.35 32.5 L8.25 32.6 8.0 32.75 Q10.5 26.0 20.0 20.8 12.35 20.4 7.95 17.5 4.8 14.4 5.65 11.65 6.7 11.1 8.15 10.75 L9.0 12.05 Q7.95 13.85 8.85 16.15 14.95 19.4 23.0 20.5 15.15 25.15 10.95 30.4 M21.65 14.0 L21.35 11.3 23.45 11.9 Q29.55 14.85 27.9 19.6 24.15 23.45 19.0 24.4 25.05 21.75 26.45 19.6 27.65 14.75 21.65 14.0 M18.3 18.4 Q22.65 17.85 23.15 14.85 L25.4 15.95 Q24.75 18.8 18.3 18.4 M9.9 15.2 Q15.05 17.65 19.5 17.5 12.75 19.05 9.9 15.2" fill="#b4b194" fill-rule="evenodd" stroke="none"/>
    <path d="M23.45 11.9 Q28.4 13.45 29.15 15.8 30.25 17.6 28.65 19.9 29.35 22.8 18.55 25.7 14.05 28.05 10.95 30.4 15.15 25.15 23.0 20.5 14.95 19.4 8.85 16.15 7.95 13.85 9.0 12.05 12.1 16.25 19.6 16.55 23.15 16.3 21.65 14.2 L21.65 14.0 Q27.65 14.75 26.45 19.6 25.05 21.75 19.0 24.4 24.15 23.45 27.9 19.6 29.55 14.85 23.45 11.9 M8.0 32.75 L7.85 32.9 Q1.7 37.25 0.7 35.3 L-2.9 23.9 Q-3.15 17.95 3.55 13.55 4.2 12.4 5.65 11.65 4.8 14.4 7.95 17.5 12.35 20.4 20.0 20.8 10.5 26.0 8.0 32.75 M18.3 18.4 Q24.75 18.8 25.4 15.95 L23.15 14.85 Q22.65 17.85 18.3 18.4 M9.9 15.2 Q12.75 19.05 19.5 17.5 15.05 17.65 9.9 15.2" fill="#fffdee" fill-rule="evenodd" stroke="none"/>
    <path d="M23.45 11.9 Q28.4 13.45 29.15 15.8 30.25 17.6 28.65 19.9 29.35 22.8 18.55 25.7 14.05 28.05 10.95 30.4 9.5 31.45 8.35 32.5 L8.25 32.6 8.0 32.75 7.85 32.9 Q1.7 37.25 0.7 35.3 L-2.9 23.9 Q-3.15 17.95 3.55 13.55 4.2 12.4 5.65 11.65 6.7 11.1 8.15 10.75 L9.0 12.05 Q12.1 16.25 19.6 16.55 23.15 16.3 21.65 14.2 L21.65 14.0 21.35 11.3 23.45 11.9 Z" fill="none" stroke="#333333" stroke-linecap="round" stroke-linejoin="round" stroke-width="1.0"/>
    <path d="M26.0 31.2 L24.8 37.6 24.0 31.2 26.0 31.2" fill="#56380b" fill-rule="evenodd" stroke="none"/>
    <path d="M20.35 31.8 L20.3 31.75 22.2 27.35 22.35 27.5 24.0 31.2 20.35 31.8" fill="#ebffa1" fill-rule="evenodd" stroke="none"/>
    <path d="M20.35 31.8 L24.0 31.2 22.35 27.5 26.0 31.0 26.0 31.2 24.0 31.2 24.8 37.6 24.75 37.8 20.35 31.8" fill="#cbb75d" fill-rule="evenodd" stroke="none"/>
    <path d="M22.35 27.5 L22.2 27.35 20.3 31.75 20.35 31.8 24.75 37.8 24.8 37.6 26.0 31.2 26.0 31.0 22.35 27.5 M8.15 10.75 Q14.45 25.65 22.2 27.35 26.5 23.85 21.35 11.3" fill="none" stroke="#382e04" stroke-linecap="round" stroke-linejoin="round" stroke-width="1.0"/>
  </g>
</svg>
