<?xml version="1.0" encoding="UTF-8" standalone="no"?>
<svg xmlns:xlink="http://www.w3.org/1999/xlink" height="47.8px" width="25.65px" xmlns="http://www.w3.org/2000/svg">
  <g transform="matrix(1.0, 0.0, 0.0, 1.0, 3.0, 1.0)">
    <path d="M21.75 13.25 Q20.1 22.3 17.8 30.05 15.7 37.0 13.05 42.9 9.95 45.9 5.4 44.7 2.85 44.0 1.4 42.6 1.65 36.55 2.15 30.65 3.1 18.95 5.05 7.6 6.4 8.8 11.6 11.1 16.8 13.35 21.75 13.25" fill="#ffdfc6" fill-rule="evenodd" stroke="none"/>
    <path d="M21.75 13.1 L21.75 13.25 Q16.8 13.35 11.6 11.1 6.4 8.8 5.05 7.6 3.1 18.95 2.15 30.65 1.65 36.55 1.4 42.6 0.35 41.5 -0.05 40.0 L0.25 30.7 Q0.8 19.15 2.45 7.0 L2.9 4.15 3.4 0.2 Q5.95 -1.45 14.8 2.1 20.6 6.0 21.75 13.1" fill="#d99a83" fill-rule="evenodd" stroke="none"/>
    <path d="M21.75 13.1 L21.75 13.25 Q20.1 22.3 17.8 30.05 15.7 37.0 13.05 42.9 9.95 45.9 5.4 44.7 2.85 44.0 1.4 42.6 0.35 41.5 -0.05 40.0 L0.25 30.7 Q0.8 19.15 2.45 7.0 L2.9 4.15 3.4 0.2" fill="none" stroke="#000000" stroke-linecap="round" stroke-linejoin="round" stroke-width="1.0"/>
    <path d="M19.25 6.45 L19.3 6.65 Q20.9 7.7 21.3 7.7 L21.3 9.7 22.15 13.0 22.15 13.15 Q20.45 22.55 15.4 43.95 10.0 46.65 2.1 46.25 7.55 21.2 12.95 5.4 7.95 5.2 13.65 5.4 18.7 5.5 19.25 6.45" fill="#e9e9e9" fill-rule="evenodd" stroke="none"/>
    <path d="M19.25 6.45 Q18.7 5.5 13.65 5.4 7.95 5.2 12.95 5.4 7.55 21.2 2.1 46.25 L-2.5 44.75 Q0.4 19.3 2.1 6.65 L2.55 3.65 3.1 -0.45 Q5.75 -2.15 14.95 1.55 18.45 3.9 19.25 6.45" fill="#a6a6a6" fill-rule="evenodd" stroke="none"/>
    <path d="M2.1 46.25 Q10.0 46.65 15.4 43.95 20.45 22.55 22.15 13.15 L22.15 13.0 M2.1 46.25 L-2.5 44.75 Q0.4 19.3 2.1 6.65 L2.55 3.65 3.1 -0.45" fill="none" stroke="#000000" stroke-linecap="round" stroke-linejoin="round" stroke-width="1.0"/>
  </g>
</svg>
