<?xml version="1.0" encoding="UTF-8" standalone="no"?>
<svg xmlns:xlink="http://www.w3.org/1999/xlink" height="54.4px" width="33.6px" xmlns="http://www.w3.org/2000/svg">
  <g transform="matrix(1.0, 0.0, 0.0, 1.0, 10.7, -2.6)">
    <path d="M4.05 38.2 Q5.55 30.65 4.95 24.95 4.75 13.95 7.55 3.95 10.3 3.0 14.35 4.05 19.65 5.35 19.1 5.8 18.35 14.1 14.1 25.65 11.15 33.45 11.15 38.2 L4.05 38.2 M4.6 42.4 L4.8 41.25 4.85 41.15 4.9 41.05 5.15 39.4 11.5 40.5 11.6 42.3 11.6 42.4 11.8 44.05 Q9.35 41.4 7.65 41.55 5.95 41.7 4.6 42.4 M3.4 49.15 L3.4 48.05 4.05 45.35 Q7.6 46.45 9.4 46.55 11.15 46.55 11.8 44.65 L11.85 44.5 Q11.55 44.2 11.8 44.05 L11.9 44.5 12.05 45.1 Q13.25 48.3 13.7 51.05 10.2 53.05 3.8 49.6 L3.4 49.15 M11.8 44.65 L12.05 45.1 11.8 44.65 M11.9 44.5 L11.85 44.5 11.9 44.5" fill="#ffdfc6" fill-rule="evenodd" stroke="none"/>
    <path d="M6.05 4.7 Q6.75 4.25 7.55 3.95 4.75 13.95 4.95 24.95 5.55 30.65 4.05 38.2 L2.6 38.2 Q3.8 34.1 3.45 29.0 3.0 21.5 3.4 15.35 3.85 9.2 6.05 4.7 M5.15 39.4 L4.9 41.05 4.85 41.15 4.8 41.25 4.6 42.4 Q3.4 43.0 2.65 44.5 L1.75 47.25 Q2.0 45.35 2.55 43.15 L3.35 40.95 3.4 40.8 3.85 39.15 5.15 39.4" fill="#d99a83" fill-rule="evenodd" stroke="none"/>
    <path d="M13.7 51.05 Q14.0 52.95 13.9 54.6 12.65 57.15 9.1 56.25 5.2 55.65 3.35 53.8 L3.4 49.15 3.8 49.6 Q10.2 53.05 13.7 51.05" fill="#65676d" fill-rule="evenodd" stroke="none"/>
    <path d="M4.6 42.4 Q5.95 41.7 7.65 41.55 9.35 41.4 11.8 44.05 11.55 44.2 11.85 44.5 L11.8 44.65 Q11.15 46.55 9.4 46.55 7.6 46.45 4.05 45.35 L3.4 48.05 3.4 49.15 1.75 47.5 3.4 49.15 3.35 53.8 Q2.15 52.65 1.75 51.15 1.6 49.4 1.75 47.5 L1.75 47.25 2.65 44.5 Q3.4 43.0 4.6 42.4 M11.8 44.05 L11.85 44.2 11.9 44.5 11.8 44.05" fill="#2b2c2e" fill-rule="evenodd" stroke="none"/>
    <path d="M6.05 4.7 Q3.85 9.2 3.4 15.35 3.0 21.5 3.45 29.0 3.8 34.1 2.6 38.2 M19.1 5.8 Q18.35 14.1 14.1 25.65 11.15 33.45 11.15 38.2 M4.6 42.4 Q5.95 41.7 7.65 41.55 9.35 41.4 11.8 44.05 L11.6 42.4 11.6 42.3 11.5 40.5 M3.85 39.15 L3.4 40.8 3.35 40.95 2.55 43.15 Q2.0 45.35 1.75 47.25 L2.65 44.5 Q3.4 43.0 4.6 42.4 M1.75 47.25 L1.75 47.5 3.4 49.15 3.4 48.05 4.05 45.35 Q7.6 46.45 9.4 46.55 11.15 46.55 11.8 44.65 L11.85 44.5 Q11.55 44.2 11.8 44.05 L11.85 44.2 11.9 44.5 12.05 45.1 Q13.25 48.3 13.7 51.05 14.0 52.95 13.9 54.6 12.65 57.15 9.1 56.25 5.2 55.65 3.35 53.8 2.15 52.65 1.75 51.15 1.6 49.4 1.75 47.5 M11.9 44.5 L11.8 44.05 M11.85 44.5 L11.9 44.5 M12.05 45.1 L11.8 44.65 M3.4 49.15 L3.8 49.6 Q10.2 53.05 13.7 51.05" fill="none" stroke="#000000" stroke-linecap="round" stroke-linejoin="round" stroke-width="1.0"/>
    <path d="M22.3 5.65 Q20.4 20.85 20.6 35.7 L21.8 43.3 7.7 36.8 Q14.6 38.4 18.85 37.9 L8.1 33.05 Q3.0 32.15 0.05 34.4 L10.0 3.05 Q15.6 1.4 22.3 5.65" fill="#e9e9e9" fill-rule="evenodd" stroke="none"/>
    <path d="M21.8 43.3 L18.4 47.5 Q14.9 43.4 7.4 42.8 L-3.0 46.7 -10.2 42.9 -1.2 20.7 4.2 4.7 10.0 3.05 0.05 34.4 Q3.0 32.15 8.1 33.05 L18.85 37.9 Q14.6 38.4 7.7 36.8 L21.8 43.3" fill="#a8a8a8" fill-rule="evenodd" stroke="none"/>
    <path d="M22.4 4.1 L22.3 5.65 Q20.4 20.85 20.6 35.7 L21.8 43.3 18.4 47.5 Q14.9 43.4 7.4 42.8 L-3.0 46.7 -10.2 42.9 -1.2 20.7 4.2 4.7" fill="none" stroke="#000000" stroke-linecap="round" stroke-linejoin="round" stroke-width="1.0"/>
  </g>
</svg>
