<?xml version="1.0" encoding="UTF-8" standalone="no"?>
<svg xmlns:xlink="http://www.w3.org/1999/xlink" height="92.5px" width="89.5px" xmlns="http://www.w3.org/2000/svg">
  <g transform="matrix(1.0, 0.0, 0.0, 1.0, 38.35, 7.4)">
    <path d="M4.9 -6.9 L-2.6 2.25 -2.9 13.6 Q-5.55 18.7 -8.35 23.4 -17.3 38.5 -27.7 49.3 -35.15 57.4 -37.85 64.4 -34.9 77.05 -16.05 84.6 -6.0 48.5 5.2 23.4 9.05 14.8 13.0 7.55 L18.6 7.5 Q25.0 7.25 29.5 6.2 L30.95 5.8 Q39.1 15.95 50.65 24.8 L36.4 3.25 Q37.45 3.15 35.75 0.45 35.6 1.2 35.4 0.85 L34.8 -2.95 Q29.5 -0.25 21.35 0.85 13.65 1.85 6.25 1.25 L4.9 -6.9 Z" fill="none" stroke="#000000" stroke-linecap="round" stroke-linejoin="round" stroke-width="1.0"/>
  </g>
</svg>
