<?xml version="1.0" encoding="UTF-8" standalone="no"?>
<svg xmlns:xlink="http://www.w3.org/1999/xlink" height="173.4px" width="47.6px" xmlns="http://www.w3.org/2000/svg">
  <g transform="matrix(1.0, 0.0, 0.0, 1.0, 0.0, 86.5)">
    <path d="M46.15 13.35 L41.9 11.95 Q47.05 3.35 42.1 -11.2 L45.7 -12.2 Q48.25 4.05 46.15 13.35" fill="#ffe630" fill-rule="evenodd" stroke="none"/>
    <path d="M45.7 -12.2 L42.1 -11.2 Q47.05 3.35 41.9 11.95 L46.15 13.35 Q45.95 15.2 44.85 16.65 L37.75 13.8 Q41.95 0.6 37.75 -12.4 L45.1 -14.75 Q45.6 -13.55 45.7 -12.2" fill="#f9e5ff" fill-rule="evenodd" stroke="none"/>
    <path d="M45.7 -12.2 L42.1 -11.2 Q47.05 3.35 41.9 11.95 L46.15 13.35 Q48.25 4.05 45.7 -12.2 45.6 -13.55 45.1 -14.75 L37.75 -12.4 Q41.95 0.6 37.75 13.8 L44.85 16.65 Q45.95 15.2 46.15 13.35" fill="none" stroke="#000000" stroke-linecap="round" stroke-linejoin="round" stroke-width="1.0"/>
    <path d="M0.5 -86.0 L0.5 86.4" fill="none" stroke="#fff783" stroke-linecap="round" stroke-linejoin="round" stroke-width="1.0"/>
  </g>
</svg>
