<?xml version="1.0" encoding="UTF-8" standalone="no"?>
<svg xmlns:xlink="http://www.w3.org/1999/xlink" height="39.4px" width="23.55px" xmlns="http://www.w3.org/2000/svg">
  <g transform="matrix(1.0, 0.0, 0.0, 1.0, 2.1, 0.35)">
    <path d="M5.85 29.25 L6.05 28.45 6.25 27.55 6.65 25.9 12.35 28.95 5.85 29.25" fill="#000000" fill-rule="evenodd" stroke="none"/>
    <path d="M8.6 5.1 L5.75 6.55 2.7 0.55 Q5.1 -0.25 6.45 0.15 L8.0 3.45 8.6 5.1 M9.45 24.2 Q11.45 22.85 14.25 23.5 L15.25 24.35 Q21.05 28.8 20.95 29.8 L20.45 31.85 Q20.25 32.55 19.45 33.3 L19.3 33.5 Q19.6 36.65 18.65 37.7 14.4 37.2 13.05 35.45 L11.85 30.75 14.55 30.8 Q13.7 33.15 14.1 33.85 L14.7 34.6 Q14.95 32.55 16.0 30.5 14.15 29.3 13.25 27.9 11.0 27.45 9.8 26.45 L9.45 24.2 M19.3 33.5 L18.35 34.7 Q17.85 35.5 16.45 35.45 15.45 35.35 14.7 34.6 15.45 35.35 16.45 35.45 17.85 35.5 18.35 34.7 L19.3 33.5" fill="#ffdfc6" fill-rule="evenodd" stroke="none"/>
    <path d="M2.7 0.55 L5.75 6.55 -0.6 6.85 -0.65 6.65 -1.6 2.7 Q-1.4 2.8 -1.05 2.45 -0.05 1.7 2.7 0.55 M18.65 37.7 Q18.15 38.15 17.5 38.2 L14.3 38.0 Q11.4 39.45 9.0 37.05 7.05 37.75 6.2 36.6 5.3 35.45 5.25 33.7 5.1 31.95 5.55 31.2 7.35 30.05 7.9 30.95 10.7 30.3 10.95 31.35 10.85 32.8 11.3 34.8 11.65 36.85 14.3 38.0 11.65 36.85 11.3 34.8 10.85 32.8 10.95 31.35 11.35 30.95 11.85 30.75 L13.05 35.45 Q14.4 37.2 18.65 37.7 M6.65 25.9 L6.65 25.85 9.45 24.2 9.8 26.45 Q11.0 27.45 13.25 27.9 14.15 29.3 16.0 30.5 14.95 32.55 14.7 34.6 L14.1 33.85 Q13.7 33.15 14.55 30.8 13.2 30.2 12.5 29.0 L12.35 28.95 12.9 28.9 12.35 28.95 6.65 25.9 M9.0 37.05 Q7.4 34.2 7.9 30.95 7.4 34.2 9.0 37.05" fill="#d99a83" fill-rule="evenodd" stroke="none"/>
    <path d="M5.75 6.55 L8.6 5.1 Q9.5 8.0 10.7 14.2 12.05 21.05 14.25 23.5 11.45 22.85 9.45 24.2 L8.7 17.8 Q8.1 12.2 5.75 6.55" fill="#bda639" fill-rule="evenodd" stroke="none"/>
    <path d="M5.75 6.55 Q8.1 12.2 8.7 17.8 L9.45 24.2 6.65 25.85 6.6 25.65 6.55 24.9 Q6.1 21.3 3.3 15.5 0.15 9.9 -0.6 6.85 L5.75 6.55" fill="#8a6b1d" fill-rule="evenodd" stroke="none"/>
    <path d="M5.75 6.55 L8.6 5.1 8.0 3.45 6.45 0.15 M9.45 24.2 Q11.45 22.85 14.25 23.5 12.05 21.05 10.7 14.2 9.5 8.0 8.6 5.1 M14.25 23.5 L15.25 24.35 Q21.05 28.8 20.95 29.8 L20.45 31.85 Q20.25 32.55 19.45 33.3 L19.3 33.5 Q19.6 36.65 18.65 37.7 18.15 38.15 17.5 38.2 L14.3 38.0 Q11.4 39.45 9.0 37.05 7.05 37.75 6.2 36.6 5.3 35.45 5.25 33.7 5.1 31.95 5.55 31.2 L5.85 29.25 6.05 28.45 6.25 27.55 6.65 25.9 6.65 25.85 6.6 25.65 6.55 24.9 Q6.1 21.3 3.3 15.5 0.15 9.9 -0.6 6.85 L-0.65 6.65 -1.6 2.7 M14.55 30.8 Q13.2 30.2 12.5 29.0 M12.35 28.95 L5.85 29.25 M12.35 28.95 L12.9 28.9 M11.85 30.75 L14.55 30.8 Q13.7 33.15 14.1 33.85 L14.7 34.6 Q15.45 35.35 16.45 35.45 17.85 35.5 18.35 34.7 L19.3 33.5 M9.45 24.2 L6.65 25.85 M14.3 38.0 Q11.65 36.85 11.3 34.8 10.85 32.8 10.95 31.35 10.7 30.3 7.9 30.95 7.4 34.2 9.0 37.05 M10.95 31.35 Q11.35 30.95 11.85 30.75 M7.9 30.95 Q7.35 30.05 5.55 31.2 M-0.6 6.85 L5.75 6.55 Z" fill="none" stroke="#000000" stroke-linecap="round" stroke-linejoin="round" stroke-width="1.0"/>
  </g>
</svg>
