<?xml version="1.0" encoding="UTF-8" standalone="no"?>
<svg xmlns:xlink="http://www.w3.org/1999/xlink" height="72.75px" width="64.95px" xmlns="http://www.w3.org/2000/svg">
  <g transform="matrix(1.0, 0.0, 0.0, 1.0, 32.15, 68.6)">
    <path d="M-9.7 -4.4 L-12.45 -12.95 -7.65 -7.55 Q-11.1 -18.45 -9.65 -28.75 L-2.45 -43.95 Q1.7 -25.2 15.95 -10.55 L16.55 -26.15 30.85 -13.55 30.15 -9.75 Q29.15 -4.4 24.5 -1.55 L23.2 -0.75 23.0 -0.65 Q17.6 2.35 11.3 3.65 4.95 2.25 -2.75 -1.1 -6.1 -2.55 -9.7 -4.4" fill="#ffdfc6" fill-rule="evenodd" stroke="none"/>
    <path d="M-9.7 -4.4 Q-14.5 -6.85 -19.75 -9.95 -30.55 -20.55 -31.6 -35.3 -32.55 -49.3 -21.0 -61.1 -9.45 -72.95 16.5 -64.8 32.45 -56.6 32.05 -37.25 32.85 -25.8 30.85 -13.55 L16.55 -26.15 15.95 -10.55 Q1.7 -25.2 -2.45 -43.95 L-9.65 -28.75 Q-11.1 -18.45 -7.65 -7.55 L-12.45 -12.95 -9.7 -4.4" fill="#d99a83" fill-rule="evenodd" stroke="none"/>
    <path d="M30.85 -13.55 Q32.85 -25.8 32.05 -37.25 32.45 -56.6 16.5 -64.8 -9.45 -72.95 -21.0 -61.1 -32.55 -49.3 -31.6 -35.3 -30.55 -20.55 -19.75 -9.95 -14.5 -6.85 -9.7 -4.4 -6.1 -2.55 -2.75 -1.1 4.95 2.25 11.3 3.65 17.6 2.35 23.0 -0.65 L23.2 -0.75 24.5 -1.55 Q29.15 -4.4 30.15 -9.75 L30.85 -13.55 Z" fill="none" stroke="#000000" stroke-linecap="round" stroke-linejoin="round" stroke-width="1.0"/>
    <path d="M-0.15 -9.15 L-7.4 -8.8 Q-11.75 -9.2 -13.25 -10.55 -14.8 -11.95 -14.8 -13.5 -14.8 -15.05 -12.3 -15.85 L-6.0 -16.2 Q-2.35 -15.8 0.2 -14.45 2.8 -13.05 2.8 -11.5 2.8 -9.95 -0.15 -9.15" fill="url(#gradient0)" fill-rule="evenodd" stroke="none"/>
    <path d="M18.9 -8.75 Q16.9 -9.4 16.9 -10.65 16.9 -11.95 18.9 -13.1 20.9 -14.2 23.7 -14.5 L28.55 -14.2 Q30.5 -13.5 30.5 -12.2 30.5 -10.95 28.55 -9.85 26.55 -8.7 23.7 -8.4 L18.9 -8.75" fill="url(#gradient1)" fill-rule="evenodd" stroke="none"/>
    <path d="M-8.05 -12.0 L-7.6 -12.65 -6.45 -13.05 -5.25 -13.0 Q-4.75 -12.85 -4.7 -12.55 -4.65 -12.25 -5.1 -11.95 L-6.2 -11.55 -7.45 -11.6 -8.05 -12.0 M26.4 -12.1 L26.95 -12.55 27.95 -12.45 28.85 -12.05 29.1 -11.35 Q29.05 -11.05 28.6 -11.0 28.1 -10.85 27.55 -11.0 26.95 -11.15 26.7 -11.5 26.35 -11.8 26.4 -12.1" fill="#ffffff" fill-opacity="0.49019608" fill-rule="evenodd" stroke="none"/>
    <path d="M16.55 -8.0 Q17.9 -8.45 19.15 -9.15 25.05 -12.2 24.95 -6.15 L24.9 -5.0 Q22.35 -7.85 16.55 -8.0 M-3.7 -5.15 Q-3.9 -6.85 -3.1 -8.0 -1.95 -10.85 3.95 -8.95 5.5 -8.3 7.0 -7.9 -0.25 -8.6 -3.7 -5.15" fill="#120707" fill-rule="evenodd" stroke="none"/>
    <path d="M24.9 -5.0 L24.6 -3.85 Q24.1 -2.7 23.2 -1.75 L22.2 -0.85 Q24.85 -3.55 22.05 -4.65 12.1 -7.6 0.5 -4.95 -2.75 -4.1 -0.75 -0.45 L-2.75 -2.1 -3.45 -3.9 -3.7 -5.15 Q-0.25 -8.6 7.0 -7.9 12.1 -6.6 16.55 -8.0 22.35 -7.85 24.9 -5.0" fill="#6b2a4a" fill-rule="evenodd" stroke="none"/>
    <path d="M22.2 -0.85 Q18.15 2.25 11.3 3.65 3.0 1.95 -0.75 -0.45 -2.75 -4.1 0.5 -4.95 12.1 -7.6 22.05 -4.65 24.85 -3.55 22.2 -0.85" fill="#d06582" fill-rule="evenodd" stroke="none"/>
    <path d="M16.55 -8.0 Q17.9 -8.45 19.15 -9.15 25.05 -12.2 24.95 -6.15 L24.9 -5.0 24.6 -3.85 Q24.1 -2.7 23.2 -1.75 L22.2 -0.85 Q18.15 2.25 11.3 3.65 3.0 1.95 -0.75 -0.45 L-2.75 -2.1 -3.45 -3.9 -3.7 -5.15 Q-3.9 -6.85 -3.1 -8.0 -1.95 -10.85 3.95 -8.95 5.5 -8.3 7.0 -7.9 12.1 -6.6 16.55 -8.0 22.35 -7.85 24.9 -5.0 M-3.7 -5.15 Q-0.25 -8.6 7.0 -7.9" fill="none" stroke="#000000" stroke-linecap="round" stroke-linejoin="round" stroke-width="1.0"/>
  </g>
  <defs>
    <radialGradient cx="0" cy="0" gradientTransform="matrix(0.0108, 0.0012, 0.0, 0.0046, -6.0, -12.5)" gradientUnits="userSpaceOnUse" id="gradient0" r="819.2" spreadMethod="pad">
      <stop offset="0.2823529411764706" stop-color="#ff8e8e" stop-opacity="0.65882355"/>
      <stop offset="1.0" stop-color="#ff8e8e" stop-opacity="0.0"/>
    </radialGradient>
    <radialGradient cx="0" cy="0" gradientTransform="matrix(-0.0084, 9.0E-4, 0.0, 0.0038, 23.7, -11.45)" gradientUnits="userSpaceOnUse" id="gradient1" r="819.2" spreadMethod="pad">
      <stop offset="0.2823529411764706" stop-color="#ff8e8e" stop-opacity="0.65882355"/>
      <stop offset="1.0" stop-color="#ff8e8e" stop-opacity="0.0"/>
    </radialGradient>
  </defs>
</svg>
