<?xml version="1.0" encoding="UTF-8" standalone="no"?>
<svg xmlns:xlink="http://www.w3.org/1999/xlink" height="10.45px" width="6.85px" xmlns="http://www.w3.org/2000/svg">
  <g transform="matrix(1.0, 0.0, 0.0, 1.0, -19.35, 25.35)">
    <path d="M22.75 -23.65 Q22.75 -22.9 22.2 -22.45 21.75 -21.95 21.05 -21.95 20.35 -21.95 19.85 -22.45 19.35 -22.9 19.35 -23.65 19.35 -24.4 19.85 -24.85 20.35 -25.35 21.05 -25.35 21.75 -25.35 22.2 -24.85 22.75 -24.4 22.75 -23.65 M26.2 -15.9 Q26.2 -15.45 25.75 -15.2 25.4 -14.9 24.8 -14.9 24.25 -14.9 23.85 -15.2 23.4 -15.45 23.4 -15.9 23.4 -16.35 23.85 -16.6 24.25 -16.9 24.8 -16.9 L25.75 -16.6 Q26.2 -16.35 26.2 -15.9" fill="#ffffff" fill-rule="evenodd" stroke="none"/>
  </g>
</svg>
