<?xml version="1.0" encoding="UTF-8" standalone="no"?>
<svg xmlns:xlink="http://www.w3.org/1999/xlink" height="86.6px" width="114.85px" xmlns="http://www.w3.org/2000/svg">
  <g transform="matrix(1.0, 0.0, 0.0, 1.0, 18.3, -19.65)">
    <path d="M58.9 29.8 Q61.9 32.6 64.3 36.25 66.5 39.65 68.1 43.75 L68.4 44.65 Q70.9 52.45 79.55 58.4 83.4 61.1 87.45 60.55 90.1 60.2 91.9 58.45 94.7 54.75 90.9 49.05 L92.0 49.95 Q96.75 54.0 95.15 58.25 93.35 62.95 89.7 64.1 86.0 65.2 83.55 65.0 74.6 64.15 71.55 60.65 74.95 67.05 83.45 71.65 L82.65 71.45 Q75.45 69.75 70.6 66.9 73.15 78.1 82.15 78.65 L79.45 79.35 Q72.9 80.45 69.45 75.45 70.9 80.15 72.9 83.5 69.6 79.05 67.0 74.75 66.75 83.15 70.25 96.0 66.65 93.85 64.55 88.35 64.85 96.2 62.15 100.5 L60.6 102.35 Q62.0 100.25 58.85 92.05 56.2 102.65 57.95 105.25 52.4 100.65 52.0 94.4 57.5 92.55 61.8 87.55 L63.05 85.9 Q64.3 83.65 65.15 77.5 L65.7 72.6 Q60.8 64.05 58.45 55.95 58.75 66.55 61.95 74.25 L61.05 73.65 Q57.65 71.35 55.25 68.85 51.0 64.45 49.8 59.5 50.3 70.65 53.6 81.75 37.45 67.5 35.75 50.8 L34.85 49.85 34.15 51.05 Q33.6 50.65 33.35 49.75 L32.45 50.8 Q32.2 50.7 32.15 49.7 L30.75 50.75 Q30.5 50.4 30.55 49.8 L29.5 50.45 Q23.95 59.95 21.8 69.45 22.55 77.05 26.15 82.6 L25.6 82.5 Q23.4 81.85 21.85 80.6 23.15 91.35 25.95 94.7 L22.75 91.45 Q20.15 88.4 18.6 84.9 19.1 87.45 18.7 89.8 17.3 94.55 17.3 97.6 17.3 99.4 17.8 100.65 14.9 96.8 14.9 89.65 10.75 98.5 9.9 105.0 8.1 98.0 9.25 88.85 8.3 90.9 6.65 92.55 3.2 97.55 3.7 104.35 L3.75 104.75 Q-3.8 94.75 3.1 79.7 L3.4 79.05 3.15 79.55 Q0.05 84.65 -9.3 87.3 L-11.0 87.75 Q-6.5 84.85 -5.7 77.7 -4.6 69.4 -1.6 63.6 -5.8 71.2 -14.15 69.7 L-17.3 68.85 Q-9.35 69.1 -6.8 57.15 -3.75 48.85 0.1 42.4 2.45 38.4 5.1 35.15 8.55 30.85 12.5 27.75 L18.85 24.7 Q23.65 20.35 36.0 20.7 L39.25 20.85 40.2 20.9 Q47.55 22.25 57.35 25.1 87.5 34.15 88.4 49.85 88.5 52.0 88.05 54.25 90.25 41.3 58.9 29.8 Z" fill="none" stroke="#412f0c" stroke-linecap="round" stroke-linejoin="round" stroke-width="2.0"/>
  </g>
</svg>
