<?xml version="1.0" encoding="UTF-8" standalone="no"?>
<svg xmlns:xlink="http://www.w3.org/1999/xlink" height="80.6px" width="82.2px" xmlns="http://www.w3.org/2000/svg">
  <g transform="matrix(1.0, 0.0, 0.0, 1.0, 51.35, 95.85)">
    <path d="M30.85 -33.5 Q24.05 -38.15 18.25 -34.1 23.2 -40.6 30.85 -33.5 M-11.65 -35.3 Q-1.2 -41.3 5.55 -34.1 -2.35 -38.95 -11.65 -35.3" fill="#6d4d1b" fill-rule="evenodd" stroke="none"/>
    <path d="M3.6 -16.05 Q3.6 -15.7 3.1 -15.5 L1.95 -15.25 0.8 -15.5 Q0.35 -15.7 0.35 -16.05 L0.8 -16.55 1.95 -16.8 3.1 -16.55 3.6 -16.05 M-2.05 -24.55 Q-2.05 -23.8 -2.6 -23.35 -3.05 -22.85 -3.75 -22.85 -4.45 -22.85 -4.95 -23.35 -5.45 -23.8 -5.45 -24.55 -5.45 -25.3 -4.95 -25.75 -4.45 -26.25 -3.75 -26.25 -3.05 -26.25 -2.6 -25.75 -2.05 -25.3 -2.05 -24.55" fill="#ffffff" fill-rule="evenodd" stroke="none"/>
    <path d="M29.15 -90.6 Q30.0 -86.8 18.85 -81.8 7.9 -76.75 -8.6 -73.5 -25.05 -70.2 -37.25 -70.6 -49.45 -71.0 -50.3 -74.8 -51.1 -78.65 -40.1 -83.65 -29.05 -88.6 -12.6 -91.95 3.85 -95.2 16.05 -94.8 28.3 -94.45 29.15 -90.6 M14.45 -89.15 Q14.0 -90.7 6.2 -90.3 -1.5 -89.95 -11.95 -87.9 -22.3 -85.7 -29.35 -83.15 -36.4 -80.5 -35.95 -78.9 -35.45 -77.3 -27.75 -77.65 -20.05 -78.05 -9.6 -80.2 0.8 -82.3 7.85 -84.95 14.9 -87.55 14.45 -89.15" fill="#fcf265" fill-rule="evenodd" stroke="none"/>
    <path d="M29.15 -90.6 Q30.0 -86.8 18.85 -81.8 7.9 -76.75 -8.6 -73.5 -25.05 -70.2 -37.25 -70.6 -49.45 -71.0 -50.3 -74.8 -51.1 -78.65 -40.1 -83.65 -29.05 -88.6 -12.6 -91.95 3.85 -95.2 16.05 -94.8 28.3 -94.45 29.15 -90.6 M14.45 -89.15 Q14.9 -87.55 7.85 -84.95 0.8 -82.3 -9.6 -80.2 -20.05 -78.05 -27.75 -77.65 -35.45 -77.3 -35.95 -78.9 -36.4 -80.5 -29.35 -83.15 -22.3 -85.7 -11.95 -87.9 -1.5 -89.95 6.2 -90.3 14.0 -90.7 14.45 -89.15" fill="none" stroke="#6b3b00" stroke-linecap="round" stroke-linejoin="round" stroke-width="2.0"/>
  </g>
</svg>
