<?xml version="1.0" encoding="UTF-8" standalone="no"?>
<svg xmlns:xlink="http://www.w3.org/1999/xlink" height="35.65px" width="19.1px" xmlns="http://www.w3.org/2000/svg">
  <g transform="matrix(1.0, 0.0, 0.0, 1.0, 1.15, 0.5)">
    <path d="M8.05 4.4 Q10.7 1.4 14.6 0.0 19.5 5.2 17.25 9.85 14.95 14.5 12.55 20.5 10.1 26.45 8.7 30.9 7.3 35.3 2.75 34.55 1.25 34.25 0.45 33.4 5.05 12.5 8.05 4.4" fill="#ffdfc6" fill-rule="evenodd" stroke="none"/>
    <path d="M8.05 4.4 Q5.05 12.5 0.45 33.4 -1.25 31.7 -0.3 27.65 1.05 21.55 3.85 12.25 5.3 7.5 8.05 4.4" fill="#d99a83" fill-rule="evenodd" stroke="none"/>
    <path d="M14.6 0.0 Q10.7 1.4 8.05 4.4 5.3 7.5 3.85 12.25 1.05 21.55 -0.3 27.65 -1.25 31.7 0.45 33.4 1.25 34.25 2.75 34.55 7.3 35.3 8.7 30.9 10.1 26.45 12.55 20.5 14.95 14.5 17.25 9.85" fill="none" stroke="#000000" stroke-linecap="round" stroke-linejoin="round" stroke-width="1.0"/>
    <path d="M0.45 33.4 L0.25 34.2" fill="none" stroke="#000000" stroke-linecap="round" stroke-linejoin="round" stroke-width="0.05"/>
  </g>
</svg>
