<?xml version="1.0" encoding="UTF-8" standalone="no"?>
<svg xmlns:xlink="http://www.w3.org/1999/xlink" height="35.0px" width="31.0px" xmlns="http://www.w3.org/2000/svg">
  <g transform="matrix(1.0, 0.0, 0.0, 1.0, 0.5, 18.2)">
    <path d="M25.8 -7.15 Q14.7 -6.05 10.8 -8.35 L11.55 -10.3 Q15.55 -7.7 25.8 -7.55 L29.7 -7.6 25.8 -7.15 M25.7 -8.9 Q16.6 -9.45 12.7 -11.8 L17.15 -13.3 Q17.45 -10.4 25.7 -9.25 L30.5 -8.75 25.7 -8.9 M25.35 -11.4 Q20.85 -13.8 21.0 -16.65 L23.15 -17.7 Q24.7 -14.6 25.35 -11.4 M25.6 -3.85 Q12.35 -0.55 3.6 9.2 9.3 0.35 21.5 -3.85 L25.6 -3.85 M4.55 10.75 Q16.45 7.05 22.45 2.5 20.85 5.6 16.85 8.05 9.85 10.5 4.55 10.75" fill="#b4b194" fill-rule="evenodd" stroke="none"/>
    <path d="M25.8 -7.55 Q15.55 -7.7 11.55 -10.3 L10.8 -8.35 Q14.7 -6.05 25.8 -7.15 L25.6 -3.85 Q26.6 1.05 27.95 1.8 L20.6 6.3 Q19.15 8.9 13.4 10.5 3.0 11.3 0.35 16.3 -0.7 13.15 1.2 8.65 L3.35 1.8 Q7.3 -2.0 9.65 -7.95 L11.55 -12.7 Q14.9 -13.7 21.0 -16.65 20.85 -13.8 25.35 -11.4 L25.7 -9.25 Q17.45 -10.4 17.15 -13.3 L12.7 -11.8 Q16.6 -9.45 25.7 -8.9 L25.8 -7.55 M25.6 -3.85 L21.5 -3.85 Q9.3 0.35 3.6 9.2 12.35 -0.55 25.6 -3.85 M4.55 10.75 Q9.85 10.5 16.85 8.05 20.85 5.6 22.45 2.5 16.45 7.05 4.55 10.75" fill="#fffdee" fill-rule="evenodd" stroke="none"/>
    <path d="M21.0 -16.65 Q14.9 -13.7 11.55 -12.7 L9.65 -7.95 Q7.3 -2.0 3.35 1.8 L1.2 8.65 Q-0.7 13.15 0.35 16.3 3.0 11.3 13.4 10.5 19.15 8.9 20.6 6.3 L27.95 1.8 M21.0 -16.65 L23.15 -17.7" fill="none" stroke="#333333" stroke-linecap="round" stroke-linejoin="round" stroke-width="1.0"/>
  </g>
</svg>
