<?xml version="1.0" encoding="UTF-8" standalone="no"?>
<svg xmlns:xlink="http://www.w3.org/1999/xlink" height="124.0px" width="16.4px" xmlns="http://www.w3.org/2000/svg">
  <g transform="matrix(1.0, 0.0, 0.0, 1.0, 0.8, 62.2)">
    <path d="M12.0 -46.25 L10.5 -47.25 11.2 -44.7 9.2 -46.0 9.2 36.85 14.8 47.4 14.35 47.15 15.6 49.5 13.25 48.05 14.0 49.5 13.95 49.5 14.8 51.05 12.35 49.55 8.4 60.2 8.3 59.95 7.6 61.8 6.9 60.0 6.8 60.2 2.5 49.55 0.0 51.05 0.85 49.5 0.8 49.5 1.6 48.0 -0.8 49.5 0.5 47.15 0.0 47.4 5.6 36.85 5.6 -46.0 3.6 -44.7 4.3 -47.25 2.8 -46.25 6.6 -60.1 6.75 -59.65 7.4 -62.2 8.1 -59.65 8.2 -60.1 12.0 -46.25" fill="#3f2600" fill-opacity="0.50980395" fill-rule="evenodd" stroke="none"/>
    <path d="M8.4 -48.1 L7.4 -49.5 6.4 -48.1 3.6 -46.25 7.4 -60.1 11.2 -46.25 8.4 -48.1" fill="#fffee2" fill-rule="evenodd" stroke="none"/>
    <path d="M6.4 -48.1 L7.4 -49.5 8.4 -48.1 8.4 37.45 14.8 49.5 12.15 47.85 9.55 46.2 7.4 53.4 5.25 46.2 2.6 47.85 0.0 49.5 6.4 37.45 6.4 -48.1" fill="#fff572" fill-rule="evenodd" stroke="none"/>
    <path d="M2.6 47.85 L5.25 46.2 7.4 53.4 9.55 46.2 12.15 47.85 7.6 60.2 2.6 47.85" fill="#fffab1" fill-rule="evenodd" stroke="none"/>
  </g>
</svg>
