<?xml version="1.0" encoding="UTF-8" standalone="no"?>
<svg xmlns:xlink="http://www.w3.org/1999/xlink" height="40.3px" width="15.5px" xmlns="http://www.w3.org/2000/svg">
  <g transform="matrix(1.0, 0.0, 0.0, 1.0, 1.4, 0.1)">
    <path d="M12.5 1.45 L12.55 5.65 12.35 9.0 Q10.6 6.9 4.25 6.05 4.6 3.45 5.85 0.0 L7.9 0.1 Q10.3 0.5 11.95 1.3 L12.5 1.45 M10.45 27.25 Q10.8 28.45 12.1 29.85 13.3 30.95 13.5 33.45 13.95 35.65 12.2 36.15 9.95 34.2 10.05 33.8 9.25 36.7 9.7 37.55 4.5 38.5 -0.45 37.05 L-0.8 36.3 Q-1.15 33.25 -0.45 30.7 L0.55 29.2 Q0.05 33.6 4.7 34.95 9.55 33.0 10.45 27.25" fill="#ffdfc6" fill-rule="evenodd" stroke="none"/>
    <path d="M5.85 0.0 Q4.6 3.45 4.25 6.05 L2.35 6.8 Q2.5 4.45 2.9 3.4 3.75 1.05 4.3 0.4 4.9 0.05 5.85 0.0 M12.2 36.15 L11.05 36.3 Q11.1 40.25 6.15 39.6 0.9 39.85 -0.45 37.05 4.5 38.5 9.7 37.55 9.25 36.7 10.05 33.8 9.95 34.2 12.2 36.15 M-0.45 30.7 L0.15 28.95 0.55 29.2 -0.45 30.7" fill="#d99a83" fill-rule="evenodd" stroke="none"/>
    <path d="M0.15 28.95 L0.7 27.85 Q2.5 22.6 2.2 14.15 2.1 9.55 2.35 6.8 L4.25 6.05 Q3.45 11.55 3.85 16.4 4.2 23.0 0.55 29.2 L0.15 28.95" fill="#8a6b1d" fill-rule="evenodd" stroke="none"/>
    <path d="M7.6 30.0 L7.6 30.05 4.5 33.15 3.75 29.85 7.6 30.0" fill="#ebffa1" fill-rule="evenodd" stroke="none"/>
    <path d="M7.6 30.0 L3.75 29.85 4.5 33.15 4.45 33.2 1.8 29.85 3.75 29.85 4.85 25.7 7.6 30.0" fill="#cbb75d" fill-rule="evenodd" stroke="none"/>
    <path d="M1.8 29.85 L4.8 25.65 4.85 25.7 3.75 29.85 1.8 29.85" fill="#56380b" fill-rule="evenodd" stroke="none"/>
    <path d="M4.25 6.05 Q10.6 6.9 12.35 9.0 12.0 11.7 11.05 15.45 9.55 22.8 10.3 26.65 L10.45 27.25 Q9.55 33.0 4.7 34.95 0.05 33.6 0.55 29.2 4.2 23.0 3.85 16.4 3.45 11.55 4.25 6.05 M4.5 33.15 L7.6 30.05 7.6 30.0 4.85 25.7 4.8 25.65 1.8 29.85 4.45 33.2 4.5 33.15" fill="#bda639" fill-rule="evenodd" stroke="none"/>
    <path d="M12.35 9.0 L12.55 5.65 12.5 1.45 M4.25 6.05 Q10.6 6.9 12.35 9.0 12.0 11.7 11.05 15.45 9.55 22.8 10.3 26.65 L10.45 27.25 Q10.8 28.45 12.1 29.85 13.3 30.95 13.5 33.45 13.95 35.65 12.2 36.15 L11.05 36.3 Q11.1 40.25 6.15 39.6 0.9 39.85 -0.45 37.05 L-0.8 36.3 Q-1.15 33.25 -0.45 30.7 L0.15 28.95 0.7 27.85 Q2.5 22.6 2.2 14.15 2.1 9.55 2.35 6.8 2.5 4.45 2.9 3.4 3.75 1.05 4.3 0.4 M2.35 6.8 L4.25 6.05 M0.55 29.2 Q0.05 33.6 4.7 34.95 9.55 33.0 10.45 27.25 M4.5 33.15 L7.6 30.05 7.6 30.0 4.85 25.7 4.8 25.65 1.8 29.85 4.45 33.2 4.5 33.15 M0.55 29.2 L0.15 28.95" fill="none" stroke="#000000" stroke-linecap="round" stroke-linejoin="round" stroke-width="1.0"/>
  </g>
</svg>
