<?xml version="1.0" encoding="UTF-8" standalone="no"?>
<svg xmlns:xlink="http://www.w3.org/1999/xlink" height="142.25px" width="124.3px" xmlns="http://www.w3.org/2000/svg">
  <g transform="matrix(1.0, 0.0, 0.0, 1.0, 0.5, 71.15)">
    <path d="M54.8 -59.65 L53.15 -59.65 42.4 -49.3 Q-4.05 -17.55 0.4 55.65 0.85 62.9 1.8 70.6 3.4 42.45 8.8 17.4 L9.1 16.1 9.65 13.7 11.4 11.75 11.4 11.8 12.45 10.8 13.05 10.3 Q14.6 8.95 16.15 8.2 L16.5 8.0 16.6 7.95 17.05 7.75 17.2 7.7 24.05 7.4 Q26.2 8.05 28.4 9.65 L28.95 10.05 30.05 11.0 30.75 11.65 30.9 11.8 31.2 12.1 33.45 14.6 Q33.25 19.85 33.8 25.1 34.5 19.8 35.6 14.45 L37.6 12.35 40.85 9.35 Q49.95 1.7 57.65 3.8 L59.7 4.55 Q63.0 6.05 66.1 9.45 68.35 15.85 71.3 22.1 69.25 15.15 68.2 6.2 L69.9 3.4 Q71.05 1.85 72.4 0.6 L72.9 0.2 72.9 0.15 Q74.5 -1.2 76.45 -2.1 78.35 -3.05 80.55 -3.5 L86.55 -3.95 88.3 -3.4 Q110.05 -4.8 123.3 -18.9 L118.8 -22.25 Q105.4 -11.15 88.3 -8.4 60.85 -23.8 61.65 -50.1 L61.75 -52.15 Q61.85 -53.4 62.1 -53.65 L60.85 -54.8 Q60.6 -62.35 68.05 -69.85 L68.8 -70.65 67.7 -70.0 64.95 -68.4 Q58.45 -64.3 54.8 -59.65 Z" fill="none" stroke="#000000" stroke-linecap="round" stroke-linejoin="round" stroke-width="1.0"/>
  </g>
</svg>
