<?xml version="1.0" encoding="UTF-8" standalone="no"?>
<svg xmlns:xlink="http://www.w3.org/1999/xlink" height="45.5px" width="76.7px" xmlns="http://www.w3.org/2000/svg">
  <g transform="matrix(1.0, 0.0, 0.0, 1.0, 0.5, 22.75)">
    <path d="M8.9 -9.05 L9.45 -10.1 14.05 -16.4 14.2 -16.55 14.4 -16.7 14.6 -16.9 14.8 -17.1 14.95 -17.25 15.55 -17.7 15.75 -17.9 Q19.3 -20.0 23.7 -20.75 L26.85 -21.2 Q36.95 -21.9 42.1 -13.5 42.25 -13.2 41.9 -13.2 40.8 -13.2 40.05 -14.25 38.3 -16.7 35.75 -18.05 29.4 -21.35 22.5 -19.05 15.1 -16.65 10.1 -10.6 L9.65 -10.0 8.9 -9.05 M11.75 5.6 Q14.95 6.55 13.65 9.45 L13.25 9.5 Q11.2 7.9 11.55 5.75 11.55 5.6 11.75 5.6 M4.15 7.5 Q6.25 8.35 4.8 9.5 L4.2 9.5 Q1.9 8.35 4.15 7.5" fill="#7e35aa" fill-rule="evenodd" stroke="none"/>
    <path d="M70.5 -0.6 L68.9 0.9 Q64.25 4.85 60.3 6.3 L57.0 7.05 Q53.75 7.35 51.15 5.7 48.75 4.2 46.85 1.1 L46.6 0.65 47.7 1.6 47.65 1.5 46.05 -0.7 Q44.0 -3.95 42.3 -7.3 40.6 -10.65 39.05 -11.35 37.5 -12.1 35.55 -13.55 33.55 -15.05 32.3 -15.45 L31.45 -15.7 31.4 -15.7 24.1 -15.9 23.9 -15.85 23.2 -15.55 22.9 -15.45 22.75 -15.35 19.9 -13.45 18.95 -12.6 18.9 -12.55 Q16.85 -11.05 15.3 -9.15 L16.2 -9.4 Q11.25 -2.9 9.5 5.3 10.55 3.75 12.65 4.05 L13.35 4.35 14.5 5.25 Q12.15 4.6 11.15 5.55 10.15 6.5 10.0 8.55 L9.75 10.95 9.55 10.9 Q9.8 9.65 9.65 9.1 L9.4 7.9 9.4 8.15 9.1 10.95 9.0 12.05 9.0 12.1 7.55 9.05 9.0 12.1 9.0 12.05 9.05 11.9 9.1 11.95 Q10.25 12.75 8.6 12.8 6.75 10.35 6.0 8.75 4.65 5.9 2.75 7.85 0.55 10.2 3.9 13.5 7.2 16.8 8.35 19.0 L5.65 16.7 4.15 15.55 Q0.45 12.8 0.05 9.15 -0.35 5.45 2.0 5.2 4.35 4.95 6.8 6.3 L7.55 9.05 7.5 8.75 8.0 4.75 Q8.85 -0.2 10.7 -4.9 12.25 -8.8 15.05 -12.05 19.35 -17.0 25.95 -17.6 34.6 -18.35 40.15 -11.9 43.15 -8.4 45.35 -4.35 48.55 1.7 54.4 4.55 L58.2 4.7 Q65.45 1.85 69.8 -4.55 71.25 -6.6 72.95 -8.1 L73.1 -7.95 Q72.95 -6.1 71.8 -4.35 L71.35 -3.65 71.3 -2.9 70.8 -1.95 70.5 -0.6 M9.5 5.3 L9.4 7.85 9.4 7.9 9.4 7.85 9.5 5.3" fill="#200931" fill-rule="evenodd" stroke="none"/>
    <path d="M15.75 -17.9 Q19.85 -21.05 25.45 -22.2 40.65 -22.9 48.9 -6.2 51.05 -1.85 54.95 0.25 57.65 1.65 60.65 0.3 70.55 -4.3 72.35 -16.55 72.9 -20.25 74.65 -17.0 76.1 -14.25 75.5 -10.8 74.35 -4.75 70.5 -0.6 L70.8 -1.95 71.3 -2.9 71.35 -3.65 71.8 -4.35 Q72.95 -6.1 73.1 -7.95 L72.95 -8.1 Q71.25 -6.6 69.8 -4.55 65.45 1.85 58.2 4.7 L54.4 4.55 Q48.55 1.7 45.35 -4.35 43.15 -8.4 40.15 -11.9 34.6 -18.35 25.95 -17.6 19.35 -17.0 15.05 -12.05 12.25 -8.8 10.7 -4.9 8.85 -0.2 8.0 4.75 L7.5 8.75 7.55 9.05 6.8 6.3 Q5.4 1.1 7.2 -4.65 L8.9 -9.05 9.65 -10.0 10.1 -10.6 Q15.1 -16.65 22.5 -19.05 29.4 -21.35 35.75 -18.05 38.3 -16.7 40.05 -14.25 40.8 -13.2 41.9 -13.2 42.25 -13.2 42.1 -13.5 36.95 -21.9 26.85 -21.2 L23.7 -20.75 Q19.3 -20.0 15.75 -17.9 M46.6 0.65 L46.4 0.3 Q39.0 -12.95 31.45 -15.7 L32.3 -15.45 Q33.55 -15.05 35.55 -13.55 37.5 -12.1 39.05 -11.35 40.6 -10.65 42.3 -7.3 44.0 -3.95 46.05 -0.7 L47.65 1.5 47.7 1.6 46.6 0.65 M18.9 -12.55 L17.65 -11.2 16.2 -9.4 15.3 -9.15 Q16.85 -11.05 18.9 -12.55 M14.5 5.25 Q16.2 7.35 14.15 12.0 12.05 16.6 11.15 22.25 L9.2 19.85 8.35 19.0 Q7.2 16.8 3.9 13.5 0.55 10.2 2.75 7.85 4.65 5.9 6.0 8.75 6.75 10.35 8.6 12.8 10.25 12.75 9.1 11.95 L9.05 11.9 9.15 10.95 9.1 10.95 9.4 8.15 9.4 7.9 9.65 9.1 Q9.8 9.65 9.55 10.9 L9.75 10.95 10.0 8.55 Q10.15 6.5 11.15 5.55 12.15 4.6 14.5 5.25 M4.15 7.5 Q1.9 8.35 4.2 9.5 L4.8 9.5 Q6.25 8.35 4.15 7.5 M11.75 5.6 Q11.55 5.6 11.55 5.75 11.2 7.9 13.25 9.5 L13.65 9.45 Q14.95 6.55 11.75 5.6" fill="#47146d" fill-rule="evenodd" stroke="none"/>
    <path d="M8.9 -9.05 L9.45 -10.1 14.05 -16.4 14.2 -16.55 14.4 -16.7 14.6 -16.9 14.8 -17.1 14.95 -17.25 15.55 -17.7 15.75 -17.9 Q19.85 -21.05 25.45 -22.2 40.65 -22.9 48.9 -6.2 51.05 -1.85 54.95 0.25 57.65 1.65 60.65 0.3 70.55 -4.3 72.35 -16.55 72.9 -20.25 74.65 -17.0 76.1 -14.25 75.5 -10.8 74.35 -4.75 70.5 -0.6 L68.9 0.9 Q64.25 4.85 60.3 6.3 L57.0 7.05 Q53.75 7.35 51.15 5.7 48.75 4.2 46.85 1.1 L46.6 0.65 46.4 0.3 Q39.0 -12.95 31.45 -15.7 L31.4 -15.7 24.1 -15.9 23.9 -15.85 23.2 -15.55 22.9 -15.45 22.75 -15.35 19.9 -13.45 18.95 -12.6 18.9 -12.55 17.65 -11.2 16.2 -9.4 Q11.25 -2.9 9.5 5.3 10.55 3.75 12.65 4.05 L13.35 4.35 14.5 5.25 Q16.2 7.35 14.15 12.0 12.05 16.6 11.15 22.25 L9.2 19.85 8.35 19.0 5.65 16.7 4.15 15.55 Q0.45 12.8 0.05 9.15 -0.35 5.45 2.0 5.2 4.35 4.95 6.8 6.3 5.4 1.1 7.2 -4.65 L8.9 -9.05 M7.55 9.05 L9.0 12.1 9.0 12.05 9.1 10.95 9.4 8.15 9.4 7.9 9.4 7.85 9.5 5.3 M6.8 6.3 L7.55 9.05" fill="none" stroke="#000000" stroke-linecap="round" stroke-linejoin="round" stroke-width="1.0"/>
  </g>
</svg>
