<?xml version="1.0" encoding="UTF-8" standalone="no"?>
<svg xmlns:xlink="http://www.w3.org/1999/xlink" height="35.55px" width="13.65px" xmlns="http://www.w3.org/2000/svg">
  <g transform="matrix(1.0, 0.0, 0.0, 1.0, 0.9, 0.5)">
    <path d="M3.1 0.0 Q8.9 1.15 10.3 11.55 L10.35 11.95 6.8 14.1 Q5.3 6.85 3.1 0.0" fill="#ffead5" fill-rule="evenodd" stroke="none"/>
    <path d="M1.1 15.1 L-0.2 7.6 Q-1.3 0.2 3.1 0.0 5.3 6.85 6.8 14.1 3.7 15.5 1.1 15.1" fill="#efc3c0" fill-rule="evenodd" stroke="none"/>
    <path d="M10.35 11.95 L12.2 27.75 Q12.7 32.85 9.7 34.15 9.55 31.6 9.0 30.4 8.35 22.0 6.8 14.1 L10.35 11.95" fill="#47146d" fill-rule="evenodd" stroke="none"/>
    <path d="M9.7 34.15 L8.85 34.4 Q4.9 35.25 4.3 30.85 L2.25 20.7 1.1 15.1 Q3.7 15.5 6.8 14.1 8.35 22.0 9.0 30.4 9.55 31.6 9.7 34.15" fill="#200931" fill-rule="evenodd" stroke="none"/>
    <path d="M3.1 0.0 Q8.9 1.15 10.3 11.55 L10.35 11.95 12.2 27.75 Q12.7 32.85 9.7 34.15 L8.85 34.4 Q4.9 35.25 4.3 30.85 L2.25 20.7 1.1 15.1 -0.2 7.6 Q-1.3 0.2 3.1 0.0 M6.8 14.1 L10.35 11.95 M6.8 14.1 Q3.7 15.5 1.1 15.1" fill="none" stroke="#000000" stroke-linecap="round" stroke-linejoin="round" stroke-width="1.0"/>
  </g>
</svg>
