<?xml version="1.0" encoding="UTF-8" standalone="no"?>
<svg xmlns:xlink="http://www.w3.org/1999/xlink" height="44.2px" width="18.9px" xmlns="http://www.w3.org/2000/svg">
  <g transform="matrix(1.0, 0.0, 0.0, 1.0, 0.55, 0.0)">
    <path d="M0.05 11.65 Q3.05 11.2 5.6 9.75 L6.0 17.0 0.45 18.2 Q0.15 15.05 0.0 11.6 L0.05 11.65 Q0.05 12.3 0.0 11.6 0.05 12.3 0.05 11.65" fill="#efc3c0" fill-rule="evenodd" stroke="none"/>
    <path d="M5.6 9.75 Q11.45 1.9 16.15 3.15 L16.9 17.15 Q12.25 15.95 6.0 17.0 L5.6 9.75" fill="#ffead5" fill-rule="evenodd" stroke="none"/>
    <path d="M16.05 2.05 L16.15 3.15 Q11.45 1.9 5.6 9.75 3.05 11.2 0.05 11.65 L0.05 11.55 Q0.65 7.0 5.3 2.9 13.7 -2.4 16.05 2.05" fill="#47146d" fill-rule="evenodd" stroke="none"/>
    <path d="M16.9 17.15 L16.95 26.7 16.6 39.05 16.15 42.05 Q14.95 43.65 12.9 43.7 L10.3 43.5 Q7.3 37.3 6.7 28.35 L6.0 17.0 Q12.25 15.95 16.9 17.15" fill="#f2b1ff" fill-rule="evenodd" stroke="none"/>
    <path d="M10.3 43.5 Q6.15 42.95 3.9 40.45 2.3 33.75 1.35 26.7 L0.45 18.2 6.0 17.0 6.7 28.35 Q7.3 37.3 10.3 43.5" fill="#ba84d4" fill-rule="evenodd" stroke="none"/>
    <path d="M16.15 3.15 L16.05 2.05 M0.05 11.55 L0.05 11.65 Q3.05 11.2 5.6 9.75 11.45 1.9 16.15 3.15 L16.9 17.15 16.95 26.7 16.6 39.05 16.15 42.05 Q14.95 43.65 12.9 43.7 L10.3 43.5 Q6.15 42.95 3.9 40.45 2.3 33.75 1.35 26.7 L0.45 18.2 Q0.15 15.05 0.0 11.6 L0.05 11.65 Q0.05 12.3 0.0 11.6 M0.45 18.2 L6.0 17.0 Q12.25 15.95 16.9 17.15" fill="none" stroke="#000000" stroke-linecap="round" stroke-linejoin="round" stroke-width="1.0"/>
    <path d="M15.75 14.35 L15.8 16.3 Q15.7 17.15 15.35 17.2 15.0 17.25 14.6 16.45 L14.1 14.6 Q13.95 13.5 14.1 12.7 14.25 11.9 14.6 11.85 14.95 11.8 15.25 12.5 15.6 13.25 15.75 14.35" fill="#ffffff" fill-rule="evenodd" stroke="none"/>
    <path d="M6.4 16.85 L7.0 19.45 Q13.35 18.25 17.7 20.2 L17.55 22.45 Q8.7 20.85 0.25 22.85 L-0.05 17.7 6.4 16.85" fill="#91216b" fill-rule="evenodd" stroke="none"/>
    <path d="M17.7 20.2 Q13.35 18.25 7.0 19.45 L6.4 16.85 Q12.15 16.4 17.85 17.0 L17.7 20.2" fill="#d048a9" fill-rule="evenodd" stroke="none"/>
    <path d="M17.7 20.2 L17.85 17.0 Q12.15 16.4 6.4 16.85 L-0.05 17.7 0.25 22.85 Q8.7 20.85 17.55 22.45 L17.7 20.2 Z" fill="none" stroke="#000000" stroke-linecap="round" stroke-linejoin="round" stroke-width="1.0"/>
  </g>
</svg>
