<?xml version="1.0" encoding="UTF-8" standalone="no"?>
<svg xmlns:xlink="http://www.w3.org/1999/xlink" height="48.25px" width="21.15px" xmlns="http://www.w3.org/2000/svg">
  <g transform="matrix(1.0, 0.0, 0.0, 1.0, 0.5, 0.8)">
    <path d="M13.35 24.45 L13.75 24.1 Q14.2 30.9 13.05 37.25 L13.8 39.45 Q17.2 42.2 18.65 42.4 L18.95 42.45 Q18.0 45.65 12.2 45.05 L10.0 42.1 6.95 41.35 6.9 40.35 7.2 37.5 7.25 36.6 7.3 37.3 7.3 36.5 Q7.3 31.7 6.9 27.4 L6.7 26.3 Q11.35 25.95 13.35 24.45 M13.0 36.6 L13.05 37.25 13.0 36.5 13.0 36.6 M9.9 39.9 L13.8 39.45 9.9 39.9" fill="#47146d" fill-rule="evenodd" stroke="none"/>
    <path d="M4.5 40.75 L5.7 35.35 Q5.25 29.15 3.05 26.35 L4.55 26.35 6.7 26.3 6.9 27.4 Q7.3 31.7 7.3 36.5 L7.3 37.3 7.25 36.6 7.2 37.5 6.9 40.35 6.95 41.35 4.5 40.75" fill="#2f0d48" fill-rule="evenodd" stroke="none"/>
    <path d="M4.55 26.35 Q3.75 22.5 2.4 18.7 -0.05 8.25 0.0 0.65 L1.65 0.2 Q3.1 -0.4 4.6 -0.65 4.5 12.7 6.7 26.3 L4.55 26.35" fill="#ba84d4" fill-rule="evenodd" stroke="none"/>
    <path d="M4.6 -0.65 Q8.5 -1.3 12.15 0.6 13.8 4.2 13.35 7.6 13.65 18.45 13.35 24.45 11.35 25.95 6.7 26.3 4.5 12.7 4.6 -0.65" fill="#f2b1ff" fill-rule="evenodd" stroke="none"/>
    <path d="M18.95 42.45 Q20.1 42.75 20.15 44.35 20.2 46.15 17.25 46.7 14.3 47.25 10.2 46.6 9.15 44.2 8.75 43.95 7.1 44.35 6.95 41.35 L10.0 42.1 12.2 45.05 Q18.0 45.65 18.95 42.45" fill="#d048a9" fill-rule="evenodd" stroke="none"/>
    <path d="M8.75 43.95 Q8.2 44.35 7.6 46.0 6.3 46.4 4.2 45.15 3.95 44.2 4.3 41.45 L4.5 40.75 6.95 41.35 Q7.1 44.35 8.75 43.95" fill="#91216b" fill-rule="evenodd" stroke="none"/>
    <path d="M13.35 24.45 L13.75 24.1 Q14.2 30.9 13.05 37.25 L13.8 39.45 Q17.2 42.2 18.65 42.4 L18.95 42.45 Q20.1 42.75 20.15 44.35 20.2 46.15 17.25 46.7 14.3 47.25 10.2 46.6 9.15 44.2 8.75 43.95 8.2 44.35 7.6 46.0 6.3 46.4 4.2 45.15 3.95 44.2 4.3 41.45 L4.5 40.75 5.7 35.35 Q5.25 29.15 3.05 26.35 L4.55 26.35 Q3.75 22.5 2.4 18.7 -0.05 8.25 0.0 0.65 M12.15 0.6 Q13.8 4.2 13.35 7.6 13.65 18.45 13.35 24.45 11.35 25.95 6.7 26.3 L4.55 26.35 M6.95 41.35 L10.0 42.1 12.2 45.05 Q18.0 45.65 18.95 42.45 M13.0 36.6 L13.05 37.25 13.0 36.5 13.0 36.6 M4.5 40.75 L6.95 41.35 M13.8 39.45 L9.9 39.9" fill="none" stroke="#000000" stroke-linecap="round" stroke-linejoin="round" stroke-width="1.0"/>
    <path d="M6.65 28.7 Q12.5 28.1 14.25 26.7 L14.25 29.45 Q11.05 31.35 6.75 31.05 L6.65 28.7" fill="#d048a9" fill-rule="evenodd" stroke="none"/>
    <path d="M14.25 29.45 L14.25 30.55 Q11.0 32.75 5.0 32.2 L3.5 28.9 6.65 28.7 6.75 31.05 Q11.05 31.35 14.25 29.45" fill="#91216b" fill-rule="evenodd" stroke="none"/>
    <path d="M14.25 29.45 L14.25 30.55 Q11.0 32.75 5.0 32.2 L3.5 28.9 6.65 28.7 Q12.5 28.1 14.25 26.7 L14.25 29.45 Z" fill="none" stroke="#000000" stroke-linecap="round" stroke-linejoin="round" stroke-width="1.0"/>
  </g>
</svg>
