<?xml version="1.0" encoding="UTF-8" standalone="no"?>
<svg xmlns:xlink="http://www.w3.org/1999/xlink" height="82.8px" width="39.95px" xmlns="http://www.w3.org/2000/svg">
  <g transform="matrix(1.0, 0.0, 0.0, 1.0, -0.15, 1.85)">
    <path d="M20.45 12.45 L19.2 7.5 18.85 9.0 Q18.2 5.4 18.4 1.3 17.6 -1.25 14.05 -1.3 9.85 -1.7 8.6 0.05 L8.8 7.8 7.9 7.1 8.1 11.5 8.1 11.8 7.95 11.85 7.8 11.85 Q6.7 12.05 5.8 12.5 4.65 13.0 3.7 13.85 1.85 15.55 0.75 17.7 0.05 23.95 4.65 27.9 L4.7 28.05 4.4 28.4 7.05 33.7 Q9.6 39.3 9.75 46.45 8.75 51.3 6.4 55.75 0.1 65.35 3.35 70.7 4.95 76.2 11.35 78.6 16.6 80.55 25.05 80.45 31.4 79.7 36.75 71.95 L37.2 71.25 37.1 70.8 Q37.9 64.65 35.05 57.95 L33.55 53.8 33.45 53.55 Q31.45 42.55 31.6 41.25 L31.7 41.0 32.75 39.5 Q37.5 38.05 39.25 32.75 L39.45 32.05 Q39.9 29.75 38.75 27.3 L38.8 27.25 Q37.75 25.05 35.7 23.35 34.4 21.6 30.75 19.8 28.55 19.3 26.9 17.75 L20.5 12.5 20.45 12.45 Z" fill="none" stroke="#000000" stroke-linecap="round" stroke-linejoin="round" stroke-width="1.0"/>
  </g>
</svg>
