<?xml version="1.0" encoding="UTF-8" standalone="no"?>
<svg xmlns:xlink="http://www.w3.org/1999/xlink" height="52.35px" width="22.65px" xmlns="http://www.w3.org/2000/svg">
  <g transform="matrix(1.0, 0.0, 0.0, 1.0, 1.2, 6.8)">
    <path d="M0.35 2.3 L0.3 2.25 0.25 1.8 0.35 2.3" fill="#2d69d0" fill-rule="evenodd" stroke="none"/>
    <path d="M20.6 14.9 L19.75 19.3 Q10.8 16.1 4.7 16.05 6.15 8.6 8.25 0.4 10.5 1.35 14.85 5.5 19.2 9.6 20.6 14.9" fill="#ffead5" fill-rule="evenodd" stroke="none"/>
    <path d="M19.75 19.3 Q17.1 32.3 12.5 42.9 9.55 45.9 5.2 44.7 2.7 44.0 1.35 42.6 1.8 30.75 4.7 16.05 10.8 16.1 19.75 19.3" fill="#f2b1ff" fill-rule="evenodd" stroke="none"/>
    <path d="M1.35 42.6 Q0.3 41.5 -0.1 40.0 L0.15 16.6 4.7 16.05 Q1.8 30.75 1.35 42.6" fill="#ba84d4" fill-rule="evenodd" stroke="none"/>
    <path d="M1.95 -6.3 Q5.7 -1.45 14.3 2.55 19.5 7.0 20.9 13.1 L20.6 14.9 Q19.2 9.6 14.85 5.5 10.5 1.35 8.25 0.4 1.9 -2.4 0.55 1.6 L0.35 2.3 0.25 1.8 Q-0.2 -1.35 1.95 -6.3" fill="#200931" fill-rule="evenodd" stroke="none"/>
    <path d="M0.15 16.6 L0.15 9.8 Q-0.4 5.15 0.35 2.3 L0.55 1.6 Q1.9 -2.4 8.25 0.4 6.15 8.6 4.7 16.05 L0.15 16.6" fill="#d2a7a5" fill-rule="evenodd" stroke="none"/>
    <path d="M20.6 14.9 L19.75 19.3 Q17.1 32.3 12.5 42.9 9.55 45.9 5.2 44.7 2.7 44.0 1.35 42.6 0.3 41.5 -0.1 40.0 L0.15 16.6 0.15 9.8 Q-0.4 5.15 0.35 2.3 L0.3 2.25 0.25 1.8 Q-0.2 -1.35 1.95 -6.3 M8.25 0.4 Q1.9 -2.4 0.55 1.6 L0.35 2.3 0.25 1.8 M4.7 16.05 L0.15 16.6 M20.6 14.9 Q19.2 9.6 14.85 5.5 10.5 1.35 8.25 0.4 M4.7 16.05 Q10.8 16.1 19.75 19.3" fill="none" stroke="#000000" stroke-linecap="round" stroke-linejoin="round" stroke-width="1.0"/>
    <path d="M19.0 15.7 Q18.8 16.8 18.2 17.35 17.65 17.9 17.05 17.6 16.45 17.25 16.15 16.25 15.9 15.3 16.15 14.15 16.45 13.0 17.0 12.45 17.6 11.85 18.2 12.2 18.8 12.5 19.0 13.5 19.3 14.55 19.0 15.7" fill="#ffffff" fill-rule="evenodd" stroke="none"/>
    <path d="M5.45 15.15 Q13.0 15.25 20.95 18.5 L19.95 22.1 20.1 21.5 Q12.3 19.0 4.6 17.85 L5.3 15.7 5.45 15.15 M7.1 19.75 L7.5 19.9 6.95 19.85 6.25 19.65 6.65 19.7 7.1 19.75" fill="#d048a9" fill-rule="evenodd" stroke="none"/>
    <path d="M19.95 22.1 L19.75 22.8 Q8.6 19.7 0.65 19.6 L-0.65 19.6 -0.7 15.6 4.4 15.15 5.45 15.15 5.3 15.7 4.6 17.85 Q12.3 19.0 20.1 21.5 L19.95 22.1 M7.1 19.75 L6.65 19.7 6.25 19.65 6.95 19.85 7.5 19.9 7.1 19.75" fill="#91216b" fill-rule="evenodd" stroke="none"/>
    <path d="M19.95 22.1 L19.75 22.8 Q8.6 19.7 0.65 19.6 L-0.65 19.6 -0.7 15.6 4.4 15.15 5.45 15.15 Q13.0 15.25 20.95 18.5 L19.95 22.1 Z" fill="none" stroke="#000000" stroke-linecap="round" stroke-linejoin="round" stroke-width="1.0"/>
    <path d="M8.4 15.5 L7.95 21.2 4.95 21.05 5.5 18.4 5.85 18.4 5.9 16.05 5.85 16.05 5.95 15.3 7.35 15.35 8.4 15.5 M3.45 21.0 L1.25 20.85 1.5 14.8 4.6 15.15 4.4 15.95 3.6 15.9 3.45 18.4 3.8 18.4 Q3.55 19.7 3.45 21.0" fill="#d0a2c2" fill-rule="evenodd" stroke="none"/>
    <path d="M1.5 14.2 L1.5 13.8 8.45 14.35 8.4 15.5 7.35 15.35 5.95 15.3 5.85 16.05 4.4 15.95 4.6 15.15 1.5 14.8 1.5 14.2 M4.95 21.05 L3.45 21.0 Q3.55 19.7 3.8 18.4 L5.5 18.4 4.95 21.05" fill="#ffdefc" fill-rule="evenodd" stroke="none"/>
    <path d="M1.5 14.2 L1.5 13.8 8.45 14.35 8.4 15.5 7.95 21.2 4.95 21.05 3.45 21.0 1.25 20.85 1.5 14.8" fill="none" stroke="#000000" stroke-linecap="round" stroke-linejoin="round" stroke-width="1.0"/>
    <path d="M5.85 16.05 L5.9 16.05 5.85 18.4 5.5 18.4 3.8 18.4 3.45 18.4 3.6 15.9 4.4 15.95 5.85 16.05" fill="none" stroke="#000000" stroke-linecap="round" stroke-linejoin="round" stroke-width="0.05"/>
  </g>
</svg>
