<?xml version="1.0" encoding="UTF-8" standalone="no"?>
<svg xmlns:xlink="http://www.w3.org/1999/xlink" height="49.3px" width="20.3px" xmlns="http://www.w3.org/2000/svg">
  <g transform="matrix(1.0, 0.0, 0.0, 1.0, 0.5, -3.5)">
    <path d="M11.35 40.1 L11.3 39.75 11.3 39.85 11.35 40.1" fill="#ffead5" fill-rule="evenodd" stroke="none"/>
    <path d="M5.0 26.55 Q10.05 28.7 13.75 26.95 L14.15 26.7 Q12.15 33.5 11.5 40.85 L11.85 42.1 8.65 42.1 Q5.85 42.1 2.65 43.55 5.85 42.1 8.65 42.1 L11.85 42.1 Q13.6 45.45 13.9 48.25 8.7 50.45 1.9 48.55 L1.95 46.05 2.65 43.55 3.55 39.85 3.6 39.75 3.65 39.65 Q5.3 32.25 5.0 26.55 M11.35 40.1 L11.35 40.15 11.5 40.85 11.35 40.15 11.35 40.1 11.3 39.85 11.3 39.75 11.35 40.1" fill="#47146d" fill-rule="evenodd" stroke="none"/>
    <path d="M3.2 25.7 L5.0 26.55 Q5.3 32.25 3.65 39.65 L3.6 39.75 3.55 39.85 2.65 43.55 1.95 46.05 1.9 48.55 0.05 46.3 Q0.2 44.3 0.95 41.9 L1.85 39.85 1.95 39.65 2.0 39.65 2.3 38.85 Q3.05 32.0 2.55 25.35 L3.2 25.7" fill="#2f0d48" fill-rule="evenodd" stroke="none"/>
    <path d="M7.55 3.95 Q10.35 3.0 14.5 4.05 19.85 5.35 19.3 5.8 18.55 14.1 14.2 25.65 L13.75 26.95 Q10.05 28.7 5.0 26.55 L4.85 24.95 Q4.7 13.95 7.55 3.95" fill="#f2b1ff" fill-rule="evenodd" stroke="none"/>
    <path d="M7.55 3.95 Q4.7 13.95 4.85 24.95 L5.0 26.55 3.2 25.7 Q3.0 20.1 3.3 15.35 3.75 9.2 6.0 4.7 6.7 4.25 7.55 3.95" fill="#ba84d4" fill-rule="evenodd" stroke="none"/>
    <path d="M1.9 48.55 Q8.7 50.45 13.9 48.25 L13.95 50.1 Q12.55 52.55 8.5 52.3 4.0 52.35 1.85 51.05 L1.9 48.55" fill="#d048a9" fill-rule="evenodd" stroke="none"/>
    <path d="M0.05 46.3 L1.9 48.55 1.85 51.05 Q0.55 50.25 0.1 48.95 -0.1 47.7 0.05 46.3" fill="#91216b" fill-rule="evenodd" stroke="none"/>
    <path d="M5.0 26.55 Q10.05 28.7 13.75 26.95 L14.2 25.65 Q18.55 14.1 19.3 5.8 M6.0 4.7 Q3.75 9.2 3.3 15.35 3.0 20.1 3.2 25.7 L5.0 26.55 M2.65 43.55 Q5.85 42.1 8.65 42.1 L11.85 42.1 11.5 40.85 11.35 40.15 11.35 40.1 11.3 39.75 11.3 39.85 11.35 40.1 M13.75 26.95 L14.15 26.7 Q12.15 33.5 11.5 40.85 M2.0 39.65 L2.3 38.85 Q3.05 32.0 2.55 25.35 L3.2 25.7 M1.95 39.65 L1.85 39.85 0.95 41.9 Q0.2 44.3 0.05 46.3 L1.9 48.55 Q8.7 50.45 13.9 48.25 L13.95 50.1 Q12.55 52.55 8.5 52.3 4.0 52.35 1.85 51.05 0.55 50.25 0.1 48.95 -0.1 47.7 0.05 46.3 M13.9 48.25 Q13.6 45.45 11.85 42.1" fill="none" stroke="#000000" stroke-linecap="round" stroke-linejoin="round" stroke-width="1.0"/>
    <path d="M5.0 28.9 Q10.25 30.25 13.8 29.1 L13.45 31.8 Q8.6 32.95 4.9 31.8 L5.0 28.9" fill="#d048a9" fill-rule="evenodd" stroke="none"/>
    <path d="M13.45 31.8 L13.25 33.05 Q7.7 34.75 2.15 32.1 L2.0 27.95 5.0 28.9 4.9 31.8 Q8.6 32.95 13.45 31.8" fill="#91216b" fill-rule="evenodd" stroke="none"/>
    <path d="M13.45 31.8 L13.25 33.05 Q7.7 34.75 2.15 32.1 L2.0 27.95 5.0 28.9 Q10.25 30.25 13.8 29.1 L13.45 31.8 Z" fill="none" stroke="#000000" stroke-linecap="round" stroke-linejoin="round" stroke-width="1.0"/>
    <path d="M9.65 28.95 L11.2 29.05 10.85 34.4 8.45 34.3 10.0 29.95 Q10.3 29.05 9.65 28.95 M6.45 34.2 L5.1 34.1 5.6 28.55 8.1 28.8 7.8 29.4 7.4 30.5 Q6.8 32.3 6.45 34.2" fill="#d0a2c2" fill-rule="evenodd" stroke="none"/>
    <path d="M8.45 34.3 L6.45 34.2 Q6.8 32.3 7.4 30.5 L7.8 29.4 8.1 28.8 9.5 28.9 9.6 28.9 9.65 28.95 9.5 28.9 9.65 28.95 Q10.3 29.05 10.0 29.95 L8.45 34.3 M7.4 30.5 L7.25 32.3 9.05 32.4 9.15 30.55 7.4 30.5" fill="#ffdef3" fill-rule="evenodd" stroke="none"/>
    <path d="M9.65 28.95 L11.2 29.05 10.85 34.4 8.45 34.3 6.45 34.2 5.1 34.1 5.6 28.55 8.1 28.8 9.5 28.9 9.65 28.95" fill="none" stroke="#000000" stroke-linecap="round" stroke-linejoin="round" stroke-width="1.0"/>
    <path d="M7.4 30.5 L9.15 30.55 9.05 32.4 7.25 32.3 7.4 30.5" fill="none" stroke="#000000" stroke-linecap="round" stroke-linejoin="round" stroke-width="0.05"/>
  </g>
</svg>
