<?xml version="1.0" encoding="UTF-8" standalone="no"?>
<svg xmlns:xlink="http://www.w3.org/1999/xlink" height="72.75px" width="67.5px" xmlns="http://www.w3.org/2000/svg">
  <g transform="matrix(1.0, 0.0, 0.0, 1.0, 32.15, 68.6)">
    <path d="M15.8 -3.65 Q13.75 -3.9 12.2 -3.05 10.65 -2.25 10.15 -2.85 10.65 -2.25 12.2 -3.05 13.75 -3.9 15.8 -3.65 M-11.35 -5.25 L-13.2 -16.25 -9.95 -23.0 8.35 -22.1 22.35 -39.35 Q25.65 -29.95 24.85 -20.6 L31.95 -22.55 Q31.45 -16.25 30.15 -9.75 29.15 -4.4 24.5 -1.55 18.5 2.15 11.3 3.65 1.55 1.5 -11.35 -5.25" fill="#ffead5" fill-rule="evenodd" stroke="none"/>
    <path d="M31.95 -22.55 L24.85 -20.6 Q25.65 -29.95 22.35 -39.35 L8.35 -22.1 -9.95 -23.0 -13.2 -16.25 -11.35 -5.25 -19.75 -9.95 Q-30.55 -20.55 -31.6 -35.3 -32.55 -49.3 -21.0 -61.1 -9.45 -72.95 16.5 -64.8 32.45 -56.6 32.05 -37.25 32.55 -30.05 31.95 -22.55" fill="#d2a7a5" fill-rule="evenodd" stroke="none"/>
    <path d="M10.15 -2.85 Q10.65 -2.25 12.2 -3.05 13.75 -3.9 15.8 -3.65 M31.95 -22.55 Q32.55 -30.05 32.05 -37.25 32.45 -56.6 16.5 -64.8 -9.45 -72.95 -21.0 -61.1 -32.55 -49.3 -31.6 -35.3 -30.55 -20.55 -19.75 -9.95 L-11.35 -5.25 Q1.55 1.5 11.3 3.65 18.5 2.15 24.5 -1.55 29.15 -4.4 30.15 -9.75 31.45 -16.25 31.95 -22.55" fill="none" stroke="#000000" stroke-linecap="round" stroke-linejoin="round" stroke-width="1.0"/>
    <path d="M31.95 -22.55 L35.35 -23.5" fill="none" stroke="#000000" stroke-linecap="round" stroke-linejoin="round" stroke-width="0.05"/>
    <path d="M1.35 -7.7 L-4.85 -7.3 Q-8.55 -7.7 -11.15 -9.1 -13.65 -10.45 -13.65 -12.0 -13.65 -13.55 -11.15 -14.35 L-4.85 -14.7 Q-1.2 -14.3 1.35 -12.95 3.95 -11.55 3.95 -10.0 3.95 -8.45 1.35 -7.7" fill="url(#gradient0)" fill-rule="evenodd" stroke="none"/>
    <path d="M20.45 -7.75 Q18.45 -8.4 18.45 -9.65 18.45 -10.95 20.45 -12.1 22.45 -13.2 25.25 -13.5 L30.1 -13.2 Q32.05 -12.5 32.05 -11.2 32.05 -9.95 30.1 -8.85 28.1 -7.7 25.25 -7.4 L20.45 -7.75" fill="url(#gradient1)" fill-rule="evenodd" stroke="none"/>
    <path d="M-10.25 -12.9 L-9.8 -13.55 -8.65 -13.95 -7.45 -13.9 Q-6.95 -13.75 -6.9 -13.45 -6.85 -13.15 -7.3 -12.85 L-8.4 -12.45 -9.65 -12.5 -10.25 -12.9 M25.7 -12.3 Q25.8 -12.65 26.25 -12.75 L27.25 -12.65 28.15 -12.25 28.4 -11.55 27.9 -11.2 Q27.4 -11.05 26.85 -11.2 26.25 -11.35 26.0 -11.7 25.65 -12.0 25.7 -12.3 M10.6 -1.05 Q10.55 -1.3 11.05 -1.8 L12.2 -2.45 13.4 -2.7 13.95 -2.35 13.55 -1.65 12.45 -1.0 11.2 -0.75 Q10.65 -0.75 10.6 -1.05" fill="#ffffff" fill-rule="evenodd" stroke="none"/>
  </g>
  <defs>
    <radialGradient cx="0" cy="0" gradientTransform="matrix(0.0108, 0.0012, 0.0, 0.0046, -4.85, -11.0)" gradientUnits="userSpaceOnUse" id="gradient0" r="819.2" spreadMethod="pad">
      <stop offset="0.22745098039215686" stop-color="#ff8e8e" stop-opacity="0.38039216"/>
      <stop offset="0.9725490196078431" stop-color="#ffb4b4" stop-opacity="0.0"/>
    </radialGradient>
    <radialGradient cx="0" cy="0" gradientTransform="matrix(-0.0084, 9.0E-4, 0.0, 0.0038, 25.25, -10.45)" gradientUnits="userSpaceOnUse" id="gradient1" r="819.2" spreadMethod="pad">
      <stop offset="0.22745098039215686" stop-color="#ff8e8e" stop-opacity="0.38039216"/>
      <stop offset="0.9725490196078431" stop-color="#ffb4b4" stop-opacity="0.0"/>
    </radialGradient>
  </defs>
</svg>
