<?xml version="1.0" encoding="UTF-8" standalone="no"?>
<svg xmlns:xlink="http://www.w3.org/1999/xlink" height="13.75px" width="24.2px" xmlns="http://www.w3.org/2000/svg">
  <g transform="matrix(1.0, 0.0, 0.0, 1.0, 1.3, 1.8)">
    <path d="M8.45 1.55 L8.85 1.55 9.55 1.6 Q8.5 1.9 7.85 3.2 7.3 4.25 7.05 6.0 6.65 9.85 12.15 10.85 L9.8 10.8 Q5.65 9.8 6.05 5.5 6.3 4.1 6.75 3.2 7.4 1.8 8.45 1.55 M16.35 3.2 L17.15 3.5 Q17.75 3.9 17.85 5.05 L17.75 7.25 Q17.3 10.3 15.0 10.9 L13.55 10.9 Q16.25 9.85 16.75 7.2 L16.8 4.75 16.35 3.2" fill="#000000" fill-rule="evenodd" stroke="none"/>
    <path d="M19.5 4.65 Q19.4 6.95 18.85 8.45 L18.85 5.35 17.85 5.05 Q17.75 3.9 17.15 3.5 L18.25 4.0 19.5 4.65 M1.05 4.85 Q1.9 3.7 4.25 1.9 L8.45 1.55 Q7.4 1.8 6.75 3.2 3.05 3.25 1.05 4.85" fill="#bfbfbf" fill-rule="evenodd" stroke="none"/>
    <path d="M18.85 8.45 Q18.1 10.35 16.5 10.95 L15.0 10.9 Q17.3 10.3 17.75 7.25 L17.85 5.05 18.85 5.35 18.85 8.45 M7.25 10.7 L5.2 9.8 Q2.05 8.15 1.05 4.85 3.05 3.25 6.75 3.2 6.3 4.1 6.05 5.5 5.65 9.8 9.8 10.8 L7.25 10.7" fill="#ffffff" fill-rule="evenodd" stroke="none"/>
    <path d="M16.8 4.75 L16.75 7.2 Q16.25 9.85 13.55 10.9 L12.15 10.85 Q6.65 9.85 7.05 6.0 7.3 4.25 7.85 3.2 11.55 3.3 16.8 4.75 M8.1 5.85 Q7.4 9.5 13.0 10.55 16.05 9.75 16.6 6.3 14.95 9.35 12.9 9.25 9.2 9.1 8.1 5.85" fill="#fc5ecf" fill-rule="evenodd" stroke="none"/>
    <path d="M9.55 1.6 Q12.95 1.85 16.35 3.2 L16.8 4.75 Q11.55 3.3 7.85 3.2 8.5 1.9 9.55 1.6" fill="#c6329c" fill-rule="evenodd" stroke="none"/>
    <path d="M8.1 5.85 Q9.2 9.1 12.9 9.25 14.95 9.35 16.6 6.3 16.05 9.75 13.0 10.55 7.4 9.5 8.1 5.85" fill="#f9bffc" fill-rule="evenodd" stroke="none"/>
    <path d="M5.2 9.8 Q1.35 7.95 -1.3 5.1 -0.8 2.95 1.4 1.0 L0.15 0.15 2.5 0.25 Q1.9 -1.1 1.95 -1.8 3.15 -0.95 5.95 -0.55 13.9 -0.3 20.0 3.0 L22.9 3.0 20.9 3.75 Q22.15 5.3 21.95 6.65 21.2 5.65 19.5 4.65 L18.25 4.0 17.15 3.5 16.35 3.2 Q12.95 1.85 9.55 1.6 L8.85 1.55 8.45 1.55 4.25 1.9 Q1.9 3.7 1.05 4.85 2.05 8.15 5.2 9.8 M16.5 10.95 L17.35 11.5 7.6 11.05 5.6 11.95 7.25 10.7 9.8 10.8 12.15 10.85 13.55 10.9 15.0 10.9 16.5 10.95" fill="#2e203f" fill-rule="evenodd" stroke="none"/>
    <path d="M15.0 4.45 L16.2 4.45 16.35 4.55 16.3 4.6 16.25 4.65 14.9 4.6 14.9 4.5 15.0 4.45 M15.1 5.05 L16.3 5.05 16.45 5.15 16.4 5.2 16.35 5.25 15.0 5.2 15.0 5.1 15.1 5.05 M9.05 3.55 L10.2 3.6 Q10.7 3.65 10.9 3.95 L10.3 4.0 Q9.35 3.95 9.0 3.55 L9.05 3.55 M8.3 5.15 L8.55 5.15 10.3 5.2 10.45 5.3 10.35 5.4 8.6 5.4 8.55 5.4 8.2 5.25 8.2 5.2 8.3 5.15 M14.45 7.2 L14.9 7.5 15.05 7.85 14.5 7.6 Q14.2 7.3 14.45 7.2 M14.7 6.5 L15.45 6.8 Q15.8 6.9 15.9 7.15 L15.0 6.95 Q14.45 6.75 14.7 6.5 M13.15 8.15 L13.3 8.65 13.05 8.95 Q12.85 8.8 12.95 8.45 L13.15 8.15 M13.95 7.85 L14.25 8.15 14.25 8.5 Q13.95 8.5 13.85 8.2 13.7 7.95 13.95 7.85 M10.7 7.0 L10.95 7.0 11.1 7.1 10.5 7.4 9.8 7.45 Q9.9 7.2 10.2 7.15 L10.6 7.0 10.7 7.0 M11.6 7.5 Q11.9 7.7 11.3 8.1 10.95 8.3 10.7 8.1 L11.15 7.7 Q11.35 7.55 11.6 7.5 M12.35 8.05 Q12.55 8.3 12.2 8.6 L11.7 8.65 12.0 8.2 12.35 8.05 M15.15 5.75 L16.1 5.9 16.7 6.3 15.85 6.25 Q15.15 6.1 15.15 5.75 M9.8 6.15 L10.5 6.15 10.65 6.25 9.5 6.45 9.35 6.5 9.05 6.4 Q9.15 6.25 9.35 6.2 L9.45 6.2 9.8 6.15 M8.35 4.2 L9.65 4.25 Q10.15 4.35 10.5 4.55 L9.45 4.65 Q8.6 4.55 8.3 4.2 L8.35 4.2" fill="#c6329c" fill-rule="evenodd" stroke="none"/>
    <path d="M13.05 7.4 Q13.85 6.8 14.2 5.85 14.55 4.85 13.9 4.8 13.15 4.9 13.05 5.6 12.65 4.7 11.85 4.75 11.0 4.8 11.45 5.75 11.85 6.65 13.05 7.4 M13.05 7.9 Q11.55 7.1 10.9 5.6 10.65 4.35 11.65 4.2 12.55 4.25 13.0 5.1 13.3 4.35 14.05 4.35 14.95 4.8 14.65 5.8 13.95 7.4 13.05 7.9" fill="#c6329c" fill-rule="evenodd" stroke="none"/>
    <path d="M13.05 7.4 Q11.85 6.65 11.45 5.75 11.0 4.8 11.85 4.75 12.65 4.7 13.05 5.6 13.15 4.9 13.9 4.8 14.55 4.85 14.2 5.85 13.85 6.8 13.05 7.4" fill="#f8ddff" fill-rule="evenodd" stroke="none"/>
  </g>
</svg>
