<?xml version="1.0" encoding="UTF-8" standalone="no"?>
<svg xmlns:xlink="http://www.w3.org/1999/xlink" height="99.1px" width="158.65px" xmlns="http://www.w3.org/2000/svg">
  <g transform="matrix(1.0, 0.0, 0.0, 1.0, 79.35, 49.55)">
    <path d="M36.25 -38.5 Q39.75 -43.35 38.0 -49.05 L36.4 -47.6 Q31.3 -42.7 29.8 -36.3 23.85 -39.1 16.65 -41.2 6.6 -43.65 -4.5 -38.8 L-6.15 -38.05 Q-16.55 -45.55 -31.7 -47.0 -30.3 -44.0 -23.9 -40.35 -36.2 -41.65 -47.45 -36.65 L-47.9 -36.45 Q-44.05 -35.35 -39.45 -32.2 -32.5 -27.3 -27.5 -27.65 -29.75 -24.8 -31.55 -20.95 L-27.7 -21.4 Q-31.4 -17.4 -35.1 -12.6 -37.7 -13.45 -40.2 -14.6 -50.05 -19.2 -54.75 -26.55 L-54.75 -26.8 -54.7 -27.0 Q-54.45 -28.6 -52.1 -29.8 L-52.55 -30.05 Q-51.05 -31.4 -50.25 -34.35 L-50.2 -34.55 -50.3 -34.5 -50.95 -34.2 Q-53.75 -32.9 -54.9 -31.8 L-55.35 -31.8 -57.1 -29.7 -57.1 -29.65 -57.15 -29.65 Q-65.45 -26.3 -71.85 -17.7 -74.05 -14.7 -75.65 -11.15 -77.85 -6.25 -78.85 -0.2 L-76.5 -3.25 -76.4 -3.3 Q-75.35 -4.3 -73.2 -5.35 L-72.95 -5.45 -72.9 -5.5 -72.65 -5.6 -71.45 -6.1 -70.65 -6.45 -69.65 -6.85 Q-66.55 -8.0 -63.75 -6.3 L-62.55 -5.45 -62.2 -5.15 -60.5 -3.2 -58.25 0.15 -57.85 1.75 -55.9 4.1 -55.4 3.05 -55.35 2.85 -55.15 2.4 -55.15 2.35 -54.5 0.85 -52.15 -0.9 -50.95 -1.7 Q-46.15 -4.7 -40.35 -6.1 L-39.95 -6.2 -39.75 -6.2 -45.1 1.8 -37.35 -5.2 Q-44.3 2.45 -41.85 25.8 -41.7 18.8 -37.35 12.9 -39.2 26.1 -35.6 39.3 L-35.25 36.7 Q-34.25 30.45 -30.55 21.55 -31.1 30.5 -29.85 39.3 -29.7 31.65 -27.85 23.6 L-27.4 25.95 Q-25.35 34.35 -19.05 41.5 L-16.35 44.3 Q-19.45 38.7 -18.75 29.95 L-18.25 26.0 Q-17.5 28.7 -14.25 36.55 -9.2 40.15 3.0 42.45 L3.05 42.15 Q-1.75 35.25 -3.1 29.8 -0.1 38.45 11.65 47.05 L10.65 45.85 Q0.8 34.25 -4.2 22.65 -1.75 25.3 1.4 27.8 -2.2 23.65 -4.25 12.05 L-2.1 17.3 Q-1.35 6.3 3.3 -4.7 1.7 3.3 2.6 8.9 7.45 8.45 16.5 10.6 18.05 9.8 21.15 6.8 L20.55 11.05 20.45 11.5 Q26.4 8.4 29.05 0.3 L29.6 -1.45 Q31.9 -4.1 33.45 -7.2 38.75 4.25 37.15 14.3 L37.9 12.5 Q40.1 6.75 40.5 0.55 44.0 19.5 35.4 35.05 L36.8 33.6 Q41.25 28.45 44.05 22.3 L42.15 28.4 Q38.95 37.45 35.15 42.45 L34.65 43.05 Q41.45 44.5 44.65 44.05 47.85 43.6 49.45 41.9 L50.4 33.3 Q51.25 43.6 49.15 49.05 L50.25 47.9 Q54.75 42.75 56.15 35.15 56.7 31.85 56.75 28.15 57.35 35.8 55.4 42.8 L57.0 38.55 Q62.3 22.3 55.55 3.15 58.8 11.85 66.6 12.15 L68.9 12.05 Q66.3 12.15 64.1 10.7 L62.8 9.75 Q58.75 6.1 56.05 -3.1 L56.5 -2.85 Q58.75 -1.6 60.8 0.3 L63.25 3.05 64.15 6.3 65.4 3.95 65.65 2.35 Q66.15 0.9 67.1 -1.0 L67.75 -2.15 68.7 -3.6 68.9 -3.8 69.05 -3.95 69.15 -4.05 Q70.95 -5.8 72.95 -4.65 L73.45 -4.35 75.25 -3.1 75.6 -2.85 77.25 -1.1 77.3 -1.05 78.8 1.95 Q77.75 -8.35 74.35 -15.5 L72.35 -19.25 72.3 -19.3 72.25 -19.4 Q70.15 -22.95 67.75 -25.2 L64.95 -27.45 63.8 -29.6 63.3 -29.4 61.45 -31.45 60.0 -32.65 61.15 -28.5 60.6 -28.3 Q63.45 -26.2 63.4 -24.35 L63.25 -23.95 63.15 -23.75 63.1 -23.55 Q61.1 -19.1 57.9 -15.7 L57.55 -15.3 56.9 -14.75 56.95 -14.75 54.1 -12.4 53.9 -12.25 53.4 -15.2 Q51.0 -19.85 47.4 -23.8 52.45 -22.65 57.45 -22.6 53.6 -28.15 47.55 -30.95 55.4 -35.45 59.5 -40.9 53.75 -39.45 46.3 -40.6 40.3 -40.5 36.25 -38.5 Z" fill="none" stroke="#000000" stroke-linecap="round" stroke-linejoin="round" stroke-width="1.0"/>
  </g>
</svg>
