<?xml version="1.0" encoding="UTF-8" standalone="no"?>
<svg xmlns:xlink="http://www.w3.org/1999/xlink" height="35.65px" width="17.8px" xmlns="http://www.w3.org/2000/svg">
  <g transform="matrix(1.0, 0.0, 0.0, 1.0, 0.85, 0.5)">
    <path d="M11.9 4.7 L13.05 3.3 Q13.4 2.6 13.05 2.4 L11.95 2.5 Q11.1 2.8 10.3 3.5 L9.2 4.85 Q8.9 5.6 9.2 5.85 L10.35 5.7 11.9 4.7 M14.45 0.0 Q18.35 5.2 16.2 9.85 L13.5 16.1 Q9.5 12.85 6.1 12.7 7.55 7.55 8.7 4.4 11.1 1.4 14.45 0.0" fill="#ffead5" fill-rule="evenodd" stroke="none"/>
    <path d="M11.9 4.7 L10.35 5.7 9.2 5.85 Q8.9 5.6 9.2 4.85 L10.3 3.5 Q11.1 2.8 11.95 2.5 L13.05 2.4 Q13.4 2.6 13.05 3.3 L11.9 4.7" fill="#ffffff" fill-rule="evenodd" stroke="none"/>
    <path d="M6.1 12.7 Q9.5 12.85 13.5 16.1 L11.7 20.5 Q9.35 26.45 7.9 30.9 6.5 35.3 2.7 34.55 1.45 34.25 0.8 33.4 3.8 20.65 6.1 12.7" fill="#47146d" fill-rule="evenodd" stroke="none"/>
    <path d="M4.6 12.75 L6.1 12.7 Q3.8 20.65 0.8 33.4 -0.55 31.7 0.45 27.65 1.85 21.7 4.6 12.75" fill="#200931" fill-rule="evenodd" stroke="none"/>
    <path d="M8.7 4.4 Q7.55 7.55 6.1 12.7 L4.6 12.75 4.75 12.25 Q6.2 7.5 8.7 4.4" fill="#d2a7a5" fill-rule="evenodd" stroke="none"/>
    <path d="M14.45 0.0 Q11.1 1.4 8.7 4.4 6.2 7.5 4.75 12.25 L4.6 12.75 6.1 12.7 Q9.5 12.85 13.5 16.1 L16.2 9.85 M0.8 33.4 Q1.45 34.25 2.7 34.55 6.5 35.3 7.9 30.9 9.35 26.45 11.7 20.5 L13.5 16.1 M4.6 12.75 Q1.85 21.7 0.45 27.65 -0.55 31.7 0.8 33.4" fill="none" stroke="#000000" stroke-linecap="round" stroke-linejoin="round" stroke-width="1.0"/>
    <path d="M0.8 33.4 L0.6 34.2" fill="none" stroke="#000000" stroke-linecap="round" stroke-linejoin="round" stroke-width="0.05"/>
    <path d="M12.75 20.6 L11.4 20.05 9.95 19.4 Q8.1 18.3 6.05 17.6 6.2 17.0 6.6 16.45 7.05 15.8 6.95 15.3 9.85 16.0 13.7 17.7 L12.75 20.6 M6.95 15.3 L6.4 15.2 5.95 15.9 5.35 17.45 3.4 16.75 Q2.8 16.35 2.75 16.95 L3.0 17.5 4.75 18.8 1.9 18.4 3.0 14.8 6.95 15.3 M11.1 21.25 L11.65 21.55 12.35 21.8 12.5 21.35 12.3 21.9 11.1 21.25" fill="#d048a9" fill-rule="evenodd" stroke="none"/>
    <path d="M6.95 15.3 Q7.05 15.8 6.6 16.45 6.2 17.0 6.05 17.6 8.1 18.3 9.95 19.4 L11.4 20.05 12.75 20.6 12.55 21.2 12.5 21.35 12.35 21.8 11.65 21.55 11.1 21.25 8.85 20.2 5.75 19.1 4.8 18.85 4.75 18.8 3.0 17.5 2.75 16.95 Q2.8 16.35 3.4 16.75 L5.35 17.45 5.95 15.9 6.4 15.2 6.95 15.3 M5.75 19.1 L4.75 18.8 5.75 19.1" fill="#91216b" fill-rule="evenodd" stroke="none"/>
    <path d="M12.75 20.6 L13.7 17.7 Q9.85 16.0 6.95 15.3 L3.0 14.8 1.9 18.4 4.75 18.8 5.75 19.1 8.85 20.2 11.1 21.25 12.3 21.9 12.5 21.35 12.55 21.2 12.75 20.6 Z" fill="none" stroke="#000000" stroke-linecap="round" stroke-linejoin="round" stroke-width="1.0"/>
    <path d="M4.0 15.65 L3.45 17.55 1.6 17.3 2.15 15.55 4.0 15.65" fill="#70265b" fill-rule="evenodd" stroke="none"/>
    <path d="M3.0 19.45 L5.7 14.95 6.05 14.3 6.5 14.4 4.75 19.75 3.0 19.45 M5.05 14.1 L4.65 14.05 4.45 14.35 4.3 14.4 3.8 15.35 3.7 15.65 4.0 15.65 2.15 15.55 2.35 14.85 2.6 14.05 5.05 14.1 M3.45 17.55 L1.65 19.2 2.2 19.3 1.0 19.1 1.3 18.2 1.6 17.3 3.45 17.55" fill="#d0a2c2" fill-rule="evenodd" stroke="none"/>
    <path d="M6.05 14.3 L5.7 14.95 3.0 19.45 2.35 19.35 2.2 19.3 1.65 19.2 3.45 17.55 4.0 15.65 3.7 15.65 3.8 15.35 4.3 14.4 4.45 14.35 4.65 14.05 5.05 14.1 5.75 14.2 5.85 14.25 6.05 14.3" fill="#ffdefc" fill-rule="evenodd" stroke="none"/>
    <path d="M2.15 15.55 L1.6 17.3 1.3 18.2 -0.2 17.1 Q-0.7 14.6 0.5 12.1 0.85 14.05 2.35 14.85 L2.15 15.55" fill="#91216b" fill-rule="evenodd" stroke="none"/>
    <path d="M3.0 19.45 L4.75 19.75 6.5 14.4 6.05 14.3 5.85 14.25 5.75 14.2 5.05 14.1 2.6 14.05 2.35 14.85 Q0.85 14.05 0.5 12.1 -0.7 14.6 -0.2 17.1 L1.3 18.2 1.6 17.3 2.15 15.55 2.35 14.85 M2.2 19.3 L2.35 19.35 3.0 19.45 M2.2 19.3 L1.0 19.1 1.3 18.2" fill="none" stroke="#000000" stroke-linecap="round" stroke-linejoin="round" stroke-width="1.0"/>
    <path d="M4.0 15.65 L3.45 17.55 1.6 17.3 M2.15 15.55 L4.0 15.65" fill="none" stroke="#000000" stroke-linecap="round" stroke-linejoin="round" stroke-width="0.05"/>
  </g>
</svg>
