<?xml version="1.0" encoding="UTF-8" standalone="no"?>
<svg xmlns:xlink="http://www.w3.org/1999/xlink" height="49.7px" width="20.65px" xmlns="http://www.w3.org/2000/svg">
  <g transform="matrix(1.0, 0.0, 0.0, 1.0, 6.75, 0.1)">
    <path d="M10.1 37.2 Q10.3 34.5 12.95 33.25 L13.4 35.8 10.4 37.4 10.1 37.2 M12.3 40.1 L12.8 40.5 6.05 42.55 3.1 37.05 4.95 36.3 7.1 40.3 12.3 40.1 M1.05 39.05 L-0.2 40.85 Q1.85 47.4 -0.8 48.95 L-2.25 42.25 -3.25 42.55 -1.6 36.6 Q-1.25 33.55 2.45 30.65 L2.95 28.35 Q3.95 28.7 4.95 29.95 L5.25 30.4 5.7 31.1 Q6.3 32.15 5.25 32.5 4.05 35.95 1.75 36.9 L1.65 37.45 1.05 39.05 M-0.2 40.85 Q-1.05 41.7 -2.25 42.25 -1.05 41.7 -0.2 40.85" fill="#ffead5" fill-rule="evenodd" stroke="none"/>
    <path d="M10.35 25.95 Q11.55 28.45 10.3 31.7 9.55 33.7 7.2 35.2 L4.95 36.3 3.1 37.05 1.65 37.45 1.75 36.9 Q4.05 35.95 5.25 32.5 6.3 32.15 5.7 31.1 10.45 29.6 10.35 25.95" fill="#efc3c0" fill-rule="evenodd" stroke="none"/>
    <path d="M2.95 28.35 Q4.55 20.4 4.35 16.4 3.65 7.45 6.2 0.0 L8.05 0.1 Q10.25 0.5 11.8 1.3 L12.3 1.45 12.35 5.65 Q12.4 8.95 10.95 15.45 9.8 21.8 10.1 25.55 L10.35 25.95 Q10.45 29.6 5.7 31.1 L5.25 30.4 4.95 29.95 Q3.95 28.7 2.95 28.35" fill="#47146d" fill-rule="evenodd" stroke="none"/>
    <path d="M0.65 28.25 L1.85 26.45 Q3.05 21.5 2.85 14.15 2.7 5.7 3.5 3.4 4.25 1.05 4.75 0.4 5.3 0.05 6.2 0.0 3.65 7.45 4.35 16.4 4.55 20.4 2.95 28.35 L2.45 28.2 0.65 28.25" fill="#200931" fill-rule="evenodd" stroke="none"/>
    <path d="M0.65 28.25 L2.45 28.2 2.95 28.35 2.45 30.65 Q-1.25 33.55 -1.6 36.6 L-3.25 42.55 -2.25 42.25 -0.8 48.95 -1.1 49.1 Q-3.8 45.2 -4.45 42.8 L-4.85 42.8 Q-5.55 42.3 -5.25 41.3 L-6.25 37.6 Q-5.25 35.8 -3.5 34.65 -3.3 32.55 -2.75 31.8 L0.65 28.25 M13.4 35.8 Q13.5 38.1 12.3 40.1 L7.1 40.3 4.95 36.3 7.2 35.2 10.1 37.2 10.4 37.4 13.4 35.8 M12.8 40.5 L13.05 40.75 Q9.0 44.25 5.4 44.7 3.3 43.55 1.05 39.05 L1.65 37.45 3.1 37.05 6.05 42.55 12.8 40.5 M-3.5 34.65 L-3.6 37.15 -4.85 40.4 -5.25 41.3 -4.85 40.4 -3.6 37.15 -3.5 34.65 M-4.45 42.8 L-3.25 42.55 -4.45 42.8" fill="#d2a7a5" fill-rule="evenodd" stroke="none"/>
    <path d="M4.75 0.4 Q4.25 1.05 3.5 3.4 2.7 5.7 2.85 14.15 3.05 21.5 1.85 26.45 L0.65 28.25 2.45 28.2 2.95 28.35 Q3.95 28.7 4.95 29.95 L5.25 30.4 5.7 31.1 Q10.45 29.6 10.35 25.95 L10.1 25.55 Q9.8 21.8 10.95 15.45 12.4 8.95 12.35 5.65 L12.3 1.45 M10.1 37.2 Q10.3 34.5 12.95 33.25 L13.4 35.8 Q13.5 38.1 12.3 40.1 L12.8 40.5 13.05 40.75 Q9.0 44.25 5.4 44.7 3.3 43.55 1.05 39.05 L-0.2 40.85 Q1.85 47.4 -0.8 48.95 L-1.1 49.1 Q-3.8 45.2 -4.45 42.8 L-4.85 42.8 Q-5.55 42.3 -5.25 41.3 L-6.25 37.6 Q-5.25 35.8 -3.5 34.65 -3.3 32.55 -2.75 31.8 L0.65 28.25 M10.35 25.95 Q11.55 28.45 10.3 31.7 9.55 33.7 7.2 35.2 L10.1 37.2 M-3.25 42.55 L-2.25 42.25 Q-1.05 41.7 -0.2 40.85 M3.1 37.05 L4.95 36.3 7.2 35.2 M5.25 32.5 Q4.05 35.95 1.75 36.9 L1.65 37.45 3.1 37.05 M1.65 37.45 L1.05 39.05 M12.3 40.1 L7.1 40.3 4.95 36.3 M-3.25 42.55 L-4.45 42.8 M-5.25 41.3 L-4.85 40.4 -3.6 37.15 -3.5 34.65" fill="none" stroke="#000000" stroke-linecap="round" stroke-linejoin="round" stroke-width="1.0"/>
    <path d="M2.4 20.75 L1.9 22.8 1.5 22.8 1.8 20.65 2.4 20.75 M3.3 25.15 L3.95 25.25 3.95 25.15 5.45 25.45 3.3 25.15 M11.0 24.4 Q7.45 24.3 4.3 23.25 L4.85 21.5 5.0 21.0 Q9.7 21.35 11.5 20.35 L11.0 24.4" fill="#d048a9" fill-rule="evenodd" stroke="none"/>
    <path d="M1.5 22.8 L1.9 22.8 2.4 20.75 5.0 21.0 4.85 21.5 4.3 23.25 Q7.45 24.3 11.0 24.4 L10.95 24.8 Q8.85 25.75 5.45 25.45 L3.95 25.15 3.95 25.25 3.3 25.15 1.2 24.7 1.5 22.8" fill="#91216b" fill-rule="evenodd" stroke="none"/>
    <path d="M2.4 20.75 L1.8 20.65 1.5 22.8 1.2 24.7 3.3 25.15 5.45 25.45 Q8.85 25.75 10.95 24.8 L11.0 24.4 11.5 20.35 Q9.7 21.35 5.0 21.0 L2.4 20.75 Z" fill="none" stroke="#000000" stroke-linecap="round" stroke-linejoin="round" stroke-width="1.0"/>
  </g>
</svg>
