<?xml version="1.0" encoding="UTF-8" standalone="no"?>
<svg xmlns:xlink="http://www.w3.org/1999/xlink" height="43.75px" width="13.9px" xmlns="http://www.w3.org/2000/svg">
  <g transform="matrix(1.0, 0.0, 0.0, 1.0, -5.5, 26.55)">
    <path d="M13.5 -16.35 L13.95 -17.0 Q14.2 -18.35 17.2 -24.7 16.95 -19.4 16.15 -16.6 17.0 -14.8 16.5 -10.4 17.75 -12.1 18.65 -14.05 19.05 -12.9 18.8 -11.35 18.55 -9.95 16.55 -7.65 15.85 -11.25 13.5 -16.35" fill="#ffead5" fill-rule="evenodd" stroke="none"/>
    <path d="M13.5 -16.35 L12.75 -17.9 Q10.2 -15.0 9.05 -10.45 L8.65 -8.55 8.3 -6.45 8.3 -6.5 8.3 -6.55 7.6 -8.25 Q6.9 -9.95 6.7 -11.85 6.45 -13.75 6.6 -15.2 6.7 -16.65 6.9 -16.95 7.65 -17.95 8.75 -18.3 L10.75 -18.55 13.4 -18.5 13.3 -17.85 13.4 -18.5 13.55 -19.1 Q14.1 -21.9 15.55 -24.1 17.25 -26.8 17.85 -25.75 18.4 -24.7 17.8 -22.55 16.85 -19.15 17.3 -15.6 L17.3 -15.5 17.3 -15.35 17.4 -15.3 18.65 -14.05 Q17.75 -12.1 16.5 -10.4 17.0 -14.8 16.15 -16.6 16.95 -19.4 17.2 -24.7 14.2 -18.35 13.95 -17.0 L13.5 -16.35 M16.95 -11.75 L17.4 -15.3 16.95 -11.75" fill="#efc3c0" fill-rule="evenodd" stroke="none"/>
    <path d="M8.45 15.95 Q7.3 14.45 8.55 8.45 L8.85 7.25 9.1 5.75 9.9 2.65 Q11.4 -2.75 10.55 -5.75 10.05 -8.35 9.95 -10.25 L13.5 -16.35 Q15.85 -11.25 16.55 -7.65 L16.35 -7.4 Q14.1 -4.95 14.8 2.55 15.45 10.05 15.15 12.3 14.85 14.55 13.9 15.45 14.65 15.1 13.55 16.0 12.35 16.8 10.75 16.7 9.15 16.6 8.45 15.95" fill="#47146d" fill-rule="evenodd" stroke="none"/>
    <path d="M8.3 -6.45 L8.65 -8.55 9.05 -10.45 Q10.2 -15.0 12.75 -17.9 L13.5 -16.35 9.95 -10.25 Q10.05 -8.35 10.55 -5.75 11.4 -2.75 9.9 2.65 L9.1 5.75 8.85 7.25 8.55 8.45 Q7.3 14.45 8.45 15.95 7.6 15.8 8.0 15.6 6.65 14.9 6.15 12.9 5.8 11.45 6.35 7.95 9.95 -1.8 8.3 -6.45" fill="#200931" fill-rule="evenodd" stroke="none"/>
    <path d="M13.5 -16.35 L12.75 -17.9 Q10.2 -15.0 9.05 -10.45 L8.65 -8.55 8.3 -6.45 Q9.95 -1.8 6.35 7.95 5.8 11.45 6.15 12.9 6.65 14.9 8.0 15.6 M18.65 -14.05 L17.4 -15.3 16.95 -11.75 M13.3 -17.85 L13.4 -18.5 10.75 -18.55 8.75 -18.3 Q7.65 -17.95 6.9 -16.95 6.7 -16.65 6.6 -15.2 6.45 -13.75 6.7 -11.85 6.9 -9.95 7.6 -8.25 L8.3 -6.55 8.3 -6.5 8.3 -6.45 M17.3 -15.6 L17.3 -15.5 17.3 -15.35 17.4 -15.3 17.3 -15.6 Q16.85 -19.15 17.8 -22.55 18.4 -24.7 17.85 -25.75 17.25 -26.8 15.55 -24.1 14.1 -21.9 13.55 -19.1 L13.4 -18.5 M16.55 -7.65 L16.35 -7.4 Q14.1 -4.95 14.8 2.55 15.45 10.05 15.15 12.3 14.85 14.55 13.9 15.45 14.65 15.1 13.55 16.0 12.35 16.8 10.75 16.7 9.15 16.6 8.45 15.95 M18.65 -14.05 Q19.05 -12.9 18.8 -11.35 18.55 -9.95 16.55 -7.65 15.85 -11.25 13.5 -16.35 Z" fill="none" stroke="#000000" stroke-linecap="round" stroke-linejoin="round" stroke-width="1.0"/>
    <path d="M15.6 -0.5 L10.7 -1.3 10.7 -3.9 15.75 -3.55 15.6 -0.5" fill="#d048a9" fill-rule="evenodd" stroke="none"/>
    <path d="M10.7 -3.9 L10.7 -1.3 15.6 -0.5 15.5 0.65 Q11.4 1.1 8.05 -0.4 L8.05 -4.35 10.7 -3.9" fill="#91216b" fill-rule="evenodd" stroke="none"/>
    <path d="M15.6 -0.5 L15.75 -3.55 10.7 -3.9 8.05 -4.35 8.05 -0.4 Q11.4 1.1 15.5 0.65 L15.6 -0.5 Z" fill="none" stroke="#000000" stroke-linecap="round" stroke-linejoin="round" stroke-width="1.0"/>
    <path d="M14.3 0.65 L14.3 0.7 13.95 0.7 12.2 0.6 12.8 -0.6 12.9 -0.9 13.2 -0.85 13.45 -2.4 13.35 -2.4 13.5 -2.95 14.5 -2.85 14.75 -2.85 14.3 0.65 13.95 0.7 14.3 0.65 M10.85 0.5 L9.95 0.45 10.35 -3.75 10.3 -3.4 12.4 -3.0 12.2 -2.65 11.95 -2.7 11.9 -1.95 10.85 0.5 M10.35 -4.1 L10.4 -4.6 14.85 -3.8 14.85 -3.6 Q14.45 -3.65 14.1 -3.85 L12.7 -3.7 10.7 -4.1 10.35 -4.1" fill="#d0a2c2" fill-rule="evenodd" stroke="none"/>
    <path d="M14.85 -3.6 L14.8 -3.2 14.75 -2.85 14.5 -2.85 13.5 -2.95 13.35 -2.4 12.2 -2.65 12.4 -3.0 10.3 -3.4 10.35 -3.75 10.35 -4.1 10.7 -4.1 12.7 -3.7 14.1 -3.85 Q14.45 -3.65 14.85 -3.6 M12.2 0.6 L10.85 0.5 11.9 -1.95 11.8 -1.1 12.9 -0.9 12.8 -0.6 12.2 0.6" fill="#ffdefc" fill-rule="evenodd" stroke="none"/>
    <path d="M14.8 -3.2 Q17.75 -2.2 17.5 -1.0 L16.9 2.1 Q16.3 0.6 14.3 0.65 L14.75 -2.85 14.8 -3.2" fill="#d048a9" fill-rule="evenodd" stroke="none"/>
    <path d="M14.85 -3.6 L14.8 -3.2 Q17.75 -2.2 17.5 -1.0 L16.9 2.1 Q16.3 0.6 14.3 0.65 L14.3 0.7 13.95 0.7 12.2 0.6 10.85 0.5 9.95 0.45 10.35 -3.75 M10.35 -4.1 L10.4 -4.6 14.85 -3.8 14.85 -3.6 M14.75 -2.85 L14.8 -3.2 M14.3 0.65 L13.95 0.7 M14.75 -2.85 L14.3 0.65" fill="none" stroke="#000000" stroke-linecap="round" stroke-linejoin="round" stroke-width="1.0"/>
    <path d="M11.9 -1.95 L11.95 -2.7 12.2 -2.65 13.35 -2.4 13.45 -2.4 13.2 -0.85 12.9 -0.9 11.8 -1.1 11.9 -1.95" fill="none" stroke="#000000" stroke-linecap="round" stroke-linejoin="round" stroke-width="0.05"/>
  </g>
</svg>
