<?xml version="1.0" encoding="UTF-8" standalone="no"?>
<svg xmlns:xlink="http://www.w3.org/1999/xlink" height="107.85px" width="128.45px" xmlns="http://www.w3.org/2000/svg">
  <g transform="matrix(1.0, 0.0, 0.0, 1.0, 54.7, -46.0)">
    <path d="M60.25 94.4 Q47.25 87.35 40.45 70.5 L38.6 63.65 52.35 83.5 54.2 86.3 52.4 84.8 Q49.7 82.55 47.55 79.8 47.55 81.45 49.5 83.35 52.15 85.9 55.0 87.35 L54.7 86.95 Q58.2 91.55 62.45 94.3 L60.25 94.4 M-6.95 47.85 L-17.0 94.1 -8.25 69.0 Q-12.3 94.1 -7.2 118.7 -9.9 98.5 -2.35 79.9 5.6 102.85 1.6 121.25 6.05 107.65 4.25 89.5 7.8 110.0 16.05 128.5 9.5 106.35 14.9 83.5 17.7 108.75 31.25 133.45 23.65 109.95 31.5 86.4 31.9 107.9 44.6 128.1 36.0 106.35 38.15 87.65 48.35 103.9 53.5 120.5 50.65 98.8 42.3 77.55 44.85 83.2 47.8 87.0 L47.95 87.2 Q53.8 98.0 56.35 105.65 60.15 116.7 73.25 117.25 L72.75 117.4 Q60.1 118.7 52.6 107.2 51.85 110.7 54.65 114.75 58.45 131.7 69.5 137.15 L66.65 136.45 Q52.9 126.75 45.8 111.4 L48.35 119.9 46.85 116.75 48.35 119.9 Q49.7 122.45 51.3 124.7 51.55 135.5 56.75 144.05 L38.4 122.65 39.85 125.35 40.35 126.35 40.75 127.1 41.9 129.55 Q45.75 138.6 45.25 147.1 L35.25 120.6 36.0 130.05 Q32.5 142.8 34.9 151.1 L20.65 119.7 22.25 129.4 Q15.5 139.75 13.8 150.45 14.25 127.35 9.05 116.2 L9.7 128.3 9.8 131.95 Q9.85 141.2 6.8 146.75 8.3 133.35 -2.15 122.15 L0.55 132.65 Q-1.2 145.35 -7.65 151.6 -0.85 133.95 -4.4 115.05 L-7.2 118.7 Q-17.75 133.05 -17.6 144.25 -20.35 131.05 -16.5 118.85 -12.85 112.1 -14.4 104.2 -19.5 125.2 -31.8 135.75 L-34.0 136.1 Q-29.15 131.85 -29.4 114.35 -27.4 112.8 -25.7 110.0 -23.8 103.75 -23.5 96.8 -25.9 106.05 -29.95 111.65 -41.9 117.05 -53.65 110.75 L-54.2 110.4 Q-29.05 116.5 -25.65 96.05 -22.8 78.05 -18.85 71.55 L-18.05 70.3 -18.5 70.85 -13.65 63.15 Q-24.55 74.85 -34.5 79.55 L-36.3 79.45 Q-31.4 76.55 -27.5 73.25 L-27.35 73.15 Q-22.05 70.6 -19.85 66.4 -21.15 68.45 -23.5 69.8 L-24.45 70.4 Q-14.6 60.25 -13.65 46.5 L-6.95 47.85 M43.2 131.75 L41.9 129.55 40.75 127.1 43.2 131.75 M50.45 96.3 Q50.75 98.7 52.15 101.8 54.2 106.35 56.3 109.25 L54.1 103.75 50.45 96.3 M40.2 95.6 Q40.95 98.05 43.1 100.95 46.1 105.0 48.8 107.8 L45.3 102.7 40.2 95.6 M53.9 119.9 Q53.55 121.4 54.6 123.55 56.5 127.35 59.65 129.1 L56.8 125.55 Q55.0 122.85 53.9 119.9 M53.15 113.05 L54.3 114.4 54.65 114.75 54.3 114.4 53.15 113.05 M14.85 99.2 Q13.75 103.2 14.0 107.95 14.4 115.4 18.25 121.25 16.55 117.15 15.75 112.45 14.6 105.75 14.85 99.2 M30.35 97.45 L30.55 104.2 Q30.8 109.35 31.45 114.05 31.7 110.75 31.6 107.15 31.4 102.15 30.35 97.45 M-16.4 104.1 Q-17.5 106.6 -18.25 109.7 -19.45 114.5 -21.55 118.75 -19.7 116.2 -18.65 112.95 -17.1 108.4 -16.4 104.1 M-14.95 71.6 L-15.95 78.35 Q-16.8 85.2 -21.45 90.35 -18.1 88.1 -16.55 83.7 -14.45 77.75 -14.95 71.6 M-14.35 92.55 Q-14.6 94.35 -14.3 96.9 L-13.25 103.15 Q-13.05 100.95 -13.2 98.65 -13.4 95.45 -14.35 92.55 M-1.55 88.95 L-2.4 98.5 Q-2.95 105.7 -3.85 112.7 -2.35 108.3 -1.9 103.15 -1.3 96.0 -1.55 88.95 M-26.35 113.95 L-27.65 119.2 Q-28.8 123.4 -28.25 127.2 L-27.1 121.95 Q-26.1 117.9 -26.35 113.95 M-24.95 108.5 L-25.7 110.0 -24.95 108.5" fill="#3c3c3c" fill-rule="evenodd" stroke="none"/>
    <path d="M52.35 83.5 L38.6 63.65 40.45 70.5 Q47.25 87.35 60.25 94.4 53.45 94.1 47.95 87.2 L47.8 87.0 Q44.85 83.2 42.3 77.55 50.65 98.8 53.5 120.5 48.35 103.9 38.15 87.65 36.0 106.35 44.6 128.1 31.9 107.9 31.5 86.4 23.65 109.95 31.25 133.45 17.7 108.75 14.9 83.5 9.5 106.35 16.05 128.5 7.8 110.0 4.25 89.5 6.05 107.65 1.6 121.25 5.6 102.85 -2.35 79.9 -9.9 98.5 -7.2 118.7 -12.3 94.1 -8.25 69.0 L-17.0 94.1 -6.95 47.85 43.05 58.0 Q46.4 73.85 52.35 83.5 M72.75 117.4 Q60.65 120.45 54.65 114.75 51.85 110.7 52.6 107.2 60.1 118.7 72.75 117.4 M66.65 136.45 Q57.45 133.55 51.3 124.7 49.7 122.45 48.35 119.9 L45.8 111.4 Q52.9 126.75 66.65 136.45 M56.75 144.05 Q48.35 139.85 43.2 131.75 L40.75 127.1 40.35 126.35 39.85 125.35 38.4 122.65 56.75 144.05 M45.25 147.1 L45.0 149.5 Q43.05 140.3 36.0 130.05 L35.25 120.6 45.25 147.1 M34.9 151.1 L35.0 151.5 Q23.4 143.55 22.25 129.4 L20.65 119.7 34.9 151.1 M13.8 150.45 L13.75 150.7 Q10.65 144.6 9.8 131.95 L9.7 128.3 9.05 116.2 Q14.25 127.35 13.8 150.45 M6.8 146.75 L6.2 147.8 Q7.3 144.15 0.55 132.65 L-2.15 122.15 Q8.3 133.35 6.8 146.75 M-7.65 151.6 Q-8.6 152.55 -9.7 153.35 -5.5 145.1 -8.8 128.25 -16.2 135.15 -17.2 146.05 L-17.6 144.25 Q-17.75 133.05 -7.2 118.7 L-4.4 115.05 Q-0.85 133.95 -7.65 151.6 M-16.5 118.85 Q-22.9 133.45 -31.8 135.75 -19.5 125.2 -14.4 104.2 -12.85 112.1 -16.5 118.85 M-29.4 114.35 Q-39.35 121.05 -53.65 110.75 -41.9 117.05 -29.95 111.65 -25.9 106.05 -23.5 96.8 -23.8 103.75 -25.7 110.0 -27.4 112.8 -29.4 114.35 M-18.5 70.85 Q-26.3 79.5 -34.5 79.55 -24.55 74.85 -13.65 63.15 L-18.5 70.85 M40.2 95.6 L45.3 102.7 48.8 107.8 Q46.1 105.0 43.1 100.95 40.95 98.05 40.2 95.6 M30.35 97.45 Q31.4 102.15 31.6 107.15 31.7 110.75 31.45 114.05 30.8 109.35 30.55 104.2 L30.35 97.45 M14.85 99.2 Q14.6 105.75 15.75 112.45 16.55 117.15 18.25 121.25 14.4 115.4 14.0 107.95 13.75 103.2 14.85 99.2 M-1.55 88.95 Q-1.3 96.0 -1.9 103.15 -2.35 108.3 -3.85 112.7 -2.95 105.7 -2.4 98.5 L-1.55 88.95 M-14.35 92.55 Q-13.4 95.45 -13.2 98.65 -13.05 100.95 -13.25 103.15 L-14.3 96.9 Q-14.6 94.35 -14.35 92.55 M-14.95 71.6 Q-14.45 77.75 -16.55 83.7 -18.1 88.1 -21.45 90.35 -16.8 85.2 -15.95 78.35 L-14.95 71.6 M-16.4 104.1 Q-17.1 108.4 -18.65 112.95 -19.7 116.2 -21.55 118.75 -19.45 114.5 -18.25 109.7 -17.5 106.6 -16.4 104.1" fill="#121212" fill-rule="evenodd" stroke="none"/>
    <path d="M54.7 86.95 L55.0 87.35 Q52.15 85.9 49.5 83.35 47.55 81.45 47.55 79.8 49.7 82.55 52.4 84.8 L54.2 86.3 54.7 86.95 M-27.5 73.25 L-27.35 73.15 -24.45 70.4 -23.5 69.8 Q-21.15 68.45 -19.85 66.4 -22.05 70.6 -27.35 73.15 L-27.5 73.25 M50.45 96.3 L54.1 103.75 56.3 109.25 Q54.2 106.35 52.15 101.8 50.75 98.7 50.45 96.3 M53.9 119.9 Q55.0 122.85 56.8 125.55 L59.65 129.1 Q56.5 127.35 54.6 123.55 53.55 121.4 53.9 119.9 M-26.35 113.95 Q-26.1 117.9 -27.1 121.95 L-28.25 127.2 Q-28.8 123.4 -27.65 119.2 L-26.35 113.95" fill="#8e8e8e" fill-rule="evenodd" stroke="none"/>
    <path d="M52.35 83.5 Q46.4 73.85 43.05 58.0 L-6.95 47.85 -13.65 46.5 Q-14.6 60.25 -24.45 70.4 L-27.35 73.15 M42.3 77.55 Q44.85 83.2 47.8 87.0 L47.95 87.2 Q53.45 94.1 60.25 94.4 L62.45 94.3 Q58.2 91.55 54.7 86.95 L54.2 86.3 52.35 83.5 M47.95 87.2 Q53.8 98.0 56.35 105.65 60.15 116.7 73.25 117.25 L72.75 117.4 Q60.65 120.45 54.65 114.75 58.45 131.7 69.5 137.15 L66.65 136.45 Q57.45 133.55 51.3 124.7 51.55 135.5 56.75 144.05 48.35 139.85 43.2 131.75 L41.9 129.55 Q45.75 138.6 45.25 147.1 L45.0 149.5 Q43.05 140.3 36.0 130.05 32.5 142.8 34.9 151.1 L35.0 151.5 Q23.4 143.55 22.25 129.4 15.5 139.75 13.8 150.45 L13.75 150.7 Q10.65 144.6 9.8 131.95 9.85 141.2 6.8 146.75 L6.2 147.8 Q7.3 144.15 0.55 132.65 -1.2 145.35 -7.65 151.6 -8.6 152.55 -9.7 153.35 -5.5 145.1 -8.8 128.25 -16.2 135.15 -17.2 146.05 L-17.6 144.25 Q-20.35 131.05 -16.5 118.85 -22.9 133.45 -31.8 135.75 L-34.0 136.1 Q-29.15 131.85 -29.4 114.35 -39.35 121.05 -53.65 110.75 L-54.2 110.4 Q-29.05 116.5 -25.65 96.05 -22.8 78.05 -18.85 71.55 L-18.5 70.85 Q-26.3 79.5 -34.5 79.55 L-36.3 79.45 Q-31.4 76.55 -27.5 73.25 M48.35 119.9 L46.85 116.75 M54.65 114.75 L54.3 114.4 53.15 113.05 M40.75 127.1 L41.9 129.55 M43.2 131.75 L40.75 127.1 M51.3 124.7 Q49.7 122.45 48.35 119.9 M22.25 129.4 L20.65 119.7 34.9 151.1 M-18.5 70.85 L-18.05 70.3 -18.85 71.55 M-17.6 144.25 Q-17.75 133.05 -7.2 118.7 M-25.7 110.0 L-24.95 108.5 M-29.4 114.35 Q-27.4 112.8 -25.7 110.0" fill="none" stroke="#000000" stroke-linecap="round" stroke-linejoin="round" stroke-width="1.0"/>
  </g>
</svg>
