<?xml version="1.0" encoding="UTF-8" standalone="no"?>
<svg xmlns:xlink="http://www.w3.org/1999/xlink" height="35.8px" width="14.8px" xmlns="http://www.w3.org/2000/svg">
  <g transform="matrix(1.0, 0.0, 0.0, 1.0, 1.65, 0.5)">
    <path d="M3.1 0.0 Q8.9 1.15 10.3 11.55 L12.2 27.75 Q12.7 32.85 9.7 34.15 9.55 31.6 9.0 30.4 7.75 14.35 3.1 0.0" fill="#e7feff" fill-rule="evenodd" stroke="none"/>
    <path d="M9.7 34.15 L7.05 34.75 Q4.8 35.2 3.7 30.55 2.55 25.9 1.75 20.45 L-0.2 7.6 Q-1.3 0.2 3.1 0.0 7.75 14.35 9.0 30.4 9.55 31.6 9.7 34.15" fill="#adbfbf" fill-rule="evenodd" stroke="none"/>
    <path d="M9.7 34.15 L7.05 34.75 Q4.8 35.2 3.7 30.55 2.55 25.9 1.75 20.45 L-0.2 7.6 Q-1.3 0.2 3.1 0.0 8.9 1.15 10.3 11.55 L12.2 27.75 Q12.7 32.85 9.7 34.15 Z" fill="none" stroke="#000000" stroke-linecap="round" stroke-linejoin="round" stroke-width="1.0"/>
    <path d="M7.05 24.35 L6.75 21.95 Q9.6 21.5 12.3 20.4 L12.65 23.2 7.05 24.35 M6.1 17.05 L5.75 14.5 11.4 12.95 11.7 15.45 6.1 17.05" fill="#ffffff" fill-rule="evenodd" stroke="none"/>
    <path d="M12.3 20.4 Q9.6 21.5 6.75 21.95 L6.1 17.05 11.7 15.45 12.3 20.4" fill="#36bb4a" fill-rule="evenodd" stroke="none"/>
    <path d="M6.1 17.05 L6.75 21.95 0.55 22.2 -0.3 17.8 6.1 17.05" fill="#247e31" fill-rule="evenodd" stroke="none"/>
    <path d="M6.75 21.95 L7.05 24.35 0.9 24.7 0.55 22.2 6.75 21.95 M6.1 17.05 L-0.3 17.8 -1.15 14.8 5.75 14.5 6.1 17.05" fill="#cbcbcb" fill-rule="evenodd" stroke="none"/>
    <path d="M7.05 24.35 L12.65 23.2 12.3 20.4 Q9.6 21.5 6.75 21.95 L0.55 22.2 -0.3 17.8 6.1 17.05 11.7 15.45 11.4 12.95 5.75 14.5 -1.15 14.8 -0.3 17.8 M7.05 24.35 L0.9 24.7 0.55 22.2 M11.7 15.45 L12.3 20.4" fill="none" stroke="#000000" stroke-linecap="round" stroke-linejoin="round" stroke-width="1.0"/>
  </g>
</svg>
