<?xml version="1.0" encoding="UTF-8" standalone="no"?>
<svg xmlns:xlink="http://www.w3.org/1999/xlink" height="44.75px" width="24.5px" xmlns="http://www.w3.org/2000/svg">
  <g transform="matrix(1.0, 0.0, 0.0, 1.0, 2.65, 1.35)">
    <path d="M2.55 0.55 Q4.65 -0.25 5.85 0.15 L7.4 3.45 Q8.5 5.85 10.3 14.2 L11.15 17.45 8.75 18.0 8.7 17.8 Q7.5 9.2 2.55 0.55 M8.5 19.05 L10.7 18.6 11.75 21.3 11.8 21.4 11.9 21.6 Q14.5 27.15 15.5 30.25 16.45 33.3 18.35 37.0 20.2 40.7 21.25 41.65 21.7 42.25 20.4 42.85 L15.35 35.75 13.65 32.0 Q11.9 30.65 10.9 30.85 L10.25 36.65 9.95 37.35 Q9.25 38.0 8.55 38.15 8.05 31.25 8.7 22.3 L9.0 22.3 8.5 19.05" fill="#ffead5" fill-rule="evenodd" stroke="none"/>
    <path d="M8.75 18.0 L5.25 18.8 3.7 15.5 Q0.6 9.7 -0.2 6.65 L-1.2 2.7 -0.75 2.45 Q0.15 1.7 2.55 0.55 7.5 9.2 8.7 17.8 L8.75 18.0 M8.55 38.15 L8.25 38.15 Q6.5 37.75 6.8 35.8 7.5 32.45 7.0 29.7 6.5 27.0 6.55 24.8 L6.55 22.55 5.25 19.7 8.5 19.05 9.0 22.3 8.7 22.3 Q8.05 31.25 8.55 38.15 M20.4 42.85 Q19.55 43.1 17.4 41.05 L13.9 36.05 13.45 35.15 12.35 37.5 10.25 36.65 10.9 30.85 Q11.9 30.65 13.65 32.0 L15.35 35.75 20.4 42.85 M11.05 33.35 L13.45 35.15 11.05 33.35" fill="#efc3c0" fill-rule="evenodd" stroke="none"/>
    <path d="M5.85 0.15 L7.4 3.45 Q8.5 5.85 10.3 14.2 L11.15 17.45 M5.25 18.8 L3.7 15.5 Q0.6 9.7 -0.2 6.65 L-1.2 2.7 M8.55 38.15 L8.25 38.15 Q6.5 37.75 6.8 35.8 7.5 32.45 7.0 29.7 6.5 27.0 6.55 24.8 L6.55 22.55 5.25 19.7 M10.7 18.6 L11.75 21.3 11.8 21.4 11.9 21.6 Q14.5 27.15 15.5 30.25 16.45 33.3 18.35 37.0 20.2 40.7 21.25 41.65 21.7 42.25 20.4 42.85 19.55 43.1 17.4 41.05 L13.9 36.05 13.45 35.15 12.35 37.5 10.25 36.65 9.95 37.35 Q9.25 38.0 8.55 38.15 M13.65 32.0 Q11.9 30.65 10.9 30.85 L10.25 36.65 M13.45 35.15 L11.05 33.35" fill="none" stroke="#000000" stroke-linecap="round" stroke-linejoin="round" stroke-width="1.0"/>
    <path d="M2.85 21.55 Q2.75 18.9 2.1 15.5 L-2.15 1.3 Q0.25 0.3 3.0 -0.05 4.25 7.15 8.2 18.05 4.35 19.65 2.85 21.55" fill="#adbfbf" fill-rule="evenodd" stroke="none"/>
    <path d="M3.0 -0.05 L6.45 -0.85 11.35 17.35 Q10.65 17.0 8.2 18.05 4.25 7.15 3.0 -0.05" fill="#e7feff" fill-rule="evenodd" stroke="none"/>
    <path d="M11.35 17.35 L12.0 19.9 Q11.4 19.8 9.75 20.4 L8.2 18.05 Q10.65 17.0 11.35 17.35" fill="#36bb4a" fill-rule="evenodd" stroke="none"/>
    <path d="M9.75 20.4 Q6.9 21.4 2.75 23.95 L2.85 21.55 Q4.35 19.65 8.2 18.05 L9.75 20.4" fill="#247e31" fill-rule="evenodd" stroke="none"/>
    <path d="M6.45 -0.85 L11.35 17.35 12.0 19.9 Q11.4 19.8 9.75 20.4 6.9 21.4 2.75 23.95 L2.85 21.55 Q2.75 18.9 2.1 15.5 L-2.15 1.3" fill="none" stroke="#000000" stroke-linecap="round" stroke-linejoin="round" stroke-width="1.0"/>
    <path d="M8.2 18.05 Q10.65 17.0 11.35 17.35 M8.2 18.05 Q4.35 19.65 2.85 21.55" fill="none" stroke="#000000" stroke-linecap="round" stroke-linejoin="round" stroke-width="0.05"/>
  </g>
</svg>
