<?xml version="1.0" encoding="UTF-8" standalone="no"?>
<svg xmlns:xlink="http://www.w3.org/1999/xlink" height="44.2px" width="18.0px" xmlns="http://www.w3.org/2000/svg">
  <g transform="matrix(1.0, 0.0, 0.0, 1.0, 0.5, 0.0)">
    <path d="M6.05 11.95 L0.05 11.65 0.05 11.55 Q0.65 7.0 5.3 2.9 13.7 -2.4 16.05 2.05 L16.35 5.3 Q12.35 10.1 6.05 11.95" fill="#2d69d0" fill-rule="evenodd" stroke="none"/>
    <path d="M0.05 11.65 L6.05 11.95 Q6.05 19.35 6.7 28.35 7.3 37.3 10.3 43.5 6.15 42.95 3.9 40.45 2.3 33.75 1.35 26.7 0.4 20.05 0.0 11.6 L0.05 11.65 Q0.05 12.3 0.0 11.6 0.05 12.3 0.05 11.65" fill="#efc3c0" fill-rule="evenodd" stroke="none"/>
    <path d="M6.05 11.95 Q12.35 10.1 16.35 5.3 17.1 15.2 16.95 26.7 L16.6 39.05 16.15 42.05 Q14.95 43.65 12.9 43.7 L10.3 43.5 Q7.3 37.3 6.7 28.35 6.05 19.35 6.05 11.95" fill="#ffead5" fill-rule="evenodd" stroke="none"/>
    <path d="M0.05 11.65 L6.05 11.95 Q12.35 10.1 16.35 5.3 L16.05 2.05 M0.05 11.55 L0.05 11.65 0.0 11.6 Q0.05 12.3 0.05 11.65 M10.3 43.5 L12.9 43.7 Q14.95 43.65 16.15 42.05 L16.6 39.05 16.95 26.7 Q17.1 15.2 16.35 5.3 M0.0 11.6 Q0.4 20.05 1.35 26.7 2.3 33.75 3.9 40.45 6.15 42.95 10.3 43.5" fill="none" stroke="#000000" stroke-linecap="round" stroke-linejoin="round" stroke-width="1.0"/>
  </g>
</svg>
