<?xml version="1.0" encoding="UTF-8" standalone="no"?>
<svg xmlns:xlink="http://www.w3.org/1999/xlink" height="47.5px" width="25.75px" xmlns="http://www.w3.org/2000/svg">
  <g transform="matrix(1.0, 0.0, 0.0, 1.0, 0.35, 0.8)">
    <path d="M5.85 8.75 L4.65 -0.65 Q8.45 -1.3 12.95 0.7 L14.1 7.65 Q12.45 10.1 5.85 8.75" fill="#ffead5" fill-rule="evenodd" stroke="none"/>
    <path d="M5.85 8.75 L1.4 7.95 Q0.55 4.0 0.15 0.65 L1.75 0.2 4.65 -0.65 5.85 8.75 M9.1 36.85 L9.15 37.3 9.1 37.65 9.1 37.25 9.1 36.85" fill="#efc3c0" fill-rule="evenodd" stroke="none"/>
    <path d="M1.4 7.95 L5.85 8.75 Q7.3 17.55 10.0 27.4 10.95 32.1 11.5 37.3 L11.35 36.6 11.4 37.5 11.05 40.15 9.05 39.55 9.1 37.65 9.15 37.3 9.1 36.85 9.05 36.5 9.15 36.5 9.05 36.45 Q8.4 27.1 4.55 18.7 2.55 12.9 1.4 7.95" fill="#adbfbf" fill-rule="evenodd" stroke="none"/>
    <path d="M13.8 45.7 Q12.3 44.7 11.7 42.1 L11.45 40.35 11.2 40.1 12.65 39.3 Q14.25 36.45 17.3 37.65 L18.0 38.35 Q14.9 38.55 14.6 40.85 19.35 41.95 22.05 40.8 24.0 41.4 24.6 43.05 L24.85 43.8 Q25.25 46.05 22.15 46.15 L13.8 45.7 M24.6 43.05 Q20.0 44.85 11.7 42.1 20.0 44.85 24.6 43.05" fill="#0f4f1f" fill-rule="evenodd" stroke="none"/>
    <path d="M9.05 39.55 L11.05 40.15 11.2 40.1 11.45 40.35 11.7 42.1 Q12.3 44.7 13.8 45.7 L10.05 44.8 Q9.0 44.25 8.95 41.9 L11.7 42.1 8.95 41.9 8.95 41.45 9.05 39.55" fill="#093113" fill-rule="evenodd" stroke="none"/>
    <path d="M11.05 40.15 L11.4 37.5 11.35 36.6 11.5 37.3 Q10.95 32.1 10.0 27.4 7.3 17.55 5.85 8.75 12.45 10.1 14.1 7.65 15.95 19.6 16.2 25.75 16.4 31.95 17.1 36.5 L17.1 36.6 17.25 37.25 17.3 37.65 Q14.25 36.45 12.65 39.3 L11.2 40.1 11.05 40.15 M22.05 40.8 Q19.35 41.95 14.6 40.85 14.9 38.55 18.0 38.35 20.0 40.15 22.05 40.8" fill="#e7feff" fill-rule="evenodd" stroke="none"/>
    <path d="M1.4 7.95 L5.85 8.75 Q12.45 10.1 14.1 7.65 L12.95 0.7 M0.15 0.65 Q0.55 4.0 1.4 7.95 2.55 12.9 4.55 18.7 8.4 27.1 9.05 36.45 M9.05 36.5 L9.1 36.85 9.15 37.3 9.1 37.65 9.05 39.55 11.05 40.15 11.2 40.1 12.65 39.3 Q14.25 36.45 17.3 37.65 L18.0 38.35 Q20.0 40.15 22.05 40.8 19.35 41.95 14.6 40.85 14.9 38.55 18.0 38.35 M17.1 36.5 L17.1 36.6 17.25 37.25 17.1 36.5 Q16.4 31.95 16.2 25.75 15.95 19.6 14.1 7.65 M8.95 41.9 Q9.0 44.25 10.05 44.8 L13.8 45.7 22.15 46.15 Q25.25 46.05 24.85 43.8 L24.6 43.05 Q24.0 41.4 22.05 40.8 M11.7 42.1 L8.95 41.9 8.95 41.45 9.05 39.55 M9.1 36.85 L9.1 37.25 9.1 37.65 M11.7 42.1 Q20.0 44.85 24.6 43.05 M17.25 37.25 L17.3 37.65" fill="none" stroke="#000000" stroke-linecap="round" stroke-linejoin="round" stroke-width="1.0"/>
  </g>
</svg>
