<?xml version="1.0" encoding="UTF-8" standalone="no"?>
<svg xmlns:xlink="http://www.w3.org/1999/xlink" height="82.15px" width="37.4px" xmlns="http://www.w3.org/2000/svg">
  <g transform="matrix(1.0, 0.0, 0.0, 1.0, -0.3, 1.65)">
    <path d="M19.85 13.1 L22.95 15.1 28.2 19.9 29.3 20.4 Q32.0 22.15 34.05 25.3 35.85 29.25 34.75 32.75 30.85 32.6 25.6 29.45 24.45 32.05 20.3 33.0 14.15 34.0 11.4 32.1 L7.95 26.95 Q3.2 23.1 2.15 17.2 L3.95 14.95 Q6.75 12.7 8.6 12.0 L8.8 8.9 Q17.35 15.25 19.85 13.1 M33.0 36.75 L31.9 40.9 Q31.2 43.45 31.15 46.2 31.1 48.9 32.0 51.55 L34.0 57.0 Q35.1 59.85 36.35 67.15 L33.2 67.75 31.95 67.95 21.05 68.35 7.65 66.5 Q6.6 63.2 9.25 58.35 12.15 53.45 13.3 50.7 14.45 45.2 11.65 36.05 14.45 37.3 17.85 37.4 L21.05 36.25 Q24.0 34.5 25.6 31.0 28.7 35.6 33.0 36.75 M23.35 23.9 L24.85 25.3 25.85 23.35 22.45 20.1 23.35 23.9 M26.4 53.9 Q25.3 55.5 25.1 56.75 24.9 57.55 25.15 58.5 25.5 59.45 26.7 60.05 25.75 59.1 26.4 53.9" fill="#ffead5" fill-rule="evenodd" stroke="none"/>
    <path d="M34.75 32.75 L34.65 32.95 33.0 36.75 Q28.7 35.6 25.6 31.0 24.0 34.5 21.05 36.25 L17.85 37.4 Q14.45 37.3 11.65 36.05 14.45 45.2 13.3 50.7 12.15 53.45 9.25 58.35 6.6 63.2 7.65 66.5 L3.05 65.5 Q4.55 59.75 7.85 54.8 11.1 49.8 11.4 46.7 11.6 43.55 7.4 33.9 L2.3 23.3 Q0.85 19.65 1.55 18.25 L2.15 17.2 Q3.2 23.1 7.95 26.95 L11.4 32.1 Q14.15 34.0 20.3 33.0 24.45 32.05 25.6 29.45 30.85 32.6 34.75 32.75 M8.8 8.9 L8.6 0.25 Q9.85 -1.5 14.05 -1.1 17.6 -1.05 18.4 1.5 18.1 7.95 19.85 13.1 17.35 15.25 8.8 8.9 M23.35 23.9 L22.45 20.1 25.85 23.35 24.85 25.3 23.35 23.9 M26.4 53.9 Q25.75 59.1 26.7 60.05 25.5 59.45 25.15 58.5 24.9 57.55 25.1 56.75 25.3 55.5 26.4 53.9" fill="#efc3c0" fill-rule="evenodd" stroke="none"/>
    <path d="M36.35 67.15 L37.2 71.45 Q35.85 73.65 33.2 75.3 L31.95 76.15 Q29.55 78.0 25.95 79.15 L23.85 80.0 21.05 79.55 Q15.05 78.55 9.5 76.5 3.7 73.15 2.8 67.3 L3.05 65.5 7.65 66.5 21.05 68.35 31.95 67.95 33.2 67.75 36.35 67.15" fill="#e7feff" fill-rule="evenodd" stroke="none"/>
    <path d="M19.85 13.1 L22.95 15.1 28.2 19.9 29.3 20.4 Q32.0 22.15 34.05 25.3 35.85 29.25 34.75 32.75 L34.65 32.95 33.0 36.75 31.9 40.9 Q31.2 43.45 31.15 46.2 31.1 48.9 32.0 51.55 L34.0 57.0 Q35.1 59.85 36.35 67.15 L37.2 71.45 M25.95 79.15 L23.85 80.0 21.05 79.55 Q15.05 78.55 9.5 76.5 3.7 73.15 2.8 67.3 L3.05 65.5 Q4.55 59.75 7.85 54.8 11.1 49.8 11.4 46.7 11.6 43.55 7.4 33.9 L2.3 23.3 Q0.85 19.65 1.55 18.25 L2.15 17.2 3.95 14.95 Q6.75 12.7 8.6 12.0 L8.8 8.9 8.6 0.25 Q9.85 -1.5 14.05 -1.1 17.6 -1.05 18.4 1.5 18.1 7.95 19.85 13.1 M7.65 66.5 L21.05 68.35 31.95 67.95 33.2 67.75 36.35 67.15 M3.05 65.5 L7.65 66.5" fill="none" stroke="#000000" stroke-linecap="round" stroke-linejoin="round" stroke-width="1.0"/>
    <path d="M12.0 57.7 L11.05 59.15 10.1 59.75 Q9.8 59.65 9.7 58.8 L10.15 57.2 Q10.55 56.25 11.15 55.65 11.7 55.05 12.05 55.15 12.45 55.25 12.4 56.0 12.4 56.75 12.0 57.7" fill="#ffffff" fill-rule="evenodd" stroke="none"/>
    <path d="M24.9 21.45 Q24.75 22.1 24.85 22.9 L25.5 27.7 23.4 25.65 Q21.65 23.9 18.65 22.15 21.65 23.9 23.4 25.65 L25.5 27.7 24.85 22.9 Q24.75 22.1 24.9 21.45 25.05 20.75 25.45 20.2 26.05 19.25 27.3 18.5 32.0 22.15 34.05 25.3 35.85 29.25 34.75 32.75 30.85 32.6 25.6 29.45 24.45 32.05 20.3 33.0 14.15 34.0 7.95 27.8 L7.95 26.95 Q7.8 22.8 11.55 18.9 13.7 20.1 16.1 21.1 L16.85 21.55 18.65 22.15 Q19.85 17.5 24.9 21.45 M9.7 67.7 L7.3 64.6 Q12.35 62.25 11.7 52.55 L19.45 55.1 Q12.55 51.95 11.55 49.55 12.0 41.7 17.25 37.4 L19.25 36.65 22.55 35.15 Q24.2 34.35 25.6 31.0 L26.05 31.85 23.65 35.6 Q21.6 39.15 20.9 42.55 L23.35 37.9 Q25.0 35.0 26.15 32.1 L27.5 34.75 Q29.4 38.3 30.7 41.5 30.2 38.7 29.0 36.0 L27.9 33.7 Q30.2 35.9 33.1 36.55 L33.0 36.75 33.25 36.35 Q31.75 44.85 32.85 51.5 L36.3 67.15 Q25.1 71.8 9.7 67.7 M31.25 47.0 L29.8 49.05 Q27.85 51.95 24.55 53.25 26.4 53.25 28.15 51.8 30.7 49.75 31.25 47.0" fill="#e7feff" fill-rule="evenodd" stroke="none"/>
    <path d="M11.55 18.9 Q7.8 22.8 7.95 26.95 L7.95 27.8 Q14.15 34.0 20.3 33.0 24.45 32.05 25.6 29.45 30.85 32.6 34.75 32.75 L34.65 32.95 33.1 36.55 Q30.2 35.9 27.9 33.7 L29.0 36.0 Q30.2 38.7 30.7 41.5 29.4 38.3 27.5 34.75 L26.15 32.1 Q25.0 35.0 23.35 37.9 L20.9 42.55 Q21.6 39.15 23.65 35.6 L26.05 31.85 25.6 31.0 Q24.2 34.35 22.55 35.15 L19.25 36.65 17.25 37.4 Q12.0 41.7 11.55 49.55 12.55 51.95 19.45 55.1 L11.7 52.55 Q12.35 62.25 7.3 64.6 L9.7 67.7 2.6 65.45 7.3 50.55 Q9.65 43.1 6.2 34.25 L4.25 30.9 0.8 21.55 4.0 13.55 Q7.35 16.55 11.55 18.9 M31.25 47.0 Q30.7 49.75 28.15 51.8 26.4 53.25 24.55 53.25 27.85 51.95 29.8 49.05 L31.25 47.0" fill="#adbfbf" fill-rule="evenodd" stroke="none"/>
    <path d="M18.65 22.15 Q21.65 23.9 23.4 25.65 L25.5 27.7 24.85 22.9 Q24.75 22.1 24.9 21.45 19.85 17.5 18.65 22.15 L16.85 21.55 16.1 21.1 Q13.7 20.1 11.55 18.9 7.35 16.55 4.0 13.55 L0.8 21.55 4.25 30.9 6.2 34.25 Q9.65 43.1 7.3 50.55 L2.6 65.45 9.7 67.7 Q25.1 71.8 36.3 67.15 L32.85 51.5 Q31.75 44.85 33.25 36.35 L33.0 36.75 33.1 36.55 34.65 32.95 34.75 32.75 Q35.85 29.25 34.05 25.3 32.0 22.15 27.3 18.5 26.05 19.25 25.45 20.2 25.05 20.75 24.9 21.45 M33.25 36.35 L33.1 36.55" fill="none" stroke="#000000" stroke-linecap="round" stroke-linejoin="round" stroke-width="1.0"/>
    <path d="M26.5 26.4 L26.55 26.4 26.95 30.65 Q28.7 43.85 28.85 55.55 28.0 59.25 26.05 61.4 23.2 59.05 23.6 55.9 L25.4 34.1 25.5 34.45 Q25.7 35.0 26.1 34.6 26.7 34.05 26.45 33.1 L25.7 31.25 25.65 31.25 26.5 30.95 Q25.1 30.45 23.9 26.7 L25.3 26.45 26.5 26.4 M26.5 30.95 L26.95 30.65 26.5 30.95" fill="#36bb4a" fill-rule="evenodd" stroke="none"/>
    <path d="M25.3 26.45 L24.4 20.55 26.05 19.85 26.5 26.4 25.3 26.45 M26.05 61.4 L25.95 61.45 Q23.1 59.45 22.05 55.8 24.2 46.05 24.35 31.15 L22.2 27.3 12.2 19.85 16.95 21.6 23.85 26.7 23.9 26.7 Q25.1 30.45 26.5 30.95 L25.65 31.25 25.7 31.25 26.45 33.1 Q26.7 34.05 26.1 34.6 25.7 35.0 25.5 34.45 L25.4 34.1 23.6 55.9 Q23.2 59.05 26.05 61.4 M23.85 26.7 L22.2 27.3 23.85 26.7 M24.35 31.15 L25.65 31.25 24.35 31.15" fill="#22772f" fill-rule="evenodd" stroke="none"/>
    <path d="M25.3 26.45 L24.4 20.55 26.05 19.85 26.5 26.4 26.55 26.4 26.95 30.65 Q28.7 43.85 28.85 55.55 28.0 59.25 26.05 61.4 L25.95 61.45 Q23.1 59.45 22.05 55.8 24.2 46.05 24.35 31.15 L22.2 27.3 12.2 19.85 16.95 21.6 23.85 26.7 23.9 26.7 25.3 26.45 26.5 26.4 M26.95 30.65 L26.5 30.95 25.65 31.25 24.35 31.15 M22.2 27.3 L23.85 26.7" fill="none" stroke="#000000" stroke-linecap="round" stroke-linejoin="round" stroke-width="1.0"/>
    <path d="M24.25 17.65 L22.25 13.25 Q26.65 13.95 30.0 15.95 25.95 15.75 24.25 17.65" fill="#e7feff" fill-rule="evenodd" stroke="none"/>
    <path d="M22.25 13.25 L24.25 17.65 23.0 19.1 21.05 13.05 22.25 13.25" fill="#adbfbf" fill-rule="evenodd" stroke="none"/>
    <path d="M23.0 19.1 L24.25 17.65 25.6 20.7 Q24.9 22.05 24.5 23.85 L23.0 19.1" fill="#247e31" fill-rule="evenodd" stroke="none"/>
    <path d="M24.25 17.65 Q25.95 15.75 30.0 15.95 L31.45 16.9 Q27.45 17.25 25.6 20.7 L24.25 17.65" fill="#36bb4a" fill-rule="evenodd" stroke="none"/>
    <path d="M24.25 17.65 Q25.95 15.75 30.0 15.95 M23.0 19.1 L24.25 17.65" fill="none" stroke="#000000" stroke-linecap="round" stroke-linejoin="round" stroke-width="0.05"/>
    <path d="M30.0 15.95 Q26.65 13.95 22.25 13.25 L21.05 13.05 23.0 19.1 24.5 23.85 Q24.9 22.05 25.6 20.7 27.45 17.25 31.45 16.9 L30.0 15.95" fill="none" stroke="#000000" stroke-linecap="round" stroke-linejoin="round" stroke-width="1.0"/>
  </g>
</svg>
