<?xml version="1.0" encoding="UTF-8" standalone="no"?>
<svg xmlns:xlink="http://www.w3.org/1999/xlink" height="45.85px" width="22.0px" xmlns="http://www.w3.org/2000/svg">
  <g transform="matrix(1.0, 0.0, 0.0, 1.0, 0.6, 0.3)">
    <path d="M20.9 13.1 L20.85 13.25 Q16.15 13.35 11.15 11.1 6.15 8.8 4.8 7.6 L2.75 4.15 3.25 0.2 Q5.7 -1.45 14.2 2.1 19.75 6.0 20.9 13.1" fill="#2d69d0" fill-rule="evenodd" stroke="none"/>
    <path d="M1.35 42.6 Q0.3 41.5 -0.1 40.0 0.1 24.1 2.35 7.0 L2.75 4.15 4.8 7.6 Q2.0 24.7 1.35 42.6" fill="#efc3c0" fill-rule="evenodd" stroke="none"/>
    <path d="M20.85 13.25 Q17.85 30.5 12.5 42.9 9.55 45.9 5.2 44.7 2.7 44.0 1.35 42.6 2.0 24.7 4.8 7.6 6.15 8.8 11.15 11.1 16.15 13.35 20.85 13.25" fill="#ffead5" fill-rule="evenodd" stroke="none"/>
    <path d="M20.9 13.1 L20.85 13.25 Q17.85 30.5 12.5 42.9 9.55 45.9 5.2 44.7 2.7 44.0 1.35 42.6 0.3 41.5 -0.1 40.0 0.1 24.1 2.35 7.0 L2.75 4.15 3.25 0.2 M20.85 13.25 Q16.15 13.35 11.15 11.1 6.15 8.8 4.8 7.6 L2.75 4.15" fill="none" stroke="#000000" stroke-linecap="round" stroke-linejoin="round" stroke-width="1.0"/>
  </g>
</svg>
