<?xml version="1.0" encoding="UTF-8" standalone="no"?>
<svg xmlns:xlink="http://www.w3.org/1999/xlink" height="49.3px" width="25.25px" xmlns="http://www.w3.org/2000/svg">
  <g transform="matrix(1.0, 0.0, 0.0, 1.0, 5.65, -3.5)">
    <path d="M19.1 5.8 L17.5 11.7 Q12.5 14.25 5.2 10.85 L7.6 3.95 Q10.5 3.0 14.5 4.05 19.7 5.35 19.1 5.8" fill="#ffead5" fill-rule="evenodd" stroke="none"/>
    <path d="M7.6 3.95 L5.2 10.85 3.5 9.85 Q4.45 7.05 5.95 4.7 6.7 4.25 7.6 3.95" fill="#efc3c0" fill-rule="evenodd" stroke="none"/>
    <path d="M7.1 40.2 L7.4 42.1 Q8.7 45.4 8.75 48.15 L8.55 50.1 Q6.85 52.55 2.85 52.3 -1.65 52.35 -3.65 51.05 L-3.35 48.85 -2.95 46.05 -1.95 43.55 Q-0.3 45.85 2.9 46.3 5.85 46.7 7.25 42.7 L7.4 42.1 7.25 42.7 Q1.95 41.6 -1.95 43.55 L-1.1 41.15 Q2.65 39.05 7.1 40.2 M8.75 48.15 Q4.3 50.65 -3.35 48.85 4.3 50.65 8.75 48.15" fill="#0f4f1f" fill-rule="evenodd" stroke="none"/>
    <path d="M-3.65 51.05 Q-4.85 50.25 -5.15 48.95 L-5.0 46.7 Q-4.65 44.55 -3.5 41.9 L-3.15 41.4 -1.1 41.15 -1.95 43.55 -2.95 46.05 -3.35 48.85 -5.0 46.7 -3.35 48.85 -3.65 51.05" fill="#093113" fill-rule="evenodd" stroke="none"/>
    <path d="M5.2 10.85 Q12.5 14.25 17.5 11.7 15.5 17.95 11.7 25.65 7.1 34.8 7.1 39.75 L7.1 39.85 7.1 40.2 Q2.65 39.05 -1.1 41.15 L-0.65 39.85 -0.6 39.75 -0.5 39.65 Q2.4 31.2 2.4 24.95 3.2 17.3 5.2 10.85 M7.25 42.7 Q5.85 46.7 2.9 46.3 -0.3 45.85 -1.95 43.55 1.95 41.6 7.25 42.7" fill="#e7feff" fill-rule="evenodd" stroke="none"/>
    <path d="M-3.15 41.4 L-2.35 39.85 -2.2 39.65 -2.15 39.65 Q0.15 35.05 0.45 29.0 0.85 21.5 2.0 15.35 2.55 12.4 3.5 9.85 L5.2 10.85 Q3.2 17.3 2.4 24.95 2.4 31.2 -0.5 39.65 L-0.6 39.75 -0.65 39.85 -1.1 41.15 -3.15 41.4" fill="#adbfbf" fill-rule="evenodd" stroke="none"/>
    <path d="M17.5 11.7 L19.1 5.8 M5.2 10.85 Q12.5 14.25 17.5 11.7 15.5 17.95 11.7 25.65 7.1 34.8 7.1 39.75 L7.1 39.85 7.1 40.2 7.4 42.1 Q8.7 45.4 8.75 48.15 L8.55 50.1 Q6.85 52.55 2.85 52.3 -1.65 52.35 -3.65 51.05 -4.85 50.25 -5.15 48.95 L-5.0 46.7 Q-4.65 44.55 -3.5 41.9 L-3.15 41.4 -2.35 39.85 -2.2 39.65 M-2.15 39.65 Q0.15 35.05 0.45 29.0 0.85 21.5 2.0 15.35 2.55 12.4 3.5 9.85 4.45 7.05 5.95 4.7 M3.5 9.85 L5.2 10.85 M-1.1 41.15 Q2.65 39.05 7.1 40.2 M7.25 42.7 Q5.85 46.7 2.9 46.3 -0.3 45.85 -1.95 43.55 1.95 41.6 7.25 42.7 L7.4 42.1 M-3.35 48.85 Q4.3 50.65 8.75 48.15 M-1.1 41.15 L-3.15 41.4 M-5.0 46.7 L-3.35 48.85" fill="none" stroke="#000000" stroke-linecap="round" stroke-linejoin="round" stroke-width="1.0"/>
  </g>
</svg>
