<?xml version="1.0" encoding="UTF-8" standalone="no"?>
<svg xmlns:xlink="http://www.w3.org/1999/xlink" height="32.05px" width="51.15px" xmlns="http://www.w3.org/2000/svg">
  <g transform="matrix(1.0, 0.0, 0.0, 1.0, 7.8, 4.25)">
    <path d="M42.25 18.8 L40.65 19.65 35.5 7.9 35.45 7.6 35.3 7.05 35.45 7.6 35.5 7.9 38.2 21.25 33.0 22.35 28.7 9.1 31.35 23.1 24.3 24.4 21.25 9.3 20.95 23.5 10.95 23.3 11.85 7.85 8.5 20.5 0.5 19.4 3.5 6.45 -0.75 15.7 -3.3 14.25 3.2 1.05 Q19.55 -1.7 35.0 1.1 L42.25 18.8 M3.65 6.1 L3.5 6.45 3.65 6.1 M22.55 1.35 Q21.8 2.25 21.35 3.75 20.7 6.05 21.35 7.7 22.4 6.8 22.85 5.35 23.6 3.1 22.55 1.35 M28.55 1.6 Q27.8 2.1 27.8 3.3 27.85 5.3 29.05 5.9 29.45 5.15 29.35 4.1 29.25 2.6 28.55 1.6 M15.25 0.9 Q14.45 1.35 13.75 2.2 12.6 3.6 12.5 4.9 13.6 4.85 14.5 3.8 15.95 2.15 15.25 0.9" fill="#0f4f1f" fill-rule="evenodd" stroke="none"/>
    <path d="M35.5 7.9 L40.65 19.65 42.25 18.8 42.85 20.3 Q41.8 21.85 38.5 22.75 L38.2 21.25 35.5 7.9 M3.2 1.05 L-3.3 14.25 -0.75 15.7 3.5 6.45 0.5 19.4 8.5 20.5 11.85 7.85 10.95 23.3 20.95 23.5 21.25 9.3 24.3 24.4 31.35 23.1 28.7 9.1 33.0 22.35 38.2 21.25 38.5 22.75 38.75 23.8 Q36.85 25.5 31.75 25.35 L31.85 26.05 Q24.05 28.05 20.85 26.8 L20.9 25.95 20.95 23.5 20.9 25.95 Q12.4 26.75 7.45 24.75 L7.9 23.0 Q0.75 22.85 -2.85 20.0 L-1.8 17.9 Q-5.65 16.95 -7.3 15.05 L2.7 1.1 3.2 1.05 M28.55 1.6 Q29.25 2.6 29.35 4.1 29.45 5.15 29.05 5.9 27.85 5.3 27.8 3.3 27.8 2.1 28.55 1.6 M22.55 1.35 Q23.6 3.1 22.85 5.35 22.4 6.8 21.35 7.7 20.7 6.05 21.35 3.75 21.8 2.25 22.55 1.35 M31.35 23.1 L31.75 25.35 31.35 23.1 M15.25 0.9 Q15.95 2.15 14.5 3.8 13.6 4.85 12.5 4.9 12.6 3.6 13.75 2.2 14.45 1.35 15.25 0.9 M7.9 23.0 L8.5 20.5 7.9 23.0 M-0.75 15.7 L-1.8 17.9 -0.75 15.7" fill="#093113" fill-rule="evenodd" stroke="none"/>
    <path d="M35.5 7.9 L35.45 7.6" fill="none" stroke="#000000" stroke-linecap="round" stroke-linejoin="round" stroke-width="0.05"/>
    <path d="M42.25 18.8 L35.0 1.1 Q19.55 -1.7 3.2 1.05 L2.7 1.1 -7.3 15.05 Q-5.65 16.95 -1.8 17.9 L-0.75 15.7 3.5 6.45 3.65 6.1 M38.5 22.75 Q41.8 21.85 42.85 20.3 L42.25 18.8 M35.45 7.6 L35.3 7.05 M38.2 21.25 L35.5 7.9 M38.5 22.75 L38.2 21.25 M31.75 25.35 Q36.85 25.5 38.75 23.8 L38.5 22.75 M21.25 9.3 L20.95 23.5 20.9 25.95 20.85 26.8 Q24.05 28.05 31.85 26.05 L31.75 25.35 31.35 23.1 28.7 9.1 M8.5 20.5 L7.9 23.0 7.45 24.75 Q12.4 26.75 20.9 25.95 M8.5 20.5 L11.85 7.85 M-1.8 17.9 L-2.85 20.0 Q0.75 22.85 7.9 23.0" fill="none" stroke="#000000" stroke-linecap="round" stroke-linejoin="round" stroke-width="1.0"/>
    <path d="M19.0 7.35 L25.0 -2.1 30.4 6.25 Q33.05 4.45 37.35 3.2 L38.1 5.0 Q34.15 6.35 29.65 10.25 27.25 6.2 25.35 1.9 22.5 6.9 19.0 11.55 13.2 8.65 7.65 7.35 0.25 5.9 -0.6 4.2 L0.6 1.8 Q2.3 3.7 8.7 4.85 14.4 5.9 18.65 7.85 L19.0 7.35" fill="#36bb4a" fill-rule="evenodd" stroke="none"/>
    <path d="M19.0 7.35 L3.7 0.3 6.1 -0.15 6.7 0.4 Q8.2 1.55 9.7 1.85 8.9 1.05 7.95 0.35 L6.85 -0.45 8.65 -1.65 9.15 -1.55 11.9 -1.25 Q11.45 -1.7 10.45 -1.9 L9.15 -2.15 9.65 -2.85 25.0 -2.1 Q30.5 -2.4 34.55 -3.75 L37.35 3.2 Q33.05 4.45 30.4 6.25 L25.0 -2.1 19.0 7.35" fill="#e7feff" fill-rule="evenodd" stroke="none"/>
    <path d="M9.65 -2.85 L9.15 -2.15 10.45 -1.9 Q11.45 -1.7 11.9 -1.25 L9.15 -1.55 8.65 -1.65 6.85 -0.45 7.95 0.35 Q8.9 1.05 9.7 1.85 8.2 1.55 6.7 0.4 L6.1 -0.15 3.7 0.3 19.0 7.35 18.65 7.85 Q14.4 5.9 8.7 4.85 2.3 3.7 0.6 1.8 L3.3 -3.75 9.65 -2.85" fill="#adbfbf" fill-rule="evenodd" stroke="none"/>
    <path d="M19.0 7.35 L25.0 -2.1 30.4 6.25 Q33.05 4.45 37.35 3.2 L34.55 -3.75 M3.3 -3.75 L0.6 1.8 Q2.3 3.7 8.7 4.85 14.4 5.9 18.65 7.85 L19.0 7.35 M0.6 1.8 L-0.6 4.2 Q0.25 5.9 7.65 7.35 13.2 8.65 19.0 11.55 22.5 6.9 25.35 1.9 27.25 6.2 29.65 10.25 34.15 6.35 38.1 5.0 L37.35 3.2" fill="none" stroke="#000000" stroke-linecap="round" stroke-linejoin="round" stroke-width="1.0"/>
  </g>
</svg>
