<?xml version="1.0" encoding="UTF-8" standalone="no"?>
<svg xmlns:xlink="http://www.w3.org/1999/xlink" height="40.7px" width="35.1px" xmlns="http://www.w3.org/2000/svg">
  <g transform="matrix(1.0, 0.0, 0.0, 1.0, 0.5, 5.55)">
    <path d="M11.65 4.7 L10.0 5.7 8.85 5.85 Q8.45 5.6 8.8 4.85 9.1 4.2 9.9 3.5 L11.6 2.5 12.8 2.4 Q13.15 2.6 12.85 3.3 L11.65 4.7" fill="#ffffff" fill-rule="evenodd" stroke="none"/>
    <path d="M14.2 0.0 Q19.95 5.2 17.85 9.05 15.65 12.9 13.6 17.35 11.55 21.75 11.15 23.0 9.45 27.4 8.4 30.9 7.05 35.3 3.0 34.55 1.65 34.25 0.9 33.4 L2.45 26.15 Q5.95 11.0 8.2 4.4 10.65 1.4 14.2 0.0 M11.65 4.7 L12.85 3.3 Q13.15 2.6 12.8 2.4 L11.6 2.5 9.9 3.5 Q9.1 4.2 8.8 4.85 8.45 5.6 8.85 5.85 L10.0 5.7 11.65 4.7" fill="#e7feff" fill-rule="evenodd" stroke="none"/>
    <path d="M8.2 4.4 Q5.95 11.0 2.45 26.15 L0.9 33.4 Q-0.6 31.7 0.35 27.65 L0.5 26.9 Q1.75 21.0 4.35 12.25 5.7 7.5 8.2 4.4" fill="#adbfbf" fill-rule="evenodd" stroke="none"/>
    <path d="M14.2 0.0 Q10.65 1.4 8.2 4.4 5.7 7.5 4.35 12.25 1.75 21.0 0.5 26.9 L0.35 27.65 Q-0.6 31.7 0.9 33.4 L0.75 34.2 M0.9 33.4 Q1.65 34.25 3.0 34.55 7.05 35.3 8.4 30.9 9.45 27.4 11.15 23.0 11.55 21.75 13.6 17.35 15.65 12.9 17.85 9.05" fill="none" stroke="#000000" stroke-linecap="round" stroke-linejoin="round" stroke-width="1.0"/>
    <path d="M12.0 -1.55 L12.2 -1.7 16.05 -4.6 Q21.9 -6.05 29.05 -2.6 16.85 -1.3 9.45 3.45 L12.0 -1.55" fill="#e7feff" fill-rule="evenodd" stroke="none"/>
    <path d="M12.0 -1.55 L9.45 3.45 5.85 5.05 Q8.15 1.65 12.0 -1.55" fill="#adbfbf" fill-rule="evenodd" stroke="none"/>
    <path d="M9.45 3.45 Q16.85 -1.3 29.05 -2.6 L30.5 -1.85 Q18.9 -0.8 8.8 4.8 L9.45 3.45" fill="#36bb4a" fill-rule="evenodd" stroke="none"/>
    <path d="M30.5 -1.85 L34.1 0.35 Q17.5 1.3 3.35 10.0 4.2 7.45 5.85 5.05 L9.45 3.45 8.8 4.8 Q18.9 -0.8 30.5 -1.85" fill="#247e31" fill-rule="evenodd" stroke="none"/>
    <path d="M9.45 3.45 Q16.85 -1.3 29.05 -2.6 M5.85 5.05 L9.45 3.45" fill="none" stroke="#000000" stroke-linecap="round" stroke-linejoin="round" stroke-width="0.05"/>
    <path d="M29.05 -2.6 Q21.9 -6.05 16.05 -4.6 L12.2 -1.7 12.0 -1.55 Q8.15 1.65 5.85 5.05 4.2 7.45 3.35 10.0 17.5 1.3 34.1 0.35 L30.5 -1.85 29.05 -2.6" fill="none" stroke="#000000" stroke-linecap="round" stroke-linejoin="round" stroke-width="1.0"/>
  </g>
</svg>
