<?xml version="1.0" encoding="UTF-8" standalone="no"?>
<svg xmlns:xlink="http://www.w3.org/1999/xlink" height="42.1px" width="16.55px" xmlns="http://www.w3.org/2000/svg">
  <g transform="matrix(1.0, 0.0, 0.0, 1.0, 2.2, 1.8)">
    <path d="M6.2 0.0 L8.05 0.1 Q10.25 0.5 11.8 1.3 L12.3 1.45 12.35 5.65 Q12.4 8.95 10.95 15.45 9.6 22.8 10.25 26.65 10.4 28.1 11.9 29.85 13.0 30.95 13.2 33.45 13.6 35.65 12.0 36.15 10.05 34.3 10.05 33.8 L9.65 37.65 Q4.4 39.5 0.4 37.05 L0.1 36.3 Q-0.25 33.25 0.4 30.7 4.7 23.85 4.35 16.4 3.65 7.45 6.2 0.0" fill="#ffead5" fill-rule="evenodd" stroke="none"/>
    <path d="M6.2 0.0 Q3.65 7.45 4.35 16.4 4.7 23.85 0.4 30.7 0.75 29.2 1.45 27.85 3.1 22.6 2.85 14.15 2.7 5.7 3.5 3.4 4.25 1.05 4.75 0.4 5.3 0.05 6.2 0.0 M0.4 37.05 Q4.4 39.5 9.65 37.65 L10.05 33.8 Q10.05 34.3 12.0 36.15 L10.95 36.3 Q11.0 40.25 6.05 39.75 1.65 39.85 0.4 37.05" fill="#efc3c0" fill-rule="evenodd" stroke="none"/>
    <path d="M0.4 30.7 Q-0.25 33.25 0.1 36.3 L0.4 37.05 Q1.65 39.85 6.05 39.75 11.0 40.25 10.95 36.3 L12.0 36.15 Q13.6 35.65 13.2 33.45 13.0 30.95 11.9 29.85 10.4 28.1 10.25 26.65 9.6 22.8 10.95 15.45 12.4 8.95 12.35 5.65 L12.3 1.45 M4.75 0.4 Q4.25 1.05 3.5 3.4 2.7 5.7 2.85 14.15 3.1 22.6 1.45 27.85 0.75 29.2 0.4 30.7 Z" fill="none" stroke="#000000" stroke-linecap="round" stroke-linejoin="round" stroke-width="1.0"/>
    <path d="M12.75 0.7 L13.3 2.0 Q13.85 3.25 13.85 3.95 L12.65 8.55 Q11.55 12.15 10.8 24.1 6.1 26.75 1.35 27.6 2.8 22.5 2.9 16.6 3.9 7.5 6.0 2.1 8.0 -0.45 12.75 0.7" fill="#e7feff" fill-rule="evenodd" stroke="none"/>
    <path d="M10.8 24.1 L10.65 26.5 Q3.45 30.15 0.4 30.7 L1.35 27.6 Q6.1 26.75 10.8 24.1" fill="#36bb4a" fill-rule="evenodd" stroke="none"/>
    <path d="M-0.75 27.85 Q0.1 24.8 0.95 19.35 1.75 3.6 4.5 -0.2 7.35 -1.95 11.85 -0.9 L12.75 0.7 Q8.0 -0.45 6.0 2.1 3.9 7.5 2.9 16.6 2.8 22.5 1.35 27.6 L-0.75 27.85" fill="#adbfbf" fill-rule="evenodd" stroke="none"/>
    <path d="M1.35 27.6 L0.4 30.7 Q-1.3 31.0 -1.7 30.4 -1.2 29.5 -0.75 27.85 L1.35 27.6" fill="#247e31" fill-rule="evenodd" stroke="none"/>
    <path d="M0.4 30.7 L0.3 31.0 M1.35 27.6 Q6.1 26.75 10.8 24.1 M-0.75 27.85 L1.35 27.6" fill="none" stroke="#000000" stroke-linecap="round" stroke-linejoin="round" stroke-width="0.05"/>
    <path d="M-0.75 27.85 Q0.1 24.8 0.95 19.35 1.75 3.6 4.5 -0.2 7.35 -1.95 11.85 -0.9 M13.85 3.95 L12.65 8.55 Q11.55 12.15 10.8 24.1 L10.65 26.5 Q3.45 30.15 0.4 30.7 -1.3 31.0 -1.7 30.4 -1.2 29.5 -0.75 27.85" fill="none" stroke="#000000" stroke-linecap="round" stroke-linejoin="round" stroke-width="1.0"/>
  </g>
</svg>
