<?xml version="1.0" encoding="UTF-8" standalone="no"?>
<svg xmlns:xlink="http://www.w3.org/1999/xlink" height="72.75px" width="64.9px" xmlns="http://www.w3.org/2000/svg">
  <g transform="matrix(1.0, 0.0, 0.0, 1.0, 32.15, 68.6)">
    <path d="M11.3 3.65 Q-1.5 0.85 -19.75 -9.95 -30.55 -20.55 -31.6 -35.3 -32.55 -49.3 -21.0 -61.1 -9.45 -72.95 16.5 -64.8 32.45 -56.6 32.05 -37.25 32.95 -24.05 30.15 -9.75 29.15 -4.4 24.5 -1.55 18.5 2.15 11.3 3.65" fill="#ffead5" fill-rule="evenodd" stroke="none"/>
    <path d="M11.3 3.65 Q18.5 2.15 24.5 -1.55 29.15 -4.4 30.15 -9.75 32.95 -24.05 32.05 -37.25 32.45 -56.6 16.5 -64.8 -9.45 -72.95 -21.0 -61.1 -32.55 -49.3 -31.6 -35.3 -30.55 -20.55 -19.75 -9.95 -1.5 0.85 11.3 3.65 Z" fill="none" stroke="#000000" stroke-linecap="round" stroke-linejoin="round" stroke-width="1.0"/>
    <path d="M15.95 -1.6 Q15.1 -3.5 11.95 -4.9 L13.25 -5.15 Q17.75 -3.6 19.55 -5.45 19.0 -3.25 15.95 -1.6" fill="#4a2024" fill-rule="evenodd" stroke="none"/>
    <path d="M11.95 -4.9 Q15.1 -3.5 15.95 -1.6 L13.4 -0.5 Q7.9 1.45 4.0 -5.5 6.9 -4.05 11.95 -4.9" fill="#e76372" fill-rule="evenodd" stroke="none"/>
    <path d="M15.95 -1.6 Q19.0 -3.25 19.55 -5.45 17.75 -3.6 13.25 -5.15 L11.95 -4.9 Q6.9 -4.05 4.0 -5.5 7.9 1.45 13.4 -0.5 L15.95 -1.6 Z" fill="none" stroke="#000000" stroke-linecap="round" stroke-linejoin="round" stroke-width="1.0"/>
    <path d="M0.2 -7.45 L-6.0 -7.05 Q-9.7 -7.45 -12.3 -8.85 -14.8 -10.2 -14.8 -11.75 -14.8 -13.3 -12.3 -14.1 L-6.0 -14.45 Q-2.35 -14.05 0.2 -12.7 2.8 -11.3 2.8 -9.75 2.8 -8.2 0.2 -7.45" fill="url(#gradient0)" fill-rule="evenodd" stroke="none"/>
    <path d="M20.75 -6.75 Q18.75 -7.4 18.75 -8.65 18.75 -9.95 20.75 -11.1 22.75 -12.2 25.55 -12.5 L30.4 -12.2 Q32.35 -11.5 32.35 -10.2 32.35 -8.95 30.4 -7.85 28.4 -6.7 25.55 -6.4 L20.75 -6.75" fill="url(#gradient1)" fill-rule="evenodd" stroke="none"/>
    <path d="M-8.0 -11.25 Q-8.05 -11.55 -7.55 -11.9 L-6.4 -12.3 -5.2 -12.25 Q-4.7 -12.1 -4.65 -11.8 -4.6 -11.5 -5.05 -11.2 -5.45 -10.9 -6.15 -10.8 L-7.4 -10.85 -8.0 -11.25 M26.45 -10.2 Q26.5 -10.55 26.9 -10.65 L27.75 -10.55 28.5 -10.15 28.75 -9.45 Q28.7 -9.15 28.3 -9.1 27.9 -8.95 27.4 -9.1 L26.7 -9.6 Q26.4 -9.9 26.45 -10.2" fill="#ffffff" fill-rule="evenodd" stroke="none"/>
  </g>
  <defs>
    <radialGradient cx="0" cy="0" gradientTransform="matrix(0.0108, 0.0012, 0.0, 0.0046, -6.0, -10.75)" gradientUnits="userSpaceOnUse" id="gradient0" r="819.2" spreadMethod="pad">
      <stop offset="0.22745098039215686" stop-color="#ff8e8e" stop-opacity="0.38039216"/>
      <stop offset="0.9725490196078431" stop-color="#ffb4b4" stop-opacity="0.0"/>
    </radialGradient>
    <radialGradient cx="0" cy="0" gradientTransform="matrix(-0.0084, 9.0E-4, 0.0, 0.0038, 25.55, -9.45)" gradientUnits="userSpaceOnUse" id="gradient1" r="819.2" spreadMethod="pad">
      <stop offset="0.22745098039215686" stop-color="#ff8e8e" stop-opacity="0.38039216"/>
      <stop offset="0.9725490196078431" stop-color="#ffb4b4" stop-opacity="0.0"/>
    </radialGradient>
  </defs>
</svg>
