<?xml version="1.0" encoding="UTF-8" standalone="no"?>
<svg xmlns:xlink="http://www.w3.org/1999/xlink" height="14.95px" width="23.8px" xmlns="http://www.w3.org/2000/svg">
  <g transform="matrix(1.0, 0.0, 0.0, 1.0, 1.0, 0.3)">
    <path d="M5.45 10.25 Q5.3 10.7 2.85 8.1 -0.1 3.05 -1.0 -0.05 -0.65 0.6 4.45 -0.1 9.5 -0.85 16.05 1.2 17.45 1.8 22.8 3.2 21.65 3.35 20.8 4.15 21.9 4.7 22.65 7.95 L20.15 5.3 Q18.9 4.0 17.45 3.65 L18.0 6.05 18.0 6.15 18.05 8.7 Q17.7 13.3 14.85 14.35 L12.85 14.65 12.8 14.6 Q10.9 14.35 9.65 13.5 7.05 11.6 6.75 7.0 L6.75 6.95 Q6.85 5.45 7.2 4.25 L7.2 4.15 Q7.55 2.95 8.25 2.0 6.2 1.75 3.25 3.6 3.2 3.95 4.05 7.35 L5.45 10.25 M8.25 4.45 L8.2 4.55 Q7.85 5.65 7.8 7.05 8.1 12.9 12.75 13.6 16.7 13.6 17.05 8.55 L17.0 6.05 17.0 5.95 16.6 4.1 Q16.35 3.5 14.7 2.85 13.05 2.2 9.35 2.1 L9.25 2.45 Q8.55 3.3 8.25 4.45" fill="#000000" fill-rule="evenodd" stroke="none"/>
    <path d="M20.15 5.3 L20.2 6.5 18.0 6.15 18.0 6.05 17.45 3.65 Q18.9 4.0 20.15 5.3 M4.05 7.35 Q3.2 3.95 3.25 3.6 6.2 1.75 8.25 2.0 7.55 2.95 7.2 4.15 L7.2 4.25 Q4.35 3.85 4.05 7.35" fill="#bfbfbf" fill-rule="evenodd" stroke="none"/>
    <path d="M20.2 6.5 Q19.65 13.3 14.85 14.35 17.7 13.3 18.05 8.7 L18.0 6.15 20.2 6.5 M9.65 13.5 Q7.15 12.55 5.45 10.25 L4.05 7.35 Q4.35 3.85 7.2 4.25 6.85 5.45 6.75 6.95 L6.75 7.0 Q7.05 11.6 9.65 13.5 M12.15 5.65 L12.45 5.45 13.15 5.25 13.85 5.8 14.05 6.0 Q14.4 6.75 14.35 7.65 14.25 8.5 13.75 9.05 L13.75 9.1 Q13.3 9.6 12.8 9.5 12.3 9.4 11.95 8.8 L11.95 8.75 Q11.55 8.0 11.65 7.15 11.7 6.25 12.15 5.65" fill="#ffffff" fill-rule="evenodd" stroke="none"/>
    <path d="M17.0 5.95 L17.0 6.05 17.05 8.55 Q16.7 13.6 12.75 13.6 8.1 12.9 7.8 7.05 7.85 5.65 8.2 4.55 L8.25 4.45 12.0 5.1 11.85 5.25 Q11.2 5.95 11.15 7.05 11.05 8.1 11.55 8.95 12.0 9.85 12.75 10.0 13.5 10.15 14.15 9.45 14.75 8.8 14.85 7.75 14.9 6.65 14.45 5.75 L14.25 5.5 17.0 5.95 M9.0 5.6 L8.8 7.1 Q9.1 11.9 12.75 12.6 15.7 12.4 16.05 8.4 L16.05 8.35 16.1 6.8 15.8 6.75 15.8 7.9 Q15.65 9.3 14.95 10.2 L14.9 10.15 Q13.95 11.25 12.7 11.0 11.45 10.8 10.75 9.4 10.05 8.3 10.2 6.9 L10.4 5.85 9.0 5.6" fill="#36bb4a" fill-rule="evenodd" stroke="none"/>
    <path d="M8.25 4.45 Q8.55 3.3 9.25 2.45 L9.35 2.1 Q13.05 2.2 14.7 2.85 16.35 3.5 16.6 4.1 L17.0 5.95 14.25 5.5 Q13.85 4.85 13.2 4.75 12.55 4.65 12.0 5.1 L8.25 4.45" fill="#067b31" fill-rule="evenodd" stroke="none"/>
    <path d="M9.0 5.6 L10.4 5.85 10.2 6.9 Q10.05 8.3 10.75 9.4 11.45 10.8 12.7 11.0 13.95 11.25 14.9 10.15 L14.95 10.2 Q15.65 9.3 15.8 7.9 L15.8 6.75 16.1 6.8 16.05 8.35 16.05 8.4 Q15.7 12.4 12.75 12.6 9.1 11.9 8.8 7.1 L9.0 5.6" fill="#91ffcb" fill-rule="evenodd" stroke="none"/>
    <path d="M14.25 5.5 L14.45 5.75 Q14.9 6.65 14.85 7.75 14.75 8.8 14.15 9.45 13.5 10.15 12.75 10.0 12.0 9.85 11.55 8.95 11.05 8.1 11.15 7.05 11.2 5.95 11.85 5.25 L12.0 5.1 Q12.55 4.65 13.2 4.75 13.85 4.85 14.25 5.5 M12.15 5.65 Q11.7 6.25 11.65 7.15 11.55 8.0 11.95 8.75 L11.95 8.8 Q12.3 9.4 12.8 9.5 13.3 9.6 13.75 9.1 L13.75 9.05 Q14.25 8.5 14.35 7.65 14.4 6.75 14.05 6.0 L13.85 5.8 13.15 5.25 12.45 5.45 12.15 5.65" fill="#005f03" fill-rule="evenodd" stroke="none"/>
  </g>
</svg>
