<?xml version="1.0" encoding="UTF-8" standalone="no"?>
<svg xmlns:xlink="http://www.w3.org/1999/xlink" height="116.1px" width="101.5px" xmlns="http://www.w3.org/2000/svg">
  <g transform="matrix(1.0, 0.0, 0.0, 1.0, 13.25, 2.05)">
    <path d="M13.0 25.4 Q8.8 19.8 7.2 8.7 6.25 1.5 10.8 -0.6 L10.95 -0.7 Q15.75 -2.85 26.45 0.45 30.55 1.7 35.5 3.75 19.9 -0.65 13.3 2.85 12.85 3.05 12.5 3.3 8.85 4.35 8.8 7.3 7.2 13.4 13.35 25.0 L13.0 25.4 M26.45 0.45 L18.45 -1.05 14.9 -1.15 14.75 -1.1 13.5 -0.8 13.4 -0.7 26.45 0.45 M67.55 39.05 Q95.45 54.35 84.8 64.8 88.35 59.35 84.45 54.35 85.5 51.95 69.55 42.45 L70.2 45.05 71.45 45.6 Q80.05 65.85 76.4 80.3 L76.35 79.8 Q76.75 62.25 68.0 48.65 69.05 52.8 69.5 56.6 70.5 65.15 66.9 76.4 68.7 63.9 65.8 53.7 67.6 46.55 67.55 39.05 M73.05 65.2 Q74.45 76.05 73.1 83.55 L71.9 69.85 71.05 78.05 71.15 78.85 Q66.7 88.7 66.35 96.4 L66.0 85.4 66.5 83.4 66.0 85.4 65.55 86.75 Q63.0 94.7 57.9 101.1 L61.5 91.2 65.4 80.65 64.85 84.15 Q71.3 73.5 71.05 59.95 L73.05 65.2 M44.25 24.6 L44.15 24.65 51.65 31.75 Q55.85 36.05 59.25 40.15 57.5 36.2 54.3 32.8 49.8 28.05 44.25 24.6 M43.7 49.35 L43.8 48.45 43.5 49.35 42.0 49.3 43.55 45.7 37.4 46.55 37.45 49.05 42.0 49.3 Q39.85 54.7 39.0 60.0 37.7 54.6 37.45 49.05 L36.5 48.95 36.45 47.85 36.4 48.95 36.2 48.9 36.65 46.65 26.0 47.6 36.2 48.9 Q33.3 61.85 30.6 64.35 32.05 57.5 30.05 48.3 24.75 62.2 22.1 75.95 L22.7 58.85 22.75 58.35 24.15 49.0 Q18.25 74.2 10.0 80.85 L8.85 81.2 8.05 81.35 Q13.95 75.25 16.3 62.75 13.95 75.25 8.05 81.35 L8.85 81.2 6.8 89.6 7.75 72.15 6.55 74.7 Q2.95 82.85 1.85 91.3 L1.0 93.1 Q1.2 86.6 -0.75 74.55 L-0.4 73.75 2.7 62.0 2.75 61.75 2.7 62.0 -3.25 75.85 -3.0 58.95 Q3.6 58.9 7.05 57.7 L9.3 56.5 Q11.15 55.15 11.15 53.3 1.6 57.6 -8.55 58.75 L-8.9 58.75 -12.75 58.45 -6.15 57.15 -3.45 56.45 -1.9 55.95 0.55 42.8 -3.15 53.45 2.35 34.35 3.25 32.8 3.35 32.7 Q8.1 28.3 15.9 25.65 L12.2 31.95 Q14.75 28.4 20.45 26.1 30.3 27.5 37.7 31.15 L29.3 25.9 39.65 23.55 23.1 23.55 Q21.55 23.4 17.7 24.35 L27.15 20.25 Q32.15 19.8 38.75 20.05 L39.6 20.1 Q62.55 24.7 67.45 36.35 L67.55 38.1 Q60.05 42.75 45.85 45.3 L46.25 49.35 Q56.35 49.2 62.65 46.4 L63.0 44.8 63.4 46.1 65.3 45.0 65.8 53.7 64.95 56.8 63.15 61.8 Q65.7 54.35 63.4 46.1 L62.65 46.4 Q59.9 59.6 55.45 67.9 L57.45 50.05 Q51.7 65.7 45.3 78.1 47.4 64.45 46.25 49.35 L43.7 49.35 M19.4 85.0 L25.7 88.35 Q28.85 105.4 37.5 113.55 L32.9 109.9 Q30.5 106.7 31.55 107.25 24.35 96.8 20.55 89.4 L22.1 93.95 25.3 102.8 Q23.95 99.9 21.25 96.4 L17.55 88.5 19.4 85.0 M45.85 45.3 L45.45 41.95 43.55 45.7 45.85 45.3 M68.5 54.55 L69.5 56.6 68.5 54.55 M68.35 40.5 L68.25 40.55 71.8 42.6 Q74.0 43.7 76.15 44.3 L73.35 42.45 68.35 40.5 M69.1 44.55 L70.2 45.05 69.1 44.55 M10.4 29.5 L7.75 33.55 Q4.0 39.4 1.65 46.0 0.75 48.55 1.7 50.1 2.3 44.85 4.8 39.95 6.4 36.85 8.5 34.05 10.35 31.65 10.4 29.5 M22.05 30.4 Q22.05 33.3 20.9 36.5 18.7 42.7 14.6 47.7 17.6 45.45 20.0 41.75 23.6 36.2 22.05 30.4 M24.5 46.55 L24.15 49.0 24.5 46.55 M19.95 75.0 L17.25 87.55 14.5 84.55 19.95 75.0 M37.4 46.55 L37.65 41.55 36.65 46.65 37.4 46.55 M16.65 60.75 L19.5 50.7 Q12.1 66.35 2.8 73.25 L1.3 73.8 Q8.65 64.25 13.7 51.05 8.65 64.25 1.3 73.8 L2.8 73.25 Q10.95 70.0 16.3 62.75 L16.65 60.75 M20.1 87.85 L20.55 89.4 20.1 87.85 M71.4 46.0 Q71.6 48.75 72.2 51.9 73.05 56.6 74.7 60.5 L73.65 54.55 71.4 46.0 M71.9 69.55 L71.9 69.85 71.9 69.55 M53.35 49.6 L51.3 57.5 Q49.35 63.85 47.1 69.8 49.55 65.4 51.25 60.2 L52.7 55.8 Q53.75 52.55 53.35 49.6 M70.75 76.55 L71.05 78.05 70.75 76.55 M1.0 70.95 L-0.4 73.75 1.0 70.95 M-1.9 55.95 Q7.45 52.9 9.95 47.65 7.45 52.9 -1.9 55.95" fill="#3c3c3c" fill-rule="evenodd" stroke="none"/>
    <path d="M13.0 25.4 L13.35 25.0 Q7.2 13.4 8.8 7.3 8.85 4.35 12.5 3.3 L11.7 3.85 Q7.9 10.1 13.7 24.7 L13.45 24.9 13.35 25.0 13.45 24.9 13.7 24.7 Q17.55 21.15 27.15 20.25 L17.7 24.35 Q21.55 23.4 23.1 23.55 L39.65 23.55 29.3 25.9 37.7 31.15 Q30.3 27.5 20.45 26.1 14.75 28.4 12.2 31.95 L15.9 25.65 Q8.1 28.3 3.35 32.7 6.3 28.1 13.0 25.4 M84.45 54.35 Q80.95 49.8 71.45 45.6 L70.2 45.05 69.55 42.45 Q85.5 51.95 84.45 54.35 M76.35 79.8 Q75.65 72.65 73.05 65.2 L71.05 59.95 Q71.3 73.5 64.85 84.15 L65.4 80.65 Q66.0 76.1 66.05 71.35 66.0 76.1 65.4 80.65 L61.5 91.2 Q59.3 92.7 57.5 94.35 59.3 92.7 61.5 91.2 L57.9 101.1 54.55 104.85 Q57.15 100.45 57.5 94.35 49.55 101.45 48.9 110.75 47.95 101.7 53.65 93.3 L62.15 87.35 66.05 71.35 66.05 71.05 Q66.05 64.2 64.95 56.8 L65.8 53.7 Q68.7 63.9 66.9 76.4 70.5 65.15 69.5 56.6 L71.05 59.95 69.5 56.6 Q69.05 52.8 68.0 48.65 76.75 62.25 76.35 79.8 M73.1 83.55 Q72.5 86.55 71.55 89.0 72.4 86.3 71.15 78.85 L71.05 78.05 71.9 69.85 73.1 83.55 M66.35 96.4 L66.3 96.9 66.4 99.9 Q63.3 95.75 65.55 86.75 L66.0 85.4 66.35 96.4 M44.25 24.6 Q49.8 28.05 54.3 32.8 57.5 36.2 59.25 40.15 55.85 36.05 51.65 31.75 L44.15 24.65 44.25 24.6 M43.5 49.35 Q39.65 60.35 40.1 69.45 36.75 61.15 36.5 48.95 L37.45 49.05 Q37.7 54.6 39.0 60.0 39.85 54.7 42.0 49.3 L43.5 49.35 M36.4 48.95 Q35.15 63.5 29.3 69.45 L28.85 55.3 Q25.9 72.1 19.4 85.0 L17.55 88.5 16.55 90.15 17.25 87.55 16.55 90.15 17.55 88.5 21.25 96.4 18.25 92.75 Q17.15 96.9 18.85 99.3 12.6 94.5 9.15 82.9 7.05 93.25 8.3 100.1 5.05 90.05 5.6 80.3 4.15 86.05 1.85 91.3 2.95 82.85 6.55 74.7 6.3 77.6 5.6 80.3 6.3 77.6 6.55 74.7 L7.75 72.15 6.8 89.6 8.85 81.2 10.0 80.85 Q18.25 74.2 24.15 49.0 L22.75 58.35 22.7 58.85 22.1 75.95 Q24.75 62.2 30.05 48.3 32.05 57.5 30.6 64.35 33.3 61.85 36.2 48.9 L36.4 48.95 M32.9 109.9 Q25.9 103.5 22.1 93.95 L20.55 89.4 Q24.35 96.8 31.55 107.25 30.5 106.7 32.9 109.9 M-0.75 74.55 Q-3.6 81.35 -3.2 88.65 -6.95 73.1 -4.05 59.15 L-4.05 59.1 -4.0 58.95 -4.5 58.95 Q-6.5 63.95 -7.15 68.9 -7.2 63.85 -6.45 58.85 L-8.55 58.75 Q1.6 57.6 11.15 53.3 11.15 55.15 9.3 56.5 L7.05 57.7 Q3.6 58.9 -3.0 58.95 L-4.0 58.95 -3.0 58.95 -3.25 75.85 2.7 62.0 -0.4 73.75 -0.75 74.55 M-6.15 57.15 Q-4.1 45.45 2.35 34.35 L-3.15 53.45 -3.25 53.7 -3.15 53.45 0.55 42.8 -1.9 55.95 -3.45 56.45 -3.4 56.35 -1.9 53.25 -3.4 56.35 -3.45 56.45 -6.15 57.15 M45.85 45.3 L43.55 45.7 45.45 41.95 45.85 45.3 M43.7 49.35 L46.25 49.35 Q47.4 64.45 45.3 78.1 51.7 65.7 57.45 50.05 L55.45 67.9 Q59.9 59.6 62.65 46.4 L63.4 46.1 Q65.7 54.35 63.15 61.8 L60.45 67.45 Q62.3 62.65 61.15 55.65 58.6 70.75 46.25 82.3 54.45 71.15 55.0 58.15 51.0 78.2 38.35 88.75 44.55 80.75 43.0 67.55 42.55 58.0 43.7 49.35 M22.05 30.4 Q23.6 36.2 20.0 41.75 17.6 45.45 14.6 47.7 18.7 42.7 20.9 36.5 22.05 33.3 22.05 30.4 M10.4 29.5 Q10.35 31.65 8.5 34.05 6.4 36.85 4.8 39.95 2.3 44.85 1.7 50.1 0.75 48.55 1.65 46.0 4.0 39.4 7.75 33.55 L10.4 29.5 M19.95 75.0 L21.55 65.95 21.85 64.1 22.7 58.85 21.85 64.1 21.55 65.95 19.95 75.0 14.5 84.55 17.25 87.55 19.95 75.0 M37.4 46.55 L36.65 46.65 37.65 41.55 37.4 46.55 M21.55 65.95 Q19.2 77.85 10.0 80.85 19.2 77.85 21.55 65.95 M2.8 73.25 Q12.1 66.35 19.5 50.7 L16.65 60.75 16.3 62.75 Q10.95 70.0 2.8 73.25 M17.25 55.7 L16.65 60.75 17.25 55.7 M11.45 85.7 Q15.35 89.45 18.25 92.75 15.35 89.45 11.45 85.7 M61.15 55.65 L61.3 54.95 61.6 52.25 61.3 54.95 61.15 55.65 M-4.5 58.95 L-6.45 58.85 -4.5 58.95" fill="#121212" fill-rule="evenodd" stroke="none"/>
    <path d="M26.45 0.45 L13.4 -0.7 13.5 -0.8 14.75 -1.1 14.9 -1.15 18.45 -1.05 26.45 0.45 M42.0 49.3 L37.45 49.05 37.4 46.55 43.55 45.7 42.0 49.3 M65.8 53.7 L65.3 45.0 63.4 46.1 63.0 44.8 62.65 46.4 Q56.35 49.2 46.25 49.35 L45.85 45.3 Q60.05 42.75 67.55 38.1 L67.55 39.05 Q67.6 46.55 65.8 53.7 M68.35 40.5 L73.35 42.45 76.15 44.3 Q74.0 43.7 71.8 42.6 L68.25 40.55 68.35 40.5 M36.2 48.9 L26.0 47.6 36.65 46.65 36.2 48.9 M71.4 46.0 L73.65 54.55 74.7 60.5 Q73.05 56.6 72.2 51.9 71.6 48.75 71.4 46.0 M53.35 49.6 Q53.75 52.55 52.7 55.8 L51.25 60.2 Q49.55 65.4 47.1 69.8 49.35 63.85 51.3 57.5 L53.35 49.6" fill="#8e8e8e" fill-rule="evenodd" stroke="none"/>
    <path d="M26.45 0.45 Q15.75 -2.85 10.95 -0.7 L10.8 -0.6 Q6.25 1.5 7.2 8.7 8.8 19.8 13.0 25.4 L13.35 25.0 13.45 24.9 13.7 24.7 Q7.9 10.1 11.7 3.85 L12.5 3.3 Q12.85 3.05 13.3 2.85 19.9 -0.65 35.5 3.75 30.55 1.7 26.45 0.45 M67.55 39.05 Q95.45 54.35 84.8 64.8 88.35 59.35 84.45 54.35 80.95 49.8 71.45 45.6 80.05 65.85 76.4 80.3 L76.35 79.8 Q75.65 72.65 73.05 65.2 74.45 76.05 73.1 83.55 72.5 86.55 71.55 89.0 72.4 86.3 71.15 78.85 66.7 88.7 66.35 96.4 L66.3 96.9 66.4 99.9 Q63.3 95.75 65.55 86.75 63.0 94.7 57.9 101.1 L57.3 102.65 M43.7 49.35 L43.8 48.45 43.5 49.35 Q39.65 60.35 40.1 69.45 36.75 61.15 36.5 48.95 L36.45 47.85 36.4 48.95 Q35.15 63.5 29.3 69.45 L28.85 55.3 Q25.9 72.1 19.4 85.0 L25.7 88.35 Q28.85 105.4 37.5 113.55 L32.9 109.9 Q25.9 103.5 22.1 93.95 L25.3 102.8 Q23.95 99.9 21.25 96.4 L18.25 92.75 Q17.15 96.9 18.85 99.3 12.6 94.5 9.15 82.9 7.05 93.25 8.3 100.1 5.05 90.05 5.6 80.3 4.15 86.05 1.85 91.3 L1.0 93.1 M-0.75 74.55 Q-3.6 81.35 -3.2 88.65 -6.95 73.1 -4.05 59.15 L-4.05 59.1 -4.0 58.95 -4.5 58.95 Q-6.5 63.95 -7.15 68.9 -7.2 63.85 -6.45 58.85 L-8.55 58.75 -8.9 58.75 -12.75 58.45 -6.15 57.15 Q-4.1 45.45 2.35 34.35 L3.25 32.8 3.35 32.7 Q6.3 28.1 13.0 25.4 M65.8 53.7 Q67.6 46.55 67.55 39.05 L67.55 38.1 67.45 36.35 Q62.55 24.7 39.6 20.1 L38.75 20.05 Q32.15 19.8 27.15 20.25 17.55 21.15 13.7 24.7 M63.15 61.8 L64.95 56.8 65.8 53.7 M69.5 56.6 L68.5 54.55 M70.2 45.05 L69.1 44.55 M71.45 45.6 L70.2 45.05 M24.15 49.0 L24.5 46.55 M22.7 58.85 L21.85 64.1 21.55 65.95 19.95 75.0 17.25 87.55 16.55 90.15 17.55 88.5 19.4 85.0 M22.7 58.85 L22.75 58.35 24.15 49.0 M10.0 80.85 Q19.2 77.85 21.55 65.95 M16.65 60.75 L16.3 62.75 Q13.95 75.25 8.05 81.35 L8.85 81.2 10.0 80.85 M16.65 60.75 L17.25 55.7 M-3.0 58.95 Q3.6 58.9 7.05 57.7 L9.3 56.5 M2.8 73.25 L1.3 73.8 Q8.65 64.25 13.7 51.05 M2.7 62.0 L2.75 61.75 M16.3 62.75 Q10.95 70.0 2.8 73.25 M19.95 75.0 L14.5 84.55 17.25 87.55 M5.6 80.3 Q6.3 77.6 6.55 74.7 L7.75 72.15 6.8 89.6 8.85 81.2 M18.25 92.75 Q15.35 89.45 11.45 85.7 M22.1 93.95 L20.55 89.4 20.1 87.85 M17.55 88.5 L21.25 96.4 M61.6 52.25 L61.3 54.95 61.15 55.65 Q62.3 62.65 60.45 67.45 L63.15 61.8 M64.95 56.8 Q66.05 64.2 66.05 71.05 L66.05 71.35 Q66.0 76.1 65.4 80.65 L64.85 84.15 Q71.3 73.5 71.05 59.95 L69.5 56.6 M71.9 69.85 L71.9 69.55 M73.05 65.2 L71.05 59.95 M71.15 78.85 L71.05 78.05 70.75 76.55 M66.0 85.4 L66.5 83.4 M65.55 86.75 L66.0 85.4 M57.5 94.35 Q59.3 92.7 61.5 91.2 M57.9 101.1 L54.55 104.85 Q57.15 100.45 57.5 94.35 49.55 101.45 48.9 110.75 47.95 101.7 53.65 93.3 L62.15 87.35 66.05 71.35 M71.05 78.05 L71.9 69.85 M61.15 55.65 Q58.6 70.75 46.25 82.3 54.45 71.15 55.0 58.15 51.0 78.2 38.35 88.75 44.55 80.75 43.0 67.55 42.55 58.0 43.7 49.35 M-3.15 53.45 L-3.25 53.7 M-1.9 53.25 L-3.4 56.35 -3.45 56.45 -1.9 55.95 Q7.45 52.9 9.95 47.65 M-3.15 53.45 L2.35 34.35 M-4.0 58.95 L-3.0 58.95 M2.7 62.0 L-0.4 73.75 1.0 70.95 M-6.45 58.85 L-4.5 58.95 M-3.45 56.45 L-6.15 57.15 M-0.75 74.55 L-0.4 73.75" fill="none" stroke="#000000" stroke-linecap="round" stroke-linejoin="round" stroke-width="1.0"/>
  </g>
</svg>
