<?xml version="1.0" encoding="UTF-8" standalone="no"?>
<svg xmlns:xlink="http://www.w3.org/1999/xlink" height="73.7px" width="107.65px" xmlns="http://www.w3.org/2000/svg">
  <g transform="matrix(1.0, 0.0, 0.0, 1.0, 0.0, 36.85)">
    <path d="M11.5 36.0 Q13.7 32.45 15.5 28.65 18.95 21.4 23.5 14.9 29.75 6.05 32.4 -4.4 33.05 -6.9 34.1 -9.3 36.8 -15.5 37.55 -21.95 L37.4 -22.1 37.2 -22.2 36.9 -22.05 36.8 -21.95 Q36.8 -20.0 36.1 -18.15 32.6 -9.0 29.75 0.45 28.65 4.1 26.65 7.3 21.95 14.95 17.9 22.8 14.45 29.5 10.6 35.9 5.85 35.45 0.9 36.05 L0.0 36.15 36.85 -28.8 65.05 -36.85 Q76.55 -1.8 107.65 26.5 98.9 26.05 104.1 35.2 L101.8 34.7 Q102.0 30.5 100.75 26.35 98.5 18.9 93.05 13.4 L92.8 13.35 92.5 13.35 Q92.25 13.35 92.1 13.55 L92.05 13.75 92.05 13.8 Q94.95 16.45 97.05 19.85 101.15 26.45 100.65 34.2 L100.65 34.45 93.45 33.0 91.65 28.5 Q87.9 18.45 82.6 9.15 77.25 -0.2 73.3 -9.95 L73.15 -9.9 72.95 -9.75 72.85 -9.7 Q76.05 0.05 81.4 8.85 84.3 13.55 86.35 18.75 L92.0 32.75 77.85 31.1 76.45 28.75 Q72.55 22.45 72.05 15.1 71.45 5.8 70.1 -3.4 L67.1 -24.3 66.9 -24.5 66.75 -24.55 66.4 -24.4 66.3 -24.3 Q66.85 -17.7 68.15 -11.15 70.2 -0.95 70.25 9.6 70.3 18.05 74.1 25.35 L76.9 31.05 Q62.4 30.25 50.85 33.2 L48.45 33.8 48.35 33.45 Q47.35 31.9 47.1 30.15 45.8 19.4 48.6 9.0 50.75 1.25 51.7 -6.65 52.95 -17.15 52.95 -27.8 L52.8 -27.95 52.6 -28.0 52.45 -27.95 52.25 -27.8 52.2 -27.75 51.95 -17.15 Q51.65 -8.35 49.45 0.0 46.75 10.4 45.7 21.0 45.15 26.5 46.45 31.7 46.9 33.45 48.1 33.9 38.15 36.2 28.95 36.7 29.8 26.9 33.65 17.75 L38.5 5.3 41.6 -4.65 Q44.5 -14.85 45.35 -25.3 L45.2 -25.45 45.0 -25.55 44.85 -25.5 44.65 -25.35 44.6 -25.3 Q44.55 -22.35 43.9 -19.55 L39.0 0.65 Q37.05 8.45 33.75 15.8 29.25 25.8 27.75 36.5 L27.75 36.75 11.5 36.0 M60.8 -26.6 L60.65 -26.55 60.5 -26.5 60.4 -26.4 Q60.05 -21.0 60.3 -15.55 60.8 -4.8 59.5 5.8 L59.0 9.05 Q57.05 20.3 61.4 30.6 L61.75 31.3 63.1 31.2 62.3 29.5 Q60.85 26.95 60.5 24.1 59.2 13.55 60.55 2.85 61.05 -1.15 60.95 -5.15 60.7 -15.8 61.2 -26.35 L61.0 -26.5 60.8 -26.6" fill="#1e0808" fill-rule="evenodd" stroke="none"/>
    <path d="M10.6 35.9 Q14.45 29.5 17.9 22.8 21.95 14.95 26.65 7.3 28.65 4.1 29.75 0.45 32.6 -9.0 36.1 -18.15 36.8 -20.0 36.8 -21.95 L36.9 -22.05 37.2 -22.2 37.4 -22.1 37.55 -21.95 Q36.8 -15.5 34.1 -9.3 33.05 -6.9 32.4 -4.4 29.75 6.05 23.5 14.9 18.95 21.4 15.5 28.65 13.7 32.45 11.5 36.0 L11.3 35.95 11.25 35.95 11.1 35.95 10.6 35.9 M27.75 36.75 L27.75 36.5 Q29.25 25.8 33.75 15.8 37.05 8.45 39.0 0.65 L43.9 -19.55 Q44.55 -22.35 44.6 -25.3 L44.65 -25.35 44.85 -25.5 45.0 -25.55 45.2 -25.45 45.35 -25.3 Q44.5 -14.85 41.6 -4.65 L38.5 5.3 33.65 17.75 Q29.8 26.9 28.95 36.7 L27.75 36.75 M48.1 33.9 Q46.9 33.45 46.45 31.7 45.15 26.5 45.7 21.0 46.75 10.4 49.45 0.0 51.65 -8.35 51.95 -17.15 L52.2 -27.75 52.25 -27.8 52.45 -27.95 52.6 -28.0 52.8 -27.95 52.95 -27.8 Q52.95 -17.15 51.7 -6.65 50.75 1.25 48.6 9.0 45.8 19.4 47.1 30.15 47.35 31.9 48.35 33.45 L48.45 33.8 48.1 33.9 M76.9 31.05 L74.1 25.35 Q70.3 18.05 70.25 9.6 70.2 -0.95 68.15 -11.15 66.85 -17.7 66.3 -24.3 L66.4 -24.4 66.75 -24.55 66.9 -24.5 67.1 -24.3 70.1 -3.4 Q71.45 5.8 72.05 15.1 72.55 22.45 76.45 28.75 L77.85 31.1 76.9 31.05 M92.0 32.75 L86.35 18.75 Q84.3 13.55 81.4 8.85 76.05 0.05 72.85 -9.7 L72.95 -9.75 73.15 -9.9 73.3 -9.95 Q77.25 -0.2 82.6 9.15 87.9 18.45 91.65 28.5 L93.45 33.0 92.0 32.75 M100.65 34.45 L100.65 34.2 Q101.15 26.45 97.05 19.85 94.95 16.45 92.05 13.8 L92.05 13.75 92.1 13.55 Q92.25 13.35 92.5 13.35 L92.8 13.35 93.05 13.4 Q98.5 18.9 100.75 26.35 102.0 30.5 101.8 34.7 L100.65 34.45 M60.8 -26.6 L61.0 -26.5 61.2 -26.35 Q60.7 -15.8 60.95 -5.15 61.05 -1.15 60.55 2.85 59.2 13.55 60.5 24.1 60.85 26.95 62.3 29.5 L63.1 31.2 61.75 31.3 61.4 30.6 Q57.05 20.3 59.0 9.05 L59.5 5.8 Q60.8 -4.8 60.3 -15.55 60.05 -21.0 60.4 -26.4 L60.5 -26.5 60.65 -26.55 60.8 -26.6" fill="#000000" fill-rule="evenodd" stroke="none"/>
    <path d="M11.1 35.95 L11.25 35.95 11.3 35.95 M11.5 36.0 L27.75 36.75 28.95 36.7 Q38.15 36.2 48.1 33.9 L48.45 33.8 50.85 33.2 Q62.4 30.25 76.9 31.05 M77.85 31.1 L92.0 32.75 93.45 33.0 100.65 34.45 101.8 34.7 104.1 35.2 Q98.9 26.05 107.65 26.5 76.55 -1.8 65.05 -36.85 L36.85 -28.8 0.0 36.15 0.9 36.05 Q5.85 35.45 10.6 35.9" fill="none" stroke="#000000" stroke-linecap="round" stroke-linejoin="round" stroke-width="0.05"/>
  </g>
</svg>
