<?xml version="1.0" encoding="UTF-8" standalone="no"?>
<svg xmlns:xlink="http://www.w3.org/1999/xlink" height="96.4px" width="83.15px" xmlns="http://www.w3.org/2000/svg">
  <g transform="matrix(1.0, 0.0, 0.0, 1.0, 0.5, 48.2)">
    <path d="M78.05 -15.9 Q79.5 -17.2 81.05 -20.35 L81.75 -21.85 Q83.55 -29.9 77.35 -39.45 81.85 -29.3 75.55 -19.4 L76.0 -20.9 76.3 -23.75 76.2 -25.45 Q75.95 -27.6 75.0 -29.85 70.75 -39.9 59.5 -45.1 65.95 -40.1 67.9 -34.55 L68.15 -33.75 68.25 -33.35 Q68.8 -31.25 68.7 -29.05 63.3 -34.75 50.25 -37.85 40.8 -40.25 37.0 -47.7 L36.8 -46.45 Q35.1 -36.35 44.35 -28.0 L41.8 -28.85 Q30.05 -30.2 23.5 -32.85 L23.9 -32.35 Q26.7 -28.9 33.75 -25.2 22.8 -23.45 18.5 -19.0 13.15 -13.6 4.05 -14.95 L5.05 -13.85 Q11.35 -7.6 24.85 -14.0 L25.15 -14.15 Q15.1 -8.15 12.7 -0.3 9.7 12.35 0.0 16.35 L0.6 16.6 Q9.75 19.8 18.9 6.95 19.65 11.3 16.3 18.4 11.5 27.65 13.1 36.85 13.1 31.55 17.1 28.85 19.45 27.9 20.5 25.0 17.5 39.95 24.55 47.7 22.4 41.8 29.15 31.25 29.55 37.6 28.35 39.25 38.3 30.4 41.4 16.35 40.75 32.65 33.75 37.05 L36.3 35.95 Q42.35 32.55 47.45 22.2 48.6 25.35 47.85 28.0 49.45 25.7 49.6 22.55 L49.85 27.6 Q53.6 20.95 59.15 18.2 L65.85 16.95 66.2 16.6 66.25 16.55 66.85 15.85 69.9 11.45 Q71.8 7.9 72.75 3.85 74.0 6.5 74.15 8.15 L74.15 9.15 74.15 9.2 Q79.15 1.55 76.55 -8.15 L77.3 -7.6 79.75 -4.7 79.8 -4.55 79.9 -4.45 80.1 -4.1 80.55 -3.3 Q80.85 -5.15 80.45 -7.25 79.7 -10.8 76.95 -15.15 L77.75 -15.65 78.05 -15.9 Z" fill="none" stroke="#000000" stroke-linecap="round" stroke-linejoin="round" stroke-width="1.0"/>
  </g>
</svg>
