<?xml version="1.0" encoding="UTF-8" standalone="no"?>
<svg xmlns:xlink="http://www.w3.org/1999/xlink" height="36.65px" width="26.85px" xmlns="http://www.w3.org/2000/svg">
  <g transform="matrix(1.0, 0.0, 0.0, 1.0, 13.5, 1.7)">
    <path d="M9.95 34.15 Q9.8 31.6 9.2 30.4 7.85 14.35 2.9 0.0 9.1 1.15 10.6 11.55 12.1 21.9 12.65 27.75 13.2 32.85 9.95 34.15" fill="#3c3c3c" fill-rule="evenodd" stroke="none"/>
    <path d="M2.9 0.0 Q7.85 14.35 9.2 30.4 9.8 31.6 9.95 34.15 L4.7 34.45 Q-0.2 34.55 0.2 30.15 0.6 25.75 0.55 20.35 0.5 14.95 -0.65 7.6 -1.85 0.2 2.9 0.0" fill="#151515" fill-rule="evenodd" stroke="none"/>
    <path d="M9.95 34.15 Q13.2 32.85 12.65 27.75 12.1 21.9 10.6 11.55 9.1 1.15 2.9 0.0 -1.85 0.2 -0.65 7.6 0.5 14.95 0.55 20.35 0.6 25.75 0.2 30.15 -0.2 34.55 4.7 34.45 L9.95 34.15 Z" fill="none" stroke="#000000" stroke-linecap="round" stroke-linejoin="round" stroke-width="1.0"/>
    <path d="M4.9 12.85 Q4.7 11.95 6.5 11.55 L9.9 11.3 Q8.85 10.2 6.85 9.05 5.15 4.75 7.8 1.2 L9.45 2.95 12.1 11.95 4.9 12.85" fill="#a33030" fill-rule="evenodd" stroke="none"/>
    <path d="M4.9 12.85 L12.1 11.95 12.85 14.65 Q8.25 16.15 4.0 16.4 L4.9 12.85" fill="#3c3c3c" fill-rule="evenodd" stroke="none"/>
    <path d="M7.8 1.2 Q5.15 4.75 6.85 9.05 8.85 10.2 9.9 11.3 L6.5 11.55 Q4.7 11.95 4.9 12.85 -4.05 13.15 -10.1 8.7 L-1.0 -1.0 Q4.25 -1.85 7.8 1.2" fill="#661717" fill-rule="evenodd" stroke="none"/>
    <path d="M-10.1 8.7 Q-4.05 13.15 4.9 12.85 L4.0 16.4 Q-5.4 17.05 -13.0 11.75 L-10.1 8.7" fill="#151515" fill-rule="evenodd" stroke="none"/>
    <path d="M7.8 1.2 Q4.25 -1.85 -1.0 -1.0 L-10.1 8.7 Q-4.05 13.15 4.9 12.85 L12.1 11.95 9.45 2.95 7.8 1.2 M4.0 16.4 Q-5.4 17.05 -13.0 11.75 L-10.1 8.7 M12.1 11.95 L12.85 14.65 Q8.25 16.15 4.0 16.4" fill="none" stroke="#000000" stroke-linecap="round" stroke-linejoin="round" stroke-width="1.0"/>
    <path d="M3.9 16.8 L4.0 16.4" fill="none" stroke="#000000" stroke-linecap="round" stroke-linejoin="round" stroke-width="0.05"/>
  </g>
</svg>
