<?xml version="1.0" encoding="UTF-8" standalone="no"?>
<svg xmlns:xlink="http://www.w3.org/1999/xlink" height="82.25px" width="39.7px" xmlns="http://www.w3.org/2000/svg">
  <g transform="matrix(1.0, 0.0, 0.0, 1.0, 2.8, 1.65)">
    <path d="M34.2 72.95 Q32.3 77.2 26.7 78.3 24.55 79.75 21.9 80.1 10.3 79.2 5.7 74.6 21.7 75.25 34.2 72.95" fill="#2d69d0" fill-rule="evenodd" stroke="none"/>
    <path d="M35.1 66.75 Q35.35 70.3 34.2 72.95 21.7 75.25 5.7 74.6 2.7 71.6 2.6 67.05 L6.1 67.05 35.1 66.75" fill="#053091" fill-rule="evenodd" stroke="none"/>
    <path d="M20.95 12.6 L26.55 16.75 Q29.7 20.35 31.4 27.2 33.05 34.05 32.75 46.45 32.65 50.25 33.5 54.25 L35.1 66.75 6.1 67.05 Q5.8 58.9 8.65 51.55 10.0 44.9 5.4 32.05 1.2 23.95 2.85 17.05 5.4 15.8 6.75 14.55 L10.45 10.25 Q18.2 14.95 20.95 12.6 M22.2 25.45 L22.2 31.65 Q18.7 34.85 10.45 35.2 24.75 35.85 31.75 33.95 26.7 33.95 25.15 31.5 L22.2 25.45 M25.35 58.45 L26.1 59.15 26.1 54.55 Q25.25 55.65 25.05 56.85 24.85 58.0 25.35 58.45" fill="#f7d0b3" fill-rule="evenodd" stroke="none"/>
    <path d="M2.6 67.05 Q2.55 63.25 5.15 54.95 7.7 46.65 4.85 39.2 0.6 31.65 -0.55 26.0 -1.75 20.35 0.7 17.35 2.1 15.65 4.65 14.6 7.6 13.35 7.95 11.95 L8.5 9.0 Q9.1 5.55 8.95 0.25 10.25 -1.5 14.55 -1.1 18.1 -1.05 20.85 2.2 19.7 8.05 20.95 12.6 18.2 14.95 10.45 10.25 L6.75 14.55 Q5.4 15.8 2.85 17.05 1.2 23.95 5.4 32.05 10.0 44.9 8.65 51.55 5.8 58.9 6.1 67.05 L2.6 67.05 M22.2 25.45 L25.15 31.5 Q26.7 33.95 31.75 33.95 24.75 35.85 10.45 35.2 18.7 34.85 22.2 31.65 L22.2 25.45 M25.35 58.45 Q24.85 58.0 25.05 56.85 25.25 55.65 26.1 54.55 L26.1 59.15 25.35 58.45" fill="#cd9e87" fill-rule="evenodd" stroke="none"/>
    <path d="M2.6 67.05 Q2.55 63.25 5.15 54.95 7.7 46.65 4.85 39.2 0.6 31.65 -0.55 26.0 -1.75 20.35 0.7 17.35 2.1 15.65 4.65 14.6 7.6 13.35 7.95 11.95 L8.5 9.0 Q9.1 5.55 8.95 0.25 10.25 -1.5 14.55 -1.1 18.1 -1.05 20.85 2.2 19.7 8.05 20.95 12.6 L26.55 16.75 Q29.7 20.35 31.4 27.2 33.05 34.05 32.75 46.45 32.65 50.25 33.5 54.25 L35.1 66.75 6.1 67.05 2.6 67.05 Q2.7 71.6 5.7 74.6 10.3 79.2 21.9 80.1 24.55 79.75 26.7 78.3" fill="none" stroke="#000000" stroke-linecap="round" stroke-linejoin="round" stroke-width="1.0"/>
    <path d="M23.9 12.2 L29.45 15.7 Q34.65 30.1 34.05 43.95 L36.4 67.5 9.25 67.85 9.4 57.7 12.0 55.85 Q14.05 49.9 16.7 44.4 L16.75 44.3 16.9 43.9 Q17.9 41.45 19.3 39.35 17.95 41.75 16.75 44.3 17.95 41.75 19.3 39.35 21.65 35.0 24.45 31.0 L24.45 31.05 Q27.55 22.0 23.9 12.2 M10.6 13.7 Q15.15 19.95 20.65 23.35 L19.85 25.5 19.85 25.65 Q13.9 21.55 10.1 14.3 L10.6 13.7 M21.35 23.75 Q21.95 19.35 21.55 13.55 L21.95 14.9 21.6 14.15 21.75 18.05 21.9 18.5 Q23.25 22.6 22.35 27.0 L22.35 27.15 22.7 27.35 20.85 26.3 21.35 23.75 M22.55 30.1 L23.4 30.5 22.95 31.3 21.0 34.5 16.9 41.4 Q14.35 45.75 12.9 50.9 12.05 53.9 10.1 56.3 L9.45 57.2 9.45 57.45 Q10.1 48.6 7.55 39.05 4.1 27.3 6.45 18.8 7.0 20.2 11.0 24.6 L13.85 27.95 11.25 23.35 7.75 17.2 8.35 16.5 Q13.0 24.7 21.6 29.55 L22.55 30.1 M22.5 30.4 L19.95 32.05 14.05 35.65 15.45 35.5 Q18.45 34.15 21.25 32.45 23.0 31.35 22.5 30.4 M30.5 23.0 Q30.25 24.9 30.25 27.45 30.15 35.9 25.55 42.85 21.35 49.15 14.5 52.35 21.7 50.05 25.9 43.55 32.05 34.0 30.5 23.0" fill="#a33030" fill-rule="evenodd" stroke="none"/>
    <path d="M22.65 11.4 L23.9 12.2 Q27.55 22.0 24.45 31.05 L24.45 31.0 23.55 30.6 23.4 30.5 22.55 30.1 22.85 29.55 Q25.45 24.35 24.0 18.55 23.6 16.95 23.65 15.4 23.7 13.3 23.05 11.65 L22.65 11.4 M22.3 28.45 L21.8 28.15 Q14.15 23.15 8.6 16.15 L10.1 14.3 Q13.9 21.55 19.85 25.65 L20.85 26.3 22.7 27.35 22.95 27.45 22.3 28.45" fill="#3c3c3c" fill-rule="evenodd" stroke="none"/>
    <path d="M9.25 67.85 L1.25 67.95 1.9 63.2 3.8 48.3 Q4.15 43.3 0.75 34.35 -4.65 24.45 -0.5 15.85 1.45 12.3 5.5 10.3 6.65 13.6 8.35 16.5 L7.75 17.2 11.25 23.35 13.85 27.95 11.0 24.6 Q7.0 20.2 6.45 18.8 4.1 27.3 7.55 39.05 10.1 48.6 9.45 57.45 L9.45 57.2 10.1 56.3 Q12.05 53.9 12.9 50.9 14.35 45.75 16.9 41.4 L21.0 34.5 22.95 31.3 23.4 30.5 23.55 30.6 24.45 31.0 Q21.65 35.0 19.3 39.35 17.9 41.45 16.9 43.9 L16.75 44.3 16.7 44.4 Q14.05 49.9 12.0 55.85 L9.4 57.7 9.25 67.85 M8.1 9.95 L10.6 13.7 10.1 14.3 8.1 9.95 M20.65 23.35 L21.35 23.75 20.85 26.3 19.85 25.65 19.85 25.5 20.65 23.35 M22.7 27.35 L22.35 27.15 22.35 27.0 Q23.25 22.6 21.9 18.5 L21.75 18.05 21.6 14.15 21.95 14.9 Q24.6 24.05 22.95 27.45 L22.7 27.35 M22.5 30.4 Q23.0 31.35 21.25 32.45 18.45 34.15 15.45 35.5 L14.05 35.65 19.95 32.05 22.5 30.4 M30.5 23.0 Q32.05 34.0 25.9 43.55 21.7 50.05 14.5 52.35 21.35 49.15 25.55 42.85 30.15 35.9 30.25 27.45 30.25 24.9 30.5 23.0 M1.9 63.2 L9.4 57.7 1.9 63.2" fill="#661717" fill-rule="evenodd" stroke="none"/>
    <path d="M5.5 10.3 Q6.85 9.65 7.6 8.65 L8.1 9.95 10.1 14.3 8.6 16.15 Q14.15 23.15 21.8 28.15 L22.3 28.45 22.95 27.45 Q24.6 24.05 21.95 14.9 L21.55 13.55 20.35 9.95 22.55 11.35 22.65 11.4 23.05 11.65 Q23.7 13.3 23.65 15.4 23.6 16.95 24.0 18.55 25.45 24.35 22.85 29.55 L22.55 30.1 21.6 29.55 22.3 28.45 21.6 29.55 Q13.0 24.7 8.35 16.5 6.65 13.6 5.5 10.3" fill="#151515" fill-rule="evenodd" stroke="none"/>
    <path d="M22.65 11.4 L23.9 12.2 29.45 15.7 Q34.65 30.1 34.05 43.95 L36.4 67.5 9.25 67.85 1.25 67.95 1.9 63.2 3.8 48.3 Q4.15 43.3 0.75 34.35 -4.65 24.45 -0.5 15.85 1.45 12.3 5.5 10.3 6.85 9.65 7.6 8.65 L8.1 9.95 10.6 13.7 Q15.15 19.95 20.65 23.35 L21.35 23.75 Q21.95 19.35 21.55 13.55 L20.35 9.95 22.55 11.35 22.65 11.4 M22.55 30.1 L23.4 30.5 M23.55 30.6 L24.45 31.0 24.45 31.05 Q27.55 22.0 23.9 12.2 M21.95 14.9 L21.55 13.55 M8.35 16.5 Q6.65 13.6 5.5 10.3 M22.3 28.45 L22.95 27.45 22.7 27.35 20.85 26.3 19.85 25.65 Q13.9 21.55 10.1 14.3 L8.1 9.95 M16.75 44.3 Q17.95 41.75 19.3 39.35 21.65 35.0 24.45 31.0 M16.75 44.3 L16.7 44.4 Q14.05 49.9 12.0 55.85 L9.4 57.7 1.9 63.2 M22.95 27.45 Q24.6 24.05 21.95 14.9 M22.3 28.45 L21.6 29.55 Q13.0 24.7 8.35 16.5 M21.35 23.75 L20.85 26.3" fill="none" stroke="#000000" stroke-linecap="round" stroke-linejoin="round" stroke-width="1.0"/>
  </g>
</svg>
