<?xml version="1.0" encoding="UTF-8" standalone="no"?>
<svg xmlns:xlink="http://www.w3.org/1999/xlink" height="51.5px" width="31.45px" xmlns="http://www.w3.org/2000/svg">
  <g transform="matrix(1.0, 0.0, 0.0, 1.0, 0.35, -1.3)">
    <path d="M14.5 3.95 Q17.4 3.0 21.25 4.05 26.3 5.35 25.7 5.8 24.4 10.35 21.9 15.85 L11.15 12.2 Q12.6 8.0 14.5 3.95" fill="#f7d0b3" fill-rule="evenodd" stroke="none"/>
    <path d="M14.5 3.95 Q12.6 8.0 11.15 12.2 L9.35 11.6 Q10.75 7.75 12.85 4.7 13.65 4.25 14.5 3.95" fill="#cd9e87" fill-rule="evenodd" stroke="none"/>
    <path d="M11.15 12.2 L21.9 15.85 Q19.8 20.4 16.8 27.95 L11.4 40.8 11.5 41.15 11.8 42.1 Q14.1 46.6 13.85 50.1 12.45 52.55 8.5 52.3 4.1 52.35 2.0 51.05 L2.05 46.05 2.8 43.55 3.65 39.85 3.7 39.75 3.75 39.7 3.8 39.65 Q7.25 31.2 7.85 24.95 9.0 18.4 11.15 12.2 M11.8 42.1 Q10.5 40.95 8.65 40.75 4.6 40.45 2.8 43.55 4.6 40.45 8.65 40.75 10.5 40.95 11.8 42.1 M11.25 39.85 L11.4 40.8 11.25 39.85" fill="#563628" fill-rule="evenodd" stroke="none"/>
    <path d="M2.0 51.05 Q0.7 50.25 0.25 48.95 -0.2 46.0 1.1 41.9 L2.0 39.85 2.05 39.7 2.1 39.65 2.15 39.65 Q4.75 35.05 5.55 29.0 6.55 21.5 8.15 15.35 L9.35 11.6 11.15 12.2 Q9.0 18.4 7.85 24.95 7.25 31.2 3.8 39.65 L3.75 39.7 3.7 39.75 3.65 39.85 2.8 43.55 2.05 46.05 2.0 51.05" fill="#2c1b14" fill-rule="evenodd" stroke="none"/>
    <path d="M21.9 15.85 Q24.4 10.35 25.7 5.8 M21.9 15.85 Q19.8 20.4 16.8 27.95 L11.4 40.8 11.5 41.15 11.8 42.1 Q14.1 46.6 13.85 50.1 12.45 52.55 8.5 52.3 4.1 52.35 2.0 51.05 0.7 50.25 0.25 48.95 -0.2 46.0 1.1 41.9 L2.0 39.85 2.05 39.7 M2.15 39.65 Q4.75 35.05 5.55 29.0 6.55 21.5 8.15 15.35 L9.35 11.6 Q10.75 7.75 12.85 4.7 M2.8 43.55 Q4.6 40.45 8.65 40.75 10.5 40.95 11.8 42.1 M11.4 40.8 L11.25 39.85" fill="none" stroke="#000000" stroke-linecap="round" stroke-linejoin="round" stroke-width="1.0"/>
    <path d="M11.15 12.2 L21.9 15.85 22.7 16.1 M9.35 11.6 L7.8 11.1 M9.35 11.6 L11.15 12.2" fill="none" stroke="#000000" stroke-linecap="round" stroke-linejoin="round" stroke-width="0.05"/>
    <path d="M12.0 1.8 L29.2 2.6 Q29.2 4.25 30.05 6.1 L30.6 12.6 Q25.15 14.3 21.45 17.65 14.65 12.9 8.3 14.65 L5.1 8.0 12.0 1.8" fill="#3c3c3c" fill-rule="evenodd" stroke="none"/>
    <path d="M29.2 2.6 Q29.2 4.25 30.05 6.1 L30.6 12.6 Q25.15 14.3 21.45 17.65 14.65 12.9 8.3 14.65 L5.1 8.0 12.0 1.8" fill="none" stroke="#000000" stroke-linecap="round" stroke-linejoin="round" stroke-width="1.0"/>
    <path d="M20.3 15.5 L23.5 16.5 19.75 22.35 Q14.45 20.6 9.05 20.1 L9.65 16.1 20.3 15.5 M8.4 24.25 L17.65 26.35 16.0 31.15 Q12.05 29.75 7.7 29.0 L8.4 24.25" fill="#64574b" fill-rule="evenodd" stroke="none"/>
    <path d="M9.05 20.1 L6.2 19.9 6.85 13.0 10.35 13.4 14.05 14.05 14.6 14.15 14.65 14.15 20.3 15.5 9.65 16.1 9.05 20.1 M7.7 29.0 L4.8 28.55 5.95 23.7 8.4 24.25 7.7 29.0" fill="#352e28" fill-rule="evenodd" stroke="none"/>
    <path d="M25.8 3.3 L26.05 3.5 26.2 3.7 Q20.75 7.7 13.35 6.45 L11.0 5.75 10.95 5.65 Q12.05 4.7 14.1 5.15 20.0 6.4 25.0 3.65 25.4 3.4 25.8 3.3 M13.25 10.4 L22.35 11.3 Q26.65 11.6 30.15 10.65 29.65 12.45 26.95 12.45 L14.9 11.65 Q13.7 11.5 12.8 10.95 L12.8 10.9 12.85 10.7 12.95 10.55 13.1 10.45 13.25 10.4 M10.35 13.4 L10.45 13.15 10.5 13.05 10.65 13.0 10.8 12.95 18.0 13.45 Q20.75 13.7 22.95 14.6 21.85 15.5 19.95 14.95 L15.1 14.15 14.65 14.15 14.05 14.05 14.65 14.15 14.6 14.15 14.05 14.05 10.35 13.4" fill="#151515" fill-rule="evenodd" stroke="none"/>
    <path d="M20.3 15.5 L23.5 16.5 19.75 22.35 Q14.45 20.6 9.05 20.1 L6.2 19.9 6.85 13.0 10.35 13.4 14.05 14.05 14.65 14.15 20.3 15.5 M7.7 29.0 L4.8 28.55 5.95 23.7 8.4 24.25 17.65 26.35 16.0 31.15 Q12.05 29.75 7.7 29.0" fill="none" stroke="#000000" stroke-linecap="round" stroke-linejoin="round" stroke-width="1.0"/>
  </g>
</svg>
