<?xml version="1.0" encoding="UTF-8" standalone="no"?>
<svg xmlns:xlink="http://www.w3.org/1999/xlink" height="81.2px" width="64.95px" xmlns="http://www.w3.org/2000/svg">
  <g transform="matrix(1.0, 0.0, 0.0, 1.0, 32.15, 68.6)">
    <path d="M21.35 -31.45 Q22.95 -27.65 22.2 -24.3 24.85 -26.15 23.9 -29.15 30.8 -22.4 30.85 -13.6 L30.15 -9.75 Q29.15 -4.4 24.5 -1.55 18.5 2.15 11.3 3.65 0.55 1.3 -13.95 -6.65 L-15.1 -22.35 -12.9 -17.75 -14.95 -33.75 Q-12.8 -35.6 -10.3 -36.9 -9.25 -33.45 -5.55 -30.35 -6.95 -34.35 -6.7 -38.4 -2.75 -39.75 2.05 -39.95 2.45 -27.85 11.05 -17.05 7.6 -28.4 6.4 -39.75 13.5 -37.55 17.75 -34.6 16.0 -26.9 18.2 -19.7 18.5 -26.6 20.85 -32.0 L21.35 -31.45 M14.0 -2.7 Q10.55 -3.1 10.1 -1.7 10.55 -3.1 14.0 -2.7" fill="#f7d0b3" fill-rule="evenodd" stroke="none"/>
    <path d="M21.35 -31.45 L21.1 -33.25 21.35 -34.5 21.1 -33.25 21.35 -31.45 20.85 -32.0 21.1 -33.25 20.85 -32.0 Q18.5 -26.6 18.2 -19.7 16.0 -26.9 17.75 -34.6 13.5 -37.55 6.4 -39.75 7.6 -28.4 11.05 -17.05 2.45 -27.85 2.05 -39.95 -2.75 -39.75 -6.7 -38.4 -6.95 -34.35 -5.55 -30.35 -9.25 -33.45 -10.3 -36.9 -12.8 -35.6 -14.95 -33.75 L-12.9 -17.75 -15.1 -22.35 -13.95 -6.65 -19.75 -9.95 Q-30.55 -20.55 -31.6 -35.3 -32.55 -49.3 -21.0 -61.1 -9.45 -72.95 16.5 -64.8 32.45 -56.6 32.05 -37.25 32.85 -25.85 30.85 -13.6 30.8 -22.4 23.9 -29.15 24.85 -26.15 22.2 -24.3 22.95 -27.65 21.35 -31.45 M24.85 -32.1 L23.9 -29.15 24.85 -32.1 M-6.85 -39.25 L-6.7 -38.4 -6.85 -39.25 M6.2 -40.55 L6.4 -39.75 6.2 -40.55" fill="#cd9e87" fill-rule="evenodd" stroke="none"/>
    <path d="M30.85 -13.6 Q32.85 -25.85 32.05 -37.25 32.45 -56.6 16.5 -64.8 -9.45 -72.95 -21.0 -61.1 -32.55 -49.3 -31.6 -35.3 -30.55 -20.55 -19.75 -9.95 L-13.95 -6.65 Q0.55 1.3 11.3 3.65 18.5 2.15 24.5 -1.55 29.15 -4.4 30.15 -9.75 L30.85 -13.6 M10.1 -1.7 Q10.55 -3.1 14.0 -2.7" fill="none" stroke="#000000" stroke-linecap="round" stroke-linejoin="round" stroke-width="1.0"/>
    <path d="M23.9 -29.15 L24.85 -32.1 M21.35 -34.5 L21.1 -33.25 21.35 -31.45 M-6.7 -38.4 L-6.85 -39.25 M20.85 -32.0 L21.1 -33.25 M6.4 -39.75 L6.2 -40.55 M30.85 -13.6 L31.25 -12.85 M-13.95 -6.25 L-13.95 -6.65" fill="none" stroke="#000000" stroke-linecap="round" stroke-linejoin="round" stroke-width="0.05"/>
    <path d="M23.35 -3.5 L20.75 -4.1 14.45 -6.05 14.45 -6.1 14.25 -6.25 14.0 -6.3 13.9 -6.25 13.8 -6.25 13.75 -6.2 13.65 -6.15 13.65 -6.1 Q10.95 -4.95 7.95 -4.45 L2.05 -3.7 1.45 -3.35 4.15 -5.1 Q8.4 -6.75 13.75 -7.55 17.45 -7.0 20.85 -5.05 L23.35 -3.5 M13.75 -5.55 L14.0 -5.7 14.1 -5.6 13.75 -5.55 M12.7 -0.35 Q13.3 1.4 13.75 1.85 L14.45 1.8 Q12.8 4.15 13.6 6.35 L16.35 2.35 14.4 6.8 17.1 3.6 Q15.95 5.15 15.0 6.95 13.9 10.2 14.45 12.6 L14.1 12.35 Q9.05 7.2 8.5 2.9 9.8 6.4 12.95 9.85 11.25 5.8 11.55 1.75 L12.25 5.1 12.7 -0.35" fill="#3a3635" fill-rule="evenodd" stroke="none"/>
    <path d="M1.45 -3.35 L2.05 -3.7 7.95 -4.45 Q10.95 -4.95 13.65 -6.1 L13.65 -6.15 13.75 -6.2 13.8 -6.25 13.9 -6.25 14.0 -6.3 14.25 -6.25 14.45 -6.1 14.45 -6.05 20.75 -4.1 23.35 -3.5 23.6 -3.35 24.05 -3.1 Q21.85 -2.8 19.4 -3.8 L14.2 -5.65 14.1 -5.6 14.0 -5.7 13.75 -5.55 13.7 -5.5 12.7 -5.3 6.45 -3.5 6.0 -3.35 Q2.65 -2.3 0.6 -2.85 L1.45 -3.35 M4.2 1.1 Q6.75 2.15 9.6 1.7 11.65 1.0 12.65 -0.5 L12.7 -0.35 12.25 5.1 11.55 1.75 Q11.25 5.8 12.95 9.85 9.8 6.4 8.5 2.9 9.05 7.2 14.1 12.35 11.2 10.1 8.35 7.05 5.75 4.05 4.2 1.1 M14.45 1.8 L19.45 0.75 18.55 1.75 17.1 3.6 14.4 6.8 16.35 2.35 13.6 6.35 Q12.8 4.15 14.45 1.8" fill="#191717" fill-rule="evenodd" stroke="none"/>
    <path d="M4.2 1.1 Q6.75 2.15 9.6 1.7 11.65 1.0 12.65 -0.5 L12.7 -0.35 Q13.3 1.4 13.75 1.85 L14.45 1.8 19.45 0.75 18.55 1.75 17.1 3.6 Q15.95 5.15 15.0 6.95 13.9 10.2 14.45 12.6 L14.1 12.35 Q11.2 10.1 8.35 7.05 5.75 4.05 4.2 1.1 L3.0 0.95" fill="none" stroke="#000000" stroke-linecap="round" stroke-linejoin="round" stroke-width="0.05"/>
  </g>
</svg>
