<?xml version="1.0" encoding="UTF-8" standalone="no"?>
<svg xmlns:xlink="http://www.w3.org/1999/xlink" height="10.45px" width="18.95px" xmlns="http://www.w3.org/2000/svg">
  <g transform="matrix(1.0, 0.0, 0.0, 1.0, -0.25, -2.65)">
    <path d="M12.9 6.15 L11.0 5.65 8.9 5.35 8.75 6.7 Q8.55 10.35 11.3 10.7 13.95 11.05 14.8 8.1 L15.05 6.95 13.0 6.2 12.95 6.2 12.9 6.15 12.95 6.15 13.2 6.2 12.9 6.15 M17.3 8.6 Q16.6 7.8 15.55 7.2 L15.45 8.4 Q14.85 11.3 11.75 11.45 7.55 10.65 7.85 6.6 L8.05 5.3 2.05 5.45 2.65 6.5 3.75 8.4 Q4.65 9.55 6.5 10.4 9.4 11.9 15.45 12.05 L16.05 12.05 16.45 12.05 13.35 13.1 Q9.6 12.5 4.55 10.55 0.6 7.85 0.25 3.3 L3.25 3.75 1.7 3.05 Q11.3 3.05 17.05 6.85 18.45 8.3 19.2 10.35 L17.3 8.6" fill="#000000" fill-rule="evenodd" stroke="none"/>
    <path d="M15.45 8.4 L15.55 7.2 Q16.6 7.8 17.3 8.6 16.75 11.05 16.05 12.05 L15.45 12.05 Q16.4 11.35 16.25 8.9 L15.45 8.4 M2.65 6.5 L2.05 5.45 8.05 5.3 7.85 6.6 Q5.5 6.4 2.65 6.5" fill="#8a8a8a" fill-rule="evenodd" stroke="none"/>
    <path d="M8.75 6.7 L11.0 7.05 Q10.9 8.6 12.05 8.8 13.15 8.95 13.4 7.65 L14.8 8.1 Q13.95 11.05 11.3 10.7 8.55 10.35 8.75 6.7" fill="#ff5d0e" fill-rule="evenodd" stroke="none"/>
    <path d="M8.75 6.7 L8.9 5.35 11.0 5.65 12.9 6.15 12.95 6.2 13.0 6.2 15.05 6.95 14.8 8.1 13.4 7.65 Q13.65 6.6 12.55 6.4 11.45 6.15 11.0 7.05 L8.75 6.7 M12.95 6.15 L12.9 6.15 12.95 6.15" fill="#b40404" fill-rule="evenodd" stroke="none"/>
    <path d="M12.95 6.15 L12.9 6.15 13.2 6.2 12.95 6.15 M11.25 7.15 Q11.6 6.4 12.5 6.6 13.35 6.8 13.15 7.6 12.95 8.65 12.1 8.55 11.15 8.4 11.25 7.15 M15.45 8.4 L16.25 8.9 Q16.4 11.35 15.45 12.05 9.4 11.9 6.5 10.4 4.65 9.55 3.75 8.4 L2.65 6.5 Q5.5 6.4 7.85 6.6 7.55 10.65 11.75 11.45 14.85 11.3 15.45 8.4" fill="#ffffff" fill-rule="evenodd" stroke="none"/>
    <path d="M11.0 7.05 Q11.45 6.15 12.55 6.4 13.65 6.6 13.4 7.65 13.15 8.95 12.05 8.8 10.9 8.6 11.0 7.05 M11.25 7.15 Q11.15 8.4 12.1 8.55 12.95 8.65 13.15 7.6 13.35 6.8 12.5 6.6 11.6 6.4 11.25 7.15" fill="#661f1f" fill-rule="evenodd" stroke="none"/>
    <path d="M7.45 2.65 Q14.0 2.55 18.45 5.35 L7.45 2.65" fill="#cd9e87" fill-rule="evenodd" stroke="none"/>
  </g>
</svg>
