<?xml version="1.0" encoding="UTF-8" standalone="no"?>
<svg xmlns:xlink="http://www.w3.org/1999/xlink" height="82.9px" width="86.8px" xmlns="http://www.w3.org/2000/svg">
  <g transform="matrix(1.0, 0.0, 0.0, 1.0, 43.4, 41.45)">
    <path d="M-35.3 -1.45 Q-36.65 -4.25 -38.3 -15.45 L-38.4 -16.15 Q-36.0 -10.9 -34.9 -12.05 -34.0 -15.9 -31.85 -19.05 -29.6 -22.5 -25.85 -25.2 -27.5 -31.2 -27.4 -36.6 -21.25 -38.05 -19.35 -40.95 -14.95 -37.55 -11.9 -30.9 L-6.45 -31.8 Q-2.15 -32.45 2.55 -31.95 7.9 -31.4 13.85 -29.4 10.9 -32.25 11.9 -34.9 17.95 -28.25 21.9 -27.1 21.05 -28.3 19.65 -33.75 24.4 -26.9 26.1 -24.8 28.0 -23.25 29.1 -19.85 30.4 -22.8 30.7 -25.65 L32.75 -12.9 32.85 -12.25 Q34.1 -13.4 33.5 -19.9 36.6 -13.05 35.3 -6.2 39.7 -11.0 38.65 -20.55 L39.6 -17.3 Q41.7 -8.25 38.3 0.6 43.0 -2.9 42.6 -9.8 L42.9 -5.4 Q42.8 0.25 40.05 5.6 L36.6 11.7 36.6 11.75 36.7 11.85 Q38.0 13.95 39.95 15.85 L40.8 16.6 36.3 13.45 Q34.0 17.65 34.2 20.5 L37.4 17.45 30.35 30.6 32.7 9.75 Q28.7 4.85 26.9 -1.75 28.6 5.2 27.65 11.5 L25.55 3.7 Q26.8 9.35 24.2 14.5 24.15 11.9 22.4 8.65 L19.3 17.85 20.15 7.4 Q17.95 2.9 10.1 0.35 L10.1 0.15 9.2 0.05 Q8.85 10.4 14.5 19.9 4.8 9.0 3.8 -1.75 L-3.7 -1.75 Q-5.1 2.95 -2.75 8.25 -7.3 3.9 -9.25 -0.4 -12.85 1.2 -14.45 3.2 L-12.35 8.0 -15.6 4.55 Q-14.25 13.95 -11.6 20.65 L-12.9 20.2 Q-15.4 18.9 -15.45 15.7 -15.55 24.55 -14.25 31.3 L-15.3 30.25 -16.75 27.55 Q-17.45 29.05 -18.35 29.5 L-19.15 30.45 -9.25 34.85 Q-5.8 38.7 -7.25 40.95 L-10.25 35.8 -9.15 40.05 Q-12.85 35.25 -20.0 31.9 L-18.7 35.6 Q-27.35 31.5 -29.55 26.15 L-35.1 25.2 -29.9 25.5 Q-38.1 22.35 -41.7 18.7 -39.5 20.6 -33.35 20.55 -40.7 12.85 -41.7 2.8 -40.7 7.0 -35.45 8.75 -41.8 -0.85 -42.9 -9.85 -40.45 -4.35 -35.3 -1.45 Z" fill="none" stroke="#000000" stroke-linecap="round" stroke-linejoin="round" stroke-width="1.0"/>
  </g>
</svg>
