<?xml version="1.0" encoding="UTF-8" standalone="no"?>
<svg xmlns:xlink="http://www.w3.org/1999/xlink" height="12.45px" width="41.75px" xmlns="http://www.w3.org/2000/svg">
  <g transform="matrix(1.0, 0.0, 0.0, 1.0, 10.15, 30.4)">
    <path d="M8.8 -17.95 Q0.95 -23.85 -10.15 -29.9 L-5.55 -30.35 Q4.55 -23.85 8.8 -21.55 11.55 -18.9 8.8 -17.95 M20.5 -18.2 Q18.9 -19.75 20.5 -21.8 23.0 -23.15 28.9 -27.4 31.35 -26.6 31.6 -26.0 25.1 -22.35 20.5 -18.2" fill="#000000" fill-rule="evenodd" stroke="none"/>
    <path d="M8.8 -17.95 Q11.55 -18.9 8.8 -21.55 4.55 -23.85 -5.55 -30.35 L-10.15 -29.9 Q0.95 -23.85 8.8 -17.95 M20.5 -18.2 Q18.9 -19.75 20.5 -21.8 23.0 -23.15 28.9 -27.4 31.35 -26.6 31.6 -26.0 25.1 -22.35 20.5 -18.2" fill="none" stroke="#000000" stroke-linecap="round" stroke-linejoin="round" stroke-width="0.05"/>
  </g>
</svg>
