<?xml version="1.0" encoding="UTF-8" standalone="no"?>
<svg xmlns:xlink="http://www.w3.org/1999/xlink" height="42.9px" width="29.05px" xmlns="http://www.w3.org/2000/svg">
  <g transform="matrix(1.0, 0.0, 0.0, 1.0, 6.25, 6.65)">
    <path d="M15.65 0.0 Q21.4 5.2 18.8 9.85 16.1 14.5 13.35 20.9 10.55 27.3 8.95 32.05 7.35 36.75 3.7 35.5 0.0 34.25 -0.9 33.4 4.45 12.5 8.0 4.4 11.1 1.4 15.65 0.0" fill="#3c3c3c" fill-rule="evenodd" stroke="none"/>
    <path d="M8.0 4.4 Q4.45 12.5 -0.9 33.4 -2.9 31.7 -1.8 27.65 -0.2 21.55 3.05 12.25 4.75 7.5 8.0 4.4" fill="#151515" fill-rule="evenodd" stroke="none"/>
    <path d="M15.65 0.0 Q11.1 1.4 8.0 4.4 4.75 7.5 3.05 12.25 -0.2 21.55 -1.8 27.65 -2.9 31.7 -0.9 33.4 L-1.15 34.2 M-0.9 33.4 Q0.0 34.25 3.7 35.5 7.35 36.75 8.95 32.05 10.55 27.3 13.35 20.9 16.1 14.5 18.8 9.85" fill="none" stroke="#000000" stroke-linecap="round" stroke-linejoin="round" stroke-width="1.0"/>
    <path d="M11.2 -4.9 L15.95 -0.4 Q14.35 -2.9 12.3 -4.9 18.8 -5.7 18.9 -6.15 L22.3 2.75 22.2 6.85 15.55 13.1 12.55 13.4 Q2.85 6.2 -1.9 -1.75 3.55 -5.1 11.2 -4.9 M11.15 3.7 L6.8 2.25 Q12.85 5.2 18.6 6.8 19.75 7.15 20.85 6.8 L20.95 6.65 11.15 3.7" fill="#a33030" fill-rule="evenodd" stroke="none"/>
    <path d="M-1.9 -1.75 Q2.85 6.2 12.55 13.4 L8.95 13.15 Q2.65 8.3 -1.6 1.6 0.7 7.5 6.25 13.7 -1.6 7.85 -5.75 0.5 L-1.9 -1.75" fill="#3c3c3c" fill-rule="evenodd" stroke="none"/>
    <path d="M12.3 -4.9 Q14.35 -2.9 15.95 -0.4 L11.2 -4.9 12.0 -4.9 12.05 -4.9 12.3 -4.9 M12.55 13.4 L15.55 13.1 22.2 6.85 Q21.7 12.15 19.6 18.15 L12.55 13.4 M11.15 3.7 L20.95 6.65 20.85 6.8 Q19.75 7.15 18.6 6.8 12.85 5.2 6.8 2.25 L11.15 3.7" fill="#661717" fill-rule="evenodd" stroke="none"/>
    <path d="M12.55 13.4 L19.6 18.15 18.5 20.95 Q11.55 17.65 6.25 13.7 0.7 7.5 -1.6 1.6 2.65 8.3 8.95 13.15 L12.55 13.4" fill="#151515" fill-rule="evenodd" stroke="none"/>
    <path d="M11.2 -4.9 Q3.55 -5.1 -1.9 -1.75 2.85 6.2 12.55 13.4 L19.6 18.15 18.5 20.95 Q11.55 17.65 6.25 13.7 -1.6 7.85 -5.75 0.5 L-1.9 -1.75 M22.3 2.75 L18.9 -6.15 Q18.8 -5.7 12.3 -4.9 M12.05 -4.9 L12.0 -4.9 11.2 -4.9 Z" fill="none" stroke="#000000" stroke-linecap="round" stroke-linejoin="round" stroke-width="1.0"/>
  </g>
</svg>
