<?xml version="1.0" encoding="UTF-8" standalone="no"?>
<svg xmlns:xlink="http://www.w3.org/1999/xlink" height="41.9px" width="59.7px" xmlns="http://www.w3.org/2000/svg">
  <g transform="matrix(1.0, 0.0, 0.0, 1.0, 0.5, 20.95)">
    <path d="M2.05 -4.65 Q0.1 -3.65 1.9 -1.45 L2.35 -1.4 Q3.95 -3.1 2.05 -4.65 M0.1 -1.2 Q-0.2 -3.5 0.7 -8.25 3.7 -20.4 17.5 -20.45 30.7 -19.1 34.8 -7.15 36.9 4.7 42.55 11.0 48.15 17.25 58.7 14.75 L55.4 19.7 Q46.4 20.15 37.4 11.05 34.7 7.55 29.9 -6.85 27.3 -13.4 20.4 -15.35 13.25 -16.45 9.1 -12.45 5.05 -7.3 4.1 -1.35 2.85 1.95 0.1 -1.2" fill="#585156" fill-rule="evenodd" stroke="none"/>
    <path d="M0.1 -1.2 Q2.85 1.95 4.1 -1.35 5.05 -7.3 9.1 -12.45 13.25 -16.45 20.4 -15.35 27.3 -13.4 29.9 -6.85 34.7 7.55 37.4 11.05 46.4 20.15 55.4 19.7 L55.1 20.15 Q48.5 21.15 40.95 16.7 33.35 12.2 30.75 0.8 28.1 -10.65 19.7 -13.45 8.35 -15.4 6.35 -1.5 5.8 2.5 1.3 0.95 0.3 0.7 0.1 -1.2" fill="#2a2629" fill-rule="evenodd" stroke="none"/>
    <path d="M2.05 -4.65 Q3.95 -3.1 2.35 -1.4 L1.9 -1.45 Q0.1 -3.65 2.05 -4.65" fill="#83777f" fill-rule="evenodd" stroke="none"/>
    <path d="M55.4 19.7 L58.7 14.75 Q48.15 17.25 42.55 11.0 36.9 4.7 34.8 -7.15 30.7 -19.1 17.5 -20.45 3.7 -20.4 0.7 -8.25 -0.2 -3.5 0.1 -1.2 0.3 0.7 1.3 0.95 5.8 2.5 6.35 -1.5 8.35 -15.4 19.7 -13.45 28.1 -10.65 30.75 0.8 33.35 12.2 40.95 16.7 48.5 21.15 55.1 20.15 L55.4 19.7 57.0 20.45" fill="none" stroke="#000000" stroke-linecap="round" stroke-linejoin="round" stroke-width="1.0"/>
  </g>
</svg>
