<?xml version="1.0" encoding="UTF-8" standalone="no"?>
<svg xmlns:xlink="http://www.w3.org/1999/xlink" height="29.45px" width="63.8px" xmlns="http://www.w3.org/2000/svg">
  <g transform="matrix(1.0, 0.0, 0.0, 1.0, 0.5, 14.8)">
    <path d="M2.35 0.45 Q2.9 -5.8 0.0 -11.7 L62.8 -14.3 Q58.7 -2.1 56.4 9.95 54.75 4.15 55.8 -1.85 51.5 8.2 46.8 13.2 45.75 7.55 46.5 4.1 44.8 7.25 44.4 12.25 41.0 6.5 43.6 1.8 38.35 7.95 37.2 14.15 34.0 7.8 35.8 0.7 30.7 7.8 25.2 10.7 24.35 4.7 20.6 -1.65 21.45 3.0 20.6 7.55 19.1 2.8 15.0 0.2 12.5 6.2 13.2 12.25 8.35 7.25 6.7 2.85 5.15 8.95 5.6 12.35 1.35 8.15 2.35 0.45" fill="#1c191b" fill-rule="evenodd" stroke="none"/>
    <path d="M2.35 0.45 Q1.35 8.15 5.6 12.35 5.15 8.95 6.7 2.85 8.35 7.25 13.2 12.25 12.5 6.2 15.0 0.2 19.1 2.8 20.6 7.55 21.45 3.0 20.6 -1.65 24.35 4.7 25.2 10.7 30.7 7.8 35.8 0.7 34.0 7.8 37.2 14.15 38.35 7.95 43.6 1.8 41.0 6.5 44.4 12.25 44.8 7.25 46.5 4.1 45.75 7.55 46.8 13.2 51.5 8.2 55.8 -1.85 54.75 4.15 56.4 9.95 58.7 -2.1 62.8 -14.3 L0.0 -11.7 Q2.9 -5.8 2.35 0.45 Z" fill="none" stroke="#000000" stroke-linecap="round" stroke-linejoin="round" stroke-width="1.0"/>
  </g>
</svg>
