<?xml version="1.0" encoding="UTF-8" standalone="no"?>
<svg xmlns:xlink="http://www.w3.org/1999/xlink" height="35.55px" width="13.35px" xmlns="http://www.w3.org/2000/svg">
  <g transform="matrix(1.0, 0.0, 0.0, 1.0, 0.85, 0.5)">
    <path d="M3.35 0.0 Q8.6 1.15 9.85 11.55 L11.6 27.75 Q12.05 32.85 9.3 34.15 9.2 31.6 8.7 30.4 7.55 14.35 3.35 0.0" fill="#ffead5" fill-rule="evenodd" stroke="none"/>
    <path d="M9.3 34.15 L8.55 34.4 Q5.0 35.25 4.45 30.85 L2.6 20.7 Q1.35 14.95 0.35 7.6 -0.65 0.2 3.35 0.0 7.55 14.35 8.7 30.4 9.2 31.6 9.3 34.15" fill="#efc3c0" fill-rule="evenodd" stroke="none"/>
    <path d="M9.3 34.15 L8.55 34.4 Q5.0 35.25 4.45 30.85 L2.6 20.7 Q1.35 14.95 0.35 7.6 -0.65 0.2 3.35 0.0 8.6 1.15 9.85 11.55 L11.6 27.75 Q12.05 32.85 9.3 34.15 Z" fill="none" stroke="#000000" stroke-linecap="round" stroke-linejoin="round" stroke-width="1.0"/>
    <path d="M-0.35 6.35 Q6.3 10.9 11.55 10.2 12.4 12.55 11.7 13.95 12.15 15.8 11.25 16.8 4.95 15.35 -0.15 10.5 L-0.35 6.35" fill="#c4a232" fill-rule="evenodd" stroke="none"/>
    <path d="M-0.35 6.35 Q6.3 10.9 11.55 10.2 12.4 12.55 11.7 13.95 12.15 15.8 11.25 16.8 4.95 15.35 -0.15 10.5 L-0.35 6.35 Z" fill="none" stroke="#000000" stroke-linecap="round" stroke-linejoin="round" stroke-width="1.0"/>
  </g>
</svg>
