<?xml version="1.0" encoding="UTF-8" standalone="no"?>
<svg xmlns:xlink="http://www.w3.org/1999/xlink" height="35.1px" width="17.05px" xmlns="http://www.w3.org/2000/svg">
  <g transform="matrix(1.0, 0.0, 0.0, 1.0, 0.45, -0.95)">
    <path d="M15.2 2.55 L15.5 5.15 Q11.75 8.95 5.8 10.4 L0.1 10.15 0.1 10.1 Q0.7 6.5 5.05 3.25 13.0 -0.95 15.2 2.55" fill="#2d69d0" fill-rule="evenodd" stroke="none"/>
    <path d="M0.1 10.15 L5.8 10.4 Q5.8 16.25 6.4 23.35 L6.6 25.3 1.75 24.35 1.35 22.1 Q0.45 16.8 0.05 10.1 L0.1 10.15 Q0.1 10.65 0.05 10.1 0.1 10.65 0.1 10.15" fill="#efc3c0" fill-rule="evenodd" stroke="none"/>
    <path d="M5.8 10.4 Q11.75 8.95 15.5 5.15 16.2 13.0 16.05 22.1 L16.05 24.6 Q12.1 26.05 6.6 25.3 L6.4 23.35 Q5.8 16.25 5.8 10.4" fill="#ffead5" fill-rule="evenodd" stroke="none"/>
    <path d="M9.8 35.35 Q5.85 34.95 3.75 33.0 2.55 28.75 1.75 24.35 L6.6 25.3 Q7.35 31.2 9.8 35.35" fill="#d2d2d2" fill-rule="evenodd" stroke="none"/>
    <path d="M16.05 24.6 L15.75 31.9 15.3 34.25 Q14.2 35.5 12.25 35.55 L9.8 35.35 Q7.35 31.2 6.6 25.3 12.1 26.05 16.05 24.6" fill="#ffffff" fill-rule="evenodd" stroke="none"/>
    <path d="M15.5 5.15 L15.2 2.55 M0.1 10.1 L0.1 10.15 5.8 10.4 Q11.75 8.95 15.5 5.15 16.2 13.0 16.05 22.1 L16.05 24.6 15.75 31.9 15.3 34.25 Q14.2 35.5 12.25 35.55 L9.8 35.35 Q5.85 34.95 3.75 33.0 2.55 28.75 1.75 24.35 L1.35 22.1 Q0.45 16.8 0.05 10.1 L0.1 10.15 Q0.1 10.65 0.05 10.1 M6.6 25.3 Q12.1 26.05 16.05 24.6 M1.75 24.35 L6.6 25.3" fill="none" stroke="#000000" stroke-linecap="round" stroke-linejoin="round" stroke-width="1.0"/>
  </g>
</svg>
