<?xml version="1.0" encoding="UTF-8" standalone="no"?>
<svg xmlns:xlink="http://www.w3.org/1999/xlink" height="44.65px" width="19.2px" xmlns="http://www.w3.org/2000/svg">
  <g transform="matrix(1.0, 0.0, 0.0, 1.0, 13.1, 2.05)">
    <path d="M-4.1 35.55 L-4.1 35.45 Q-5.4 29.1 -3.0 21.3 1.5 9.5 3.8 -0.9 6.0 -0.2 5.6 0.1 4.65 7.35 1.25 15.1 -2.2 22.8 -2.45 26.15 L-2.7 29.85 -2.7 29.95 -2.4 32.0 Q-2.5 34.85 -4.1 35.55" fill="#d2d2d2" fill-rule="evenodd" stroke="none"/>
    <path d="M-5.45 -1.05 Q-4.85 -1.5 -4.1 -1.7 L1.75 -1.55 3.8 -0.9 Q1.5 9.5 -3.0 21.3 -5.4 29.1 -4.1 35.45 L-4.1 35.55 -5.0 35.75 Q-7.45 35.9 -10.15 33.1 L-10.15 33.15 -11.05 30.85 -10.6 29.85 -10.55 29.65 -10.5 29.65 -9.4 26.9 Q-8.45 24.4 -8.5 18.75 -8.6 13.1 -8.1 7.95 -7.6 2.8 -5.45 -1.05" fill="#ffffff" fill-rule="evenodd" stroke="none"/>
    <path d="M-11.05 30.85 L-10.15 33.15 -10.15 33.1 Q-7.45 35.9 -5.0 35.75 L-4.1 35.55 -3.2 40.0 Q-7.2 41.85 -11.1 38.45 L-11.5 39.45 -12.55 37.8 Q-12.75 35.25 -11.45 31.6 L-11.05 30.85" fill="#fff680" fill-rule="evenodd" stroke="none"/>
    <path d="M-2.4 32.0 Q-0.6 35.95 -1.0 39.05 -1.55 42.4 -5.8 42.1 -9.7 41.7 -11.15 39.75 L-11.4 39.55 -11.5 39.45 -11.1 38.45 Q-7.2 41.85 -3.2 40.0 L-4.1 35.55 Q-2.5 34.85 -2.4 32.0" fill="#a18529" fill-rule="evenodd" stroke="none"/>
    <path d="M-5.45 -1.05 Q-7.6 2.8 -8.1 7.95 -8.6 13.1 -8.5 18.75 -8.45 24.4 -9.4 26.9 L-10.5 29.65 M-10.55 29.65 L-10.6 29.85 -11.05 30.85 -10.15 33.15 M-10.15 33.1 Q-7.45 35.9 -5.0 35.75 L-4.1 35.55 Q-2.5 34.85 -2.4 32.0 -0.6 35.95 -1.0 39.05 -1.55 42.4 -5.8 42.1 -9.7 41.7 -11.15 39.75 L-11.4 39.55 M5.6 0.1 Q4.65 7.35 1.25 15.1 -2.2 22.8 -2.45 26.15 L-2.7 29.85 -2.7 29.95 -2.4 32.0 M-11.5 39.45 L-12.55 37.8 Q-12.75 35.25 -11.45 31.6 L-11.05 30.85" fill="none" stroke="#000000" stroke-linecap="round" stroke-linejoin="round" stroke-width="1.0"/>
    <path d="M-4.1 35.55 L-4.1 35.45 M-11.4 39.55 L-11.5 39.45" fill="none" stroke="#4d3200" stroke-linecap="round" stroke-linejoin="round" stroke-width="0.05"/>
  </g>
</svg>
