<?xml version="1.0" encoding="UTF-8" standalone="no"?>
<svg xmlns:xlink="http://www.w3.org/1999/xlink" height="70.7px" width="34.85px" xmlns="http://www.w3.org/2000/svg">
  <g transform="matrix(1.0, 0.0, 0.0, 1.0, -0.5, -3.8)">
    <path d="M22.2 16.65 L24.8 18.4 29.05 22.5 30.0 22.95 Q32.2 24.45 33.75 27.2 35.0 30.6 33.7 33.65 30.2 33.5 25.8 30.8 24.5 33.05 20.7 33.85 15.1 34.7 12.85 33.1 L10.25 28.6 Q6.35 25.3 5.95 20.2 L7.75 18.25 Q10.5 16.35 12.25 15.7 L12.7 13.05 Q19.75 18.5 22.2 16.65 M31.7 37.1 L30.35 40.65 Q29.5 42.9 29.15 45.3 28.85 47.6 29.45 49.9 L29.95 51.8 30.7 54.6 Q31.4 57.05 31.85 63.4 L28.95 63.9 27.85 64.05 18.0 64.45 6.2 62.8 Q5.7 60.6 7.3 57.6 L8.4 55.75 12.75 49.15 Q13.95 45.5 13.25 39.9 L12.7 36.45 Q15.05 37.55 18.1 37.65 L21.05 36.65 Q23.9 35.15 25.65 32.15 27.05 34.55 29.0 35.85 30.25 36.7 31.7 37.1 M24.3 26.0 L25.5 27.2 26.55 25.5 23.85 22.7 24.3 26.0 M24.2 51.9 L23.1 53.55 22.75 54.4 Q22.5 55.1 22.65 55.9 22.85 56.7 23.9 57.25 23.3 56.55 23.9 53.4 L24.2 51.9" fill="#ffead5" fill-rule="evenodd" stroke="none"/>
    <path d="M33.7 33.65 L33.55 33.8 33.05 34.85 31.7 37.1 Q30.25 36.7 29.0 35.85 27.05 34.55 25.65 32.15 23.9 35.15 21.05 36.65 L18.1 37.65 Q15.05 37.55 12.7 36.45 L13.25 39.9 Q13.95 45.5 12.75 49.15 L8.4 55.75 7.3 57.6 Q5.7 60.6 6.2 62.8 L2.15 61.95 Q2.85 60.2 3.7 58.5 5.3 55.5 7.5 52.7 10.85 48.4 11.45 45.7 11.75 44.1 10.85 40.5 L9.05 34.6 8.6 33.4 5.55 25.45 Q4.55 22.35 5.3 21.1 L5.95 20.2 Q6.35 25.3 10.25 28.6 L12.85 33.1 Q15.1 34.7 20.7 33.85 24.5 33.05 25.8 30.8 30.2 33.5 33.7 33.65 M12.7 13.05 L13.3 5.55 Q14.6 4.05 18.35 4.35 21.5 4.4 22.0 6.6 21.1 12.2 22.2 16.65 19.75 18.5 12.7 13.05 M12.7 36.45 Q10.3 35.45 8.6 33.4 10.3 35.45 12.7 36.45 M24.3 26.0 L23.85 22.7 26.55 25.5 25.5 27.2 24.3 26.0 M24.2 51.9 L23.9 53.4 Q23.3 56.55 23.9 57.25 22.85 56.7 22.65 55.9 22.5 55.1 22.75 54.4 L23.1 53.55 24.2 51.9" fill="#efc3c0" fill-rule="evenodd" stroke="none"/>
    <path d="M31.85 63.4 L32.15 67.1 Q30.8 69.0 28.25 70.45 L27.0 71.15 Q24.75 72.75 21.4 73.75 20.35 74.3 19.4 74.5 L16.95 74.1 Q11.65 73.25 6.9 71.5 2.05 68.55 1.75 63.55 L2.15 61.95 6.2 62.8 18.0 64.45 27.85 64.05 28.95 63.9 31.85 63.4" fill="#fff680" fill-rule="evenodd" stroke="none"/>
    <path d="M33.7 33.65 L33.55 33.8 33.05 34.85 31.7 37.1 30.35 40.65 Q29.5 42.9 29.15 45.3 28.85 47.6 29.45 49.9 L29.95 51.8 30.7 54.6 Q31.4 57.05 31.85 63.4 L32.15 67.1 M21.4 73.75 Q20.35 74.3 19.4 74.5 L16.95 74.1 Q11.65 73.25 6.9 71.5 2.05 68.55 1.75 63.55 L2.15 61.95 Q2.85 60.2 3.7 58.5 5.3 55.5 7.5 52.7 10.85 48.4 11.45 45.7 11.75 44.1 10.85 40.5 L9.05 34.6 8.6 33.4 Q10.3 35.45 12.7 36.45 15.05 37.55 18.1 37.65 L21.05 36.65 Q23.9 35.15 25.65 32.15 27.05 34.55 29.0 35.85 30.25 36.7 31.7 37.1 M6.2 62.8 L18.0 64.45 27.85 64.05 28.95 63.9 31.85 63.4 M2.15 61.95 L6.2 62.8" fill="none" stroke="#000000" stroke-linecap="round" stroke-linejoin="round" stroke-width="0.05"/>
    <path d="M22.2 16.65 L24.8 18.4 29.05 22.5 30.0 22.95 Q32.2 24.45 33.75 27.2 35.0 30.6 33.7 33.65 M8.6 33.4 L5.55 25.45 Q4.55 22.35 5.3 21.1 L5.95 20.2 7.75 18.25 Q10.5 16.35 12.25 15.7 L12.7 13.05 13.3 5.55 Q14.6 4.05 18.35 4.35 21.5 4.4 22.0 6.6 21.1 12.2 22.2 16.65" fill="none" stroke="#000000" stroke-linecap="round" stroke-linejoin="round" stroke-width="1.0"/>
    <path d="M9.85 28.6 Q18.0 29.5 25.65 27.2 L25.7 27.2 Q31.6 27.5 33.6 26.25 L34.2 27.2 Q35.5 30.6 34.15 33.65 30.55 33.5 26.0 30.8 24.65 33.05 20.7 33.85 14.9 34.7 12.55 33.1 L9.85 28.6 M31.5 39.85 Q30.65 44.05 30.7 48.1 31.0 56.55 32.65 64.5 20.3 67.0 6.5 63.95 12.0 55.15 13.45 40.6 28.55 34.75 31.5 39.85 M14.35 45.4 Q14.6 46.95 16.75 48.0 22.2 50.65 27.9 51.05 L22.1 49.45 Q17.7 48.25 14.35 45.4" fill="#fff680" fill-rule="evenodd" stroke="none"/>
    <path d="M6.5 63.95 L1.0 62.55 5.8 55.05 Q9.1 49.3 10.05 41.8 L8.2 33.45 8.15 33.4 7.25 31.15 9.85 28.6 12.55 33.1 Q14.9 34.7 20.7 33.85 24.65 33.05 26.0 30.8 30.55 33.5 34.15 33.65 L34.0 33.8 33.5 34.85 32.1 37.1 31.5 39.85 Q28.55 34.75 13.45 40.6 12.0 55.15 6.5 63.95 M14.35 45.4 Q17.7 48.25 22.1 49.45 L27.9 51.05 Q22.2 50.65 16.75 48.0 14.6 46.95 14.35 45.4" fill="#c4a232" fill-rule="evenodd" stroke="none"/>
    <path d="M25.65 27.2 L25.7 27.2" fill="none" stroke="#000000" stroke-linecap="round" stroke-linejoin="round" stroke-width="0.05"/>
    <path d="M6.5 63.95 L1.0 62.55 5.8 55.05 Q9.1 49.3 10.05 41.8 L8.2 33.45 8.15 33.4 7.25 31.15 9.85 28.6 Q18.0 29.5 25.65 27.2 M25.7 27.2 Q31.6 27.5 33.6 26.25 L34.2 27.2 Q35.5 30.6 34.15 33.65 L34.0 33.8 33.5 34.85 32.1 37.1 31.5 39.85 Q30.65 44.05 30.7 48.1 31.0 56.55 32.65 64.5 20.3 67.0 6.5 63.95" fill="none" stroke="#000000" stroke-linecap="round" stroke-linejoin="round" stroke-width="1.0"/>
    <path d="M25.65 18.5 Q26.55 18.85 26.8 19.3 L26.8 19.35 Q26.65 20.05 26.1 20.5 25.55 20.6 25.1 20.25 L24.8 20.15 24.65 20.2 24.75 20.45 Q24.45 19.95 24.75 19.2 L24.9 19.1 25.65 18.5 M23.3 18.0 Q22.95 17.35 23.95 16.65 L25.15 17.0 25.1 17.05 Q25.05 18.3 23.7 18.0 L23.3 18.0 M22.15 17.0 L21.95 16.65 Q21.75 15.85 22.45 15.6 L23.5 16.0 Q22.75 16.45 22.0 16.7 L22.15 17.0 M24.2 16.8 Q23.75 16.8 23.65 17.2 23.6 17.45 23.8 17.4 25.05 17.35 24.2 16.8 M22.4 15.75 Q22.2 15.75 22.15 16.0 L22.35 16.2 Q23.1 16.1 22.4 15.75 M25.35 19.05 Q25.1 19.1 25.0 19.35 24.9 19.6 25.15 19.6 26.2 19.5 25.35 19.05 M21.6 23.5 Q22.3 22.8 21.7 22.45 L21.65 22.45 Q21.15 22.65 20.95 23.2 20.7 23.8 21.25 23.65 L21.6 23.5 M20.65 24.75 Q20.1 24.05 20.95 22.75 L21.4 22.4 Q22.6 22.45 23.15 22.8 L23.15 23.1 Q23.3 23.75 22.65 23.95 21.6 24.2 20.95 24.8 L20.65 24.75 M24.55 21.8 L24.15 22.1 Q24.05 22.45 24.4 22.4 25.7 22.05 24.55 21.8 M24.2 23.35 L24.1 23.2 Q23.35 21.85 24.8 21.4 26.55 21.25 26.9 21.8 L26.05 22.8 Q25.25 23.4 24.35 23.35 L24.2 23.35 M12.8 16.55 L12.8 16.1 12.55 15.85 12.45 15.9 12.15 16.15 11.4 17.35 10.55 17.35 10.25 17.3 10.15 16.75 Q10.15 16.15 10.65 15.7 11.1 15.3 11.75 15.25 13.0 15.4 12.8 16.55 M12.2 17.75 L12.4 17.6 13.0 16.95 Q14.1 17.0 14.6 17.5 L14.3 17.9 14.05 19.0 Q13.35 19.6 12.4 19.65 L12.2 19.8 Q11.6 19.25 12.15 17.8 L12.2 17.75 M11.45 15.5 Q11.15 15.55 11.0 15.8 10.85 16.05 11.1 16.05 12.35 15.95 11.45 15.5 M13.3 17.5 Q12.85 17.7 12.55 18.15 12.1 18.9 12.9 18.5 14.2 17.9 13.3 17.5 M14.85 19.65 L14.8 19.7 14.35 20.0 14.45 20.0 14.75 19.7 14.85 19.65 M17.4 19.45 L17.4 20.05 17.25 21.1 Q17.05 21.75 16.1 21.85 L14.8 22.15 14.7 22.2 Q13.95 21.55 14.85 20.0 15.2 19.4 15.9 19.2 L16.3 19.1 Q16.95 19.2 17.4 19.45 M16.0 19.65 L15.45 20.25 15.3 20.6 Q15.0 21.3 15.75 20.8 16.7 20.1 16.0 19.65 M20.0 22.5 L19.5 23.2 Q19.15 24.6 17.65 23.9 L17.3 23.85 17.05 23.95 Q16.95 23.35 17.6 22.4 L18.5 21.4 Q19.55 21.9 20.0 22.5 M19.1 24.95 L19.7 24.6 19.75 24.6 20.0 24.15 19.6 24.75 19.1 24.95 M18.45 21.9 L17.85 22.65 Q17.75 22.9 18.05 22.8 19.2 22.45 18.45 21.9" fill="#fff680" fill-rule="evenodd" stroke="none"/>
    <path d="M25.15 17.0 Q26.1 17.5 25.05 18.7 25.2 18.5 25.5 18.45 L25.65 18.5 24.9 19.1 24.75 19.2 24.8 19.05 25.0 18.7 24.3 18.75 23.3 18.0 23.7 18.0 Q25.05 18.3 25.1 17.05 L25.15 17.0 M26.8 19.3 Q27.15 19.9 26.5 20.7 L26.45 20.75 26.4 20.8 25.65 21.0 24.75 20.45 24.65 20.2 24.8 20.15 25.1 20.25 Q25.55 20.6 26.1 20.5 26.65 20.05 26.8 19.35 L26.8 19.3 M23.5 16.0 L23.6 16.2 23.55 16.35 22.5 17.0 22.35 17.05 22.2 17.05 22.15 17.0 22.0 16.7 Q22.75 16.45 23.5 16.0 M23.15 22.8 Q24.15 23.45 22.95 25.05 22.6 25.5 22.0 25.4 21.0 25.2 20.65 24.75 L20.95 24.8 Q21.6 24.2 22.65 23.95 23.3 23.75 23.15 23.1 L23.15 22.8 M26.9 21.8 Q27.15 22.25 26.4 23.25 25.2 24.85 24.2 23.35 L24.35 23.35 Q25.25 23.4 26.05 22.8 L26.9 21.8 M10.25 17.3 L10.55 17.35 11.4 17.35 12.15 16.15 12.45 15.9 12.55 15.85 12.8 16.1 12.8 16.55 12.65 17.05 12.6 17.2 12.65 17.15 12.95 16.95 13.0 16.95 12.4 17.6 12.2 17.75 12.25 17.65 12.25 17.6 11.85 17.8 Q10.55 18.15 10.25 17.3 M12.2 19.8 L12.4 19.65 Q13.35 19.6 14.05 19.0 L14.3 17.9 14.6 17.5 Q15.25 18.15 14.85 19.65 L14.75 19.7 14.45 20.0 14.35 20.0 12.2 19.8 M14.7 22.2 L14.8 22.15 16.1 21.85 Q17.05 21.75 17.25 21.1 L17.4 20.05 17.4 19.45 Q17.95 19.75 18.1 20.25 18.25 20.9 17.7 21.9 L17.65 21.95 Q17.2 22.6 16.3 22.6 15.2 22.6 14.7 22.2 M17.05 23.95 L17.3 23.85 17.65 23.9 Q19.15 24.6 19.5 23.2 L20.0 22.5 Q20.45 23.25 20.0 24.15 L19.75 24.6 19.7 24.6 19.1 24.95 19.05 24.95 19.0 24.95 Q17.2 24.85 17.05 23.95" fill="#c4963b" fill-rule="evenodd" stroke="none"/>
    <path d="M22.4 15.75 Q23.1 16.1 22.35 16.2 L22.15 16.0 Q22.2 15.75 22.4 15.75 M24.2 16.8 Q25.05 17.35 23.8 17.4 23.6 17.45 23.65 17.2 23.75 16.8 24.2 16.8 M25.35 19.05 Q26.2 19.5 25.15 19.6 24.9 19.6 25.0 19.35 25.1 19.1 25.35 19.05 M21.6 23.5 L21.25 23.65 Q20.7 23.8 20.95 23.2 21.15 22.65 21.65 22.45 L21.7 22.45 Q22.3 22.8 21.6 23.5 M24.55 21.8 Q25.7 22.05 24.4 22.4 24.05 22.45 24.15 22.1 L24.55 21.8 M11.45 15.5 Q12.35 15.95 11.1 16.05 10.85 16.05 11.0 15.8 11.15 15.55 11.45 15.5 M13.3 17.5 Q14.2 17.9 12.9 18.5 12.1 18.9 12.55 18.15 12.85 17.7 13.3 17.5 M16.0 19.65 Q16.7 20.1 15.75 20.8 15.0 21.3 15.3 20.6 L15.45 20.25 16.0 19.65 M18.45 21.9 Q19.2 22.45 18.05 22.8 17.75 22.9 17.85 22.65 L18.45 21.9" fill="#fffbcd" fill-rule="evenodd" stroke="none"/>
    <path d="M25.15 17.0 Q26.1 17.5 25.05 18.7 25.2 18.5 25.5 18.45 L25.65 18.5 Q26.55 18.85 26.8 19.3 27.15 19.9 26.5 20.7 L26.45 20.75 26.4 20.8 25.65 21.0 24.75 20.45 Q24.45 19.95 24.75 19.2 L24.8 19.05 25.0 18.7 24.3 18.75 23.3 18.0 Q22.95 17.35 23.95 16.65 L25.15 17.0 M22.15 17.0 L21.95 16.65 Q21.75 15.85 22.45 15.6 L23.5 16.0 23.6 16.2 23.55 16.35 22.5 17.0 22.35 17.05 22.2 17.05 22.15 17.0 M20.65 24.75 Q20.1 24.05 20.95 22.75 L21.4 22.4 Q22.6 22.45 23.15 22.8 24.15 23.45 22.95 25.05 22.6 25.5 22.0 25.4 21.0 25.2 20.65 24.75 M24.2 23.35 L24.1 23.2 Q23.35 21.85 24.8 21.4 26.55 21.25 26.9 21.8 27.15 22.25 26.4 23.25 25.2 24.85 24.2 23.35 M10.25 17.3 Q10.55 18.15 11.85 17.8 L12.25 17.6 12.25 17.65 M12.95 16.95 L12.65 17.15 12.6 17.2 12.65 17.05 12.8 16.55 Q13.0 15.4 11.75 15.25 11.1 15.3 10.65 15.7 10.15 16.15 10.15 16.75 L10.25 17.3 M12.2 19.8 Q11.6 19.25 12.15 17.8 L12.2 17.75 M14.6 17.5 Q14.1 17.0 13.0 16.95 M14.85 19.65 L14.8 19.7 14.35 20.0 12.2 19.8 M14.85 19.65 Q15.25 18.15 14.6 17.5 M17.4 19.45 Q16.95 19.2 16.3 19.1 L15.9 19.2 Q15.2 19.4 14.85 20.0 13.95 21.55 14.7 22.2 15.2 22.6 16.3 22.6 17.2 22.6 17.65 21.95 L17.7 21.9 Q18.25 20.9 18.1 20.25 17.95 19.75 17.4 19.45 M20.0 22.5 Q19.55 21.9 18.5 21.4 L17.6 22.4 Q16.95 23.35 17.05 23.95 17.2 24.85 19.0 24.95 L19.05 24.95 M20.0 24.15 Q20.45 23.25 20.0 22.5 M20.0 24.15 L19.6 24.75 19.1 24.95" fill="none" stroke="#000000" stroke-linecap="round" stroke-linejoin="round" stroke-width="0.05"/>
  </g>
</svg>
