<?xml version="1.0" encoding="UTF-8" standalone="no"?>
<svg xmlns:xlink="http://www.w3.org/1999/xlink" height="39.15px" width="19.35px" xmlns="http://www.w3.org/2000/svg">
  <g transform="matrix(1.0, 0.0, 0.0, 1.0, -0.7, 0.0)">
    <path d="M4.15 0.5 Q6.25 -0.9 13.7 2.15 18.55 5.45 19.55 11.5 L19.5 11.6 Q15.4 11.7 11.05 9.8 6.65 7.85 5.5 6.8 L3.7 3.9 4.15 0.5" fill="#2d69d0" fill-rule="evenodd" stroke="none"/>
    <path d="M5.5 6.8 Q4.25 14.3 3.5 22.0 L1.8 21.55 Q2.3 14.05 3.35 6.3 L3.7 3.9 5.5 6.8" fill="#efc3c0" fill-rule="evenodd" stroke="none"/>
    <path d="M19.5 11.6 Q18.15 19.15 16.3 25.6 9.55 25.0 3.5 22.0 4.25 14.3 5.5 6.8 6.65 7.85 11.05 9.8 15.4 11.7 19.5 11.6" fill="#ffead5" fill-rule="evenodd" stroke="none"/>
    <path d="M16.3 25.6 Q14.5 31.7 12.2 36.8 9.65 39.35 5.85 38.35 3.65 37.75 2.5 36.55 2.75 29.2 3.5 22.0 9.55 25.0 16.3 25.6" fill="#ffffff" fill-rule="evenodd" stroke="none"/>
    <path d="M2.5 36.55 Q1.55 35.6 1.2 34.35 1.3 28.05 1.8 21.55 L3.5 22.0 Q2.75 29.2 2.5 36.55" fill="#d2d2d2" fill-rule="evenodd" stroke="none"/>
    <path d="M19.55 11.5 L19.5 11.6 Q18.15 19.15 16.3 25.6 14.5 31.7 12.2 36.8 9.65 39.35 5.85 38.35 3.65 37.75 2.5 36.55 1.55 35.6 1.2 34.35 1.3 28.05 1.8 21.55 2.3 14.05 3.35 6.3 L3.7 3.9 4.15 0.5 M19.5 11.6 Q15.4 11.7 11.05 9.8 6.65 7.85 5.5 6.8 L3.7 3.9 M3.5 22.0 Q9.55 25.0 16.3 25.6 M1.8 21.55 L3.5 22.0" fill="none" stroke="#000000" stroke-linecap="round" stroke-linejoin="round" stroke-width="1.0"/>
    <path d="M1.8 21.55 L1.35 21.4" fill="none" stroke="#4d3200" stroke-linecap="round" stroke-linejoin="round" stroke-width="0.05"/>
  </g>
</svg>
