<?xml version="1.0" encoding="UTF-8" standalone="no"?>
<svg xmlns:xlink="http://www.w3.org/1999/xlink" height="37.5px" width="19.55px" xmlns="http://www.w3.org/2000/svg">
  <g transform="matrix(1.0, 0.0, 0.0, 1.0, 2.7, 1.05)">
    <path d="M8.4 -0.55 Q10.2 1.7 9.95 4.9 10.15 14.6 9.5 19.2 8.85 23.8 9.85 28.3 L9.85 28.35 9.9 28.9 9.9 29.2 10.6 29.45 Q10.05 32.5 5.2 31.95 L4.2 31.65 4.2 31.3 4.45 29.1 4.5 28.35 4.55 28.9 Q4.6 24.8 4.2 21.1 2.0 10.0 1.2 1.55 5.65 -1.45 8.4 -0.55 M6.45 28.9 L9.9 29.2 6.45 28.9" fill="#ffffff" fill-rule="evenodd" stroke="none"/>
    <path d="M2.0 31.0 L2.35 28.9 2.4 28.55 2.4 28.3 2.5 28.3 2.4 28.25 Q3.6 20.05 0.75 13.3 -2.25 6.05 -2.2 0.05 L-0.65 -0.55 Q-0.1 -0.8 1.2 1.55 2.0 10.0 4.2 21.1 4.6 24.8 4.55 28.9 L4.5 28.35 4.45 29.1 4.2 31.3 4.2 31.65 2.0 31.0" fill="#d2d2d2" fill-rule="evenodd" stroke="none"/>
    <path d="M10.6 29.45 L13.6 30.5 Q16.55 31.45 16.35 34.5 16.4 35.8 13.55 35.9 L5.85 35.55 Q4.25 34.55 4.2 31.65 L5.2 31.95 Q10.05 32.5 10.6 29.45" fill="#fff680" fill-rule="evenodd" stroke="none"/>
    <path d="M5.85 35.55 L2.5 34.8 Q1.45 34.35 1.8 32.2 L2.0 31.0 4.2 31.65 Q4.25 34.55 5.85 35.55" fill="#a18529" fill-rule="evenodd" stroke="none"/>
    <path d="M8.4 -0.55 Q10.2 1.7 9.95 4.9 10.15 14.6 9.5 19.2 8.85 23.8 9.85 28.3 L9.9 28.9 9.9 29.2 10.6 29.45 13.6 30.5 Q16.55 31.45 16.35 34.5 16.4 35.8 13.55 35.9 L5.85 35.55 2.5 34.8 Q1.45 34.35 1.8 32.2 L2.0 31.0 2.35 28.9 2.4 28.55 2.4 28.3 M2.4 28.25 Q3.6 20.05 0.75 13.3 -2.25 6.05 -2.2 0.05 M4.2 31.65 L5.2 31.95 Q10.05 32.5 10.6 29.45 M9.9 29.2 L6.45 28.9 M9.85 28.3 L9.85 28.35 9.9 28.9 M4.2 31.65 L2.0 31.0" fill="none" stroke="#000000" stroke-linecap="round" stroke-linejoin="round" stroke-width="1.0"/>
  </g>
</svg>
