<?xml version="1.0" encoding="UTF-8" standalone="no"?>
<svg xmlns:xlink="http://www.w3.org/1999/xlink" height="40.6px" width="52.2px" xmlns="http://www.w3.org/2000/svg">
  <g transform="matrix(1.0, 0.0, 0.0, 1.0, 11.05, 11.3)">
    <path d="M13.25 -9.05 L21.8 -6.65 23.45 -6.25 Q28.65 -5.2 32.7 -6.2 L34.15 4.1 Q35.2 12.8 39.25 19.05 L38.55 20.25 37.7 20.35 38.25 20.65 Q36.15 23.3 32.65 23.5 25.75 7.95 25.25 0.5 25.15 -1.15 25.35 -2.35 19.15 9.1 7.45 16.8 5.3 14.5 0.75 12.75 L-0.15 13.3 3.75 10.35 4.05 10.05 3.85 10.25 3.75 10.35 Q9.35 5.0 12.15 0.9 14.95 -3.2 14.3 -2.9 L13.6 -2.6 12.0 -0.45 Q6.55 7.15 -1.15 12.5 -2.8 10.95 -6.35 10.0 L9.75 1.05 9.8 1.05 13.25 -9.05 M23.45 -6.25 Q24.7 -5.25 26.5 -5.25 L26.15 -4.65 Q25.45 -3.55 25.55 -3.25 L25.35 -2.35 25.55 -3.25 Q25.45 -3.55 26.15 -4.65 L26.5 -5.25 Q24.7 -5.25 23.45 -6.25 M27.55 -1.2 Q27.55 1.4 28.5 4.15 29.75 7.7 31.4 11.0 29.25 4.8 27.55 -1.2 M13.4 6.85 Q16.5 5.05 19.3 2.85 14.45 6.4 7.65 8.45 10.55 8.45 13.4 6.85 M3.75 10.35 L0.75 12.75 3.75 10.35" fill="#fff680" fill-rule="evenodd" stroke="none"/>
    <path d="M8.35 22.35 Q4.45 23.35 2.55 21.85 L3.1 20.35 Q-1.35 20.55 -4.5 17.4 L-5.85 18.1 Q-9.1 15.35 -10.55 10.85 -6.05 10.95 -1.25 13.9 L-0.35 13.45 Q4.35 15.9 6.4 18.9 L5.65 19.5 8.35 22.35 M-1.05 15.55 L-4.5 17.4 -1.05 15.55 M3.85 18.2 L3.1 20.35 3.85 18.2" fill="#a18529" fill-rule="evenodd" stroke="none"/>
    <path d="M-10.55 10.85 Q-2.45 6.7 5.15 -0.5 L10.15 -10.2 Q10.15 -9.95 11.15 -9.75 L13.25 -9.05 9.8 1.05 9.75 1.05 -6.35 10.0 Q-2.8 10.95 -1.15 12.5 6.55 7.15 12.0 -0.45 L13.6 -2.6 14.3 -2.9 Q14.95 -3.2 12.15 0.9 9.35 5.0 3.75 10.35 L-0.15 13.3 -0.3 13.4 -0.35 13.45 -0.3 13.4 -0.15 13.3 0.75 12.75 Q5.3 14.5 7.45 16.8 19.15 9.1 25.35 -2.35 25.15 -1.15 25.25 0.5 L24.75 1.6 24.45 2.05 Q18.15 10.15 8.05 17.45 L7.45 18.0 6.4 18.9 Q4.35 15.9 -0.35 13.45 L-1.25 13.9 Q-6.05 10.95 -10.55 10.85 M39.25 19.05 L40.65 21.0 Q38.3 24.5 33.2 25.75 L32.8 24.15 32.65 23.5 Q36.15 23.3 38.25 20.65 L37.7 20.35 38.55 20.25 39.25 19.05 M4.05 10.05 L3.75 10.35 3.85 10.25 4.05 10.05 M8.2 5.1 Q6.25 7.75 3.75 10.35 6.25 7.75 8.2 5.1 M27.55 -1.2 Q29.25 4.8 31.4 11.0 29.75 7.7 28.5 4.15 27.55 1.4 27.55 -1.2 M13.4 6.85 Q10.55 8.45 7.65 8.45 14.45 6.4 19.3 2.85 16.5 5.05 13.4 6.85" fill="#c4a232" fill-rule="evenodd" stroke="none"/>
    <path d="M24.45 2.05 Q25.85 10.55 29.2 17.3 31.55 21.95 31.5 24.9 28.2 26.6 24.75 25.5 L24.75 24.85 Q18.6 26.65 15.6 23.7 L14.7 24.85 Q9.6 21.65 7.45 18.0 L8.05 17.45 Q18.15 10.15 24.45 2.05 M19.15 10.25 Q18.6 19.4 15.6 23.7 18.6 19.4 19.15 10.25 M24.25 11.0 Q25.05 18.2 24.75 24.85 25.05 18.2 24.25 11.0" fill="#ffffff" fill-rule="evenodd" stroke="none"/>
    <path d="M33.2 25.75 L33.35 26.35 Q29.05 29.4 24.5 28.65 L24.6 27.75 Q17.6 28.35 14.0 25.5 L12.95 26.3 Q11.2 25.25 9.7 23.8 L8.35 22.35 5.65 19.5 6.4 18.9 7.45 18.0 Q9.6 21.65 14.7 24.85 L15.6 23.7 Q18.6 26.65 24.75 24.85 L24.75 25.5 Q28.2 26.6 31.5 24.9 31.55 21.95 29.2 17.3 25.85 10.55 24.45 2.05 L24.75 1.6 25.25 0.5 Q25.75 7.95 32.65 23.5 L32.8 24.15 33.2 25.75 M24.6 27.75 L24.75 25.5 24.6 27.75 M14.7 24.85 L14.0 25.5 14.7 24.85" fill="#cbcbcb" fill-rule="evenodd" stroke="none"/>
    <path d="M-10.55 10.85 Q-2.45 6.7 5.15 -0.5 L10.15 -10.2 Q10.15 -9.95 11.15 -9.75 L13.25 -9.05 21.8 -6.65 23.45 -6.25 Q28.65 -5.2 32.7 -6.2 L34.15 4.1 Q35.2 12.8 39.25 19.05 L40.65 21.0 Q38.3 24.5 33.2 25.75 L33.35 26.35 Q29.05 29.4 24.5 28.65 L24.6 27.75 Q17.6 28.35 14.0 25.5 L12.95 26.3 Q11.2 25.25 9.7 23.8 L8.35 22.35 Q4.45 23.35 2.55 21.85 L3.1 20.35 Q-1.35 20.55 -4.5 17.4 L-5.85 18.1 Q-9.1 15.35 -10.55 10.85 -6.05 10.95 -1.25 13.9 L-0.35 13.45 -0.3 13.4 -0.15 13.3 0.75 12.75 3.75 10.35 4.05 10.05 M3.75 10.35 Q6.25 7.75 8.2 5.1 M25.35 -2.35 L25.55 -3.25 Q25.45 -3.55 26.15 -4.65 L26.5 -5.25 Q24.7 -5.25 23.45 -6.25 M-4.5 17.4 L-1.05 15.55 M24.45 2.05 L24.75 1.6 25.25 0.5 Q25.15 -1.15 25.35 -2.35 M33.2 25.75 L32.8 24.15 32.65 23.5 Q25.75 7.95 25.25 0.5 M24.45 2.05 Q18.15 10.15 8.05 17.45 L7.45 18.0 6.4 18.9 Q4.35 15.9 -0.35 13.45 M14.7 24.85 L15.6 23.7 Q18.6 19.4 19.15 10.25 M8.35 22.35 L5.65 19.5 6.4 18.9 M3.1 20.35 L3.85 18.2 M14.0 25.5 L14.7 24.85 M24.75 25.5 L24.6 27.75 M24.75 24.85 L24.75 25.5 M24.75 24.85 Q25.05 18.2 24.25 11.0" fill="none" stroke="#000000" stroke-linecap="round" stroke-linejoin="round" stroke-width="1.0"/>
    <path d="M13.9 -9.3 Q26.55 -5.1 32.95 -7.15 32.8 -5.8 33.25 -4.5 23.9 -3.35 12.75 -7.5 L13.9 -9.3" fill="#585156" fill-rule="evenodd" stroke="none"/>
    <path d="M33.25 -4.5 L33.5 -3.85 Q23.6 -3.35 8.5 -7.9 9.3 -8.4 9.8 -10.8 L13.9 -9.3 12.75 -7.5 Q23.9 -3.35 33.25 -4.5" fill="#2a2629" fill-rule="evenodd" stroke="none"/>
    <path d="M33.25 -4.5 L33.5 -3.85 Q23.6 -3.35 8.5 -7.9 9.3 -8.4 9.8 -10.8 L13.9 -9.3 Q26.55 -5.1 32.95 -7.15 32.8 -5.8 33.25 -4.5 Z" fill="none" stroke="#000000" stroke-linecap="round" stroke-linejoin="round" stroke-width="1.0"/>
    <path d="M24.55 -3.8 L24.5 -3.8 Q22.8 -2.9 20.95 -2.5 20.4 -2.35 20.25 -2.9 19.9 -4.25 20.85 -5.25 19.0 -6.1 20.05 -7.45 L20.2 -7.6 20.85 -7.8 21.55 -7.8 Q23.0 -7.35 24.25 -6.45 23.75 -5.85 23.7 -5.3 L21.15 -5.75 20.95 -5.65 Q20.75 -5.4 21.0 -5.3 22.3 -4.7 23.8 -4.55 L23.85 -4.55 24.55 -3.8 M25.1 -7.0 Q26.3 -7.35 26.8 -6.7 L26.9 -6.55 30.2 -7.85 30.95 -6.5 Q31.25 -5.3 30.15 -4.9 L30.2 -4.9 30.15 -5.0 27.2 -5.5 26.8 -6.7 Q26.95 -5.85 26.6 -5.0 26.25 -4.15 25.5 -4.15 25.05 -4.2 24.75 -4.5 24.05 -5.25 24.65 -6.05 L25.5 -7.1 25.1 -7.0 M30.2 -4.85 Q30.8 -3.55 29.8 -2.45 L29.6 -2.35 Q27.85 -2.15 26.65 -3.5 L26.35 -3.95 27.0 -4.7 28.7 -4.5 Q29.6 -4.35 30.15 -4.85 L30.2 -4.85" fill="#585156" fill-rule="evenodd" stroke="none"/>
    <path d="M24.55 -6.8 L25.0 -7.0 25.1 -7.0 25.5 -7.1 24.65 -6.05 Q24.05 -5.25 24.75 -4.5 25.05 -4.2 25.5 -4.15 26.25 -4.15 26.6 -5.0 26.95 -5.85 26.8 -6.7 L26.8 -6.75 26.8 -6.7 27.2 -5.5 30.15 -5.0 30.2 -4.9 30.15 -4.9 30.2 -4.85 30.15 -4.85 Q29.6 -4.35 28.7 -4.5 L27.0 -4.7 26.35 -3.95 24.85 -3.75 24.55 -3.8 23.85 -4.55 23.8 -4.55 Q22.3 -4.7 21.0 -5.3 20.75 -5.4 20.95 -5.65 L21.15 -5.75 23.7 -5.3 Q23.75 -5.85 24.25 -6.45 L24.55 -6.8 M23.8 -4.55 L23.7 -5.3 23.8 -4.55 M27.0 -4.7 L27.2 -5.5 27.0 -4.7" fill="#2a2629" fill-rule="evenodd" stroke="none"/>
    <path d="M20.2 -7.6 L20.9 -8.3 Q21.35 -8.7 21.95 -8.55 22.75 -8.45 23.55 -7.6 L24.5 -6.8 24.55 -6.8 24.25 -6.45 Q23.0 -7.35 21.55 -7.8 L20.85 -7.8 20.2 -7.6 M26.8 -6.75 L27.05 -6.95 27.8 -7.5 Q28.55 -8.05 29.35 -8.25 L29.5 -8.2 29.95 -8.0 30.2 -7.85 26.9 -6.55 26.8 -6.7 26.8 -6.75" fill="#938690" fill-rule="evenodd" stroke="none"/>
    <path d="M24.55 -3.8 L24.5 -3.8 Q22.8 -2.9 20.95 -2.5 20.4 -2.35 20.25 -2.9 19.9 -4.25 20.85 -5.25 19.0 -6.1 20.05 -7.45 L20.2 -7.6 20.9 -8.3 Q21.35 -8.7 21.95 -8.55 22.75 -8.45 23.55 -7.6 L24.5 -6.8 24.55 -6.8 24.25 -6.45 Q23.75 -5.85 23.7 -5.3 L23.8 -4.55 M26.8 -6.75 L27.05 -6.95 27.8 -7.5 Q28.55 -8.05 29.35 -8.25 L29.5 -8.2 29.95 -8.0 30.2 -7.85 30.95 -6.5 Q31.25 -5.3 30.15 -4.9 L30.2 -4.85 Q30.8 -3.55 29.8 -2.45 L29.6 -2.35 Q27.85 -2.15 26.65 -3.5 L26.35 -3.95 27.0 -4.7 27.2 -5.5 26.8 -6.7 26.8 -6.75 M24.55 -3.8 L23.85 -4.55" fill="none" stroke="#000000" stroke-linecap="round" stroke-linejoin="round" stroke-width="1.0"/>
  </g>
</svg>
