<?xml version="1.0" encoding="UTF-8" standalone="no"?>
<svg xmlns:xlink="http://www.w3.org/1999/xlink" height="72.75px" width="64.9px" xmlns="http://www.w3.org/2000/svg">
  <g transform="matrix(1.0, 0.0, 0.0, 1.0, 32.15, 68.6)">
    <path d="M8.35 -7.3 L7.25 -5.15 Q6.55 1.0 11.3 0.0 14.45 -0.5 14.85 -3.9 L14.95 -5.75 Q14.75 -8.95 12.25 -9.2 L10.85 -9.25 Q9.35 -8.7 8.35 -7.3 M11.3 3.65 Q-1.5 0.85 -19.75 -9.95 -30.55 -20.55 -31.6 -35.3 -32.55 -49.3 -21.0 -61.1 -9.45 -72.95 16.5 -64.8 32.45 -56.6 32.05 -37.25 32.95 -24.05 30.15 -9.75 29.15 -4.4 24.5 -1.55 18.5 2.15 11.3 3.65" fill="#ffead5" fill-rule="evenodd" stroke="none"/>
    <path d="M8.35 -7.3 Q9.35 -8.7 10.85 -9.25 L10.6 -7.35 9.9 -5.35 Q8.65 -6.05 8.35 -7.3" fill="#ffffff" fill-rule="evenodd" stroke="none"/>
    <path d="M10.85 -9.25 L12.25 -9.2 Q14.75 -8.95 14.95 -5.75 13.15 -8.1 10.6 -7.35 L10.85 -9.25" fill="#4a0f26" fill-rule="evenodd" stroke="none"/>
    <path d="M14.95 -5.75 L14.85 -3.9 Q14.45 -0.5 11.3 0.0 6.55 1.0 7.25 -5.15 L8.35 -7.3 Q8.65 -6.05 9.9 -5.35 L10.6 -7.35 Q13.15 -8.1 14.95 -5.75" fill="#e58ea1" fill-rule="evenodd" stroke="none"/>
    <path d="M14.95 -5.75 L14.85 -3.9 Q14.45 -0.5 11.3 0.0 6.55 1.0 7.25 -5.15 L8.35 -7.3 Q9.35 -8.7 10.85 -9.25 L12.25 -9.2 Q14.75 -8.95 14.95 -5.75 M10.6 -7.35 L9.9 -5.35 Q8.65 -6.05 8.35 -7.3 M10.6 -7.35 L10.85 -9.25 M11.3 3.65 Q18.5 2.15 24.5 -1.55 29.15 -4.4 30.15 -9.75 32.95 -24.05 32.05 -37.25 32.45 -56.6 16.5 -64.8 -9.45 -72.95 -21.0 -61.1 -32.55 -49.3 -31.6 -35.3 -30.55 -20.55 -19.75 -9.95 -1.5 0.85 11.3 3.65" fill="none" stroke="#000000" stroke-linecap="round" stroke-linejoin="round" stroke-width="1.0"/>
    <path d="M4.25 -5.05 Q1.2 -3.7 -3.15 -4.35 -7.6 -5.05 -10.7 -7.3 -13.65 -9.6 -13.65 -12.15 -13.65 -14.7 -10.7 -16.05 -7.6 -17.3 -3.15 -16.65 1.2 -16.0 4.25 -13.7 7.35 -11.45 7.35 -8.85 7.35 -6.25 4.25 -5.05" fill="url(#gradient0)" fill-rule="evenodd" stroke="none"/>
    <path d="M18.95 -4.45 Q16.85 -5.6 16.85 -7.8 16.85 -10.1 18.95 -12.1 21.05 -14.05 23.95 -14.6 26.95 -15.1 29.0 -14.05 31.05 -12.85 31.05 -10.55 31.05 -8.3 29.0 -6.35 26.95 -4.35 23.95 -3.8 21.05 -3.3 18.95 -4.45" fill="url(#gradient1)" fill-rule="evenodd" stroke="none"/>
    <path d="M1.15 -11.2 Q1.65 -10.65 0.95 -9.75 L0.3 -9.05 Q0.1 -8.85 0.1 -9.15 0.0 -10.05 0.6 -10.8 0.85 -11.1 1.15 -11.2 M27.05 -10.9 Q27.7 -10.35 26.7 -9.5 26.25 -9.1 25.75 -8.85 25.4 -8.65 25.5 -9.0 L26.0 -9.85 27.05 -10.9 M24.85 -10.85 Q25.35 -10.3 24.65 -9.45 L23.7 -8.8 Q23.5 -8.7 23.55 -8.95 L23.95 -10.05 24.85 -10.85 M22.95 -10.65 Q23.55 -10.05 22.65 -9.25 22.25 -8.85 21.8 -8.6 21.45 -8.35 21.55 -8.75 L22.05 -9.8 22.95 -10.65 M-1.25 -11.35 Q-0.7 -10.7 -1.5 -9.85 -2.35 -8.9 -2.05 -9.95 -1.8 -10.85 -1.25 -11.35 M-3.45 -11.65 Q-2.9 -11.15 -3.65 -10.4 L-5.3 -9.15 Q-5.55 -9.0 -5.5 -9.3 L-5.0 -10.2 -3.45 -11.65" fill="#c62121" fill-opacity="0.09019608" fill-rule="evenodd" stroke="none"/>
    <path d="M-7.05 -11.6 L-6.6 -12.25 -5.45 -12.65 -4.25 -12.6 -3.7 -12.15 Q-3.65 -11.85 -4.1 -11.55 -4.5 -11.25 -5.2 -11.15 L-6.45 -11.2 -7.05 -11.6 M26.65 -11.35 L27.2 -11.8 28.2 -11.7 29.1 -11.3 29.35 -10.6 28.85 -10.25 Q28.35 -10.1 27.8 -10.25 27.2 -10.4 26.95 -10.75 26.6 -11.05 26.65 -11.35" fill="#ffffff" fill-rule="evenodd" stroke="none"/>
  </g>
  <defs>
    <radialGradient cx="0" cy="0" gradientTransform="matrix(0.0129, 0.0021, 0.0, 0.0076, -3.15, -10.5)" gradientUnits="userSpaceOnUse" id="gradient0" r="819.2" spreadMethod="pad">
      <stop offset="0.25882352941176473" stop-color="#ff8e8e" stop-opacity="0.43137255"/>
      <stop offset="0.9725490196078431" stop-color="#ffb4b4" stop-opacity="0.0"/>
    </radialGradient>
    <radialGradient cx="0" cy="0" gradientTransform="matrix(-0.0087, 0.0017, 0.0, 0.0066, 23.95, -9.25)" gradientUnits="userSpaceOnUse" id="gradient1" r="819.2" spreadMethod="pad">
      <stop offset="0.25882352941176473" stop-color="#ff8e8e" stop-opacity="0.43137255"/>
      <stop offset="0.9725490196078431" stop-color="#ffb4b4" stop-opacity="0.0"/>
    </radialGradient>
  </defs>
</svg>
