<?xml version="1.0" encoding="UTF-8" standalone="no"?>
<svg xmlns:xlink="http://www.w3.org/1999/xlink" height="18.1px" width="19.75px" xmlns="http://www.w3.org/2000/svg">
  <g transform="matrix(1.0, 0.0, 0.0, 1.0, -1.3, 5.45)">
    <path d="M8.65 -1.65 L8.9 -1.7 10.05 -1.85 Q8.85 -0.8 8.2 0.5 7.1 2.55 7.45 5.3 8.4 11.05 12.2 10.85 16.05 10.6 16.4 5.0 16.6 3.0 16.2 1.2 L15.4 -1.1 16.45 -0.55 17.05 1.7 17.05 5.2 Q16.7 10.2 13.95 11.5 12.05 11.85 10.1 11.55 7.5 10.4 6.75 5.55 6.4 2.95 7.0 1.1 7.45 -0.6 8.65 -1.65 M14.2 3.9 L14.2 4.1 Q14.15 4.8 13.75 5.3 L12.65 5.95 Q12.05 5.95 11.6 5.3 11.2 4.8 11.1 4.1 L11.1 3.9 Q11.1 3.0 11.6 2.4 12.05 1.8 12.65 1.8 13.3 1.8 13.75 2.4 14.2 3.0 14.2 3.9" fill="#000000" fill-rule="evenodd" stroke="none"/>
    <path d="M7.0 1.1 Q6.4 2.95 6.75 5.55 7.5 10.4 10.1 11.55 8.6 11.35 7.05 10.75 4.6 9.45 3.15 6.45 3.2 5.15 3.5 3.95 5.2 2.1 7.0 1.1 M13.95 11.5 Q16.7 10.2 17.05 5.2 L17.05 1.7 18.9 3.1 Q18.9 8.0 16.25 10.85 L13.95 11.5" fill="#ffffff" fill-rule="evenodd" stroke="none"/>
    <path d="M8.65 -1.65 Q7.45 -0.6 7.0 1.1 5.2 2.1 3.5 3.95 3.75 2.7 4.3 1.55 5.5 -1.0 8.65 -1.65 M17.05 1.7 L16.45 -0.55 Q18.1 0.4 18.9 2.2 L18.9 3.1 17.05 1.7" fill="#b6b6b6" fill-rule="evenodd" stroke="none"/>
    <path d="M10.05 -1.85 L8.9 -1.7 8.65 -1.65 Q5.5 -1.0 4.3 1.55 3.75 2.7 3.5 3.95 3.2 5.15 3.15 6.45 1.1 4.3 2.4 1.75 L1.3 1.75 Q3.9 -4.2 11.6 -4.15 12.95 -4.1 15.85 -2.85 17.7 -1.75 20.95 -2.5 L21.05 -2.55 Q20.0 -0.9 18.55 -0.85 19.2 -0.25 19.6 1.05 L20.25 3.9 18.9 2.25 18.9 2.2 Q18.1 0.4 16.45 -0.55 L15.4 -1.1 11.65 -1.85 10.05 -1.85 M10.1 11.55 Q12.05 11.85 13.95 11.5 L16.25 10.85 16.45 10.75 15.4 11.55 Q12.65 13.3 9.3 12.3 7.65 12.5 6.85 12.3 8.4 11.65 8.05 11.45 L7.05 10.75 Q8.6 11.35 10.1 11.55" fill="#191601" fill-rule="evenodd" stroke="none"/>
    <path d="M8.25 4.55 Q9.6 7.6 12.3 7.4 14.6 7.7 16.0 4.35 15.65 9.65 12.4 9.95 8.35 10.0 8.25 4.55" fill="#fffed0" fill-rule="evenodd" stroke="none"/>
    <path d="M15.4 -1.1 L16.2 1.2 Q12.05 -1.15 8.2 0.5 8.85 -0.8 10.05 -1.85 L11.65 -1.85 15.4 -1.1" fill="#aa8425" fill-rule="evenodd" stroke="none"/>
    <path d="M16.2 1.2 Q16.6 3.0 16.4 5.0 16.05 10.6 12.2 10.85 8.4 11.05 7.45 5.3 7.1 2.55 8.2 0.5 12.05 -1.15 16.2 1.2 M14.2 3.9 Q14.2 3.0 13.75 2.4 13.3 1.8 12.65 1.8 12.05 1.8 11.6 2.4 11.1 3.0 11.1 3.9 L11.1 4.1 Q11.2 4.8 11.6 5.3 12.05 5.95 12.65 5.95 L13.75 5.3 Q14.15 4.8 14.2 4.1 L14.2 3.9 M8.25 4.55 Q8.35 10.0 12.4 9.95 15.65 9.65 16.0 4.35 14.6 7.7 12.3 7.4 9.6 7.6 8.25 4.55" fill="#f0dd51" fill-rule="evenodd" stroke="none"/>
    <path d="M12.0 -5.45 Q15.35 -5.3 18.1 -3.55 L18.05 -3.4 Q17.55 -3.2 17.0 -3.55 L15.15 -4.25 8.05 -4.7 8.05 -4.8 Q8.55 -5.45 9.45 -5.45 L12.0 -5.45" fill="#efc3c0" fill-rule="evenodd" stroke="none"/>
  </g>
</svg>
