<?xml version="1.0" encoding="UTF-8" standalone="no"?>
<svg xmlns:xlink="http://www.w3.org/1999/xlink" height="11.15px" width="33.35px" xmlns="http://www.w3.org/2000/svg">
  <g transform="matrix(1.0, 0.0, 0.0, 1.0, 5.25, 27.55)">
    <path d="M24.15 -23.85 L23.85 -22.5 Q23.55 -21.85 23.1 -21.85 22.7 -21.85 22.4 -22.5 22.1 -23.05 22.1 -23.85 22.1 -24.7 22.4 -25.3 22.7 -25.85 23.15 -25.85 23.6 -25.85 23.85 -25.3 L24.15 -23.85 M24.85 -24.55 L24.8 -24.2 Q24.7 -24.05 24.6 -24.05 24.5 -24.05 24.4 -24.2 L24.35 -24.55 24.4 -24.9 24.6 -25.05 24.8 -24.9 24.85 -24.55 M4.85 -17.6 Q4.85 -17.2 4.35 -16.95 3.8 -16.65 3.05 -16.65 2.3 -16.65 1.8 -16.95 1.25 -17.2 1.25 -17.6 1.25 -18.0 1.8 -18.25 L3.1 -18.55 4.35 -18.25 Q4.85 -18.0 4.85 -17.6 M28.1 -17.2 L27.8 -16.65 27.0 -16.4 Q26.55 -16.4 26.25 -16.65 25.95 -16.9 25.95 -17.2 25.95 -17.55 26.25 -17.75 L27.05 -18.0 27.8 -17.75 28.1 -17.2 M-1.75 -25.15 Q-1.75 -24.2 -2.25 -23.5 -2.75 -22.75 -3.5 -22.75 -4.25 -22.75 -4.75 -23.5 -5.25 -24.2 -5.25 -25.15 -5.25 -26.15 -4.75 -26.9 -4.2 -27.55 -3.45 -27.55 -2.7 -27.55 -2.25 -26.9 -1.75 -26.15 -1.75 -25.15 M-0.55 -25.95 L-0.7 -25.55 Q-0.85 -25.4 -1.0 -25.4 L-1.35 -25.55 -1.45 -25.95 -1.35 -26.4 -1.0 -26.55 -0.7 -26.4 -0.55 -25.95" fill="#ffffff" fill-rule="evenodd" stroke="none"/>
  </g>
</svg>
