<?xml version="1.0" encoding="UTF-8" standalone="no"?>
<svg xmlns:xlink="http://www.w3.org/1999/xlink" height="102.2px" width="106.3px" xmlns="http://www.w3.org/2000/svg">
  <g transform="matrix(1.0, 0.0, 0.0, 1.0, 16.5, -0.25)">
    <path d="M60.35 17.85 Q63.3 15.85 66.4 14.65 L65.5 14.95 Q58.8 17.1 54.05 21.7 L60.35 17.85 M51.85 22.8 Q60.45 14.3 76.0 11.35 70.6 25.25 61.55 29.35 57.95 25.45 51.85 22.8" fill="#585156" fill-rule="evenodd" stroke="none"/>
    <path d="M75.45 18.55 Q73.75 30.2 67.6 40.0 L65.5 38.0 Q72.35 27.6 75.45 18.55" fill="#e59dd0" fill-rule="evenodd" stroke="none"/>
    <path d="M76.05 11.35 Q75.95 15.05 75.45 18.55 72.35 27.6 65.5 38.0 L62.7 35.4 Q73.25 27.05 76.05 11.35" fill="#c28197" fill-rule="evenodd" stroke="none"/>
    <path d="M76.0 11.35 L76.05 11.35 Q73.25 27.05 62.7 35.4 L50.6 24.05 51.85 22.8 Q57.95 25.45 61.55 29.35 70.6 25.25 76.0 11.35" fill="#2a2629" fill-rule="evenodd" stroke="none"/>
    <path d="M60.35 17.85 L54.05 21.7 Q58.8 17.1 65.5 14.95 L66.4 14.65 Q63.3 15.85 60.35 17.85" fill="#83777f" fill-rule="evenodd" stroke="none"/>
    <path d="M76.0 11.35 L76.05 11.35 Q75.95 15.05 75.45 18.55 73.75 30.2 67.6 40.0 L65.5 38.0 64.25 39.8 M62.7 35.4 L50.6 24.05 51.85 22.8 Q60.45 14.3 76.0 11.35 M65.5 38.0 L62.7 35.4 Q73.25 27.05 76.05 11.35" fill="none" stroke="#000000" stroke-linecap="round" stroke-linejoin="round" stroke-width="1.0"/>
    <path d="M60.6 5.2 Q47.0 0.4 34.9 6.9 26.55 13.2 22.75 22.4 L21.8 22.9 20.85 23.5 Q22.3 12.3 32.45 4.35 50.15 -0.7 60.6 5.2" fill="#4b4551" fill-rule="evenodd" stroke="none"/>
    <path d="M22.75 22.4 Q24.0 21.85 25.3 21.65 45.25 18.6 58.65 28.15 62.4 31.25 65.35 34.8 63.55 36.7 60.05 38.25 L59.25 37.3 60.05 38.25 Q57.55 39.4 54.1 40.35 L58.1 44.25 63.15 43.8 63.3 43.8 63.8 43.75 62.2 41.1 64.55 43.65 70.85 42.95 71.7 44.65 73.45 49.1 71.75 45.75 71.65 45.8 71.9 46.25 Q72.45 47.35 73.3 51.6 74.15 55.85 75.4 59.45 L75.55 59.35 75.4 57.0 Q77.1 67.65 80.5 73.2 72.0 63.0 70.3 49.25 L70.7 60.1 70.35 58.15 70.7 60.1 Q71.65 64.75 73.6 67.8 73.15 82.4 77.65 91.55 71.5 89.65 70.55 64.45 L70.45 63.9 Q69.0 49.8 64.55 43.65 L63.8 43.75 Q65.2 46.2 66.25 48.9 65.25 46.75 63.9 44.85 L64.7 46.65 Q66.3 50.2 67.1 54.15 L68.1 59.0 68.25 56.25 68.1 55.5 Q68.8 59.2 68.9 63.15 L68.8 67.4 68.9 63.15 69.9 67.75 Q70.3 74.3 70.2 78.55 L70.2 78.1 Q70.15 74.5 69.2 71.1 L69.5 77.75 Q69.65 83.2 67.75 88.1 69.55 85.3 70.0 81.45 L69.65 83.8 Q67.75 92.2 61.65 97.65 68.5 81.7 67.85 65.75 L68.65 69.0 68.8 67.4 Q67.55 54.5 58.1 44.25 L54.6 44.55 53.95 40.4 54.1 40.35 53.95 40.2 53.95 40.4 Q46.5 42.4 34.85 43.65 L33.5 45.45 49.45 44.85 51.2 42.85 51.95 44.7 54.6 44.55 54.85 46.95 Q54.95 58.2 45.6 62.6 48.9 60.7 51.25 56.95 54.25 51.45 51.95 44.7 L49.45 44.85 Q33.45 62.85 12.35 63.85 L17.65 61.6 15.8 62.7 15.9 62.8 Q20.1 60.9 24.15 58.3 30.5 54.2 34.2 47.75 L34.1 47.55 33.85 47.4 Q33.15 47.8 32.7 48.55 31.45 50.7 29.65 52.35 L27.25 54.5 28.85 52.5 27.25 54.5 Q24.45 57.55 20.45 60.05 22.9 55.85 28.85 52.5 L29.95 50.95 30.45 50.05 33.5 45.45 32.95 45.45 34.8 43.65 25.65 44.45 11.8 45.2 24.65 45.45 32.95 45.45 Q23.15 54.25 8.5 51.4 L12.9 52.9 13.8 53.1 14.25 53.2 14.7 53.3 Q12.35 57.35 12.1 63.9 L11.9 66.05 Q13.55 89.1 25.1 99.5 15.1 95.7 11.5 88.0 10.1 92.85 10.35 97.1 7.2 90.85 6.35 80.35 L5.95 84.25 Q4.05 72.25 5.6 55.15 1.1 71.85 2.1 87.55 -1.55 73.45 -1.45 52.95 -7.7 78.4 -12.0 82.35 -13.85 83.15 -16.0 83.5 -10.4 81.55 -7.5 70.4 -6.3 57.7 -1.4 45.0 4.55 28.0 19.25 24.75 20.05 24.05 20.85 23.5 L21.8 22.9 22.75 22.4 M24.15 64.55 Q19.6 72.95 24.65 80.7 L23.65 80.25 Q19.7 77.1 19.7 65.4 L24.15 64.55 M20.4 78.35 Q22.05 87.25 25.1 90.0 22.55 89.1 20.6 87.8 18.45 82.65 19.4 77.55 L20.4 78.35 M33.85 21.05 L33.7 21.1 33.6 21.2 33.5 21.3 33.45 21.45 Q34.2 22.1 35.2 22.6 40.15 24.95 45.6 25.55 L48.6 25.9 Q49.7 26.05 52.1 24.8 L48.45 24.35 44.1 24.0 Q38.65 23.55 33.85 21.05 M57.85 33.1 L55.0 30.85 61.5 37.35 Q60.1 35.0 57.85 33.1 M53.95 40.2 L53.8 39.3 53.95 40.2 M22.7 23.8 Q24.0 28.25 30.65 31.45 L25.1 24.6 Q33.05 23.25 39.35 24.6 30.95 20.1 22.7 23.8 M20.75 38.5 Q24.6 36.45 29.05 33.8 L22.75 36.6 Q18.35 38.6 14.65 41.25 17.55 40.15 20.75 38.5 M37.2 41.35 Q36.55 41.7 35.6 42.8 L35.35 43.05 35.2 43.2 35.35 43.05 35.6 42.8 Q36.55 41.7 37.2 41.35 M37.45 37.8 Q31.4 38.95 25.65 44.45 31.4 38.95 37.45 37.8 M34.8 43.65 L34.85 43.65 35.2 43.2 34.8 43.65 M24.65 45.45 Q16.5 52.7 5.15 49.85 L8.5 51.4 5.15 49.85 Q16.5 52.7 24.65 45.45 M8.3 65.2 Q7.45 68.55 7.55 72.4 7.75 78.15 9.7 82.95 15.5 95.25 12.55 87.6 9.55 79.9 8.9 75.1 8.2 70.25 8.3 65.2 M-0.85 52.55 Q-1.1 54.65 -0.5 59.45 0.05 64.2 0.3 71.35 0.5 78.5 0.45 70.65 L0.45 63.25 Q0.2 57.7 -0.85 52.55 M6.5 78.6 L6.35 80.35 6.5 78.6 M7.95 58.7 Q4.5 71.75 11.5 88.0 4.5 71.75 7.95 58.7 M72.65 73.55 L72.25 68.55 72.15 72.25 Q71.9 76.75 72.55 78.0 L72.65 73.55" fill="#585156" fill-rule="evenodd" stroke="none"/>
    <path d="M69.1 39.9 L71.25 42.9 Q79.5 53.65 89.3 51.4 79.55 57.4 71.7 44.65 L70.85 42.95 69.1 39.9 M80.5 73.2 Q76.15 71.9 73.6 67.8 71.65 64.75 70.7 60.1 L70.3 49.25 Q72.0 63.0 80.5 73.2 M77.65 91.55 Q72.75 90.6 69.65 83.8 L70.0 81.45 70.05 80.95 70.2 78.55 Q70.3 74.3 69.9 67.75 L68.9 63.15 Q68.8 59.2 68.1 55.5 L66.6 49.85 66.3 49.0 66.25 48.9 Q65.2 46.2 63.8 43.75 L64.55 43.65 Q69.0 49.8 70.45 63.9 L70.55 64.45 Q71.5 89.65 77.65 91.55 M61.65 97.65 L60.95 98.25 Q63.0 95.1 62.3 87.25 66.35 79.7 66.65 62.0 62.7 51.05 54.85 46.95 L54.6 44.55 58.1 44.25 Q67.55 54.5 68.8 67.4 L68.65 69.0 67.85 65.75 66.65 62.0 67.85 65.75 Q68.5 81.7 61.65 97.65 M45.6 62.6 L45.55 62.6 45.45 62.65 43.1 63.55 Q53.25 58.25 51.35 45.95 43.5 60.1 24.15 64.55 L19.7 65.4 17.55 65.4 Q15.05 65.05 12.25 63.9 L12.35 63.85 12.1 63.9 12.35 63.85 12.25 63.9 Q15.05 65.05 17.55 65.4 L19.7 65.4 Q19.7 77.1 23.65 80.25 21.85 79.4 20.4 78.35 L19.4 77.55 17.55 75.65 Q17.8 80.95 18.6 86.2 19.75 94.2 26.35 99.95 L25.1 99.5 Q13.55 89.1 11.9 66.05 L12.1 63.9 Q12.35 57.35 14.7 53.3 L14.25 53.2 13.8 53.1 12.9 52.9 8.5 51.4 Q23.15 54.25 32.95 45.45 L33.5 45.45 30.45 50.05 29.95 50.95 28.85 52.5 Q22.9 55.85 20.45 60.05 L17.8 61.5 17.65 61.6 12.35 63.85 Q33.45 62.85 49.45 44.85 L51.95 44.7 Q54.25 51.45 51.25 56.95 48.9 60.7 45.6 62.6 M20.6 87.8 L18.6 86.2 Q17.8 80.95 17.55 75.65 L19.4 77.55 Q18.45 82.65 20.6 87.8 M10.35 97.1 Q10.5 99.4 11.1 101.5 5.85 93.4 5.85 85.3 L4.25 101.95 -0.05 87.95 Q-4.0 75.7 -2.5 63.9 L-4.2 71.55 Q-6.0 79.55 -12.0 82.35 -7.7 78.4 -1.45 52.95 -1.55 73.45 2.1 87.55 1.1 71.85 5.6 55.15 4.05 72.25 5.95 84.25 L6.35 80.35 Q7.2 90.85 10.35 97.1 M33.85 21.05 Q38.65 23.55 44.1 24.0 L48.45 24.35 52.1 24.8 Q49.7 26.05 48.6 25.9 L45.6 25.55 Q40.15 24.95 35.2 22.6 34.2 22.1 33.45 21.45 L33.5 21.3 33.6 21.2 33.7 21.1 33.85 21.05 M54.1 40.35 L53.95 40.4 53.95 40.2 54.1 40.35 M71.25 42.9 L70.85 42.95 71.25 42.9 M22.7 23.8 Q30.95 20.1 39.35 24.6 33.05 23.25 25.1 24.6 L30.65 31.45 Q24.0 28.25 22.7 23.8 M34.85 43.65 L34.8 43.65 35.2 43.2 34.85 43.65 M17.8 61.5 Q18.05 57.65 18.65 53.7 24.65 53.85 29.95 50.95 24.65 53.85 18.65 53.7 18.05 57.65 17.8 61.5 M14.25 53.2 L18.65 53.7 14.25 53.2 M5.95 84.25 L5.85 85.3 5.95 84.25 M17.55 75.65 Q17.3 70.55 17.55 65.4 17.3 70.55 17.55 75.65 M69.75 65.75 L69.9 67.75 69.75 65.75 M-2.5 63.9 L-1.7 59.2 -2.5 63.9" fill="#2a2629" fill-rule="evenodd" stroke="none"/>
    <path d="M32.45 4.35 L32.85 4.0 Q37.05 2.2 40.9 1.4 47.35 0.05 52.85 1.45 57.0 2.5 60.6 5.2 50.15 -0.7 32.45 4.35 M65.35 34.8 Q67.3 37.1 68.9 39.6 L69.1 39.9 70.85 42.95 64.55 43.65 62.2 41.1 60.3 38.55 60.05 38.25 60.3 38.55 62.2 41.1 63.8 43.75 63.3 43.8 63.15 43.8 58.1 44.25 54.1 40.35 Q57.55 39.4 60.05 38.25 63.55 36.7 65.35 34.8 M73.45 49.1 L73.5 49.2 73.75 50.05 73.45 49.1 M53.95 40.4 L54.6 44.55 51.95 44.7 51.2 42.85 49.45 44.85 33.5 45.45 34.85 43.65 Q46.5 42.4 53.95 40.4 M66.25 48.9 L66.3 49.0 66.6 49.85 66.25 48.9 M25.65 44.45 L24.95 45.15 24.65 45.45 24.95 45.15 25.65 44.45 34.8 43.65 32.95 45.45 24.65 45.45 11.8 45.2 25.65 44.45" fill="#a698a2" fill-rule="evenodd" stroke="none"/>
    <path d="M73.75 50.05 Q74.65 52.9 75.2 55.95 L75.3 56.5 75.4 57.0 75.55 59.35 75.4 59.45 Q74.15 55.85 73.3 51.6 72.45 47.35 71.9 46.25 L71.65 45.8 71.75 45.75 73.45 49.1 73.75 50.05 M57.85 33.1 Q60.1 35.0 61.5 37.35 L55.0 30.85 57.85 33.1 M68.1 55.5 L68.25 56.25 68.1 59.0 67.1 54.15 Q66.3 50.2 64.7 46.65 L63.9 44.85 Q65.25 46.75 66.25 48.9 L66.6 49.85 68.1 55.5 M20.75 38.5 Q17.55 40.15 14.65 41.25 18.35 38.6 22.75 36.6 L29.05 33.8 Q24.6 36.45 20.75 38.5 M27.25 54.5 L29.65 52.35 Q31.45 50.7 32.7 48.55 33.15 47.8 33.85 47.4 L34.1 47.55 34.2 47.75 Q30.5 54.2 24.15 58.3 20.1 60.9 15.9 62.8 L15.8 62.7 17.65 61.6 17.8 61.5 20.45 60.05 Q24.45 57.55 27.25 54.5 M-0.85 52.55 Q0.2 57.7 0.45 63.25 L0.45 70.65 Q0.5 78.5 0.3 71.35 0.05 64.2 -0.5 59.45 -1.1 54.65 -0.85 52.55 M8.3 65.2 Q8.2 70.25 8.9 75.1 9.55 79.9 12.55 87.6 15.5 95.25 9.7 82.95 7.75 78.15 7.55 72.4 7.45 68.55 8.3 65.2 M72.65 73.55 L72.55 78.0 Q71.9 76.75 72.15 72.25 L72.25 68.55 72.65 73.55 M70.0 81.45 Q69.55 85.3 67.75 88.1 69.65 83.2 69.5 77.75 L69.2 71.1 Q70.15 74.5 70.2 78.1 L70.2 78.55 70.05 80.95 70.0 81.45" fill="#83777f" fill-rule="evenodd" stroke="none"/>
    <path d="M32.45 4.35 L32.85 4.0 Q37.05 2.2 40.9 1.4 47.35 0.05 52.85 1.45 57.0 2.5 60.6 5.2 47.0 0.4 34.9 6.9 26.55 13.2 22.75 22.4 24.0 21.85 25.3 21.65 45.25 18.6 58.65 28.15 62.4 31.25 65.35 34.8 67.3 37.1 68.9 39.6 L69.1 39.9 71.25 42.9 Q79.5 53.65 89.3 51.4 79.55 57.4 71.7 44.65 L73.45 49.1 73.75 50.05 Q74.65 52.9 75.2 55.95 L75.3 56.5 75.4 57.0 Q77.1 67.65 80.5 73.2 76.15 71.9 73.6 67.8 73.15 82.4 77.65 91.55 72.75 90.6 69.65 83.8 67.75 92.2 61.65 97.65 L60.95 98.25 Q63.0 95.1 62.3 87.25 66.35 79.7 66.65 62.0 62.7 51.05 54.85 46.95 54.95 58.2 45.6 62.6 L45.55 62.6 45.45 62.65 43.1 63.55 Q53.25 58.25 51.35 45.95 43.5 60.1 24.15 64.55 19.6 72.95 24.65 80.7 L23.65 80.25 Q21.85 79.4 20.4 78.35 22.05 87.25 25.1 90.0 22.55 89.1 20.6 87.8 L18.6 86.2 Q19.75 94.2 26.35 99.95 L25.1 99.5 Q15.1 95.7 11.5 88.0 10.1 92.85 10.35 97.1 10.5 99.4 11.1 101.5 5.85 93.4 5.85 85.3 L4.25 101.95 -0.05 87.95 Q-4.0 75.7 -2.5 63.9 L-4.2 71.55 Q-6.0 79.55 -12.0 82.35 -13.85 83.15 -16.0 83.5 -10.4 81.55 -7.5 70.4 -6.3 57.7 -1.4 45.0 4.55 28.0 19.25 24.75 20.05 24.05 20.85 23.5 22.3 12.3 32.45 4.35 M60.05 38.25 L59.25 37.3 M62.2 41.1 L60.3 38.55 60.05 38.25 M63.8 43.75 L62.2 41.1 M70.85 42.95 L69.1 39.9 M54.1 40.35 L53.95 40.4 54.6 44.55 54.85 46.95 M68.8 67.4 L68.9 63.15 Q68.8 59.2 68.1 55.5 L66.6 49.85 66.25 48.9 Q65.2 46.2 63.8 43.75 M53.95 40.2 L53.95 40.4 M34.85 43.65 L33.5 45.45 30.45 50.05 29.95 50.95 28.85 52.5 27.25 54.5 Q24.45 57.55 20.45 60.05 L17.8 61.5 17.65 61.6 12.35 63.85 12.25 63.9 Q15.05 65.05 17.55 65.4 L19.7 65.4 24.15 64.55 M53.8 39.3 L53.95 40.2 M70.85 42.95 L71.7 44.65 M70.85 42.95 L71.25 42.9 M22.75 22.4 L21.8 22.9 20.85 23.5 M24.65 45.45 L24.95 45.15 25.65 44.45 Q31.4 38.95 37.45 37.8 M35.2 43.2 L35.35 43.05 35.6 42.8 Q36.55 41.7 37.2 41.35 M34.85 43.65 L34.8 43.65 M35.2 43.2 L34.85 43.65 M29.95 50.95 Q24.65 53.85 18.65 53.7 18.05 57.65 17.8 61.5 M14.25 53.2 L13.8 53.1 12.9 52.9 8.5 51.4 5.15 49.85 Q16.5 52.7 24.65 45.45 M18.65 53.7 L14.25 53.2 M12.1 63.9 L12.35 63.85 M19.4 77.55 L17.55 75.65 Q17.8 80.95 18.6 86.2 M5.85 85.3 L5.95 84.25 6.35 80.35 6.5 78.6 M17.55 65.4 Q17.3 70.55 17.55 75.65 M11.5 88.0 Q4.5 71.75 7.95 58.7 M20.4 78.35 L19.4 77.55 M70.7 60.1 L70.35 58.15 M70.2 78.55 Q70.3 74.3 69.9 67.75 L68.9 63.15 M67.85 65.75 L68.65 69.0 68.8 67.4 M66.65 62.0 L67.85 65.75 M69.9 67.75 L69.75 65.75 M73.6 67.8 Q71.65 64.75 70.7 60.1 M69.65 83.8 L70.0 81.45 70.05 80.95 70.2 78.55 M-1.7 59.2 L-2.5 63.9" fill="none" stroke="#000000" stroke-linecap="round" stroke-linejoin="round" stroke-width="1.0"/>
    <path d="M37.7 13.3 L38.85 13.55 Q38.05 15.15 40.55 17.35 42.45 16.15 44.2 13.55 L45.35 13.8 Q45.8 17.2 46.4 18.75 48.55 18.6 49.1 15.95 L51.65 16.6 50.4 22.2 Q43.8 22.55 36.8 19.9 L37.7 13.3 M50.1 23.4 L49.75 24.8 44.85 24.6 Q39.5 23.5 36.6 21.3 L36.7 20.75 Q43.1 23.5 50.1 23.4" fill="#ffed6d" fill-rule="evenodd" stroke="none"/>
    <path d="M50.4 22.2 L50.1 23.4 Q43.1 23.5 36.7 20.75 L36.6 21.3 Q39.5 23.5 44.85 24.6 39.3 23.95 34.8 21.25 L35.3 19.25 36.65 13.1 37.7 13.3 36.8 19.9 Q43.8 22.55 50.4 22.2 M36.8 19.9 L35.3 19.25 36.8 19.9" fill="#b48833" fill-rule="evenodd" stroke="none"/>
    <path d="M37.7 13.3 L38.85 13.55 Q38.05 15.15 40.55 17.35 42.45 16.15 44.2 13.55 L45.35 13.8 Q45.8 17.2 46.4 18.75 48.55 18.6 49.1 15.95 L51.65 16.6 50.4 22.2 50.1 23.4 49.75 24.8 44.85 24.6 Q39.3 23.95 34.8 21.25 L35.3 19.25 36.65 13.1 37.7 13.3 37.85 12.1 M36.8 19.9 Q43.8 22.55 50.4 22.2 M35.3 19.25 L36.8 19.9" fill="none" stroke="#000000" stroke-linecap="round" stroke-linejoin="round" stroke-width="1.0"/>
    <path d="M42.55 12.45 L42.65 11.6 Q42.8 10.65 43.7 10.1 44.55 9.6 45.5 9.75 46.5 10.05 47.05 10.85 47.55 11.7 47.4 12.65 L47.15 13.3 Q44.6 14.2 42.55 12.45 M45.5 10.55 Q44.65 10.85 45.05 11.7 45.7 13.15 46.85 12.55 L46.55 11.55 Q46.2 10.8 45.5 10.55 M48.4 14.85 L48.45 14.3 Q48.7 13.3 49.6 12.8 50.45 12.25 51.45 12.5 52.4 12.65 52.9 13.55 53.45 14.4 53.2 15.35 L52.9 16.2 Q50.3 16.95 48.4 14.85 M50.8 13.15 Q50.05 13.4 50.45 14.05 50.95 15.0 51.85 14.9 52.3 14.45 51.85 13.95 L50.8 13.15 M36.1 11.45 Q36.25 10.5 37.15 10.0 38.0 9.45 39.0 9.65 39.95 9.9 40.45 10.7 40.95 11.6 40.75 12.5 40.55 13.4 39.85 13.95 37.5 13.9 36.1 11.45 M38.3 10.3 Q38.05 10.25 37.95 10.45 L37.8 10.6 Q37.8 11.2 38.05 11.75 38.5 12.75 39.5 12.7 40.0 12.15 39.55 11.45 39.1 10.65 38.3 10.3" fill="#ffed6d" fill-rule="evenodd" stroke="none"/>
    <path d="M47.15 13.3 L46.3 14.15 Q45.45 14.7 44.45 14.5 43.45 14.3 42.9 13.4 L42.55 12.45 Q44.6 14.2 47.15 13.3 M52.9 16.2 L52.15 16.9 Q51.3 17.4 50.35 17.25 49.35 17.0 48.8 16.15 48.4 15.55 48.4 14.85 50.3 16.95 52.9 16.2 M39.85 13.95 L39.65 14.05 Q38.85 14.6 37.9 14.4 36.9 14.15 36.4 13.3 35.8 12.4 36.1 11.45 37.5 13.9 39.85 13.95" fill="#b48833" fill-rule="evenodd" stroke="none"/>
    <path d="M45.5 10.55 Q46.2 10.8 46.55 11.55 L46.85 12.55 Q45.7 13.15 45.05 11.7 44.65 10.85 45.5 10.55 M50.8 13.15 L51.85 13.95 Q52.3 14.45 51.85 14.9 50.95 15.0 50.45 14.05 50.05 13.4 50.8 13.15 M38.3 10.3 Q39.1 10.65 39.55 11.45 40.0 12.15 39.5 12.7 38.5 12.75 38.05 11.75 37.8 11.2 37.8 10.6 L37.95 10.45 Q38.05 10.25 38.3 10.3" fill="#fffebf" fill-rule="evenodd" stroke="none"/>
    <path d="M42.55 12.45 L42.65 11.6 Q42.8 10.65 43.7 10.1 44.55 9.6 45.5 9.75 46.5 10.05 47.05 10.85 47.55 11.7 47.4 12.65 L47.15 13.3 46.3 14.15 Q45.45 14.7 44.45 14.5 43.45 14.3 42.9 13.4 L42.55 12.45 M52.9 16.2 L52.15 16.9 Q51.3 17.4 50.35 17.25 49.35 17.0 48.8 16.15 48.4 15.55 48.4 14.85 L48.45 14.3 Q48.7 13.3 49.6 12.8 50.45 12.25 51.45 12.5 52.4 12.65 52.9 13.55 53.45 14.4 53.2 15.35 L52.9 16.2 M36.1 11.45 Q36.25 10.5 37.15 10.0 38.0 9.45 39.0 9.65 39.95 9.9 40.45 10.7 40.95 11.6 40.75 12.5 40.55 13.4 39.85 13.95 L39.65 14.05 Q38.85 14.6 37.9 14.4 36.9 14.15 36.4 13.3 35.8 12.4 36.1 11.45" fill="none" stroke="#000000" stroke-linecap="round" stroke-linejoin="round" stroke-width="1.0"/>
    <path d="M8.1 18.1 Q3.85 16.35 -0.65 15.65 1.1 16.05 3.5 17.0 L15.5 21.9 Q12.1 19.75 8.1 18.1 M15.0 31.15 Q13.35 31.85 11.3 32.4 L-8.65 14.0 -8.85 13.75 Q8.1 12.0 22.2 25.3 L22.2 25.35 21.9 25.55 Q20.25 28.95 15.0 31.15 M-4.8 15.7 L-4.4 15.5 -4.65 15.55 -4.8 15.7" fill="#585156" fill-rule="evenodd" stroke="none"/>
    <path d="M-9.15 13.9 Q-5.65 24.95 9.05 35.35 7.25 41.05 1.65 45.2 -10.0 25.8 -9.15 13.9" fill="#e59dd0" fill-rule="evenodd" stroke="none"/>
    <path d="M-8.85 13.75 L-8.65 14.0 -8.9 13.75 -8.65 14.0 Q0.7 27.85 11.35 34.1 7.7 42.05 1.7 45.25 L1.65 45.2 Q7.25 41.05 9.05 35.35 -5.65 24.95 -9.15 13.9 L-9.15 13.75 -8.9 13.75 -8.85 13.75" fill="#c28197" fill-rule="evenodd" stroke="none"/>
    <path d="M-8.65 14.0 L11.3 32.4 Q13.35 31.85 15.0 31.15 L11.35 34.1 Q0.7 27.85 -8.65 14.0" fill="#2a2629" fill-rule="evenodd" stroke="none"/>
    <path d="M-4.8 15.7 L-4.65 15.55 -4.4 15.5 -4.8 15.7" fill="#a698a2" fill-rule="evenodd" stroke="none"/>
    <path d="M8.1 18.1 Q12.1 19.75 15.5 21.9 L3.5 17.0 Q1.1 16.05 -0.65 15.65 3.85 16.35 8.1 18.1" fill="#83777f" fill-rule="evenodd" stroke="none"/>
    <path d="M21.9 25.55 L22.2 25.35 M22.2 25.3 Q8.1 12.0 -8.85 13.75 L-8.65 14.0 -8.9 13.75 -9.15 13.75 -9.15 13.9 Q-10.0 25.8 1.65 45.2 L1.7 45.25 M11.35 34.1 Q0.7 27.85 -8.65 14.0 M-8.85 13.75 L-8.9 13.75" fill="none" stroke="#000000" stroke-linecap="round" stroke-linejoin="round" stroke-width="1.0"/>
    <path d="M27.7 59.3 L27.4 58.95 Q26.8 58.2 27.05 57.55 25.95 57.35 24.95 56.45 23.25 54.9 25.5 54.15 27.45 53.4 28.7 51.85 30.95 52.7 30.85 55.4 L30.85 55.6 30.95 55.6 Q32.1 56.25 32.35 57.05 L31.65 57.45 Q30.8 58.0 30.45 58.85 L27.7 59.3 M32.15 58.45 Q34.3 59.35 35.25 61.5 35.5 62.2 34.9 62.3 L32.85 62.9 31.95 63.4 Q29.7 65.35 28.8 62.9 28.2 61.1 28.9 60.0 L30.35 59.9 29.9 60.0 30.15 60.55 31.55 62.4 Q31.8 62.65 31.8 62.4 31.95 60.8 31.15 59.6 L31.0 59.7 Q31.75 59.3 32.15 58.45 M28.3 56.25 L29.55 55.75 27.6 53.8 Q26.6 54.55 27.8 55.75 L28.3 56.25 Q27.45 56.7 27.05 57.55 27.45 56.7 28.3 56.25 M30.85 55.6 L29.55 55.75 30.85 55.6" fill="#f38ef2" fill-rule="evenodd" stroke="none"/>
    <path d="M32.35 57.05 Q32.55 57.7 32.15 58.45 31.75 59.3 31.0 59.7 L31.15 59.6 Q31.95 60.8 31.8 62.4 31.8 62.65 31.55 62.4 L30.15 60.55 29.9 60.0 30.35 59.9 28.9 60.0 27.7 59.3 30.45 58.85 Q30.8 58.0 31.65 57.45 L32.35 57.05 M29.55 55.75 L28.3 56.25 27.8 55.75 Q26.6 54.55 27.6 53.8 L29.55 55.75 M31.0 59.7 L30.35 59.9 31.0 59.7" fill="#b55bcd" fill-rule="evenodd" stroke="none"/>
    <path d="M27.7 59.3 L27.4 58.95 Q26.8 58.2 27.05 57.55 25.95 57.35 24.95 56.45 23.25 54.9 25.5 54.15 27.45 53.4 28.7 51.85 30.95 52.7 30.85 55.4 L30.85 55.6 30.95 55.6 Q32.1 56.25 32.35 57.05 32.55 57.7 32.15 58.45 34.3 59.35 35.25 61.5 35.5 62.2 34.9 62.3 L32.85 62.9 31.95 63.4 Q29.7 65.35 28.8 62.9 28.2 61.1 28.9 60.0 L27.7 59.3 M31.0 59.7 Q31.75 59.3 32.15 58.45 M30.35 59.9 L28.9 60.0 M28.3 56.25 L29.55 55.75 30.85 55.6 M28.3 56.25 Q27.45 56.7 27.05 57.55 M30.35 59.9 L31.0 59.7" fill="none" stroke="#000000" stroke-linecap="round" stroke-linejoin="round" stroke-width="1.0"/>
  </g>
</svg>
