<?xml version="1.0" encoding="UTF-8" standalone="no"?>
<svg xmlns:xlink="http://www.w3.org/1999/xlink" height="32.2px" width="19.35px" xmlns="http://www.w3.org/2000/svg">
  <g transform="matrix(1.0, 0.0, 0.0, 1.0, 2.4, 1.15)">
    <path d="M0.55 -0.95 Q5.9 6.35 8.35 14.95 8.65 16.2 4.55 16.4 L3.4 14.55 Q-1.1 7.35 -1.55 4.95 -2.25 2.6 -1.5 1.05 -0.95 0.0 0.55 -0.95 M3.6 21.6 Q5.05 20.4 7.25 19.35 L7.65 20.15 7.25 19.35 7.8 19.05 Q11.75 17.85 15.2 22.9 15.35 24.65 14.65 25.65 12.25 29.9 7.5 30.2 2.6 30.2 0.95 26.5 L0.9 26.45 Q0.85 23.85 3.6 21.6 L4.0 22.65 3.6 21.6" fill="#ffead5" fill-rule="evenodd" stroke="none"/>
    <path d="M0.55 -0.95 L4.4 -1.1 Q4.95 -1.05 4.05 -0.65 5.3 -0.5 7.1 2.35 8.85 5.15 11.0 11.5 L11.65 13.15 Q15.0 20.15 15.2 22.9 11.75 17.85 7.8 19.05 L7.25 19.35 Q5.05 20.4 3.6 21.6 L3.05 20.45 3.6 21.6 Q0.85 23.85 0.9 26.45 -0.1 23.15 3.05 20.45 L4.25 19.5 Q5.05 19.0 5.8 18.7 L4.55 16.4 Q8.65 16.2 8.35 14.95 5.9 6.35 0.55 -0.95 M13.1 19.7 Q11.15 16.6 7.2 18.1 L6.8 18.25 5.8 18.7 6.8 18.25 7.2 18.1 Q11.15 16.6 13.1 19.7 M6.8 18.25 L7.25 19.35 6.8 18.25" fill="#efc3c0" fill-rule="evenodd" stroke="none"/>
    <path d="M4.55 16.4 L5.8 18.7 6.8 18.25 7.2 18.1 Q11.15 16.6 13.1 19.7 M-1.5 1.05 Q-2.25 2.6 -1.55 4.95 -1.1 7.35 3.4 14.55 L4.55 16.4 M3.05 20.45 L3.6 21.6 4.0 22.65 M7.25 19.35 L6.8 18.25 M5.8 18.7 Q5.05 19.0 4.25 19.5 L3.05 20.45 Q-0.1 23.15 0.9 26.45 L0.95 26.5 Q2.6 30.2 7.5 30.2 12.25 29.9 14.65 25.65 15.35 24.65 15.2 22.9 15.0 20.15 11.65 13.15 L11.0 11.5 Q8.85 5.15 7.1 2.35 5.3 -0.5 4.05 -0.65 M7.25 19.35 L7.65 20.15" fill="none" stroke="#000000" stroke-linecap="round" stroke-linejoin="round" stroke-width="1.0"/>
    <path d="M5.1 7.65 L9.8 7.1 Q11.15 12.15 15.45 19.0 11.2 15.15 6.95 17.2 L5.45 18.0 4.9 18.4 3.65 16.6 Q7.4 15.35 8.4 13.9 7.95 11.1 5.1 7.65" fill="#cbcbcb" fill-rule="evenodd" stroke="none"/>
    <path d="M15.45 19.0 L15.6 19.2 16.35 21.65 Q12.0 16.4 7.7 18.15 L7.15 18.5 6.65 17.65 7.15 18.5 Q4.8 19.95 3.4 21.45 0.55 24.25 0.95 27.1 -0.75 22.9 3.9 19.1 L4.9 18.4 5.45 18.0 6.95 17.2 Q11.2 15.15 15.45 19.0 M3.4 21.45 L2.85 20.4 3.4 21.45" fill="#bfbfbf" fill-rule="evenodd" stroke="none"/>
    <path d="M16.35 21.65 Q16.65 23.5 16.0 24.7 13.75 29.7 8.6 30.5 3.25 31.05 0.95 27.15 L0.95 27.1 Q0.55 24.25 3.4 21.45 4.8 19.95 7.15 18.5 L7.7 18.15 Q12.0 16.4 16.35 21.65 M3.65 16.6 Q1.5 13.65 -0.55 11.6 1.55 8.65 5.1 7.65 7.95 11.1 8.4 13.9 7.4 15.35 3.65 16.6 M3.9 22.55 L3.4 21.45 3.9 22.55 M7.7 19.45 L7.15 18.5 7.7 19.45" fill="#ffffff" fill-rule="evenodd" stroke="none"/>
    <path d="M5.1 7.65 L9.8 7.1 Q11.15 12.15 15.45 19.0 L15.6 19.2 16.35 21.65 Q16.65 23.5 16.0 24.7 13.75 29.7 8.6 30.5 3.25 31.05 0.95 27.15 L0.95 27.1 Q-0.75 22.9 3.9 19.1 L4.9 18.4 3.65 16.6 Q1.5 13.65 -0.55 11.6 1.55 8.65 5.1 7.65 M4.9 18.4 L5.45 18.0 6.95 17.2 Q11.2 15.15 15.45 19.0 M6.65 17.65 L7.15 18.5 7.7 19.45 M2.85 20.4 L3.4 21.45 3.9 22.55" fill="none" stroke="#000000" stroke-linecap="round" stroke-linejoin="round" stroke-width="1.0"/>
  </g>
</svg>
