<?xml version="1.0" encoding="UTF-8" standalone="no"?>
<svg xmlns:xlink="http://www.w3.org/1999/xlink" height="33.2px" width="17.1px" xmlns="http://www.w3.org/2000/svg">
  <g transform="matrix(1.0, 0.0, 0.0, 1.0, 0.25, 0.5)">
    <path d="M12.2 4.35 L11.25 4.55 Q10.35 4.8 9.55 5.4 8.8 6.0 8.5 6.55 8.2 7.2 8.55 7.45 L9.75 7.3 10.85 6.8 11.85 6.6 Q12.7 6.35 13.45 5.75 L14.6 4.55 Q14.9 3.95 14.55 3.75 L13.35 3.85 Q12.75 4.0 12.2 4.35 M13.8 2.4 Q18.25 6.85 16.25 10.85 14.25 14.85 12.1 20.05 L8.7 28.95 Q7.5 32.75 3.4 32.1 2.0 31.85 1.25 31.1 5.25 13.15 7.9 6.2 10.3 3.6 13.8 2.4" fill="#ffead5" fill-rule="evenodd" stroke="none"/>
    <path d="M10.85 6.8 L10.65 6.75 Q10.3 6.5 10.6 5.85 10.9 5.3 11.65 4.7 L12.2 4.35 Q12.75 4.0 13.35 3.85 L14.55 3.75 Q14.9 3.95 14.6 4.55 L13.45 5.75 Q12.7 6.35 11.85 6.6 L10.85 6.8" fill="#ffffff" fill-rule="evenodd" stroke="none"/>
    <path d="M7.9 6.2 Q5.25 13.15 1.25 31.1 -0.3 29.65 0.55 26.2 1.75 20.95 4.2 12.95 5.45 8.85 7.9 6.2" fill="#efc3c0" fill-rule="evenodd" stroke="none"/>
    <path d="M13.8 2.4 Q10.3 3.6 7.9 6.2 5.45 8.85 4.2 12.95 1.75 20.95 0.55 26.2 -0.3 29.65 1.25 31.1 2.0 31.85 3.4 32.1 7.5 32.75 8.7 28.95 L12.1 20.05 Q14.25 14.85 16.25 10.85" fill="none" stroke="#000000" stroke-linecap="round" stroke-linejoin="round" stroke-width="1.0"/>
    <path d="M1.25 31.1 L1.1 31.8" fill="none" stroke="#000000" stroke-linecap="round" stroke-linejoin="round" stroke-width="0.05"/>
    <path d="M13.0 14.15 Q6.3 7.55 7.8 7.15 9.3 7.0 13.25 11.0 11.15 6.9 8.5 5.3 9.7 3.95 12.1 4.1 12.7 7.75 15.45 14.05 L14.1 16.15 13.0 14.15" fill="#fff680" fill-rule="evenodd" stroke="none"/>
    <path d="M12.05 3.6 L12.1 4.1 Q9.7 3.95 8.5 5.3 11.15 6.9 13.25 11.0 9.3 7.0 7.8 7.15 6.3 7.55 13.0 14.15 5.95 9.2 5.35 7.5 5.3 5.35 5.85 3.95 L7.15 3.45 Q8.0 3.15 8.75 2.1 9.75 0.4 11.25 0.0 L11.95 0.4 Q13.75 1.5 14.15 2.75 L12.05 3.6 Q12.15 1.6 11.25 0.0 12.15 1.6 12.05 3.6" fill="#c4a232" fill-rule="evenodd" stroke="none"/>
    <path d="M12.1 4.1 L12.05 3.6 Q12.15 1.6 11.25 0.0 9.75 0.4 8.75 2.1 8.0 3.15 7.15 3.45 L5.85 3.95 Q5.3 5.35 5.35 7.5 5.95 9.2 13.0 14.15 L14.1 16.15 15.45 14.05 Q12.7 7.75 12.1 4.1 M11.25 0.0 L11.95 0.4 Q13.75 1.5 14.15 2.75 L12.05 3.6" fill="none" stroke="#000000" stroke-linecap="round" stroke-linejoin="round" stroke-width="1.0"/>
  </g>
</svg>
