<?xml version="1.0" encoding="UTF-8" standalone="no"?>
<svg xmlns:xlink="http://www.w3.org/1999/xlink" height="33.9px" width="18.65px" xmlns="http://www.w3.org/2000/svg">
  <g transform="matrix(1.0, 0.0, 0.0, 1.0, 6.05, 1.25)">
    <path d="M7.4 0.55 Q8.5 9.2 6.95 17.85 5.75 19.15 2.8 17.6 L2.45 14.95 Q1.35 6.55 1.9 4.2 2.3 1.8 5.0 -0.75 5.0 0.35 6.0 0.4 L7.4 0.55" fill="#ffead5" fill-rule="evenodd" stroke="none"/>
    <path d="M7.4 0.55 L8.9 0.95 Q10.45 2.1 10.9 5.4 11.0 6.05 10.5 5.45 11.2 10.0 10.65 15.3 L10.55 17.1 Q10.65 22.2 10.3 25.05 8.7 20.05 4.45 19.75 L2.95 19.7 2.8 17.6 Q5.75 19.15 6.95 17.85 8.5 9.2 7.4 0.55" fill="#efc3c0" fill-rule="evenodd" stroke="none"/>
    <path d="M2.8 17.6 L2.95 19.7 M10.3 25.05 Q10.65 22.2 10.55 17.1 L10.65 15.3 Q11.2 10.0 10.5 5.45 M5.0 -0.75 Q2.3 1.8 1.9 4.2 1.35 6.55 2.45 14.95 L2.8 17.6 Z" fill="none" stroke="#000000" stroke-linecap="round" stroke-linejoin="round" stroke-width="1.0"/>
    <path d="M2.05 16.9 Q1.65 13.3 0.9 10.5 4.2 9.0 7.8 9.95 8.55 14.3 7.5 17.0 5.95 17.75 2.05 16.9 M10.55 27.65 Q9.9 29.45 8.7 30.15 4.3 33.35 -0.6 31.45 -5.5 29.25 -5.55 24.75 L-5.55 24.7 Q-4.45 22.05 -0.6 21.0 L4.15 20.35 4.8 20.3 Q9.4 20.95 10.55 27.65 M4.15 21.4 L4.15 20.35 4.15 21.4 M-0.7 22.2 L-0.6 21.0 -0.7 22.2" fill="#ffffff" fill-rule="evenodd" stroke="none"/>
    <path d="M11.1 24.95 L11.1 25.2 10.55 27.65 Q9.4 20.95 4.8 20.3 L4.15 20.35 4.15 19.35 4.15 20.35 -0.6 21.0 -0.5 19.85 -0.6 21.0 Q-4.45 22.05 -5.55 24.7 -4.9 20.2 1.05 19.2 L2.25 19.1 2.95 19.05 4.6 19.1 Q9.35 19.45 11.1 24.95" fill="#bfbfbf" fill-rule="evenodd" stroke="none"/>
    <path d="M7.8 9.95 Q9.9 10.45 12.1 11.8 10.8 16.85 11.1 24.95 9.35 19.45 4.6 19.1 L2.95 19.05 2.25 19.1 2.05 16.9 Q5.95 17.75 7.5 17.0 8.55 14.3 7.8 9.95" fill="#cbcbcb" fill-rule="evenodd" stroke="none"/>
    <path d="M2.05 16.9 Q1.65 13.3 0.9 10.5 4.2 9.0 7.8 9.95 9.9 10.45 12.1 11.8 10.8 16.85 11.1 24.95 L11.1 25.2 10.55 27.65 Q9.9 29.45 8.7 30.15 4.3 33.35 -0.6 31.45 -5.5 29.25 -5.55 24.75 L-5.55 24.7 Q-4.9 20.2 1.05 19.2 L2.25 19.1 2.05 16.9 M2.25 19.1 L2.95 19.05 4.6 19.1 Q9.35 19.45 11.1 24.95 M4.15 20.35 L4.15 21.4 M4.15 19.35 L4.15 20.35 M-0.6 21.0 L-0.7 22.2 M-0.5 19.85 L-0.6 21.0" fill="none" stroke="#000000" stroke-linecap="round" stroke-linejoin="round" stroke-width="1.0"/>
  </g>
</svg>
