<?xml version="1.0" encoding="UTF-8" standalone="no"?>
<svg xmlns:xlink="http://www.w3.org/1999/xlink" height="16.25px" width="17.75px" xmlns="http://www.w3.org/2000/svg">
  <g transform="matrix(1.0, 0.0, 0.0, 1.0, 1.95, 8.05)">
    <path d="M6.05 7.55 L6.05 7.8 5.9 7.55 5.15 7.5 4.05 7.5 Q0.7 7.25 0.25 5.9 L0.15 1.65 0.05 1.65 -1.45 -4.05 Q-1.1 -5.55 2.5 -7.4 4.45 -4.15 4.95 3.15 3.85 6.8 6.05 7.55 L5.9 7.55 6.05 7.55" fill="#39343a" fill-rule="evenodd" stroke="none"/>
    <path d="M2.5 -7.4 Q2.35 -9.55 10.05 -4.8 10.9 0.05 8.45 1.65 L8.55 1.65 8.25 1.8 Q18.7 4.75 13.7 7.65 L6.05 7.55 Q3.85 6.8 4.95 3.15 4.45 -4.15 2.5 -7.4 M7.65 2.2 L8.25 1.8 7.65 2.2" fill="#6b626d" fill-rule="evenodd" stroke="none"/>
    <path d="M10.05 -4.8 Q10.9 0.05 8.45 1.65 M8.55 1.65 L8.25 1.8 Q18.7 4.75 13.7 7.65 L6.05 7.55 5.9 7.55 5.15 7.5 4.05 7.5 Q0.7 7.25 0.25 5.9 L0.15 1.65 M0.05 1.65 L-1.45 -4.05 M8.25 1.8 L7.65 2.2" fill="none" stroke="#000000" stroke-linecap="round" stroke-linejoin="round" stroke-width="1.0"/>
    <path d="M13.2 6.1 L13.1 6.5 12.6 6.75 Q12.0 6.75 11.95 6.1 11.95 5.45 12.6 5.45 13.2 5.45 13.2 6.1 M14.65 5.6 L14.55 6.0 Q14.4 6.25 14.05 6.25 13.45 6.25 13.4 5.6 13.4 4.95 14.05 4.95 14.65 4.95 14.65 5.6" fill="#daaaff" fill-rule="evenodd" stroke="none"/>
  </g>
</svg>
