<?xml version="1.0" encoding="UTF-8" standalone="no"?>
<svg xmlns:xlink="http://www.w3.org/1999/xlink" height="14.15px" width="9.4px" xmlns="http://www.w3.org/2000/svg">
  <g transform="matrix(1.0, 0.0, 0.0, 1.0, 1.0, 1.0)">
    <path d="M2.3 11.75 L2.35 11.4 Q2.35 10.9 2.0 10.8 1.25 7.95 2.3 0.0 L5.95 0.1 7.9 10.45 Q7.15 12.55 4.65 12.55 L2.85 12.65 2.3 11.75 M6.85 11.1 Q6.85 10.45 6.25 10.45 5.65 10.5 5.65 11.15 L5.7 11.45 Q5.85 11.75 6.25 11.75 6.85 11.75 6.85 11.1 M4.6 11.55 Q4.6 11.05 4.0 10.95 3.35 10.9 3.35 11.55 L3.45 11.9 3.95 12.2 Q4.6 12.2 4.6 11.55" fill="#6b626d" fill-rule="evenodd" stroke="none"/>
    <path d="M2.3 11.75 L2.85 12.65 Q0.45 12.5 0.35 11.2 L-0.5 -0.5 Q-0.05 0.3 2.3 0.0 1.25 7.95 2.0 10.8 L1.75 10.75 Q1.15 10.75 1.15 11.4 L1.25 11.7 1.75 12.0 2.3 11.75" fill="#39343a" fill-rule="evenodd" stroke="none"/>
    <path d="M2.0 10.8 Q2.35 10.9 2.35 11.4 L2.3 11.75 1.75 12.0 1.25 11.7 1.15 11.4 Q1.15 10.75 1.75 10.75 L2.0 10.8 M4.6 11.55 Q4.6 12.2 3.95 12.2 L3.45 11.9 3.35 11.55 Q3.35 10.9 4.0 10.95 4.6 11.05 4.6 11.55 M6.85 11.1 Q6.85 11.75 6.25 11.75 5.85 11.75 5.7 11.45 L5.65 11.15 Q5.65 10.5 6.25 10.45 6.85 10.45 6.85 11.1" fill="#daaaff" fill-rule="evenodd" stroke="none"/>
    <path d="M2.85 12.65 L4.65 12.55 Q7.15 12.55 7.9 10.45 L5.95 0.1 M2.85 12.65 Q0.45 12.5 0.35 11.2 L-0.5 -0.5" fill="none" stroke="#000000" stroke-linecap="round" stroke-linejoin="round" stroke-width="1.0"/>
  </g>
</svg>
