<?xml version="1.0" encoding="UTF-8" standalone="no"?>
<svg xmlns:xlink="http://www.w3.org/1999/xlink" height="24.4px" width="32.95px" xmlns="http://www.w3.org/2000/svg">
  <g transform="matrix(1.0, 0.0, 0.0, 1.0, 0.9, 4.3)">
    <path d="M30.5 -0.2 Q32.1 1.85 31.25 6.7 27.45 14.3 15.2 18.65 6.1 21.25 2.3 16.75 -1.4 7.6 4.15 2.55 10.4 -1.55 30.5 -0.2" fill="#6b626d" fill-rule="evenodd" stroke="none"/>
    <path d="M2.3 16.75 Q0.6 14.0 0.25 12.2 L-0.35 8.35 Q-0.6 6.3 0.15 3.35 0.9 0.35 5.65 -1.7 10.4 -3.8 16.65 -3.8 22.85 -3.8 28.8 -1.15 L30.15 -0.55 30.5 -0.2 Q10.4 -1.55 4.15 2.55 -1.4 7.6 2.3 16.75" fill="#39343a" fill-rule="evenodd" stroke="none"/>
    <path d="M2.3 16.75 Q0.6 14.0 0.25 12.2 L-0.35 8.35 Q-0.6 6.3 0.15 3.35 0.9 0.35 5.65 -1.7 10.4 -3.8 16.65 -3.8 22.85 -3.8 28.8 -1.15 L30.15 -0.55 30.5 -0.2 Q32.1 1.85 31.25 6.7 27.45 14.3 15.2 18.65 6.1 21.25 2.3 16.75 Z" fill="none" stroke="#000000" stroke-linecap="round" stroke-linejoin="round" stroke-width="1.0"/>
  </g>
</svg>
