<?xml version="1.0" encoding="UTF-8" standalone="no"?>
<svg xmlns:xlink="http://www.w3.org/1999/xlink" height="18.65px" width="15.7px" xmlns="http://www.w3.org/2000/svg">
  <g transform="matrix(1.0, 0.0, 0.0, 1.0, 0.5, 0.2)">
    <path d="M3.4 16.3 Q2.2 14.65 1.9 13.2 1.7 12.3 2.5 9.8 L2.15 0.75 Q5.05 -1.9 11.65 2.85 11.4 7.95 8.25 9.45 9.1 10.9 11.1 12.2 16.95 16.05 13.3 17.8 L7.9 17.6 Q5.05 17.05 3.4 16.3 M7.65 9.85 L8.25 9.45 7.65 9.85" fill="#6b626d" fill-rule="evenodd" stroke="none"/>
    <path d="M2.15 0.75 L2.5 9.8 Q1.7 12.3 1.9 13.2 2.2 14.65 3.4 16.3 0.7 14.9 0.25 13.55 L0.0 3.6 Q0.7 2.1 2.15 0.75" fill="#39343a" fill-rule="evenodd" stroke="none"/>
    <path d="M3.4 16.3 Q5.05 17.05 7.9 17.6 L13.3 17.8 Q16.95 16.05 11.1 12.2 9.1 10.9 8.25 9.45 L7.65 9.85 M11.65 2.85 Q11.4 7.95 8.25 9.45 M3.4 16.3 Q0.7 14.9 0.25 13.55 L0.0 3.6" fill="none" stroke="#000000" stroke-linecap="round" stroke-linejoin="round" stroke-width="1.0"/>
    <path d="M12.2 16.55 L12.1 16.95 11.6 17.2 Q11.0 17.2 10.95 16.55 10.95 15.9 11.6 15.9 12.2 15.9 12.2 16.55 M13.65 16.05 L13.55 16.45 Q13.4 16.7 13.05 16.7 12.45 16.7 12.4 16.05 12.4 15.4 13.05 15.4 13.65 15.4 13.65 16.05" fill="#daaaff" fill-rule="evenodd" stroke="none"/>
  </g>
</svg>
