<?xml version="1.0" encoding="UTF-8" standalone="no"?>
<svg xmlns:xlink="http://www.w3.org/1999/xlink" height="35.35px" width="26.55px" xmlns="http://www.w3.org/2000/svg">
  <g transform="matrix(1.0, 0.0, 0.0, 1.0, 0.5, 0.5)">
    <path d="M21.85 4.8 Q13.55 10.8 8.55 29.5 L7.35 34.15 Q2.8 32.2 0.0 27.7 1.35 18.95 8.75 9.9 21.35 -1.6 25.3 0.25 L21.85 4.8" fill="#6b626d" fill-rule="evenodd" stroke="none"/>
    <path d="M21.5 5.55 L21.85 4.8 25.3 0.25 Q26.3 2.25 23.35 7.5 20.45 12.65 18.6 19.15 16.8 25.7 7.8 34.35 L7.35 34.15 8.55 29.5 8.95 29.3 Q14.1 25.95 16.9 17.8 18.55 11.85 21.45 5.65 L21.5 5.55" fill="#39343a" fill-rule="evenodd" stroke="none"/>
    <path d="M8.95 29.3 Q13.85 13.15 21.45 5.65 18.55 11.85 16.9 17.8 14.1 25.95 8.95 29.3" fill="#c299e2" fill-rule="evenodd" stroke="none"/>
    <path d="M21.85 4.8 L21.5 5.55 21.45 5.65 Q13.85 13.15 8.95 29.3 L8.55 29.5 Q13.55 10.8 21.85 4.8" fill="#9273aa" fill-rule="evenodd" stroke="none"/>
    <path d="M25.3 0.25 Q21.35 -1.6 8.75 9.9 1.35 18.95 0.0 27.7 M25.3 0.25 Q26.3 2.25 23.35 7.5 20.45 12.65 18.6 19.15 16.8 25.7 7.8 34.35" fill="none" stroke="#000000" stroke-linecap="round" stroke-linejoin="round" stroke-width="1.0"/>
    <path d="M21.5 5.55 L21.85 4.8 Q13.55 10.8 8.55 29.5 L8.95 29.3 Q14.1 25.95 16.9 17.8 18.55 11.85 21.45 5.65" fill="none" stroke="#6a18cc" stroke-linecap="round" stroke-linejoin="round" stroke-width="0.05"/>
    <path d="M21.45 5.65 L21.5 5.55" fill="none" stroke="#000000" stroke-linecap="round" stroke-linejoin="round" stroke-width="0.05"/>
  </g>
</svg>
