<?xml version="1.0" encoding="UTF-8" standalone="no"?>
<svg xmlns:xlink="http://www.w3.org/1999/xlink" height="41.65px" width="46.3px" xmlns="http://www.w3.org/2000/svg">
  <g transform="matrix(1.0, 0.0, 0.0, 1.0, 5.25, 51.75)">
    <path d="M35.55 -42.9 Q37.2 -40.1 38.15 -36.45 L38.7 -33.9 Q40.4 -24.25 37.35 -18.3 35.3 -14.45 31.2 -12.15 25.4 -10.25 18.2 -10.7 13.75 -10.95 9.95 -12.3 5.35 -13.9 1.7 -17.15 L1.35 -17.55 Q-3.85 -22.4 -4.6 -28.9 L-4.75 -31.25 Q-4.75 -34.0 -4.05 -36.45 -2.6 -41.45 1.7 -45.4 8.3 -51.25 17.45 -51.25 26.65 -51.25 33.15 -45.4 L35.55 -42.9" fill="#6b626d" fill-rule="evenodd" stroke="none"/>
    <path d="M31.2 -12.15 Q35.3 -14.45 37.35 -18.3 40.4 -24.25 38.7 -33.9 L38.15 -36.45 Q37.2 -40.1 35.55 -42.9 37.95 -39.9 38.95 -36.45 39.65 -33.95 39.65 -31.25 L39.7 -25.45 Q41.45 -20.95 39.65 -17.75 38.35 -15.5 35.35 -13.9 33.4 -12.9 31.2 -12.15" fill="#39343a" fill-rule="evenodd" stroke="none"/>
    <path d="M35.55 -42.9 L33.15 -45.4 Q26.65 -51.25 17.45 -51.25 8.3 -51.25 1.7 -45.4 -2.6 -41.45 -4.05 -36.45 -4.75 -34.0 -4.75 -31.25 L-4.6 -28.9 Q-3.85 -22.4 1.35 -17.55 L1.7 -17.15 Q5.35 -13.9 9.95 -12.3 13.75 -10.95 18.2 -10.7 25.4 -10.25 31.2 -12.15 33.4 -12.9 35.35 -13.9 38.35 -15.5 39.65 -17.75 41.45 -20.95 39.7 -25.45 L39.65 -31.25 Q39.65 -33.95 38.95 -36.45 37.95 -39.9 35.55 -42.9 Z" fill="none" stroke="#000000" stroke-linecap="round" stroke-linejoin="round" stroke-width="1.0"/>
    <path d="M39.95 -23.65 Q39.95 -22.7 38.85 -21.75 37.75 -20.75 36.25 -20.4 L33.7 -20.45 Q32.6 -20.95 32.6 -21.95 32.6 -22.95 33.7 -23.9 34.8 -24.85 36.25 -25.25 L38.85 -25.15 Q39.95 -24.65 39.95 -23.65 M18.9 -21.85 Q18.9 -20.85 16.95 -20.15 15.1 -19.45 12.45 -19.45 9.75 -19.45 7.85 -20.15 6.0 -20.85 6.0 -21.85 6.0 -22.85 7.85 -23.55 9.75 -24.3 12.45 -24.3 L13.9 -24.25 16.95 -23.55 17.5 -23.3 Q18.9 -22.7 18.9 -21.85" fill="#e598ee" fill-opacity="0.65882355" fill-rule="evenodd" stroke="none"/>
    <path d="M25.65 -19.5 Q25.3 -17.6 26.9 -17.9 28.05 -17.9 28.6 -19.4 29.15 -18.0 30.1 -18.3 31.15 -18.65 30.5 -19.75" fill="none" stroke="#000000" stroke-linecap="round" stroke-linejoin="round" stroke-width="1.0"/>
  </g>
</svg>
