<?xml version="1.0" encoding="UTF-8" standalone="no"?>
<svg xmlns:xlink="http://www.w3.org/1999/xlink" height="11.5px" width="27.9px" xmlns="http://www.w3.org/2000/svg">
  <g transform="matrix(1.0, 0.0, 0.0, 1.0, 0.0, 0.0)">
    <path d="M10.05 5.95 Q10.05 8.25 8.55 9.85 7.35 11.25 5.65 11.45 L5.05 11.5 Q2.95 11.5 1.45 9.85 0.0 8.25 0.0 5.95 L0.2 4.5 Q0.5 3.15 1.45 2.05 L2.35 1.3 Q3.55 0.45 5.05 0.45 7.15 0.45 8.55 2.05 L8.9 2.4 Q10.05 3.9 10.05 5.95 M4.85 10.65 Q7.65 10.75 9.25 7.6 5.15 10.0 1.3 7.7 2.3 10.15 4.85 10.65" fill="url(#gradient0)" fill-rule="evenodd" stroke="none"/>
    <path d="M27.9 5.5 Q27.9 7.8 26.9 9.4 26.0 10.75 24.8 11.0 L24.35 11.05 Q23.25 11.05 22.35 10.1 L21.85 9.4 Q20.9 8.0 20.85 5.9 L20.85 5.5 Q20.85 3.2 21.85 1.6 L22.45 0.85 Q23.35 0.0 24.35 0.0 25.5 0.0 26.35 0.9 L26.9 1.6 Q27.85 3.1 27.9 5.2 L27.9 5.5 M24.15 10.4 Q26.0 10.5 27.0 7.4 24.35 9.75 21.85 7.5 22.45 9.95 24.15 10.4" fill="url(#gradient1)" fill-rule="evenodd" stroke="none"/>
    <path d="M24.15 10.4 Q22.45 9.95 21.85 7.5 24.35 9.75 27.0 7.4 26.0 10.5 24.15 10.4 M4.85 10.65 Q2.3 10.15 1.3 7.7 5.15 10.0 9.25 7.6 7.65 10.75 4.85 10.65" fill="#ee2a81" fill-rule="evenodd" stroke="none"/>
    <path d="M27.9 5.5 Q27.9 7.8 26.9 9.4 26.0 10.75 24.8 11.0 L24.35 11.05 Q23.25 11.05 22.35 10.1 L21.85 9.4 Q20.9 8.0 20.85 5.9 L20.85 5.5 Q20.85 3.2 21.85 1.6 L22.45 0.85 Q23.35 0.0 24.35 0.0 25.5 0.0 26.35 0.9 L26.9 1.6 Q27.85 3.1 27.9 5.2 L27.9 5.5 M10.05 5.95 Q10.05 8.25 8.55 9.85 7.35 11.25 5.65 11.45 L5.05 11.5 Q2.95 11.5 1.45 9.85 0.0 8.25 0.0 5.95 L0.2 4.5 Q0.5 3.15 1.45 2.05 L2.35 1.3 Q3.55 0.45 5.05 0.45 7.15 0.45 8.55 2.05 L8.9 2.4 Q10.05 3.9 10.05 5.95" fill="none" stroke="#000000" stroke-linecap="round" stroke-linejoin="round" stroke-width="0.05"/>
  </g>
  <defs>
    <radialGradient cx="0" cy="0" gradientTransform="matrix(0.0085, 0.0, 0.0, 0.0092, 6.35, 4.4)" gradientUnits="userSpaceOnUse" id="gradient0" r="819.2" spreadMethod="pad">
      <stop offset="0.023529411764705882" stop-color="#e2006f"/>
      <stop offset="0.9372549019607843" stop-color="#8c005c"/>
    </radialGradient>
    <radialGradient cx="0" cy="0" gradientTransform="matrix(0.0077, 0.0, 0.0, 0.0085, 25.35, 4.25)" gradientUnits="userSpaceOnUse" id="gradient1" r="819.2" spreadMethod="pad">
      <stop offset="0.023529411764705882" stop-color="#e2006f"/>
      <stop offset="0.9372549019607843" stop-color="#8c005c"/>
    </radialGradient>
  </defs>
</svg>
