<?xml version="1.0" encoding="UTF-8" standalone="no"?>
<svg xmlns:xlink="http://www.w3.org/1999/xlink" height="3.7px" width="21.45px" xmlns="http://www.w3.org/2000/svg">
  <g transform="matrix(1.0, 0.0, 0.0, 1.0, -3.2, -2.75)">
    <path d="M24.65 4.1 L24.35 5.1 Q24.0 5.5 23.6 5.5 23.15 5.5 22.9 5.1 22.6 4.65 22.6 4.1 22.6 3.55 22.9 3.15 23.15 2.75 23.6 2.75 24.0 2.75 24.35 3.15 L24.65 4.1 M6.05 4.65 Q6.05 5.4 5.65 5.95 5.2 6.45 4.6 6.45 4.05 6.45 3.65 5.95 3.2 5.4 3.2 4.65 3.2 4.0 3.65 3.45 4.05 2.95 4.6 2.95 5.2 2.95 5.65 3.45 6.05 4.0 6.05 4.65" fill="#ffffff" fill-rule="evenodd" stroke="none"/>
  </g>
</svg>
