<?xml version="1.0" encoding="UTF-8" standalone="no"?>
<svg xmlns:xlink="http://www.w3.org/1999/xlink" height="70.9px" width="61.05px" xmlns="http://www.w3.org/2000/svg">
  <g transform="matrix(1.0, 0.0, 0.0, 1.0, 14.15, 80.85)">
    <path d="M9.85 -22.65 Q7.2 -24.1 3.55 -23.85 M9.5 -20.35 Q6.9 -20.8 4.65 -19.85 M38.85 -22.7 Q41.0 -24.25 43.15 -23.65 M39.0 -20.45 Q41.35 -20.65 43.05 -19.15" fill="none" stroke="#000000" stroke-linecap="round" stroke-linejoin="round" stroke-width="1.0"/>
    <path d="M32.5 -56.15 L34.5 -49.45 Q23.35 -40.8 4.6 -39.75 5.95 -42.65 5.0 -46.85 20.45 -47.45 32.5 -56.15" fill="#2c2f31" fill-rule="evenodd" stroke="none"/>
    <path d="M-4.65 -39.7 L-5.4 -47.0 2.05 -46.8 2.1 -46.8 2.2 -46.8 5.0 -46.85 Q5.95 -42.65 4.6 -39.75 0.2 -39.5 -4.65 -39.7" fill="#141617" fill-rule="evenodd" stroke="none"/>
    <path d="M-1.95 -76.2 Q12.35 -81.95 28.65 -79.7 29.45 -67.5 32.5 -56.15 20.45 -47.45 5.0 -46.85 L-0.4 -70.2 Q17.2 -73.7 23.1 -77.9 -6.0 -70.5 -1.95 -76.2 M34.5 -49.45 Q42.3 -50.75 44.05 -49.45 L45.3 -48.4 Q44.65 -46.65 37.45 -42.95 18.35 -37.0 0.4 -36.15 L4.6 -39.75 Q23.35 -40.8 34.5 -49.45" fill="#792baa" fill-rule="evenodd" stroke="none"/>
    <path d="M45.3 -48.4 Q46.8 -47.1 46.25 -45.9 45.8 -44.95 34.7 -39.4 23.55 -33.9 6.25 -33.2 -11.1 -32.55 -13.6 -34.45 -14.35 -37.45 -4.65 -39.7 0.2 -39.5 4.6 -39.75 L0.4 -36.15 Q18.35 -37.0 37.45 -42.95 44.65 -46.65 45.3 -48.4 M-5.4 -47.0 Q-7.1 -59.7 -12.3 -70.85 -7.25 -74.1 -1.95 -76.2 -6.0 -70.5 23.1 -77.9 17.2 -73.7 -0.4 -70.2 L5.0 -46.85 2.2 -46.8 2.1 -46.8 2.05 -46.8 -5.4 -47.0" fill="#451862" fill-rule="evenodd" stroke="none"/>
    <path d="M-1.95 -76.2 Q12.35 -81.95 28.65 -79.7 29.45 -67.5 32.5 -56.15 L34.5 -49.45 Q42.3 -50.75 44.05 -49.45 L45.3 -48.4 Q46.8 -47.1 46.25 -45.9 45.8 -44.95 34.7 -39.4 23.55 -33.9 6.25 -33.2 -11.1 -32.55 -13.6 -34.45 -14.35 -37.45 -4.65 -39.7 L-5.4 -47.0 Q-7.1 -59.7 -12.3 -70.85 -7.25 -74.1 -1.95 -76.2 M5.0 -46.85 Q20.45 -47.45 32.5 -56.15 M4.6 -39.75 Q23.35 -40.8 34.5 -49.45 M4.6 -39.75 Q0.2 -39.5 -4.65 -39.7 M5.0 -46.85 L2.2 -46.8 2.1 -46.8 2.05 -46.8 -5.4 -47.0" fill="none" stroke="#000000" stroke-linecap="round" stroke-linejoin="round" stroke-width="1.0"/>
    <path d="M5.75 -27.95 Q5.65 -29.1 5.95 -30.35 6.7 -33.35 9.25 -34.9 L9.2 -34.9 Q11.75 -36.4 14.75 -35.65 17.6 -34.9 19.15 -32.4 20.65 -29.85 20.0 -26.85 19.15 -23.9 16.6 -22.4 14.05 -20.9 11.2 -21.6 8.2 -22.35 6.7 -24.95 L6.1 -26.25 4.1 -26.2 4.1 -26.35 Q2.3 -17.75 0.3 -11.5 -0.5 -9.0 -0.5 -10.55 1.2 -18.3 3.65 -26.95 3.9 -27.5 4.05 -27.0 L3.95 -27.7 5.75 -27.95 Q5.8 -27.1 6.1 -26.25 5.8 -27.1 5.75 -27.95 M4.1 -26.35 L4.05 -27.0 4.1 -26.35 M14.5 -34.55 Q11.9 -35.2 9.7 -33.9 7.55 -32.7 7.0 -30.05 6.25 -27.6 7.6 -25.5 8.95 -23.3 11.45 -22.55 13.85 -21.95 16.1 -23.3 18.35 -24.6 18.95 -27.05 19.6 -29.55 18.25 -31.8 16.9 -33.9 14.5 -34.55" fill="#141617" fill-rule="evenodd" stroke="none"/>
    <path d="M14.5 -34.55 Q16.9 -33.9 18.25 -31.8 19.6 -29.55 18.95 -27.05 18.35 -24.6 16.1 -23.3 13.85 -21.95 11.45 -22.55 8.95 -23.3 7.6 -25.5 6.25 -27.6 7.0 -30.05 7.55 -32.7 9.7 -33.9 11.9 -35.2 14.5 -34.55" fill="#ffffff" fill-opacity="0.2509804" fill-rule="evenodd" stroke="none"/>
    <path d="M5.75 -27.95 Q5.65 -29.1 5.95 -30.35 6.7 -33.35 9.25 -34.9 L9.2 -34.9 Q11.75 -36.4 14.75 -35.65 17.6 -34.9 19.15 -32.4 20.65 -29.85 20.0 -26.85 19.15 -23.9 16.6 -22.4 14.05 -20.9 11.2 -21.6 8.2 -22.35 6.7 -24.95 L6.1 -26.25 4.1 -26.2 4.1 -26.35 Q2.3 -17.75 0.3 -11.5 -0.5 -9.0 -0.5 -10.55 1.2 -18.3 3.65 -26.95 3.9 -27.5 4.05 -27.0 L3.95 -27.7 5.75 -27.95 Q5.8 -27.1 6.1 -26.25 M4.05 -27.0 L4.1 -26.35 M14.5 -34.55 Q11.9 -35.2 9.7 -33.9 7.55 -32.7 7.0 -30.05 6.25 -27.6 7.6 -25.5 8.95 -23.3 11.45 -22.55 13.85 -21.95 16.1 -23.3 18.35 -24.6 18.95 -27.05 19.6 -29.55 18.25 -31.8 16.9 -33.9 14.5 -34.55" fill="none" stroke="#000000" stroke-linecap="round" stroke-linejoin="round" stroke-width="0.05"/>
    <path d="M14.3 -33.8 Q16.05 -33.35 17.15 -31.95 L15.8 -32.5 Q13.5 -33.05 11.6 -31.95 9.75 -30.9 9.25 -28.55 8.6 -26.45 9.75 -24.6 L10.2 -23.95 Q9.05 -24.65 8.25 -25.9 7.1 -27.75 7.75 -29.85 8.25 -32.2 10.1 -33.25 12.0 -34.35 14.3 -33.8" fill="#ffffff" fill-opacity="0.34117648" fill-rule="evenodd" stroke="none"/>
  </g>
</svg>
