<?xml version="1.0" encoding="UTF-8" standalone="no"?>
<svg xmlns:xlink="http://www.w3.org/1999/xlink" height="35.6px" width="27.7px" xmlns="http://www.w3.org/2000/svg">
  <g transform="matrix(1.0, 0.0, 0.0, 1.0, 0.5, 0.5)">
    <path d="M20.4 31.45 L20.45 31.4 Q21.75 30.35 21.6 28.3 13.9 7.65 5.5 6.2 5.05 24.3 14.05 30.9 15.95 32.7 20.4 31.45 M24.35 32.25 Q19.9 34.3 15.5 32.45 9.95 30.1 8.05 23.95 6.1 17.8 4.1 10.3 1.4 4.45 0.6 0.2 8.0 -1.5 19.3 10.75 27.15 20.75 26.65 28.65 25.8 30.85 24.35 32.25" fill="#6b626d" fill-rule="evenodd" stroke="none"/>
    <path d="M5.5 6.2 Q11.65 9.55 16.2 18.7 20.95 29.15 20.4 31.45 15.95 32.7 14.05 30.9 5.05 24.3 5.5 6.2" fill="#c299e2" fill-rule="evenodd" stroke="none"/>
    <path d="M0.6 0.2 Q1.4 4.45 4.1 10.3 6.1 17.8 8.05 23.95 9.95 30.1 15.5 32.45 19.9 34.3 24.35 32.25 20.75 35.6 13.55 34.15 4.95 27.0 4.3 20.15 3.65 13.35 1.4 7.95 -0.9 2.55 0.6 0.2" fill="#39343a" fill-rule="evenodd" stroke="none"/>
    <path d="M20.4 31.45 Q20.95 29.15 16.2 18.7 11.65 9.55 5.5 6.2 13.9 7.65 21.6 28.3 21.75 30.35 20.45 31.4 L20.4 31.45" fill="#9273aa" fill-rule="evenodd" stroke="none"/>
    <path d="M24.35 32.25 Q25.8 30.85 26.65 28.65 27.15 20.75 19.3 10.75 8.0 -1.5 0.6 0.2 -0.9 2.55 1.4 7.95 3.65 13.35 4.3 20.15 4.95 27.0 13.55 34.15 20.75 35.6 24.35 32.25" fill="none" stroke="#000000" stroke-linecap="round" stroke-linejoin="round" stroke-width="1.0"/>
    <path d="M20.4 31.45 L20.45 31.4 Q21.75 30.35 21.6 28.3 13.9 7.65 5.5 6.2 5.05 24.3 14.05 30.9 15.95 32.7 20.4 31.45" fill="none" stroke="#6a18cc" stroke-linecap="round" stroke-linejoin="round" stroke-width="0.05"/>
  </g>
</svg>
