<?xml version="1.0" encoding="UTF-8" standalone="no"?>
<svg xmlns:xlink="http://www.w3.org/1999/xlink" height="85.4px" width="59.6px" xmlns="http://www.w3.org/2000/svg">
  <g transform="matrix(1.0, 0.0, 0.0, 1.0, -9.7, 42.7)">
    <path d="M47.7 39.15 L44.85 38.85 Q43.85 8.45 52.5 -41.25 L53.6 -40.95 Q46.25 -1.95 47.7 39.15 M19.75 36.35 Q13.05 32.5 10.2 27.3 31.2 23.35 37.7 -0.5 40.2 -28.1 45.85 -42.2 L47.45 -41.95 Q41.85 -22.65 39.85 -2.8 39.45 7.55 34.85 16.1 26.65 24.65 16.35 29.05 15.35 32.45 19.75 36.35" fill="#f39300" fill-rule="evenodd" stroke="none"/>
    <path d="M47.7 39.15 Q46.25 -1.95 53.6 -40.95 L56.05 -40.3 Q52.5 -23.75 53.45 -7.2 54.9 18.85 68.8 23.5 60.25 39.5 47.7 39.15 M19.75 36.35 Q15.35 32.45 16.35 29.05 26.65 24.65 34.85 16.1 39.45 7.55 39.85 -2.8 41.85 -22.65 47.45 -41.95 L52.5 -41.25 Q46.3 -25.2 43.3 1.45 40.8 26.95 35.15 42.2 25.85 39.85 19.75 36.35" fill="#cd4300" fill-rule="evenodd" stroke="none"/>
    <path d="M53.6 -40.95 L52.5 -41.25 Q43.85 8.45 44.85 38.85 L47.7 39.15 Q60.25 39.5 68.8 23.5 54.9 18.85 53.45 -7.2 52.5 -23.75 56.05 -40.3 L53.6 -40.95 M47.45 -41.95 L45.85 -42.2 Q40.2 -28.1 37.7 -0.5 31.2 23.35 10.2 27.3 13.05 32.5 19.75 36.35 25.85 39.85 35.15 42.2 40.8 26.95 43.3 1.45 46.3 -25.2 52.5 -41.25 L47.45 -41.95" fill="none" stroke="#000000" stroke-linecap="round" stroke-linejoin="round" stroke-width="1.0"/>
  </g>
</svg>
