<?xml version="1.0" encoding="UTF-8" standalone="no"?>
<svg xmlns:xlink="http://www.w3.org/1999/xlink" height="36.9px" width="19.2px" xmlns="http://www.w3.org/2000/svg">
  <g transform="matrix(1.0, 0.0, 0.0, 1.0, 3.3, 1.85)">
    <path d="M2.9 0.0 Q9.1 1.15 10.6 11.55 12.1 21.9 12.65 27.75 13.2 32.85 9.95 34.15 9.8 31.6 9.2 30.4 7.85 14.35 2.9 0.0" fill="#f7d0b3" fill-rule="evenodd" stroke="none"/>
    <path d="M9.95 34.15 L9.05 34.4 Q4.8 35.25 4.15 30.85 L1.95 20.7 Q0.5 14.95 -0.65 7.6 -1.85 0.2 2.9 0.0 7.85 14.35 9.2 30.4 9.8 31.6 9.95 34.15" fill="#cd9e87" fill-rule="evenodd" stroke="none"/>
    <path d="M9.95 34.15 L9.05 34.4 Q4.8 35.25 4.15 30.85 L1.95 20.7 Q0.5 14.95 -0.65 7.6 -1.85 0.2 2.9 0.0 9.1 1.15 10.6 11.55 12.1 21.9 12.65 27.75 13.2 32.85 9.95 34.15 Z" fill="none" stroke="#000000" stroke-linecap="round" stroke-linejoin="round" stroke-width="1.0"/>
    <path d="M14.1 20.0 L15.4 22.7 Q9.8 25.05 -0.15 23.9 L0.15 18.75 14.1 20.0" fill="#cd4300" fill-rule="evenodd" stroke="none"/>
    <path d="M14.1 20.0 L13.5 18.75 M14.1 20.0 L15.4 22.7 Q9.8 25.05 -0.15 23.9 L0.15 18.75 14.1 20.0 Z" fill="none" stroke="#000000" stroke-linecap="round" stroke-linejoin="round" stroke-width="1.0"/>
    <path d="M4.6 -0.55 L6.4 -1.25 Q9.7 0.6 11.7 5.15 L10.7 5.8 9.75 3.7 Q8.1 0.7 4.6 -0.55 M11.8 8.45 L12.8 8.15 Q14.4 11.3 14.95 14.95 L14.0 15.35 Q13.15 12.0 11.8 8.45" fill="#f36b00" fill-rule="evenodd" stroke="none"/>
    <path d="M10.7 5.8 L11.8 8.45 Q13.15 12.0 14.0 15.35 L14.9 19.95 12.8 20.75 12.5 20.8 Q7.1 21.55 2.1 20.9 L2.0 20.9 -2.8 20.0 Q-1.45 16.8 -2.0 9.75 -2.25 6.1 -1.7 2.95 -1.1 -0.25 1.45 -1.35 L4.6 -0.55 Q8.1 0.7 9.75 3.7 L10.7 5.8" fill="#332d2c" fill-rule="evenodd" stroke="none"/>
    <path d="M4.6 -0.55 L6.4 -1.25 Q9.7 0.6 11.7 5.15 L10.7 5.8 11.8 8.45 12.8 8.15 Q14.4 11.3 14.95 14.95 L14.0 15.35 14.9 19.95 12.8 20.75 12.5 20.8 Q7.1 21.55 2.1 20.9 L2.0 20.9 -2.8 20.0 Q-1.45 16.8 -2.0 9.75 -2.25 6.1 -1.7 2.95 -1.1 -0.25 1.45 -1.35 L4.6 -0.55 Q8.1 0.7 9.75 3.7 L10.7 5.8 M14.0 15.35 Q13.15 12.0 11.8 8.45" fill="none" stroke="#000000" stroke-linecap="round" stroke-linejoin="round" stroke-width="1.0"/>
  </g>
</svg>
