<?xml version="1.0" encoding="UTF-8" standalone="no"?>
<svg xmlns:xlink="http://www.w3.org/1999/xlink" height="39.4px" width="23.55px" xmlns="http://www.w3.org/2000/svg">
  <g transform="matrix(1.0, 0.0, 0.0, 1.0, 2.1, 0.35)">
    <path d="M5.55 31.2 Q5.55 30.3 6.05 28.45 L6.25 27.55 6.65 25.9 12.5 29.0 Q12.95 29.75 13.7 30.3 L14.55 30.8 11.85 30.75 Q11.35 30.95 10.95 31.35 10.7 30.3 7.9 30.95 7.35 30.05 5.55 31.2" fill="#000000" fill-rule="evenodd" stroke="none"/>
    <path d="M2.7 0.55 Q5.1 -0.25 6.45 0.15 L8.0 3.45 Q9.1 5.85 10.7 14.2 11.55 18.5 12.75 21.1 L9.15 21.85 8.7 17.8 Q7.8 9.2 2.7 0.55 M18.7 27.15 Q21.0 29.15 20.95 29.8 L20.45 31.85 Q20.25 32.55 19.45 33.3 L19.3 33.5 Q19.6 36.65 18.65 37.7 14.4 37.2 13.05 35.45 L11.85 30.75 14.55 30.8 Q13.7 33.15 14.1 33.85 L14.7 34.6 Q14.95 32.55 16.0 30.5 L14.8 29.6 Q16.55 27.45 18.7 27.15 M19.3 33.5 L18.35 34.7 Q17.85 35.5 16.45 35.45 15.45 35.35 14.7 34.6 15.45 35.35 16.45 35.45 17.85 35.5 18.35 34.7 L19.3 33.5" fill="#f7d0b3" fill-rule="evenodd" stroke="none"/>
    <path d="M18.65 37.7 Q18.15 38.15 17.5 38.2 L14.3 38.0 Q11.4 39.45 9.0 37.05 7.05 37.75 6.2 36.6 5.3 35.45 5.25 33.7 5.1 31.95 5.55 31.2 7.35 30.05 7.9 30.95 10.7 30.3 10.95 31.35 10.85 32.8 11.3 34.8 11.65 36.85 14.3 38.0 11.65 36.85 11.3 34.8 10.85 32.8 10.95 31.35 11.35 30.95 11.85 30.75 L13.05 35.45 Q14.4 37.2 18.65 37.7 M6.05 22.5 Q5.25 19.55 3.3 15.5 0.05 9.7 -0.65 6.65 L-1.6 2.7 Q-1.4 2.8 -1.05 2.45 -0.05 1.7 2.7 0.55 7.8 9.2 8.7 17.8 L9.15 21.85 6.05 22.5 M14.55 30.8 L13.7 30.3 14.8 29.6 16.0 30.5 Q14.95 32.55 14.7 34.6 L14.1 33.85 Q13.7 33.15 14.55 30.8 M9.0 37.05 Q7.4 34.2 7.9 30.95 7.4 34.2 9.0 37.05" fill="#cd9e87" fill-rule="evenodd" stroke="none"/>
    <path d="M12.75 21.1 Q13.85 23.45 15.25 24.35 L18.7 27.15 Q16.55 27.45 14.8 29.6 L13.25 27.9 Q11.0 27.45 9.8 26.45 9.7 26.4 9.15 21.85 L12.75 21.1" fill="#ff7e00" fill-rule="evenodd" stroke="none"/>
    <path d="M6.65 25.9 L6.65 25.85 6.6 25.65 6.55 24.9 6.05 22.5 9.15 21.85 Q9.7 26.4 9.8 26.45 11.0 27.45 13.25 27.9 L14.8 29.6 13.7 30.3 Q12.95 29.75 12.5 29.0 L6.65 25.9" fill="#cd4300" fill-rule="evenodd" stroke="none"/>
    <path d="M6.45 0.15 L8.0 3.45 Q9.1 5.85 10.7 14.2 11.55 18.5 12.75 21.1 13.85 23.45 15.25 24.35 L18.7 27.15 Q21.0 29.15 20.95 29.8 L20.45 31.85 Q20.25 32.55 19.45 33.3 L19.3 33.5 Q19.6 36.65 18.65 37.7 18.15 38.15 17.5 38.2 L14.3 38.0 Q11.4 39.45 9.0 37.05 7.05 37.75 6.2 36.6 5.3 35.45 5.25 33.7 5.1 31.95 5.55 31.2 5.55 30.3 6.05 28.45 L6.25 27.55 6.65 25.9 6.65 25.85 6.6 25.65 6.55 24.9 6.05 22.5 Q5.25 19.55 3.3 15.5 0.05 9.7 -0.65 6.65 L-1.6 2.7 M9.15 21.85 L12.75 21.1 M6.05 22.5 L9.15 21.85 M14.8 29.6 Q16.55 27.45 18.7 27.15 M14.55 30.8 L13.7 30.3 Q12.95 29.75 12.5 29.0 M13.7 30.3 L14.8 29.6 M14.7 34.6 Q15.45 35.35 16.45 35.45 17.85 35.5 18.35 34.7 L19.3 33.5 M11.85 30.75 L14.55 30.8 Q13.7 33.15 14.1 33.85 L14.7 34.6 M14.3 38.0 Q11.65 36.85 11.3 34.8 10.85 32.8 10.95 31.35 10.7 30.3 7.9 30.95 7.4 34.2 9.0 37.05 M10.95 31.35 Q11.35 30.95 11.85 30.75 M7.9 30.95 Q7.35 30.05 5.55 31.2" fill="none" stroke="#000000" stroke-linecap="round" stroke-linejoin="round" stroke-width="1.0"/>
    <path d="M13.6 21.45 L13.65 21.65 5.05 23.25 4.35 20.15 12.35 18.25 12.65 19.0 13.6 21.45" fill="#332d2c" fill-rule="evenodd" stroke="none"/>
    <path d="M13.6 21.45 L12.65 19.0 15.35 18.6 16.1 21.65 14.15 22.4 13.6 21.45" fill="#5b504e" fill-rule="evenodd" stroke="none"/>
    <path d="M12.65 19.0 L12.35 18.25 4.35 20.15 5.05 23.25 13.65 21.65 13.6 21.45 12.65 19.0 15.35 18.6 16.1 21.65 14.15 22.4 13.6 21.45" fill="none" stroke="#000000" stroke-linecap="round" stroke-linejoin="round" stroke-width="1.0"/>
  </g>
</svg>
