<?xml version="1.0" encoding="UTF-8" standalone="no"?>
<svg xmlns:xlink="http://www.w3.org/1999/xlink" height="45.1px" width="20.35px" xmlns="http://www.w3.org/2000/svg">
  <g transform="matrix(1.0, 0.0, 0.0, 1.0, 1.65, 0.9)">
    <path d="M-0.35 11.65 Q-0.35 12.3 -0.4 11.6 L-0.35 11.65" fill="#efc3c0" fill-rule="evenodd" stroke="none"/>
    <path d="M10.45 43.5 Q7.9 38.55 7.0 31.85 L6.6 28.35 Q5.95 19.35 5.95 11.95 12.5 10.1 16.7 5.3 17.55 15.2 17.4 26.7 L17.3 32.45 17.0 39.05 16.55 42.05 Q15.25 43.65 13.15 43.7 L10.45 43.5" fill="#f7d0b3" fill-rule="evenodd" stroke="none"/>
    <path d="M-0.35 11.55 Q0.25 7.0 5.2 2.9 13.95 -2.4 16.45 2.05 L16.7 5.3 Q12.5 10.1 5.95 11.95 5.95 19.35 6.6 28.35 L7.0 31.85 Q7.9 38.55 10.45 43.5 6.1 42.95 3.7 40.45 2.6 36.1 1.85 31.6 L1.05 26.7 Q0.0 20.05 -0.4 11.6 -0.35 12.3 -0.35 11.65 L-0.35 11.55" fill="#cd9e87" fill-rule="evenodd" stroke="none"/>
    <path d="M-0.35 11.55 L-0.35 11.65 Q-0.35 12.3 -0.4 11.6 0.0 20.05 1.05 26.7 L1.85 31.6 Q2.6 36.1 3.7 40.45 6.1 42.95 10.45 43.5 L13.15 43.7 Q15.25 43.65 16.55 42.05 L17.0 39.05 17.3 32.45 17.4 26.7 Q17.55 15.2 16.7 5.3 L16.45 2.05 M-0.4 11.6 L-0.35 11.65" fill="none" stroke="#000000" stroke-linecap="round" stroke-linejoin="round" stroke-width="1.0"/>
    <path d="M-1.1 11.4 Q-1.1 12.05 -1.15 11.35 L-1.1 11.4" fill="#efc3c0" fill-rule="evenodd" stroke="none"/>
    <path d="M17.4 4.7 Q9.9 6.3 5.3 5.45 5.75 19.5 6.45 29.0 6.6 30.9 8.9 43.25 L0.35 42.15 Q0.8 29.85 0.45 27.25 -0.7 20.25 -1.15 11.35 -1.1 12.05 -1.1 11.4 L-1.1 11.3 Q-0.45 6.5 4.95 2.15 14.45 -3.45 17.15 1.25 L17.4 4.7" fill="#20130d" fill-rule="evenodd" stroke="none"/>
    <path d="M8.9 43.25 Q6.6 30.9 6.45 29.0 5.75 19.5 5.3 5.45 9.9 6.3 17.4 4.7 18.35 15.15 18.2 27.25 L17.9 42.1 Q15.45 44.4 8.9 43.25" fill="#4d2e20" fill-rule="evenodd" stroke="none"/>
    <path d="M17.4 4.7 L17.15 1.25 M-1.1 11.3 L-1.1 11.4 Q-1.1 12.05 -1.15 11.35 -0.7 20.25 0.45 27.25 0.8 29.85 0.35 42.15 L8.9 43.25 Q15.45 44.4 17.9 42.1 L18.2 27.25 Q18.35 15.15 17.4 4.7 M-1.15 11.35 L-1.1 11.4" fill="none" stroke="#000000" stroke-linecap="round" stroke-linejoin="round" stroke-width="1.0"/>
  </g>
</svg>
