<?xml version="1.0" encoding="UTF-8" standalone="no"?>
<svg xmlns:xlink="http://www.w3.org/1999/xlink" height="82.25px" width="39.45px" xmlns="http://www.w3.org/2000/svg">
  <g transform="matrix(1.0, 0.0, 0.0, 1.0, 1.5, 1.65)">
    <path d="M20.95 12.6 L26.55 16.75 Q29.7 20.35 31.4 27.2 33.05 34.05 32.75 46.45 32.65 50.25 33.5 54.25 L35.1 66.75 6.1 67.05 Q5.8 58.9 8.65 51.55 10.0 44.9 5.4 32.05 1.2 23.95 2.85 17.05 5.4 15.8 6.75 14.55 L10.45 10.25 Q18.2 14.95 20.95 12.6 M22.2 25.45 L22.2 31.65 Q18.7 34.85 10.45 35.2 24.75 35.85 31.75 33.95 26.7 33.95 25.15 31.5 L22.2 25.45 M25.35 58.45 L26.1 59.15 26.1 54.55 Q25.25 55.65 25.05 56.85 24.85 58.0 25.35 58.45" fill="#f7d0b3" fill-rule="evenodd" stroke="none"/>
    <path d="M2.6 67.05 Q2.55 63.25 5.15 54.95 7.7 46.65 4.85 39.2 0.6 31.65 -0.55 26.0 -1.75 20.35 0.7 17.35 2.1 15.65 4.65 14.6 7.6 13.35 7.95 11.95 L8.5 9.0 Q9.1 5.55 8.95 0.25 10.25 -1.5 14.55 -1.1 18.1 -1.05 20.85 2.2 19.7 8.05 20.95 12.6 18.2 14.95 10.45 10.25 L6.75 14.55 Q5.4 15.8 2.85 17.05 1.2 23.95 5.4 32.05 10.0 44.9 8.65 51.55 5.8 58.9 6.1 67.05 L2.6 67.05 M22.2 25.45 L25.15 31.5 Q26.7 33.95 31.75 33.95 24.75 35.85 10.45 35.2 18.7 34.85 22.2 31.65 L22.2 25.45 M25.35 58.45 Q24.85 58.0 25.05 56.85 25.25 55.65 26.1 54.55 L26.1 59.15 25.35 58.45" fill="#cd9e87" fill-rule="evenodd" stroke="none"/>
    <path d="M34.2 72.95 Q32.3 77.2 26.7 78.3 24.55 79.75 21.9 80.1 10.3 79.2 5.7 74.6 21.7 75.25 34.2 72.95" fill="#4d2e20" fill-rule="evenodd" stroke="none"/>
    <path d="M35.1 66.75 Q35.35 70.3 34.2 72.95 21.7 75.25 5.7 74.6 2.7 71.6 2.6 67.05 L6.1 67.05 35.1 66.75" fill="#2a1911" fill-rule="evenodd" stroke="none"/>
    <path d="M2.6 67.05 Q2.55 63.25 5.15 54.95 7.7 46.65 4.85 39.2 0.6 31.65 -0.55 26.0 -1.75 20.35 0.7 17.35 2.1 15.65 4.65 14.6 7.6 13.35 7.95 11.95 L8.5 9.0 Q9.1 5.55 8.95 0.25 10.25 -1.5 14.55 -1.1 18.1 -1.05 20.85 2.2 19.7 8.05 20.95 12.6 L26.55 16.75 Q29.7 20.35 31.4 27.2 33.05 34.05 32.75 46.45 32.65 50.25 33.5 54.25 L35.1 66.75 6.1 67.05 2.6 67.05 Q2.7 71.6 5.7 74.6 10.3 79.2 21.9 80.1 24.55 79.75 26.7 78.3" fill="none" stroke="#000000" stroke-linecap="round" stroke-linejoin="round" stroke-width="1.0"/>
    <path d="M26.9 28.9 L26.3 22.2 25.1 22.15 26.3 22.2 26.9 28.9 25.1 22.15 24.35 19.5 28.9 20.2 Q33.15 28.65 33.85 45.3 33.6 55.9 35.1 66.75 L30.45 66.8 Q29.65 47.5 26.9 28.9 M28.85 22.25 L26.3 22.2 26.15 20.95 26.3 22.2 28.85 22.25 M14.4 21.9 Q17.1 42.05 16.6 66.95 L8.65 66.85 8.65 66.75 Q9.9 60.7 8.85 54.7 9.6 55.0 10.0 55.6 L11.85 57.65 Q11.15 54.4 10.45 47.85 9.95 43.5 9.75 38.5 7.9 32.45 9.7 22.25 L9.9 17.35 9.85 21.4 10.0 20.05 9.95 17.45 Q11.4 19.0 12.4 21.85 13.1 24.05 14.15 21.9 L14.35 21.45 14.4 21.9 14.15 21.9 14.4 21.9 M31.3 38.4 Q29.8 40.1 28.8 42.35 L28.7 42.7 29.1 46.9 30.45 44.75 Q32.15 40.9 31.3 38.4" fill="#5b504e" fill-rule="evenodd" stroke="none"/>
    <path d="M26.9 28.9 Q29.65 47.5 30.45 66.8 L16.6 66.95 Q17.1 42.05 14.4 21.9 L25.1 22.15 26.9 28.9" fill="#20140c" fill-rule="evenodd" stroke="none"/>
    <path d="M9.95 17.45 L10.0 20.05 9.85 21.4 9.9 17.35 9.7 22.25 Q7.9 32.45 9.75 38.5 9.95 43.5 10.45 47.85 11.15 54.4 11.85 57.65 L10.0 55.6 Q9.6 55.0 8.85 54.7 9.9 60.7 8.65 66.75 L8.65 66.85 8.6 66.85 7.5 66.85 6.35 66.8 2.6 66.75 Q2.25 63.7 3.9 54.9 5.55 46.05 2.35 36.25 -2.6 26.35 -0.25 17.5 5.0 14.15 8.4 16.15 9.15 16.6 9.9 17.35 L9.95 17.45 M31.3 38.4 Q32.15 40.9 30.45 44.75 L29.1 46.9 28.7 42.7 28.8 42.35 Q29.8 40.1 31.3 38.4" fill="#332d2c" fill-rule="evenodd" stroke="none"/>
    <path d="M26.15 20.95 L26.3 22.2 28.85 22.25 M25.1 22.15 L26.3 22.2 26.9 28.9 Q29.65 47.5 30.45 66.8 L35.1 66.75 Q33.6 55.9 33.85 45.3 33.15 28.65 28.9 20.2 L24.35 19.5 25.1 22.15 14.4 21.9 Q17.1 42.05 16.6 66.95 L30.45 66.8 M8.65 66.85 L16.6 66.95 M8.6 66.85 L7.5 66.85 6.35 66.8 2.6 66.75 Q2.25 63.7 3.9 54.9 5.55 46.05 2.35 36.25 -2.6 26.35 -0.25 17.5 5.0 14.15 8.4 16.15 9.15 16.6 9.9 17.35 L9.95 17.45 Q11.4 19.0 12.4 21.85 L12.05 18.45 M14.15 21.9 L14.35 21.45 14.4 21.9 14.15 21.9 Q13.1 24.05 12.4 21.85 L14.15 21.9 M25.1 22.15 L26.9 28.9" fill="none" stroke="#000000" stroke-linecap="round" stroke-linejoin="round" stroke-width="1.0"/>
    <path d="M21.4 14.6 Q20.4 12.45 20.4 10.1 35.05 13.05 35.05 16.05 L21.4 14.6 M28.85 22.25 L30.8 24.45 Q26.35 28.5 25.8 32.3 26.45 27.05 28.9 23.85 L27.1 25.2 28.85 22.25 M5.6 9.6 L8.65 9.1 8.6 11.0 Q6.8 9.95 5.6 9.6 M5.55 11.3 Q13.7 14.65 23.7 16.9 16.85 16.6 11.15 14.6 14.2 19.45 20.6 24.3 9.95 18.2 5.55 11.3" fill="#cd4300" fill-rule="evenodd" stroke="none"/>
    <path d="M21.4 14.6 L35.05 16.05 Q35.05 13.05 20.4 10.1 36.35 12.55 37.45 16.15 29.4 18.45 28.85 22.25 L27.1 25.2 26.45 26.25 27.1 25.2 28.9 23.85 Q26.45 27.05 25.8 32.3 L25.75 32.5 25.75 32.6 25.7 33.35 7.85 18.3 Q4.0 15.65 -0.95 17.75 -0.3 12.1 4.45 9.35 L5.6 9.6 Q6.8 9.95 8.6 11.0 L9.6 11.6 Q13.8 13.35 21.4 14.6 M5.55 11.3 Q9.95 18.2 20.6 24.3 14.2 19.45 11.15 14.6 16.85 16.6 23.7 16.9 13.7 14.65 5.55 11.3" fill="#f39300" fill-rule="evenodd" stroke="none"/>
    <path d="M20.4 10.1 Q20.4 12.45 21.4 14.6 L35.05 16.05 M20.4 10.1 Q36.35 12.55 37.45 16.15 29.4 18.45 28.85 22.25 L30.8 24.45 Q26.35 28.5 25.8 32.3 L25.75 32.5 25.75 32.6 25.7 33.35 7.85 18.3 Q4.0 15.65 -0.95 17.75 -0.3 12.1 4.45 9.35 L5.6 9.6 8.65 9.1 8.6 11.0 9.6 11.6 Q13.8 13.35 21.4 14.6 M8.6 11.0 Q6.8 9.95 5.6 9.6 M27.1 25.2 L26.45 26.25 M28.85 22.25 L27.1 25.2" fill="none" stroke="#000000" stroke-linecap="round" stroke-linejoin="round" stroke-width="1.0"/>
  </g>
</svg>
