<?xml version="1.0" encoding="UTF-8" standalone="no"?>
<svg xmlns:xlink="http://www.w3.org/1999/xlink" height="50.95px" width="25.85px" xmlns="http://www.w3.org/2000/svg">
  <g transform="matrix(1.0, 0.0, 0.0, 1.0, 3.45, -1.9)">
    <path d="M4.35 36.7 Q5.5 30.1 4.95 24.95 4.75 13.95 7.55 3.95 10.3 3.0 14.35 4.05 19.65 5.35 19.1 5.8 18.35 14.1 14.1 25.65 11.6 32.3 11.25 36.7 L4.35 36.7" fill="#f7d0b3" fill-rule="evenodd" stroke="none"/>
    <path d="M6.05 4.7 Q6.75 4.25 7.55 3.95 4.75 13.95 4.95 24.95 5.5 30.1 4.35 36.7 L3.0 36.7 Q3.75 33.2 3.45 29.0 3.0 21.5 3.4 15.35 3.85 9.2 6.05 4.7" fill="#cd9e87" fill-rule="evenodd" stroke="none"/>
    <path d="M6.05 4.7 Q3.85 9.2 3.4 15.35 3.0 21.5 3.45 29.0 3.75 33.2 3.0 36.7 M19.1 5.8 Q18.35 14.1 14.1 25.65 11.6 32.3 11.25 36.7" fill="none" stroke="#000000" stroke-linecap="round" stroke-linejoin="round" stroke-width="1.0"/>
    <path d="M4.55 33.85 L11.65 34.35 11.65 38.8 Q8.0 38.05 4.3 38.75 L3.7 38.45 4.55 33.85 M12.35 41.85 Q14.1 45.05 14.5 47.75 8.0 49.6 1.55 47.65 L1.55 45.9 2.4 43.35 Q3.1 42.25 4.1 41.55 3.1 42.25 2.4 43.35 L2.6 42.3 4.1 41.55 Q5.95 40.25 8.85 40.45 10.9 40.65 12.35 41.85" fill="#5b504e" fill-rule="evenodd" stroke="none"/>
    <path d="M2.25 37.65 L2.6 36.3 4.55 33.85 3.7 38.45 2.25 37.65 M-0.45 45.75 Q-0.25 43.85 0.5 41.65 L1.5 39.55 1.55 39.35 1.6 39.35 1.7 39.1 2.5 42.35 Q2.6 42.15 2.6 42.3 L2.4 43.35 1.55 45.9 1.55 47.65 -0.45 45.75" fill="#332d2c" fill-rule="evenodd" stroke="none"/>
    <path d="M11.65 38.8 L11.7 39.45 11.7 39.55 Q11.9 40.8 12.35 41.85 10.9 40.65 8.85 40.45 5.95 40.25 4.1 41.55 L2.6 42.3 Q2.6 42.15 2.5 42.35 L3.35 39.55 3.4 39.45 3.45 39.35 3.7 38.45 4.3 38.75 Q8.0 38.05 11.65 38.8 M14.5 47.75 L14.6 50.05 Q13.05 52.6 8.7 52.3 3.85 52.35 1.5 51.05 L1.55 47.65 Q8.0 49.6 14.5 47.75" fill="#f39300" fill-rule="evenodd" stroke="none"/>
    <path d="M1.5 51.05 Q0.05 50.2 -0.4 48.9 -0.65 47.45 -0.45 45.75 L1.55 47.65 1.5 51.05 M1.7 39.1 L2.25 37.65 3.7 38.45 3.45 39.35 3.4 39.45 3.35 39.55 2.5 42.35 1.7 39.1" fill="#cd4300" fill-rule="evenodd" stroke="none"/>
    <path d="M2.25 37.65 L2.6 36.3 4.55 33.85 11.65 34.35 11.65 38.8 11.7 39.45 11.7 39.55 Q11.9 40.8 12.35 41.85 14.1 45.05 14.5 47.75 L14.6 50.05 Q13.05 52.6 8.7 52.3 3.85 52.35 1.5 51.05 0.05 50.2 -0.4 48.9 -0.65 47.45 -0.45 45.75 -0.25 43.85 0.5 41.65 L1.5 39.55 1.55 39.35 M1.6 39.35 L1.7 39.1 2.25 37.65 3.7 38.45 4.3 38.75 Q8.0 38.05 11.65 38.8 M4.1 41.55 Q5.95 40.25 8.85 40.45 10.9 40.65 12.35 41.85 M4.1 41.55 Q3.1 42.25 2.4 43.35" fill="none" stroke="#000000" stroke-linecap="round" stroke-linejoin="round" stroke-width="1.0"/>
    <path d="M21.9 9.4 Q21.45 11.85 21.45 14.75 19.05 16.6 14.7 16.1 L19.25 17.95 Q14.05 19.65 7.05 19.85 15.05 22.3 21.05 22.35 L21.05 22.95 19.6 25.1 Q6.4 25.2 0.55 20.05 L2.15 15.15 Q7.35 17.4 11.8 16.0 6.45 15.8 4.9 12.4 L7.1 2.35 Q7.85 1.35 13.75 2.5 20.8 3.6 21.9 9.4" fill="#4d2e20" fill-rule="evenodd" stroke="none"/>
    <path d="M21.45 14.75 L21.4 16.2 Q20.65 17.55 20.5 18.9 20.95 20.3 21.05 22.35 15.05 22.3 7.05 19.85 14.05 19.65 19.25 17.95 L14.7 16.1 Q19.05 16.6 21.45 14.75 M19.6 25.1 L13.85 25.65 13.35 25.65 11.0 25.6 4.5 24.75 2.9 24.4 2.3 24.25 -2.05 22.8 -2.95 19.35 -0.7 13.55 -0.7 10.95 1.85 4.95 Q2.85 3.45 7.1 2.35 L4.9 12.4 Q6.45 15.8 11.8 16.0 7.35 17.4 2.15 15.15 L0.55 20.05 Q6.4 25.2 19.6 25.1" fill="#20130d" fill-rule="evenodd" stroke="none"/>
    <path d="M21.9 9.4 Q21.45 11.85 21.45 14.75 L21.4 16.2 Q20.65 17.55 20.5 18.9 20.95 20.3 21.05 22.35 L21.05 22.95 19.6 25.1 13.85 25.65 13.35 25.65 11.0 25.6 4.5 24.75 2.9 24.4 2.3 24.25 -2.05 22.8 -2.95 19.35 -0.7 13.55 -0.7 10.95 1.85 4.95" fill="none" stroke="#000000" stroke-linecap="round" stroke-linejoin="round" stroke-width="1.0"/>
  </g>
</svg>
