<?xml version="1.0" encoding="UTF-8" standalone="no"?>
<svg xmlns:xlink="http://www.w3.org/1999/xlink" height="25.5px" width="40.8px" xmlns="http://www.w3.org/2000/svg">
  <g transform="matrix(1.0, 0.0, 0.0, 1.0, 2.95, 0.85)">
    <path d="M8.35 13.5 L13.55 13.2 Q8.95 18.7 9.4 24.15 L2.75 23.65 Q3.0 18.6 8.35 13.5" fill="#f36b00" fill-rule="evenodd" stroke="none"/>
    <path d="M8.35 13.5 Q3.0 18.6 2.75 23.65 L9.4 24.15 Q8.95 18.7 13.55 13.2 L8.35 13.5 9.4 11.55 M8.35 13.5 L7.45 13.55" fill="none" stroke="#000000" stroke-linecap="round" stroke-linejoin="round" stroke-width="1.0"/>
    <path d="M29.25 1.1 L33.9 1.0 Q35.8 4.15 37.35 9.8 L36.1 9.7 Q31.7 9.25 29.85 8.0 L29.65 5.65 30.0 5.85 Q32.55 7.15 34.1 5.45 33.3 4.6 32.0 4.25 L29.5 3.55 29.55 4.35 29.25 1.1 M8.6 0.85 L15.75 1.25 15.75 7.8 Q12.1 6.75 8.2 6.05 L8.55 2.45 8.6 0.85" fill="#f39300" fill-rule="evenodd" stroke="none"/>
    <path d="M29.25 1.1 L29.55 4.35 29.55 4.6 29.65 5.65 29.85 8.0 Q31.7 9.25 36.1 9.7 L36.7 12.2 Q30.15 11.3 20.7 13.85 4.6 16.05 -2.45 12.5 L-0.8 8.85 Q7.4 10.5 14.45 8.85 L15.75 8.5 15.75 7.8 15.75 1.25 29.25 1.1" fill="#20140c" fill-rule="evenodd" stroke="none"/>
    <path d="M29.55 4.35 L29.5 3.55 32.0 4.25 Q33.3 4.6 34.1 5.45 32.55 7.15 30.0 5.85 L29.65 5.65 29.55 4.6 29.55 4.35 M-0.8 8.85 L-2.45 8.5 1.3 -0.35 7.5 0.7 8.6 0.85 8.55 2.45 8.2 6.05 Q12.1 6.75 15.75 7.8 L15.75 8.5 14.45 8.85 Q7.4 10.5 -0.8 8.85" fill="#cd4300" fill-rule="evenodd" stroke="none"/>
    <path d="M36.1 9.7 L37.35 9.8 Q35.8 4.15 33.9 1.0 L29.25 1.1 29.55 4.35 29.55 4.6 29.65 5.65 29.85 8.0 Q31.7 9.25 36.1 9.7 L36.7 12.2 Q30.15 11.3 20.7 13.85 4.6 16.05 -2.45 12.5 L-0.8 8.85 -2.45 8.5 1.3 -0.35 7.5 0.7 8.6 0.85 15.75 1.25 15.75 7.8 M15.75 8.5 L14.45 8.85 Q7.4 10.5 -0.8 8.85" fill="none" stroke="#000000" stroke-linecap="round" stroke-linejoin="round" stroke-width="1.0"/>
  </g>
</svg>
