<?xml version="1.0" encoding="UTF-8" standalone="no"?>
<svg xmlns:xlink="http://www.w3.org/1999/xlink" height="72.75px" width="64.9px" xmlns="http://www.w3.org/2000/svg">
  <g transform="matrix(1.0, 0.0, 0.0, 1.0, 32.15, 68.6)">
    <path d="M11.3 3.65 Q-1.5 0.85 -19.75 -9.95 -30.55 -20.55 -31.6 -35.3 -32.55 -49.3 -21.0 -61.1 -9.45 -72.95 16.5 -64.8 32.45 -56.6 32.05 -37.25 32.95 -24.05 30.15 -9.75 29.15 -4.4 24.5 -1.55 18.5 2.15 11.3 3.65 M14.35 -3.5 Q6.1 -2.1 5.85 -5.2 6.1 -2.1 14.35 -3.5" fill="#f7d0b3" fill-rule="evenodd" stroke="none"/>
    <path d="M11.3 3.65 Q18.5 2.15 24.5 -1.55 29.15 -4.4 30.15 -9.75 32.95 -24.05 32.05 -37.25 32.45 -56.6 16.5 -64.8 -9.45 -72.95 -21.0 -61.1 -32.55 -49.3 -31.6 -35.3 -30.55 -20.55 -19.75 -9.95 -1.5 0.85 11.3 3.65 M5.85 -5.2 Q6.1 -2.1 14.35 -3.5" fill="none" stroke="#000000" stroke-linecap="round" stroke-linejoin="round" stroke-width="1.0"/>
  </g>
</svg>
