<?xml version="1.0" encoding="UTF-8" standalone="no"?>
<svg xmlns:xlink="http://www.w3.org/1999/xlink" height="10.7px" width="21.75px" xmlns="http://www.w3.org/2000/svg">
  <g transform="matrix(1.0, 0.0, 0.0, 1.0, 0.7, -1.4)">
    <path d="M4.1 7.7 Q4.4 8.55 7.65 10.8 3.9 9.1 2.55 7.65 -0.3 4.55 -0.7 1.4 L7.65 1.75 Q13.25 2.15 16.6 3.4 L20.45 4.95 21.05 5.35 20.0 5.15 17.1 4.65 17.85 6.25 17.85 6.3 18.1 7.95 Q18.15 11.05 15.4 11.85 L13.4 12.1 13.35 12.1 Q11.45 11.95 10.1 11.35 7.4 10.2 6.75 7.1 6.7 6.05 6.95 5.25 L6.95 5.2 Q7.2 4.35 7.8 3.75 L3.55 3.65 Q2.95 4.0 2.95 5.55 L3.15 6.3 4.1 7.7 M16.85 6.2 Q16.55 5.3 16.05 4.65 L16.0 4.5 8.9 3.8 8.85 4.05 Q8.2 4.55 8.0 5.35 L7.95 5.45 Q7.7 6.15 7.75 7.1 8.55 11.0 13.25 11.35 17.15 11.3 17.1 7.9 L16.85 6.25 16.85 6.2" fill="#000000" fill-rule="evenodd" stroke="none"/>
    <path d="M20.0 5.15 L20.1 6.45 17.85 6.3 17.85 6.25 17.1 4.65 20.0 5.15 M2.95 5.55 Q2.95 4.0 3.55 3.65 L7.8 3.75 Q7.2 4.35 6.95 5.2 L6.95 5.25 2.95 5.55" fill="#bfbfbf" fill-rule="evenodd" stroke="none"/>
    <path d="M20.1 6.45 Q20.1 11.05 15.4 11.85 18.15 11.05 18.1 7.95 L17.85 6.3 20.1 6.45 M10.1 11.35 Q6.35 10.5 4.1 7.7 L3.15 6.3 2.95 5.55 6.95 5.25 Q6.7 6.05 6.75 7.1 7.4 10.2 10.1 11.35 M12.0 6.1 L12.25 5.95 12.95 5.8 13.7 6.1 13.9 6.3 Q14.3 6.75 14.3 7.35 14.3 7.95 13.85 8.35 L13.85 8.4 12.95 8.65 Q12.45 8.6 12.05 8.2 L12.05 8.15 Q11.6 7.7 11.6 7.1 11.6 6.5 12.0 6.1" fill="#ffffff" fill-rule="evenodd" stroke="none"/>
    <path d="M8.0 5.35 L11.8 5.7 11.65 5.8 Q11.1 6.3 11.1 7.05 11.1 7.75 11.65 8.3 12.2 8.9 12.95 9.0 13.7 9.05 14.25 8.55 14.8 8.1 14.8 7.4 14.8 6.65 14.25 6.05 L14.05 5.95 16.85 6.2 16.85 6.25 17.1 7.9 Q17.15 11.3 13.25 11.35 8.55 11.0 7.75 7.1 7.7 6.15 7.95 5.45 L8.0 5.35 M8.85 6.15 L8.75 7.1 Q9.45 10.35 13.15 10.7 16.1 10.55 16.1 7.85 L16.1 7.8 16.0 6.75 15.7 6.7 15.8 7.5 Q15.8 8.45 15.1 9.05 L15.05 9.05 Q14.2 9.8 12.95 9.65 11.7 9.55 10.85 8.65 10.1 7.9 10.1 6.95 10.1 6.55 10.25 6.25 L8.85 6.15" fill="#f39300" fill-rule="evenodd" stroke="none"/>
    <path d="M8.0 5.35 Q8.2 4.55 8.85 4.05 L8.9 3.8 16.0 4.5 16.05 4.65 Q16.55 5.3 16.85 6.2 L14.05 5.95 Q13.6 5.5 12.95 5.45 12.3 5.35 11.8 5.7 L8.0 5.35" fill="#cd4300" fill-rule="evenodd" stroke="none"/>
    <path d="M8.85 6.15 L10.25 6.25 Q10.1 6.55 10.1 6.95 10.1 7.9 10.85 8.65 11.7 9.55 12.95 9.65 14.2 9.8 15.05 9.05 L15.1 9.05 Q15.8 8.45 15.8 7.5 L15.7 6.7 16.0 6.75 16.1 7.8 16.1 7.85 Q16.1 10.55 13.15 10.7 9.45 10.35 8.75 7.1 L8.85 6.15" fill="#fffebb" fill-rule="evenodd" stroke="none"/>
    <path d="M11.8 5.7 Q12.3 5.35 12.95 5.45 13.6 5.5 14.05 5.95 L14.25 6.05 Q14.8 6.65 14.8 7.4 14.8 8.1 14.25 8.55 13.7 9.05 12.95 9.0 12.2 8.9 11.65 8.3 11.1 7.75 11.1 7.05 11.1 6.3 11.65 5.8 L11.8 5.7 M12.0 6.1 Q11.6 6.5 11.6 7.1 11.6 7.7 12.05 8.15 L12.05 8.2 Q12.45 8.6 12.95 8.65 L13.85 8.4 13.85 8.35 Q14.3 7.95 14.3 7.35 14.3 6.75 13.9 6.3 L13.7 6.1 12.95 5.8 12.25 5.95 12.0 6.1" fill="#742600" fill-rule="evenodd" stroke="none"/>
  </g>
</svg>
