<?xml version="1.0" encoding="UTF-8" standalone="no"?>
<svg xmlns:xlink="http://www.w3.org/1999/xlink" height="101.15px" width="112.45px" xmlns="http://www.w3.org/2000/svg">
  <g transform="matrix(1.0, 0.0, 0.0, 1.0, 21.45, 1.4)">
    <path d="M69.8 20.4 Q70.2 29.0 67.15 33.8 77.25 34.05 87.55 39.45 L86.55 39.3 Q78.85 35.65 67.15 38.65 L70.25 41.25 69.9 41.45 Q86.85 57.35 90.35 69.1 83.15 59.85 68.7 50.8 70.9 55.45 72.55 60.05 78.55 76.9 76.6 92.4 L76.35 90.35 76.25 89.95 Q73.05 67.35 54.15 49.85 55.5 54.15 55.85 58.2 57.4 75.15 54.7 91.5 L54.75 90.6 Q54.05 67.0 48.1 49.3 L53.95 49.05 61.35 48.35 Q49.55 47.0 36.45 42.75 25.15 39.05 12.85 33.05 L7.65 37.3 9.3 41.45 Q18.85 45.5 28.8 47.45 24.25 61.7 25.15 77.95 19.5 68.4 16.55 56.85 L16.3 55.25 16.55 56.85 Q18.3 69.05 23.2 78.35 L24.0 81.1 24.05 81.3 25.85 91.2 Q20.6 84.65 18.3 78.2 L17.75 89.95 Q13.05 81.35 9.9 72.25 L9.55 69.0 9.9 72.25 10.65 76.15 Q-9.65 61.95 -16.75 47.9 -11.2 51.25 -3.1 51.85 L5.35 53.0 Q-11.15 41.75 -20.95 28.35 -11.6 31.15 -4.1 30.65 4.75 30.35 8.5 31.4 L16.05 31.55 Q2.55 27.0 -6.7 20.85 L11.65 21.7 Q22.15 22.25 27.15 23.7 L30.7 24.85 40.55 25.55 Q22.75 19.6 14.9 12.9 L14.6 12.2 Q24.85 17.2 35.75 18.85 41.05 19.8 43.55 21.3 L45.0 23.25 45.05 23.3 51.75 28.65 Q43.3 12.5 28.5 0.35 58.55 18.45 61.6 28.45 L62.95 30.7 Q68.2 26.9 69.8 20.4 M10.4 97.85 Q7.8 92.8 9.6 89.25 L12.45 85.8 Q2.15 87.65 -2.2 92.05 2.75 85.35 11.55 83.75 L13.2 83.75 14.25 86.1 Q9.2 91.45 10.4 97.85 M45.85 24.3 L45.05 23.3 45.85 24.3 M46.3 49.25 Q45.65 59.95 46.9 72.3 44.5 60.55 39.4 48.95 L46.3 49.25 M36.25 48.6 Q36.2 56.55 37.3 64.6 33.9 56.5 32.3 48.05 L36.25 48.6 M67.15 33.8 L65.0 33.8 67.15 33.8 M69.05 40.65 L69.9 41.45 69.05 40.65 M32.6 25.35 L30.7 24.85 32.6 25.35 M68.05 49.5 L68.7 50.8 68.05 49.5 M53.95 49.05 L54.15 49.85 53.95 49.05" fill="#93664a" fill-rule="evenodd" stroke="none"/>
    <path d="M86.55 39.3 Q77.25 38.1 70.25 41.25 L67.15 38.65 Q78.85 35.65 86.55 39.3 M90.35 69.1 L90.5 69.6 Q84.35 64.15 72.55 60.05 70.9 55.45 68.7 50.8 83.15 59.85 90.35 69.1 M76.25 89.95 Q74.9 83.95 69.35 75.2 L69.0 74.65 Q69.35 85.15 61.6 95.2 L64.1 84.3 66.35 70.85 Q62.2 65.05 55.85 58.2 55.5 54.15 54.15 49.85 73.05 67.35 76.25 89.95 M54.75 90.6 Q52.85 76.05 48.25 61.4 49.1 72.45 52.45 84.0 42.45 69.1 38.3 53.85 38.55 62.95 41.4 72.1 30.55 62.05 28.3 54.75 24.2 70.4 29.85 88.35 26.0 83.85 23.2 78.35 18.3 69.05 16.55 56.85 19.5 68.4 25.15 77.95 24.25 61.7 28.8 47.45 L30.2 47.7 32.3 48.05 Q33.9 56.5 37.3 64.6 36.2 56.55 36.25 48.6 L39.4 48.95 Q44.5 60.55 46.9 72.3 45.65 59.95 46.3 49.25 L48.1 49.3 Q54.05 67.0 54.75 90.6 M24.05 81.3 Q26.2 88.45 29.6 95.8 23.5 91.45 21.35 88.75 21.65 90.9 23.6 94.75 19.9 91.4 19.35 88.35 20.0 93.75 22.55 99.25 18.2 93.6 15.35 88.2 10.7 92.7 10.9 98.7 L10.5 98.0 10.4 97.85 Q9.2 91.45 14.25 86.1 L13.2 83.75 Q11.55 79.85 10.65 76.15 11.55 79.85 13.2 83.75 L11.55 83.75 Q8.95 83.4 6.45 80.9 -10.6 65.55 -17.5 47.45 L-16.75 47.9 Q-9.65 61.95 10.65 76.15 L9.9 72.25 Q13.05 81.35 17.75 89.95 L18.3 78.2 Q20.6 84.65 25.85 91.2 L24.05 81.3 M9.6 89.25 L10.0 88.65 Q2.45 89.45 -2.2 92.05 2.15 87.65 12.45 85.8 L9.6 89.25 M-3.1 51.85 Q-15.0 43.0 -20.95 28.35 -11.15 41.75 5.35 53.0 L-3.1 51.85 M8.5 31.4 Q-3.6 27.5 -7.25 20.75 L-6.7 20.85 Q2.55 27.0 16.05 31.55 L8.5 31.4 M27.15 23.7 Q17.75 20.1 14.9 12.9 22.75 19.6 40.55 25.55 L30.7 24.85 27.15 23.7 M43.55 21.3 Q36.9 10.3 26.4 -0.9 L28.5 0.35 Q43.3 12.5 51.75 28.65 L45.05 23.3 45.0 23.25 43.55 21.3 M61.6 28.45 Q68.7 23.5 69.65 18.55 L69.8 20.4 Q68.2 26.9 62.95 30.7 L61.6 28.45 M28.3 54.75 L30.2 47.7 28.3 54.75 M38.2 50.0 L38.3 53.85 38.2 50.0 M15.35 88.2 L14.25 86.1 15.35 88.2 M19.15 83.1 Q19.0 85.7 19.35 88.35 19.0 85.7 19.15 83.1 M66.35 70.85 L67.5 72.5 69.0 74.65 67.5 72.5 66.35 70.85 M48.0 57.65 L48.25 61.4 48.0 57.65" fill="#724631" fill-rule="evenodd" stroke="none"/>
    <path d="M46.3 49.25 L46.55 46.15 48.1 49.3 46.3 49.25 M39.4 48.95 L36.25 48.6 36.45 42.75 39.4 48.95 M32.3 48.05 L30.2 47.7 28.8 47.45 Q29.85 44.15 31.2 41.0 31.55 44.5 32.3 48.05 M30.4 46.75 L30.2 47.7 30.4 46.75" fill="#955b40" fill-rule="evenodd" stroke="none"/>
    <path d="M48.1 49.3 L46.55 46.15 46.3 49.25 39.4 48.95 36.45 42.75 Q49.55 47.0 61.35 48.35 L53.95 49.05 48.1 49.3 M53.7 48.45 L53.95 49.05 53.7 48.45 M28.8 47.45 Q18.85 45.5 9.3 41.45 L7.65 37.3 12.85 33.05 Q25.15 39.05 36.45 42.75 L36.25 48.6 32.3 48.05 Q31.55 44.5 31.2 41.0 29.85 44.15 28.8 47.45" fill="#d4aa8a" fill-rule="evenodd" stroke="none"/>
    <path d="M69.8 20.4 Q70.2 29.0 67.15 33.8 77.25 34.05 87.55 39.45 L86.55 39.3 Q77.25 38.1 70.25 41.25 L69.9 41.45 Q86.85 57.35 90.35 69.1 L90.5 69.6 Q84.35 64.15 72.55 60.05 78.55 76.9 76.6 92.4 L76.35 90.35 76.25 89.95 Q74.9 83.95 69.35 75.2 L69.0 74.65 Q69.35 85.15 61.6 95.2 L64.1 84.3 66.35 70.85 Q62.2 65.05 55.85 58.2 57.4 75.15 54.7 91.5 L54.75 90.6 Q52.85 76.05 48.25 61.4 49.1 72.45 52.45 84.0 42.45 69.1 38.3 53.85 38.55 62.95 41.4 72.1 30.55 62.05 28.3 54.75 24.2 70.4 29.85 88.35 26.0 83.85 23.2 78.35 L24.0 81.1 24.05 81.3 Q26.2 88.45 29.6 95.8 23.5 91.45 21.35 88.75 21.65 90.9 23.6 94.75 19.9 91.4 19.35 88.35 20.0 93.75 22.55 99.25 18.2 93.6 15.35 88.2 10.7 92.7 10.9 98.7 L10.5 98.0 10.4 97.85 Q7.8 92.8 9.6 89.25 L10.0 88.65 Q2.45 89.45 -2.2 92.05 2.75 85.35 11.55 83.75 8.95 83.4 6.45 80.9 -10.6 65.55 -17.5 47.45 L-16.75 47.9 Q-11.2 51.25 -3.1 51.85 -15.0 43.0 -20.95 28.35 -11.6 31.15 -4.1 30.65 4.75 30.35 8.5 31.4 -3.6 27.5 -7.25 20.75 L-6.7 20.85 11.65 21.7 Q22.15 22.25 27.15 23.7 17.75 20.1 14.9 12.9 L14.6 12.2 Q24.85 17.2 35.75 18.85 41.05 19.8 43.55 21.3 36.9 10.3 26.4 -0.9 L28.5 0.35 Q58.55 18.45 61.6 28.45 68.7 23.5 69.65 18.55 L69.8 20.4 M43.55 21.3 L45.0 23.25 45.05 23.3 45.85 24.3 M53.95 49.05 L53.7 48.45 M48.1 49.3 L46.3 49.25 M30.2 47.7 L28.3 54.75 M69.9 41.45 L69.05 40.65 M65.0 33.8 L67.15 33.8 M30.2 47.7 L30.4 46.75 M30.7 24.85 L32.6 25.35 M27.15 23.7 L30.7 24.85 M38.3 53.85 L38.2 50.0 M9.9 72.25 L9.55 69.0 M16.3 55.25 L16.55 56.85 Q18.3 69.05 23.2 78.35 M13.2 83.75 L14.25 86.1 15.35 88.2 M13.2 83.75 Q11.55 79.85 10.65 76.15 L9.9 72.25 M11.55 83.75 L13.2 83.75 M19.35 88.35 Q19.0 85.7 19.15 83.1 M69.0 74.65 L67.5 72.5 66.35 70.85 M72.55 60.05 Q70.9 55.45 68.7 50.8 L68.05 49.5 M55.85 58.2 Q55.5 54.15 54.15 49.85 L53.95 49.05 M48.25 61.4 L48.0 57.65" fill="none" stroke="#000000" stroke-linecap="round" stroke-linejoin="round" stroke-width="1.0"/>
    <path d="M13.75 58.6 Q15.8 59.55 17.6 61.95 20.65 66.0 21.4 71.85 22.15 77.65 20.1 81.85 18.15 86.15 14.6 86.3 L14.45 86.3 12.85 86.4 13.55 86.2 Q16.3 85.65 18.0 81.95 19.95 77.75 19.25 71.95 18.55 66.1 15.55 62.05 L14.7 61.0 13.75 58.6 M0.15 52.75 L-0.4 48.2 Q1.85 47.3 4.05 46.35 L4.35 46.35 4.85 51.2 0.15 52.75" fill="#282f31" fill-rule="evenodd" stroke="none"/>
    <path d="M7.25 46.0 L7.6 46.0 8.4 50.95 5.9 50.85 4.85 51.2 4.35 46.35 7.25 46.0" fill="#090b0b" fill-rule="evenodd" stroke="none"/>
    <path d="M-0.4 48.2 L-1.55 48.15 Q-1.5 40.35 1.65 34.05 4.75 29.35 10.1 26.4 15.2 23.0 23.55 22.0 L25.3 22.85 25.35 22.95 Q14.4 24.35 7.75 33.4 4.9 37.1 4.3 41.8 3.95 44.0 4.05 46.35 1.85 47.3 -0.4 48.2 M10.1 86.5 L9.4 86.5 Q6.0 86.55 3.05 82.65 0.05 78.65 -0.7 72.8 L-0.9 69.75 -0.9 69.55 -1.85 53.35 0.15 52.75 4.85 51.2 5.9 50.85 7.35 58.3 6.3 58.3 7.55 58.5 Q10.25 59.05 12.65 62.2 15.55 66.3 16.3 72.1 17.05 77.9 15.1 82.15 13.5 85.45 11.05 86.35 L10.1 86.5 M2.35 75.5 Q2.85 77.05 3.8 78.35 5.5 80.6 7.45 80.5 L8.25 80.4 Q9.65 79.9 10.6 78.05 11.7 75.65 11.3 72.4 10.85 69.15 9.2 66.8 7.9 65.1 6.35 64.85 L5.45 64.7 Q3.5 64.8 2.4 67.15 L1.9 68.95 1.65 70.05 Q1.5 71.3 1.65 72.65 L1.7 72.8 1.85 73.5 1.95 74.1 2.1 74.65 2.35 75.5" fill="#f39300" fill-rule="evenodd" stroke="none"/>
    <path d="M25.35 22.95 L29.95 24.6 Q22.8 24.95 15.4 30.2 9.15 36.1 8.85 45.15 L7.25 46.0 4.35 46.35 4.05 46.35 Q3.95 44.0 4.3 41.8 4.9 37.1 7.75 33.4 14.4 24.35 25.35 22.95 M8.4 50.95 L10.8 51.05 13.75 58.6 14.7 61.0 15.55 62.05 Q18.55 66.1 19.25 71.95 19.95 77.75 18.0 81.95 16.3 85.65 13.55 86.2 L12.85 86.4 10.1 86.5 11.05 86.35 Q13.5 85.45 15.1 82.15 17.05 77.9 16.3 72.1 15.55 66.3 12.65 62.2 10.25 59.05 7.55 58.5 L6.3 58.3 7.35 58.3 5.9 50.85 8.4 50.95" fill="#cd4300" fill-rule="evenodd" stroke="none"/>
    <path d="M1.9 68.95 L2.3 67.6 Q3.3 65.5 5.1 65.35 L5.95 65.5 Q7.2 65.65 8.45 67.3 10.0 69.35 10.35 72.3 10.7 75.2 9.7 77.4 8.9 79.05 7.65 79.5 L6.85 79.65 Q5.1 79.75 3.6 77.7 2.85 76.75 2.35 75.5 L2.1 74.65 1.95 74.1 1.85 73.5 1.7 72.8 1.65 72.65 Q1.5 71.3 1.65 70.05 L1.9 68.95" fill="#ffe000" fill-rule="evenodd" stroke="none"/>
    <path d="M2.35 75.5 Q2.85 76.75 3.6 77.7 5.1 79.75 6.85 79.65 L7.65 79.5 Q8.9 79.05 9.7 77.4 10.7 75.2 10.35 72.3 10.0 69.35 8.45 67.3 7.2 65.65 5.95 65.5 L5.1 65.35 Q3.3 65.5 2.3 67.6 L1.9 68.95 2.4 67.15 Q3.5 64.8 5.45 64.7 L6.35 64.85 Q7.9 65.1 9.2 66.8 10.85 69.15 11.3 72.4 11.7 75.65 10.6 78.05 9.65 79.9 8.25 80.4 L7.45 80.5 Q5.5 80.6 3.8 78.35 2.85 77.05 2.35 75.5" fill="#ecb80c" fill-rule="evenodd" stroke="none"/>
    <path d="M-0.4 48.2 L-1.55 48.15 Q-1.5 40.35 1.65 34.05 4.75 29.35 10.1 26.4 15.2 23.0 23.55 22.0 L25.3 22.85 25.35 22.95 29.95 24.6 Q22.8 24.95 15.4 30.2 9.15 36.1 8.85 45.15 L7.25 46.0 7.6 46.0 8.4 50.95 10.8 51.05 13.75 58.6 Q15.8 59.55 17.6 61.95 20.65 66.0 21.4 71.85 22.15 77.65 20.1 81.85 18.15 86.15 14.6 86.3 L14.45 86.3 12.85 86.4 10.1 86.5 9.4 86.5 Q6.0 86.55 3.05 82.65 0.05 78.65 -0.7 72.8 L-0.9 69.75 -0.9 69.55 -1.85 53.35 0.15 52.75 -0.4 48.2 Q1.85 47.3 4.05 46.35 L4.35 46.35 7.25 46.0 M13.75 58.6 L14.7 61.0 15.55 62.05 Q18.55 66.1 19.25 71.95 19.95 77.75 18.0 81.95 16.3 85.65 13.55 86.2 L12.85 86.4 M0.15 52.75 L4.85 51.2 4.35 46.35 M5.9 50.85 L8.4 50.95 M4.85 51.2 L5.9 50.85 M2.35 75.5 Q2.85 77.05 3.8 78.35 5.5 80.6 7.45 80.5 L8.25 80.4 Q9.65 79.9 10.6 78.05 11.7 75.65 11.3 72.4 10.85 69.15 9.2 66.8 7.9 65.1 6.35 64.85 L5.45 64.7 Q3.5 64.8 2.4 67.15 L1.9 68.95 1.65 70.05 Q1.5 71.3 1.65 72.65 L1.7 72.8 1.85 73.5 1.95 74.1 2.1 74.65 2.35 75.5" fill="none" stroke="#000000" stroke-linecap="round" stroke-linejoin="round" stroke-width="1.0"/>
    <path d="M56.8 42.6 L61.95 40.35 Q69.05 46.7 80.2 51.9 L79.2 51.8 Q66.85 48.6 56.8 42.6 M41.8 38.25 Q43.75 41.95 46.6 45.7 L41.3 44.3 36.15 38.65 41.8 38.25 M49.45 49.25 L54.95 55.2 54.1 54.75 46.8 49.25 49.45 49.25 M2.55 42.15 L1.3 41.65 Q5.8 41.8 9.3 41.45 L13.05 42.95 2.55 42.15 M18.2 44.7 L23.9 46.35 Q17.7 55.25 7.3 57.05 L5.4 56.8 Q13.65 53.35 18.2 44.7" fill="#93664a" fill-rule="evenodd" stroke="none"/>
    <path d="M79.2 51.8 Q67.15 50.25 58.65 45.45 L56.8 42.6 Q66.85 48.6 79.2 51.8 M36.15 38.65 L41.3 44.3 38.15 43.35 36.95 42.0 36.15 38.65 M54.1 54.75 Q49.05 52.2 45.0 49.25 L46.8 49.25 54.1 54.75 M2.55 42.15 L13.05 42.95 15.6 43.85 Q9.0 44.65 2.55 42.15 M23.9 46.35 L24.05 46.2 23.95 46.35 23.35 49.15 Q17.85 57.85 7.3 57.05 17.7 55.25 23.9 46.35" fill="#724631" fill-rule="evenodd" stroke="none"/>
    <path d="M45.0 49.25 Q41.15 46.45 38.15 43.35 L41.3 44.3 46.8 49.25 45.0 49.25 M20.05 41.85 L17.6 43.5 15.6 43.85 13.05 42.95 20.05 41.85" fill="#955b40" fill-rule="evenodd" stroke="none"/>
    <path d="M41.3 44.3 L46.6 45.7 49.45 49.25 46.8 49.25 41.3 44.3 M13.05 42.95 L9.3 41.45 Q13.05 41.05 15.6 40.1 L20.05 41.85 13.05 42.95 M18.2 44.7 L18.6 43.85 24.05 46.2 23.9 46.35 18.2 44.7" fill="#d4aa8a" fill-rule="evenodd" stroke="none"/>
    <path d="M61.95 40.35 Q69.05 46.7 80.2 51.9 L79.2 51.8 Q67.15 50.25 58.65 45.45 M46.6 45.7 Q43.75 41.95 41.8 38.25 M46.6 45.7 L49.45 49.25 54.95 55.2 54.1 54.75 Q49.05 52.2 45.0 49.25 41.15 46.45 38.15 43.35 L36.95 42.0 M9.3 41.45 Q5.8 41.8 1.3 41.65 L2.55 42.15 Q9.0 44.65 15.6 43.85 L17.6 43.5 M9.3 41.45 Q13.05 41.05 15.6 40.1 M18.6 43.85 L18.2 44.7 Q13.65 53.35 5.4 56.8 L7.3 57.05 Q17.85 57.85 23.35 49.15" fill="none" stroke="#000000" stroke-linecap="round" stroke-linejoin="round" stroke-width="1.0"/>
  </g>
</svg>
