<?xml version="1.0" encoding="UTF-8" standalone="no"?>
<svg xmlns:xlink="http://www.w3.org/1999/xlink" height="38.3px" width="22.9px" xmlns="http://www.w3.org/2000/svg">
  <g transform="matrix(1.0, 0.0, 0.0, 1.0, 3.9, 3.15)">
    <path d="M14.6 0.0 Q19.5 5.2 17.25 9.85 14.95 14.5 12.55 20.5 10.1 26.45 8.7 30.9 7.3 35.3 2.75 34.55 1.25 34.25 0.45 33.4 5.05 12.5 8.05 4.4 10.7 1.4 14.6 0.0" fill="#f7d0b3" fill-rule="evenodd" stroke="none"/>
    <path d="M8.05 4.4 Q5.05 12.5 0.45 33.4 -1.25 31.7 -0.3 27.65 1.05 21.55 3.85 12.25 5.3 7.5 8.05 4.4" fill="#cd9e87" fill-rule="evenodd" stroke="none"/>
    <path d="M14.6 0.0 Q10.7 1.4 8.05 4.4 5.3 7.5 3.85 12.25 1.05 21.55 -0.3 27.65 -1.25 31.7 0.45 33.4 L0.25 34.2 M0.45 33.4 Q1.25 34.25 2.75 34.55 7.3 35.3 8.7 30.9 10.1 26.45 12.55 20.5 14.95 14.5 17.25 9.85" fill="none" stroke="#000000" stroke-linecap="round" stroke-linejoin="round" stroke-width="1.0"/>
    <path d="M-0.4 16.7 Q2.05 18.45 4.95 19.8 L10.65 23.7 Q5.1 23.8 -1.0 21.5 L-3.4 20.1 -0.45 16.65 -0.4 16.7" fill="#f39300" fill-rule="evenodd" stroke="none"/>
    <path d="M18.25 3.75 Q15.6 12.4 12.8 18.45 8.2 18.1 2.35 15.8 L10.15 19.65 Q4.85 19.5 -0.4 16.7 L-0.45 16.65 -1.45 15.9 Q1.4 13.35 4.5 6.8 6.1 3.35 7.6 1.25 9.1 -0.9 15.8 -1.45 17.55 0.05 18.25 3.75" fill="#5b504e" fill-rule="evenodd" stroke="none"/>
    <path d="M4.95 19.8 Q9.0 21.65 13.9 22.6 L13.3 26.55 Q6.25 25.5 -1.0 21.5 5.1 23.8 10.65 23.7 L4.95 19.8" fill="#cd4300" fill-rule="evenodd" stroke="none"/>
    <path d="M18.25 3.75 L18.5 5.65 14.7 22.75 13.9 22.6 Q9.0 21.65 4.95 19.8 2.05 18.45 -0.4 16.7 4.85 19.5 10.15 19.65 L2.35 15.8 Q8.2 18.1 12.8 18.45 15.6 12.4 18.25 3.75" fill="#332d2c" fill-rule="evenodd" stroke="none"/>
    <path d="M-0.4 16.7 Q2.05 18.45 4.95 19.8 9.0 21.65 13.9 22.6 L14.7 22.75 18.5 5.65 M15.8 -1.45 Q9.1 -0.9 7.6 1.25 6.1 3.35 4.5 6.8 1.4 13.35 -1.45 15.9 L-0.45 16.65 -0.4 16.7 M-1.0 21.5 Q6.25 25.5 13.3 26.55 L13.9 22.6 M-0.45 16.65 L-3.4 20.1 -1.0 21.5" fill="none" stroke="#000000" stroke-linecap="round" stroke-linejoin="round" stroke-width="1.0"/>
    <path d="M4.35 5.6 Q5.9 5.75 7.15 7.35 5.05 10.9 4.5 14.45 L0.7 12.35 Q1.7 8.8 4.35 5.6 M13.3 -2.65 L13.9 -0.15 Q9.95 1.25 8.15 3.8 L6.1 2.35 Q7.85 -1.05 13.3 -2.65" fill="#f36b00" fill-rule="evenodd" stroke="none"/>
    <path d="M13.3 -2.65 Q7.85 -1.05 6.1 2.35 L8.15 3.8 Q9.95 1.25 13.9 -0.15 L13.3 -2.65 M4.35 5.6 Q1.7 8.8 0.7 12.35 L4.5 14.45 Q5.05 10.9 7.15 7.35 5.9 5.75 4.35 5.6" fill="none" stroke="#000000" stroke-linecap="round" stroke-linejoin="round" stroke-width="1.0"/>
  </g>
</svg>
