<?xml version="1.0" encoding="UTF-8" standalone="no"?>
<svg xmlns:xlink="http://www.w3.org/1999/xlink" height="40.3px" width="15.5px" xmlns="http://www.w3.org/2000/svg">
  <g transform="matrix(1.0, 0.0, 0.0, 1.0, 1.4, 0.1)">
    <path d="M5.85 0.0 L7.9 0.1 Q10.3 0.5 11.95 1.3 L12.5 1.45 12.55 5.65 Q12.65 8.95 11.05 15.45 10.2 19.7 10.1 22.75 L3.25 22.85 Q4.05 19.65 3.85 16.4 3.1 7.45 5.85 0.0 M-0.75 36.45 L9.55 36.35 Q9.5 37.15 9.7 37.55 4.5 38.5 -0.45 37.05 L-0.75 36.45 M10.55 34.6 Q10.2 33.95 10.35 32.15 10.4 30.7 11.95 29.7 L12.1 29.85 Q13.3 30.95 13.5 33.45 13.95 35.65 12.2 36.15 L10.9 34.95 10.8 34.85 10.55 34.6" fill="#f7d0b3" fill-rule="evenodd" stroke="none"/>
    <path d="M5.85 0.0 Q3.1 7.45 3.85 16.4 4.05 19.65 3.25 22.85 L1.85 22.85 Q2.35 19.05 2.2 14.15 2.05 5.7 2.9 3.4 3.75 1.05 4.3 0.4 4.9 0.05 5.85 0.0 M11.15 36.3 L10.9 34.95 12.2 36.15 11.15 36.3 M11.05 36.3 Q11.1 40.25 6.15 39.6 0.9 39.85 -0.45 37.05 4.5 38.5 9.7 37.55 9.5 37.15 9.55 36.35 L11.05 36.3" fill="#cd9e87" fill-rule="evenodd" stroke="none"/>
    <path d="M3.25 22.85 L10.1 22.75 Q10.0 25.0 10.3 26.65 10.45 28.05 11.95 29.7 10.4 30.7 10.35 32.15 10.2 33.95 10.55 34.6 L10.05 33.8 9.55 36.35 -0.75 36.45 -0.8 36.3 Q-1.15 33.25 -0.45 30.7 2.2 26.85 3.25 22.85" fill="#ff7e00" fill-rule="evenodd" stroke="none"/>
    <path d="M1.85 22.85 L3.25 22.85 Q2.2 26.85 -0.45 30.7 -0.1 29.2 0.7 27.85 1.45 25.65 1.85 22.85 M9.55 36.35 L10.05 33.8 10.55 34.6 10.8 34.85 10.9 34.95 11.15 36.3 11.05 36.3 9.55 36.35" fill="#cd4300" fill-rule="evenodd" stroke="none"/>
    <path d="M3.25 22.85 L10.1 22.75 Q10.2 19.7 11.05 15.45 12.65 8.95 12.55 5.65 L12.5 1.45 M4.3 0.4 Q3.75 1.05 2.9 3.4 2.05 5.7 2.2 14.15 2.35 19.05 1.85 22.85 L3.25 22.85 M-0.45 30.7 Q-1.15 33.25 -0.8 36.3 L-0.75 36.45 9.55 36.35 11.05 36.3 11.15 36.3 10.9 34.95 10.8 34.85 10.55 34.6 Q10.2 33.95 10.35 32.15 10.4 30.7 11.95 29.7 10.45 28.05 10.3 26.65 10.0 25.0 10.1 22.75 M12.2 36.15 Q13.95 35.65 13.5 33.45 13.3 30.95 12.1 29.85 L11.95 29.7 M12.2 36.15 L11.15 36.3 M-0.45 37.05 Q0.9 39.85 6.15 39.6 11.1 40.25 11.05 36.3 M-0.45 37.05 L-0.75 36.45 M1.85 22.85 Q1.45 25.65 0.7 27.85 -0.1 29.2 -0.45 30.7" fill="none" stroke="#000000" stroke-linecap="round" stroke-linejoin="round" stroke-width="1.0"/>
    <path d="M4.65 24.55 L4.55 25.2 -0.3 25.9 Q-0.95 23.8 -0.05 21.9 L5.05 20.95 4.95 21.75 4.65 24.55" fill="#5b504e" fill-rule="evenodd" stroke="none"/>
    <path d="M4.65 24.55 L4.95 21.75 11.1 21.15 11.15 24.65 4.65 24.55" fill="#332d2c" fill-rule="evenodd" stroke="none"/>
    <path d="M7.65 29.9 Q5.9 33.45 4.3 35.05 2.3 32.9 1.55 30.2 L7.65 29.9" fill="#ffe000" fill-rule="evenodd" stroke="none"/>
    <path d="M4.95 21.75 L5.05 20.95 -0.05 21.9 Q-0.95 23.8 -0.3 25.9 L4.55 25.2 4.65 24.55 4.95 21.75 11.1 21.15 11.15 24.65 4.65 24.55" fill="none" stroke="#000000" stroke-linecap="round" stroke-linejoin="round" stroke-width="1.0"/>
  </g>
</svg>
