<?xml version="1.0" encoding="UTF-8" standalone="no"?>
<svg xmlns:xlink="http://www.w3.org/1999/xlink" height="142.05px" width="96.3px" xmlns="http://www.w3.org/2000/svg">
  <g transform="matrix(1.0, 0.0, 0.0, 1.0, 38.0, -31.45)">
    <path d="M31.45 99.95 L21.05 139.9 18.4 143.45 Q13.15 151.3 14.2 159.3 L13.45 157.25 Q11.15 150.45 15.45 140.55 18.7 132.95 21.7 128.35 9.75 145.2 9.35 151.5 5.15 157.45 4.05 162.55 3.2 156.75 4.15 152.95 5.05 149.05 5.15 147.4 5.95 144.8 6.85 138.85 7.9 131.95 7.7 127.1 L5.15 135.2 2.3 144.8 Q2.0 145.15 1.95 145.65 L1.95 145.95 Q0.2 151.55 -2.65 156.7 -7.05 164.65 -13.05 171.2 -11.2 167.55 -10.1 158.6 L-10.2 159.7 Q-7.6 153.9 -6.05 145.0 L-6.0 144.9 Q-2.85 138.95 -0.2 132.65 4.15 122.55 2.5 112.65 2.5 118.7 0.55 125.1 -2.25 134.35 -5.75 143.15 L-5.35 140.35 Q-3.75 128.2 -4.1 98.7 -1.55 108.3 -1.15 116.55 L1.05 98.55 3.7 117.55 Q5.15 127.25 4.0 130.4 12.5 120.55 14.35 102.2 L14.5 123.65 Q14.4 135.0 11.65 141.3 24.75 123.15 31.45 99.95 M5.7 65.95 L6.65 107.15 Q6.2 109.1 5.15 99.45 3.75 86.7 5.7 65.95 M-1.55 32.55 Q-11.0 66.95 -10.9 82.6 -10.85 97.7 -15.15 109.05 L-15.65 110.25 -15.0 109.55 Q-7.1 100.05 -7.25 82.95 -6.95 88.05 -5.55 93.7 L-4.45 97.4 -4.1 98.7 -7.0 138.8 -8.3 143.85 Q-10.55 154.65 -16.1 163.7 -18.85 164.85 -22.7 164.65 -14.0 162.55 -14.55 156.65 -15.05 150.75 -13.35 145.1 -15.05 148.65 -18.3 150.95 -12.0 145.1 -8.6 129.9 -5.25 114.65 -4.45 97.4 -11.8 142.05 -17.85 145.5 -16.2 140.2 -17.1 132.0 -14.25 125.3 -13.9 117.35 -13.8 114.8 -14.55 112.85 -14.55 116.85 -16.7 122.75 L-20.25 132.4 Q-23.05 134.85 -27.45 135.75 -19.45 128.45 -21.05 119.3 -22.55 110.85 -21.85 103.3 -15.9 98.15 -14.65 92.2 -13.45 86.2 -14.05 82.8 L-14.25 83.0 Q-15.55 94.25 -24.15 102.5 -26.05 104.35 -28.45 105.15 -30.05 105.7 -30.9 106.7 L-37.5 106.2 Q-28.05 106.9 -24.45 100.15 -23.1 97.65 -22.55 94.2 -23.1 97.65 -24.45 100.15 L-22.45 93.55 -22.5 93.75 -22.55 94.2 Q-23.45 100.95 -20.15 90.3 -16.9 79.6 -19.0 62.35 -18.9 77.45 -21.4 82.7 -23.9 87.9 -29.6 88.9 L-30.8 89.15 -32.85 88.9 Q-21.3 88.1 -21.95 67.25 -22.5 49.5 -19.3 45.05 -22.25 47.4 -26.7 47.55 -19.45 44.35 -20.6 31.95 L-11.35 32.2 -10.35 32.2 -1.7 32.55 -1.55 32.55 -1.7 32.55 -1.25 31.45 -1.55 32.55 M8.7 133.0 Q8.65 136.45 7.95 140.4 6.9 146.4 6.35 152.15 L8.55 144.5 Q9.85 138.55 8.7 133.0 M20.8 135.9 Q15.7 139.45 13.95 145.3 12.55 149.9 13.2 154.05 13.75 149.95 14.95 145.85 16.7 139.9 20.8 135.9 M2.1 154.9 L2.15 154.8 3.7 151.2 2.1 154.9 M4.1 170.1 L4.1 169.6 4.3 170.35 4.1 170.1 M-19.3 45.05 L-18.75 44.55 -18.05 43.85 -19.3 45.05 -18.05 43.85 -18.75 44.55 -19.3 45.05 M-19.8 50.1 Q-20.85 52.8 -21.05 56.2 -21.3 60.65 -20.65 64.4 -19.95 61.5 -19.95 58.45 L-19.8 50.1 M-15.1 66.25 L-14.9 58.6 -16.25 72.75 -16.25 72.65 -17.0 74.2 -16.3 73.1 -16.4 74.85 Q-16.85 80.7 -17.6 82.2 -15.65 81.3 -15.2 71.35 L-12.4 66.35 Q-9.1 60.25 -9.05 53.9 -9.45 57.6 -11.2 61.55 L-15.15 70.3 -15.1 66.25 M-2.0 61.7 Q-1.3 72.55 -2.55 80.3 -3.85 88.0 -4.3 93.0 -6.3 84.55 -4.05 74.35 -2.5 67.4 -2.0 61.7 M-16.0 113.45 L-17.15 119.35 Q-18.4 127.15 -23.85 133.2 -20.6 130.25 -18.5 126.0 -15.4 119.9 -16.0 113.45 M-6.35 96.15 Q-6.65 99.65 -7.35 103.65 -8.45 110.1 -10.75 116.35 -8.6 112.95 -7.35 108.55 -5.55 102.3 -6.35 96.15 M-8.5 132.3 Q-8.5 134.25 -9.1 136.85 -10.15 141.35 -12.55 145.3 -10.5 143.7 -9.3 140.6 -7.65 136.25 -8.5 132.3 M-5.15 144.9 L-5.5 145.45 Q-5.85 148.7 -6.75 151.8 -8.5 157.75 -9.2 163.25 -7.05 160.35 -5.75 156.2 -3.75 150.05 -5.15 144.9 M-25.2 153.85 L-25.1 154.0 -26.25 154.25 -25.2 153.85" fill="#3e3343" fill-rule="evenodd" stroke="none"/>
    <path d="M31.45 99.95 L31.8 98.7 32.55 95.95 31.8 98.7 31.45 99.95 Q24.75 123.15 11.65 141.3 14.4 135.0 14.5 123.65 L14.35 102.2 Q12.5 120.55 4.0 130.4 5.15 127.25 3.7 117.55 L1.05 98.55 -1.15 116.55 Q-1.55 108.3 -4.1 98.7 L-4.45 97.4 -5.55 93.7 Q-6.95 88.05 -7.25 82.95 -7.1 100.05 -15.0 109.55 L-15.65 110.25 -15.15 109.05 Q-10.85 97.7 -10.9 82.6 -11.0 66.95 -1.55 32.55 32.05 34.15 57.8 39.35 45.85 68.7 51.15 77.95 48.4 77.55 46.35 74.35 45.3 82.35 45.8 88.0 44.15 87.9 43.0 84.45 44.4 91.7 43.15 97.05 41.95 102.35 42.25 105.55 39.95 103.4 39.95 100.0 38.35 108.75 27.8 122.9 L26.45 126.35 Q24.05 134.95 21.05 139.9 L31.45 99.95 M40.2 97.4 Q39.9 98.75 39.95 100.0 39.9 98.75 40.2 97.4 M42.15 80.85 L43.0 84.45 42.15 80.85 M5.7 65.95 Q3.75 86.7 5.15 99.45 6.2 109.1 6.65 107.15 L5.7 65.95 M-13.05 171.2 Q-7.05 164.65 -2.65 156.7 0.2 151.55 1.95 145.95 L1.95 145.65 Q2.0 145.15 2.3 144.8 L5.15 135.2 7.7 127.1 Q7.9 131.95 6.85 138.85 5.95 144.8 5.15 147.4 5.05 149.05 4.15 152.95 3.2 156.75 4.05 162.55 L3.95 163.2 4.05 162.55 4.05 162.6 3.95 163.2 3.7 164.9 Q3.5 167.25 4.05 169.45 L4.1 169.6 4.1 170.1 Q0.35 165.75 1.15 156.8 L1.15 156.7 Q-6.2 170.8 -14.3 173.0 -13.65 172.35 -13.05 171.2 M9.35 151.5 Q9.75 145.2 21.7 128.35 18.7 132.95 15.45 140.55 11.15 150.45 13.45 157.25 L14.2 159.3 14.8 162.35 Q8.7 157.7 10.2 150.25 L9.35 151.5 M-4.1 98.7 Q-3.75 128.2 -5.35 140.35 L-5.75 143.15 Q-2.25 134.35 0.55 125.1 2.5 118.7 2.5 112.65 4.15 122.55 -0.2 132.65 -2.85 138.95 -6.0 144.9 L-6.05 145.0 Q-7.6 153.9 -10.2 159.7 L-10.1 158.6 -9.7 155.0 -9.65 154.45 -10.0 156.15 -10.1 156.55 -10.2 156.85 -10.3 157.25 -10.75 158.4 -11.45 159.75 -12.15 160.75 -15.5 163.45 -16.1 163.7 Q-10.55 154.65 -8.3 143.85 L-7.0 138.8 -4.1 98.7 M2.1 154.9 L2.05 155.0 1.15 156.7 2.05 155.0 2.1 154.9 3.7 151.2 2.15 154.8 2.1 154.9 M13.25 144.1 L10.2 150.25 13.25 144.1 M-30.8 89.15 L-29.6 88.9 Q-23.9 87.9 -21.4 82.7 -18.9 77.45 -19.0 62.35 -16.9 79.6 -20.15 90.3 -23.45 100.95 -22.55 94.2 L-22.5 93.75 -22.45 93.55 Q-22.25 91.7 -22.2 89.6 -22.25 91.7 -22.45 93.55 L-24.45 100.15 Q-22.65 92.45 -22.2 89.6 L-22.2 88.0 -22.35 84.85 Q-25.2 89.4 -30.8 89.15 M-30.9 106.7 Q-30.05 105.7 -28.45 105.15 -26.05 104.35 -24.15 102.5 -15.55 94.25 -14.25 83.0 L-14.05 82.8 Q-13.45 86.2 -14.65 92.2 -15.9 98.15 -21.85 103.3 L-21.7 101.95 Q-25.9 106.0 -30.9 106.7 M-20.25 132.4 L-16.7 122.75 Q-14.55 116.85 -14.55 112.85 -13.8 114.8 -13.9 117.35 -14.25 125.3 -17.1 132.0 L-17.55 128.95 Q-18.65 130.95 -20.25 132.4 M-17.85 145.5 Q-11.8 142.05 -4.45 97.4 -5.25 114.65 -8.6 129.9 -12.0 145.1 -18.3 150.95 -21.1 152.9 -25.1 154.0 L-25.2 153.85 Q-19.8 151.55 -17.85 145.5 M-15.1 66.25 L-15.15 70.3 -11.2 61.55 Q-9.45 57.6 -9.05 53.9 -9.1 60.25 -12.4 66.35 L-15.2 71.35 Q-15.65 81.3 -17.6 82.2 -16.85 80.7 -16.4 74.85 L-16.3 73.1 -17.0 74.2 -16.25 72.65 -16.25 72.75 -14.9 58.6 -15.1 66.25 M-20.0 80.85 L-22.35 84.85 -20.0 80.85 M-2.0 61.7 Q-2.5 67.4 -4.05 74.35 -6.3 84.55 -4.3 93.0 -3.85 88.0 -2.55 80.3 -1.3 72.55 -2.0 61.7 M-17.25 126.9 L-17.55 128.95 -17.25 126.9" fill="#1a131e" fill-rule="evenodd" stroke="none"/>
    <path d="M8.7 133.0 Q9.85 138.55 8.55 144.5 L6.35 152.15 Q6.9 146.4 7.95 140.4 8.65 136.45 8.7 133.0 M20.8 135.9 Q16.7 139.9 14.95 145.85 13.75 149.95 13.2 154.05 12.55 149.9 13.95 145.3 15.7 139.45 20.8 135.9 M-19.8 50.1 L-19.95 58.45 Q-19.95 61.5 -20.65 64.4 -21.3 60.65 -21.05 56.2 -20.85 52.8 -19.8 50.1 M-6.35 96.15 Q-5.55 102.3 -7.35 108.55 -8.6 112.95 -10.75 116.35 -8.45 110.1 -7.35 103.65 -6.65 99.65 -6.35 96.15 M-16.0 113.45 Q-15.4 119.9 -18.5 126.0 -20.6 130.25 -23.85 133.2 -18.4 127.15 -17.15 119.35 L-16.0 113.45 M-5.15 144.9 Q-3.75 150.05 -5.75 156.2 -7.05 160.35 -9.2 163.25 -8.5 157.75 -6.75 151.8 -5.85 148.7 -5.5 145.45 L-5.15 144.9 M-8.5 132.3 Q-7.65 136.25 -9.3 140.6 -10.5 143.7 -12.55 145.3 -10.15 141.35 -9.1 136.85 -8.5 134.25 -8.5 132.3" fill="#6c5974" fill-rule="evenodd" stroke="none"/>
    <path d="M21.05 139.9 Q24.05 134.95 26.45 126.35 L27.8 122.9 Q38.35 108.75 39.95 100.0 39.9 98.75 40.2 97.4 M-1.55 32.55 Q32.05 34.15 57.8 39.35 45.85 68.7 51.15 77.95 48.4 77.55 46.35 74.35 45.3 82.35 45.8 88.0 44.15 87.9 43.0 84.45 44.4 91.7 43.15 97.05 41.95 102.35 42.25 105.55 39.95 103.4 39.95 100.0 M43.0 84.45 L42.15 80.85 M4.05 162.55 Q5.15 157.45 9.35 151.5 L10.2 150.25 13.25 144.1 M14.2 159.3 Q13.15 151.3 18.4 143.45 L21.05 139.9 M-10.1 158.6 Q-11.2 167.55 -13.05 171.2 -13.65 172.35 -14.3 173.0 -6.2 170.8 1.15 156.7 L2.05 155.0 2.1 154.9 3.7 151.2 M1.15 156.7 L1.15 156.8 Q0.35 165.75 4.1 170.1 L4.3 170.35 4.1 169.6 4.05 169.45 Q3.5 167.25 3.7 164.9 L3.95 163.2 4.05 162.55 M10.2 150.25 Q8.7 157.7 14.8 162.35 L14.2 159.3 M-1.7 32.55 L-10.35 32.2 -11.35 32.2 -20.6 31.95 Q-19.45 44.35 -26.7 47.55 -22.25 47.4 -19.3 45.05 L-18.05 43.85 -18.75 44.55 -19.3 45.05 Q-22.5 49.5 -21.95 67.25 -21.3 88.1 -32.85 88.9 L-30.8 89.15 Q-25.2 89.4 -22.35 84.85 L-20.0 80.85 M-22.55 94.2 Q-23.1 97.65 -24.45 100.15 -28.05 106.9 -37.5 106.2 L-30.9 106.7 Q-25.9 106.0 -21.7 101.95 M-21.85 103.3 Q-22.55 110.85 -21.05 119.3 -19.45 128.45 -27.45 135.75 -23.05 134.85 -20.25 132.4 -18.65 130.95 -17.55 128.95 L-17.25 126.9 M-17.1 132.0 Q-16.2 140.2 -17.85 145.5 -19.8 151.55 -25.2 153.85 L-26.25 154.25 -25.1 154.0 Q-21.1 152.9 -18.3 150.95 -15.05 148.65 -13.35 145.1 -15.05 150.75 -14.55 156.65 -14.0 162.55 -22.7 164.65 -18.85 164.85 -16.1 163.7 M-1.55 32.55 L-1.7 32.55 M-22.35 84.85 L-22.2 88.0 -22.2 89.6 Q-22.25 91.7 -22.45 93.55 L-22.5 93.75 -22.55 94.2 M-17.55 128.95 L-17.1 132.0 M-15.5 163.45 L-12.15 160.75 -11.45 159.75 -10.75 158.4 -10.3 157.25 -10.2 156.85 -10.1 156.55 -10.0 156.15 -9.65 154.45 -9.7 155.0 -10.1 158.6" fill="none" stroke="#000000" stroke-linecap="round" stroke-linejoin="round" stroke-width="1.0"/>
    <path d="M32.55 95.95 L31.8 98.7 31.45 99.95 21.05 139.9 Z" fill="none" stroke="#000000" stroke-linecap="round" stroke-linejoin="round" stroke-width="0.05"/>
  </g>
</svg>
