<?xml version="1.0" encoding="UTF-8" standalone="no"?>
<svg xmlns:xlink="http://www.w3.org/1999/xlink" height="105.75px" width="189.9px" xmlns="http://www.w3.org/2000/svg">
  <g transform="matrix(1.0, 0.0, 0.0, 1.0, 188.1, 85.7)">
    <path d="M-6.45 4.65 Q-5.9 3.4 -4.95 2.5 L-3.15 1.2 Q-1.35 0.2 1.25 -0.15 1.45 -1.2 1.1 -1.95 L-2.7 -3.85 -2.95 -3.9 -3.05 -3.9 -3.75 -3.95 Q-21.0 -2.55 -26.05 -8.4 -37.45 -21.25 -34.95 -34.75 L-33.55 -42.05 -33.6 -42.4 Q-34.3 -46.15 -38.0 -49.15 L-51.3 -60.3 Q-56.95 -64.65 -64.85 -67.3 L-71.4 -69.1 Q-71.8 -68.6 -71.7 -67.95 -71.5 -65.9 -66.55 -62.75 L-64.7 -61.65 -64.95 -61.75 -65.15 -61.8 -65.85 -62.05 -65.8 -62.0 -104.2 -75.05 Q-142.7 -85.3 -152.9 -85.2 -155.4 -85.15 -156.2 -84.55 -152.15 -79.7 -138.2 -71.9 -124.8 -65.6 -113.1 -65.75 L-119.35 -65.2 Q-136.8 -63.95 -155.5 -66.05 L-155.6 -66.05 -156.0 -66.1 -157.2 -66.25 -158.1 -66.45 -158.35 -66.55 Q-182.65 -72.95 -187.15 -72.25 L-187.45 -72.2 -187.5 -72.0 -187.5 -71.85 -187.6 -70.45 -187.6 -70.35 -187.4 -69.1 Q-186.35 -65.5 -181.15 -61.1 -168.65 -53.15 -153.85 -50.95 L-158.7 -48.85 -158.75 -48.85 -159.45 -48.5 -162.6 -46.5 Q-161.1 -45.2 -157.45 -45.35 L-139.95 -45.05 -139.65 -45.05 -139.45 -45.05 -135.95 -44.85 -134.75 -44.7 -136.8 -42.9 Q-138.95 -41.25 -141.85 -39.85 -146.95 -36.85 -151.65 -32.65 L-153.95 -30.5 Q-156.4 -28.25 -156.35 -27.75 -153.85 -26.05 -139.0 -31.75 L-138.05 -32.1 -136.45 -32.75 -135.7 -33.05 -129.75 -35.55 -129.9 -35.3 -129.95 -35.25 -129.95 -35.2 -130.3 -34.6 -130.55 -34.05 Q-130.9 -33.1 -130.6 -32.25 L-130.35 -31.65 -130.15 -31.4 -130.1 -31.3 -129.9 -31.1 Q-123.6 -30.0 -111.65 -32.35 L-111.75 -32.15 Q-119.45 -17.35 -121.45 -11.8 L-121.5 -11.8 -121.85 -10.7 Q-122.3 -9.25 -122.15 -8.7 L-122.15 -8.65 Q-113.7 -10.75 -95.65 -26.55 L-93.85 -28.15 -93.95 -27.9 -95.05 -25.8 -95.4 -25.05 -95.4 -25.1 Q-98.45 -18.75 -98.35 -15.75 L-98.35 -15.4 -98.3 -15.0 Q-96.85 -14.8 -93.65 -16.85 -90.2 -19.05 -84.65 -23.9 -88.7 -19.1 -87.75 -18.4 L-87.65 -18.4 -86.95 -18.4 -86.7 -18.4 Q-84.2 -18.75 -79.7 -21.5 -88.6 -9.55 -88.8 -5.65 -85.85 -7.05 -82.9 -10.05 -79.7 -13.4 -76.55 -18.75 L-76.9 -17.85 -77.5 -16.25 Q-80.0 -9.3 -80.9 -4.3 L-81.15 -2.6 Q-76.45 -7.35 -70.2 -18.15 -72.8 -12.6 -73.45 -8.95 L-73.65 -6.4 -73.6 -5.85 -72.7 -6.5 Q-69.7 -9.0 -65.9 -14.9 L-66.05 -14.65 -66.15 -14.45 -66.5 -13.8 -66.85 -13.25 -69.4 -8.0 -69.45 -7.8 -70.1 -5.9 -70.65 -3.75 -70.65 -3.6 -70.75 -3.15 -67.45 -4.3 -67.0 -4.55 Q-63.1 -6.45 -57.65 -10.55 L-57.8 -9.75 Q-59.45 -2.35 -59.35 2.4 L-59.3 3.85 -59.3 4.0 -59.1 5.45 -59.05 5.4 -58.95 5.3 -57.8 3.95 -57.1 2.8 Q-55.3 -0.2 -52.95 -5.95 -54.25 -1.5 -54.55 1.65 L-54.65 3.6 -54.4 5.95 -54.2 6.65 Q-51.3 5.5 -48.85 2.65 -47.3 0.85 -45.95 -1.55 L-46.0 -1.4 -46.0 -1.3 -46.6 0.2 -46.8 0.9 -46.9 1.1 Q-47.85 3.8 -48.1 5.8 -48.3 7.4 -48.1 8.5 -44.05 5.8 -40.3 -1.85 L-40.5 -1.15 -41.45 3.1 -41.7 4.9 Q-41.85 6.75 -41.6 8.05 -36.55 6.35 -33.35 1.2 L-34.0 4.45 Q-34.85 9.2 -34.2 11.4 -32.85 11.0 -31.5 9.75 -29.7 8.0 -28.0 4.75 L-27.2 3.1 -27.2 3.4 -27.25 3.65 Q-27.9 8.25 -27.6 11.5 L-27.45 12.55 -27.15 14.2 Q-24.3 11.3 -22.55 5.5 -23.35 9.9 -23.35 12.75 -23.35 14.8 -22.95 16.05 L-22.55 15.9 -22.55 15.95 -21.35 15.35 -18.25 12.2 -18.0 11.8 -17.45 10.8 Q-16.75 9.4 -16.2 7.7 -16.65 11.1 -16.6 13.95 -16.6 17.15 -15.95 19.55 L-15.55 19.05 Q-12.7 15.0 -11.3 7.3 -12.1 13.0 -10.2 15.05 L-9.45 14.55 Q-6.7 12.2 -6.45 4.65 Z" fill="none" stroke="#000000" stroke-linecap="round" stroke-linejoin="round" stroke-width="1.0"/>
  </g>
</svg>
