<?xml version="1.0" encoding="UTF-8" standalone="no"?>
<svg xmlns:xlink="http://www.w3.org/1999/xlink" height="35.55px" width="13.65px" xmlns="http://www.w3.org/2000/svg">
  <g transform="matrix(1.0, 0.0, 0.0, 1.0, 0.9, 0.5)">
    <path d="M3.1 0.0 Q8.4 1.05 11.15 10.75 10.2 10.65 10.3 11.55 L12.2 27.75 Q12.7 32.85 9.7 34.15 9.55 31.6 9.0 30.4 7.75 14.35 3.1 0.0" fill="#35325f" fill-rule="evenodd" stroke="none"/>
    <path d="M9.7 34.15 L8.85 34.4 Q4.9 35.25 4.3 30.85 L2.25 20.7 Q0.9 14.95 -0.2 7.6 -1.3 0.2 3.1 0.0 7.75 14.35 9.0 30.4 9.55 31.6 9.7 34.15" fill="#1b1d3a" fill-rule="evenodd" stroke="none"/>
    <path d="M3.1 0.0 Q8.4 1.05 11.15 10.75 10.2 10.65 10.3 11.55 L12.2 27.75 Q12.7 32.85 9.7 34.15 L8.85 34.4 Q4.9 35.25 4.3 30.85 L2.25 20.7 Q0.9 14.95 -0.2 7.6 -1.3 0.2 3.1 0.0 Z" fill="none" stroke="#000000" stroke-linecap="round" stroke-linejoin="round" stroke-width="1.0"/>
  </g>
</svg>
