<?xml version="1.0" encoding="UTF-8" standalone="no"?>
<svg xmlns:xlink="http://www.w3.org/1999/xlink" height="44.6px" width="22.45px" xmlns="http://www.w3.org/2000/svg">
  <g transform="matrix(1.0, 0.0, 0.0, 1.0, 1.7, 1.85)">
    <path d="M19.8 32.55 L19.3 32.85 19.0 32.85 17.3 32.5 Q16.45 32.15 16.1 31.6 15.45 30.55 14.55 30.25 15.45 30.55 16.1 31.6 16.45 32.15 17.3 32.5 L18.4 42.05 Q17.35 41.55 16.75 40.05 L16.7 36.75 16.05 34.3 13.35 42.0 Q12.5 41.4 12.6 40.1 12.65 39.4 13.4 36.9 13.65 36.1 13.25 34.95 L9.75 40.15 8.75 40.35 Q8.15 39.25 10.25 37.15 10.8 36.25 10.55 34.35 10.9 32.9 15.85 31.6 14.1 30.55 14.55 30.25 L13.25 29.95 Q12.5 29.65 12.0 29.15 11.25 28.35 11.25 26.95 L12.0 29.15 12.9 28.5 13.8 28.85 Q18.1 31.0 19.8 32.55 M7.3 23.6 L6.8 22.0 6.7 21.75 6.75 21.8 6.8 22.0 7.2 23.0 7.25 23.3 7.3 23.6 M12.0 29.15 Q12.5 29.65 13.25 29.95 11.4 29.3 12.0 29.15" fill="#efc3c0" fill-rule="evenodd" stroke="none"/>
    <path d="M6.25 1.15 L7.6 4.25 Q8.6 6.55 10.2 14.5 11.25 19.5 12.6 22.0 L12.75 22.3 Q14.2 24.95 15.55 26.2 L12.9 28.5 12.0 29.15 11.25 26.95 Q9.85 25.45 9.25 23.65 L9.2 23.55 9.2 23.45 9.2 23.1 9.15 23.1 8.8 17.9 Q7.7 9.75 3.3 1.5 5.2 0.75 6.25 1.15" fill="#2c2c2c" fill-rule="evenodd" stroke="none"/>
    <path d="M10.55 34.35 Q8.9 32.0 8.55 30.45 L8.05 27.95 7.8 26.3 7.35 24.2 7.3 23.6 7.25 23.3 7.2 23.0 6.8 22.0 6.75 21.8 6.8 21.8 6.75 21.75 4.35 15.7 Q1.6 10.2 0.85 7.3 L0.0 3.55 Q0.1 3.65 0.4 3.35 1.2 2.6 3.3 1.5 7.7 9.75 8.8 17.9 L9.15 23.1 9.2 23.1 9.2 23.45 9.2 23.55 9.25 23.65 Q9.85 25.45 11.25 26.95 11.25 28.35 12.0 29.15 11.4 29.3 13.25 29.95 L14.55 30.25 Q14.1 30.55 15.85 31.6 10.9 32.9 10.55 34.35" fill="#090909" fill-rule="evenodd" stroke="none"/>
    <path d="M12.6 22.0 L12.75 22.3 12.6 22.0 M15.55 26.2 L15.65 26.3 18.2 28.05 19.35 30.35 Q20.85 32.1 19.8 32.55 18.1 31.0 13.8 28.85 L12.9 28.5 15.55 26.2 M19.0 32.85 Q19.8 35.3 19.75 37.75 L18.9 42.2 18.4 42.05 17.3 32.5 19.0 32.85 M16.7 36.75 L15.85 38.75 13.75 42.25 13.35 42.0 16.05 34.3 16.7 36.75 M13.4 36.9 L11.6 39.4 9.75 40.15 13.25 34.95 Q13.65 36.1 13.4 36.9" fill="#fff1e0" fill-rule="evenodd" stroke="none"/>
    <path d="M6.25 1.15 L7.6 4.25 Q8.6 6.55 10.2 14.5 11.25 19.5 12.6 22.0 L12.75 22.3 Q14.2 24.95 15.55 26.2 L15.65 26.3 18.2 28.05 19.35 30.35 Q20.85 32.1 19.8 32.55 L19.3 32.85 19.0 32.85 Q19.8 35.3 19.75 37.75 L18.9 42.2 18.4 42.05 Q17.35 41.55 16.75 40.05 L16.7 36.75 15.85 38.75 13.75 42.25 13.35 42.0 Q12.5 41.4 12.6 40.1 12.65 39.4 13.4 36.9 L11.6 39.4 9.75 40.15 8.75 40.35 Q8.15 39.25 10.25 37.15 10.8 36.25 10.55 34.35 8.9 32.0 8.55 30.45 L8.05 27.95 7.8 26.3 7.35 24.2 7.3 23.6 6.8 22.0 6.7 21.75 M6.75 21.8 L6.75 21.75 4.35 15.7 Q1.6 10.2 0.85 7.3 L0.0 3.55 M6.8 22.0 L6.75 21.8 M7.3 23.6 L7.25 23.3 7.2 23.0 6.8 22.0 M12.6 22.0 L12.75 22.3 M12.0 29.15 Q11.25 28.35 11.25 26.95 M12.0 29.15 L12.9 28.5 15.55 26.2 M13.25 29.95 Q12.5 29.65 12.0 29.15 M13.25 29.95 L14.55 30.25 Q15.45 30.55 16.1 31.6 16.45 32.15 17.3 32.5 L19.0 32.85 M13.4 36.9 Q13.65 36.1 13.25 34.95 M16.7 36.75 L16.05 34.3 M14.55 30.25 Q14.1 30.55 15.85 31.6 10.9 32.9 10.55 34.35" fill="none" stroke="#000000" stroke-linecap="round" stroke-linejoin="round" stroke-width="1.0"/>
    <path d="M-1.2 2.8 L2.85 0.5 7.85 21.2 11.7 26.05 10.9 22.4 16.3 25.6 12.0 20.75 16.95 23.8 Q13.45 22.2 18.85 26.85 15.7 26.8 12.6 24.85 12.6 26.45 13.6 28.75 12.35 30.3 11.8 31.35 11.55 27.75 9.75 24.95 10.7 27.9 6.6 30.05 7.1 29.2 7.6 26.85 6.95 24.05 6.2 24.55 6.55 29.4 3.35 30.55 4.7 27.9 4.2 22.8 L-1.2 2.8" fill="#1b1d3a" fill-rule="evenodd" stroke="none"/>
    <path d="M2.85 0.5 L5.8 -1.35 11.45 12.1 Q13.9 18.5 15.6 20.1 17.3 21.75 20.15 22.8 18.65 23.2 17.7 24.15 L16.95 23.8 12.0 20.75 16.3 25.6 10.9 22.4 11.7 26.05 7.85 21.2 2.85 0.5 M8.55 17.85 Q9.55 20.1 12.35 22.75 10.8 21.05 10.35 19.65 10.6 19.1 12.35 19.95 10.05 18.2 8.55 17.85" fill="#35325f" fill-rule="evenodd" stroke="none"/>
    <path d="M5.8 -1.35 L11.45 12.1 Q13.9 18.5 15.6 20.1 17.3 21.75 20.15 22.8 18.65 23.2 17.7 24.15 L16.95 23.8 Q13.45 22.2 18.85 26.85 15.7 26.8 12.6 24.85 12.6 26.45 13.6 28.75 12.35 30.3 11.8 31.35 11.55 27.75 9.75 24.95 10.7 27.9 6.6 30.05 7.1 29.2 7.6 26.85 6.95 24.05 6.2 24.55 6.55 29.4 3.35 30.55 4.7 27.9 4.2 22.8 L-1.2 2.8" fill="none" stroke="#000000" stroke-linecap="round" stroke-linejoin="round" stroke-width="1.0"/>
    <path d="M5.8 -1.35 Q6.05 -1.15 6.0 -1.25 L6.5 -1.1 M16.95 23.8 L17.95 24.4 M8.55 17.85 Q9.55 20.1 12.35 22.75 10.8 21.05 10.35 19.65 10.6 19.1 12.35 19.95 10.05 18.2 8.55 17.85" fill="none" stroke="#000000" stroke-linecap="round" stroke-linejoin="round" stroke-width="0.05"/>
  </g>
</svg>
