<?xml version="1.0" encoding="UTF-8" standalone="no"?>
<svg xmlns:xlink="http://www.w3.org/1999/xlink" height="44.2px" width="18.0px" xmlns="http://www.w3.org/2000/svg">
  <g transform="matrix(1.0, 0.0, 0.0, 1.0, 0.5, 0.0)">
    <path d="M16.05 2.05 L16.35 5.3 Q13.05 9.25 8.25 11.2 7.3 11.0 6.05 11.95 L0.05 11.65 0.05 11.55 Q0.65 7.0 5.3 2.9 13.7 -2.4 16.05 2.05" fill="#2d69d0" fill-rule="evenodd" stroke="none"/>
    <path d="M0.05 11.65 L6.05 11.95 Q7.3 11.0 8.25 11.2 L6.05 11.95 8.25 11.2 Q10.45 11.7 10.5 19.2 10.55 29.75 9.6 30.55 L1.8 29.95 1.35 26.7 Q0.4 20.05 0.0 11.6 L0.05 11.65 Q0.05 12.3 0.0 11.6 0.05 12.3 0.05 11.65" fill="#efc3c0" fill-rule="evenodd" stroke="none"/>
    <path d="M16.8 33.15 L16.6 39.05 16.15 42.05 Q14.95 43.65 12.9 43.7 L10.3 43.5 Q9.95 39.7 9.9 33.9 15.1 34.05 16.8 33.15" fill="#2a292c" fill-rule="evenodd" stroke="none"/>
    <path d="M10.3 43.5 Q6.15 42.95 3.9 40.45 L2.3 32.8 Q5.05 34.0 9.9 33.9 9.95 39.7 10.3 43.5" fill="#0d0d0e" fill-rule="evenodd" stroke="none"/>
    <path d="M2.3 32.8 L1.8 29.95 9.6 30.55 9.7 30.55 9.85 30.55 9.9 33.9 Q5.05 34.0 2.3 32.8" fill="#6e1e9f" fill-rule="evenodd" stroke="none"/>
    <path d="M16.9 29.2 L16.8 33.15 Q15.1 34.05 9.9 33.9 L9.85 30.55 Q14.4 30.65 16.9 29.2" fill="#cc41ff" fill-rule="evenodd" stroke="none"/>
    <path d="M8.25 11.2 Q13.05 9.25 16.35 5.3 17.1 15.2 16.95 26.7 L16.9 29.2 Q14.4 30.65 9.85 30.55 L9.7 30.55 9.6 30.55 Q10.55 29.75 10.5 19.2 10.45 11.7 8.25 11.2" fill="#fff1e0" fill-rule="evenodd" stroke="none"/>
    <path d="M16.35 5.3 L16.05 2.05 M0.05 11.55 L0.05 11.65 6.05 11.95 8.25 11.2 Q13.05 9.25 16.35 5.3 17.1 15.2 16.95 26.7 L16.9 29.2 16.8 33.15 16.6 39.05 16.15 42.05 Q14.95 43.65 12.9 43.7 L10.3 43.5 Q6.15 42.95 3.9 40.45 L2.3 32.8 1.8 29.95 1.35 26.7 Q0.4 20.05 0.0 11.6 L0.05 11.65 Q0.05 12.3 0.0 11.6 M9.6 30.55 L9.7 30.55 9.85 30.55 Q14.4 30.65 16.9 29.2 M9.6 30.55 L1.8 29.95 M2.3 32.8 Q5.05 34.0 9.9 33.9 15.1 34.05 16.8 33.15" fill="none" stroke="#000000" stroke-linecap="round" stroke-linejoin="round" stroke-width="1.0"/>
  </g>
</svg>
