<?xml version="1.0" encoding="UTF-8" standalone="no"?>
<svg xmlns:xlink="http://www.w3.org/1999/xlink" height="48.45px" width="17.55px" xmlns="http://www.w3.org/2000/svg">
  <g transform="matrix(1.0, 0.0, 0.0, 1.0, 3.7, 0.5)">
    <path d="M1.2 32.15 L1.5 31.9 1.75 31.6 1.8 31.55 1.75 31.65 1.75 31.6 1.75 31.65 1.5 31.95 1.2 32.15" fill="#efc3c0" fill-rule="evenodd" stroke="none"/>
    <path d="M-0.9 39.65 L-0.8 40.85 -1.5 40.05 -0.9 39.65 M1.75 31.65 L1.9 31.45 2.05 31.5 Q4.45 24.6 2.4 18.7 -0.05 8.25 0.5 4.75 1.05 1.2 1.9 1.1 L5.65 0.85 6.4 5.75 Q5.1 16.65 6.9 27.4 L7.25 33.0 3.65 33.0 3.3 33.4 3.75 32.8 3.6 33.0 3.15 33.5 2.65 34.05 1.75 31.65" fill="#0d0d0e" fill-rule="evenodd" stroke="none"/>
    <path d="M12.25 0.0 Q13.7 3.55 13.25 10.25 12.8 16.9 11.85 23.75 L10.35 32.45 9.45 34.8 8.3 36.35 8.25 36.4 8.2 36.5 7.85 36.95 7.6 37.25 Q7.5 37.55 7.55 38.0 L7.55 38.05 7.55 38.15 Q7.95 45.1 5.2 39.75 2.4 34.35 2.65 34.05 L3.15 33.5 3.6 33.0 3.75 32.8 3.3 33.4 3.65 33.0 7.25 33.0 6.9 27.4 Q5.1 16.65 6.4 5.75 L5.65 0.85 Q8.5 -1.3 12.25 0.0" fill="#2a292c" fill-rule="evenodd" stroke="none"/>
    <path d="M0.35 38.3 L0.0 38.65 0.2 38.25 0.35 38.3" fill="#6e1e9f" fill-rule="evenodd" stroke="none"/>
    <path d="M2.7 38.65 Q3.7 39.1 4.45 40.2 5.0 41.0 4.9 41.85 3.75 41.95 3.05 40.55 L2.35 39.1 2.45 38.95 Q2.5 38.7 2.7 38.65" fill="#9f65bb" fill-rule="evenodd" stroke="none"/>
    <path d="M7.55 38.15 Q7.65 39.35 8.45 41.45 9.55 44.45 8.9 46.9 8.55 47.35 8.05 47.45 L3.7 43.6 Q1.6 41.55 1.15 40.15 L0.65 38.5 0.65 38.4 0.9 37.7 0.35 38.3 0.2 38.25 0.0 38.65 -0.9 39.65 Q-0.75 37.85 1.1 35.55 L2.65 34.05 Q2.4 34.35 5.2 39.75 7.95 45.1 7.55 38.15 M2.7 38.65 Q2.5 38.7 2.45 38.95 L2.35 39.1 3.05 40.55 Q3.75 41.95 4.9 41.85 5.0 41.0 4.45 40.2 3.7 39.1 2.7 38.65" fill="#63307b" fill-rule="evenodd" stroke="none"/>
    <path d="M8.05 47.45 Q7.05 47.55 5.5 46.4 L5.4 46.35 0.2 41.9 Q0.0 40.5 0.65 38.5 L1.15 40.15 Q1.6 41.55 3.7 43.6 L8.05 47.45 M-1.5 40.05 L-3.1 37.9 Q-3.6 36.7 -1.6 34.75 L1.2 32.15 1.5 31.95 1.75 31.65 2.65 34.05 1.1 35.55 Q-0.75 37.85 -0.9 39.65 L-1.5 40.05" fill="#371a43" fill-rule="evenodd" stroke="none"/>
    <path d="M12.25 0.0 Q13.7 3.55 13.25 10.25 12.8 16.9 11.85 23.75 L10.35 32.45 9.45 34.8 8.3 36.35 8.25 36.4 8.2 36.5 7.85 36.95 7.6 37.25 Q7.5 37.55 7.55 38.0 L7.55 38.05 7.55 38.15 Q7.65 39.35 8.45 41.45 9.55 44.45 8.9 46.9 8.55 47.35 8.05 47.45 7.05 47.55 5.5 46.4 L5.4 46.35 0.2 41.9 Q0.0 40.5 0.65 38.5 L0.65 38.4 0.9 37.7 0.35 38.3 0.0 38.65 -0.9 39.65 -1.5 40.05 -3.1 37.9 Q-3.6 36.7 -1.6 34.75 L1.2 32.15 1.5 31.9 1.75 31.6 1.8 31.55 M1.75 31.65 L1.9 31.45 M2.05 31.5 Q4.45 24.6 2.4 18.7 -0.05 8.25 0.5 4.75 M2.65 34.05 Q2.4 34.35 5.2 39.75 7.95 45.1 7.55 38.15 M1.75 31.65 L1.75 31.6 M1.75 31.65 L2.65 34.05 M1.5 31.95 L1.2 32.15" fill="none" stroke="#000000" stroke-linecap="round" stroke-linejoin="round" stroke-width="1.0"/>
  </g>
</svg>
