<?xml version="1.0" encoding="UTF-8" standalone="no"?>
<svg xmlns:xlink="http://www.w3.org/1999/xlink" height="82.15px" width="37.5px" xmlns="http://www.w3.org/2000/svg">
  <g transform="matrix(1.0, 0.0, 0.0, 1.0, -0.2, 1.65)">
    <path d="M29.3 20.4 Q32.0 22.15 34.05 25.3 35.85 29.25 34.75 32.75 30.85 32.6 25.6 29.45 24.45 32.05 20.3 33.0 14.15 34.0 11.4 32.1 L7.95 26.95 Q11.95 22.65 16.1 21.1 18.8 21.45 21.05 22.4 22.25 23.0 23.35 23.9 L24.85 25.3 25.85 23.35 Q27.05 21.2 29.3 20.4 M36.35 67.15 L37.2 71.45 Q35.85 73.65 33.2 75.3 L31.95 76.15 Q29.55 78.0 25.95 79.15 L23.85 80.0 21.05 79.55 Q15.05 78.55 9.5 76.5 3.7 73.15 2.8 67.3 L3.05 65.5 7.65 66.5 21.05 68.35 31.95 67.95 33.2 67.75 36.35 67.15" fill="#2d69d0" fill-rule="evenodd" stroke="none"/>
    <path d="M3.05 65.5 Q4.55 59.75 7.85 54.8 11.1 49.8 11.4 46.7 11.6 43.55 7.4 33.9 L6.75 32.45 Q8.9 34.8 11.65 36.05 14.45 45.2 13.3 50.7 12.15 53.45 9.25 58.35 6.6 63.2 7.65 66.5 L3.05 65.5 M5.45 29.85 L2.3 23.3 Q0.85 19.65 1.55 18.25 L2.15 17.2 Q3.2 23.1 7.95 26.95 L5.45 29.85 M8.8 8.9 L8.6 0.25 Q9.85 -1.5 14.05 -1.1 17.6 -1.05 18.4 1.5 18.1 7.95 19.85 13.1 17.35 15.25 8.8 8.9 M23.35 23.9 L22.45 20.1 25.85 23.35 24.85 25.3 23.35 23.9 M26.4 53.9 Q25.75 59.1 26.7 60.05 25.5 59.45 25.15 58.5 24.9 57.55 25.1 56.75 25.3 55.5 26.4 53.9" fill="#efc3c0" fill-rule="evenodd" stroke="none"/>
    <path d="M34.75 32.75 L34.65 32.95 33.0 36.75 Q28.7 35.6 25.6 31.0 24.0 34.5 21.05 36.25 L17.85 37.4 Q14.45 37.3 11.65 36.05 8.9 34.8 6.75 32.45 L5.45 29.85 7.95 26.95 11.4 32.1 Q14.15 34.0 20.3 33.0 24.45 32.05 25.6 29.45 30.85 32.6 34.75 32.75" fill="#053091" fill-rule="evenodd" stroke="none"/>
    <path d="M19.85 13.1 L22.95 15.1 28.2 19.9 29.3 20.4 Q27.05 21.2 25.85 23.35 L22.45 20.1 23.35 23.9 Q22.25 23.0 21.05 22.4 18.8 21.45 16.1 21.1 11.95 22.65 7.95 26.95 3.2 23.1 2.15 17.2 L3.95 14.95 Q6.75 12.7 8.6 12.0 L8.8 8.9 Q17.35 15.25 19.85 13.1 M33.0 36.75 L31.9 40.9 Q31.2 43.45 31.15 46.2 31.1 48.9 32.0 51.55 L34.0 57.0 Q35.1 59.85 36.35 67.15 L33.2 67.75 31.95 67.95 21.05 68.35 7.65 66.5 Q6.6 63.2 9.25 58.35 12.15 53.45 13.3 50.7 14.45 45.2 11.65 36.05 14.45 37.3 17.85 37.4 L21.05 36.25 Q24.0 34.5 25.6 31.0 28.7 35.6 33.0 36.75 M26.4 53.9 Q25.3 55.5 25.1 56.75 24.9 57.55 25.15 58.5 25.5 59.45 26.7 60.05 25.75 59.1 26.4 53.9" fill="#fff1e0" fill-rule="evenodd" stroke="none"/>
    <path d="M19.85 13.1 L22.95 15.1 28.2 19.9 29.3 20.4 Q32.0 22.15 34.05 25.3 35.85 29.25 34.75 32.75 L34.65 32.95 33.0 36.75 31.9 40.9 Q31.2 43.45 31.15 46.2 31.1 48.9 32.0 51.55 L34.0 57.0 Q35.1 59.85 36.35 67.15 L37.2 71.45 M25.95 79.15 L23.85 80.0 21.05 79.55 Q15.05 78.55 9.5 76.5 3.7 73.15 2.8 67.3 L3.05 65.5 Q4.55 59.75 7.85 54.8 11.1 49.8 11.4 46.7 11.6 43.55 7.4 33.9 L6.75 32.45 5.45 29.85 2.3 23.3 Q0.85 19.65 1.55 18.25 L2.15 17.2 3.95 14.95 Q6.75 12.7 8.6 12.0 L8.8 8.9 8.6 0.25 Q9.85 -1.5 14.05 -1.1 17.6 -1.05 18.4 1.5 18.1 7.95 19.85 13.1 M7.95 26.95 Q11.95 22.65 16.1 21.1 18.8 21.45 21.05 22.4 22.25 23.0 23.35 23.9 L24.85 25.3 25.85 23.35 Q27.05 21.2 29.3 20.4 M11.65 36.05 Q14.45 37.3 17.85 37.4 L21.05 36.25 Q24.0 34.5 25.6 31.0 28.7 35.6 33.0 36.75 M6.75 32.45 Q8.9 34.8 11.65 36.05 M7.65 66.5 L21.05 68.35 31.95 67.95 33.2 67.75 36.35 67.15 M5.45 29.85 L7.95 26.95 M3.05 65.5 L7.65 66.5" fill="none" stroke="#000000" stroke-linecap="round" stroke-linejoin="round" stroke-width="1.0"/>
    <path d="M33.5 23.35 L34.6 25.0 Q36.45 29.3 35.3 33.1 28.95 35.5 25.8 29.5 24.1 34.45 18.15 34.85 12.15 35.2 11.0 29.45 L11.65 29.0 11.85 29.05 Q22.9 30.8 32.2 24.75 33.25 24.05 33.5 23.35 M32.9 47.15 Q33.15 51.85 34.45 56.55 36.45 63.85 36.6 68.4 L8.45 67.2 Q9.5 62.15 10.05 56.95 12.35 56.7 12.8 55.9 8.85 54.5 8.7 53.55 L9.9 50.5 Q10.4 48.35 11.55 47.0 L14.1 43.85 Q19.55 38.05 25.5 36.4 28.25 38.1 29.55 41.15 30.85 44.2 32.9 47.15 M17.85 50.5 Q16.45 49.8 15.55 48.75 16.6 50.8 18.3 51.95 22.3 54.7 30.3 56.9 L17.85 50.5" fill="#35325f" fill-rule="evenodd" stroke="none"/>
    <path d="M8.45 67.2 L1.95 66.9 Q1.75 64.4 3.35 60.7 L5.65 54.85 Q5.15 53.65 5.4 52.25 8.55 44.3 6.7 36.85 L0.85 21.25 Q-0.1 17.15 5.1 13.05 L11.4 18.2 19.1 21.15 21.05 21.85 24.5 23.15 22.6 13.6 29.65 19.65 Q31.3 20.75 32.75 22.45 L33.5 23.35 Q33.25 24.05 32.2 24.75 22.9 30.8 11.85 29.05 L11.65 29.0 11.0 29.45 Q12.15 35.2 18.15 34.85 24.1 34.45 25.8 29.5 28.95 35.5 35.3 33.1 L35.2 33.35 Q34.45 35.6 33.5 37.45 32.95 40.45 32.85 43.45 L32.85 44.15 32.85 46.55 32.95 47.25 32.9 47.15 Q30.85 44.2 29.55 41.15 28.25 38.1 25.5 36.4 19.55 38.05 14.1 43.85 L11.55 47.0 Q10.4 48.35 9.9 50.5 L8.7 53.55 Q8.85 54.5 12.8 55.9 12.35 56.7 10.05 56.95 9.5 62.15 8.45 67.2 M32.85 46.55 L32.9 47.15 32.85 46.55 M17.85 50.5 L30.3 56.9 Q22.3 54.7 18.3 51.95 16.6 50.8 15.55 48.75 16.45 49.8 17.85 50.5" fill="#1b1d3a" fill-rule="evenodd" stroke="none"/>
    <path d="M8.45 67.2 L1.95 66.9 Q1.75 64.4 3.35 60.7 L5.65 54.85 Q5.15 53.65 5.4 52.25 8.55 44.3 6.7 36.85 L0.85 21.25 Q-0.1 17.15 5.1 13.05 L11.4 18.2 19.1 21.15 21.05 21.85 24.5 23.15 22.6 13.6 29.65 19.65 Q31.3 20.75 32.75 22.45 L33.5 23.35 34.6 25.0 Q36.45 29.3 35.3 33.1 L35.2 33.35 Q34.45 35.6 33.5 37.45 32.95 40.45 32.85 43.45 L32.85 44.15 32.85 46.55 32.9 47.15 Q33.15 51.85 34.45 56.55 36.45 63.85 36.6 68.4 L8.45 67.2 Z" fill="none" stroke="#000000" stroke-linecap="round" stroke-linejoin="round" stroke-width="1.0"/>
  </g>
</svg>
