<?xml version="1.0" encoding="UTF-8" standalone="no"?>
<svg xmlns:xlink="http://www.w3.org/1999/xlink" height="45.85px" width="22.0px" xmlns="http://www.w3.org/2000/svg">
  <g transform="matrix(1.0, 0.0, 0.0, 1.0, 0.6, 0.3)">
    <path d="M20.9 13.1 L20.85 13.25 Q16.15 13.35 11.15 11.1 6.15 8.8 4.8 7.6 L2.75 4.15 3.25 0.2 Q5.7 -1.45 14.2 2.1 19.75 6.0 20.9 13.1" fill="#2d69d0" fill-rule="evenodd" stroke="none"/>
    <path d="M0.25 29.85 Q0.8 18.7 2.35 7.0 L2.75 4.15 4.8 7.6 Q2.95 18.9 2.05 30.55 L0.25 29.85" fill="#efc3c0" fill-rule="evenodd" stroke="none"/>
    <path d="M14.95 36.7 L12.5 42.9 Q9.55 45.9 5.2 44.7 2.7 44.0 1.35 42.6 1.5 38.35 1.8 34.2 8.8 37.15 14.95 36.7" fill="#2a292c" fill-rule="evenodd" stroke="none"/>
    <path d="M1.35 42.6 Q0.3 41.5 -0.1 40.0 L0.1 33.3 1.8 34.2 Q1.5 38.35 1.35 42.6" fill="#0d0d0e" fill-rule="evenodd" stroke="none"/>
    <path d="M0.1 33.3 L0.25 29.85 2.05 30.55 1.8 34.2 0.1 33.3" fill="#6e1e9f" fill-rule="evenodd" stroke="none"/>
    <path d="M16.05 33.35 L14.95 36.7 Q8.8 37.15 1.8 34.2 L2.05 30.55 Q10.95 33.9 16.05 33.35" fill="#cc41ff" fill-rule="evenodd" stroke="none"/>
    <path d="M20.85 13.25 Q18.95 24.3 16.05 33.35 10.95 33.9 2.05 30.55 2.95 18.9 4.8 7.6 6.15 8.8 11.15 11.1 16.15 13.35 20.85 13.25" fill="#fff1e0" fill-rule="evenodd" stroke="none"/>
    <path d="M20.9 13.1 L20.85 13.25 Q18.95 24.3 16.05 33.35 L14.95 36.7 12.5 42.9 Q9.55 45.9 5.2 44.7 2.7 44.0 1.35 42.6 0.3 41.5 -0.1 40.0 L0.1 33.3 0.25 29.85 Q0.8 18.7 2.35 7.0 L2.75 4.15 3.25 0.2 M20.85 13.25 Q16.15 13.35 11.15 11.1 6.15 8.8 4.8 7.6 L2.75 4.15 M2.05 30.55 Q10.95 33.9 16.05 33.35 M1.8 34.2 Q8.8 37.15 14.95 36.7 M1.8 34.2 L0.1 33.3 M2.05 30.55 L0.25 29.85" fill="none" stroke="#000000" stroke-linecap="round" stroke-linejoin="round" stroke-width="1.0"/>
  </g>
</svg>
