<?xml version="1.0" encoding="UTF-8" standalone="no"?>
<svg xmlns:xlink="http://www.w3.org/1999/xlink" height="49.65px" width="16.6px" xmlns="http://www.w3.org/2000/svg">
  <g transform="matrix(1.0, 0.0, 0.0, 1.0, -4.85, -3.5)">
    <path d="M7.6 3.95 Q10.25 3.0 14.6 4.05 20.2 5.35 19.75 5.8 20.6 14.1 18.5 25.65 16.8 34.8 18.35 39.75 L18.35 39.85 19.35 42.1 Q19.15 48.25 15.8 47.0 12.4 45.75 10.45 43.55 L10.6 39.85 10.65 39.75 10.7 39.65 Q10.95 31.2 9.0 24.95 6.7 13.95 7.6 3.95" fill="#2a292c" fill-rule="evenodd" stroke="none"/>
    <path d="M7.6 3.95 Q6.7 13.95 9.0 24.95 10.95 31.2 10.7 39.65 L10.65 39.75 10.6 39.85 10.45 43.55 9.15 39.2 Q9.8 34.75 8.3 29.0 6.4 21.5 5.6 15.35 4.85 9.2 6.2 4.7 6.85 4.25 7.6 3.95" fill="#0d0d0e" fill-rule="evenodd" stroke="none"/>
    <path d="M11.1 51.05 L11.05 50.65 Q12.55 51.75 14.25 52.3 L11.1 51.05" fill="#cc41ff" fill-rule="evenodd" stroke="none"/>
    <path d="M10.45 43.55 Q12.4 45.75 15.8 47.0 19.15 48.25 19.35 42.1 21.8 47.55 20.55 50.75 L19.3 51.95 18.9 51.95 Q14.15 52.25 11.5 49.15 10.85 47.85 10.7 46.45 L10.45 43.55 M18.0 47.6 Q16.65 48.0 17.1 49.25 17.4 50.0 18.2 49.6 21.15 47.95 18.0 47.6" fill="#63307b" fill-rule="evenodd" stroke="none"/>
    <path d="M9.15 39.2 L10.45 43.55 10.7 46.45 Q10.85 47.85 11.5 49.15 14.15 52.25 18.9 51.95 L19.3 51.95 Q18.25 52.6 16.75 52.65 L16.65 52.65 16.05 52.6 14.25 52.3 Q12.55 51.75 11.05 50.65 L11.1 51.05 Q9.55 50.15 9.5 46.85 9.3 48.7 8.85 49.2 7.7 48.7 7.55 46.7 L7.95 43.1 Q8.1 41.4 8.55 40.6 L9.0 39.65 9.05 39.65 9.15 39.2" fill="#371a43" fill-rule="evenodd" stroke="none"/>
    <path d="M18.0 47.6 Q21.15 47.95 18.2 49.6 17.4 50.0 17.1 49.25 16.65 48.0 18.0 47.6" fill="#9f65bb" fill-rule="evenodd" stroke="none"/>
    <path d="M10.45 43.55 Q12.4 45.75 15.8 47.0 19.15 48.25 19.35 42.1 L18.35 39.85 18.35 39.75 Q16.8 34.8 18.5 25.65 20.6 14.1 19.75 5.8 M6.2 4.7 Q4.85 9.2 5.6 15.35 6.4 21.5 8.3 29.0 9.8 34.75 9.15 39.2 L10.45 43.55 M19.3 51.95 L20.55 50.75 Q21.8 47.55 19.35 42.1 M9.0 39.65 L8.55 40.6 Q8.1 41.4 7.95 43.1 L7.55 46.7 Q7.7 48.7 8.85 49.2 9.3 48.7 9.5 46.85 9.55 50.15 11.1 51.05 L14.25 52.3 16.05 52.6 16.65 52.65 16.75 52.65 Q18.25 52.6 19.3 51.95 M9.15 39.2 L9.05 39.65" fill="none" stroke="#000000" stroke-linecap="round" stroke-linejoin="round" stroke-width="1.0"/>
  </g>
</svg>
