<?xml version="1.0" encoding="UTF-8" standalone="no"?>
<svg xmlns:xlink="http://www.w3.org/1999/xlink" height="37.15px" width="65.4px" xmlns="http://www.w3.org/2000/svg">
  <g transform="matrix(1.0, 0.0, 0.0, 1.0, 17.85, 5.85)">
    <path d="M6.05 0.55 Q22.3 2.8 35.35 0.85 L36.4 3.6 Q20.2 5.8 5.4 2.6 L6.05 0.55" fill="#a343ff" fill-rule="evenodd" stroke="none"/>
    <path d="M0.3 2.95 L1.7 -0.1 6.05 0.55 5.4 2.6 Q20.2 5.8 36.4 3.6 L36.6 4.1 Q34.4 5.3 32.0 6.05 L31.65 6.15 Q24.95 8.15 16.45 6.8 11.25 5.95 5.45 3.9 L0.3 2.95" fill="#7731bb" fill-rule="evenodd" stroke="none"/>
    <path d="M32.95 11.45 Q36.25 20.8 40.3 25.1 L38.85 26.0 38.5 25.45 37.5 23.75 37.25 23.3 Q34.85 18.7 32.95 11.45 M27.9 29.05 L24.85 29.35 24.8 28.15 24.7 27.1 24.6 25.35 23.6 11.55 23.75 12.35 Q25.8 25.75 27.9 29.05 M11.7 29.3 L7.85 28.85 8.4 27.3 8.95 25.35 9.05 25.0 Q10.5 19.4 11.55 11.8 L11.55 11.85 11.6 12.15 Q12.6 23.8 11.7 29.3 M-5.9 25.05 L-8.1 23.7 -7.55 23.25 -6.1 21.95 -5.55 21.45 Q-2.05 18.05 1.4 13.4 -2.5 21.65 -5.9 25.05" fill="#cc41ff" fill-rule="evenodd" stroke="none"/>
    <path d="M46.05 20.4 L42.2 22.8 40.7 21.8 42.1 20.75 40.65 21.75 Q36.3 18.45 32.7 10.9 L32.95 11.45 Q34.85 18.7 37.25 23.3 L35.45 23.75 28.95 24.9 Q25.85 19.7 23.75 12.35 L23.6 11.55 23.5 9.65 23.6 11.55 24.6 25.35 Q19.5 25.7 14.35 25.45 L14.5 26.1 15.0 26.2 Q20.1 27.25 24.7 27.1 L24.8 28.15 14.9 28.25 11.6 12.15 11.55 11.85 11.55 11.8 11.6 11.65 11.8 9.95 11.6 11.65 11.55 11.8 Q10.5 19.4 9.05 25.0 L3.2 24.1 -1.7 22.9 3.3 10.65 2.3 12.1 1.4 13.4 Q-2.05 18.05 -5.55 21.45 -7.75 20.45 -8.8 19.45 -8.5 20.35 -7.6 21.0 L-6.1 21.95 -7.55 23.25 -10.5 19.2 Q-5.95 12.3 1.35 6.75 L0.7 7.3 Q1.6 7.8 2.8 7.95 19.45 10.1 36.1 8.8 L38.2 8.5 Q40.75 14.35 46.05 20.4 M36.6 4.1 L37.0 5.35 32.0 6.05 Q34.4 5.3 36.6 4.1 M32.35 10.05 L32.7 10.9 32.35 10.05 M4.35 8.95 L3.55 10.3 3.3 10.65 3.55 10.3 4.35 8.95 M8.95 25.35 L8.4 27.3 -2.6 25.1 -2.1 23.8 Q1.6 25.1 5.95 25.2 L8.95 25.35 M38.5 25.45 L30.35 27.05 29.7 26.1 29.95 26.45 Q33.9 25.65 37.5 23.75 L38.5 25.45" fill="#35325f" fill-rule="evenodd" stroke="none"/>
    <path d="M46.05 20.4 L47.05 21.45 Q44.9 24.2 41.45 26.2 L40.3 25.1 Q36.25 20.8 32.95 11.45 L32.7 10.9 Q36.3 18.45 40.65 21.75 L42.1 20.75 40.7 21.8 42.2 22.8 46.05 20.4 M38.85 26.0 L39.7 27.1 Q35.2 29.15 29.05 30.1 28.4 30.0 27.9 29.05 25.8 25.75 23.75 12.35 25.85 19.7 28.95 24.9 L35.45 23.75 37.25 23.3 37.5 23.75 Q33.9 25.65 29.95 26.45 L29.7 26.1 30.35 27.05 38.5 25.45 38.85 26.0 M24.85 29.35 L24.95 30.6 Q20.6 30.9 15.65 30.8 L11.35 30.6 11.7 29.3 Q12.6 23.8 11.6 12.15 L14.9 28.25 24.8 28.15 24.85 29.35 M7.85 28.85 L7.45 30.15 Q-1.0 29.0 -6.95 25.9 L-5.9 25.05 Q-2.5 21.65 1.4 13.4 L2.3 12.1 3.3 10.65 -1.7 22.9 3.2 24.1 9.05 25.0 8.95 25.35 5.95 25.2 Q1.6 25.1 -2.1 23.8 L-2.6 25.1 8.4 27.3 7.85 28.85 M-8.1 23.7 L-9.3 24.7 Q-14.35 21.5 -17.35 16.95 -11.35 14.2 -6.2 8.4 -1.05 2.55 0.3 2.95 L5.45 3.9 3.6 5.1 4.85 5.75 5.3 5.9 16.45 6.8 Q24.95 8.15 31.65 6.15 L32.0 6.05 37.0 5.35 Q37.45 6.9 38.2 8.5 L36.1 8.8 Q19.45 10.1 2.8 7.95 1.6 7.8 0.7 7.3 L1.35 6.75 Q-5.95 12.3 -10.5 19.2 L-7.55 23.25 -8.1 23.7 M-6.1 21.95 L-7.6 21.0 Q-8.5 20.35 -8.8 19.45 -7.75 20.45 -5.55 21.45 L-6.1 21.95 M24.7 27.1 Q20.1 27.25 15.0 26.2 L14.5 26.1 14.35 25.45 Q19.5 25.7 24.6 25.35 L24.7 27.1" fill="#1b1d3a" fill-rule="evenodd" stroke="none"/>
    <path d="M40.3 25.1 L41.45 26.2 Q44.9 24.2 47.05 21.45 L46.05 20.4 Q40.75 14.35 38.2 8.5 37.45 6.9 37.0 5.35 L36.6 4.1 36.4 3.6 35.35 0.85 Q22.3 2.8 6.05 0.55 L1.7 -0.1 0.3 2.95 Q-1.05 2.55 -6.2 8.4 -11.35 14.2 -17.35 16.95 -14.35 21.5 -9.3 24.7 L-8.1 23.7 -5.9 25.05 Q-2.5 21.65 1.4 13.4 L2.3 12.1 3.3 10.65 3.55 10.3 4.35 8.95 M32.7 10.9 L32.95 11.45 Q36.25 20.8 40.3 25.1 L38.85 26.0 39.7 27.1 Q35.2 29.15 29.05 30.1 28.4 30.0 27.9 29.05 L24.85 29.35 24.95 30.6 Q20.6 30.9 15.65 30.8 L11.35 30.6 11.7 29.3 7.85 28.85 7.45 30.15 Q-1.0 29.0 -6.95 25.9 L-5.9 25.05 M32.0 6.05 Q34.4 5.3 36.6 4.1 M32.7 10.9 L32.35 10.05 M-7.55 23.25 L-6.1 21.95 -5.55 21.45 Q-2.05 18.05 1.4 13.4 M23.6 11.55 L23.75 12.35 Q25.8 25.75 27.9 29.05 M37.25 23.3 Q34.85 18.7 32.95 11.45 M23.6 11.55 L23.5 9.65 M37.5 23.75 L37.25 23.3 M11.55 11.8 L11.55 11.85 11.6 12.15 Q12.6 23.8 11.7 29.3 M24.8 28.15 L24.7 27.1 24.6 25.35 23.6 11.55 M11.8 9.95 L11.6 11.65 11.55 11.8 Q10.5 19.4 9.05 25.0 L8.95 25.35 8.4 27.3 7.85 28.85 M16.45 6.8 Q11.25 5.95 5.45 3.9 L0.3 2.95 M38.85 26.0 L38.5 25.45 37.5 23.75 M24.85 29.35 L24.8 28.15 M31.65 6.15 Q24.95 8.15 16.45 6.8 M-7.55 23.25 L-8.1 23.7" fill="none" stroke="#000000" stroke-linecap="round" stroke-linejoin="round" stroke-width="1.0"/>
    <path d="M8.6 -0.65 Q8.3 -0.65 8.45 -0.55 9.45 0.4 11.2 0.55 L31.65 1.55 Q31.45 1.0 30.7 1.05 26.4 1.35 22.1 1.0 L8.6 -0.65 M8.5 -2.1 Q23.6 -0.3 34.7 -2.7 36.8 2.25 39.55 6.25 35.45 8.6 29.0 7.7 L28.65 7.2 31.6 7.05 Q34.8 6.45 37.6 5.5 L37.35 5.2 37.05 5.15 33.15 6.1 28.4 6.85 24.5 1.5 20.5 7.15 6.2 3.7 8.5 -2.1" fill="#35325f" fill-rule="evenodd" stroke="none"/>
    <path d="M8.6 -0.65 L22.1 1.0 Q26.4 1.35 30.7 1.05 31.45 1.0 31.65 1.55 L11.2 0.55 Q9.45 0.4 8.45 -0.55 8.3 -0.65 8.6 -0.65 M28.65 7.2 L28.4 6.85 33.15 6.1 37.05 5.15 37.35 5.2 37.6 5.5 Q34.8 6.45 31.6 7.05 L28.65 7.2 M20.5 7.15 L20.1 7.75 Q5.8 7.8 -3.0 2.7 -0.1 0.8 3.15 -5.35 5.4 -2.45 8.5 -2.1 L6.2 3.7 20.5 7.15" fill="#1b1d3a" fill-rule="evenodd" stroke="none"/>
    <path d="M34.7 -2.7 Q36.8 2.25 39.55 6.25 35.45 8.6 29.0 7.7 L28.65 7.2 28.4 6.85 24.5 1.5 20.5 7.15 20.1 7.75 Q5.8 7.8 -3.0 2.7 -0.1 0.8 3.15 -5.35" fill="none" stroke="#000000" stroke-linecap="round" stroke-linejoin="round" stroke-width="1.0"/>
  </g>
</svg>
