<?xml version="1.0" encoding="UTF-8" standalone="no"?>
<svg xmlns:xlink="http://www.w3.org/1999/xlink" height="35.7px" width="21.7px" xmlns="http://www.w3.org/2000/svg">
  <g transform="matrix(1.0, 0.0, 0.0, 1.0, 1.2, 0.5)">
    <path d="M11.45 1.75 Q12.8 0.7 14.45 0.0 20.0 8.45 20.1 12.45 L14.35 10.05 16.05 11.35 Q18.55 13.3 19.85 13.65 16.85 15.35 15.2 17.2 13.5 19.15 12.35 21.5 9.8 26.75 8.9 29.6 L7.3 33.55 Q5.45 35.1 2.7 34.55 1.5 34.25 0.85 33.45 L11.45 1.75" fill="#35325f" fill-rule="evenodd" stroke="none"/>
    <path d="M11.45 1.75 L0.85 33.45 0.8 33.4 Q-0.2 32.1 -0.7 30.15 -0.35 28.05 0.95 24.4 L3.85 15.45 Q5.4 10.1 4.55 8.75 L8.7 4.4 Q9.95 2.85 11.45 1.75 M19.85 13.65 Q18.55 13.3 16.05 11.35 L14.35 10.05 20.1 12.45 20.0 13.55 19.95 13.6 19.85 13.65" fill="#1b1d3a" fill-rule="evenodd" stroke="none"/>
    <path d="M14.45 0.0 Q12.8 0.7 11.45 1.75 9.95 2.85 8.7 4.4 L4.55 8.75 Q5.4 10.1 3.85 15.45 L0.95 24.4 Q-0.35 28.05 -0.7 30.15 -0.2 32.1 0.8 33.4 L0.85 33.45 Q1.5 34.25 2.7 34.55 5.45 35.1 7.3 33.55 L8.9 29.6 Q9.8 26.75 12.35 21.5 13.5 19.15 15.2 17.2 16.85 15.35 19.85 13.65 M19.95 13.6 L20.0 13.55" fill="none" stroke="#000000" stroke-linecap="round" stroke-linejoin="round" stroke-width="1.0"/>
    <path d="M0.85 33.45 L0.65 34.0 0.8 33.4" fill="none" stroke="#000000" stroke-linecap="round" stroke-linejoin="round" stroke-width="0.05"/>
  </g>
</svg>
