<?xml version="1.0" encoding="UTF-8" standalone="no"?>
<svg xmlns:xlink="http://www.w3.org/1999/xlink" height="43.1px" width="24.95px" xmlns="http://www.w3.org/2000/svg">
  <g transform="matrix(1.0, 0.0, 0.0, 1.0, 10.85, 1.25)">
    <path d="M8.15 35.05 L8.05 36.1 7.75 38.15 8.85 39.1 Q10.15 41.35 8.4 41.35 6.65 41.25 5.8 40.75 4.35 42.05 1.6 39.85 1.6 40.8 0.45 40.8 -1.45 40.0 -2.25 38.5 -3.05 36.9 -2.75 35.05 L-2.6 35.85 -1.85 37.55 Q-1.1 38.0 -0.35 36.35 L0.1 35.15 0.3 36.5 3.35 36.55 3.45 36.6 3.5 36.6 Q3.95 36.8 4.15 38.05 5.4 39.2 6.65 36.9 6.65 35.8 7.25 34.35 L8.15 35.05 M1.6 39.85 L0.55 38.7 Q-0.1 37.95 -0.05 36.4 L0.1 35.15 -0.05 36.4 Q-0.1 37.95 0.55 38.7 L1.6 39.85 M5.8 40.75 Q4.65 40.4 3.45 38.1 3.1 37.35 3.35 36.55 3.1 37.35 3.45 38.1 4.65 40.4 5.8 40.75 M8.65 33.1 L9.25 34.0 Q9.85 37.9 8.75 37.4 8.5 34.2 8.2 35.0 L8.65 33.1" fill="#efc3c0" fill-rule="evenodd" stroke="none"/>
    <path d="M8.9 14.6 L10.0 15.0 11.05 18.45 10.85 19.0 Q10.55 18.7 9.95 18.6 L9.75 18.85 Q8.75 20.95 7.05 22.25 6.9 21.9 6.6 22.0 4.6 22.5 3.5 24.65 3.05 24.25 2.65 24.35 4.4 20.5 4.95 16.5 L5.05 15.35 8.9 14.6 M9.05 23.85 L8.4 26.1 Q7.85 28.55 9.35 30.2 L9.9 30.9 9.3 31.6 Q8.95 31.0 8.1 30.8 L7.35 33.1 Q5.15 31.8 1.75 30.8 L3.6 29.85 Q6.7 27.15 9.05 23.85 M7.05 34.35 L4.5 34.45 5.4 34.45 0.65 32.35 Q1.4 31.75 7.35 33.1 L7.05 34.35 M-0.55 33.85 L-0.85 33.75 -0.75 33.7 -0.55 33.85" fill="#2c2c2c" fill-rule="evenodd" stroke="none"/>
    <path d="M5.05 15.35 L4.95 16.5 Q4.4 20.5 2.65 24.35 L2.05 25.55 -0.05 29.15 -0.25 29.4 Q0.6 28.0 0.2 26.15 2.45 22.25 3.55 15.65 L5.05 15.35" fill="#040404" fill-rule="evenodd" stroke="none"/>
    <path d="M2.65 24.35 Q3.05 24.25 3.5 24.65 4.6 22.5 6.6 22.0 6.9 21.9 7.05 22.25 8.75 20.95 9.75 18.85 L9.95 18.6 Q10.55 18.7 10.85 19.0 L9.1 23.7 9.05 23.85 Q6.7 27.15 3.6 29.85 L1.75 30.8 Q5.15 31.8 7.35 33.1 L8.1 30.8 Q8.95 31.0 9.3 31.6 L9.15 31.8 8.7 32.95 8.7 33.0 8.65 33.1 8.2 35.0 8.15 35.05 7.25 34.35 7.05 34.35 7.35 33.1 Q1.4 31.75 0.65 32.35 L5.4 34.45 4.5 34.45 -0.55 33.85 -0.75 33.7 -0.85 33.75 -1.3 33.55 -1.95 33.25 -2.1 33.2 -1.25 31.45 -0.25 29.4 -0.05 29.15 2.05 25.55 2.65 24.35" fill="#000000" fill-rule="evenodd" stroke="none"/>
    <path d="M9.3 31.6 L9.9 30.9 Q10.85 32.45 11.0 35.05 11.55 38.4 8.5 37.35 L8.15 35.05 8.2 35.0 Q8.5 34.2 8.75 37.4 9.85 37.9 9.25 34.0 L8.65 33.1 8.7 33.0 8.7 32.95 9.15 31.8 9.3 31.6 M-2.75 35.05 L-2.1 33.2 -1.95 33.25 -1.3 33.55 -0.85 33.75 -0.55 33.85 4.5 34.45 7.05 34.35 7.25 34.35 Q6.65 35.8 6.65 36.9 5.4 39.2 4.15 38.05 3.95 36.8 3.5 36.6 L3.45 36.6 3.35 36.55 3.6 35.35 3.35 36.55 0.3 36.5 0.1 35.15 -0.35 36.35 Q-1.1 38.0 -1.85 37.55 L-2.6 35.85 -2.75 35.05" fill="#fff1e0" fill-rule="evenodd" stroke="none"/>
    <path d="M10.0 15.0 L8.9 14.6 M10.85 19.0 L11.05 18.45 M3.55 15.65 Q2.45 22.25 0.2 26.15 0.6 28.0 -0.25 29.4 L-1.25 31.45 -2.1 33.2 -2.75 35.05 Q-3.05 36.9 -2.25 38.5 -1.45 40.0 0.45 40.8 1.6 40.8 1.6 39.85 4.35 42.05 5.8 40.75 6.65 41.25 8.4 41.35 10.15 41.35 8.85 39.1 L7.75 38.15 8.05 36.1 8.15 35.05 7.25 34.35 7.05 34.35 4.5 34.45 -0.55 33.85 -0.85 33.75 M9.05 23.85 L9.1 23.7 10.85 19.0 M9.9 30.9 L9.35 30.2 Q7.85 28.55 8.4 26.1 L9.05 23.85 M9.3 31.6 L9.9 30.9 Q10.85 32.45 11.0 35.05 11.55 38.4 8.5 37.35 L8.15 35.05 8.2 35.0 8.65 33.1 8.7 33.0 8.7 32.95 9.15 31.8 M3.35 36.55 L3.6 35.35 M0.1 35.15 L-0.05 36.4 Q-0.1 37.95 0.55 38.7 L1.6 39.85 M3.35 36.55 Q3.1 37.35 3.45 38.1 4.65 40.4 5.8 40.75 M-1.3 33.55 L-1.95 33.25 -2.1 33.2" fill="none" stroke="#000000" stroke-linecap="round" stroke-linejoin="round" stroke-width="1.0"/>
    <path d="M11.95 14.35 L10.35 19.25 11.15 25.35 8.5 17.65 Q8.7 21.1 5.65 25.6 L4.7 22.85 2.7 24.05 Q4.05 22.9 4.6 20.05 3.8 23.5 -0.8 24.15 4.65 11.65 6.65 -1.1 10.75 -1.4 12.9 0.45 L11.95 14.35 M4.6 20.05 L7.65 19.3 5.3 19.45 4.8 19.4 Q6.9 18.1 7.05 16.15 6.3 17.3 5.6 17.85 4.9 18.35 3.85 19.4 L2.65 19.6 3.0 19.75 4.55 20.05 4.65 19.85 4.6 20.05" fill="#35325f" fill-rule="evenodd" stroke="none"/>
    <path d="M4.05 -0.75 L6.65 -1.1 Q4.65 11.65 -0.8 24.15 3.8 23.5 4.6 20.05 4.05 22.9 2.7 24.05 L4.7 22.85 5.65 25.6 Q8.7 21.1 8.5 17.65 L11.15 25.35 10.35 19.25 11.95 14.35 11.45 21.45 13.6 30.0 10.9 26.7 8.6 28.35 Q9.7 25.45 7.85 22.55 L6.9 27.15 Q5.05 29.7 1.75 30.8 5.1 27.85 4.7 25.65 4.45 24.35 1.75 26.95 -1.05 30.5 -3.25 30.85 -0.4 27.7 -2.45 25.85 L-4.25 27.3 Q-7.4 29.25 -10.35 27.4 -8.8 27.45 -3.95 24.25 -1.85 23.4 0.65 17.1 L4.05 -0.75" fill="#1b1d3a" fill-rule="evenodd" stroke="none"/>
    <path d="M4.6 20.05 L4.65 19.85 4.55 20.05 3.0 19.75 2.65 19.6 3.85 19.4 Q4.9 18.35 5.6 17.85 6.3 17.3 7.05 16.15 6.9 18.1 4.8 19.4 L5.3 19.45 7.65 19.3 4.6 20.05" fill="none" stroke="#000000" stroke-linecap="round" stroke-linejoin="round" stroke-width="0.05"/>
    <path d="M4.05 -0.75 L0.65 17.1 Q-1.85 23.4 -3.95 24.25 -8.8 27.45 -10.35 27.4 -7.4 29.25 -4.25 27.3 L-2.45 25.85 Q-0.4 27.7 -3.25 30.85 -1.05 30.5 1.75 26.95 4.45 24.35 4.7 25.65 5.1 27.85 1.75 30.8 5.05 29.7 6.9 27.15 L7.85 22.55 Q9.7 25.45 8.6 28.35 L10.9 26.7 13.6 30.0 11.45 21.45 11.95 14.35 12.9 0.45" fill="none" stroke="#000000" stroke-linecap="round" stroke-linejoin="round" stroke-width="1.0"/>
  </g>
</svg>
