<?xml version="1.0" encoding="UTF-8" standalone="no"?>
<svg xmlns:xlink="http://www.w3.org/1999/xlink" height="49.6px" width="46.0px" xmlns="http://www.w3.org/2000/svg">
  <g transform="matrix(1.0, 0.0, 0.0, 1.0, 24.4, 9.8)">
    <path d="M14.35 5.95 L15.35 4.65 Q16.1 3.75 17.05 3.3 L17.1 3.3 14.35 5.95 M10.5 8.6 Q3.6 8.05 -3.15 6.65 L-3.05 6.95 Q-3.4 6.15 -2.9 5.35 L-2.65 5.2 -1.45 6.55 -1.3 6.5 6.55 7.65 Q8.75 7.8 10.5 8.6 M14.15 12.2 L14.35 11.1 14.35 11.25 14.35 11.45 14.15 12.2 M9.7 11.2 L9.8 11.35 9.75 11.4 9.75 11.35 9.7 11.2 M11.85 13.35 L11.85 13.3 12.0 13.25 12.15 13.3 11.85 13.35" fill="#c63b3b" fill-rule="evenodd" stroke="none"/>
    <path d="M5.1 20.7 L4.25 20.9 5.1 20.7" fill="#77373e" fill-rule="evenodd" stroke="none"/>
    <path d="M17.9 5.25 Q18.0 7.7 16.1 9.05 15.15 9.75 14.1 10.05 L14.35 11.1 Q17.25 16.9 16.7 26.05 16.15 35.15 18.5 38.4 16.6 37.6 14.9 34.75 10.8 23.7 12.15 13.3 L13.0 12.9 13.25 12.8 14.0 12.4 11.45 12.25 10.8 11.05 10.05 10.0 10.45 9.7 10.55 9.65 10.95 9.5 12.55 8.9 12.75 8.95 13.5 9.3 Q15.15 8.2 16.5 6.85 L17.9 5.25 M-1.55 8.5 L9.95 10.1 9.8 10.3 9.7 10.55 9.7 10.6 9.7 11.05 8.75 11.25 Q5.1 11.9 1.25 10.25 L-1.55 8.5 M14.15 12.2 L14.0 12.4 14.15 12.2 14.35 11.45 14.35 11.25 14.35 11.1 14.15 12.2 M14.1 10.05 L14.05 9.95 14.0 9.8 13.5 9.3 14.0 9.8 14.05 9.95 14.1 10.05 M12.7 14.85 Q12.4 16.35 13.25 18.25 14.5 21.1 16.5 23.1 L14.9 19.75 Q13.65 17.3 12.7 14.85 M11.45 29.45 Q7.2 36.15 7.55 39.3 L6.95 37.85 Q7.1 31.95 9.45 26.0 L11.45 29.45" fill="#cc41ff" fill-rule="evenodd" stroke="none"/>
    <path d="M17.1 3.3 L17.3 3.4 17.6 3.6 17.9 5.25 16.5 6.85 Q15.15 8.2 13.5 9.3 L12.75 8.95 Q13.3 7.45 14.35 5.95 L17.1 3.3 M10.5 8.6 L11.4 9.1 11.55 9.2 10.95 9.5 10.55 9.65 10.45 9.7 10.05 10.0 10.8 11.05 11.45 12.25 14.0 12.4 13.25 12.8 13.0 12.9 12.15 13.3 12.0 13.25 11.85 13.3 11.85 13.35 11.55 13.35 11.5 13.35 Q11.05 13.3 10.75 13.05 11.05 13.3 11.5 13.35 L11.55 13.35 11.85 13.35 12.15 13.3 Q10.8 23.7 14.9 34.75 14.0 33.25 13.15 31.2 L12.1 28.4 11.45 29.45 9.45 26.0 Q7.1 31.95 6.95 37.85 5.7 34.1 7.6 28.4 9.9 21.5 10.5 15.5 L10.55 14.95 10.75 13.05 10.4 12.7 9.95 11.9 9.85 11.65 9.75 11.4 9.8 11.35 9.7 11.2 9.7 11.05 9.7 10.6 9.7 10.55 9.8 10.3 9.95 10.1 -1.55 8.5 -2.55 7.6 -2.7 7.45 -3.05 6.95 -3.15 6.65 Q3.6 8.05 10.5 8.6 M10.05 10.0 L9.95 10.1 10.05 10.0 M12.7 14.85 Q13.65 17.3 14.9 19.75 L16.5 23.1 Q14.5 21.1 13.25 18.25 12.4 16.35 12.7 14.85 M10.5 15.5 Q10.0 22.1 12.1 28.4 10.0 22.1 10.5 15.5" fill="#6e1e9f" fill-rule="evenodd" stroke="none"/>
    <path d="M14.35 5.95 L15.35 4.65 Q16.1 3.75 17.05 3.3 L17.1 3.3 17.3 3.4 17.6 3.6 17.9 5.25 Q18.0 7.7 16.1 9.05 15.15 9.75 14.1 10.05 L14.35 11.1 Q17.25 16.9 16.7 26.05 16.15 35.15 18.5 38.4 16.6 37.6 14.9 34.75 14.0 33.25 13.15 31.2 L12.1 28.4 Q10.0 22.1 10.5 15.5 L10.55 14.95 10.75 13.05 Q11.05 13.3 11.5 13.35 L11.55 13.35 11.85 13.35 12.15 13.3 13.0 12.9 13.25 12.8 14.0 12.4 14.15 12.2 14.35 11.45 14.35 11.25 14.35 11.1 M12.75 8.95 L13.5 9.3 14.0 9.8 14.05 9.95 14.1 10.05 M10.95 9.5 L11.55 9.2 11.4 9.1 10.5 8.6 Q8.75 7.8 6.55 7.65 L-1.3 6.5 -1.45 6.55 -2.65 5.2 -2.9 5.35 Q-3.4 6.15 -3.05 6.95 L-2.7 7.45 -2.55 7.6 -1.55 8.5 1.25 10.25 Q5.1 11.9 8.75 11.25 L9.7 11.05 9.7 10.6 9.7 10.55 9.8 10.3 9.95 10.1 10.05 10.0 10.45 9.7 10.55 9.65 10.95 9.5 12.55 8.9 12.75 8.95 Q13.3 7.45 14.35 5.95 M9.7 11.2 L9.75 11.35 9.75 11.4 9.85 11.65 9.95 11.9 10.4 12.7 10.75 13.05 M9.7 11.2 L9.7 11.05 M6.95 37.85 Q5.7 34.1 7.6 28.4 9.9 21.5 10.5 15.5 M11.45 29.45 L12.1 28.4 M6.95 37.85 L7.55 39.3 Q7.2 36.15 11.45 29.45" fill="none" stroke="#000000" stroke-linecap="round" stroke-linejoin="round" stroke-width="1.0"/>
    <path d="M18.5 38.4 L18.75 38.5 M14.15 12.2 L14.35 11.1 M9.75 11.4 L9.6 13.0" fill="none" stroke="#000000" stroke-linecap="round" stroke-linejoin="round" stroke-width="0.05"/>
    <path d="M8.85 -4.1 L7.1 -7.55 10.95 -4.65 13.05 -3.25 Q13.95 2.5 11.5 4.0 L11.8 6.25 Q14.5 5.4 16.8 -1.55 19.85 -0.5 21.1 -0.75 L18.5 3.4 Q16.5 7.3 11.85 9.25 L5.05 8.5 Q-6.85 4.3 -11.65 -0.15 L-10.7 -1.2 Q-8.25 0.8 -4.25 2.75 1.25 6.5 10.6 7.45 L11.85 9.25 11.8 6.25 11.85 9.25 Q11.15 5.8 8.0 3.85 9.15 2.35 11.35 3.05 L10.8 0.95 8.85 -4.1 M-6.65 -5.95 Q-4.05 -2.65 2.25 0.7 L3.85 1.7 5.3 2.7 7.65 4.45 8.15 4.9 Q-1.3 3.5 -8.9 -3.3 L-6.65 -5.95 M8.55 -0.5 Q9.6 -0.1 10.8 0.95 7.95 0.75 6.2 1.95 L5.6 1.35 Q6.5 0.45 8.55 -0.5 M10.55 -3.95 L10.45 -3.9 10.5 -2.6 Q10.65 -1.4 11.05 -0.65 L11.15 -2.05 10.55 -3.95 M11.5 4.0 L11.35 3.05 11.5 4.0" fill="#35325f" fill-rule="evenodd" stroke="none"/>
    <path d="M8.85 -4.1 L6.2 -5.45 5.9 -8.2 Q6.2 -6.8 7.1 -7.55 L8.85 -4.1 M5.05 8.5 Q-0.7 7.6 -8.5 5.6 -16.35 3.6 -23.9 -1.1 -21.0 -1.25 -19.15 -2.5 L-16.2 -4.4 Q-12.55 -2.75 -10.7 -1.2 L-11.65 -0.15 Q-6.85 4.3 5.05 8.5 M-12.15 -6.1 L-7.0 -8.2 -4.65 -9.3 -4.65 -6.65 -6.65 -5.95 Q-7.3 -7.1 -7.0 -8.2 -7.3 -7.1 -6.65 -5.95 L-8.9 -3.3 -12.15 -6.1 M3.85 1.7 Q5.85 -1.5 8.55 -0.5 6.5 0.45 5.6 1.35 L6.2 1.95 5.3 2.7 3.85 1.7 M10.55 -3.95 L11.15 -2.05 11.05 -0.65 Q10.65 -1.4 10.5 -2.6 L10.45 -3.9 10.55 -3.95 M11.85 9.25 L10.6 7.45 8.15 4.9 7.65 4.45 8.0 3.85 Q11.15 5.8 11.85 9.25" fill="#1b1931" fill-rule="evenodd" stroke="none"/>
    <path d="M13.05 -3.25 Q14.5 -2.45 16.8 -1.55 14.5 5.4 11.8 6.25 L11.5 4.0 Q13.95 2.5 13.05 -3.25 M10.6 7.45 Q1.25 6.5 -4.25 2.75 -8.25 0.8 -10.7 -1.2 L-8.9 -3.3 Q-1.3 3.5 8.15 4.9 L10.6 7.45 M10.8 0.95 L11.35 3.05 Q9.15 2.35 8.0 3.85 L6.2 1.95 Q7.95 0.75 10.8 0.95" fill="#cc41ff" fill-rule="evenodd" stroke="none"/>
    <path d="M-16.2 -4.4 L-12.15 -6.1 -8.9 -3.3 -10.7 -1.2 Q-12.55 -2.75 -16.2 -4.4 M7.65 4.45 L5.3 2.7 6.2 1.95 8.0 3.85 7.65 4.45" fill="#6e1e9f" fill-rule="evenodd" stroke="none"/>
    <path d="M7.1 -7.55 Q6.2 -6.8 5.9 -8.2 L6.2 -5.45 8.85 -4.1 7.1 -7.55 10.95 -4.65 13.05 -3.25 Q14.5 -2.45 16.8 -1.55 19.85 -0.5 21.1 -0.75 L18.5 3.4 Q16.5 7.3 11.85 9.25 L5.05 8.5 Q-0.7 7.6 -8.5 5.6 -16.35 3.6 -23.9 -1.1 -21.0 -1.25 -19.15 -2.5 L-16.2 -4.4 -12.15 -6.1 -7.0 -8.2 -4.65 -9.3 -4.65 -6.65 -6.65 -5.95 Q-4.05 -2.65 2.25 0.7 L3.85 1.7 Q5.85 -1.5 8.55 -0.5 9.6 -0.1 10.8 0.95 L8.85 -4.1 M13.05 -3.25 Q13.95 2.5 11.5 4.0 L11.8 6.25 Q14.5 5.4 16.8 -1.55 M11.8 6.25 L11.85 9.25 10.6 7.45 Q1.25 6.5 -4.25 2.75 -8.25 0.8 -10.7 -1.2 -12.55 -2.75 -16.2 -4.4 M11.35 3.05 L11.5 4.0 M10.8 0.95 L11.35 3.05 Q9.15 2.35 8.0 3.85 L7.65 4.45 5.3 2.7 6.2 1.95 Q7.95 0.75 10.8 0.95 M5.3 2.7 L3.85 1.7 M8.15 4.9 L7.65 4.45 M10.6 7.45 L8.15 4.9 Q-1.3 3.5 -8.9 -3.3 L-12.15 -6.1 M-6.65 -5.95 Q-7.3 -7.1 -7.0 -8.2" fill="none" stroke="#000000" stroke-linecap="round" stroke-linejoin="round" stroke-width="1.0"/>
  </g>
</svg>
