<?xml version="1.0" encoding="UTF-8" standalone="no"?>
<svg xmlns:xlink="http://www.w3.org/1999/xlink" height="72.75px" width="64.9px" xmlns="http://www.w3.org/2000/svg">
  <g transform="matrix(1.0, 0.0, 0.0, 1.0, 32.15, 68.6)">
    <path d="M31.75 -20.3 L30.05 -20.3 25.7 -32.6 22.95 -20.7 21.25 -33.55 15.65 -9.55 15.4 -27.7 8.7 -8.7 7.65 -23.0 6.15 -16.45 -0.3 -39.05 -3.1 -27.25 -5.1 -34.25 -10.95 -19.4 Q-9.3 -9.45 -6.2 -2.65 -12.55 -5.7 -19.75 -9.95 -30.55 -20.55 -31.6 -35.3 -32.55 -49.3 -21.0 -61.1 -9.45 -72.95 16.5 -64.8 32.45 -56.6 32.05 -37.25 32.6 -29.0 31.75 -20.3" fill="#efc3c0" fill-rule="evenodd" stroke="none"/>
    <path d="M14.1 -2.95 Q12.85 -3.2 12.0 -2.35 12.85 -3.2 14.1 -2.95 M-6.2 -2.65 Q-9.3 -9.45 -10.95 -19.4 L-5.1 -34.25 -3.1 -27.25 -0.3 -39.05 6.15 -16.45 7.65 -23.0 8.7 -8.7 15.4 -27.7 15.65 -9.55 21.25 -33.55 22.95 -20.7 25.7 -32.6 30.05 -20.3 31.75 -20.3 Q31.2 -15.1 30.15 -9.75 29.15 -4.4 24.5 -1.55 18.5 2.15 11.3 3.65 3.55 1.95 -6.2 -2.65" fill="#fff1e0" fill-rule="evenodd" stroke="none"/>
    <path d="M31.75 -20.3 Q32.6 -29.0 32.05 -37.25 32.45 -56.6 16.5 -64.8 -9.45 -72.95 -21.0 -61.1 -32.55 -49.3 -31.6 -35.3 -30.55 -20.55 -19.75 -9.95 -12.55 -5.7 -6.2 -2.65 3.55 1.95 11.3 3.65 18.5 2.15 24.5 -1.55 29.15 -4.4 30.15 -9.75 31.2 -15.1 31.75 -20.3" fill="none" stroke="#000000" stroke-linecap="round" stroke-linejoin="round" stroke-width="1.0"/>
    <path d="M31.75 -20.3 L32.05 -20.3" fill="none" stroke="#000000" stroke-linecap="round" stroke-linejoin="round" stroke-width="0.05"/>
    <path d="M12.0 -2.35 Q12.85 -3.2 14.1 -2.95" fill="none" stroke="#000000" stroke-linecap="round" stroke-linejoin="round" stroke-width="0.8"/>
    <path d="M5.2 -7.75 Q1.9 -6.55 -2.85 -6.3 -7.65 -6.05 -11.0 -7.05 -14.25 -7.95 -14.25 -9.5 -14.25 -11.05 -11.0 -12.3 -7.65 -13.45 -2.85 -13.7 1.9 -13.95 5.2 -13.0 8.55 -12.05 8.55 -10.5 8.55 -8.95 5.2 -7.75" fill="url(#gradient0)" fill-rule="evenodd" stroke="none"/>
    <path d="M20.7 -8.2 Q18.85 -9.4 18.85 -10.65 18.85 -11.95 20.7 -12.55 L25.15 -12.7 Q27.8 -12.25 29.65 -11.1 31.45 -9.9 31.45 -8.6 31.45 -7.35 29.65 -6.75 L25.15 -6.6 Q22.55 -7.0 20.7 -8.2" fill="url(#gradient1)" fill-rule="evenodd" stroke="none"/>
    <path d="M28.8 -10.05 L28.6 -9.55 28.1 -9.35 Q27.8 -9.35 27.6 -9.55 L27.4 -10.05 27.6 -10.55 Q27.8 -10.75 28.1 -10.75 L28.6 -10.55 28.8 -10.05" fill="#000000" fill-rule="evenodd" stroke="none"/>
  </g>
  <defs>
    <radialGradient cx="0" cy="0" gradientTransform="matrix(0.0141, -6.0E-4, 0.0, 0.0046, -2.85, -10.0)" gradientUnits="userSpaceOnUse" id="gradient0" r="819.2" spreadMethod="pad">
      <stop offset="0.22745098039215686" stop-color="#ff8e8e" stop-opacity="0.38039216"/>
      <stop offset="0.9725490196078431" stop-color="#ffb4b4" stop-opacity="0.0"/>
    </radialGradient>
    <radialGradient cx="0" cy="0" gradientTransform="matrix(-0.0078, -0.0013, 0.0, 0.0038, 25.15, -9.65)" gradientUnits="userSpaceOnUse" id="gradient1" r="819.2" spreadMethod="pad">
      <stop offset="0.22745098039215686" stop-color="#ff8e8e" stop-opacity="0.38039216"/>
      <stop offset="0.9725490196078431" stop-color="#ffb4b4" stop-opacity="0.0"/>
    </radialGradient>
  </defs>
</svg>
