<?xml version="1.0" encoding="UTF-8" standalone="no"?>
<svg xmlns:xlink="http://www.w3.org/1999/xlink" height="14.45px" width="25.05px" xmlns="http://www.w3.org/2000/svg">
  <g transform="matrix(1.0, 0.0, 0.0, 1.0, 1.6, 0.25)">
    <path d="M20.35 4.85 Q20.15 10.1 17.9 12.2 19.55 9.7 19.7 6.8 L18.65 6.1 Q18.6 4.65 17.85 3.9 L20.35 4.85 M6.0 11.25 Q4.65 10.2 3.85 8.75 3.1 5.8 5.05 3.7 L9.5 3.25 Q8.55 3.6 8.25 5.85 5.75 6.15 4.5 6.75 3.95 9.15 6.0 11.25" fill="#bfbfbf" fill-rule="evenodd" stroke="none"/>
    <path d="M17.9 12.2 L17.25 12.7 14.75 12.85 Q17.2 12.45 18.25 8.85 18.65 7.25 18.65 6.1 L19.7 6.8 Q19.55 9.7 17.9 12.2 M8.25 12.55 Q7.0 12.0 6.0 11.25 3.95 9.15 4.5 6.75 5.75 6.15 8.25 5.85 8.15 6.9 8.2 8.25 8.4 12.2 12.3 12.95 L8.25 12.55" fill="#ffffff" fill-rule="evenodd" stroke="none"/>
    <path d="M3.85 8.75 L4.0 9.4 Q1.15 5.4 -1.6 0.1 L3.85 0.7 2.4 -0.25 Q6.15 1.0 8.85 0.8 L7.75 -0.25 Q10.65 1.15 17.65 1.2 L20.8 2.4 Q23.6 4.45 23.1 4.4 22.4 3.9 20.1 3.25 22.05 4.05 23.45 5.55 21.8 5.2 21.7 5.05 21.4 6.2 21.45 7.65 L20.5 4.95 20.35 4.85 17.85 3.9 Q18.6 4.65 18.65 6.1 18.65 7.25 18.25 8.85 17.2 12.45 14.75 12.85 L17.25 12.7 Q12.95 14.3 9.8 13.6 7.45 13.6 6.35 14.2 6.4 13.65 7.45 13.25 5.1 13.2 3.1 14.1 4.5 13.15 8.25 12.55 L12.3 12.95 Q8.4 12.2 8.2 8.25 8.15 6.9 8.25 5.85 8.55 3.6 9.5 3.25 L5.05 3.7 Q3.1 5.8 3.85 8.75 M17.7 5.8 Q17.55 4.55 16.95 3.6 L11.5 3.15 Q9.7 3.85 9.3 5.7 9.1 6.9 9.35 8.45 9.85 12.0 13.45 12.35 16.5 12.45 17.6 8.4 L17.7 5.8" fill="#181519" fill-rule="evenodd" stroke="none"/>
    <path d="M9.3 5.7 Q9.7 3.85 11.5 3.15 L16.95 3.6 Q17.55 4.55 17.7 5.8 13.4 4.9 9.3 5.7" fill="#7e22aa" fill-rule="evenodd" stroke="none"/>
    <path d="M17.7 5.8 L17.6 8.4 Q16.5 12.45 13.45 12.35 9.85 12.0 9.35 8.45 9.1 6.9 9.3 5.7 13.4 4.9 17.7 5.8 M9.65 6.4 Q9.85 11.85 13.8 12.05 16.95 11.55 17.45 6.5 16.4 10.65 13.65 10.5 10.75 10.25 9.65 6.4" fill="#df6bff" fill-rule="evenodd" stroke="none"/>
    <path d="M9.65 6.4 Q10.75 10.25 13.65 10.5 16.4 10.65 17.45 6.5 16.95 11.55 13.8 12.05 9.85 11.85 9.65 6.4" fill="#f4bbff" fill-rule="evenodd" stroke="none"/>
    <path d="M15.45 6.95 L15.0 8.1 Q14.6 8.6 14.05 8.6 13.5 8.6 13.05 8.1 12.65 7.65 12.65 6.95 12.65 6.25 13.05 5.75 13.5 5.3 14.05 5.3 14.6 5.3 15.0 5.75 15.45 6.25 15.45 6.95" fill="#ffffff" fill-rule="evenodd" stroke="none"/>
    <path d="M15.45 6.95 Q15.45 6.25 15.0 5.75 14.6 5.3 14.05 5.3 13.5 5.3 13.05 5.75 12.65 6.25 12.65 6.95 12.65 7.65 13.05 8.1 13.5 8.6 14.05 8.6 14.6 8.6 15.0 8.1 L15.45 6.95 M15.8 6.95 Q15.8 7.85 15.25 8.4 14.75 9.05 14.05 9.05 13.35 9.05 12.8 8.4 12.3 7.85 12.3 6.95 12.3 6.05 12.8 5.4 13.35 4.85 14.05 4.85 14.75 4.85 15.25 5.4 15.8 6.05 15.8 6.95" fill="#541672" fill-rule="evenodd" stroke="none"/>
  </g>
</svg>
