<?xml version="1.0" encoding="UTF-8" standalone="no"?>
<svg xmlns:xlink="http://www.w3.org/1999/xlink" height="96.15px" width="88.1px" xmlns="http://www.w3.org/2000/svg">
  <g transform="matrix(1.0, 0.0, 0.0, 1.0, 4.95, -8.1)">
    <path d="M81.6 74.35 L82.65 76.15 82.15 75.8 79.75 73.1 79.65 72.6 Q79.45 72.55 79.75 73.05 74.35 66.1 71.05 54.45 73.05 70.5 70.3 85.1 73.35 78.05 74.15 67.0 74.85 68.6 76.05 70.2 74.15 81.1 69.3 89.5 68.35 93.45 67.05 97.25 71.0 66.9 61.0 44.9 65.9 44.1 69.9 42.55 L70.15 42.9 70.95 43.75 71.35 44.05 72.9 44.95 Q74.75 48.25 75.85 52.95 74.95 58.95 76.35 64.2 76.95 66.35 79.1 70.15 L77.0 62.0 Q76.1 59.2 75.85 53.1 L76.5 56.55 Q77.75 67.1 81.45 74.1 L81.6 74.35 81.45 74.1 81.65 74.4 81.6 74.35 M67.0 91.05 Q62.2 97.05 60.6 100.85 L65.5 86.05 66.3 85.0 65.5 86.05 62.65 89.95 Q59.0 95.2 56.6 100.25 57.5 95.05 66.6 80.55 67.0 85.9 67.0 91.05 M25.55 77.85 Q23.85 74.35 22.95 70.45 20.05 58.25 24.95 41.65 L25.8 38.85 24.95 41.65 Q15.5 67.9 26.15 94.05 L26.3 94.7 Q27.8 100.3 29.85 103.35 L29.05 102.65 Q15.8 86.2 14.4 56.2 L14.2 60.05 14.2 62.0 Q14.15 74.3 18.55 84.8 L19.0 85.9 Q21.2 94.95 24.7 99.45 L23.9 98.65 Q7.7 79.6 8.0 49.7 L7.85 50.45 Q4.65 69.7 14.45 86.75 L13.9 86.55 Q2.5 65.95 3.95 42.35 L12.15 43.9 11.85 45.0 12.35 43.9 19.3 44.5 12.95 42.65 Q13.9 40.75 15.15 38.9 18.15 34.45 20.1 30.0 L15.8 35.9 Q13.65 39.05 12.55 42.5 8.4 41.05 4.85 39.35 L-0.05 36.7 Q0.9 35.05 2.15 33.55 11.15 26.5 21.7 25.0 14.0 28.5 10.3 34.0 17.0 27.9 23.7 25.8 31.15 31.2 34.7 31.8 31.75 30.25 27.3 25.2 35.1 22.4 44.9 23.0 36.5 21.55 26.9 23.6 L26.9 22.4 Q30.7 19.65 38.8 18.55 42.9 18.75 47.05 19.9 60.55 23.55 68.95 35.3 L69.85 36.5 Q64.8 39.9 56.55 42.05 L55.3 38.8 55.3 42.35 49.4 43.55 48.1 39.8 48.55 43.65 49.4 43.55 50.1 45.85 48.75 45.85 48.55 43.65 35.7 45.0 48.75 45.85 Q50.35 64.4 46.5 76.4 45.3 61.5 38.9 46.0 40.6 57.25 39.9 62.2 34.05 49.95 32.5 38.4 30.65 49.15 30.9 55.0 29.35 50.5 29.1 40.2 27.15 49.05 26.1 56.05 L26.3 46.4 Q25.45 49.85 25.35 54.05 25.25 57.65 25.4 61.05 23.9 72.95 25.55 77.85 M57.1 10.95 Q66.1 14.0 73.75 21.15 71.0 19.3 67.65 17.85 L64.95 16.85 Q57.0 10.95 42.7 11.4 33.95 12.2 24.3 19.9 L24.2 19.95 Q22.5 21.1 20.95 22.5 28.6 11.05 41.7 8.6 47.45 8.5 52.75 9.7 L42.6 8.75 42.55 8.8 Q46.6 10.05 52.0 10.5 L57.1 10.95 M41.0 24.95 L40.85 24.95 Q45.65 25.2 51.0 26.45 L55.25 27.15 Q52.45 26.05 49.45 25.45 L41.0 24.95 M55.3 42.35 L56.55 42.05 57.65 45.4 60.6 45.0 60.3 43.4 61.0 44.9 60.6 45.0 Q61.8 52.5 60.05 58.25 59.65 52.0 57.65 45.4 L55.25 45.6 55.3 42.35 M50.1 45.85 L55.25 45.6 Q55.0 62.45 53.5 68.2 53.85 58.3 50.1 45.85 M62.3 30.0 Q62.55 31.5 64.7 33.4 L68.25 36.15 Q67.4 34.6 66.05 33.35 L62.3 30.0 M70.85 42.15 L69.9 42.55 Q68.9 41.1 69.3 39.4 69.95 41.0 70.85 42.15 L72.1 41.6 79.05 45.2 Q73.75 45.9 70.85 42.15 M8.35 47.8 L8.0 49.7 8.35 47.8 M3.9 42.35 Q-0.05 56.3 4.7 70.0 L4.9 70.55 3.55 68.25 Q0.6 63.05 -0.3 59.85 -1.95 54.25 -1.9 48.4 -2.65 51.9 -2.05 55.95 -1.2 61.3 2.5 67.15 L-0.4 63.3 -4.35 57.35 Q-5.0 49.8 -1.9 40.7 L-1.75 40.3 Q0.6 41.5 3.9 42.35 M14.7 53.25 L14.4 56.2 14.7 53.25 M20.3 43.2 Q19.45 46.1 18.95 49.75 18.2 54.95 18.2 59.8 L19.45 53.15 Q20.25 48.1 20.3 43.2 M4.9 45.4 Q4.3 47.9 4.35 51.1 4.45 55.6 5.6 59.6 5.75 56.85 5.5 53.75 L4.9 45.4 M19.7 72.8 Q19.8 76.4 20.7 80.8 21.95 87.1 24.3 92.6 23.3 88.7 22.45 84.5 21.25 78.5 19.7 72.8 M13.3 69.0 Q13.2 72.55 14.4 76.75 16.2 82.85 18.6 87.9 L16.35 80.1 13.3 69.0 M70.7 52.0 L71.05 54.45 70.7 52.0 M47.7 45.85 L47.75 56.2 Q47.9 61.65 47.5 72.75 48.75 63.75 49.0 57.55 49.2 51.3 47.7 45.85 M69.85 87.25 L69.3 89.5 69.85 87.25 69.8 87.7 69.85 87.1 Q71.55 75.75 71.35 68.25 71.1 60.7 69.75 44.6 69.75 59.1 70.1 64.35 70.4 69.55 69.85 87.25 M70.3 85.1 L70.05 86.3 69.85 87.1 70.05 86.3 70.3 85.1" fill="#3e3343" fill-rule="evenodd" stroke="none"/>
    <path d="M82.15 75.8 Q78.25 73.1 76.05 70.2 74.85 68.6 74.15 67.0 73.35 78.05 70.3 85.1 73.05 70.5 71.05 54.45 74.35 66.1 79.75 73.05 L79.75 73.1 82.15 75.8 M67.05 97.25 L66.7 98.15 67.0 91.05 Q67.0 85.9 66.6 80.55 L65.7 72.85 66.6 80.55 Q57.5 95.05 56.6 100.25 L55.15 103.65 Q55.4 97.5 58.4 90.95 64.45 88.25 65.7 72.85 64.35 63.05 61.5 52.6 62.75 61.25 58.75 67.6 58.95 60.0 56.0 46.8 56.9 64.65 52.05 79.2 52.9 69.0 50.6 57.0 51.4 76.3 44.35 81.7 44.7 80.4 44.7 76.55 44.65 72.65 42.4 66.15 42.8 70.2 42.25 73.7 40.8 67.2 37.8 60.15 35.35 54.4 34.2 49.55 32.6 59.3 33.25 63.7 29.85 58.3 29.55 54.85 23.45 73.85 27.15 80.7 L25.55 77.85 Q23.9 72.95 25.4 61.05 L26.1 56.05 Q27.15 49.05 29.1 40.2 29.35 50.5 30.9 55.0 30.65 49.15 32.5 38.4 34.05 49.95 39.9 62.2 40.6 57.25 38.9 46.0 45.3 61.5 46.5 76.4 50.35 64.4 48.75 45.85 L50.1 45.85 Q53.85 58.3 53.5 68.2 55.0 62.45 55.25 45.6 L57.65 45.4 Q59.65 52.0 60.05 58.25 61.8 52.5 60.6 45.0 L61.0 44.9 Q71.0 66.9 67.05 97.25 M60.6 100.85 L60.2 101.8 Q60.25 98.15 62.65 89.95 L65.5 86.05 60.6 100.85 M22.95 70.45 Q23.9 85.2 26.15 94.05 15.5 67.9 24.95 41.65 20.05 58.25 22.95 70.45 M72.9 44.95 L71.35 44.05 70.95 43.75 70.15 42.9 69.9 42.55 70.85 42.15 Q73.75 45.9 79.05 45.2 L72.9 44.95 M64.95 16.85 Q56.5 13.85 44.4 13.2 32.85 13.9 24.3 19.9 33.95 12.2 42.7 11.4 57.0 10.95 64.95 16.85 M20.95 22.5 Q29.65 18.15 38.8 18.55 30.7 19.65 26.9 22.4 L26.9 23.6 Q36.5 21.55 44.9 23.0 35.1 22.4 27.3 25.2 31.75 30.25 34.7 31.8 31.15 31.2 23.7 25.8 17.0 27.9 10.3 34.0 14.0 28.5 21.7 25.0 11.15 26.5 2.15 33.55 8.15 26.2 20.95 22.5 M41.0 24.95 L49.45 25.45 Q52.45 26.05 55.25 27.15 L51.0 26.45 Q45.65 25.2 40.85 24.95 L41.0 24.95 M48.55 43.65 L48.1 39.8 49.4 43.55 48.55 43.65 M55.3 42.35 L55.3 38.8 56.55 42.05 55.3 42.35 M12.55 42.5 Q13.65 39.05 15.8 35.9 L20.1 30.0 Q18.15 34.45 15.15 38.9 13.9 40.75 12.95 42.65 L12.35 43.9 11.85 45.0 12.15 43.9 12.55 42.5 M3.95 42.35 Q2.5 65.95 13.9 86.55 L14.3 87.3 13.6 86.4 Q8.9 84.4 5.65 72.45 L5.55 72.15 5.55 72.2 4.95 70.6 4.9 70.55 4.95 70.6 2.5 67.15 Q-1.2 61.3 -2.05 55.95 -2.65 51.9 -1.9 48.4 -1.95 54.25 -0.3 59.85 0.6 63.05 3.55 68.25 L4.9 70.55 4.7 70.0 Q-0.05 56.3 3.9 42.35 L3.95 42.35 3.9 42.35 3.95 42.2 3.95 42.35 M14.45 86.75 Q4.65 69.7 7.85 50.45 L8.0 49.7 Q7.7 79.6 23.9 98.65 17.8 92.5 14.45 86.75 M7.4 76.6 L7.25 76.2 6.1 73.55 5.7 72.55 5.65 72.45 5.7 72.55 6.1 73.55 7.25 76.2 7.4 76.6 M19.0 85.9 L18.55 84.8 Q14.15 74.3 14.2 62.0 L14.2 60.05 14.4 56.2 Q15.8 86.2 29.05 102.65 22.3 96.4 19.0 85.9 M20.3 43.2 Q20.25 48.1 19.45 53.15 L18.2 59.8 Q18.2 54.95 18.95 49.75 19.45 46.1 20.3 43.2 M73.45 64.85 L74.15 67.0 73.45 64.85 M50.2 51.05 L50.6 57.0 50.2 51.05 M42.4 66.15 L41.35 60.55 42.4 66.15 M34.2 49.55 L33.7 47.4 34.2 49.55" fill="#1a131e" fill-rule="evenodd" stroke="none"/>
    <path d="M75.85 53.1 Q76.1 59.2 77.0 62.0 L79.1 70.15 Q76.95 66.35 76.35 64.2 74.95 58.95 75.85 52.95 L75.85 52.75 75.85 53.1 75.85 52.95 75.85 53.1 M69.9 42.55 Q65.9 44.1 61.0 44.9 L60.3 43.4 60.6 45.0 57.65 45.4 56.55 42.05 Q64.8 39.9 69.85 36.5 74.5 42.6 79.9 45.0 L79.05 45.2 72.1 41.6 70.85 42.15 Q69.95 41.0 69.3 39.4 68.9 41.1 69.9 42.55 M57.1 10.95 L52.0 10.5 Q46.6 10.05 42.55 8.8 L42.6 8.75 52.75 9.7 57.1 10.95 M49.4 43.55 L55.3 42.35 55.25 45.6 50.1 45.85 49.4 43.55 M48.55 43.65 L48.75 45.85 35.7 45.0 48.55 43.65 M62.3 30.0 L66.05 33.35 Q67.4 34.6 68.25 36.15 L64.7 33.4 Q62.55 31.5 62.3 30.0 M12.95 42.65 L19.3 44.5 12.35 43.9 12.95 42.65 M12.15 43.9 L3.95 42.35 3.95 42.2 3.9 42.35 Q0.6 41.5 -1.75 40.3 L-0.05 36.7 4.85 39.35 Q8.4 41.05 12.55 42.5 L12.15 43.9 M3.95 42.2 L4.85 39.35 3.95 42.2 M25.4 61.05 Q25.25 57.65 25.35 54.05 25.45 49.85 26.3 46.4 L26.1 56.05 25.4 61.05 M4.9 45.4 L5.5 53.75 Q5.75 56.85 5.6 59.6 4.45 55.6 4.35 51.1 4.3 47.9 4.9 45.4 M13.3 69.0 L16.35 80.1 18.6 87.9 Q16.2 82.85 14.4 76.75 13.2 72.55 13.3 69.0 M19.7 72.8 Q21.25 78.5 22.45 84.5 23.3 88.7 24.3 92.6 21.95 87.1 20.7 80.8 19.8 76.4 19.7 72.8 M79.75 73.05 Q79.45 72.55 79.65 72.6 L79.75 73.1 79.75 73.05 M47.7 45.85 Q49.2 51.3 49.0 57.55 48.75 63.75 47.5 72.75 47.9 61.65 47.75 56.2 L47.7 45.85 M69.85 87.25 Q70.4 69.55 70.1 64.35 69.75 59.1 69.75 44.6 71.1 60.7 71.35 68.25 71.55 75.75 69.85 87.1 L69.8 87.7 69.85 87.25 69.85 87.1 69.85 87.25" fill="#6c5974" fill-rule="evenodd" stroke="none"/>
    <path d="M81.6 74.35 L82.65 76.15 82.15 75.8 Q78.25 73.1 76.05 70.2 74.15 81.1 69.3 89.5 68.35 93.45 67.05 97.25 L66.7 98.15 67.0 91.05 Q62.2 97.05 60.6 100.85 L60.2 101.8 Q60.25 98.15 62.65 89.95 59.0 95.2 56.6 100.25 L55.15 103.65 Q55.4 97.5 58.4 90.95 64.45 88.25 65.7 72.85 64.35 63.05 61.5 52.6 62.75 61.25 58.75 67.6 58.95 60.0 56.0 46.8 56.9 64.65 52.05 79.2 52.9 69.0 50.6 57.0 51.4 76.3 44.35 81.7 44.7 80.4 44.7 76.55 44.65 72.65 42.4 66.15 42.8 70.2 42.25 73.7 40.8 67.2 37.8 60.15 35.35 54.4 34.2 49.55 32.6 59.3 33.25 63.7 29.85 58.3 29.55 54.85 23.45 73.85 27.15 80.7 L25.55 77.85 Q23.85 74.35 22.95 70.45 23.9 85.2 26.15 94.05 L26.3 94.7 Q27.8 100.3 29.85 103.35 L30.1 103.75 M81.45 74.1 L81.6 74.35 M81.45 74.1 Q77.75 67.1 76.5 56.55 L75.85 53.1 75.85 52.95 Q74.75 48.25 72.9 44.95 L71.35 44.05 70.95 43.75 70.15 42.9 M57.1 10.95 Q66.1 14.0 73.75 21.15 71.0 19.3 67.65 17.85 L64.95 16.85 Q56.5 13.85 44.4 13.2 32.85 13.9 24.3 19.9 L24.2 19.95 Q22.5 21.1 20.95 22.5 29.65 18.15 38.8 18.55 42.9 18.75 47.05 19.9 60.55 23.55 68.95 35.3 L69.85 36.5 Q74.5 42.6 79.9 45.0 L79.05 45.2 72.9 44.95 M52.75 9.7 Q47.45 8.5 41.7 8.6 28.6 11.05 20.95 22.5 8.15 26.2 2.15 33.55 0.9 35.05 -0.05 36.7 L-1.75 40.3 -1.9 40.7 Q-5.0 49.8 -4.35 57.35 M52.75 9.7 L57.1 10.95 M14.45 86.75 Q4.65 69.7 7.85 50.45 L8.0 49.7 8.35 47.8 M4.85 39.35 L3.95 42.2 3.9 42.35 Q-0.05 56.3 4.7 70.0 L4.9 70.55 4.95 70.6 5.55 72.2 5.65 72.45 5.7 72.55 6.1 73.55 7.25 76.2 7.4 76.6 M3.95 42.35 L3.9 42.35 M24.95 41.65 L25.8 38.85 M19.0 85.9 L18.55 84.8 Q14.15 74.3 14.2 62.0 L14.2 60.05 14.4 56.2 14.7 53.25 M23.9 98.65 L24.7 99.45 Q21.2 94.95 19.0 85.9 22.3 96.4 29.05 102.65 L29.85 103.35 M23.9 98.65 Q17.8 92.5 14.45 86.75 M71.05 54.45 Q73.05 70.5 70.3 85.1 L70.05 86.3 69.85 87.1 69.85 87.25 69.3 89.5 M74.15 67.0 L73.45 64.85 M76.05 70.2 Q74.85 68.6 74.15 67.0 M71.05 54.45 L70.7 52.0 M41.35 60.55 L42.4 66.15 M50.6 57.0 L50.2 51.05 M65.5 86.05 L66.3 85.0 M66.6 80.55 Q67.0 85.9 67.0 91.05 M62.65 89.95 L65.5 86.05 M65.7 72.85 L66.6 80.55 M33.7 47.4 L34.2 49.55 M22.95 70.45 Q20.05 58.25 24.95 41.65" fill="none" stroke="#000000" stroke-linecap="round" stroke-linejoin="round" stroke-width="1.0"/>
  </g>
</svg>
