<?xml version="1.0" encoding="UTF-8" standalone="no"?>
<svg xmlns:xlink="http://www.w3.org/1999/xlink" height="140.85px" width="485.55px" xmlns="http://www.w3.org/2000/svg">
  <g transform="matrix(1.0, 0.0, 0.0, 1.0, 242.75, 70.4)">
    <path d="M239.3 -66.9 L239.3 66.95 -239.25 66.95 -239.25 -20.25 -82.5 -20.25 -56.15 -66.9 239.3 -66.9" fill="url(#gradient0)" fill-rule="evenodd" stroke="none"/>
    <path d="M239.3 -66.9 L239.3 66.95 -239.25 66.95 -239.25 -20.25 -82.5 -20.25 -56.15 -66.9 239.3 -66.9 Z" fill="none" stroke="#6666ff" stroke-linecap="round" stroke-linejoin="round" stroke-width="1.0"/>
    <path d="M233.8 -61.4 L233.8 61.45 -233.75 61.45 -233.75 -14.75 -82.5 -14.75 Q-81.0 -14.75 -79.7 -15.5 -78.45 -16.25 -77.7 -17.55 L-52.9 -61.4 233.8 -61.4" fill="#666666" fill-opacity="0.2784314" fill-rule="evenodd" stroke="none"/>
    <path d="M233.8 -61.4 L233.8 61.45 -233.75 61.45 -233.75 -14.75 -82.5 -14.75 Q-81.0 -14.75 -79.7 -15.5 -78.45 -16.25 -77.7 -17.55 L-52.9 -61.4 233.8 -61.4 Z" fill="none" stroke="#15d1ff" stroke-linecap="round" stroke-linejoin="round" stroke-opacity="0.6392157" stroke-width="1.0"/>
  </g>
  <defs>
    <linearGradient gradientTransform="matrix(0.0, -0.0739, 0.2921, 0.0, 0.0, 1.7)" gradientUnits="userSpaceOnUse" id="gradient0" spreadMethod="pad" x1="-819.2" x2="819.2">
      <stop offset="0.0" stop-color="#060c15"/>
      <stop offset="0.5137254901960784" stop-color="#2b1d3c"/>
      <stop offset="1.0" stop-color="#171927"/>
    </linearGradient>
  </defs>
</svg>
