<?xml version="1.0" encoding="UTF-8" standalone="no"?>
<svg xmlns:xlink="http://www.w3.org/1999/xlink" height="51.4px" width="278.9px" xmlns="http://www.w3.org/2000/svg">
  <g transform="matrix(1.0, 0.0, 0.0, 1.0, 217.65, -7.7)">
    <path d="M-193.9 11.2 L37.45 11.2 Q45.85 11.2 51.8 17.7 57.75 24.2 57.75 33.4 57.75 42.6 51.8 49.1 45.85 55.6 37.45 55.6 L-193.9 55.6 Q-202.25 55.6 -208.2 49.1 -214.15 42.6 -214.15 33.4 -214.15 24.2 -208.2 17.7 -202.25 11.2 -193.9 11.2" fill="url(#gradient0)" fill-rule="evenodd" stroke="none"/>
    <path d="M-193.9 11.2 L37.45 11.2 Q45.85 11.2 51.8 17.7 57.75 24.2 57.75 33.4 57.75 42.6 51.8 49.1 45.85 55.6 37.45 55.6 L-193.9 55.6 Q-202.25 55.6 -208.2 49.1 -214.15 42.6 -214.15 33.4 -214.15 24.2 -208.2 17.7 -202.25 11.2 -193.9 11.2 Z" fill="none" stroke="#b4e8ff" stroke-linecap="round" stroke-linejoin="round" stroke-width="1.0"/>
  </g>
  <defs>
    <linearGradient gradientTransform="matrix(0.0, 0.0238, -0.1659, 0.0, -78.2, 33.6)" gradientUnits="userSpaceOnUse" id="gradient0" spreadMethod="pad" x1="-819.2" x2="819.2">
      <stop offset="0.0" stop-color="#4ec5e2"/>
      <stop offset="0.5137254901960784" stop-color="#338093"/>
      <stop offset="1.0" stop-color="#1e4b56"/>
    </linearGradient>
  </defs>
</svg>
