<?xml version="1.0" encoding="UTF-8" standalone="no"?>
<svg xmlns:xlink="http://www.w3.org/1999/xlink" height="51.4px" width="143.95px" xmlns="http://www.w3.org/2000/svg">
  <g transform="matrix(1.0, 0.0, 0.0, 1.0, 71.95, 25.7)">
    <path d="M17.9 -22.2 L47.4 -22.2 Q56.15 -22.2 62.3 -15.7 68.5 -9.2 68.5 0.0 68.5 9.2 62.3 15.7 56.15 22.2 47.4 22.2 L17.9 22.2 17.9 -22.2" fill="url(#gradient0)" fill-rule="evenodd" stroke="none"/>
    <path d="M17.9 22.2 L-47.4 22.2 Q-56.05 22.2 -62.25 15.7 -68.45 9.2 -68.45 0.0 -68.45 -9.2 -62.25 -15.7 -56.05 -22.2 -47.4 -22.2 L17.9 -22.2 17.9 22.2" fill="url(#gradient1)" fill-rule="evenodd" stroke="none"/>
    <path d="M17.9 -22.2 L47.4 -22.2 Q56.15 -22.2 62.3 -15.7 68.5 -9.2 68.5 0.0 68.5 9.2 62.3 15.7 56.15 22.2 47.4 22.2 L17.9 22.2 -47.4 22.2 Q-56.05 22.2 -62.25 15.7 -68.45 9.2 -68.45 0.0 -68.45 -9.2 -62.25 -15.7 -56.05 -22.2 -47.4 -22.2 L17.9 -22.2 Z" fill="none" stroke="#b4e8ff" stroke-linecap="round" stroke-linejoin="round" stroke-width="1.0"/>
  </g>
  <defs>
    <linearGradient gradientTransform="matrix(0.0, 0.0238, -0.1726, 0.0, -72.95, 0.2)" gradientUnits="userSpaceOnUse" id="gradient0" spreadMethod="pad" x1="-819.2" x2="819.2">
      <stop offset="0.0" stop-color="#4ec5e2"/>
      <stop offset="0.5137254901960784" stop-color="#338093"/>
      <stop offset="1.0" stop-color="#1e4b56"/>
    </linearGradient>
    <linearGradient gradientTransform="matrix(0.0, 0.0238, -0.1726, 0.0, 72.95, 0.2)" gradientUnits="userSpaceOnUse" id="gradient1" spreadMethod="pad" x1="-819.2" x2="819.2">
      <stop offset="0.0" stop-color="#4ec5e2"/>
      <stop offset="0.5137254901960784" stop-color="#338093"/>
      <stop offset="1.0" stop-color="#1e4b56"/>
    </linearGradient>
  </defs>
</svg>
